<svg xmlns="http://www.w3.org/2000/svg" width="74.652" height="80" viewBox="0 0 74.652 80">
  <g id="Real_Estate" data-name="Real Estate" transform="translate(714.282 -152)">
    <path id="Path_1344" data-name="Path 1344" d="M-661.025,165.342c-2.088,0-4.082,0-6.076,0a6.6,6.6,0,0,1-1.243-.074,3.968,3.968,0,0,1-3.272-3.954c-.019-1.888,0-3.776,0-5.665v-.879c-.43-.034-.782-.086-1.135-.086q-17.328-.008-34.657,0a3.98,3.98,0,0,0-4.2,4.178q-.009,29.158,0,58.318a3.976,3.976,0,0,0,4.139,4.155c5.415.012,10.83,0,16.246,0a6.674,6.674,0,0,1,.749.012,1.3,1.3,0,0,1,1.213,1.337,1.3,1.3,0,0,1-1.246,1.307c-.22.022-.444.01-.666.01q-8,0-16,0a6.687,6.687,0,0,1-7.108-7.083q0-28.908,0-57.818a6.682,6.682,0,0,1,7.1-7.087q17.121,0,34.241-.012a7.242,7.242,0,0,1,5.448,2.239q3.444,3.507,6.951,6.951a7.234,7.234,0,0,1,2.261,5.439c-.028,6.665-.01,13.33-.011,19.995a4.618,4.618,0,0,1-.018.666,1.36,1.36,0,0,1-1.312,1.174,1.354,1.354,0,0,1-1.316-1.168,6.066,6.066,0,0,1-.019-.832q0-9.873,0-19.745C-660.959,166.283-661,165.848-661.025,165.342Zm-2.238-2.669-5.69-5.691c0,1.3-.015,2.77.005,4.241a1.309,1.309,0,0,0,1.375,1.443C-666.077,162.693-664.58,162.673-663.263,162.673Z" fill="#fff"/>
    <path id="Path_1345" data-name="Path 1345" d="M-645.776,198.855a6.816,6.816,0,0,1,.919.714,4.365,4.365,0,0,1,.021,6.106c-3.206,3.313-6.479,6.56-9.737,9.822a1.321,1.321,0,0,1-1.992.1,1.33,1.33,0,0,1,.127-1.992q4.513-4.56,9.046-9.1c1.538-1.546,1.5-2.373-.244-3.9-.225.214-.462.431-.689.657q-12.9,12.9-25.819,25.788a4.917,4.917,0,0,1-1.8,1.107c-3.562,1.235-7.147,2.4-10.724,3.6-.157.053-.318.1-.474.155a1.275,1.275,0,0,1-1.388-.293,1.293,1.293,0,0,1-.323-1.451c1.309-3.918,2.6-7.84,3.928-11.753a2.61,2.61,0,0,1,.64-.95q14.8-14.829,29.622-29.644a4.276,4.276,0,0,1,3.445-1.348,1.426,1.426,0,0,0,.921-.371c.723-.648,1.367-1.384,2.088-2.034a5.168,5.168,0,0,1,5.746-.828,5.009,5.009,0,0,1,2.826,4.806,5.027,5.027,0,0,1-1.374,3.226c-.358.387-.722.772-1.116,1.122a3,3,0,0,0-1.355,2.8,2.885,2.885,0,0,1-1.061,2.273c-.368.376-.786.7-1.182,1.049Zm-17.772,13.806a.8.8,0,0,0,.125-.088q8.421-8.415,16.835-16.835a1.357,1.357,0,0,0-.039-2.175c-1.206-1.226-2.428-2.437-3.646-3.652-1.084-1.082-1.617-1.08-2.71.013q-8.066,8.063-16.128,16.129c-.191.191-.367.4-.505.547Zm-17.961,5.9,5.9,5.965,9.822-9.808-5.89-6Zm-1.586,2.748-2.41,7.248,7.228-2.41Zm34.8-33.43,3.506,3.5c.567-.6,1.2-1.254,1.81-1.928a2.421,2.421,0,0,0-.01-3.377,2.44,2.44,0,0,0-3.385-.073C-647.053,186.612-647.679,187.278-648.293,187.881Z" fill="#fff"/>
    <path id="Path_1346" data-name="Path 1346" d="M-673.028,182.009v1.051q0,6.161,0,12.323c0,1.587-.374,1.955-1.968,1.955h-22.731c-1.484,0-1.888-.4-1.889-1.86q0-6.244,0-12.49v-1c-1.043.436-1.655-.061-2.209-.82-.85-1.165-1.757-2.288-2.632-3.435-.733-.961-.658-1.611.28-2.333q7.65-5.891,15.308-11.77a3.916,3.916,0,0,1,5.132-.029q7.7,5.891,15.377,11.817a1.393,1.393,0,0,1,.277,2.281c-.922,1.216-1.857,2.422-2.794,3.626C-671.537,182.17-671.811,182.262-673.028,182.009Zm-2.721,12.641c.023-.206.051-.34.051-.475,0-4.609.012-9.219-.016-13.828a1.312,1.312,0,0,0-.454-.88c-1.227-1-2.494-1.947-3.748-2.912l-6.35-4.881c-.211.154-.39.278-.563.41-3.169,2.437-6.33,4.883-9.512,7.3a1.368,1.368,0,0,0-.623,1.234c.024,4.387.013,8.774.013,13.161v.838h5.259v-.954c0-3.11-.007-6.22.005-9.33,0-1.207.469-1.656,1.669-1.659q3.664-.009,7.33,0c1.294,0,1.733.449,1.734,1.764q0,4.665,0,9.33v.881Zm4.947-17.795c-.143-.092-.266-.158-.375-.242q-7.029-5.4-14.057-10.806c-.854-.656-1.272-.638-2.154.04q-4.655,3.574-9.306,7.154c-1.667,1.283-3.333,2.568-5.047,3.89l1.6,2.051c.3-.223.5-.368.7-.519q6.006-4.617,12.011-9.235c.955-.733,1.34-.739,2.287-.014q3.867,2.961,7.722,5.936c1.645,1.265,3.292,2.529,5,3.837Zm-18.153,8.511v9.255h5.275v-9.255Z" fill="#fff"/>
    <path id="Path_1347" data-name="Path 1347" d="M-694.867,210.67h9.331a5.326,5.326,0,0,1,.748.019A1.328,1.328,0,0,1-683.627,212a1.331,1.331,0,0,1-1.163,1.313,5.173,5.173,0,0,1-.748.019h-18.829c-1.279,0-1.91-.442-1.909-1.334s.63-1.332,1.911-1.332Z" fill="#fff"/>
    <path id="Path_1348" data-name="Path 1348" d="M-684.369,205.337c-2.3,0-4.61.012-6.915-.012a1.633,1.633,0,0,1-1.08-.279,2.108,2.108,0,0,1-.525-1.291,1.132,1.132,0,0,1,1.023-1.051,3.715,3.715,0,0,1,.747-.032q6.832,0,13.664,0c.166,0,.334-.008.5,0A1.334,1.334,0,0,1-675.628,204a1.308,1.308,0,0,1-1.327,1.323c-.97.034-1.943.01-2.915.011Z" fill="#fff"/>
    <path id="Path_1349" data-name="Path 1349" d="M-700.943,202.671c1.249,0,2.5-.008,3.748,0,.977.008,1.575.529,1.57,1.337s-.6,1.32-1.585,1.323q-3.748.012-7.5,0c-.979,0-1.573-.528-1.568-1.339s.6-1.314,1.584-1.322C-703.442,202.663-702.193,202.671-700.943,202.671Z" fill="#fff"/>
  </g>
</svg>
