<svg xmlns="http://www.w3.org/2000/svg" width="60" height="58.575" viewBox="0 0 60 58.575">
  <g id="Blockchain_Icon" data-name="Blockchain Icon" transform="translate(-30 -30.712)">
    <path id="Path_937" data-name="Path 937" d="M73.883,64.249l-.235-.452a.166.166,0,0,1,.066-.222l1.506-.852a.166.166,0,0,1,.22.053l.267.4A3.889,3.889,0,0,0,75,61.258a2.837,2.837,0,0,0-.917-.91l.234.495a.165.165,0,0,1-.067.215l-1.478.841a.167.167,0,0,1-.221-.051l-.3-.449a2.967,2.967,0,0,0,.389,1.4A3.719,3.719,0,0,0,73.883,64.249Z" fill="none"/>
    <path id="Path_938" data-name="Path 938" d="M69.641,52.591l.246.478a.167.167,0,0,1-.066.221l-1.5.847a.166.166,0,0,1-.222-.055l-.294-.457a3.338,3.338,0,0,0,.478,1.553,3.525,3.525,0,0,0,1.171,1.316l-.229-.472a.166.166,0,0,1,.067-.217l1.483-.847a.166.166,0,0,1,.222.054l.285.438a3.459,3.459,0,0,0-.475-1.528A3.741,3.741,0,0,0,69.641,52.591Z" fill="none"/>
    <path id="Path_939" data-name="Path 939" d="M65.772,78.834V77.127a.167.167,0,0,1,.154-.166l.515-.039a3.566,3.566,0,0,0-1.979-.364,2.708,2.708,0,0,0-1.328.378l.484.032a.166.166,0,0,1,.157.165v1.706A.165.165,0,0,1,63.62,79l-.457.034a3.883,3.883,0,0,0,1.9.326,3.2,3.2,0,0,0,1.36-.332L65.929,79A.167.167,0,0,1,65.772,78.834Z" fill="none"/>
    <path id="Path_940" data-name="Path 940" d="M44.329,63.207h0l.279-.432a.167.167,0,0,1,.223-.054l1.5.857a.166.166,0,0,1,.065.22l-.227.444a3.619,3.619,0,0,0,1.2-1.389,3.166,3.166,0,0,0,.419-1.443l-.3.44a.168.168,0,0,1-.221.05l-1.477-.853a.167.167,0,0,1-.066-.218l.234-.476a4.176,4.176,0,0,0-1.433,1.869A2.2,2.2,0,0,0,44.329,63.207Z" fill="none"/>
    <path id="Path_941" data-name="Path 941" d="M55.177,76.641a2.43,2.43,0,0,0-.981.316l.475.021a.166.166,0,0,1,.159.167v1.7a.167.167,0,0,1-.154.166l-.469.035a4.078,4.078,0,0,0,2.251.319,2.488,2.488,0,0,0,1.059-.331l-.57-.026a.168.168,0,0,1-.159-.167V77.156a.167.167,0,0,1,.153-.166l.563-.046A4.257,4.257,0,0,0,55.177,76.641Z" fill="none"/>
    <path id="Path_942" data-name="Path 942" d="M48.776,55.433l.284-.424a.165.165,0,0,1,.139-.075.174.174,0,0,1,.084.023l1.488.867a.166.166,0,0,1,.064.22l-.226.436a3.68,3.68,0,0,0,1.247-1.461,2.909,2.909,0,0,0,.379-1.378l-.3.446a.167.167,0,0,1-.221.052l-1.49-.854a.165.165,0,0,1-.066-.219l.237-.474a4.037,4.037,0,0,0-1.338,1.67A2.74,2.74,0,0,0,48.776,55.433Z" fill="none"/>
    <path id="Path_943" data-name="Path 943" d="M49.838,83.158q-3.621,2.088-7.233,4.188a1.021,1.021,0,0,1-1.169.019c-2.975-1.742-6.057-3.522-9.422-5.445a1.027,1.027,0,0,1-.6-1.013c.018-3.5.019-7.171,0-10.9a.978.978,0,0,1,.569-.964q3.354-1.914,6.691-3.854L40.55,64.11c.132-.076.262-.154.4-.237l.085-.05-.713-1.232-.076.043c-.154.084-.294.162-.432.242l-2.407,1.389Q34.257,66.086,31.1,67.9c-.267.153-.541.3-.815.438L30,68.493V82.432l.095.05c.131.067.262.136.39.209l1.709.985q4.727,2.725,9.446,5.462a.616.616,0,0,0,.738,0q3.7-2.154,7.409-4.286l2.879-1.662c.1-.055.189-.118.295-.189l.045-.03-.711-1.226Z" fill="#fff"/>
    <path id="Path_944" data-name="Path 944" d="M68.541,79.261a.829.829,0,0,1,.895-.579c.733.019,1.454.015,2.218.012l.745,0V77.249l-.755,0c-.756,0-1.464-.007-2.183.011a.829.829,0,0,1-.9-.568A2.743,2.743,0,0,0,66.3,74.923a13.941,13.941,0,0,0-2.953-.006A2.841,2.841,0,0,0,61,76.746l-.036.08a.618.618,0,0,1-.62.469c-.477.008-.608-.3-.726-.561a2.808,2.808,0,0,0-2.253-1.786,13.731,13.731,0,0,0-2.493-.068,3.093,3.093,0,0,0-2.861,1.989.917.917,0,0,1-.728.408c-.8.023-1.61.02-2.4.017l-.675,0v1.426l.743,0c.751,0,1.489,0,2.226-.009h.045a.8.8,0,0,1,.855.557A2.875,2.875,0,0,0,54.5,81.08a14.5,14.5,0,0,0,2.265.052,3.056,3.056,0,0,0,2.84-1.843l.028-.061a.719.719,0,0,1,.713-.542h.015a.633.633,0,0,1,.631.482c.017.039.033.078.052.116a2.9,2.9,0,0,0,2.509,1.775,19.6,19.6,0,0,0,2.448,0A2.827,2.827,0,0,0,68.541,79.261ZM58.124,77.13a.165.165,0,0,1-.143.108l-.86.071v1.377l.776.037a.166.166,0,0,1,.137.085.162.162,0,0,1,0,.161c-.279.506-1.082.675-1.536.73a4.831,4.831,0,0,1-.6.035,3.275,3.275,0,0,1-2.269-.7.166.166,0,0,1-.032-.174.163.163,0,0,1,.142-.105l.755-.057V77.3l-.686-.031a.167.167,0,0,1-.138-.248,2.032,2.032,0,0,1,1.458-.713,3.865,3.865,0,0,1,2.954.644A.163.163,0,0,1,58.124,77.13ZM64.815,79.7a3.272,3.272,0,0,1-2.237-.685.168.168,0,0,1-.034-.175.164.164,0,0,1,.143-.105l.754-.054V77.29l-.674-.043A.166.166,0,0,1,62.632,77a2.218,2.218,0,0,1,1.807-.773,3.137,3.137,0,0,1,2.539.731.167.167,0,0,1-.121.266l-.751.057v1.4l.748.049a.166.166,0,0,1,.121.267,2.621,2.621,0,0,1-1.9.7C64.992,79.7,64.9,79.7,64.815,79.7Z" fill="#fff"/>
    <path id="Path_945" data-name="Path 945" d="M73.014,54.624a15.1,15.1,0,0,0-1.249-2.477,2.91,2.91,0,0,0-3.013-1.491.825.825,0,0,1-.9-.5c-.356-.653-.728-1.3-1.111-1.961l-.37-.643-1.243.717.363.64c.376.662.743,1.309,1.125,1.946a.815.815,0,0,1-.045,1.061,2.611,2.611,0,0,0-.51,2.5A14.863,14.863,0,0,0,67.1,56.564l.075.137a3.127,3.127,0,0,0,3.189,1.748.875.875,0,0,1,.752.36.917.917,0,0,1-.11.809,3.1,3.1,0,0,0-.262,3.288,18.391,18.391,0,0,0,1.033,1.823A2.965,2.965,0,0,0,74.705,66.2c.053,0,.1-.007.153-.007a.87.87,0,0,1,.841.534c.348.647.71,1.272,1.093,1.934q.186.321.374.648l1.246-.71c-.133-.231-.261-.46-.39-.687-.374-.662-.727-1.287-1.1-1.91a.815.815,0,0,1,.038-1.061,2.563,2.563,0,0,0,.49-2.605,14.693,14.693,0,0,0-1.759-3.046,2.731,2.731,0,0,0-2.508-.912,1.106,1.106,0,0,1-.743-.269c-.378-.32-.126-.661.024-.864l.043-.06A2.663,2.663,0,0,0,73.014,54.624Zm-1.471,1.344a.169.169,0,0,1-.137.115.173.173,0,0,1-.162-.075l-.443-.683-1.211.692.346.714a.164.164,0,0,1-.181.236A3.165,3.165,0,0,1,67.99,55.34a2.876,2.876,0,0,1-.434-2.223.166.166,0,0,1,.138-.106.162.162,0,0,1,.158.076l.439.683,1.227-.691-.391-.758a.166.166,0,0,1,.019-.18.169.169,0,0,1,.171-.057A3.4,3.4,0,0,1,71.1,53.761,3.036,3.036,0,0,1,71.543,55.968Zm.768,4.926.429.64,1.209-.689-.334-.707a.166.166,0,0,1,.17-.237,2.427,2.427,0,0,1,1.49,1.17,3.652,3.652,0,0,1,.711,2.626.169.169,0,0,1-.134.123.172.172,0,0,1-.166-.072l-.437-.659-1.231.7.366.7a.166.166,0,0,1-.014.175.168.168,0,0,1-.134.068l-.03,0c-.769-.14-1.485-1.048-1.865-1.783a2.51,2.51,0,0,1-.32-2.031.166.166,0,0,1,.138-.1A.158.158,0,0,1,72.311,60.894Z" fill="#fff"/>
    <path id="Path_946" data-name="Path 946" d="M43.972,59.721a15.751,15.751,0,0,0-1.19,2.063,2.931,2.931,0,0,0,.277,3.115.878.878,0,0,1,.058,1.116c-.378.624-.73,1.25-1.1,1.914-.124.221-.25.443-.377.668l1.245.706q.2-.348.4-.685c.387-.667.753-1.3,1.1-1.942a.791.791,0,0,1,.9-.479,2.6,2.6,0,0,0,2.5-.9,14.438,14.438,0,0,0,1.76-3.111,2.66,2.66,0,0,0-.481-2.517.722.722,0,0,1,.672-1.221A3.122,3.122,0,0,0,52.817,56.8l.061-.1c.305-.51.621-1.038.879-1.578a2.988,2.988,0,0,0-.273-3.222.831.831,0,0,1-.044-1.062c.381-.629.736-1.258,1.11-1.924l.365-.646,0,0-1.235-.71-.385.663c-.383.659-.746,1.281-1.091,1.924a.846.846,0,0,1-.948.5,2.95,2.95,0,0,0-2.941,1.448c-.345.536-.687,1.131-1.014,1.771a3.117,3.117,0,0,0,.246,3.389.892.892,0,0,1,.079.819.908.908,0,0,1-.761.332A2.966,2.966,0,0,0,43.972,59.721Zm4.786-5.6a3.786,3.786,0,0,1,1.959-2.049.163.163,0,0,1,.175.053.164.164,0,0,1,.022.181l-.384.765,1.218.7.419-.63a.146.146,0,0,1,.149-.073.166.166,0,0,1,.139.091,2.435,2.435,0,0,1-.3,2.011c-.412.8-1.148,1.666-1.865,1.783l-.027,0a.167.167,0,0,1-.147-.243l.353-.681-1.216-.709-.413.618a.151.151,0,0,1-.152.073.161.161,0,0,1-.137-.1A2.3,2.3,0,0,1,48.758,54.124Zm-2.491,5.751a.167.167,0,0,1,.18.237l-.357.723,1.208.7.442-.646a.165.165,0,0,1,.156-.072.169.169,0,0,1,.137.1,2.741,2.741,0,0,1-.372,2.088,3.311,3.311,0,0,1-1.813,1.725.15.15,0,0,1-.037,0,.17.17,0,0,1-.131-.064.167.167,0,0,1-.017-.178l.362-.709-1.223-.7-.376.581a.166.166,0,0,1-.136.077c-.049.016-.107-.025-.139-.069a1.832,1.832,0,0,1,.064-1.58C44.6,61.135,45.449,60.029,46.267,59.875Z" fill="#fff"/>
    <path id="Path_947" data-name="Path 947" d="M89.589,68.356q-3.437-1.965-6.863-3.947l-2.672-1.54c-.1-.054-.194-.1-.3-.158l-.04-.02-.7,1.226.087.051c.165.1.306.182.447.263l1.921,1.109Q84.731,67.227,88,69.1a.983.983,0,0,1,.574.969c-.017,3.591-.016,7.277,0,10.955a.934.934,0,0,1-.544.921c-2.6,1.491-6.03,3.461-9.472,5.475a1.032,1.032,0,0,1-1.176-.02q-3.543-2.062-7.1-4.1l-1.968-1.133c-.123-.071-.248-.139-.383-.211l-.058-.032-.713,1.224a.95.95,0,0,0,.094.068l1.575.908c2.923,1.687,5.947,3.431,8.931,5.127a.707.707,0,0,0,.553-.05q2.954-1.689,5.9-3.394,2.708-1.563,5.42-3.12a.61.61,0,0,0,.358-.64c-.015-4.767-.015-9.026,0-13.019A.653.653,0,0,0,89.589,68.356Z" fill="#fff"/>
    <path id="Path_948" data-name="Path 948" d="M48.017,37.992q.015,3.985.009,7.973v2.924c0,.128.009.257.017.389l0,.029h1.407V46.523q0-3.729-.009-7.458a.982.982,0,0,1,.54-.982c3.1-1.769,6.291-3.607,9.476-5.464a.981.981,0,0,1,1.126,0c3.21,1.873,6.381,3.7,9.424,5.438a1.025,1.025,0,0,1,.58,1.025c-.013,2.477-.012,4.954-.01,7.431v2.814h1.436a1.11,1.11,0,0,0,.026-.2l0-1.452c0-3.211,0-6.531-.019-9.8a.8.8,0,0,0-.365-.5Q68.5,35.53,65.325,33.7q-2.482-1.436-4.963-2.875a.564.564,0,0,0-.677,0c-3.893,2.264-7.7,4.46-11.311,6.527A.61.61,0,0,0,48.017,37.992Z" fill="#fff"/>
    <path id="Path_949" data-name="Path 949" d="M49.251,72.127l1.476-.852c.121-.071.239-.147.364-.226l.052-.034-.708-1.229-.082.046c-.122.068-.229.128-.335.19l-1.832,1.055c-1.822,1.049-3.706,2.134-5.548,3.22a1.1,1.1,0,0,1-1.28-.016c-1.1-.654-2.22-1.3-3.308-1.925l-1.066-.613c-.88-.508-1.761-1.014-2.659-1.53l-.746-.428-.71,1.232.086.053c.126.08.241.152.358.219L35.13,72.34c1.774,1.027,3.608,2.09,5.427,3.107a1.328,1.328,0,0,1,.758,1.345c-.024,2.127-.02,4.289-.015,6.381l0,1.923c0,.148.01.3.018.44l0,.054h1.407V83.05c0-2.174,0-4.347-.011-6.522a.986.986,0,0,1,.561-.971Q46.274,73.856,49.251,72.127Z" fill="#fff"/>
    <path id="Path_950" data-name="Path 950" d="M50.882,40.049l.086.053c.131.08.248.151.367.219l1.679.97q2.852,1.646,5.709,3.281a1.039,1.039,0,0,1,.6,1.02c-.017,2.327-.014,4.693-.011,6.982l0,1.552c0,.153.012.3.023.451l0,.039h1.419V51.982c0-2.119,0-4.238-.012-6.356a1.065,1.065,0,0,1,.6-1.069c1.918-1.085,3.859-2.208,5.736-3.294l1.651-.956c.12-.069.239-.142.367-.222l.059-.036-.715-1.226-.426.24-1.543.888q-2.971,1.711-5.939,3.433a.894.894,0,0,1-1.022.007c-1.121-.663-2.249-1.312-3.378-1.96L51.6,38.815Z" fill="#fff"/>
    <path id="Path_951" data-name="Path 951" d="M86.312,69.9c-.135.073-.255.138-.373.206l-1.731,1c-1.837,1.059-3.737,2.155-5.593,3.252a1.105,1.105,0,0,1-1.274-.013c-1.891-1.11-3.825-2.222-5.695-3.3l-1.638-.943c-.121-.07-.244-.135-.38-.207l-.074-.039-.709,1.225.064.039c.143.087.269.165.4.238l1.722,1c1.839,1.063,3.74,2.163,5.621,3.223a1.109,1.109,0,0,1,.627,1.118c-.014,2.144-.012,4.288-.009,6.433v2.5H78.7V82.9c0-1.989,0-4.046-.023-6.07a1.271,1.271,0,0,1,.732-1.3c1.842-1.038,3.7-2.117,5.5-3.16L86.7,71.33c.13-.075.259-.154.4-.239l.028-.018-.711-1.227Z" fill="#fff"/>
    <path id="Path_952" data-name="Path 952" d="M56.253,56.2c1.241.721,2.414,1.4,3.618,2.071a.678.678,0,0,0,.469-.088c1.074-.6,2.157-1.228,3.2-1.835l.671-.389c.127-.074.251-.155.383-.242l.079-.051-.724-1.219c-.29.167-.577.329-.862.489-.786.443-1.528.862-2.25,1.329a1.334,1.334,0,0,1-1.648-.011c-.739-.469-1.487-.891-2.279-1.34q-.416-.234-.835-.474l-.716,1.245Z" fill="#fff"/>
    <path id="Path_953" data-name="Path 953" d="M52.59,70.3c-.047.917-.025,1.825,0,2.751a.483.483,0,0,0,.168.27,8.044,8.044,0,0,0,.973.02l.257,0,0-.011a.6.6,0,0,0,.024-.061l0-.843c.005-1.206.011-2.453-.011-3.677a.652.652,0,0,0-.3-.369c-.637-.39-1.3-.766-1.936-1.131L49.49,65.933l-.711,1.242c.277.162.549.324.818.483.752.447,1.463.869,2.2,1.248A1.3,1.3,0,0,1,52.59,70.3Z" fill="#fff"/>
    <path id="Path_954" data-name="Path 954" d="M70.469,67.681l.824-.484-.72-1.243c-.328.192-.649.386-.966.577a27.508,27.508,0,0,1-2.491,1.391,1.765,1.765,0,0,0-1.176,2.042,18.735,18.735,0,0,1,.04,2.3c-.007.282-.013.567-.015.852h1.449c0-.242,0-.482.007-.72.01-.687.018-1.337-.023-1.994a1.339,1.339,0,0,1,.821-1.441C68.978,68.562,69.7,68.134,70.469,67.681Z" fill="#fff"/>
    <path id="Path_955" data-name="Path 955" d="M34.348,79.17H32.954l0,.277c0,.369-.006.717.014,1.062a.425.425,0,0,0,.145.277c1.679.98,3.365,1.95,5.083,2.938l.98.564.711-1.251L38.7,82.353c-1.164-.673-2.307-1.334-3.458-1.98l-.061-.034C34.746,80.1,34.257,79.824,34.348,79.17Z" fill="#fff"/>
    <path id="Path_956" data-name="Path 956" d="M59.653,35.8a.124.124,0,0,1,.038.005c.083.019.169.033.255.048a2,2,0,0,1,.606.171c.523.276,1.043.581,1.544.875.2.117.4.235.6.35l2.209,1.277.718-1.245-.867-.5c-1.556-.9-3.074-1.775-4.6-2.643a.344.344,0,0,0-.262,0c-.267.133-.524.287-.795.449l-.188.112.657,1.127A.157.157,0,0,1,59.653,35.8Z" fill="#fff"/>
    <path id="Path_957" data-name="Path 957" d="M85.783,79.511a.16.16,0,0,1-.049.087c-.074.069-.145.145-.217.22a2.745,2.745,0,0,1-.55.48c-1.08.643-2.191,1.283-3.267,1.9l-.972.56L81.446,84l.88-.507c1.55-.9,3.065-1.77,4.577-2.652a.3.3,0,0,0,.128-.173c.018-.317.015-.631.013-.963v-.195Z" fill="#fff"/>
    <rect id="Rectangle_34" data-name="Rectangle 34" width="1.359" height="1.363" transform="translate(32.985 73.259)" fill="#fff"/>
    <path id="Path_958" data-name="Path 958" d="M56.363,36.172l.718,1.241,1.245-.724L57.6,35.453Z" fill="#fff"/>
    <rect id="Rectangle_35" data-name="Rectangle 35" width="1.436" height="1.436" transform="matrix(0.864, -0.503, 0.503, 0.864, 53.809, 37.648)" fill="#fff"/>
    <rect id="Rectangle_36" data-name="Rectangle 36" width="1.356" height="1.364" transform="translate(85.645 73.618)" fill="#fff"/>
    <rect id="Rectangle_37" data-name="Rectangle 37" width="1.35" height="1.38" transform="translate(32.997 76.204)" fill="#fff"/>
    <rect id="Rectangle_38" data-name="Rectangle 38" width="1.352" height="1.369" transform="translate(85.646 76.577)" fill="#fff"/>
  </g>
</svg>
