<svg xmlns="http://www.w3.org/2000/svg" width="61.763" height="60" viewBox="0 0 61.763 60">
  <g id="Cloud_solutions_Icon" data-name="Cloud solutions Icon" transform="translate(823.715 -30)">
    <path id="Path_917" data-name="Path 917" d="M-773.06,55.06a8.124,8.124,0,0,0-1.26.1.984.984,0,0,1-.861-.286,1,1,0,0,1-.264-.868,8.153,8.153,0,0,0,.136-1.463,8.065,8.065,0,0,0-8.056-8.057,8.056,8.056,0,0,0-5.214,1.918.992.992,0,0,1-.913.2.987.987,0,0,1-.669-.65A11.526,11.526,0,0,0-801.18,37.9a11.579,11.579,0,0,0-11.565,11.565,11.5,11.5,0,0,0,.809,4.246.989.989,0,0,1-.1.909.992.992,0,0,1-.8.442,8.1,8.1,0,0,0-7.865,8.05,8.065,8.065,0,0,0,8.056,8.056h5.736a14.056,14.056,0,0,1-.77-4.559,14.185,14.185,0,0,1,14.17-14.169,14.185,14.185,0,0,1,14.169,14.169,14.061,14.061,0,0,1-.77,4.559h7.046A8.065,8.065,0,0,0-765,63.116,8.065,8.065,0,0,0-773.06,55.06Zm-28.193-13.075a6.634,6.634,0,0,0-.664-.034,6.525,6.525,0,0,0-6.517,6.518,6.69,6.69,0,0,0,.051.824l-1.961.244a8.673,8.673,0,0,1-.066-1.068,8.5,8.5,0,0,1,8.493-8.494c.291,0,.578.015.861.043Z" fill="none"/>
    <path id="Path_918" data-name="Path 918" d="M-788.955,82.776h-9.335a.749.749,0,0,0-.747.748.749.749,0,0,0,.747.748h9.335a.749.749,0,0,0,.748-.748A.749.749,0,0,0-788.955,82.776Z" fill="none"/>
    <path id="Path_919" data-name="Path 919" d="M-795.191,86.432a1.594,1.594,0,0,0,1.592,1.592,1.594,1.594,0,0,0,1.592-1.592,1.6,1.6,0,0,0-.011-.184h-3.162A1.6,1.6,0,0,0-795.191,86.432Z" fill="none"/>
    <path id="Path_920" data-name="Path 920" d="M-816.123,51.811a14.892,14.892,0,0,1,6.79-15.112,14.856,14.856,0,0,1,20.5,4.482q.208.33.4.666l1.724-.965q-.215-.384-.452-.757a16.831,16.831,0,0,0-23.223-5.1,16.857,16.857,0,0,0-7.682,17.113Z" fill="#fff"/>
    <path id="Path_921" data-name="Path 921" d="M-813.26,78.777a4.564,4.564,0,0,0-4.559,4.56,4.564,4.564,0,0,0,4.559,4.558,4.564,4.564,0,0,0,4.56-4.558A4.564,4.564,0,0,0-813.26,78.777Zm-2.583,4.56a2.586,2.586,0,0,1,2.583-2.584,2.587,2.587,0,0,1,2.584,2.584,2.586,2.586,0,0,1-2.584,2.583A2.586,2.586,0,0,1-815.843,83.337Z" fill="#fff"/>
    <path id="Path_922" data-name="Path 922" d="M-768.265,42.933a5.242,5.242,0,0,0,5.237-5.237,5.242,5.242,0,0,0-5.237-5.237A5.242,5.242,0,0,0-773.5,37.7,5.242,5.242,0,0,0-768.265,42.933Zm0-8.5A3.264,3.264,0,0,1-765,37.7a3.264,3.264,0,0,1-3.261,3.261,3.265,3.265,0,0,1-3.26-3.261A3.265,3.265,0,0,1-768.265,34.435Z" fill="#fff"/>
    <path id="Path_923" data-name="Path 923" d="M-768.942,79.451a3.175,3.175,0,0,0-3.171,3.172,3.175,3.175,0,0,0,3.171,3.171,3.175,3.175,0,0,0,3.172-3.171A3.176,3.176,0,0,0-768.942,79.451Zm0,4.367a1.2,1.2,0,0,1-1.2-1.195,1.2,1.2,0,0,1,1.2-1.2,1.2,1.2,0,0,1,1.2,1.2A1.2,1.2,0,0,1-768.942,83.818Z" fill="#fff"/>
    <path id="Path_924" data-name="Path 924" d="M-810.41,48.469a8.673,8.673,0,0,0,.066,1.068l1.961-.244a6.69,6.69,0,0,1-.051-.824,6.525,6.525,0,0,1,6.517-6.518,6.634,6.634,0,0,1,.664.034l.2-1.967c-.283-.028-.57-.043-.861-.043A8.5,8.5,0,0,0-810.41,48.469Z" fill="#fff"/>
    <path id="Path_925" data-name="Path 925" d="M-815.007,32.064a1.031,1.031,0,0,0,1.031-1.032A1.031,1.031,0,0,0-815.007,30a1.032,1.032,0,0,0-1.032,1.032A1.032,1.032,0,0,0-815.007,32.064Z" fill="#fff"/>
    <path id="Path_926" data-name="Path 926" d="M-765.548,48.383a1.032,1.032,0,0,0,1.032,1.032,1.032,1.032,0,0,0,1.032-1.032,1.032,1.032,0,0,0-1.032-1.032A1.032,1.032,0,0,0-765.548,48.383Z" fill="#fff"/>
    <path id="Path_927" data-name="Path 927" d="M-762.984,76.441a1.032,1.032,0,0,0-1.032,1.032,1.032,1.032,0,0,0,1.032,1.032,1.032,1.032,0,0,0,1.032-1.032A1.032,1.032,0,0,0-762.984,76.441Z" fill="#fff"/>
    <circle id="Ellipse_13" data-name="Ellipse 13" cx="1.032" cy="1.032" r="1.032" transform="translate(-780.715 84.04)" fill="#fff"/>
    <path id="Path_928" data-name="Path 928" d="M-803.981,85.416a1.032,1.032,0,0,0-1.032,1.032,1.032,1.032,0,0,0,1.032,1.032,1.032,1.032,0,0,0,1.032-1.032A1.032,1.032,0,0,0-803.981,85.416Z" fill="#fff"/>
    <circle id="Ellipse_14" data-name="Ellipse 14" cx="1.032" cy="1.032" r="1.032" transform="translate(-779.25 32.061)" fill="#fff"/>
    <path id="Path_929" data-name="Path 929" d="M-821.95,46.594a1.032,1.032,0,0,0,1.032-1.032,1.032,1.032,0,0,0-1.032-1.032,1.032,1.032,0,0,0-1.032,1.032A1.032,1.032,0,0,0-821.95,46.594Z" fill="#fff"/>
    <path id="Path_930" data-name="Path 930" d="M-822.683,77.09a1.032,1.032,0,0,0-1.032,1.032,1.032,1.032,0,0,0,1.032,1.032,1.032,1.032,0,0,0,1.032-1.032A1.032,1.032,0,0,0-822.683,77.09Z" fill="#fff"/>
    <path id="Path_931" data-name="Path 931" d="M-763.028,63.116a10.047,10.047,0,0,0-10.321-10.028c.011-.183.016-.365.016-.546a10.044,10.044,0,0,0-10.032-10.033,10.035,10.035,0,0,0-5.388,1.572,13.492,13.492,0,0,0-12.427-8.153,13.557,13.557,0,0,0-13.541,13.541,13.5,13.5,0,0,0,.526,3.74,10.1,10.1,0,0,0-8.478,9.907,10.043,10.043,0,0,0,10.032,10.032h6.584a14.2,14.2,0,0,0,7.008,6.509v1.264a2.719,2.719,0,0,0-1.964,2.6,2.726,2.726,0,0,0,2.723,2.724h1.134c0,.061-.011.122-.011.184A3.571,3.571,0,0,0-793.6,90a3.571,3.571,0,0,0,3.568-3.568c0-.062-.008-.123-.011-.184h1.087a2.727,2.727,0,0,0,2.724-2.724,2.726,2.726,0,0,0-1.693-2.518l-.008-1.361a14.21,14.21,0,0,0,6.978-6.5h7.894A10.043,10.043,0,0,0-763.028,63.116Zm-26.24,14.935a.987.987,0,0,0-.645.932l.011,1.677h-7.171V78.986a.988.988,0,0,0-.647-.927A12.241,12.241,0,0,1-805.7,66.613,12.207,12.207,0,0,1-793.505,54.42a12.207,12.207,0,0,1,12.193,12.193A12.246,12.246,0,0,1-789.268,78.051Zm-2.739,8.381a1.594,1.594,0,0,1-1.592,1.592,1.594,1.594,0,0,1-1.592-1.592,1.6,1.6,0,0,1,.011-.184h3.162A1.6,1.6,0,0,1-792.007,86.432Zm3.052-2.16h-9.335a.749.749,0,0,1-.747-.748.749.749,0,0,1,.747-.748h9.335a.749.749,0,0,1,.748.748A.749.749,0,0,1-788.955,84.272Zm15.9-13.1h-7.046a14.061,14.061,0,0,0,.77-4.559,14.185,14.185,0,0,0-14.169-14.169,14.185,14.185,0,0,0-14.17,14.169,14.056,14.056,0,0,0,.77,4.559h-5.736a8.065,8.065,0,0,1-8.056-8.056,8.1,8.1,0,0,1,7.865-8.05.992.992,0,0,0,.8-.442.989.989,0,0,0,.1-.909,11.5,11.5,0,0,1-.809-4.246A11.579,11.579,0,0,1-801.18,37.9a11.526,11.526,0,0,1,11.019,8.047.987.987,0,0,0,.669.65.992.992,0,0,0,.913-.2,8.056,8.056,0,0,1,5.214-1.918,8.065,8.065,0,0,1,8.056,8.057,8.153,8.153,0,0,1-.136,1.463,1,1,0,0,0,.264.868.984.984,0,0,0,.861.286,8.124,8.124,0,0,1,1.26-.1A8.065,8.065,0,0,1-765,63.116,8.065,8.065,0,0,1-773.06,71.172Z" fill="#fff"/>
    <path id="Path_932" data-name="Path 932" d="M-793.505,59.366a7.387,7.387,0,0,1,7.378,7.379h1.976a9.365,9.365,0,0,0-9.354-9.355,9.365,9.365,0,0,0-9.355,9.355h1.976A7.387,7.387,0,0,1-793.505,59.366Z" fill="#fff"/>
  </g>
</svg>
