<svg xmlns="http://www.w3.org/2000/svg" width="60" height="60" viewBox="0 0 60 60">
  <g id="Data_science_Icon" data-name="Data science Icon" transform="translate(988.5 -30)">
    <path id="Path_870" data-name="Path 870" d="M-950.419,49.09q1.119.982,2.222,2.045t2.112,2.139q-.259-1.844-.635-3.572Q-948.508,49.342-950.419,49.09Z" fill="none"/>
    <path id="Path_871" data-name="Path 871" d="M-958.5,47.022q1.563,0,3.082.071-1.536-1.128-3.069-2.094-1.547.97-3.081,2.093Q-960.057,47.023-958.5,47.022Z" fill="none"/>
    <path id="Path_872" data-name="Path 872" d="M-953.22,48.792c-1.712-.142-3.475-.22-5.28-.22s-3.561.077-5.27.219c-1.322,1.072-2.624,2.22-3.889,3.44s-2.454,2.476-3.566,3.751c-.147,1.648-.227,3.346-.227,5.083s.08,3.427.226,5.072c1.107,1.27,2.3,2.529,3.576,3.761h0c1.265,1.221,2.567,2.368,3.89,3.441,1.706.141,3.462.218,5.26.218s3.56-.077,5.269-.219c1.322-1.072,2.624-2.22,3.89-3.44s2.461-2.484,3.566-3.75c.147-1.648.227-3.346.227-5.083s-.08-3.442-.228-5.093c-1.109-1.272-2.3-2.524-3.557-3.741S-951.908,49.857-953.22,48.792Zm3.565,16.728c0,2.214-4.344,3.372-8.635,3.372s-8.634-1.158-8.634-3.372V54.883c0-2.214,4.344-3.372,8.634-3.372s8.635,1.158,8.635,3.372Z" fill="none"/>
    <path id="Path_873" data-name="Path 873" d="M-969.891,48.038c1.748-.327,3.579-.581,5.482-.752,1.457-1.161,2.94-2.231,4.43-3.2A36.871,36.871,0,0,0-967.2,40.8,34.163,34.163,0,0,0-969.891,48.038Z" fill="none"/>
    <path id="Path_874" data-name="Path 874" d="M-968.795,51.135q1.1-1.059,2.229-2.046-1.917.249-3.714.613-.375,1.731-.637,3.582Q-969.891,52.195-968.795,51.135Z" fill="none"/>
    <path id="Path_875" data-name="Path 875" d="M-979.468,69.478a37.185,37.185,0,0,0,7.462,2.573,52.643,52.643,0,0,1-.78-5.29c-1.213-1.411-2.315-2.832-3.306-4.247a35.514,35.514,0,0,0-3.129,6.259C-979.309,69.011-979.389,69.245-979.468,69.478Z" fill="none"/>
    <path id="Path_876" data-name="Path 876" d="M-958.29,58.255a15.881,15.881,0,0,1-7.146-1.4v3.317c0,.658,2.523,1.937,7.146,1.937s7.147-1.279,7.147-1.937V56.856A15.886,15.886,0,0,1-958.29,58.255Zm-3.017,2.056h-1.244v-1.2h1.244Zm2.447,0H-960.1v-1.2h1.244Zm2.446,0h-1.243v-1.2h1.243Zm2.447,0h-1.244v-1.2h1.244Z" fill="none"/>
    <path id="Path_877" data-name="Path 877" d="M-973.059,61.065q0-1.5.072-2.959-1.158,1.472-2.162,2.96,1,1.471,2.162,2.95Q-973.057,62.563-973.059,61.065Z" fill="none"/>
    <path id="Path_878" data-name="Path 878" d="M-976.092,59.627c1-1.433,2.1-2.86,3.306-4.262a52.581,52.581,0,0,1,.78-5.287c-.322.077-.637.158-.951.241,0,.037.012.073.012.111a3,3,0,0,1-3.046,2.937,3.072,3.072,0,0,1-2.436-1.191c-.368.16-.728.323-1.076.491A34.488,34.488,0,0,0-976.092,59.627Z" fill="none"/>
    <path id="Path_879" data-name="Path 879" d="M-937.033,51.168a16.49,16.49,0,0,0,.584-3.574,2.971,2.971,0,0,1-2.511-2.886,2.886,2.886,0,0,1,1.159-2.289,5.967,5.967,0,0,0-.622-.72,7.713,7.713,0,0,0-5.526-1.887,17.767,17.767,0,0,0-4.271.585,36.405,36.405,0,0,1,2.859,7.995A39.578,39.578,0,0,1-937.033,51.168Z" fill="none"/>
    <path id="Path_880" data-name="Path 880" d="M-964.4,74.844q-2.861-.257-5.492-.753a34.286,34.286,0,0,0,2.667,7.2c.243-.077.484-.153.731-.239a37.962,37.962,0,0,0,6.5-3.024C-961.475,77.064-962.949,76-964.4,74.844Z" fill="none"/>
    <path id="Path_881" data-name="Path 881" d="M-952.591,74.844c-1.451,1.155-2.926,2.22-4.409,3.181a37.962,37.962,0,0,0,6.5,3.024c.244.085.484.161.724.237a34.288,34.288,0,0,0,2.666-7.195C-948.857,74.418-950.688,74.672-952.591,74.844Z" fill="none"/>
    <path id="Path_882" data-name="Path 882" d="M-958.29,63.545a15.881,15.881,0,0,1-7.146-1.4V65.52c0,.658,2.523,1.937,7.146,1.937s7.147-1.279,7.147-1.937V62.146A15.886,15.886,0,0,1-958.29,63.545Zm-3.017,2.187h-1.244v-1.2h1.244Zm2.447,0H-960.1v-1.2h1.244Zm2.446,0h-1.243v-1.2h1.243Zm2.447,0h-1.244v-1.2h1.244Z" fill="none"/>
    <path id="Path_883" data-name="Path 883" d="M-958.29,56.82c4.624,0,7.147-1.28,7.147-1.937s-2.523-1.937-7.147-1.937-7.146,1.279-7.146,1.937S-962.913,56.82-958.29,56.82Z" fill="none"/>
    <path id="Path_884" data-name="Path 884" d="M-952.573,47.287c1.9.171,3.722.425,5.464.751a34.3,34.3,0,0,0-2.668-7.2c-.242.077-.484.155-.731.24a37.944,37.944,0,0,0-6.478,3.011C-955.516,45.048-954.039,46.114-952.573,47.287Z" fill="none"/>
    <path id="Path_885" data-name="Path 885" d="M-968.787,70.994h0q-1.107-1.068-2.131-2.155.261,1.853.638,3.588,1.8.361,3.724.615Q-967.687,72.052-968.787,70.994Z" fill="none"/>
    <path id="Path_886" data-name="Path 886" d="M-937.771,68.773a35.514,35.514,0,0,0-3.129-6.259c-.993,1.419-2.1,2.843-3.315,4.258a52.447,52.447,0,0,1-.779,5.279c.253-.06.5-.125.748-.189,0-.043-.013-.083-.013-.126a3,3,0,0,1,3.046-2.938,3.069,3.069,0,0,1,2.466,1.228c.419-.179.829-.361,1.222-.551C-937.6,69.243-937.683,69.01-937.771,68.773Z" fill="none"/>
    <path id="Path_887" data-name="Path 887" d="M-938.167,71.736a3,3,0,0,1-3.046,2.937,3.069,3.069,0,0,1-2.542-1.326c-.527.137-1.06.268-1.606.39a36.375,36.375,0,0,1-2.857,7.992,18.258,18.258,0,0,0,3.832.574,3,3,0,0,1,3.019-2.682,3.074,3.074,0,0,1,2.465,1.226,5.892,5.892,0,0,0,.487-.418c2.023-1.951,2.478-5.262,1.35-9.452-.367.174-.742.344-1.128.508C-938.186,71.569-938.167,71.65-938.167,71.736Z" fill="none"/>
    <path id="Path_888" data-name="Path 888" d="M-977.062,61.081a36.658,36.658,0,0,1-3.865-7.664c-3.735,2.115-5.966,4.768-5.966,7.648s2.242,5.545,5.993,7.662c.056-.159.107-.317.167-.478A37.768,37.768,0,0,1-977.062,61.081Z" fill="none"/>
    <path id="Path_889" data-name="Path 889" d="M-979.927,70.98c-.146.542-.269,1.07-.361,1.581a2.943,2.943,0,0,1,2.015,2.753A2.935,2.935,0,0,1-980.087,78a6.032,6.032,0,0,0,1.51,2.433c2.021,1.95,5.453,2.39,9.8,1.3a36.428,36.428,0,0,1-2.858-7.994A39.609,39.609,0,0,1-979.927,70.98Z" fill="none"/>
    <path id="Path_890" data-name="Path 890" d="M-958.5,78.954a40.4,40.4,0,0,1-7.453,3.554c-.167.058-.33.108-.495.163,2.195,3.617,4.952,5.779,7.944,5.779a6.4,6.4,0,0,0,2.21-.407,2.814,2.814,0,0,1-.188-.981,3,3,0,0,1,3.046-2.938,3.1,3.1,0,0,1,1.577.437,19.078,19.078,0,0,0,1.3-1.893c-.163-.053-.324-.1-.489-.16A40.4,40.4,0,0,1-958.5,78.954Z" fill="none"/>
    <path id="Path_891" data-name="Path 891" d="M-958.5,75.107q-1.551,0-3.058-.07,1.522,1.116,3.062,2.082,1.537-.966,3.063-2.082Q-956.944,75.106-958.5,75.107Z" fill="none"/>
    <path id="Path_892" data-name="Path 892" d="M-936.066,53.421a36.633,36.633,0,0,1-3.864,7.661,37.736,37.736,0,0,1,3.671,7.167c.06.16.11.316.166.475,3.747-2.117,5.986-4.775,5.986-7.659S-932.335,55.535-936.066,53.421Z" fill="none"/>
    <path id="Path_893" data-name="Path 893" d="M-951.051,39.621c.167-.058.33-.107.5-.162-1.611-2.653-3.523-4.519-5.61-5.326a3.052,3.052,0,0,1-2.777,1.743,3.059,3.059,0,0,1-2.6-1.428,13,13,0,0,0-4.882,4.976,39.158,39.158,0,0,1,7.952,3.73A40.333,40.333,0,0,1-951.051,39.621Z" fill="none"/>
    <path id="Path_894" data-name="Path 894" d="M-948.205,70.994q-1.1,1.059-2.229,2.047,1.917-.25,3.714-.614.375-1.729.636-3.578Q-947.1,69.931-948.205,70.994Z" fill="none"/>
    <path id="Path_895" data-name="Path 895" d="M-943.941,61.065q0,1.5-.073,2.963,1.17-1.482,2.172-2.961-1.008-1.493-2.172-2.972Q-943.942,59.557-943.941,61.065Z" fill="none"/>
    <path id="Path_896" data-name="Path 896" d="M-944.994,50.078a52.666,52.666,0,0,1,.779,5.276c1.2,1.406,2.314,2.836,3.315,4.274a34.468,34.468,0,0,0,3.41-6.958A37.192,37.192,0,0,0-944.994,50.078Z" fill="none"/>
    <path id="Path_897" data-name="Path 897" d="M-979.037,50.43a3,3,0,0,1,3.046-2.938,3.067,3.067,0,0,1,2.55,1.342c.59-.156,1.188-.305,1.8-.442a36.322,36.322,0,0,1,2.88-8.035c-4.184-1.047-7.7-.691-9.81,1.343s-2.477,5.427-1.391,9.465c.311-.148.63-.291.954-.432A2.74,2.74,0,0,1-979.037,50.43Z" fill="none"/>
    <path id="Path_898" data-name="Path 898" d="M-935.587,51.91a18.266,18.266,0,0,0,.729-4.457,2.941,2.941,0,0,0,1.99-2.745,3,3,0,0,0-3.046-2.939,3.026,3.026,0,0,0-.371.037,7.34,7.34,0,0,0-1-1.2c-2.5-2.412-6.612-2.961-11.706-1.611-1.927-3.265-4.3-5.527-6.942-6.425A3,3,0,0,0-958.942,30a3,3,0,0,0-3.046,2.938h0a14.661,14.661,0,0,0-6,6.023c-4.922-1.3-9.129-.852-11.715,1.642s-3.045,6.553-1.7,11.3c-4.439,2.443-7.094,5.628-7.094,9.159s2.664,6.725,7.115,9.169a21.273,21.273,0,0,0-.508,2.2,2.969,2.969,0,0,0-2.471,2.882,2.971,2.971,0,0,0,2.667,2.9,7.579,7.579,0,0,0,1.983,3.31,9.293,9.293,0,0,0,6.664,2.336,19.854,19.854,0,0,0,5.043-.724C-965.473,87.431-962.166,90-958.5,90a8.049,8.049,0,0,0,3.163-.664,3.082,3.082,0,0,0,1.9.664,3,3,0,0,0,3.046-2.938,2.816,2.816,0,0,0-.369-1.372,20.549,20.549,0,0,0,1.763-2.555,19.972,19.972,0,0,0,4.906.722,3.05,3.05,0,0,0,2.719,1.64,3,3,0,0,0,3.046-2.938c0-.067-.016-.13-.021-.195a7.4,7.4,0,0,0,1.064-.839c2.5-2.413,3.071-6.379,1.67-11.295,4.447-2.443,7.108-5.631,7.108-9.165S-931.152,54.352-935.587,51.91Zm1.112-7.2a1.416,1.416,0,0,1-1.439,1.388,1.416,1.416,0,0,1-1.439-1.388,1.416,1.416,0,0,1,1.439-1.389A1.416,1.416,0,0,1-934.475,44.708Zm-9.474-4.9a7.713,7.713,0,0,1,5.526,1.887,5.967,5.967,0,0,1,.622.72,2.886,2.886,0,0,0-1.159,2.289,2.971,2.971,0,0,0,2.511,2.886,16.49,16.49,0,0,1-.584,3.574,39.578,39.578,0,0,0-8.328-2.776A36.405,36.405,0,0,0-948.22,40.4,17.767,17.767,0,0,1-943.949,39.812Zm4.175,31.924a1.416,1.416,0,0,1-1.439,1.388,1.417,1.417,0,0,1-1.44-1.388,1.417,1.417,0,0,1,1.44-1.389A1.416,1.416,0,0,1-939.774,71.736Zm-1.439-2.938a3,3,0,0,0-3.046,2.938c0,.043.011.083.013.126-.248.064-.5.129-.748.189a52.447,52.447,0,0,0,.779-5.279c1.216-1.415,2.322-2.839,3.315-4.258a35.514,35.514,0,0,1,3.129,6.259c.088.237.167.47.246.7-.393.19-.8.372-1.222.551A3.069,3.069,0,0,0-941.213,68.8ZM-950.5,81.049a37.962,37.962,0,0,1-6.5-3.024c1.483-.961,2.958-2.026,4.409-3.181,1.9-.172,3.734-.426,5.482-.753a34.288,34.288,0,0,1-2.666,7.195C-950.015,81.21-950.255,81.134-950.5,81.049Zm-16.725.239a34.286,34.286,0,0,1-2.667-7.2q2.626.492,5.492.753c1.45,1.155,2.924,2.22,4.407,3.181a37.962,37.962,0,0,1-6.5,3.024C-966.74,81.135-966.981,81.211-967.224,81.288ZM-977.431,50.43a1.417,1.417,0,0,1,1.44-1.389,1.417,1.417,0,0,1,1.439,1.389,1.416,1.416,0,0,1-1.439,1.388A1.417,1.417,0,0,1-977.431,50.43Zm1.44,2.937a3,3,0,0,0,3.046-2.937c0-.038-.011-.074-.012-.111.314-.083.629-.164.951-.241a52.581,52.581,0,0,0-.78,5.287c-1.2,1.4-2.307,2.829-3.306,4.262a34.488,34.488,0,0,1-3.411-6.96c.348-.168.708-.331,1.076-.491A3.072,3.072,0,0,0-975.991,53.367Zm26.214-12.528a34.3,34.3,0,0,1,2.668,7.2c-1.742-.326-3.567-.58-5.464-.751-1.466-1.173-2.943-2.239-4.413-3.2a37.944,37.944,0,0,1,6.478-3.011C-950.261,40.994-950.019,40.916-949.777,40.839Zm4.229,20.226c0,1.737-.08,3.435-.227,5.083-1.1,1.266-2.293,2.521-3.566,3.75s-2.568,2.368-3.89,3.44c-1.709.142-3.468.219-5.269.219s-3.554-.077-5.26-.218c-1.323-1.073-2.625-2.22-3.89-3.441h0c-1.277-1.232-2.469-2.491-3.576-3.761-.146-1.645-.226-3.339-.226-5.072s.08-3.435.227-5.083c1.112-1.275,2.3-2.531,3.566-3.751s2.567-2.368,3.889-3.44c1.709-.142,3.469-.219,5.27-.219s3.568.078,5.28.22c1.312,1.065,2.613,2.211,3.887,3.439s2.448,2.469,3.557,3.741C-945.628,57.623-945.548,59.324-945.548,61.065Zm-2.649-9.93q-1.1-1.062-2.222-2.045,1.91.25,3.7.612.373,1.727.635,3.572Q-947.105,52.189-948.2,51.135Zm-7.221-4.042q-1.518-.07-3.082-.071t-3.068.07q1.531-1.122,3.081-2.093Q-956.957,45.965-955.418,47.093Zm-8.991.193c-1.9.171-3.734.425-5.482.752A34.163,34.163,0,0,1-967.2,40.8a36.871,36.871,0,0,1,7.222,3.293C-961.469,45.055-962.952,46.125-964.409,47.286Zm-2.157,1.8q-1.129.989-2.229,2.046t-2.122,2.149q.259-1.848.637-3.582Q-968.486,49.34-966.566,49.089Zm-6.421,9.017q-.07,1.457-.072,2.959t.072,2.951q-1.164-1.476-2.162-2.95Q-974.147,59.581-972.987,58.106Zm.2,8.655a52.643,52.643,0,0,0,.78,5.29,37.185,37.185,0,0,1-7.462-2.573c.079-.233.159-.467.247-.7a35.514,35.514,0,0,1,3.129-6.259C-975.1,63.929-974,65.35-972.786,66.761Zm1.868,2.078q1.025,1.086,2.131,2.155h0q1.1,1.059,2.231,2.048-1.923-.25-3.724-.615Q-970.656,70.693-970.918,68.839Zm9.36,6.2q1.506.069,3.058.07t3.067-.07q-1.523,1.116-3.063,2.082Q-960.034,76.153-961.558,75.037Zm11.124-2q1.129-.988,2.229-2.047t2.121-2.145q-.26,1.847-.636,3.578Q-948.514,72.788-950.434,73.041Zm6.42-9.013q.072-1.459.073-2.963t-.073-2.97q1.164,1.478,2.172,2.972Q-942.844,62.543-944.014,64.028Zm-.2-8.674a52.666,52.666,0,0,0-.779-5.276,37.192,37.192,0,0,1,7.5,2.592,34.468,34.468,0,0,1-3.41,6.958C-941.9,58.19-943.011,56.76-944.215,55.354Zm-16.166-22.416a1.415,1.415,0,0,1,1.439-1.388,1.415,1.415,0,0,1,1.439,1.388,1.416,1.416,0,0,1-1.439,1.389A1.416,1.416,0,0,1-960.381,32.938Zm-1.16,1.51a3.059,3.059,0,0,0,2.6,1.428,3.052,3.052,0,0,0,2.777-1.743c2.087.807,4,2.673,5.61,5.326-.166.055-.329.1-.5.162a40.333,40.333,0,0,0-7.42,3.533,39.158,39.158,0,0,0-7.952-3.73A13,13,0,0,1-961.541,34.448ZM-978.569,41.7c2.109-2.034,5.626-2.39,9.81-1.343a36.322,36.322,0,0,0-2.88,8.035c-.614.137-1.212.286-1.8.442a3.067,3.067,0,0,0-2.55-1.342,3,3,0,0,0-3.046,2.938,2.74,2.74,0,0,0,.031.3c-.324.141-.643.284-.954.432C-981.046,47.127-980.678,43.734-978.569,41.7Zm-8.324,19.365c0-2.88,2.231-5.533,5.966-7.648a36.658,36.658,0,0,0,3.865,7.664,37.768,37.768,0,0,0-3.671,7.168c-.06.161-.111.319-.167.478C-984.651,66.61-986.893,63.951-986.893,61.065Zm4.135,14.249a1.416,1.416,0,0,1,1.439-1.388,1.416,1.416,0,0,1,1.44,1.388,1.417,1.417,0,0,1-1.44,1.389A1.417,1.417,0,0,1-982.758,75.314Zm4.181,5.115A6.032,6.032,0,0,1-980.087,78a2.935,2.935,0,0,0,1.814-2.682,2.943,2.943,0,0,0-2.015-2.753c.092-.511.215-1.039.361-1.581a39.609,39.609,0,0,0,8.288,2.757,36.428,36.428,0,0,0,2.858,7.994C-973.124,82.819-976.556,82.379-978.577,80.429Zm26.585,6.633a1.416,1.416,0,0,1-1.44,1.388,1.415,1.415,0,0,1-1.439-1.388,1.416,1.416,0,0,1,1.439-1.388A1.417,1.417,0,0,1-951.992,87.062Zm.137-2.5a3.1,3.1,0,0,0-1.577-.437,3,3,0,0,0-3.046,2.938,2.814,2.814,0,0,0,.188.981,6.4,6.4,0,0,1-2.21.407c-2.992,0-5.749-2.162-7.944-5.779.165-.055.328-.1.495-.163a40.4,40.4,0,0,0,7.453-3.554,40.4,40.4,0,0,0,7.453,3.554c.165.057.326.107.489.16A19.078,19.078,0,0,1-951.855,84.561Zm11.927-2a1.416,1.416,0,0,1-1.439,1.389,1.417,1.417,0,0,1-1.44-1.389,1.417,1.417,0,0,1,1.44-1.388A1.416,1.416,0,0,1-939.928,82.559Zm1.513-2.13a5.892,5.892,0,0,1-.487.418,3.074,3.074,0,0,0-2.465-1.226,3,3,0,0,0-3.019,2.682,18.258,18.258,0,0,1-3.832-.574,36.375,36.375,0,0,0,2.857-7.992c.546-.122,1.079-.253,1.606-.39a3.069,3.069,0,0,0,2.542,1.326,3,3,0,0,0,3.046-2.937c0-.086-.019-.167-.026-.251.386-.164.761-.334,1.128-.508C-935.937,75.167-936.392,78.478-938.415,80.429Zm2.322-11.705c-.056-.159-.106-.315-.166-.475a37.736,37.736,0,0,0-3.671-7.167,36.633,36.633,0,0,0,3.864-7.661c3.731,2.114,5.959,4.766,5.959,7.644S-932.346,66.607-936.093,68.724Z" fill="#fff"/>
    <path id="Path_899" data-name="Path 899" d="M-958.29,51.511c-4.29,0-8.634,1.158-8.634,3.372V65.52c0,2.214,4.344,3.372,8.634,3.372s8.635-1.158,8.635-3.372V54.883C-949.655,52.669-954,51.511-958.29,51.511Zm0,1.435c4.624,0,7.147,1.279,7.147,1.937s-2.523,1.937-7.147,1.937-7.146-1.28-7.146-1.937S-962.913,52.946-958.29,52.946Zm0,14.511c-4.623,0-7.146-1.279-7.146-1.937V62.146a15.881,15.881,0,0,0,7.146,1.4,15.886,15.886,0,0,0,7.147-1.4V65.52C-951.143,66.178-953.666,67.457-958.29,67.457Zm0-5.347c-4.623,0-7.146-1.279-7.146-1.937V56.856a15.881,15.881,0,0,0,7.146,1.4,15.886,15.886,0,0,0,7.147-1.4v3.317C-951.143,60.831-953.666,62.11-958.29,62.11Z" fill="#fff"/>
    <path id="Path_900" data-name="Path 900" d="M-945.877,37.441l-.193-1.185-1.229.186.193,1.185Z" fill="#fff"/>
    <rect id="Rectangle_8" data-name="Rectangle 8" width="1.244" height="1.2" transform="translate(-944.741 36.157)" fill="#fff"/>
    <path id="Path_901" data-name="Path 901" d="M-940.94,36.442l-1.229-.187-.194,1.185,1.229.187Z" fill="#fff"/>
    <path id="Path_902" data-name="Path 902" d="M-938.439,37.241l-1.152-.452-.469,1.111,1.152.452Z" fill="#fff"/>
    <path id="Path_903" data-name="Path 903" d="M-936.209,38.549l-1.038-.66-.685,1,1.038.66Z" fill="#fff"/>
    <rect id="Rectangle_9" data-name="Rectangle 9" width="1.244" height="1.2" transform="translate(-962.551 59.111)" fill="#fff"/>
    <rect id="Rectangle_10" data-name="Rectangle 10" width="1.244" height="1.2" transform="translate(-960.104 59.111)" fill="#fff"/>
    <rect id="Rectangle_11" data-name="Rectangle 11" width="1.244" height="1.2" transform="translate(-957.657 59.111)" fill="#fff"/>
    <rect id="Rectangle_12" data-name="Rectangle 12" width="1.244" height="1.2" transform="translate(-955.211 59.111)" fill="#fff"/>
    <rect id="Rectangle_13" data-name="Rectangle 13" width="1.244" height="1.2" transform="translate(-962.551 64.532)" fill="#fff"/>
    <rect id="Rectangle_14" data-name="Rectangle 14" width="1.244" height="1.2" transform="translate(-960.104 64.532)" fill="#fff"/>
    <rect id="Rectangle_15" data-name="Rectangle 15" width="1.244" height="1.2" transform="translate(-957.657 64.532)" fill="#fff"/>
    <rect id="Rectangle_16" data-name="Rectangle 16" width="1.244" height="1.2" transform="translate(-955.211 64.532)" fill="#fff"/>
    <path id="Path_904" data-name="Path 904" d="M-932.963,71.869l-1.229.186L-934,73.24l1.229-.186Z" fill="#fff"/>
    <rect id="Rectangle_17" data-name="Rectangle 17" width="1.244" height="1.2" transform="translate(-933.911 74.335)" fill="#fff"/>
    <path id="Path_905" data-name="Path 905" d="M-934.192,77.814l1.229.187.194-1.185L-934,76.629Z" fill="#fff"/>
    <path id="Path_906" data-name="Path 906" d="M-934.943,79.962l1.152.452.469-1.111-1.152-.452Z" fill="#fff"/>
    <path id="Path_907" data-name="Path 907" d="M-936.186,81.9l1.038.66.685-1-1.038-.66Z" fill="#fff"/>
    <path id="Path_908" data-name="Path 908" d="M-984.248,48.7l.164,1.189,1.233-.159-.164-1.189Z" fill="#fff"/>
    <path id="Path_909" data-name="Path 909" d="M-983.047,46.25l-1.243-.028-.029,1.2,1.243.028Z" fill="#fff"/>
    <path id="Path_910" data-name="Path 910" d="M-982.711,43.977l-1.224-.215-.222,1.18,1.224.215Z" fill="#fff"/>
    <path id="Path_911" data-name="Path 911" d="M-981.908,41.847l-1.141-.478-.5,1.1,1.141.478Z" fill="#fff"/>
    <path id="Path_912" data-name="Path 912" d="M-980.618,39.933l-1.022-.683-.709.986,1.022.683Z" fill="#fff"/>
    <path id="Path_913" data-name="Path 913" d="M-974.373,85.951l1.238.118.122-1.194-1.238-.118Z" fill="#fff"/>
    <path id="Path_914" data-name="Path 914" d="M-976.888,85.423l1.2.3.313-1.161-1.2-.3Z" fill="#fff"/>
    <path id="Path_915" data-name="Path 915" d="M-979.289,84.526l1.14.479.5-1.1-1.14-.479Z" fill="#fff"/>
    <path id="Path_916" data-name="Path 916" d="M-981.5,83.147l1,.717.743-.962-1-.717Z" fill="#fff"/>
  </g>
</svg>
