<svg xmlns="http://www.w3.org/2000/svg" width="58" height="60" viewBox="0 0 58 60">
  <g id="Website_Development_Icon" data-name="Website Development Icon" transform="translate(653.333 -30)">
    <g id="Group_103" data-name="Group 103">
      <g id="Group_102" data-name="Group 102">
        <rect id="Rectangle_18" data-name="Rectangle 18" width="27" height="2" transform="translate(-627.333 39)" fill="#fff"/>
      </g>
    </g>
    <g id="Group_105" data-name="Group 105">
      <g id="Group_104" data-name="Group 104">
        <rect id="Rectangle_19" data-name="Rectangle 19" width="17" height="2" transform="translate(-627.333 43)" fill="#fff"/>
      </g>
    </g>
    <g id="Group_107" data-name="Group 107">
      <g id="Group_106" data-name="Group 106">
        <rect id="Rectangle_20" data-name="Rectangle 20" width="17" height="2" transform="translate(-627.333 47)" fill="#fff"/>
      </g>
    </g>
    <g id="Group_109" data-name="Group 109">
      <g id="Group_108" data-name="Group 108">
        <rect id="Rectangle_21" data-name="Rectangle 21" width="19" height="2" transform="translate(-619.333 35)" fill="#fff"/>
      </g>
    </g>
    <g id="Group_111" data-name="Group 111">
      <g id="Group_110" data-name="Group 110">
        <rect id="Rectangle_22" data-name="Rectangle 22" width="2" height="2" transform="translate(-623.333 35)" fill="#fff"/>
      </g>
    </g>
    <g id="Group_113" data-name="Group 113">
      <g id="Group_112" data-name="Group 112">
        <rect id="Rectangle_23" data-name="Rectangle 23" width="2" height="2" transform="translate(-625.333 70)" fill="#fff"/>
      </g>
    </g>
    <g id="Group_115" data-name="Group 115">
      <g id="Group_114" data-name="Group 114">
        <path id="Path_933" data-name="Path 933" d="M-637.626,36.707l-1.414-1.414-2,2a1,1,0,0,0,0,1.414l2,2,1.414-1.414L-638.919,38Z" fill="#fff"/>
      </g>
    </g>
    <g id="Group_117" data-name="Group 117">
      <g id="Group_116" data-name="Group 116">
        <path id="Path_934" data-name="Path 934" d="M-629.626,37.293l-2-2-1.414,1.414L-631.747,38l-1.293,1.293,1.414,1.414,2-2A1,1,0,0,0-629.626,37.293Z" fill="#fff"/>
      </g>
    </g>
    <g id="Group_119" data-name="Group 119">
      <g id="Group_118" data-name="Group 118">
        <rect id="Rectangle_24" data-name="Rectangle 24" width="6.325" height="1.999" transform="matrix(0.316, -0.949, 0.949, 0.316, -637.283, 40.683)" fill="#fff"/>
      </g>
    </g>
    <g id="Group_120" data-name="Group 120">
      <rect id="Rectangle_25" data-name="Rectangle 25" width="2" transform="translate(-614.333 61)" fill="#fff"/>
      <rect id="Rectangle_26" data-name="Rectangle 26" width="2" transform="translate(-610.333 61)" fill="#fff"/>
      <rect id="Rectangle_27" data-name="Rectangle 27" width="2" transform="translate(-606.333 61)" fill="#fff"/>
      <rect id="Rectangle_28" data-name="Rectangle 28" width="2" transform="translate(-618.333 61)" fill="#fff"/>
      <rect id="Rectangle_29" data-name="Rectangle 29" width="2" height="5" transform="translate(-612.333 56)" fill="#fff"/>
      <path id="Path_935" data-name="Path 935" d="M-602.333,61h-20v2h22V61Z" fill="#fff"/>
      <rect id="Rectangle_30" data-name="Rectangle 30" width="2" height="4" transform="translate(-620.333 57)" fill="#fff"/>
      <rect id="Rectangle_31" data-name="Rectangle 31" width="2" height="6" transform="translate(-616.333 55)" fill="#fff"/>
      <rect id="Rectangle_32" data-name="Rectangle 32" width="2" height="8" transform="translate(-604.333 53)" fill="#fff"/>
      <rect id="Rectangle_33" data-name="Rectangle 33" width="2" height="10" transform="translate(-608.333 51)" fill="#fff"/>
    </g>
    <g id="Group_122" data-name="Group 122">
      <g id="Group_121" data-name="Group 121">
        <path id="Path_936" data-name="Path 936" d="M-601.333,30h-46a6.005,6.005,0,0,0-6,6V70a6.005,6.005,0,0,0,6,6h12.382l-4,8h-5.382a3,3,0,0,0-3,3,3,3,0,0,0,3,3h40a3,3,0,0,0,3-3,3,3,0,0,0-3-3h-5.382l-4-8h12.382a6.007,6.007,0,0,0,6-6V36A6.007,6.007,0,0,0-601.333,30Zm-50,14.07,2.273,2.706a1,1,0,0,0,.766.357h3.061a1,1,0,0,0,.766-.357l2.274-2.706,2.244.729.248,3.523a1,1,0,0,0,.409.739l2.477,1.8a1,1,0,0,0,.83.161l3.433-.853,1.388,1.909-1.871,3a1,1,0,0,0-.1.839l.947,2.911a1,1,0,0,0,.575.618l3.278,1.329v2.36l-3.28,1.329a.992.992,0,0,0-.575.619l-.3.917h-5.761a9.415,9.415,0,0,0-4.438-12.553,9.414,9.414,0,0,0-8.646.274Zm0,12.03a7.427,7.427,0,0,1,10.425,1.288A7.428,7.428,0,0,1-640.533,66h-10.8Zm47,29.9a1,1,0,0,1,1,1,1,1,0,0,1-1,1h-40a1,1,0,0,1-1-1,1,1,0,0,1,1-1Zm-7.618-2h-24.764l4-8h16.764Zm14.618-14a4,4,0,0,1-4,4h-46a4,4,0,0,1-4-4V68h54Zm0-4h-32.745l3.121-1.265a1,1,0,0,0,.624-.926V60.1a1,1,0,0,0-.624-.927l-3.476-1.406-.658-2.025,1.982-3.18a1,1,0,0,0-.04-1.116l-2.18-3a1,1,0,0,0-1.05-.383l-3.636.9-1.718-1.248-.263-3.73a1,1,0,0,0-.689-.881l-3.525-1.146a1.006,1.006,0,0,0-1.075.309l-2.407,2.865h-2.133l-2.408-2.865a1.008,1.008,0,0,0-1.076-.309l-.024.009V36a4,4,0,0,1,4-4h46a4,4,0,0,1,4,4Z" fill="#fff"/>
      </g>
    </g>
  </g>
</svg>
