<svg xmlns="http://www.w3.org/2000/svg" width="46.557" height="40" viewBox="0 0 46.557 40">
  <g id="Basic_Icon_Orange" data-name="Basic Icon Orange" transform="translate(0)">
    <path id="Path_13209" data-name="Path 13209" d="M46.557,13.762a1.422,1.422,0,0,0-.813-1.283L39.992,9.226Q32.048,4.735,24.106.239A1.651,1.651,0,0,0,23.284,0a1.761,1.761,0,0,0-.873.26c-3.169,1.8-6.395,3.626-9.515,5.39L9.374,7.642Q5.117,10.051.858,12.454A1.433,1.433,0,0,0,0,13.9a1.487,1.487,0,0,0,.912,1.233l1.249.7c6.575,3.714,13.373,7.555,20.048,11.354a1.932,1.932,0,0,0,2.125,0c3.258-1.863,6.581-3.74,9.794-5.555l3.351-1.894,2.063-1.167q3.064-1.735,6.131-3.466A1.478,1.478,0,0,0,46.557,13.762ZM34.052,18.425q-5.149,2.913-10.3,5.83a.984.984,0,0,1-.487.162.776.776,0,0,1-.386-.113c-4.783-2.717-9.651-5.47-14.359-8.133L4.905,14.124c-.073-.041-.144-.085-.233-.142l-.162-.1-.181-.112.373-.22c.12-.072.227-.135.334-.2l3.516-1.989c4.673-2.643,9.5-5.376,14.254-8.069a.813.813,0,0,1,.915-.026c4.752,2.7,9.589,5.435,14.267,8.081L41.615,13.4c.081.046.161.095.262.159l.184.114.186.114Z" fill="#e63e2c"/>
    <path id="Path_13210" data-name="Path 13210" d="M.959,21.333l5.235,2.961c5.238,2.961,10.654,6.024,15.972,9.053a1.983,1.983,0,0,0,2.21.012c3.343-1.913,6.753-3.839,10.051-5.7q1.8-1.016,3.6-2.032l2.29-1.3c1.755-.994,3.569-2.022,5.356-3.027a1.516,1.516,0,0,0,.859-1.246,1.442,1.442,0,0,0-1.01-1.427,1.6,1.6,0,0,0-1.322.24q-3.808,2.158-7.619,4.313-6.418,3.633-12.834,7.269a.818.818,0,0,1-.915.005c-4.492-2.552-9.065-5.137-13.487-7.636L7.162,21.589,5.87,20.857c-1.2-.68-2.441-1.384-3.667-2.065a1.622,1.622,0,0,0-.784-.211A1.383,1.383,0,0,0,.043,19.754,1.486,1.486,0,0,0,.959,21.333Z" fill="#e63e2c"/>
    <path id="Path_13211" data-name="Path 13211" d="M46.509,25.934a1.316,1.316,0,0,0-1.219-1.147,2.356,2.356,0,0,0-1.151.32c-7.024,3.953-13.354,7.521-19.694,11.156a2.011,2.011,0,0,1-2.321,0C16.83,33.23,11.426,30.18,6.2,27.23L2.266,25.008a1.764,1.764,0,0,0-.861-.241,1.342,1.342,0,0,0-1.188.7,1.345,1.345,0,0,0-.148,1.047,1.6,1.6,0,0,0,.786.951c8.7,4.925,15.372,8.7,21.637,12.233a2.952,2.952,0,0,0,.552.215c.09.028.182.057.276.09.1-.044.2-.086.307-.128a6.538,6.538,0,0,0,.721-.331C29.2,36.8,34.134,34.011,38.9,31.312l3.258-1.843q.534-.3,1.07-.6c.834-.47,1.7-.955,2.539-1.442A1.425,1.425,0,0,0,46.509,25.934Z" fill="#e63e2c"/>
  </g>
</svg>
