<svg xmlns="http://www.w3.org/2000/svg" width="20" height="20" viewBox="0 0 20 20">
  <g id="Cross_Icon_Selected" data-name="Cross Icon Selected" transform="translate(-98 -969.566)">
    <g id="Ellipse_105" data-name="Ellipse 105" transform="translate(98 969.566)" fill="none" stroke="#e63e2c" stroke-width="1">
      <circle cx="10" cy="10" r="10" stroke="none"/>
      <circle cx="10" cy="10" r="9.5" fill="none"/>
    </g>
    <g id="Group_3563" data-name="Group 3563" transform="translate(104 976.566)">
      <path id="Path_13208" data-name="Path 13208" d="M408.583,655.867a1.211,1.211,0,0,0-.411-.844c-.392-.4-.8-.787-1.235-1.2-.2-.193-.413-.394-.633-.605l-.2-.191.2-.188c.214-.2.42-.391.62-.575.426-.394.828-.765,1.212-1.146.242-.239.745-.857.2-1.411a.8.8,0,0,0-.568-.275h0a1.246,1.246,0,0,0-.828.448c-.391.4-.766.819-1.163,1.264-.183.2-.37.414-.567.63l-.189.208-.193-.2c-.226-.239-.437-.464-.638-.678-.434-.464-.809-.865-1.205-1.258-.341-.339-.854-.641-1.357-.152a.787.787,0,0,0-.265.563,1.141,1.141,0,0,0,.381.787c.392.4.808.8,1.248,1.215.208.2.425.4.652.624l.2.189-.2.188c-.215.205-.423.4-.625.591-.437.411-.849.8-1.244,1.2a.922.922,0,0,0-.171,1.357.8.8,0,0,0,.57.28h.008a1.235,1.235,0,0,0,.826-.429c.395-.395.779-.808,1.186-1.246.189-.2.384-.413.589-.63l.189-.2.19.2c.208.218.405.428.6.631.412.438.8.852,1.2,1.248.748.746,1.2.319,1.355.178A.781.781,0,0,0,408.583,655.867Z" transform="translate(-401.363 -649.432)" fill="#213744"/>
    </g>
  </g>
</svg>
