<svg xmlns="http://www.w3.org/2000/svg" width="40.002" height="40" viewBox="0 0 40.002 40">
  <g id="Enterprice_Icon_White" data-name="Enterprice Icon White" transform="translate(0 0)">
    <path id="Path_13214" data-name="Path 13214" d="M40,38.672a1.334,1.334,0,0,0-1.451-1.308q-1.229,0-2.456,0H34.254V32.539c0-7.31,0-14.868-.013-22.3a1.7,1.7,0,0,0-.27-1.051,2.581,2.581,0,0,0-1.1-.655C28.978,7.221,25.02,5.9,21.192,4.63L17.651,3.45,16.889,3.2c-3.025-1.008-6.153-2.05-9.228-3.08a1.411,1.411,0,0,0-1.2.032,1.417,1.417,0,0,0-.713,1.4c.005,9.617.005,19.394.005,28.849v6.967H4.324c-.982,0-1.94,0-2.9,0a1.485,1.485,0,0,0-1.069.411A1.26,1.26,0,0,0,0,38.693,1.324,1.324,0,0,0,1.41,40c8.76,0,17.4,0,25.689,0a1.318,1.318,0,1,0,.015-2.632c-.3,0-.6,0-.918,0h-.565v-.658q0-.555,0-1.11c0-.858,0-1.745,0-2.617a1.305,1.305,0,0,0-1.348-1.361c-3.063-.009-5.868-.009-8.578,0a1.29,1.29,0,0,0-1.326,1.337c-.009.584-.007,1.178-.005,1.752q0,.381,0,.761v1.866H8.415V3.144l23.2,7.739v6.429q0,10.587,0,21.173A1.343,1.343,0,0,0,33.136,40c1.928,0,3.667,0,5.434,0a1.49,1.49,0,0,0,1.071-.412A1.257,1.257,0,0,0,40,38.672Zm-22.964-4.4h5.934v3.06H17.038Z" fill="#fff"/>
    <path id="Path_13215" data-name="Path 13215" d="M14.131,12.992a1.344,1.344,0,0,0-1.3-1.5h-.013a1.235,1.235,0,0,0-.891.347,1.627,1.627,0,0,0-.425,1.17c0,.458,0,.915,0,1.372v3.339q0,4.65,0,9.3a1.4,1.4,0,0,0,.4,1.094A1.229,1.229,0,0,0,13.3,28.4a1.269,1.269,0,0,0,.83-1.262q0-2.487,0-4.973V18.246Q14.134,15.62,14.131,12.992Z" fill="#fff"/>
    <path id="Path_13216" data-name="Path 13216" d="M18.684,13.035q0,2.487,0,4.972V21.89c0,1.69,0,3.438,0,5.157a1.34,1.34,0,0,0,.546,1.19,1.218,1.218,0,0,0,1.356.118,1.32,1.32,0,0,0,.737-1.288q0-4.38,0-8.762V13.011a1.622,1.622,0,0,0-.425-1.169A1.234,1.234,0,0,0,20,11.493h-.013C19.2,11.5,18.684,12.1,18.684,13.035Z" fill="#fff"/>
    <path id="Path_13217" data-name="Path 13217" d="M25.871,12.992q0,2.5,0,5v3.886c0,1.693,0,3.444,0,5.167a1.338,1.338,0,0,0,.547,1.189,1.216,1.216,0,0,0,1.356.118,1.322,1.322,0,0,0,.737-1.288q0-4.039,0-8.079,0-3.012,0-6.022a1.554,1.554,0,0,0-.418-1.118,1.248,1.248,0,0,0-.9-.355h-.013A1.343,1.343,0,0,0,25.871,12.992Z" fill="#fff"/>
  </g>
</svg>
