<svg xmlns="http://www.w3.org/2000/svg" width="362.333" height="605" viewBox="0 0 362.333 605">
  <g id="Selected_Pricing_Tag" data-name="Selected Pricing Tag" transform="translate(-449 -571)">
    <path id="Path_13206" data-name="Path 13206" d="M648.292,981.5H360.542a37.292,37.292,0,0,1-37.292-37.292V438.792A37.292,37.292,0,0,1,360.542,401.5h41.806a32.855,32.855,0,0,1,19.521,6.428l27.578,20.37a29.142,29.142,0,0,0,17.316,5.7h74.052a29.14,29.14,0,0,0,17.444-5.8l26.994-20.168a32.855,32.855,0,0,1,19.666-6.535h43.373a37.292,37.292,0,0,1,37.291,37.292V944.208A37.292,37.292,0,0,1,648.292,981.5Z" transform="translate(125.75 194.5)" fill="#fff"/>
    <rect id="Rectangle_187" data-name="Rectangle 187" width="119" height="50" rx="25" transform="translate(570.832 571)" fill="#e63e2c"/>
  </g>
</svg>
