<svg xmlns="http://www.w3.org/2000/svg" width="38.04" height="40" viewBox="0 0 38.04 40">
  <g id="Standar_Icon_Orange" data-name="Standar Icon Orange" transform="translate(0)">
    <path id="Path_13212" data-name="Path 13212" d="M31.207,40H30.66c-.271-.151-.544-.3-.812-.453Q24.6,36.481,19.353,33.4a.558.558,0,0,0-.665,0c-.956.578-1.925,1.133-2.891,1.695L7.379,40H6.832a1.407,1.407,0,0,1-.911-1.505q.018-14.544.008-29.089V8.883c-.15-.051-.247-.086-.345-.117A7.976,7.976,0,0,1,0,1.547,1.374,1.374,0,0,1,.895,0h36.25a1.354,1.354,0,0,1,.886,1.547,7.885,7.885,0,0,1-5.169,7.08c-.237.1-.485.169-.751.261v.557q0,14.525.008,29.05A1.407,1.407,0,0,1,31.207,40Zm-1.468-3.237V9.15H8.3V36.766c.18-.1.312-.177.443-.254,3.155-1.844,6.313-3.68,9.46-5.538a1.455,1.455,0,0,1,1.637,0c3.147,1.857,6.306,3.694,9.46,5.537C29.432,36.588,29.563,36.662,29.739,36.763ZM2.491,2.362c.009.066.011.1.019.142A5.614,5.614,0,0,0,8.054,6.788q10.971.01,21.941,0a6.651,6.651,0,0,0,1.391-.158A5.533,5.533,0,0,0,35.54,2.362Z" fill="#e63e2c"/>
    <path id="Path_13213" data-name="Path 13213" d="M19.023,25.521c-1.255.91-2.476,1.8-3.7,2.681a1.2,1.2,0,0,1-1.9-1.4c.465-1.432.932-2.864,1.408-4.323l-.6-.442Q12.662,20.9,11.1,19.764a1.193,1.193,0,0,1-.555-1.378,1.18,1.18,0,0,1,1.267-.826c1.523,0,3.046,0,4.606,0,.108-.319.219-.634.323-.951Q17.3,14.9,17.848,13.2a1.189,1.189,0,0,1,2.345.006q.628,1.928,1.253,3.856c.052.16.112.317.176.5h3.557c.4,0,.807-.008,1.211.006a1.162,1.162,0,0,1,.668,2.106c-1.045.777-2.1,1.534-3.155,2.3-.22.16-.439.322-.683.5.067.224.13.446.2.665.416,1.286.848,2.567,1.247,3.858a1.143,1.143,0,0,1-1.3,1.515,1.61,1.61,0,0,1-.623-.3C21.507,27.331,20.279,26.433,19.023,25.521Zm.059-8.883-.107-.015q-.3.921-.6,1.842a1.509,1.509,0,0,1-1.708,1.259c-.515,0-1.029,0-1.544,0-.14,0-.28.013-.535.026.615.448,1.119.813,1.622,1.181a1.506,1.506,0,0,1,.683,2.083c-.2.615-.393,1.232-.629,1.972l1.732-1.254a1.475,1.475,0,0,1,2.078.008c.536.388,1.073.773,1.722,1.24-.23-.706-.417-1.279-.6-1.852-.377-1.165-.255-1.531.747-2.262.48-.35.958-.7,1.466-1.075a.648.648,0,0,0-.114-.052c-.685-.006-1.371-.006-2.056-.018a1.432,1.432,0,0,1-1.5-1.092C19.511,17.968,19.3,17.3,19.082,16.638Z" fill="#e63e2c"/>
  </g>
</svg>
