<svg xmlns="http://www.w3.org/2000/svg" width="363.333" height="605.5" viewBox="0 0 363.333 605.5">
  <g id="Unselected_Pricing_Tag" data-name="Unselected Pricing Tag" transform="translate(-448.5 -571)">
    <path id="Path_13206" data-name="Path 13206" d="M648.292,981.5H360.542a37.292,37.292,0,0,1-37.292-37.292V438.792A37.292,37.292,0,0,1,360.542,401.5h41.806a32.855,32.855,0,0,1,19.521,6.428l27.578,20.37a29.142,29.142,0,0,0,17.316,5.7h74.052a29.14,29.14,0,0,0,17.444-5.8l26.994-20.168a32.855,32.855,0,0,1,19.666-6.535h43.373a37.292,37.292,0,0,1,37.291,37.292V944.208A37.292,37.292,0,0,1,648.292,981.5Z" transform="translate(125.75 194.5)" fill="rgba(255,255,255,0.05)" stroke="#fff" stroke-width="1"/>
    <rect id="Rectangle_187" data-name="Rectangle 187" width="119" height="50" rx="25" transform="translate(571 571)" fill="#fff"/>
  </g>
</svg>
