<svg xmlns="http://www.w3.org/2000/svg" xmlns:xlink="http://www.w3.org/1999/xlink" width="469" height="524" viewBox="0 0 469 524">
  <defs>
    <clipPath id="clip-path">
      <rect id="Rectangle_191" data-name="Rectangle 191" width="469" height="524" transform="translate(811 204)" fill="#fff" stroke="#707070" stroke-width="1"/>
    </clipPath>
  </defs>
  <g id="Wire_Picture" data-name="Wire Picture" transform="translate(-811 -204)" clip-path="url(#clip-path)">
    <path id="Path_13218" data-name="Path 13218" d="M1028.757,484.756l-24.924,14.39,0,46.365-221.4,127.823-16.824-9.712,114.206-65.938V585.9l20.247-11.691V547.094l39.266-22.67a6.658,6.658,0,0,0,5.436-.245c1.645-.95,1.645-2.489,0-3.438a6.577,6.577,0,0,0-5.955,0c-1.483.856-1.615,2.188-.424,3.138L899.119,546.55v27.112l-19.3,11.145V541.392l-.236-.136-11.159-6.442,66.949-38.654V452.692l47.561-27.459a6.655,6.655,0,0,0,5.436-.244c1.644-.95,1.644-2.489,0-3.439a6.581,6.581,0,0,0-5.955,0c-1.483.856-1.616,2.188-.424,3.138l-47.561,27.459v43.468l-66.949,38.653L758.634,471.428V422.8a5.828,5.828,0,0,0,2.507-.686c1.644-.949,1.644-2.488,0-3.438a6.584,6.584,0,0,0-5.955,0c-1.645.95-1.645,2.489,0,3.438a5.819,5.819,0,0,0,2.505.686v49.168l.235.137,65.469,37.8H775.684L737.1,487.633c1.191-.95,1.058-2.282-.424-3.138a6.578,6.578,0,0,0-5.955,0c-1.645.949-1.645,2.489,0,3.438a6.661,6.661,0,0,0,5.437.245l39.269,22.672h49.575v-.012l53.866,31.1v55.2L764.664,663.076l-15.314-8.841,80.82-46.662a6.658,6.658,0,0,0,5.436-.245c1.645-.949,1.645-2.489,0-3.438a6.578,6.578,0,0,0-5.955,0c-1.483.856-1.615,2.188-.424,3.138L748.406,653.69l-14.786-8.536L830.3,589.337h26.275a2.422,2.422,0,0,0,1.152,1.248,6.584,6.584,0,0,0,5.955,0c1.645-.95,1.645-2.49,0-3.439a6.584,6.584,0,0,0-5.955,0,2.419,2.419,0,0,0-1.152,1.248H830.045l-.109.063-97.26,56.152-5.968-3.446-.236.135-4.357,2.516-23.164-13.373v-18.61l19.138-11.049v.05h30.029l33.06-19.088a6.658,6.658,0,0,0,5.436-.244c1.645-.95,1.645-2.489,0-3.438a6.578,6.578,0,0,0-5.955,0c-1.483.856-1.615,2.188-.424,3.138l-32.37,18.689H719.637l56.257-32.48a6.639,6.639,0,0,0,5.553-.19c1.645-.95,1.645-2.489,0-3.438a6.578,6.578,0,0,0-5.955,0c-1.446.835-1.617,2.126-.519,3.071L704.8,607.365v-8.956l41.75-24.1V557.287l33.992-19.625a6.658,6.658,0,0,0,5.436-.245c1.645-.949,1.645-2.489,0-3.438a6.578,6.578,0,0,0-5.955,0c-1.483.856-1.615,2.188-.424,3.138l-33.992,19.626v17.018l-41.75,24.1v10.044l-5.848,3.377v19.7L721.17,644.36l-15.219,8.786-47.663-27.519V594.345l32.364-18.685a6.638,6.638,0,0,0,5.553-.19c1.645-.949,1.645-2.488,0-3.438a6.584,6.584,0,0,0-5.955,0c-1.447.836-1.618,2.126-.52,3.071l-31.443,18.153V567.985l24.841-14.342V506.105a5.852,5.852,0,0,0,2.506-.686c1.645-.95,1.645-2.489,0-3.438a6.578,6.578,0,0,0-5.955,0c-1.644.949-1.644,2.488,0,3.438a5.851,5.851,0,0,0,2.506.686V553.1l-23.9,13.8,0-83.825h-.943l0,143.1,47.661,27.519-17.091,9.867L625.62,627.592l0-85.656-29.944-17.29V492.427l-26.44-15.266c1.191-.951,1.059-2.282-.424-3.139a6.584,6.584,0,0,0-5.955,0c-1.645.95-1.645,2.489,0,3.439a6.658,6.658,0,0,0,5.436.244l26.44,15.265v32.22l29.945,17.289,0,85.659L686.971,664.1,674.3,671.418,590.23,622.877l0-73.083-.236-.137-74.419-42.964c1.192-.95,1.06-2.283-.423-3.139a6.584,6.584,0,0,0-5.955,0c-1.644.949-1.644,2.488,0,3.438a6.662,6.662,0,0,0,5.436.245l74.654,43.1,0,73.085.236.136,83.836,48.4-20.53,11.853L512.95,603.057V566.69l-.237-.136-117.1-67.611c1.192-.95,1.06-2.282-.424-3.138a6.576,6.576,0,0,0-5.954,0c-1.645.949-1.645,2.489,0,3.438a6.658,6.658,0,0,0,5.436.245l117.341,67.746V603.6l.237.136,78.439,45.288-62.22,0L456.432,607.44c1.192-.95,1.06-2.282-.423-3.138a6.578,6.578,0,0,0-5.955,0c-1.645.949-1.645,2.488,0,3.438a6.654,6.654,0,0,0,5.436.244l72.72,41.986,64.107,0,59.568,34.393-23.862,13.776-51.2-29.562H494.6l-93.51-53.988H349.218l-21.149-12.211c1.191-.95,1.059-2.282-.424-3.138a6.578,6.578,0,0,0-5.955,0c-1.645.949-1.645,2.488,0,3.438a6.662,6.662,0,0,0,5.436.245l21.839,12.609h51.876L471.5,656.325H410.469l-29.392-16.969c1.191-.951,1.059-2.282-.424-3.139a6.584,6.584,0,0,0-5.955,0c-1.645.95-1.645,2.489,0,3.439a6.656,6.656,0,0,0,5.435.244l30.083,17.368h62.918l21.217,12.25h82.216l14.328,8.273H555.943l-.11.062L538.3,687.975l-73.048,0-20.606-11.9H403.327a2.425,2.425,0,0,0-1.152-1.247,6.584,6.584,0,0,0-5.955,0c-1.645.949-1.645,2.489,0,3.438a6.584,6.584,0,0,0,5.955,0,2.418,2.418,0,0,0,1.152-1.248h41.068L465,688.92l71.667,0-19.738,11.4a6.661,6.661,0,0,0-5.437.244c-1.644.95-1.644,2.489,0,3.438a6.578,6.578,0,0,0,5.955,0c1.483-.856,1.616-2.187.425-3.137L556.2,678.734h36.332l34.551,19.948-12.767,7.371.708.409,7.507,4.335H598.646l-31.22-18.025c1.191-.951,1.058-2.283-.425-3.139a6.584,6.584,0,0,0-5.955,0c-1.644.95-1.644,2.489,0,3.438a6.66,6.66,0,0,0,5.435.246l31.912,18.423H624.16l17.475,10.089-10.747,6.2H611.829l-.109.062-16.649,9.612h-12.5l-28.241-16.3c1.266-.953,1.162-2.319-.35-3.191a6.578,6.578,0,0,0-5.955,0c-1.644.949-1.644,2.488,0,3.438a6.678,6.678,0,0,0,5.344.288l28.949,16.713h13.01l.109-.062,16.649-9.612h17.173L594.9,748.809H576.356l-38.665-22.322h-116.6l-72.321-41.754c1.252-.953,1.143-2.312-.363-3.181a6.578,6.578,0,0,0-5.955,0c-1.645.949-1.645,2.488,0,3.438a6.67,6.67,0,0,0,5.361.28l73.025,42.16h116.6L576.1,749.752h19.054l.109-.063,47.313-27.315,12.412,7.165L601.53,760.406H563.824l-31.11-17.961-79.84,0a2.418,2.418,0,0,0-1.152-1.248,6.584,6.584,0,0,0-5.955,0c-1.645.949-1.645,2.489,0,3.438a6.578,6.578,0,0,0,5.955,0,2.421,2.421,0,0,0,1.152-1.247l79.587,0,29.474,17.018h-112.5l-.109.063-107.215,61.9a6.654,6.654,0,0,0-5.436.245c-1.645.949-1.645,2.488,0,3.438a6.584,6.584,0,0,0,5.955,0c1.482-.856,1.615-2.188.425-3.138l106.633-61.567h152.1l.109-.062,54.043-31.2,14.1,8.141-74.55,43.043H464.218l-.109.062L349.159,847.7l-133.934,0-78.108-45.1c1.19-.95,1.057-2.281-.425-3.137a6.584,6.584,0,0,0-5.955,0c-1.645.949-1.645,2.489,0,3.438a6.659,6.659,0,0,0,5.436.245l78.8,45.495,134.44,0,.11-.062,114.949-66.367H560.09l-140.4,81.062,0,21.339-56.007,32.335a6.656,6.656,0,0,0-5.435.245c-1.644.95-1.644,2.489,0,3.438a6.578,6.578,0,0,0,5.955,0c1.483-.856,1.616-2.188.424-3.139l56.006-32.334,0-21.339,141.35-81.607H594.8L524.117,823.02v8.994L490.3,851.542a6.654,6.654,0,0,0-5.436.245c-1.645.949-1.645,2.488,0,3.438a6.584,6.584,0,0,0,5.955,0c1.483-.856,1.615-2.188.424-3.138l18.415-10.632V866.1L403.265,927.525a6.656,6.656,0,0,0-5.435.245c-1.645.949-1.645,2.488,0,3.438a6.584,6.584,0,0,0,5.955,0c1.483-.856,1.615-2.188.424-3.138L510.6,866.647V840.91l14.463-8.35v-8.994l71.262-41.144-.236-.409,74.9-43.242,13.614,7.86-76.937,44.42v73.085l-141.506,81.7h1.888L585.2,878.193l0,66.1-2.669,1.541h1.888l1.724-1,0-67.189,22.46-12.967V791.6l76.938-44.421,11.987,6.921L638.2,788.349v40.065l.236.137,67.454,38.943V881.08L667.739,903.1a6.658,6.658,0,0,0-5.434.246c-1.645.949-1.645,2.488,0,3.438a6.584,6.584,0,0,0,5.955,0c1.483-.857,1.616-2.188.425-3.139l38.146-22.023V866.949l-.236-.136-67.454-38.944V788.894l44.826-25.879v16.69l-20.55,11.864a6.66,6.66,0,0,0-5.435.246c-1.645.949-1.645,2.488,0,3.438a6.581,6.581,0,0,0,5.955,0c1.482-.856,1.615-2.187.424-3.137L684.91,780.25V762.47l13.559-7.828L714.5,763.9v29.068l-30.24,17.459v20.1l.235.136,63.658,36.753c-1.191.95-1.058,2.282.425,3.138a6.584,6.584,0,0,0,5.955,0c1.644-.95,1.644-2.489,0-3.438a6.656,6.656,0,0,0-5.435-.245l-63.9-36.89V810.969l29.3-16.913v20.035l39.182,22.622c-1.19.951-1.057,2.283.426,3.138a6.579,6.579,0,0,0,5.954,0c1.645-.949,1.645-2.488,0-3.438a6.656,6.656,0,0,0-5.437-.244l-39.183-22.624,0-49.1,11.26,6.5.236-.135,18.318-10.576,16.8,9.7v23.577L806.725,819.3V841.52a5.852,5.852,0,0,0-2.506.686c-1.644.95-1.644,2.489,0,3.438a6.577,6.577,0,0,0,5.955,0c1.645-.949,1.645-2.488,0-3.438a5.852,5.852,0,0,0-2.506-.686V818.75l-44.662-25.785V770.479l72.3,41.744v44.249l-39.214,22.64H760.109l-.109.062-61.749,35.652a6.658,6.658,0,0,0-5.436.245c-1.644.949-1.644,2.488,0,3.438a6.584,6.584,0,0,0,5.955,0c1.483-.856,1.616-2.187.425-3.138l61.167-35.316h34.1L681.024,945.548a6.658,6.658,0,0,0-5.436.245c-.022.013-.037.028-.058.041h6.888l153.833-88.817v-45.34l-.235-.136L746.2,759.687l18.075-10.436,153.343,88.533v52.827L970,920.856c-1.191.95-1.058,2.281.425,3.137a6.578,6.578,0,0,0,5.955,0c1.644-.949,1.644-2.488,0-3.438a6.662,6.662,0,0,0-5.436-.245l-52.384-30.244V837.239l-.236-.137-153.106-88.4,17.208-9.935,151.647,87.552h90.435l4.245,2.45v-1.089l-3.992-2.3H934.33L806.318,751.472h25.746L875.755,776.7h33.654l.11-.062,46.675-26.948a6.656,6.656,0,0,0,5.435-.245c1.645-.949,1.645-2.488,0-3.438a6.584,6.584,0,0,0-5.955,0c-1.483.856-1.616,2.187-.425,3.138l-46.094,26.612H876.008l-43.691-25.224H804.685l-21.31-12.3,45.935-26.521,13.062,7.541v19.8L875.553,758.2c-1.19.95-1.057,2.281.425,3.137a6.577,6.577,0,0,0,5.955,0c1.644-.949,1.644-2.488,0-3.438a6.658,6.658,0,0,0-5.436-.245L843.315,738.5v-18.7l35.386,20.43h16.757l.109-.063,19.979-11.534a6.656,6.656,0,0,0,5.435-.245c1.644-.949,1.644-2.489,0-3.438a6.578,6.578,0,0,0-5.955,0c-1.483.856-1.616,2.188-.424,3.138l-19.4,11.2H878.955l-48.7-28.119,8.846-5.107-.707-.41L810.866,689.75l13.221-7.634H844.08l14.306,8.261c-1.14.948-.986,2.257.476,3.1a6.58,6.58,0,0,0,5.956,0c1.644-.949,1.644-2.488,0-3.438a6.65,6.65,0,0,0-5.5-.215l-14.986-8.652H825.721l33.713-19.464,79.329,45.8h57.081l.109-.063,32.139-18.555a5.89,5.89,0,0,0,.665.185v-4.339a4.964,4.964,0,0,0-1.184.471c-1.483.856-1.616,2.187-.425,3.137l-31.557,18.221H939.016l-61.18-35.323h26.185l25.6,14.78c-1.192.95-1.059,2.282.424,3.138a6.584,6.584,0,0,0,5.955,0c1.644-.95,1.644-2.489,0-3.438a6.66,6.66,0,0,0-5.435-.246L904.274,670.3l-28.071,0-15.824-9.136,40.273-23.252,128.1,0v-.943l-126.472,0,15.976-9.224h95.28l.109-.063,15.107-8.722V617.87l-15.469,8.93-95.28,0-.109.063-107.977,62.34-11.987-6.92,113.521-65.541,83.021,0,.11-.062,34.17-19.728v-1.09L994.224,615.8l-83.021,0-.109.062-114.1,65.876-13.615-7.86,221.4-127.825,0-46.364,23.981-13.845Zm-191.542,221.3-110.51,63.8L616.2,706.053l110.51-63.8Z" transform="translate(691.83 -240.4)" fill="#fff" opacity="0.8"/>
  </g>
</svg>
