<svg xmlns="http://www.w3.org/2000/svg" width="1280" height="1308.064" viewBox="0 0 1280 1308.064">
  <g id="Stars_Background" data-name="Stars Background" transform="translate(0 -63.5)">
    <g id="Group_3368" data-name="Group 3368" transform="translate(-18.903 52.065)">
      <g id="Group_3274" data-name="Group 3274" transform="translate(33.831 11.435)">
        <path id="Path_12847" data-name="Path 12847" d="M91.642,217.506l.591-19.9L94.781,217.6l14.935,1.231L95.3,220.978,94.278,240l-2.967-18.751-13.977-1.108Z" transform="translate(69.018 316.265)" fill="#fff"/>
        <path id="Path_12848" data-name="Path 12848" d="M132.477,109.142l.8-27.051,3.463,27.183,20.3,1.673-19.6,2.916-1.387,25.861-4.034-25.492-19-1.506Z" transform="translate(131.842 112.932)" fill="#fff"/>
        <path id="Path_12849" data-name="Path 12849" d="M221,112.2l.448-15.086,1.932,15.159,11.323.933-10.931,1.626L223,129.256l-2.25-14.216-10.6-.84Z" transform="translate(302.808 139.379)" fill="#fff"/>
        <path id="Path_12850" data-name="Path 12850" d="M430.948,52.233l.591-19.9,2.547,19.995,14.935,1.23L434.6,55.7l-1.02,19.022-2.967-18.751L416.64,54.868Z" transform="translate(666.262 25.353)" fill="#fff"/>
        <path id="Path_12851" data-name="Path 12851" d="M351.445,161.009l.591-19.9,2.547,19.995,14.935,1.23L355.1,164.481,354.08,183.5l-2.967-18.751-13.977-1.108Z" transform="translate(526.32 216.82)" fill="#fff"/>
        <path id="Path_12852" data-name="Path 12852" d="M251.368,31.333l.592-19.9,2.547,19.995,14.935,1.23L255.024,34.8,254,53.827l-2.967-18.751-13.977-1.108Z" transform="translate(350.166 -11.435)" fill="#fff"/>
        <path id="Path_12853" data-name="Path 12853" d="M183.95,415.752l.591-19.9,2.547,19.995,14.935,1.23-14.418,2.145-1.02,19.022-2.967-18.751-13.977-1.107Z" transform="translate(231.498 665.216)" fill="#fff"/>
        <path id="Path_12854" data-name="Path 12854" d="M452.523,117.939l.49-16.476,2.109,16.556,12.366,1.019-11.938,1.776-.845,15.75-2.457-15.526-11.573-.917Z" transform="translate(708.57 147.033)" fill="#fff"/>
        <path id="Path_12855" data-name="Path 12855" d="M420.954,238.621l.37-12.447,1.594,12.507,9.342.77-9.019,1.342-.638,11.9-1.856-11.729L412,240.27Z" transform="translate(658.1 366.547)" fill="#fff"/>
        <path id="Path_12856" data-name="Path 12856" d="M33.262,322.985l.37-12.447,1.593,12.508,9.342.77-9.019,1.342-.638,11.9-1.856-11.729-8.743-.693Z" transform="translate(-24.311 515.044)" fill="#fff"/>
        <path id="Path_12857" data-name="Path 12857" d="M377.68,307.211l.37-12.447,1.593,12.508,9.342.769-9.019,1.342-.638,11.9-1.856-11.729-8.743-.693Z" transform="translate(581.931 487.279)" fill="#fff"/>
        <path id="Path_12858" data-name="Path 12858" d="M318.69,405.438l.37-12.447,1.594,12.508,9.342.77-9.019,1.342-.638,11.9-1.856-11.729-8.743-.693Z" transform="translate(478.096 660.176)" fill="#fff"/>
        <path id="Path_12859" data-name="Path 12859" d="M202.617,333.965l.549-18.476,2.365,18.566L219.4,335.2l-13.387,1.992-.947,17.662-2.755-17.411-12.978-1.028Z" transform="translate(266.155 523.759)" fill="#fff"/>
        <path id="Path_12860" data-name="Path 12860" d="M79.726,396.819l.549-18.476,2.365,18.566,13.867,1.143-13.387,1.992-.947,17.662-2.755-17.411L66.44,399.266Z" transform="translate(49.843 634.393)" fill="#fff"/>
        <path id="Path_12861" data-name="Path 12861" d="M435.792,474.959l.549-18.476,2.365,18.566,13.868,1.142-13.387,1.991-.947,17.663-2.755-17.41-12.978-1.028Z" transform="translate(676.588 771.935)" fill="#fff"/>
      </g>
      <g id="Group_3367" data-name="Group 3367" transform="translate(18.903 16.058)">
        <g id="Group_3275" data-name="Group 3275" transform="translate(80.857 46.248)">
          <path id="Path_12862" data-name="Path 12862" d="M52.564,32.232l-1.979,1.979c-3.069,3.067-3.3,8.684,0,11.709a8.425,8.425,0,0,0,11.709,0l1.979-1.979c3.069-3.067,3.3-8.684,0-11.709a8.425,8.425,0,0,0-11.709,0Z" transform="translate(-48.197 -29.865)" fill="#fff"/>
        </g>
        <g id="Group_3276" data-name="Group 3276" transform="translate(315.691)">
          <path id="Path_12863" data-name="Path 12863" d="M134.276,15.18a1.036,1.036,0,0,0,0-2.07,1.036,1.036,0,0,0,0,2.07Z" transform="translate(-133.276 -13.11)" fill="#fff"/>
        </g>
        <g id="Group_3277" data-name="Group 3277" transform="translate(1039.005 81.994)">
          <path id="Path_12864" data-name="Path 12864" d="M399.327,51.1c5.327,0,5.338-8.281,0-8.281s-5.338,8.281,0,8.281Z" transform="translate(-395.328 -42.816)" fill="#fff"/>
        </g>
        <g id="Group_3278" data-name="Group 3278" transform="translate(1074.487 246.253)">
          <path id="Path_12865" data-name="Path 12865" d="M408.183,106.469v1.979a4.14,4.14,0,0,0,8.281,0v-1.979a4.14,4.14,0,0,0-8.281,0Z" transform="translate(-408.183 -102.326)" fill="#fff"/>
        </g>
        <g id="Group_3279" data-name="Group 3279" transform="translate(1040.026 429.455)">
          <path id="Path_12866" data-name="Path 12866" d="M396.7,170.769a1.036,1.036,0,0,0,0-2.07,1.036,1.036,0,0,0,0,2.07Z" transform="translate(-395.698 -168.699)" fill="#fff"/>
        </g>
        <g id="Group_3280" data-name="Group 3280" transform="translate(959.827 620.158)">
          <path id="Path_12867" data-name="Path 12867" d="M376.8,240.283l-3.953-1.985a4.243,4.243,0,0,0-5.667,1.485,4.181,4.181,0,0,0,1.488,5.664l3.953,1.987a4.242,4.242,0,0,0,5.664-1.485,4.182,4.182,0,0,0-1.485-5.667Z" transform="translate(-366.642 -237.789)" fill="#fff"/>
        </g>
        <g id="Group_3281" data-name="Group 3281" transform="translate(890.576 556.968)">
          <path id="Path_12868" data-name="Path 12868" d="M345.553,223.177c5.327,0,5.338-8.281,0-8.281s-5.338,8.281,0,8.281Z" transform="translate(-341.553 -214.896)" fill="#fff"/>
        </g>
        <g id="Group_3282" data-name="Group 3282" transform="translate(346.335 511.45)">
          <path id="Path_12869" data-name="Path 12869" d="M148.378,206.686c5.327,0,5.338-8.281,0-8.281s-5.338,8.281,0,8.281Z" transform="translate(-144.378 -198.405)" fill="#fff"/>
        </g>
        <g id="Group_3283" data-name="Group 3283" transform="translate(497.764 597.675)">
          <path id="Path_12870" data-name="Path 12870" d="M200.24,231.714a1.036,1.036,0,0,0,0-2.07,1.036,1.036,0,0,0,0,2.07Z" transform="translate(-199.24 -229.644)" fill="#fff"/>
        </g>
        <g id="Group_3284" data-name="Group 3284" transform="translate(225.613 786.539)">
          <path id="Path_12871" data-name="Path 12871" d="M104.641,306.349c5.327,0,5.338-8.281,0-8.281s-5.338,8.281,0,8.281Z" transform="translate(-100.641 -298.068)" fill="#fff"/>
        </g>
        <g id="Group_3285" data-name="Group 3285" transform="translate(839.12 830.078)">
          <path id="Path_12872" data-name="Path 12872" d="M326.91,322.123c5.327,0,5.338-8.281,0-8.281s-5.338,8.281,0,8.281Z" transform="translate(-322.911 -313.842)" fill="#fff"/>
        </g>
        <g id="Group_3286" data-name="Group 3286" transform="translate(417.581 1134.853)">
          <path id="Path_12873" data-name="Path 12873" d="M174.19,432.541c5.327,0,5.338-8.281,0-8.281s-5.338,8.281,0,8.281Z" transform="translate(-170.19 -424.26)" fill="#fff"/>
        </g>
        <g id="Group_3287" data-name="Group 3287" transform="translate(728.293 1018.088)">
          <path id="Path_12874" data-name="Path 12874" d="M286.759,390.238c5.327,0,5.338-8.281,0-8.281s-5.338,8.281,0,8.281Z" transform="translate(-282.759 -381.957)" fill="#fff"/>
        </g>
        <g id="Group_3288" data-name="Group 3288" transform="translate(1173.581 1124.957)">
          <path id="Path_12875" data-name="Path 12875" d="M448.084,428.956c5.327,0,5.338-8.281,0-8.281s-5.338,8.281,0,8.281Z" transform="translate(-444.084 -420.675)" fill="#fff"/>
        </g>
        <g id="Group_3289" data-name="Group 3289" transform="translate(1157.748 887.471)">
          <path id="Path_12876" data-name="Path 12876" d="M442.348,342.916c5.327,0,5.338-8.281,0-8.281s-5.338,8.281,0,8.281Z" transform="translate(-438.348 -334.635)" fill="#fff"/>
        </g>
        <g id="Group_3290" data-name="Group 3290" transform="translate(1203.308 825.937)">
          <path id="Path_12877" data-name="Path 12877" d="M390.007,393.106c5.327,0,5.338-8.281,0-8.281s-5.338,8.281,0,8.281Z" transform="translate(-386.007 -384.825)" fill="#fff"/>
        </g>
        <g id="Group_3291" data-name="Group 3291" transform="translate(963.801 1119.02)">
          <path id="Path_12878" data-name="Path 12878" d="M372.082,426.8c5.327,0,5.338-8.281,0-8.281s-5.338,8.281,0,8.281Z" transform="translate(-368.082 -418.524)" fill="#fff"/>
        </g>
        <g id="Group_3292" data-name="Group 3292" transform="translate(130.618 1162.559)">
          <path id="Path_12879" data-name="Path 12879" d="M70.225,442.579c5.327,0,5.338-8.281,0-8.281s-5.338,8.281,0,8.281Z" transform="translate(-66.225 -434.298)" fill="#fff"/>
        </g>
        <g id="Group_3293" data-name="Group 3293" transform="translate(148.289 814.242)">
          <path id="Path_12880" data-name="Path 12880" d="M72.627,312.249v1.979a4.14,4.14,0,1,0,8.281,0v-1.979a4.14,4.14,0,1,0-8.281,0Z" transform="translate(-72.627 -308.105)" fill="#fff"/>
        </g>
        <g id="Group_3294" data-name="Group 3294" transform="translate(61.258 574.96)">
          <path id="Path_12881" data-name="Path 12881" d="M47.184,228.783,45.2,222.846c-.839-2.517-4.839-1.438-3.991,1.1l1.979,5.937c.839,2.517,4.839,1.438,3.991-1.1Z" transform="translate(-41.097 -221.414)" fill="#fff"/>
        </g>
        <g id="Group_3295" data-name="Group 3295" transform="translate(43.56 272.075)">
          <path id="Path_12882" data-name="Path 12882" d="M36.684,115.821c2.664,0,2.669-4.14,0-4.14s-2.669,4.14,0,4.14Z" transform="translate(-34.685 -111.681)" fill="#fff"/>
        </g>
        <g id="Group_3296" data-name="Group 3296" transform="translate(168.241 380.923)">
          <path id="Path_12883" data-name="Path 12883" d="M81.855,155.256c2.664,0,2.669-4.14,0-4.14s-2.669,4.14,0,4.14Z" transform="translate(-79.855 -151.116)" fill="#fff"/>
        </g>
        <g id="Group_3297" data-name="Group 3297" transform="translate(265.194 396.664)">
          <path id="Path_12884" data-name="Path 12884" d="M118.981,165.1c5.327,0,5.338-8.281,0-8.281s-5.338,8.281,0,8.281Z" transform="translate(-114.981 -156.819)" fill="#fff"/>
        </g>
        <g id="Group_3298" data-name="Group 3298" transform="translate(303.816 676.838)">
          <path id="Path_12885" data-name="Path 12885" d="M129.974,260.394a1.036,1.036,0,0,0,0-2.07,1.036,1.036,0,0,0,0,2.07Z" transform="translate(-128.974 -258.324)" fill="#fff"/>
        </g>
        <g id="Group_3299" data-name="Group 3299" transform="translate(450.267 708.502)">
          <path id="Path_12886" data-name="Path 12886" d="M183.032,271.866a1.036,1.036,0,0,0,0-2.07,1.036,1.036,0,0,0,0,2.07Z" transform="translate(-182.032 -269.796)" fill="#fff"/>
        </g>
        <g id="Group_3300" data-name="Group 3300" transform="translate(783.707 454.057)">
          <path id="Path_12887" data-name="Path 12887" d="M306.835,185.893c5.327,0,5.338-8.281,0-8.281s-5.338,8.281,0,8.281Z" transform="translate(-302.835 -177.612)" fill="#fff"/>
        </g>
        <g id="Group_3301" data-name="Group 3301" transform="translate(993.487 323.439)">
          <path id="Path_12888" data-name="Path 12888" d="M382.837,138.571c5.327,0,5.338-8.281,0-8.281s-5.338,8.281,0,8.281Z" transform="translate(-378.837 -130.29)" fill="#fff"/>
        </g>
        <g id="Group_3302" data-name="Group 3302" transform="translate(1249.806 449.246)">
          <path id="Path_12889" data-name="Path 12889" d="M472.7,177.939a1.036,1.036,0,0,0,0-2.07,1.036,1.036,0,0,0,0,2.07Z" transform="translate(-471.7 -175.869)" fill="#fff"/>
        </g>
        <g id="Group_3303" data-name="Group 3303" transform="translate(1199.309 624.256)">
          <path id="Path_12890" data-name="Path 12890" d="M457.4,247.555c5.327,0,5.338-8.281,0-8.281s-5.338,8.281,0,8.281Z" transform="translate(-453.405 -239.274)" fill="#fff"/>
        </g>
        <g id="Group_3304" data-name="Group 3304" transform="translate(839.363 34.599)">
          <path id="Path_12891" data-name="Path 12891" d="M331,42.206c10.657,0,10.674-16.561,0-16.561-10.657,0-10.674,16.561,0,16.561Z" transform="translate(-322.999 -25.645)" fill="#fff"/>
        </g>
        <g id="Group_3305" data-name="Group 3305" transform="translate(1258.639 178.786)">
          <path id="Path_12892" data-name="Path 12892" d="M482.9,94.444c10.657,0,10.674-16.561,0-16.561-10.657,0-10.674,16.561,0,16.561Z" transform="translate(-474.9 -77.883)" fill="#fff"/>
        </g>
        <g id="Group_3306" data-name="Group 3306" transform="translate(1141.916 434.266)">
          <path id="Path_12893" data-name="Path 12893" d="M436.611,178.723c5.327,0,5.338-8.281,0-8.281s-5.338,8.281,0,8.281Z" transform="translate(-432.612 -170.442)" fill="#fff"/>
        </g>
        <g id="Group_3307" data-name="Group 3307" transform="translate(999.424 545.094)">
          <path id="Path_12894" data-name="Path 12894" d="M384.988,218.875c5.327,0,5.338-8.281,0-8.281s-5.338,8.281,0,8.281Z" transform="translate(-380.988 -210.594)" fill="#fff"/>
        </g>
        <g id="Group_3308" data-name="Group 3308" transform="translate(1191.351 65.98)">
          <path id="Path_12895" data-name="Path 12895" d="M458.521,53.575c10.657,0,10.674-16.561,0-16.561-10.657,0-10.674,16.561,0,16.561Z" transform="translate(-450.522 -37.014)" fill="#fff"/>
        </g>
        <g id="Group_3309" data-name="Group 3309" transform="translate(512.435 770.703)">
          <path id="Path_12896" data-name="Path 12896" d="M204.555,296.475v1.979a4.14,4.14,0,0,0,8.281,0v-1.979a4.14,4.14,0,1,0-8.281,0Z" transform="translate(-204.555 -292.331)" fill="#fff"/>
        </g>
        <g id="Group_3310" data-name="Group 3310" transform="translate(1121.841 734.96)">
          <path id="Path_12897" data-name="Path 12897" d="M429.706,281.749l-1.979,1.979c-3.069,3.066-3.3,8.684,0,11.709a8.425,8.425,0,0,0,11.709,0l1.979-1.979c3.069-3.067,3.3-8.684,0-11.709a8.425,8.425,0,0,0-11.709,0Z" transform="translate(-425.339 -279.381)" fill="#fff"/>
        </g>
        <g id="Group_3311" data-name="Group 3311" transform="translate(551.873 1045.672)">
          <path id="Path_12898" data-name="Path 12898" d="M232.939,408.005l1.979-1.979c3.069-3.067,3.3-8.684,0-11.709a8.425,8.425,0,0,0-11.709,0l-1.979,1.979c-3.069,3.067-3.3,8.684,0,11.709a8.425,8.425,0,0,0,11.709,0Z" transform="translate(-218.843 -391.95)" fill="#fff"/>
        </g>
        <g id="Group_3312" data-name="Group 3312" transform="translate(320.566 952.597)">
          <path id="Path_12899" data-name="Path 12899" d="M143.041,374.791c10.657,0,10.674-16.561,0-16.561-10.657,0-10.674,16.561,0,16.561Z" transform="translate(-135.042 -358.23)" fill="#fff"/>
        </g>
        <g id="Group_3313" data-name="Group 3313" transform="translate(0 970.591)">
          <path id="Path_12900" data-name="Path 12900" d="M22.9,373.03c5.327,0,5.338-8.281,0-8.281s-5.338,8.281,0,8.281Z" transform="translate(-18.903 -364.749)" fill="#fff"/>
        </g>
        <g id="Group_3314" data-name="Group 3314" transform="translate(231.55 1073.502)">
          <path id="Path_12901" data-name="Path 12901" d="M106.792,410.314c5.327,0,5.338-8.281,0-8.281s-5.338,8.281,0,8.281Z" transform="translate(-102.792 -402.033)" fill="#fff"/>
        </g>
        <g id="Group_3315" data-name="Group 3315" transform="translate(793.623 919.227)">
          <path id="Path_12902" data-name="Path 12902" d="M312.385,346.14h-3.958c-2.664,0-2.669,4.14,0,4.14h3.958c2.664,0,2.669-4.14,0-4.14Z" transform="translate(-306.428 -346.14)" fill="#fff"/>
        </g>
        <g id="Group_3316" data-name="Group 3316" transform="translate(928.128 675.873)">
          <path id="Path_12903" data-name="Path 12903" d="M359.3,261.953v-1.979c0-2.664-4.14-2.669-4.14,0v1.979c0,2.664,4.14,2.669,4.14,0Z" transform="translate(-355.158 -257.975)" fill="#fff"/>
        </g>
        <g id="Group_3317" data-name="Group 3317" transform="translate(971.717 206.675)">
          <path id="Path_12904" data-name="Path 12904" d="M374.95,96.268c5.327,0,5.338-8.281,0-8.281s-5.338,8.281,0,8.281Z" transform="translate(-370.95 -87.987)" fill="#fff"/>
        </g>
        <g id="Group_3318" data-name="Group 3318" transform="translate(526.429 28.56)">
          <path id="Path_12905" data-name="Path 12905" d="M213.625,31.738c5.327,0,5.338-8.281,0-8.281s-5.338,8.281,0,8.281Z" transform="translate(-209.625 -23.457)" fill="#fff"/>
        </g>
        <g id="Group_3319" data-name="Group 3319" transform="translate(706.523 54.287)">
          <path id="Path_12906" data-name="Path 12906" d="M278.872,41.059c5.327,0,5.338-8.281,0-8.281s-5.338,8.281,0,8.281Z" transform="translate(-274.872 -32.778)" fill="#fff"/>
        </g>
        <g id="Group_3320" data-name="Group 3320" transform="translate(249.246 95.871)">
          <path id="Path_12907" data-name="Path 12907" d="M112.369,49.032l-1.979,1.979a4.142,4.142,0,0,0,5.857,5.857l1.979-1.979a4.142,4.142,0,1,0-5.857-5.857Z" transform="translate(-109.203 -47.844)" fill="#fff"/>
        </g>
        <g id="Group_3321" data-name="Group 3321" transform="translate(176.136 258.13)">
          <path id="Path_12908" data-name="Path 12908" d="M86.716,114.91c5.327,0,5.338-8.281,0-8.281s-5.338,8.281,0,8.281Z" transform="translate(-82.716 -106.629)" fill="#fff"/>
        </g>
        <g id="Group_3322" data-name="Group 3322" transform="translate(49.497 378.944)">
          <path id="Path_12909" data-name="Path 12909" d="M38.835,154.539c2.664,0,2.669-4.14,0-4.14s-2.669,4.14,0,4.14Z" transform="translate(-36.836 -150.399)" fill="#fff"/>
        </g>
        <g id="Group_3323" data-name="Group 3323" transform="translate(126.66 153.24)">
          <path id="Path_12910" data-name="Path 12910" d="M68.791,76.909c5.327,0,5.338-8.281,0-8.281s-5.338,8.281,0,8.281Z" transform="translate(-64.791 -68.628)" fill="#fff"/>
        </g>
        <g id="Group_3324" data-name="Group 3324" transform="translate(413.623 40.434)">
          <path id="Path_12911" data-name="Path 12911" d="M172.756,36.04c5.327,0,5.338-8.281,0-8.281s-5.338,8.281,0,8.281Z" transform="translate(-168.756 -27.759)" fill="#fff"/>
        </g>
        <g id="Group_3325" data-name="Group 3325" transform="translate(428.259 147.088)">
          <path id="Path_12912" data-name="Path 12912" d="M178.057,74.68c5.33,0,5.338-8.281,0-8.281s-5.335,8.281,0,8.281Z" transform="translate(-174.058 -66.399)" fill="#fff"/>
        </g>
        <g id="Group_3326" data-name="Group 3326" transform="translate(930.157 20.643)">
          <path id="Path_12913" data-name="Path 12913" d="M359.893,28.87c5.327,0,5.338-8.281,0-8.281s-5.338,8.281,0,8.281Z" transform="translate(-355.893 -20.589)" fill="#fff"/>
        </g>
        <g id="Group_3327" data-name="Group 3327" transform="translate(890.576 225.265)">
          <path id="Path_12914" data-name="Path 12914" d="M345.553,103c5.327,0,5.338-8.281,0-8.281s-5.338,8.281,0,8.281Z" transform="translate(-341.553 -94.722)" fill="#fff"/>
        </g>
        <g id="Group_3328" data-name="Group 3328" transform="translate(718.398 837.994)">
          <path id="Path_12915" data-name="Path 12915" d="M283.174,324.991c5.327,0,5.338-8.281,0-8.281s-5.338,8.281,0,8.281Z" transform="translate(-279.174 -316.71)" fill="#fff"/>
        </g>
        <g id="Group_3329" data-name="Group 3329" transform="translate(939.157 851.947)">
          <path id="Path_12916" data-name="Path 12916" d="M359.893,360.841c5.327,0,5.338-8.281,0-8.281s-5.338,8.281,0,8.281Z" transform="translate(-355.893 -352.56)" fill="#fff"/>
        </g>
        <g id="Group_3330" data-name="Group 3330" transform="translate(1044.942 806.329)">
          <path id="Path_12917" data-name="Path 12917" d="M401.479,313.519c5.327,0,5.338-8.281,0-8.281s-5.338,8.281,0,8.281Z" transform="translate(-397.479 -305.238)" fill="#fff"/>
        </g>
        <g id="Group_3331" data-name="Group 3331" transform="translate(1250.764 756.853)">
          <path id="Path_12918" data-name="Path 12918" d="M476.047,295.594c5.327,0,5.338-8.281,0-8.281s-5.338,8.281,0,8.281Z" transform="translate(-472.047 -287.313)" fill="#fff"/>
        </g>
        <g id="Group_3332" data-name="Group 3332" transform="translate(1165.665 657.9)">
          <path id="Path_12919" data-name="Path 12919" d="M445.216,259.744c5.327,0,5.338-8.281,0-8.281s-5.338,8.281,0,8.281Z" transform="translate(-441.216 -251.463)" fill="#fff"/>
        </g>
        <g id="Group_3333" data-name="Group 3333" transform="translate(1097.319 834.218)">
          <path id="Path_12920" data-name="Path 12920" d="M388.573,357.973c5.327,0,5.338-8.281,0-8.281s-5.338,8.281,0,8.281Z" transform="translate(-384.573 -349.692)" fill="#fff"/>
        </g>
        <g id="Group_3334" data-name="Group 3334" transform="translate(1126.083 1018.088)">
          <path id="Path_12921" data-name="Path 12921" d="M430.876,390.238c5.327,0,5.338-8.281,0-8.281s-5.338,8.281,0,8.281Z" transform="translate(-426.876 -381.957)" fill="#fff"/>
        </g>
        <g id="Group_3335" data-name="Group 3335" transform="translate(843.078 1156.622)">
          <path id="Path_12922" data-name="Path 12922" d="M328.345,440.428c5.327,0,5.338-8.281,0-8.281s-5.338,8.281,0,8.281Z" transform="translate(-324.345 -432.147)" fill="#fff"/>
        </g>
        <g id="Group_3336" data-name="Group 3336" transform="translate(635.277 1124.957)">
          <path id="Path_12923" data-name="Path 12923" d="M253.06,428.956c5.327,0,5.338-8.281,0-8.281s-5.338,8.281,0,8.281Z" transform="translate(-249.06 -420.675)" fill="#fff"/>
        </g>
        <g id="Group_3337" data-name="Group 3337" transform="translate(1076.466 1143.664)">
          <path id="Path_12924" data-name="Path 12924" d="M417.181,432.676v-1.226c0-5.327-8.281-5.336-8.281,0v1.226c0,5.327,8.281,5.338,8.281,0v-1.226c0-5.327-8.281-5.336-8.281,0v1.226c0,5.327,8.281,5.338,8.281,0Z" transform="translate(-408.9 -427.452)" fill="#fff"/>
        </g>
        <g id="Group_3338" data-name="Group 3338" transform="translate(1240.869 1119.02)">
          <path id="Path_12925" data-name="Path 12925" d="M472.462,426.8c5.327,0,5.338-8.281,0-8.281s-5.338,8.281,0,8.281Z" transform="translate(-468.462 -418.524)" fill="#fff"/>
        </g>
        <g id="Group_3339" data-name="Group 3339" transform="translate(850.995 737.062)">
          <path id="Path_12926" data-name="Path 12926" d="M331.213,288.424c5.327,0,5.338-8.281,0-8.281s-5.338,8.281,0,8.281Z" transform="translate(-327.213 -280.143)" fill="#fff"/>
        </g>
        <g id="Group_3340" data-name="Group 3340" transform="translate(1094.274 349.167)">
          <path id="Path_12927" data-name="Path 12927" d="M421.475,139.611H419.5a4.14,4.14,0,0,0,0,8.281h1.979a4.14,4.14,0,0,0,0-8.281Z" transform="translate(-415.352 -139.611)" fill="#fff"/>
        </g>
        <g id="Group_3341" data-name="Group 3341" transform="translate(1205.204 253.99)">
          <path id="Path_12928" data-name="Path 12928" d="M463.54,121.69c10.657,0,10.674-16.561,0-16.561-10.657,0-10.674,16.561,0,16.561Z" transform="translate(-455.541 -105.129)" fill="#fff"/>
        </g>
        <g id="Group_3342" data-name="Group 3342" transform="translate(1104.272 14.524)">
          <path id="Path_12929" data-name="Path 12929" d="M426.973,34.933c10.657,0,10.674-16.561,0-16.561-10.657,0-10.674,16.561,0,16.561Z" transform="translate(-418.974 -18.372)" fill="#fff"/>
        </g>
        <g id="Group_3343" data-name="Group 3343" transform="translate(849.167 227.269)">
          <path id="Path_12930" data-name="Path 12930" d="M330.551,103.729c5.327,0,5.338-8.281,0-8.281s-5.338,8.281,0,8.281Z" transform="translate(-326.551 -95.448)" fill="#fff"/>
        </g>
        <g id="Group_3344" data-name="Group 3344" transform="translate(397.683 339.023)">
          <path id="Path_12931" data-name="Path 12931" d="M170.98,152.5c10.657,0,10.674-16.561,0-16.561-10.657,0-10.674,16.561,0,16.561Z" transform="translate(-162.981 -135.936)" fill="#fff"/>
        </g>
        <g id="Group_3345" data-name="Group 3345" transform="translate(447.95 249.692)">
          <path id="Path_12932" data-name="Path 12932" d="M185.191,111.853c5.33,0,5.338-8.281,0-8.281s-5.335,8.281,0,8.281Z" transform="translate(-181.192 -103.572)" fill="#fff"/>
        </g>
        <g id="Group_3346" data-name="Group 3346" transform="translate(899.368 144.226)">
          <path id="Path_12933" data-name="Path 12933" d="M352.736,81.923c10.657,0,10.674-16.561,0-16.561-10.654,0-10.674,16.561,0,16.561Z" transform="translate(-344.738 -65.362)" fill="#fff"/>
        </g>
        <g id="Group_3347" data-name="Group 3347" transform="translate(459.141 523.324)">
          <path id="Path_12934" data-name="Path 12934" d="M189.247,210.988c5.327,0,5.338-8.281,0-8.281s-5.338,8.281,0,8.281Z" transform="translate(-185.247 -202.707)" fill="#fff"/>
        </g>
        <g id="Group_3348" data-name="Group 3348" transform="translate(799.539 489.68)">
          <path id="Path_12935" data-name="Path 12935" d="M312.571,198.8c5.327,0,5.338-8.281,0-8.281s-5.338,8.281,0,8.281Z" transform="translate(-308.571 -190.518)" fill="#fff"/>
        </g>
        <g id="Group_3349" data-name="Group 3349" transform="translate(367.782 786.349)">
          <path id="Path_12936" data-name="Path 12936" d="M168.709,308.266v-1.979c0-4.331-3.809-8.482-8.281-8.281a8.426,8.426,0,0,0-8.281,8.281v1.979c0,4.331,3.809,8.482,8.281,8.281a8.426,8.426,0,0,0,8.281-8.281Z" transform="translate(-152.148 -298)" fill="#fff"/>
        </g>
        <g id="Group_3350" data-name="Group 3350" transform="translate(85.099 756.853)">
          <path id="Path_12937" data-name="Path 12937" d="M53.734,295.594c5.327,0,5.338-8.281,0-8.281s-5.338,8.281,0,8.281Z" transform="translate(-49.734 -287.313)" fill="#fff"/>
        </g>
        <g id="Group_3351" data-name="Group 3351" transform="translate(118.702 315.341)">
          <path id="Path_12938" data-name="Path 12938" d="M69.907,143.917c10.657,0,10.674-16.561,0-16.561-10.657,0-10.674,16.561,0,16.561Z" transform="translate(-61.908 -127.356)" fill="#fff"/>
        </g>
        <g id="Group_3352" data-name="Group 3352" transform="translate(268.006 587.61)">
          <path id="Path_12939" data-name="Path 12939" d="M132.561,236.126v-1.841c0-4.331-3.809-8.482-8.281-8.281A8.426,8.426,0,0,0,116,234.285v1.841c0,4.331,3.809,8.479,8.281,8.281a8.426,8.426,0,0,0,8.281-8.281Z" transform="translate(-116 -225.997)" fill="#fff"/>
        </g>
        <g id="Group_3353" data-name="Group 3353" transform="translate(251.34 1261.512)">
          <path id="Path_12940" data-name="Path 12940" d="M113.962,478.429c5.327,0,5.338-8.281,0-8.281s-5.338,8.281,0,8.281Z" transform="translate(-109.962 -470.148)" fill="#fff"/>
        </g>
        <g id="Group_3354" data-name="Group 3354" transform="translate(973.696 1293.177)">
          <path id="Path_12941" data-name="Path 12941" d="M375.667,489.9c5.327,0,5.338-8.281,0-8.281s-5.338,8.281,0,8.281Z" transform="translate(-371.667 -481.62)" fill="#fff"/>
        </g>
        <g id="Group_3355" data-name="Group 3355" transform="translate(33.503 1293.174)">
          <path id="Path_12942" data-name="Path 12942" d="M39.322,487.742v-1.979a4.14,4.14,0,0,0-8.281,0v1.979a4.14,4.14,0,0,0,8.281,0Z" transform="translate(-31.041 -481.619)" fill="#fff"/>
        </g>
        <g id="Group_3356" data-name="Group 3356" transform="translate(1037.026 1190.266)">
          <path id="Path_12943" data-name="Path 12943" d="M398.611,452.617c5.327,0,5.338-8.281,0-8.281s-5.338,8.281,0,8.281Z" transform="translate(-394.611 -444.336)" fill="#fff"/>
        </g>
        <g id="Group_3357" data-name="Group 3357" transform="translate(759.313 114.645)">
          <path id="Path_12944" data-name="Path 12944" d="M298,62.926c5.33,0,5.338-8.281,0-8.281s-5.335,8.281,0,8.281Z" transform="translate(-293.997 -54.645)" fill="#fff"/>
        </g>
        <g id="Group_3358" data-name="Group 3358" transform="translate(507.791 378.847)">
          <path id="Path_12945" data-name="Path 12945" d="M206.873,158.645c5.327,0,5.335-8.281,0-8.281s-5.338,8.281,0,8.281Z" transform="translate(-202.873 -150.364)" fill="#fff"/>
        </g>
        <g id="Group_3359" data-name="Group 3359" transform="translate(801.586 357.713)">
          <path id="Path_12946" data-name="Path 12946" d="M313.313,150.988c5.327,0,5.336-8.281,0-8.281s-5.338,8.281,0,8.281Z" transform="translate(-309.313 -142.707)" fill="#fff"/>
        </g>
        <g id="Group_3360" data-name="Group 3360" transform="translate(518.359 192.849)">
          <path id="Path_12947" data-name="Path 12947" d="M210.7,91.259c5.33,0,5.338-8.281,0-8.281s-5.335,8.281,0,8.281Z" transform="translate(-206.701 -82.978)" fill="#fff"/>
        </g>
        <g id="Group_3361" data-name="Group 3361" transform="translate(459.178 340.804)">
          <path id="Path_12948" data-name="Path 12948" d="M189.259,144.862c5.33,0,5.338-8.281,0-8.281s-5.335,8.281,0,8.281Z" transform="translate(-185.26 -136.581)" fill="#fff"/>
        </g>
        <g id="Group_3362" data-name="Group 3362" transform="translate(606.993 894.826)">
          <path id="Path_12949" data-name="Path 12949" d="M242.813,345.581c5.327,0,5.335-8.281,0-8.281s-5.338,8.281,0,8.281Z" transform="translate(-238.813 -337.3)" fill="#fff"/>
        </g>
        <g id="Group_3363" data-name="Group 3363" transform="translate(1235.507 740.739)">
          <path id="Path_12950" data-name="Path 12950" d="M470.518,289.756c5.33,0,5.338-8.281,0-8.281s-5.335,8.281,0,8.281Z" transform="translate(-466.519 -281.475)" fill="#fff"/>
        </g>
        <g id="Group_3364" data-name="Group 3364" transform="translate(1272.002 959.705)">
          <path id="Path_12951" data-name="Path 12951" d="M483.74,369.086c5.327,0,5.338-8.281,0-8.281s-5.335,8.281,0,8.281Z" transform="translate(-479.741 -360.805)" fill="#fff"/>
        </g>
        <g id="Group_3365" data-name="Group 3365" transform="translate(339.057 1187.218)">
          <path id="Path_12952" data-name="Path 12952" d="M156.025,447.861l-8.079-4.118a4.239,4.239,0,0,0-5.664,1.485,4.181,4.181,0,0,0,1.485,5.667l8.079,4.115a4.237,4.237,0,0,0,5.664-1.485,4.184,4.184,0,0,0-1.485-5.664Z" transform="translate(-141.741 -443.232)" fill="#fff"/>
        </g>
        <g id="Group_3366" data-name="Group 3366" transform="translate(250.159 902.936)">
          <path id="Path_12953" data-name="Path 12953" d="M113.534,348.519c5.327,0,5.335-8.281,0-8.281s-5.338,8.281,0,8.281Z" transform="translate(-109.534 -340.238)" fill="#fff"/>
        </g>
      </g>
    </g>
    <g id="Group_3401" data-name="Group 3401">
      <g id="Group_3370" data-name="Group 3370" transform="translate(112.513 621.552)">
        <circle id="Ellipse_97" data-name="Ellipse 97" cx="102.128" cy="102.128" r="102.128" transform="translate(25.487 285.983) rotate(-23.63)" fill="#7c848a"/>
        <path id="Path_12954" data-name="Path 12954" d="M114.435,227.633c-.119,2.093-11.232,3.158-24.821,2.381s-24.505-3.108-24.384-5.2,11.232-3.158,24.818-2.381S114.554,225.539,114.435,227.633Z" transform="translate(70.154 31.888)" fill="#1d2b36"/>
        <path id="Path_12955" data-name="Path 12955" d="M68.778,262.142c0,10.464-6.075,18.945-13.569,18.945S41.64,272.606,41.64,262.142,47.715,243.2,55.209,243.2,68.778,251.676,68.778,262.142Z" transform="translate(28.513 68.99)" fill="#1d2b36"/>
        <path id="Path_12956" data-name="Path 12956" d="M169.787,250.4c0,9.557-23.421,17.3-52.315,17.3s-52.315-7.748-52.315-17.3,23.424-17.308,52.315-17.308S169.787,240.84,169.787,250.4Z" transform="translate(70.024 51.156)" fill="#1d2b36"/>
        <path id="Path_12957" data-name="Path 12957" d="M108.3,264.194c0,4.784-7.651,8.661-17.089,8.661s-17.086-3.877-17.086-8.661,7.651-8.658,17.086-8.658S108.3,259.413,108.3,264.194Z" transform="translate(85.86 90.774)" fill="#1d2b36"/>
        <path id="Path_12958" data-name="Path 12958" d="M109.57,263.561c0,7.839-1.474,14.194-3.288,14.194s-3.288-6.354-3.288-14.194,1.471-14.191,3.288-14.191S109.57,255.724,109.57,263.561Z" transform="translate(136.817 79.89)" fill="#1d2b36"/>
        <path id="Path_12959" data-name="Path 12959" d="M62.7,237.692c0,6.072-1.571,10.995-3.509,10.995s-3.509-4.922-3.509-10.995S57.255,226.7,59.193,226.7,62.7,231.619,62.7,237.692Z" transform="translate(53.304 39.867)" fill="#1d2b36"/>
        <path id="Path_12960" data-name="Path 12960" d="M99.344,233.826c-6.05.5-11.086-.672-11.243-2.6s4.623-3.9,10.674-4.391,11.086.672,11.243,2.6S105.4,233.334,99.344,233.826Z" transform="translate(110.52 39.908)" fill="#1d2b36"/>
        <path id="Path_12961" data-name="Path 12961" d="M110.7,276.032c0,3.105-11.454,5.622-25.581,5.622s-25.581-2.516-25.581-5.622,11.454-5.624,25.581-5.624S110.7,272.927,110.7,276.032Z" transform="translate(60.102 117.027)" fill="#1d2b36"/>
        <ellipse id="Ellipse_98" data-name="Ellipse 98" cx="18.475" cy="2.222" rx="18.475" ry="2.222" transform="translate(177.075 411.839)" fill="#1d2b36"/>
      </g>
      <g id="Group_3371" data-name="Group 3371" transform="translate(595.836 181.988)">
        <circle id="Ellipse_99" data-name="Ellipse 99" cx="87.633" cy="87.633" r="87.633" transform="translate(376.631 129.855)" fill="#d3695c"/>
        <path id="Path_12962" data-name="Path 12962" d="M387.813,157.673a87.314,87.314,0,0,0-7.946,13.168c47.793-7.666,95.638-15.146,143.749-20.347a88.025,88.025,0,0,0-19.171-15.925c-5.159,1.6-10.319,3.162-15.486,4.628-25.75,7.3-52.122,12.231-78.62,16.023C402.858,156.292,395.342,157.2,387.813,157.673Z" transform="translate(5.63 8.203)" fill="#c74131"/>
        <path id="Path_12963" data-name="Path 12963" d="M385.96,226.145a346.4,346.4,0,0,0,74.625-28.065c13-6.7,25.613-14.242,39.217-19.6,15.807-6.233,32.378-9.338,49.267-11.174a87.079,87.079,0,0,0-5.948-18.563c-55.643,14.809-110.111,37.825-165.852,53.388A87,87,0,0,0,385.96,226.145Z" transform="translate(1.11 32.855)" fill="#c74131"/>
        <path id="Path_12964" data-name="Path 12964" d="M501.949,195.611a87.035,87.035,0,0,0,10.478-27.649,228.35,228.35,0,0,0-50.418,20.807c-23.218,12.839-42.85,29.523-63.619,45.472a87.432,87.432,0,0,0,26.106,4.551c10.782-10.354,21.846-20.287,34.773-27.7C472.569,203.472,487.022,198.945,501.949,195.611Z" transform="translate(37.86 66.304)" fill="#c74131"/>
      </g>
      <g id="Group_3372" data-name="Group 3372" transform="translate(486.35 577.834) rotate(-3)" opacity="0.4">
        <circle id="Ellipse_100" data-name="Ellipse 100" cx="108.138" cy="108.138" r="108.138" transform="translate(354.206 517.087) rotate(-61.061)" fill="#c74131"/>
        <ellipse id="Ellipse_101" data-name="Ellipse 101" cx="11.778" cy="235.312" rx="11.778" ry="235.312" transform="translate(283.013 414.893) rotate(-71.666)" fill="#fff"/>
        <path id="Path_12965" data-name="Path 12965" d="M415.851,366.584c-.7,2.128-14.871-.651-31.637-6.205s-29.789-11.787-29.085-13.918,14.871.651,31.64,6.205S416.558,364.453,415.851,366.584Z" transform="translate(152.471 37.921)" fill="#fff"/>
        <path id="Path_12966" data-name="Path 12966" d="M402.942,379.753c-1.527,4.607-16.357,3.835-33.126-1.723s-29.123-13.794-27.6-18.4,16.354-3.835,33.122,1.723S404.465,375.149,402.942,379.753Z" transform="translate(124.956 60.933)" fill="#fff"/>
        <path id="Path_12967" data-name="Path 12967" d="M413.6,406.119c-.763,2.3-14.974-.336-31.742-5.894S352.111,388.3,352.874,386s14.974.336,31.743,5.894S414.359,403.817,413.6,406.119Z" transform="translate(147.692 121.293)" fill="#fff"/>
        <path id="Path_12968" data-name="Path 12968" d="M391.728,414.6c-1.875,5.66-16.989,5.744-33.758.187s-28.839-14.647-26.964-20.307,16.989-5.744,33.758-.187S393.6,408.939,391.728,414.6Z" transform="translate(101.102 131.899)" fill="#fff"/>
      </g>
      <g id="Group_3400" data-name="Group 3400" transform="translate(228.107 350.871) rotate(-34)">
        <g id="Group_3373" data-name="Group 3373" transform="translate(362.516 226.279)">
          <path id="Path_12969" data-name="Path 12969" d="M280.126,121.567s22.93,1.55,22.924,28.86c-.515.515-8.758-14.43-24.989-14.432C278.063,134.706,280.126,121.567,280.126,121.567Z" transform="translate(-278.061 -121.567)" fill="#272b30"/>
        </g>
        <g id="Group_3374" data-name="Group 3374" transform="translate(320.797 226.276)">
          <path id="Path_12970" data-name="Path 12970" d="M279.279,121.565s-22.93,1.542-22.936,28.852c.515.515,8.761-14.428,24.993-14.424C281.336,134.706,279.279,121.565,279.279,121.565Z" transform="translate(-256.343 -121.565)" fill="#272b30"/>
        </g>
        <g id="Group_3375" data-name="Group 3375" transform="translate(186.355 226.251)">
          <path id="Path_12971" data-name="Path 12971" d="M209.289,121.552s-22.93,1.543-22.934,28.852c.515.515,8.761-14.426,24.993-14.424C211.348,134.693,209.289,121.552,209.289,121.552Z" transform="translate(-186.355 -121.552)" fill="#272b30"/>
        </g>
        <g id="Group_3376" data-name="Group 3376" transform="translate(228.018 226.254)">
          <path id="Path_12972" data-name="Path 12972" d="M210.107,121.554s22.93,1.55,22.924,28.86c-.515.515-8.758-14.428-24.987-14.432C208.044,134.693,210.107,121.554,210.107,121.554Z" transform="translate(-208.044 -121.554)" fill="#272b30"/>
        </g>
        <g id="Group_3377" data-name="Group 3377" transform="translate(211.067 229.879)">
          <path id="Path_12973" data-name="Path 12973" d="M214.937,124.148l-7.011-.7s-.008,1.2-.015,3.189l-.142-.384c-.006-1.756-.012-2.806-.012-2.806l-7.013.7s-6.4,13.938,7.048,39.527C221.253,138.088,214.937,124.148,214.937,124.148Zm-7.154,38.874v.288Q207.781,163.183,207.784,163.022Z" transform="translate(-199.22 -123.441)" fill="#455a6f"/>
        </g>
        <g id="Group_3378" data-name="Group 3378" transform="translate(345.485 229.904)">
          <path id="Path_12974" data-name="Path 12974" d="M284.914,124.161l-7.013-.707s-.006,1.2-.013,3.191l-.144-.384c-.006-1.756-.011-2.806-.011-2.806l-7.013.7s-6.4,13.936,7.05,39.527C291.23,138.1,284.914,124.161,284.914,124.161Zm-7.155,38.874v.288C277.756,163.236,277.756,163.142,277.758,163.035Z" transform="translate(-269.195 -123.454)" fill="#455a6f"/>
        </g>
        <g id="Group_3379" data-name="Group 3379" transform="translate(315.987 191.626)">
          <path id="Path_12975" data-name="Path 12975" d="M253.841,129.413l41.905-25.886,0,9.886-41.905,24.474Z" transform="translate(-253.839 -103.527)" fill="#272b30"/>
        </g>
        <g id="Group_3380" data-name="Group 3380" transform="translate(343.402 188.099)">
          <rect id="Rectangle_173" data-name="Rectangle 173" width="21.602" height="52.613" fill="#fbfbfb"/>
        </g>
        <g id="Group_3381" data-name="Group 3381" transform="translate(343.406 176.906)">
          <path id="Path_12976" data-name="Path 12976" d="M289.716,106.667a10.8,10.8,0,0,0-21.6,0Z" transform="translate(-268.113 -95.864)" fill="#c74131"/>
        </g>
        <g id="Group_3382" data-name="Group 3382" transform="translate(215.986 191.6)">
          <path id="Path_12977" data-name="Path 12977" d="M243.678,129.415l-41.9-25.9,0,9.886,41.9,24.489Z" transform="translate(-201.781 -103.513)" fill="#272b30"/>
        </g>
        <g id="Group_3383" data-name="Group 3383" transform="translate(208.87 188.074)">
          <rect id="Rectangle_174" data-name="Rectangle 174" width="21.602" height="52.613" fill="#fbfbfb"/>
        </g>
        <g id="Group_3384" data-name="Group 3384" transform="translate(208.876 176.881)">
          <path id="Path_12978" data-name="Path 12978" d="M198.079,106.65a10.8,10.8,0,1,1,21.6,0Z" transform="translate(-198.079 -95.851)" fill="#c74131"/>
        </g>
        <g id="Group_3385" data-name="Group 3385" transform="translate(285.155 7.864)">
          <path id="Path_12979" data-name="Path 12979" d="M238.712,7.866c0,2.52-.01,47.812-.01,47.812" transform="translate(-236.947 -7.862)" fill="#c74131"/>
          <path id="Path_12980" data-name="Path 12980" d="M241.3,55.682l-3.513,0,.005-47.808,3.516-.006Z" transform="translate(-237.788 -7.864)" fill="#272b30"/>
        </g>
        <g id="Group_3386" data-name="Group 3386" transform="translate(269.674 242.365)">
          <path id="Path_12981" data-name="Path 12981" d="M261.165,131.355l-14.027-1.412s-.012,2.4-.029,6.377l-.284-.766c-.013-3.511-.023-5.613-.023-5.613l-14.027,1.408s-12.807,27.875,14.1,79.056C273.8,159.233,261.165,131.355,261.165,131.355ZM246.856,209.1v.576C246.852,209.508,246.85,209.316,246.856,209.1Z" transform="translate(-229.729 -129.941)" fill="#455a6f"/>
        </g>
        <g id="Group_3387" data-name="Group 3387" transform="translate(265.057 228.542)">
          <path id="Path_12982" data-name="Path 12982" d="M227.33,124.8c0,.878,0,13.178,0,13.178l43.632.008s-.426-15.73,0-15.227S227.33,124.8,227.33,124.8Z" transform="translate(-227.326 -122.745)" fill="#455a6f"/>
        </g>
        <g id="Group_3388" data-name="Group 3388" transform="translate(254.12 42.276)">
          <path id="Path_12983" data-name="Path 12983" d="M287.189,101.065a105.55,105.55,0,0,0-32.765-75.287,105.55,105.55,0,0,0-32.792,75.275Z" transform="translate(-221.632 -25.778)" fill="#c94939"/>
        </g>
        <g id="Group_3389" data-name="Group 3389" transform="translate(254.099 120.195)">
          <path id="Path_12984" data-name="Path 12984" d="M254.42,66.348l-32.778-.006-.021,113.912,32.778.006,32.778.006L287.2,66.354Z" transform="translate(-221.621 -66.342)" fill="#fbfbfb"/>
        </g>
        <g id="Group_3390" data-name="Group 3390" transform="translate(273.994 186.975)">
          <path id="Path_12985" data-name="Path 12985" d="M231.978,142.679a73.15,73.15,0,0,0,12.876,41.577,73.512,73.512,0,0,0,.015-83.149A73.15,73.15,0,0,0,231.978,142.679Z" transform="translate(-231.978 -101.106)" fill="#272b30"/>
        </g>
        <g id="Group_3391" data-name="Group 3391" transform="translate(273.617 137.869)">
          <path id="Path_12986" data-name="Path 12986" d="M258.333,88.819a13.276,13.276,0,1,1-13.274-13.277A13.278,13.278,0,0,1,258.333,88.819Z" transform="translate(-231.782 -75.542)" fill="#45576c"/>
        </g>
        <g id="Group_3393" data-name="Group 3393" transform="translate(264.443 128.694)">
          <g id="Group_3392" data-name="Group 3392">
            <path id="Path_12987" data-name="Path 12987" d="M249.45,115.666A22.45,22.45,0,1,1,271.906,93.22,22.474,22.474,0,0,1,249.45,115.666Zm.008-39.629a17.179,17.179,0,1,0,17.177,17.181A17.2,17.2,0,0,0,249.458,76.037Z" transform="translate(-227.006 -70.766)" fill="#c74131"/>
          </g>
        </g>
        <g id="Group_3394" data-name="Group 3394" transform="translate(254.12 42.276)" opacity="0.4">
          <path id="Path_12988" data-name="Path 12988" d="M221.632,101.053l32.779.006.013-75.281A105.55,105.55,0,0,0,221.632,101.053Z" transform="translate(-221.632 -25.778)" fill="#272b30"/>
        </g>
        <g id="Group_3395" data-name="Group 3395" transform="translate(254.109 120.198)" opacity="0.4">
          <rect id="Rectangle_175" data-name="Rectangle 175" width="32.778" height="113.912" transform="translate(0 0)" fill="#272b30"/>
        </g>
        <g id="Group_3396" data-name="Group 3396" transform="translate(208.87 188.073)" opacity="0.4">
          <rect id="Rectangle_176" data-name="Rectangle 176" width="10.801" height="52.613" fill="#272b30"/>
        </g>
        <g id="Group_3397" data-name="Group 3397" transform="translate(208.876 176.881)" opacity="0.4">
          <path id="Path_12989" data-name="Path 12989" d="M208.882,95.851a10.8,10.8,0,0,0-10.8,10.8l10.8,0,0-10.8Z" transform="translate(-198.079 -95.851)" fill="#272b30"/>
        </g>
        <g id="Group_3398" data-name="Group 3398" transform="translate(354.203 188.1)" opacity="0.4">
          <rect id="Rectangle_177" data-name="Rectangle 177" width="10.801" height="52.613" fill="#272b30"/>
        </g>
        <g id="Group_3399" data-name="Group 3399" transform="translate(354.208 176.906)" opacity="0.4">
          <path id="Path_12990" data-name="Path 12990" d="M273.738,95.864a10.8,10.8,0,0,1,10.8,10.8l-10.8,0,0-10.8Z" transform="translate(-273.736 -95.864)" fill="#272b30"/>
        </g>
      </g>
    </g>
  </g>
</svg>
