<svg xmlns="http://www.w3.org/2000/svg" width="550.242" height="375.462" viewBox="0 0 550.242 375.462">
  <g id="Text" transform="translate(-156.209 181.146)">
    <g id="Group_3402" data-name="Group 3402" transform="translate(165.209 -181.146)">
      <path id="Path_12991" data-name="Path 12991" d="M296.946-118.043l-.171,2.728-.342,3.918-.339,2.557-1.022,5.111-.342,3.918-.339,2.557-.513,2.725-.681,2.557-1.706,3.579L290.3-86.008l-4.6,7.669-1.535,2.215-1.706,2.215-1.7,1.874-2.725,2.9-1.877,1.706-2.212,1.7L271.9-64.2l-3.067,2.045-2.218,1.367-2.554,1.361L261.672-58.4l-3.409,1.364-2.554.681-5.453,1.7-2.9.854-2.728.681-2.9.684-2.9.51-2.9.171h-9.2l-5.795-.342-5.621-.681-2.386-.513-2.554-.68-9.2-3.067-2.725-.854-2.9-1.19-5.453-2.386-2.557-1.364L185-64.366l-2.215-1.706-2.215-1.874-2.045-2.215-1.874-2.215-4.6-4.6-1.7-2.045-1.706-2.215-1.361-2.215-1.364-3.409-2.557-7.669L162.331-98.1l-.51-2.557-.513-2.725-.513-2.557-.51-3.747-.171-2.557-.171-2.9v-2.9l.171-2.9.171-3.067.342-2.9.51-2.9.684-2.9.851-2.9.851-2.557,1.022-2.725,1.193-3.918,1.193-2.728.68-1.532,1.364-2.557,2.383-3.747,1.706-2.386.851-1.364,2.045-2.045,2.9-2.383,2.215-1.706,2.215-1.532,5.111-3.409,2.215-1.364L193-172.911l2.386-1.193,3.576-1.532,2.386-.851,2.557-.851,2.554-.683,6.475-1.193,2.557-.51,8.52-1.022,5.453-.342,5.111.342,4.089.171,2.9.339,2.9.513,2.9.681,2.9.513,2.725.681,2.557.681,2.557.851,3.577,1.364,2.386,1.022,5.624,3.238,2.215,1.535,2.212,1.7,2.9,2.728,1.874,1.7,1.874,1.874,1.535,2.045,2.383,3.238,1.364,2.215,1.193,2.215,1.364,2.215,1.874,3.409,1.364,2.215,1.19,2.554.854,2.386.851,3.918,1.022,5.111.342,2.9.51,2.9Zm-35.783,2.9v-2.9l-.171-2.9-.171-2.725-1.022-5.111-.681-2.386-1.877-3.75-1.361-2.212-2.386-3.07-1.7-1.874-2.557-2.725-1.874-1.535-4.431-2.554-2.386-1.025-2.725-.851-2.728-.51-5.453-.342-2.554.171-3.75.171-2.554.51-4.431,1.193-2.725,1.022L209.7-146.5l-2.383,1.535-2.728,2.386-1.874,2.042-1.874,2.56-1.364,2.212-.513,1.022-1.532,3.579-.851,2.554-.513,1.193-.51,2.386-.342,2.386-.171,2.386-.171,2.554v2.557l.171,2.725.513,2.728.168,1.532.683,2.557.342,1.193.851,2.383.681,1.364,1.364,2.386.851,1.361,1.874,2.386,1.022,1.193,2.048,2.045,3.406,2.9,2.386,1.532,2.725,1.364,2.557,1.022,3.576,1.193,2.557.51,4.26.51,2.9.174,4.257-.342,2.728-.342,3.747-.851,2.386-1.022,3.747-2.386,2.048-1.535,2.725-2.725,1.7-1.874,2.215-2.725,1.535-2.386,1.7-3.75,1.022-2.554.851-3.918.342-2.557Z" transform="translate(-159.945 181.26)" fill="#fff"/>
      <path id="Path_12992" data-name="Path 12992" d="M346.56-118.043l-.171,2.728-.339,3.918-.342,2.557-1.022,5.111-.342,3.918L344-97.253l-.51,2.725-.68,2.557-1.706,3.579-1.193,2.383-4.6,7.669-1.532,2.215-1.706,2.215-1.7,1.874-2.725,2.9-1.874,1.706-2.218,1.7L321.512-64.2l-3.067,2.045-2.215,1.367-2.554,1.361L311.289-58.4l-3.409,1.364-2.557.681-5.45,1.7-2.9.854-2.725.681-2.9.684-2.9.51-2.9.171h-9.2l-5.792-.342-5.624-.681-2.386-.513L260-53.972l-9.2-3.067-2.725-.854-2.9-1.19-5.45-2.386-2.557-1.364-2.557-1.532-2.215-1.706-2.215-1.874-2.045-2.215-1.874-2.215-4.6-4.6-1.706-2.045-1.7-2.215-1.364-2.215-1.364-3.409-2.554-7.669L211.948-98.1l-.513-2.557-.51-2.725-.513-2.557-.51-3.747-.171-2.557-.171-2.9v-2.9l.171-2.9.171-3.067.342-2.9.51-2.9.681-2.9.854-2.9.851-2.557,1.022-2.725,1.193-3.918,1.193-2.728.68-1.532,1.364-2.557,2.383-3.747,1.7-2.386.854-1.364,2.045-2.045,2.9-2.383,2.215-1.706,2.215-1.532,5.111-3.409,2.215-1.364,2.386-1.364,2.386-1.193,3.577-1.532,2.386-.851,2.557-.851,2.554-.683,6.476-1.193,2.554-.51,8.523-1.022,5.45-.342,5.114.342,4.089.171,2.9.339,2.9.513,2.9.681,2.9.513,2.725.681,2.557.681,2.554.851,3.579,1.364,2.386,1.022L319.3-170.7l2.212,1.535,2.215,1.7,2.9,2.728,1.874,1.7,1.874,1.874,1.535,2.045,2.383,3.238,1.361,2.215,1.2,2.215,1.361,2.215,1.877,3.409,1.361,2.215,1.193,2.554.851,2.386.851,3.918,1.022,5.111.342,2.9.51,2.9Zm-35.78,2.9v-2.9l-.174-2.9-.171-2.725-1.019-5.111-.684-2.386-1.874-3.75-1.364-2.212-2.383-3.07-1.7-1.874-2.56-2.725-1.874-1.535-4.428-2.554-2.386-1.025-2.725-.851-2.728-.51-5.453-.342-2.554.171-3.75.171-2.554.51-4.431,1.193-2.728,1.022-3.918,2.045-2.386,1.535-2.725,2.386-1.874,2.042-1.874,2.56-1.364,2.212-.513,1.022-1.535,3.579-.851,2.554-.51,1.193-.513,2.386-.339,2.386-.171,2.386-.171,2.554v2.557l.171,2.725.51,2.728.171,1.532.684,2.557.339,1.193.854,2.383.681,1.364,1.364,2.386.851,1.361,1.874,2.386,1.022,1.193,2.045,2.045,3.409,2.9,2.383,1.532,2.728,1.364,2.557,1.022,3.577,1.193,2.557.51,4.26.51,2.9.174,4.26-.342,2.725-.342,3.75-.851,2.386-1.022,3.747-2.386,2.045-1.535,2.725-2.725,1.706-1.874,2.215-2.725,1.535-2.386,1.7-3.75,1.022-2.554.851-3.918.339-2.557Z" transform="translate(-60.816 181.26)" fill="#fff"/>
      <path id="Path_12993" data-name="Path 12993" d="M370.619-136.33l.171,2.554-.171,2.557-.168,2.9-.854,4.26-.51,2.728-1.367,3.409-1.019,2.383-1.706,3.238-1.532,2.215-2.383,3.238-1.877,2.045-2.215,2.045-2.216,1.877-2.215,1.532-2.383,1.535-3.75,1.7-2.557,1.193-2.893,1.193-2.557.851-3.75,1.022-2.554.51L329.554-91l-2.725.171-4.434.339H308.083l-2.9-.168-2.9.168-2.9.342-2.042.342-.513,1.193-.171,2.215-.681,11.416v2.725l.168,5.114-.168,2.554-.171,3.75-.342,1.874-.51,1.022-.851.342-1.874.339-5.456.342-6.643-.342h-2.728l-5.453.342-2.725-.171-3.921-.171-2.212-.681-1.022-1.022-.342-2.045-.339-2.557-.171-2.725V-84.529l.681-9.033v-2.725l-.681-9.03v-2.728l-.342-20.787v-2.728l.68-9.2v-2.725l-.513-9.033v-2.725l.684-9.033v-2.554l-.339-5.114.168-2.554.171-1.364.342-1.874.51-1.022.851-.851,1.874-.171,4.944-.342,3.918.171h2.557l11.419-.171h11.413l11.419.681h11.245l6.475-.339,2.386.171h1.361l2.554.51,3.921,1.025,2.725.851,2.728,1.022,2.557,1.193,2.554,1.532,2.215,1.706,3.067,2.725,2.045,1.7.854,1.022,3.064,3.067,1.706,2.215.851,1.022,1.193,2.045.681,1.022,1.025,2.215.852,2.557.677,2.386.174,1.193.681,2.383.342,1.364.681,2.383,1.022,4.773Zm-35.27,3.067v-4.26l-.513-2.557-.51-1.361-1.025-2.215-.681-1.022-1.877-2.045-1.361-.854-2.554-1.361-4.434-1.193-2.725-.342h-3.915l-5.117.342-7.5-.513h-2.554l-1.361.171-1.874.342-.684.51-.513,1.193-.339,2.045v3.918l.51,6.308.174,2.725.168,9.884.171,2.045.513,1.193,1.874.681,8.859.684,11.587-.684,3.07-.342,2.893-.68,1.364-.513,2.386-1.361,1.022-.684,1.706-1.7.681-1.022,1.193-2.215.51-1.193.683-2.725Z" transform="translate(41.72 183.19)" fill="#fff"/>
      <path id="Path_12994" data-name="Path 12994" d="M409.438-93.221l-.168,2.9-.345,2.9-.507,2.725-.854,3.747-.851,2.386-1.535,3.409-1.19,2.215-2.047,3.067-1.7,2.045-2.044,2.045-2.045,1.874L392.74-61.7l-2.215,1.535L387.967-58.8l-2.383,1.19-3.918,1.364-5.111,1.7-2.728.513-4.26.681-2.557.342-3.747.342-2.386.171-3.918.171-8.178.51h-3.75l-2.386-.171-3.918-.339-2.554-.342-2.9-.513-2.554-.851-3.747-1.193-2.386-1.193-2.557-1.193-2.386-1.19-2.215-1.364-5.45-3.75-2.048-1.7L306.862-68l-2.048-1.7-1.874-1.874-1.364-1.535-.171-1.193.851-1.535.684-.851,1.7-1.874L309.416-83l1.535-1.874,2.9-4.431,1.532-1.874,1.706-1.874,1.874-1.022,1.874.342,1.877,1.361,5.45,3.75,2.557,1.361,2.386,1.193,3.918,1.877,2.557.851,2.725.851,2.725.513,3.921.168,2.725.171,10.735-.681,2.725-.342L366.5-83l2.557-1.022,2.216-1.361,1.7-1.706.851-1.19,1.022-2.557-.168-2.9-.345-1.364-1.361-2.386-.851-1.022-2.215-1.7-1.364-.513-2.557-1.022-2.9-.681-2.9-.513-16.189-1.532-5.111-1.022-2.725-.684-3.75-1.361-2.557-.851-2.554-1.193-5.795-2.9-2.212-1.532-2.557-1.535-2.215-1.532-2.9-2.386-1.529-2.215-1.535-2.557-1.022-2.554-1.193-3.579-.51-2.557-.513-3.747-.339-5.453.168-2.725.342-4.089.51-2.557.684-2.215.851-2.554,1.7-3.75,1.193-2.386,1.364-2.045,1.7-1.874,2.728-2.554,2.215-1.706,2.212-1.532,2.386-1.193,3.238-1.874,5.111-2.045,2.557-.854,3.918-.681,2.725-.513,5.114-.681,3.75-.681,2.725-.342,2.554-.171h2.725l5.114.513,2.554.339,1.193.342,2.728.342,5.792,1.022,2.9.681,2.725.851,2.9.851,2.725,1.025,2.557,1.19,2.554,1.025,3.238,1.874,2.386,1.19,2.219,1.535,1.529,1.532v1.706l-1.019,1.874-1.874,3.409-1.367,2.045-6.472,8.52-1.877,2.386-2.042,1.7-1.364.513-1.193-.171-1.7-.851-2.557-1.535-2.554-1.022-1.2-.51-2.554-.851-1.361-.342-2.9-.683-3.918-.851-2.728-.171-4.431-.339h-4.428l-2.9.168-2.9.513-2.725.851-1.025.513-2.042,1.532-.854,1.022-1.19,2.386-.342,2.725.513,2.215,1.361,2.218,1.877,1.7,2.042,1.022,1.193.51,2.557.513,4.26.51,5.792.342,2.9.513,5.792,1.361,5.453,1.706,3.918.851,2.557.681,4.773,1.706,3.406,1.532,2.386,1.193,2.386,1.364L394.443-121l4.943,4.092,1.874,2.042,1.7,2.045,2.048,3.07,1.361,2.215,1.193,2.554.684,2.557.677,3.747.345,2.557Z" transform="translate(122.678 181.146)" fill="#fff"/>
    </g>
    <g id="Group_3404" data-name="Group 3404" transform="translate(172.209 -32.99)">
      <g id="Group_3403" data-name="Group 3403">
        <path id="Path_12995" data-name="Path 12995" d="M181.259-117.294l-.027.474-.057.477-.084.447-.138.615-.141.393-.252.558-.195.363-.336.5-.279.336-.336.336-.336.306-.558.363-.366.252-.417.225-.393.195-.642.225-.839.279-.447.084-.7.111-.42.057-.615.054-.393.03-.642.03-1.343.081h-.615l-.39-.027-.645-.054-.42-.06-.474-.081-.42-.141-.615-.195-.39-.2-.423-.195-.39-.195-.363-.225-.893-.615-.336-.279-.5-.39-.336-.282-.309-.306-.222-.252-.027-.2.138-.249.111-.141.282-.306.779-.729.252-.306.477-.728.252-.306.279-.309.309-.168.306.057.309.222.893.618.42.222.39.195.645.309.42.138.447.141.447.084.645.027.447.03,1.76-.114.447-.054.225-.057.42-.168.363-.225.279-.279.141-.195.168-.42-.03-.474-.054-.225-.225-.39-.138-.168-.363-.282-.225-.081-.42-.171-.474-.111-.477-.084-2.656-.249-.836-.171-.45-.111-.615-.222-.417-.141-.423-.195-.947-.477-.363-.249-.423-.252-.363-.252-.474-.393-.252-.363-.252-.42-.168-.42-.195-.585-.084-.423-.084-.615-.057-.893.03-.447.054-.672.084-.42.114-.363.138-.42.279-.615.2-.39.222-.336.282-.309.447-.42.363-.279.363-.252.393-.195.531-.309.839-.333.417-.141.645-.111.447-.084.836-.114.615-.111.45-.057.417-.027h.45l.839.084.417.057.2.054.447.057.95.168.474.111.45.141.474.138.447.168.42.2.42.165.531.309.393.195.363.252.252.252v.279l-.168.309-.309.558-.225.336-1.061,1.4-.306.393-.336.279-.225.084-.195-.027-.279-.141-.42-.252-.42-.165-.195-.087-.42-.138-.222-.057-.477-.111-.645-.141-.447-.027-.725-.057h-.728l-.474.03-.477.084-.447.138-.168.084-.336.252-.138.168-.195.39-.057.45.084.363.225.363.306.279.336.168.195.084.42.084.7.084.95.057.477.084.947.222.9.282.642.138.42.114.782.279.561.252.39.195.393.225.363.222.809.672.309.336.279.333.336.5.225.366.195.42.111.417.111.615.057.42Z" transform="translate(-163.542 131.744)" fill="#fff"/>
        <path id="Path_12996" data-name="Path 12996" d="M192.265-121.365l-.03.447-.054.642-.057.42-.168.839-.057.642-.054.42-.084.447-.114.42-.279.588-.195.393-.755,1.256-.252.363-.279.366-.279.306-.447.474-.309.282-.363.279-.336.252-.5.336-.363.225-.42.222-.39.168-.561.225-.417.111-.9.279-.474.141-.447.111-.477.114-.477.081-.474.03H180.75l-.953-.057-.92-.114-.393-.081-.417-.111-1.511-.5-.447-.141-.474-.195-.9-.393-.42-.222-.417-.252-.366-.282-.363-.306-.336-.363-.306-.363-.755-.755-.279-.336-.279-.363-.225-.366-.225-.558-.42-1.259-.168-.585-.081-.42-.084-.45-.087-.417L169.85-120l-.03-.42-.027-.477v-.474l.027-.477.03-.5.054-.477.084-.474.114-.477.138-.474.141-.42.165-.447.2-.645.195-.447.111-.252.225-.42.39-.615.282-.39.141-.225.333-.336.477-.393.363-.279.363-.249.839-.561.363-.225.393-.222.39-.195.588-.252.393-.141.417-.138.42-.114,1.061-.195.423-.084,1.394-.168.9-.057.836.057.672.027.477.057.474.084.477.111.474.084.447.111.42.114.42.138.588.225.39.168.923.531.363.252.366.279.474.447.306.282.309.306.252.336.393.531.222.363.195.366.225.363.309.558.222.363.195.42.141.393.138.642.171.839.054.477.084.474Zm-5.87.474v-.474l-.027-.477-.03-.447-.168-.836-.111-.393-.309-.615-.222-.363-.393-.5-.279-.309-.42-.447-.306-.252-.729-.42-.39-.165-.447-.141-.45-.084-.893-.057-.42.03-.615.027-.42.084-.725.195-.45.168-.642.336-.39.252-.447.39-.309.336-.309.42-.222.363-.084.168-.252.588-.141.42-.081.195-.084.393-.057.39-.03.393-.027.42v.417l.027.447.087.45.027.252.111.417.057.2.141.39.111.225.222.39.141.225.306.39.168.2.336.336.561.474.39.252.45.222.417.171.588.195.42.084.7.084.474.027.7-.057.447-.054.615-.141.39-.168.618-.393.333-.249.447-.447.282-.309.363-.447.252-.393.279-.615.168-.417.138-.645.057-.42Z" transform="translate(-151.053 131.762)" fill="#fff"/>
        <path id="Path_12997" data-name="Path 12997" d="M200.7-113.859l.027.45.114.866.027.42-.027.222-.03.309-.141.225-.165.138-.309.057-.42.027h-.447l-1.118-.084-.477-.027h-.7l-.5-.03-1.031-.138-.2-.057-.111-.138-.027-.282-.027-.39-.03-.42.057-.95v-2.629l-.084-1.76v-.447l.111-1.733v-2.179l-.054-.336-.168-.111H194.8l-.195.252-.279.39-1.172,1.343-1.706,2.039-1.118,1.4-.252.225-.195.084h-.225l-.309-.057-.333-.084-.309-.222-1.4-1.679-1.034-1.37-.279-.333-1.454-1.622-.363-.363-.168.054-.057.309-.084,1.76v.447l.111,1.763v.447l.057,1.76v.45l-.027,1.733v.417l.027.839-.027.447-.03.477-.054.363-.111.168-.2.057-.726.081-.447.03-1.091-.084-.447.027-1.343.111h-.642l-.336-.054-.168-.168-.057-.195-.054-.282v-.642l.054-.866v-4.3l-.054-1.481v-.447l.027-1.481-.027-.447-.084-1.511v-.447l.084-1.481.027-.447-.111-1.481.027-.45.111-1.481v-.447l-.111-1.034v-.447l.057-.366.111-.192.168-.141.225-.057.363-.027.477.054.615.141h.447l.866-.084.474-.057.42-.027,1.064.027h.363l.306.141.279.309.98,1.088.279.366.809,1.145.282.363.92,1.088.282.393.866,1.091.279.306.249.141h.282l.252-.141.252-.279.836-1.118.282-.393.893-1.088.279-.363.977-1.091.282-.363.726-.893.225-.309.222-.222.282-.141.363.027,1.481.084,1.313.03h.447l.839-.057.474.027.336.057.195.054.171.141.054.222-.027.336-.114,1.259-.027.447.054,1.481v.45l-.027,1.481v.447l.027,1.481v.447l.114,1.511v.447l-.114,1.481v.447l.087,1.481v.447l-.114,1.481v.447Z" transform="translate(-134.203 132.024)" fill="#fff"/>
        <path id="Path_12998" data-name="Path 12998" d="M203.376-113.922l-.03.447-.111,1.508-.027.282-.114.195-.138.111-3.66.111h-.45l-1.481-.111-.447.03-1.454.111-.447.027H193.09l-1.454-.111h-.447l-2.4.138-.95-.054-.336-.057-.195-.138-.084-.2-.057-.306-.054-.645-.027-.447.027-.42v-.42l.111-1.481v-.447l.027-1.481-.027-.447-.084-1.484-.027-.444.054-1.511v-2.374l.111-1.484-.027-.447-.084-1.481-.027-.447v-.672l.057-.836v-.42l.081-1.454.03-.393.084-.222.138-.114.225-.027.363-.054,1.817.111,1.706-.03h.447l1.679.114h.447l1.676-.114h.447l3.8.057.474-.027.95-.084h.7l.39.084.171.141.054.192.057.366v.755l-.057.7v.474l.027.7.03.42-.03.42-.054.336-.114.195-.138.111-.336.057h-.225l-.447.03-2.626-.057h-.447l-1.427.057h-.447l-1.454-.057-1.256-.084h-.42l-.225.027-.279.057-.141.138-.027.171-.057.306-.054.672v.447l.027.474.027.309.057.195.111.141.309.081.893.06.893-.06H197.7l3.13-.165.869.054.306.057.168.141.084.165.027.309.057.477.027.474v.923l.057.642-.057.839-.054.336-.114.195-.195.141-.279.054h-.561l-1.256-.141-.45-.027-2.233.141-1.79-.057h-.447l-1.118-.084-.477.027-.333.03-.141.084-.084.195-.027.42-.084.7-.027.447v.618l.027.279.084.195.111.111.306.03,1.541.054h.444l1.511-.111,1.985.111h.447l1.985-.111h.42l.42.027,1,.111.168.084.111.168.03.309Z" transform="translate(-116.512 132.006)" fill="#fff"/>
        <path id="Path_12999" data-name="Path 12999" d="M210.717-129.3l-.027.42.027.839-.027.447-.027.225-.057.333-.084.2-.168.138-.333.057h-.45l-.839-.084-.447-.027-1.286.084h-.447l-.7-.057h-.42l-.195.027-.279.087-.114.165-.027.363-.111,1.652v.447l.111,1.676-.027.447-.111,1.679-.027.447.054,1.649v2.572l-.054,1.646.027.423.138,1.256.027.447-.081.336-.141.141-.363.054-.531-.027-.7-.084-.474-.027-1.259.084h-.447l-1.256-.084-.336-.027-.168-.084-.057-.309v-.474l.084-1.175.03-.45v-2.1l.027-1.676v-.447l.027-1.649v-.447l-.111-1.679-.027-.447v-2.123l-.057-1.652v-.39l-.084-.225-.279-.054h-.42l-.893.054h-.5l-.755-.054-.474-.03-.477.03-.645.027h-.417l-.225-.027-.306-.057-.168-.111-.114-.168-.054-.279v-.195l-.03-.45.057-.839v-.417l-.084-1.064.027-.447.084-.363.114-.195.168-.084.279-.057h.642l1.034.084h.447l1.622-.111H198l1.652.141h.444l2.069-.141,1.622.027h.447l2.1-.027H208.4l.92-.057.477.027.225.03.333.054.195.114.141.195.057.336v.195l.027.42Z" transform="translate(-104.414 132.042)" fill="#fff"/>
        <path id="Path_13000" data-name="Path 13000" d="M218.582-113.9l.027.45.057.7.027.42-.027.39-.141.363-.195.2-.309.027-.447.054-1.508-.081h-.45l-1.481.111h-.447l-.39-.084-.168-.225-.057-.39-.111-1.817-.03-.45.057-1.817v-.444l-.057-1.79v-.393l-.111-.222-.306-.114h-.671l-1.118.084-.447.03-2.236-.057-1.508-.084-.363.027-.252.084-.141.252-.03.393.03,1.79v.444l-.057,1.817.027.45.114,1.2v.642l-.114.39-.252.225-.363.084-.417.027-.42-.027-1.175-.111-.447-.027-1.313.081-.447-.027h-.225l-.309-.054-.222-.114-.111-.138-.057-.309-.027-.252v-.447l.054-.839v-2.347l.057-1.481v-.447l.027-1.484v-.444l-.084-1.484v-.447l-.027-1.481v-1.928l.027-.447.084-1.481.027-.45-.027-1.481-.027-.447-.141-.95v-.588l.114-.336.252-.195.363-.084.42-.027h.417l1.175.054h.447l1.118-.084h.447l.42.03.363.054.225.225.111.363.03.195v.423L205.751-129l-.027.447-.027,1.817v2.293l.027.333.084.225.141.111.279.027.393.03h.39l1.061-.168.423-.027,1.787.054,1.649.111h.42l.195-.027.309-.165.111-.225.027-.309.114-1.817v-.447l-.057-1.817V-129l-.027-1.817.084-.447.222-.252.336-.057h.447l1.508.084h.45l1.256-.084.45.027h.249l.366.057.222.225.114.39v.42l-.084,1.118-.03.447.084,1.481v.45l-.054,1.481v.447l.111,1.481v.447l-.111,1.481v.447l-.057,1.484v.444l.027,1.484v.447l-.027,1.481Z" transform="translate(-90.827 132.042)" fill="#fff"/>
        <path id="Path_13001" data-name="Path 13001" d="M213.327-115.759v.45l-.111,1.508v.447l-.027,1.538v.309l-.084.165-.225.057-.39.027-1.427-.027h-1.733l-1.4-.111-.168-.057-.084-.084v-.279l-.057-.7v-.447l-.027-.42v-.42l-.084-1.508.027-.45.084-1.508.027-.447-.081-1.538v-.447l-.03-1.511v-2.4l-.027-1.538v-.447l.027-1.511v-2.4l-.054-1.535.084-.309.168-.111.279-.03h.222l.42-.027.672.027h.447l1.286-.054H212.8l.309.054.054.168.03.309.054.728.03.447v2.737l.027,1.511v.447l-.027,1.538v.447l.027,1.508v.447l-.057,1.511v2.431Z" transform="translate(-75.745 132.08)" fill="#fff"/>
        <path id="Path_13002" data-name="Path 13002" d="M229.692-127.086l-.027.447v4.134l.084,1.622v.447l.057,3.69v.474l-.027.225-.03.477-.084,1.34.027,1.622-.027.393-.111.333-.225.309-.279.195-.249.084-.393.027-1.427.057-.447.027-.7.03h-.447l-.363-.084-.336-.141-.336-.252-.252-.363-.42-.809-.249-.363-1.091-1.37-.282-.336-1.088-1.34-.252-.366-.977-1.454-.252-.336-1.091-1.34-.279-.336-1.034-1.37-.252-.225-.195.087-.084.336-.057,1.394v.45l.027,1.4v.447l.03,1.565v.447l-.084,1.565.027.45.168,1.115.027.45-.081.363-.2.195-.195.057-.336.054-.225.03-.474.027-1.286-.027h-.447l-1.145.054h-.447l-.42-.027-.309-.057-.222-.138-.114-.195-.054-.282-.03-.195v-.42l.057-.92.027-.45-.084-1.481v-.447l.057-3.412.027-.444.084-1.484.03-.447v-1.928l-.114-1.481v-.447l.114-1.481-.03-.45-.111-1.508-.027-.447v-.645l.027-.42.054-.417.057-.309.084-.195.168-.084.309-.057.837-.057.839.057h2.1l.336.027.141.114.168.252,1.172,1.256.282.336,1.031,1.343.282.336,1.034,1.367.279.336,1,1.4.252.336,1.064,1.343.279.336,1.007,1.4.222.195.225.027.195-.138v-.309l-.195-1.172-.03-.45.087-1.2v-.447l-.114-1.7v-.447l.114-1.706-.03-.45-.084-1.031v-.7l.084-.366.111-.222.195-.114.339-.054h.249l.477-.027,1.256.081h.45l.95-.054.417.027.645.027.309.057.195.084.168.195.054.393.03.252.027.474-.057.866-.054.45Z" transform="translate(-69.296 132.006)" fill="#fff"/>
        <path id="Path_13003" data-name="Path 13003" d="M237.969-122.475,238-122l-.114,1.817v2.626l-.054,1.175v1.649l-.03.309-.165.279-.225.363-.252.363-.477.477-.333.309-.168.165-.366.252-.195.111-.363.225-.558.279-.42.168-.393.141-.642.195-.42.111-.447.084-.42.087-.645.081-.39.057-.42.084-1.118.141-.42.027-.863-.057-.645-.054-.447-.057-.45-.084-.417-.111-.977-.279-.423-.114-.417-.138-.561-.2-.363-.195-.558-.306-.336-.252-.363-.252-.339-.282-.333-.252-.309-.279-.447-.447-.279-.336-.309-.42-.252-.39-.7-1.256-.195-.45-.195-.42-.141-.447-.141-.474-.081-.45-.084-.474-.057-.447-.111-.615-.057-.45-.027-.417v-.42l.084-1.259.054-.222.084-.477.114-.474.138-.447.141-.477.141-.447.138-.42.195-.447.195-.477.2-.39.363-.5.252-.336.306-.363.309-.336.336-.306.726-.615.366-.282.333-.252.336-.222.923-.531.42-.252.474-.2.477-.138.447-.114,1.034-.165.812-.114.417-.084.42-.054.642-.057.45-.027.615.054.417.03.645.084.393.081.615.114.417.111.614.2.42.138,1.007.5.42.252.363.252.141.084.306.195.309.222.138.141.309.225.168.138.168.2v.195l-.084.195-.168.252-.252.363-.279.309-.782.782-.5.447-.336.279-.306.225-.225.168-.168.111-.225.027-.306-.195-.363-.252-.366-.222-.39-.225-.447-.195-.447-.168-.477-.114-.474-.081-1.316-.084h-.195l-.447.027-.725.057-.45.111-.836.393-.366.252-.363.276-.306.309L225-125.1l-.252.363-.222.393-.168.42-.138.447-.114.42-.168.836-.084.45-.027.474v.477l.054.669.087.45.138.642.141.447.279.672.195.39.336.5.279.336.5.474.363.282.561.306.417.168.839.2.477.054.474.03h.45l.447-.057.42-.084,1.508-.363.447-.168.42-.195.279-.2.084-.165v-.309l.027-.252v-.42l-.054-.836v-.477l-.111-.168-.309-.057H231.9l-.447.027-.642.087-.45.027h-.642l-.447-.027-.95-.168-.168-.057-.111-.138-.057-.339-.027-.222-.03-.447.03-.7-.057-.839-.054-.42v-.585l.081-.309.141-.141.336-.054.7-.084.477-.027h1.283l1.817-.087,2.236.141h.447l1.148-.141.447-.027.222.027.42.087.195.111.057.168.084.39Z" transform="translate(-54.549 131.726)" fill="#fff"/>
        <path id="Path_13004" data-name="Path 13004" d="M260.233-130.99l-1.343,3.522-.168.42-.474,1.565-.168.42-.672,1.565-.141.417-.447,1.568-.168.447-.7,1.454-.168.444-.447,1.595-.141.42-.725,1.538-.141.42-.5,1.565-.141.447-.474,1.565-.114.279-.138.141-.2.027-1.871-.057-2.179-.138-.279-.057-.141-.222-.7-1.37-.141-.393-.5-1.454-.111-.39-.5-1.424-.141-.393-.558-1.424-.168-.393-.5-1.4-.138-.252h-.084l-.114.252-.5,1.424-.141.393-.668,1.34-.141.393-.447,1.481-.141.39-.477,1.427-.168.39-.531,1.4-.138.306-.309.141-1.733-.141H238.8l-1.733.141-.252-.141-.111-.336-.782-1.508-.141-.42-.39-1.592-.141-.42-.7-1.565-.168-.42-.588-1.511-.141-.447-.474-1.592-.141-.42-1.4-3.523-.168-.42-.5-1.565-.195-.447-.7-1.454-.195-.42-.645-1.592-.027-.336.168-.195.309-.084h.417l1.091.084h.447l1.931.027h1.508l.363.027.111.114.057.279.645,1.844.138.42.561,1.79.138.42.728,1.676.138.42.558,1.706.087.447.336,1.76.111.252.168.03.168-.225.474-1.427.141-.39.363-1.481.111-.42.42-1.37.114-.42.474-1.451.111-.393.447-1.454.141-.39.42-1.2.111-.309.141-.141.306-.054,1.4-.111.417-.03.615.03h.423l.417.027.279.111.168.279.084.225.168.39.309.785.138.39.42,1.454.114.393.447,1.451.111.393L249-124.17l.138.39.671,1.37.114.393.084.642.081.45.114.417.168.225.168-.027.138-.309.336-1.622.114-.42.222-.585.141-.423.222-.615.141-.447.279-1.313.141-.447.474-1.256.168-.42.531-1.259.141-.42.279-1.061.111-.336.168-.195.336-.057,1.481.111h.447l1.511-.084h.447l1.481.114h.309l.111.084Z" transform="translate(-32.349 131.968)" fill="#fff"/>
        <path id="Path_13005" data-name="Path 13005" d="M256.586-113.922l-.027.447-.114,1.508-.027.282-.111.195-.141.111-3.66.111h-.447l-1.481-.111-.447.03-1.457.111-.444.027H246.3l-1.451-.111H244.4l-2.4.138-.953-.054-.333-.057-.195-.138-.087-.2-.054-.306-.057-.645-.027-.447.027-.42v-.42l.111-1.481v-.447l.03-1.481-.03-.447-.081-1.484-.03-.444.057-1.511v-2.374l.111-1.484-.027-.447-.084-1.481-.027-.447v-.672l.054-.836v-.42l.084-1.454.03-.393.081-.222.141-.114.222-.027.366-.054,1.817.111,1.706-.03h.444l1.679.114h.447l1.679-.114h.444l3.8.057.474-.027.953-.084h.7l.393.084.168.141.054.192.057.366v.755l-.057.7v.474l.03.7.027.42-.027.42-.057.336-.111.195-.141.111-.336.057h-.222l-.45.03-2.626-.057h-.447l-1.427.057h-.447l-1.451-.057-1.259-.084h-.42l-.222.027-.282.057-.138.138-.03.171-.054.306-.057.672v.447l.027.474.03.309.054.195.114.141.306.081.9.06.893-.06h2.653l3.13-.165.866.054.309.057.171.141.081.165.03.309.054.477.03.474v.923l.057.642-.057.839-.057.336-.114.195-.195.141-.279.054h-.558l-1.259-.141-.447-.027-2.236.141-1.787-.057h-.45l-1.118-.084-.474.027-.336.03-.138.084-.087.195-.027.42-.084.7-.027.447v.618l.027.279.084.195.114.111.306.03,1.538.054h.447l1.508-.111,1.985.111h.45l1.982-.111h.423l.417.027,1.007.111.168.084.111.168.03.309Z" transform="translate(-10.204 132.006)" fill="#fff"/>
        <path id="Path_13006" data-name="Path 13006" d="M265.8-127.086l-.027.447v4.134l.084,1.622v.447l.054,3.69v.474l-.027.225-.027.477-.084,1.34.027,1.622-.027.393-.114.333-.222.309-.282.195-.252.084-.387.027-1.427.057-.447.027-.7.03H261.5l-.366-.084-.336-.141-.336-.252-.252-.363-.42-.809-.252-.363-1.085-1.37-.282-.336-1.088-1.34-.252-.366-.98-1.454-.252-.336-1.088-1.34-.282-.336-1.031-1.37-.252-.225-.2.087-.081.336-.057,1.394v.45l.027,1.4v.447l.03,1.565v.447l-.084,1.565.027.45.168,1.115.027.45-.081.363-.2.195-.195.057-.336.054-.225.03-.474.027-1.286-.027h-.447l-1.145.054h-.447l-.42-.027-.309-.057-.225-.138-.111-.195-.054-.282-.03-.195v-.42l.057-.92.027-.45-.084-1.481v-.447l.057-3.412.027-.444.084-1.484.027-.447v-1.928l-.111-1.481v-.447l.111-1.481-.027-.45-.111-1.508-.027-.447v-.645l.027-.42.057-.417.054-.309.084-.195.168-.084.309-.057.837-.057.839.057h2.1l.336.027.141.114.168.252,1.172,1.256.279.336,1.037,1.343.276.336,1.034,1.367.282.336,1.007,1.4.252.336,1.058,1.343.282.336,1,1.4.225.195.222.027.195-.138v-.309l-.195-1.172-.027-.45.084-1.2v-.447l-.114-1.7v-.447l.114-1.706-.027-.45-.087-1.031v-.7l.087-.366.111-.222.195-.114.336-.054h.252l.477-.027,1.256.081h.447l.95-.054.42.027.642.027.309.057.195.084.168.195.054.393.03.252.03.474-.06.866-.054.45Z" transform="translate(2.844 132.006)" fill="#fff"/>
        <path id="Path_13007" data-name="Path 13007" d="M271.681-129.3l-.03.42.03.839-.03.447-.027.225-.054.333-.087.2-.165.138-.339.057h-.444l-.839-.084-.45-.027-1.283.084h-.45l-.7-.057h-.42l-.195.027-.282.087-.111.165-.027.363-.114,1.652v.447l.114,1.676-.03.447-.111,1.679-.03.447.057,1.649v2.572l-.057,1.646.03.423.141,1.256.027.447-.084.336-.138.141-.363.054-.534-.027-.7-.084-.477-.027-1.256.084h-.447l-1.259-.084-.333-.027-.171-.084-.057-.309v-.474l.087-1.175.027-.45v-2.1l.027-1.676v-.447l.03-1.649v-.447l-.114-1.679-.027-.447v-2.123l-.054-1.652v-.39l-.087-.225-.279-.054h-.417l-.9.054h-.5l-.755-.054-.474-.03-.474.03-.645.027h-.42l-.222-.027-.309-.057-.168-.111-.111-.168-.057-.279v-.195l-.027-.45.057-.839v-.417l-.084-1.064.027-.447.084-.363.111-.195.168-.084.279-.057h.645l1.034.084h.447l1.619-.111h.45l1.646.141h.45l2.069-.141,1.619.027h.45l2.1-.027h2.069l.923-.057.474.027.222.03.339.054.195.114.138.195.06.336v.195l.024.42Z" transform="translate(17.385 132.042)" fill="#fff"/>
        <path id="Path_13008" data-name="Path 13008" d="M295.293-130.99l-1.34,3.522-.168.42-.477,1.565-.168.42-.669,1.565-.141.417-.45,1.568-.165.447-.7,1.454-.165.444-.45,1.595-.138.42-.728,1.538-.138.42-.5,1.565-.141.447-.474,1.565-.111.279-.141.141-.195.027-1.874-.057-2.179-.138-.279-.057-.138-.222-.7-1.37-.141-.393-.5-1.454-.111-.39-.5-1.424-.138-.393-.558-1.424-.171-.393-.5-1.4-.141-.252h-.084l-.111.252-.5,1.424-.141.393-.668,1.34-.138.393-.45,1.481-.141.39-.474,1.427-.171.39-.528,1.4-.141.306-.309.141-1.733-.141h-.444l-1.733.141-.252-.141-.111-.336-.785-1.508-.138-.42-.393-1.592-.141-.42-.7-1.565-.171-.42-.585-1.511-.141-.447-.474-1.592-.141-.42-1.4-3.523-.171-.42-.5-1.565-.195-.447-.7-1.454-.2-.42-.642-1.592-.027-.336.165-.195.309-.084h.42l1.091.084h.447l1.928.027h1.511l.363.027.111.114.054.279.645,1.844.141.42.561,1.79.135.42.732,1.676.135.42.561,1.706.084.447.336,1.76.114.252.165.03.168-.225.474-1.427.141-.39.363-1.481.111-.42.423-1.37.111-.42.474-1.451.111-.393.45-1.454.141-.39.417-1.2.111-.309.141-.141.309-.054,1.4-.111.42-.03.615.03h.42l.42.027.276.111.171.279.081.225.171.39.309.785.138.39.42,1.454.111.393.45,1.451.111.393.333,1.481.141.39.672,1.37.111.393.084.642.084.45.111.417.168.225.168-.027.141-.309.336-1.622.111-.42.222-.585.141-.423.222-.615.141-.447.282-1.313.138-.447.477-1.256.168-.42.531-1.259.138-.42.279-1.061.114-.336.168-.195.333-.057,1.481.111h.45l1.511-.084h.444l1.481.114h.309l.114.084Z" transform="translate(37.703 131.968)" fill="#fff"/>
        <path id="Path_13009" data-name="Path 13009" d="M294.055-111.387l-.363.111h-1.961L290.2-111.3h-.447l-1.259.054h-.363l-.252-.111-.225-.222-.893-1.259-.252-.336-.893-1.2-.252-.336L284.578-116l-.252-.333-.893-1.2-.2-.225-.165-.084-.339-.027-.89-.057-.366.03-.225.165-.081.366-.057,1.538.027.447.111,1.562.03.45.027.672v.447l-.027.447-.057.336-.138.141-.309.081h-.447l-1.343-.081-1.283.081h-.45l-1.283-.081-.339-.057-.165-.114-.057-.279-.03-.39-.027-.42.057-.728.03-.444.111-1.511v-.447l-.084-1.511-.027-.447-.03-1.481v-.447l.084-1.511v-.447l-.084-1.508v-.447l.084-1.511v-.447l.057-1.481v-.447l-.03-1.511v-.447l-.054-.923.027-.417.027-.171.084-.363.168-.222.336-.084.225-.027.417-.03,1.259.057,3.328.111,1.9-.111h.45l1.844.111h1.064l.474.027.417.087.591.165.417.141.42.168.447.168.42.195.363.225.534.363.306.252.279.279.282.336.39.558.252.366.336.531.195.39.195.42.141.45.084.444.027.45.057.615v.447l-.027.447-.057.474-.084.477-.111.447-.168.42-.195.42-.252.42-.252.363-.252.336-.252.306-.45.447-.306.252-.561.309-.333.195-.363.2-.363.084-.225.081.111.225,1.007,1.427.252.336,1,1.367.279.336,1.007,1.4.279.336.866,1.007.252.306.141.309ZM286.2-122.261l.363-.138.336-.2.279-.336.195-.417.111-.45.03-.447-.03-.474-.054-.477-.111-.42-.2-.42-.252-.336-.306-.249-.39-.168-.618-.141-.447-.057-1.4-.027h-.447l-1.424.084-.339.03-.195.084-.168.165-.027.309.027.645.057.447.054.474.03.474-.057,1.538.027.309.057.168.195.084.339.057,1.451.111h.447l1.847-.111Z" transform="translate(59.846 131.986)" fill="#fff"/>
        <path id="Path_13010" data-name="Path 13010" d="M304.442-121.365l-.027.447-.057.642-.057.42-.168.839-.054.642-.057.42-.084.447-.111.42-.279.588-.195.393-.755,1.256-.252.363-.279.366-.282.306-.447.474-.309.282-.363.279-.333.252-.5.336-.363.225-.42.222-.393.168-.558.225-.42.111-.9.279-.474.141-.447.111-.477.114-.474.081-.477.03h-1.508l-.95-.057-.923-.114-.39-.081-.423-.111-1.505-.5-.45-.141-.474-.195-.9-.393-.42-.222-.417-.252-.363-.282-.363-.306-.339-.363-.306-.363-.756-.755-.279-.336-.282-.363-.222-.366-.222-.558-.423-1.259-.165-.585-.087-.42-.081-.45-.084-.417-.084-.615-.03-.42-.027-.477v-.474l.027-.477.03-.5.057-.477.081-.474.111-.477.141-.474.141-.42.168-.447.195-.645.2-.447.111-.252.222-.42.393-.615.279-.39.138-.225.339-.336.474-.393.363-.279.363-.249.839-.561.363-.225.393-.222.39-.195.588-.252.39-.141.423-.138.42-.114,1.061-.195.42-.084,1.4-.168.893-.057.839.057.669.027.477.057.477.084.474.111.474.084.45.111.417.114.42.138.588.225.393.168.923.531.363.252.363.279.474.447.309.282.306.306.252.336.393.531.222.363.2.366.222.363.306.558.228.363.195.42.138.393.141.642.165.839.057.477.084.474Zm-5.87.474v-.474l-.027-.477-.03-.447-.165-.836-.114-.393-.306-.615-.225-.363-.39-.5-.282-.309-.42-.447-.306-.252-.725-.42-.393-.165-.45-.141-.444-.084-.9-.057-.417.03-.618.027-.417.084-.729.195-.447.168-.645.336-.39.252-.447.39-.306.336-.309.42-.225.363-.084.168-.252.588-.138.42-.087.195-.081.393-.057.39-.027.393-.027.42v.417l.027.447.084.45.027.252.114.417.054.2.138.39.114.225.225.39.138.225.309.39.168.2.333.336.56.474.39.252.45.222.417.171.591.195.417.084.7.084.477.027.7-.057.45-.054.615-.141.393-.168.615-.393.333-.249.45-.447.279-.309.363-.447.252-.393.279-.615.168-.417.141-.645.054-.42Z" transform="translate(73.064 131.762)" fill="#fff"/>
        <path id="Path_13011" data-name="Path 13011" d="M309.384-127.086l-.027.447v4.134l.084,1.622v.447l.054,3.69v.474l-.027.225-.027.477-.084,1.34.027,1.622-.027.393-.114.333-.222.309-.279.195-.252.084-.39.027-1.427.057-.447.027-.7.03h-.444l-.366-.084-.336-.141-.336-.252-.252-.363-.42-.809-.252-.363-1.088-1.37-.282-.336-1.088-1.34-.252-.366-.977-1.454-.252-.336-1.088-1.34-.282-.336-1.034-1.37-.252-.225-.195.087-.081.336-.057,1.394v.45l.027,1.4v.447l.03,1.565v.447l-.087,1.565.03.45.168,1.115.024.45-.081.363-.195.195-.2.057-.333.054-.225.03-.477.027-1.283-.027h-.45l-1.142.054h-.45l-.42-.027-.306-.057-.225-.138-.111-.195-.057-.282-.03-.195v-.42l.06-.92.027-.45-.087-1.481v-.447l.06-3.412.027-.444.084-1.484.027-.447v-1.928l-.111-1.481v-.447l.111-1.481-.027-.45-.111-1.508-.03-.447v-.645l.03-.42.054-.417.057-.309.081-.195.171-.084.306-.057.839-.057.836.057h2.1l.339.027.138.114.168.252,1.175,1.256.276.336,1.037,1.343.279.336,1.034,1.367.279.336,1.007,1.4.252.336,1.061,1.343.282.336,1,1.4.225.195.222.027.195-.138v-.309l-.195-1.172-.027-.45.084-1.2v-.447l-.114-1.7v-.447l.114-1.706-.027-.45-.087-1.031v-.7l.087-.366.111-.222.195-.114.336-.054h.252l.477-.027,1.256.081h.447l.95-.054.42.027.642.027.309.057.195.084.168.195.054.393.03.252.03.474-.06.866-.054.45Z" transform="translate(89.914 132.006)" fill="#fff"/>
        <path id="Path_13012" data-name="Path 13012" d="M317.658-122.475l.027.474-.111,1.817v2.626l-.057,1.175v1.649l-.027.309-.168.279-.222.363-.252.363-.477.477-.336.309-.168.165-.363.252-.195.111-.363.225-.561.279-.417.168-.393.141-.645.195-.42.111-.447.084-.42.087-.642.081-.393.057-.417.084-1.118.141-.42.027-.866-.057-.645-.054-.447-.057-.447-.084-.417-.111-.98-.279-.42-.114-.42-.138-.558-.2-.363-.195-.561-.306-.336-.252-.363-.252-.336-.282-.336-.252-.306-.279-.45-.447-.279-.336-.306-.42-.252-.39-.7-1.256-.192-.45-.195-.42-.141-.447-.141-.474-.084-.45-.084-.474-.054-.447-.114-.615-.054-.45-.03-.417v-.42l.084-1.259.057-.222.081-.477.114-.474.138-.447.141-.477.141-.447.141-.42.192-.447.2-.477.195-.39.363-.5.252-.336.309-.363.306-.336.339-.306.726-.615.363-.282.336-.252.336-.222.92-.531.42-.252.477-.2.474-.138.45-.114,1.031-.165.812-.114.42-.084.417-.054.645-.057.45-.027.615.054.417.03.641.084.393.081.614.114.42.111.615.2.417.138,1.007.5.42.252.363.252.141.084.309.195.306.222.141.141.306.225.168.138.171.2v.195l-.087.195-.165.252-.252.363-.282.309-.782.782-.5.447-.336.279-.306.225-.225.168-.165.111-.228.027-.306-.195-.363-.252-.363-.222-.39-.225-.45-.195-.447-.168-.474-.114-.477-.081-1.313-.084h-.195l-.45.027-.725.057-.447.111L306-126.3l-.363.252-.363.276-.306.309-.282.363-.252.363-.222.393-.168.42-.141.447-.111.42-.171.836-.081.45-.03.474v.477l.057.669.084.45.141.642.138.447.282.672.195.39.333.5.282.336.5.474.363.282.56.306.417.168.839.2.474.054.477.03h.45l.444-.057.42-.084,1.511-.363.447-.168.42-.195.276-.2.087-.165v-.309l.027-.252v-.42l-.054-.836v-.477l-.114-.168-.309-.057h-.669l-.45.027-.641.087-.447.027h-.642l-.447-.027-.953-.168-.165-.057-.114-.138-.054-.339-.03-.222-.027-.447.027-.7-.054-.839-.057-.42v-.585l.084-.309.138-.141.339-.054.7-.084.477-.027h1.286l1.814-.087,2.236.141h.45l1.145-.141.447-.027.225.027.42.087.195.111.057.168.081.39Z" transform="translate(104.661 131.726)" fill="#fff"/>
        <path id="Path_13013" data-name="Path 13013" d="M327.9-113.9l.03.45.057.7.027.42-.027.39-.141.363-.195.2-.309.027-.447.054-1.508-.081h-.45l-1.481.111h-.447l-.39-.084-.168-.225-.057-.39-.114-1.817-.024-.45.054-1.817v-.444l-.054-1.79v-.393l-.111-.222-.309-.114h-.675l-1.115.084-.447.03-2.236-.057-1.511-.084-.363.027-.252.084-.138.252-.03.393.03,1.79v.444l-.057,1.817.027.45.111,1.2v.642l-.111.39-.252.225-.363.084-.42.027-.417-.027-1.175-.111-.447-.027-1.316.081-.444-.027h-.225l-.309-.054-.222-.114-.111-.138-.057-.309-.027-.252v-.447l.054-.839v-2.347l.057-1.481v-.447l.027-1.484v-.444l-.084-1.484v-.447l-.027-1.481v-1.928l.027-.447.084-1.481.027-.45-.027-1.481-.027-.447-.141-.95v-.588l.114-.336.252-.195.363-.084.42-.027h.417l1.175.054h.447l1.118-.084h.447l.42.03.363.054.225.225.111.363.03.195v.423L315.074-129l-.027.447-.027,1.817v2.293l.027.333.084.225.141.111.276.027.393.03h.393l1.064-.168.417-.027,1.79.054,1.649.111h.417l.2-.027.306-.165.111-.225.03-.309.111-1.817v-.447l-.054-1.817V-129l-.03-1.817.084-.447.225-.252.336-.057h.447l1.508.084h.45l1.259-.084.444.027h.252l.363.057.225.225.111.39v.42l-.084,1.118-.027.447.084,1.481v.45l-.057,1.481v.447l.111,1.481v.447l-.111,1.481v.447l-.057,1.484v.444l.03,1.484v.447l-.03,1.481Z" transform="translate(127.588 132.042)" fill="#fff"/>
        <path id="Path_13014" data-name="Path 13014" d="M333.1-113.922l-.03.447-.111,1.508-.03.282-.111.195-.141.111-3.657.111h-.45l-1.481-.111-.447.03-1.454.111-.447.027h-1.931l-1.451-.111h-.447l-2.4.138-.947-.054-.339-.057-.195-.138-.084-.2-.054-.306-.06-.645-.024-.447.024-.42v-.42l.114-1.481v-.447l.027-1.481-.027-.447-.084-1.484-.03-.444.06-1.511v-2.374l.111-1.484-.03-.447-.081-1.481-.03-.447v-.672l.057-.836v-.42l.084-1.454.027-.393.084-.222.141-.114.222-.027.363-.054,1.82.111,1.7-.03h.45l1.676.114h.447l1.676-.114h.45l3.8.057.477-.027.95-.084h.7l.39.084.171.141.054.192.057.366v.755l-.057.7v.474l.027.7.03.42-.03.42-.057.336-.111.195-.141.111-.333.057h-.225l-.447.03-2.629-.057h-.444l-1.427.057h-.447l-1.454-.057-1.256-.084h-.42l-.225.027-.279.057-.141.138-.027.171-.057.306-.057.672v.447l.03.474.027.309.057.195.114.141.306.081.893.06.9-.06h2.656l3.127-.165.869.054.306.057.168.141.084.165.027.309.054.477.03.474v.923l.057.642-.057.839-.054.336-.111.195-.2.141-.282.054H330.9l-1.259-.141-.45-.027-2.236.141-1.787-.057h-.447l-1.118-.084-.477.027-.333.03-.141.084-.084.195-.027.42-.087.7-.024.447v.618l.024.279.087.195.111.111.306.03,1.538.054h.447l1.511-.111,1.982.111h.45l1.985-.111h.42l.417.027,1.007.111.168.084.114.168.027.309Z" transform="translate(142.67 132.006)" fill="#fff"/>
        <path id="Path_13015" data-name="Path 13015" d="M342.029-111.387l-.363.111h-1.958l-1.538-.027h-.444l-1.259.054h-.363l-.252-.111-.225-.222-.893-1.259-.252-.336-.893-1.2-.252-.336L332.553-116l-.252-.333-.893-1.2-.195-.225-.168-.084-.336-.027-.893-.057-.363.03-.225.165-.081.366-.057,1.538.027.447.111,1.562.03.45.024.672v.447l-.024.447-.057.336-.141.141-.306.081h-.45l-1.34-.081-1.286.081h-.447l-1.286-.081-.336-.057-.168-.114-.054-.279-.03-.39-.027-.42.057-.728.027-.444.111-1.511v-.447l-.084-1.511-.027-.447-.027-1.481v-.447l.084-1.511v-.447l-.084-1.508v-.447l.084-1.511v-.447l.054-1.481v-.447l-.027-1.511v-.447l-.057-.923.03-.417.027-.171.084-.363.168-.222.336-.084.222-.027.42-.03,1.259.057,3.325.111,1.9-.111h.447l1.847.111h1.061l.474.027.42.087.588.165.42.141.42.168.447.168.42.195.363.225.531.363.309.252.279.279.279.336.39.558.252.366.339.531.192.39.2.42.138.45.087.444.027.45.054.615v.447l-.027.447-.054.474-.087.477-.111.447-.165.42-.2.42-.252.42-.252.363-.252.336-.252.306-.447.447-.309.252-.558.309-.336.195-.363.2-.363.084-.225.081.111.225,1.007,1.427.252.336,1.007,1.367.279.336,1.007,1.4.279.336.866,1.007.252.306.138.309Zm-7.854-10.873.363-.138.339-.2.276-.336.2-.417.111-.45.03-.447-.03-.474-.057-.477-.111-.42-.195-.42-.252-.336-.309-.249-.39-.168-.618-.141-.444-.057-1.4-.027h-.444l-1.427.084-.336.03-.2.084-.165.165-.027.309.027.645.054.447.057.474.03.474-.057,1.538.027.309.054.168.2.084.336.057,1.454.111h.447l1.844-.111Z" transform="translate(155.699 131.986)" fill="#fff"/>
        <path id="Path_13016" data-name="Path 13016" d="M346.71-113.922l-.03.447-.111,1.508-.03.282-.111.195-.141.111-3.66.111h-.447l-1.481-.111-.45.03-1.451.111-.447.027h-1.931l-1.451-.111h-.45l-2.4.138-.947-.054-.336-.057-.2-.138-.081-.2-.057-.306-.057-.645-.027-.447.027-.42v-.42l.114-1.481v-.447l.027-1.481-.027-.447-.084-1.484-.03-.444.057-1.511v-2.374l.114-1.484-.03-.447-.084-1.481-.027-.447v-.672l.054-.836v-.42l.087-1.454.024-.393.087-.222.138-.114.225-.027.363-.054,1.817.111,1.706-.03h.447l1.679.114h.444l1.679-.114h.447l3.8.057.477-.027.947-.084h.7l.387.084.171.141.057.192.054.366v.755l-.054.7v.474l.024.7.03.42-.03.42-.054.336-.111.195-.141.111-.333.057h-.228l-.444.03-2.629-.057h-.444l-1.427.057h-.447l-1.457-.057-1.256-.084h-.417l-.228.027-.276.057-.141.138-.027.171-.06.306-.054.672v.447l.03.474.024.309.06.195.111.141.309.081.89.06.9-.06h2.656l3.13-.165.866.054.309.057.165.141.087.165.024.309.057.477.03.474v.923l.054.642-.054.839-.057.336-.111.195-.195.141-.282.054H344.5l-1.259-.141-.447-.027-2.236.141-1.79-.057h-.444l-1.118-.084-.477.027-.336.03-.141.084-.081.195-.03.42-.084.7-.027.447v.618l.027.279.084.195.111.111.309.03,1.538.054h.447l1.511-.111,1.982.111h.447l1.988-.111h.417l.42.027,1.007.111.165.084.117.168.024.309Z" transform="translate(169.848 132.006)" fill="#fff"/>
      </g>
    </g>
    <g id="Group_3405" data-name="Group 3405" transform="translate(156.209 2.727)">
      <path id="Path_13017" data-name="Path 13017" d="M324.161,22.869v6.448l-1.031,3.352-2.063,1.8-3.352.773-7.738.516-1.8.773L305.6,38.6,304.049,41.7l-.258,3.609.773,8.25.258,4.125-.258,3.87-.773,3.609-2.32,2.578-3.609,1.031h-5.933l-14.954-1.031h-6.448l-4.125-.258-5.93-.516-3.609-.516L254.8,64.9l-1.034-3.352-.258-3.87V53.556l.516-10.055-.258-3.87-1.8-3.094-2.32-1.289-3.352-.258-17.019,1.031h-4.125l-38.679-.773-3.867.258-9.8.773h-3.867l-3.87-.258-3.094-1.031-1.544-2.32-.519-3.094-2.578-14.7-.516-4.125L155.779-4.463l.258-2.836,1.031-1.289,1.808-2.063,8.508-11.089,2.578-3.094L179.5-35.4l2.839-2.839,9.8-10.055,2.836-2.839,9.542-10.313,2.578-3.094,8.766-11.089,2.839-2.836,9.8-10.055,2.836-3.094,4.125-4.9,2.581-3.352,2.32-2.836,2.836-2.581,9.8-10.055,2.063-2.063,1.289-1.031,2.578-.258,17.535.516,13.922-.773h3.87l3.867.258,2.836.516,1.8.773.773,1.547.258,3.352.773,16.246v4.125l-.516,16.246v4.128l.258,16.246v4.122l-.258,16.246v4.125l-.773,16.246.258,3.355L305.6-8.588l3.355,2.32,7.219.516h1.547l3.094.773,1.8,1.8.773,3.352.258,2.323.258,4.125-.516,5.93.258,4.125ZM231.332-5.752h4.125L246.03-6.01l3.609-.516,2.32-1.547,1.547-2.836.258-3.612L254.8-28.185V-45.977l-.519-3.094-1.547-1.289-1.8.258-2.32,2.063-9.024,9.024-2.836,3.1-8,10.055-2.836,3.094L216.894-14l-1.808,2.32v2.32l2.063,2.32,3.355.773Z" transform="translate(-155.779 121.53)" fill="#fff"/>
      <path id="Path_13018" data-name="Path 13018" d="M388.667-38.072l.255,4.128-.255,8.766V-9.963l-.258,5.672-.258,3.867-.258,5.672-.776,3.87-1.031,5.93-2.578,8.25-1.8,3.87-2.578,5.156-2.32,3.609L374.223,39.8l-2.575,3.612-2.839,3.609-3.094,3.094L361.59,54.5l-3.094,2.32L353.337,59.4l-3.352,1.8-5.156,2.323-3.612,1.547-5.411,2.063L332.2,68.425l-5.675,1.289-3.867.773L318.268,71l-4.38.258-6.191.516-4.125-.258-6.7-.516-4.125-.516-13.925-2.32-3.87-.773-5.414-1.547L265.667,64.3l-5.672-2.578L256.127,59.4l-3.61-2.32-3.355-2.32-4.9-3.609-2.836-2.578-3.867-4.383-2.32-2.839-3.613-4.9-1.8-3.352-2.836-4.9L225.7,24.587l-1.8-5.93-.773-3.609-1.289-5.672-.516-3.867-.773-4.386L220.027-3l-.258-6.7-.258-3.87.258-9.8V-33.943l.516-8.253.773-4.125,1.031-6.706,1.031-4.125,1.031-5.672,1.031-3.867,1.547-5.414,1.289-3.87,1.547-3.867,1.8-3.867,3.1-5.675L237.046-93l4.125-4.641,3.352-2.836,3.609-2.836,3.352-2.323,5.159-2.836,3.352-1.8,9.024-3.867,6.964-2.578,3.867-1.289,3.867-1.031,4.125-.516,6.706-.258h4.125l13.152.516,4.125.258,6.188,1.031,4.125.516,10.058,2.32,4.383,1.289,4.125,1.547,3.87,1.547,3.61,1.8,5.93,3.352,3.352,2.323,2.836,2.836,2.836,3.352,4.128,5.156,2.317,3.612,3.609,5.672,1.808,3.609,1.547,3.867,1.547,3.609,1.8,5.93,1.289,3.87,1.031,4.383.773,4.125.776,5.672.516,3.87ZM278.818,15.564l2.578,3.352,2.836,3.1,3.352,2.063,1.55,1.028,4.125,1.292,4.641.773,4.386.258h4.638l6.448-.516,4.122-1.031,3.867-1.547,3.612-2.32,1.289-1.292,2.836-3.352,2.32-4.125,1.8-3.867L335.805.607l.773-4.125.255-6.188.773-12.378v-4.125l.258-7.735-.258-3.87L337.091-44l-1.028-4.125-1.292-4.386-1.547-3.867-2.836-5.672-2.06-3.352-3.1-3.094-3.352-2.581-3.612-1.8-1.8-.516L312.6-74.688l-3.867-.258-1.808-.258H302.8l-4.383.773-1.8.258-3.867,1.289-3.867,2.063-4.644,3.094L281.4-64.888,278.56-61.02l-2.32,3.867-1.55,4.641-1.028,4.386-.516,4.383-.261,5.93v3.87l-.258,7.735v4.125l-.255,8.253v4.125l.513,6.445L273.4.865l1.031,4.383,1.289,3.612.516,1.8,1.8,3.352Z" transform="translate(-28.45 119.812)" fill="#fff"/>
      <path id="Path_13019" data-name="Path 13019" d="M451.537,22.869v6.448l-1.028,3.352-2.066,1.8-3.352.773-7.734.516-1.808.773L432.972,38.6,431.425,41.7l-.258,3.609.773,8.25.258,4.125-.258,3.87-.773,3.609-2.32,2.578-3.609,1.031H419.3l-14.953-1.031h-6.445l-4.128-.258-5.93-.516-3.612-.516-2.06-1.547-1.031-3.352-.261-3.87V53.556L381.4,43.5l-.258-3.87-1.808-3.094-2.32-1.289-3.352-.258-17.019,1.031H352.52l-38.679-.773-3.867.258-9.8.773h-3.867l-3.867-.258-3.094-1.031-1.55-2.32-.516-3.094-2.578-14.7-.516-4.125L283.155-4.463l.258-2.836,1.031-1.289,1.8-2.063,8.508-11.089,2.581-3.094L306.877-35.4l2.839-2.839,9.8-10.055,2.836-2.839,9.542-10.313,2.575-3.094,8.769-11.089,2.839-2.836,9.8-10.055,2.836-3.094,4.125-4.9,2.581-3.352,2.317-2.836,2.836-2.581,9.8-10.055,2.066-2.063,1.286-1.031,2.581-.258,17.532.516,13.928-.773h3.867l3.867.258,2.836.516,1.8.773.773,1.547.258,3.352.773,16.246v4.125l-.516,16.246v4.128l.258,16.246v4.122l-.258,16.246v4.125l-.773,16.246.258,3.355,2.063,2.836,3.352,2.32,7.219.516h1.55l3.094.773,1.8,1.8.773,3.352.258,2.323.258,4.125-.516,5.93.258,4.125ZM358.708-5.752h4.125l10.574-.258,3.609-.516,2.32-1.547,1.547-2.836.261-3.612,1.031-13.664V-45.977l-.516-3.094-1.55-1.289-1.8.258-2.323,2.063-9.027,9.024-2.836,3.1L356.13-25.865l-2.836,3.094L344.267-14l-1.8,2.32v2.32l2.063,2.32,3.352.773Z" transform="translate(98.704 121.53)" fill="#fff"/>
    </g>
  </g>
</svg>
