<svg xmlns="http://www.w3.org/2000/svg" xmlns:xlink="http://www.w3.org/1999/xlink" width="674.374" height="503.215" viewBox="0 0 674.374 503.215">
  <defs>
    <radialGradient id="radial-gradient" cx="0.31" cy="0.213" r="1.14" gradientTransform="translate(0.211) scale(0.577 1)" gradientUnits="objectBoundingBox">
      <stop offset="0" stop-color="#e63e2c"/>
      <stop offset="0.062" stop-color="#e63e2c"/>
      <stop offset="1" stop-color="#e63e2c"/>
    </radialGradient>
    <linearGradient id="linear-gradient" y1="0.5" x2="1" y2="0.5" gradientUnits="objectBoundingBox">
      <stop offset="0" stop-color="#f9d1cc"/>
      <stop offset="0.03" stop-color="#f8cdc7"/>
      <stop offset="0.299" stop-color="#f4aea6"/>
      <stop offset="0.557" stop-color="#f2988f"/>
      <stop offset="0.797" stop-color="#f08b80"/>
      <stop offset="1" stop-color="#f0877c"/>
    </linearGradient>
    <radialGradient id="radial-gradient-2" cx="0.95" cy="0.777" r="1.053" gradientTransform="translate(-0.052) scale(1.104 1)" gradientUnits="objectBoundingBox">
      <stop offset="0" stop-color="#0e2634"/>
      <stop offset="0.003" stop-color="#0e2633"/>
      <stop offset="0.211" stop-color="#4f2d31"/>
      <stop offset="0.41" stop-color="#85332f"/>
      <stop offset="0.593" stop-color="#af372e"/>
      <stop offset="0.758" stop-color="#cd3b2c"/>
      <stop offset="0.9" stop-color="#df3d2c"/>
      <stop offset="1" stop-color="#e63e2c"/>
    </radialGradient>
    <linearGradient id="linear-gradient-2" y1="0.5" x2="1" y2="0.5" gradientUnits="objectBoundingBox">
      <stop offset="0" stop-color="#f9d1cc"/>
      <stop offset="0.331" stop-color="#f9d5d0"/>
      <stop offset="0.721" stop-color="#fbe2df"/>
      <stop offset="1" stop-color="#fdf0ee"/>
    </linearGradient>
    <radialGradient id="radial-gradient-4" cx="0.95" cy="0.777" r="1.053" xlink:href="#radial-gradient-2"/>
    <clipPath id="clip-path">
      <path id="Path_6167" data-name="Path 6167" d="M601.005,779.316,466.414,701.589c-6.006-3.466-5.252-9.523,1.681-13.527L729.335,537.275c6.935-4,17.424-4.438,23.43-.97l134.59,77.728c6.006,3.466,5.253,9.523-1.681,13.527L624.433,778.345C617.5,782.349,607.01,782.785,601.005,779.316Z" transform="translate(-462.359 -533.963)" opacity="0.5" fill="url(#radial-gradient)" style="mix-blend-mode: lighten;isolation: isolate"/>
    </clipPath>
    <radialGradient id="radial-gradient-7" cx="0.95" cy="0.777" r="1.053" gradientTransform="translate(-0.052) scale(1.104 1)" gradientUnits="objectBoundingBox">
      <stop offset="0" stop-color="#e63e2c"/>
      <stop offset="1" stop-color="#e63e2c"/>
    </radialGradient>
    <radialGradient id="radial-gradient-10" cx="0.95" cy="0.777" r="1.053" xlink:href="#radial-gradient-7"/>
    <linearGradient id="linear-gradient-20" x1="0.643" y1="0.828" x2="0.357" y2="0.172" gradientTransform="matrix(1, 0, 0, 1, 0, 0)" xlink:href="#radial-gradient"/>
    <radialGradient id="radial-gradient-12" cx="0.107" cy="0.891" r="3.051" xlink:href="#radial-gradient"/>
    <linearGradient id="linear-gradient-21" x1="0.006" y1="-0.579" x2="0.621" y2="0.775" gradientUnits="objectBoundingBox">
      <stop offset="0.01" stop-color="#e95141"/>
      <stop offset="0.429" stop-color="#4f616b"/>
      <stop offset="0.904" stop-color="#293e4a"/>
    </linearGradient>
    <linearGradient id="linear-gradient-22" x1="0.008" y1="-0.582" x2="0.621" y2="0.776" xlink:href="#linear-gradient-21"/>
    <linearGradient id="linear-gradient-23" x1="0.011" y1="-0.585" x2="0.621" y2="0.777" xlink:href="#linear-gradient-21"/>
    <linearGradient id="linear-gradient-24" x1="0.013" y1="-0.588" x2="0.62" y2="0.778" xlink:href="#linear-gradient-21"/>
    <linearGradient id="linear-gradient-25" x1="0.016" y1="-0.591" x2="0.62" y2="0.779" xlink:href="#linear-gradient-21"/>
    <linearGradient id="linear-gradient-26" x1="0.018" y1="-0.594" x2="0.62" y2="0.78" xlink:href="#linear-gradient-21"/>
    <linearGradient id="linear-gradient-27" x1="0.021" y1="-0.597" x2="0.62" y2="0.781" xlink:href="#linear-gradient-21"/>
    <linearGradient id="linear-gradient-28" x1="0.023" y1="-0.601" x2="0.62" y2="0.782" xlink:href="#linear-gradient-21"/>
    <linearGradient id="linear-gradient-29" x1="0.026" y1="-0.604" x2="0.62" y2="0.784" xlink:href="#linear-gradient-21"/>
    <linearGradient id="linear-gradient-30" x1="0.029" y1="-0.608" x2="0.62" y2="0.785" xlink:href="#linear-gradient-21"/>
    <linearGradient id="linear-gradient-31" x1="0.032" y1="-0.612" x2="0.62" y2="0.786" xlink:href="#linear-gradient-21"/>
    <linearGradient id="linear-gradient-32" x1="0.035" y1="-0.616" x2="0.62" y2="0.787" xlink:href="#linear-gradient-21"/>
    <linearGradient id="linear-gradient-33" x1="1.076" y1="1.126" x2="-0.093" y2="-0.145" gradientUnits="objectBoundingBox">
      <stop offset="0.035" stop-color="#ec6c5f"/>
      <stop offset="0.268" stop-color="#ed7a6e"/>
      <stop offset="0.718" stop-color="#f29f96"/>
      <stop offset="1" stop-color="#f6bab3"/>
    </linearGradient>
    <radialGradient id="radial-gradient-13" cx="0.451" cy="0.419" r="1.394" gradientTransform="translate(0.159) scale(0.681 1)" gradientUnits="objectBoundingBox">
      <stop offset="0" stop-color="#e63e2c"/>
      <stop offset="0.106" stop-color="#e03c2a"/>
      <stop offset="0.237" stop-color="#d13828"/>
      <stop offset="0.383" stop-color="#b73123"/>
      <stop offset="0.538" stop-color="#94271c"/>
      <stop offset="0.702" stop-color="#661b13"/>
      <stop offset="0.87" stop-color="#2f0c09"/>
      <stop offset="1"/>
    </radialGradient>
    <linearGradient id="linear-gradient-34" x1="4.44" y1="2.856" x2="-4.692" y2="-2.605" gradientUnits="objectBoundingBox">
      <stop offset="0.03" stop-color="#54656f"/>
      <stop offset="0.271" stop-color="#77777e"/>
      <stop offset="0.802" stop-color="#d2a7a4"/>
      <stop offset="1" stop-color="#f6bab3"/>
    </linearGradient>
    <linearGradient id="linear-gradient-35" x1="3.318" y1="2.185" x2="-5.814" y2="-3.276" xlink:href="#linear-gradient-34"/>
    <linearGradient id="linear-gradient-36" x1="2.206" y1="1.52" x2="-6.926" y2="-3.941" xlink:href="#linear-gradient-34"/>
    <linearGradient id="linear-gradient-37" x1="6.227" y1="4.599" x2="-18.844" y2="-13.047" xlink:href="#linear-gradient-34"/>
    <linearGradient id="linear-gradient-38" x1="5.163" y1="3.85" x2="-19.909" y2="-13.797" xlink:href="#linear-gradient-34"/>
    <linearGradient id="linear-gradient-39" x1="4.107" y1="3.107" x2="-20.965" y2="-14.54" xlink:href="#linear-gradient-34"/>
    <linearGradient id="linear-gradient-40" x1="0.935" y1="1.111" x2="-1.188" y2="-1.87" gradientUnits="objectBoundingBox">
      <stop offset="0.035" stop-color="#f7bfb9"/>
      <stop offset="0.414" stop-color="#f8cdc8"/>
      <stop offset="1" stop-color="#fceae8"/>
    </linearGradient>
    <linearGradient id="linear-gradient-41" x1="9.154" y1="3.642" x2="-4.141" y2="-1.185" xlink:href="#linear-gradient-40"/>
    <linearGradient id="linear-gradient-42" x1="7.055" y1="3.234" x2="-4.28" y2="-1.488" xlink:href="#linear-gradient-40"/>
    <linearGradient id="linear-gradient-43" x1="8.257" y1="2.501" x2="-12.159" y2="-2.766" xlink:href="#linear-gradient-40"/>
    <linearGradient id="linear-gradient-44" x1="4.693" y1="2.043" x2="-8.442" y2="-2.791" xlink:href="#linear-gradient-40"/>
    <linearGradient id="linear-gradient-45" x1="1.558" y1="0.882" x2="-10.595" y2="-3.199" xlink:href="#linear-gradient-40"/>
    <linearGradient id="linear-gradient-46" x1="3.116" y1="5.228" x2="-0.306" y2="-0.956" xlink:href="#linear-gradient-34"/>
  </defs>
  <g id="Case_Studies_Mobile_and_Web_App_Developement" data-name="Case Studies Mobile and Web App Developement" transform="translate(-536.22 -162.525)">
    <g id="Group_1151" data-name="Group 1151" transform="translate(536.22 162.525)">
      <g id="Group_1149" data-name="Group 1149" transform="translate(110.744)">
        <path id="Path_6088" data-name="Path 6088" d="M667.731,588.967l-82.178-47.445,111.094-64.141,82.178,47.446Z" transform="translate(-243.181 -369.172)" fill="#e63e2c" opacity="0.1"/>
        <path id="Path_6089" data-name="Path 6089" d="M532.646,643.732c-22.45,0-44.9-4.932-61.99-14.8-16.615-9.594-25.765-22.365-25.765-35.965S454.04,566.6,470.654,557c34.18-19.736,89.794-19.735,123.981,0,16.614,9.6,25.765,22.367,25.765,35.967s-9.15,26.369-25.763,35.961C577.545,638.8,555.1,643.732,532.646,643.732Zm0-100.936c-22.341,0-44.681,4.91-61.687,14.729-16.421,9.48-25.463,22.067-25.465,35.441s9.044,25.963,25.465,35.445c34.018,19.639,89.366,19.639,123.379,0l.151.26-.151-.26c16.421-9.48,25.463-22.067,25.463-35.441s-9.044-25.963-25.465-35.445C577.325,547.706,554.983,542.8,532.642,542.8Z" transform="translate(-346.556 -321.535)" fill="#e63e2c"/>
        <rect id="Rectangle_80" data-name="Rectangle 80" width="167.801" height="0.603" transform="translate(239.722 252.329) rotate(-28.135)" fill="#e63e2c"/>
        <g id="Group_1130" data-name="Group 1130" transform="translate(99.232 57.774)">
          <g id="Group_1123" data-name="Group 1123" transform="translate(0 118.31)">
            <path id="Path_6090" data-name="Path 6090" d="M481.557,564.382c19.164-11.064,50.233-11.064,69.4,0a37.57,37.57,0,0,1,7.8,5.867c10.85-10.835,8.255-24.927-7.8-34.2-19.164-11.064-50.233-11.064-69.4,0-16.055,9.27-18.65,23.362-7.8,34.2A37.5,37.5,0,0,1,481.557,564.382Z" transform="translate(-429.4 -508.237)" fill="#ee7c70"/>
            <path id="Path_6091" data-name="Path 6091" d="M606.247,552.385a68.263,68.263,0,0,0-12.568-9.172,103.87,103.87,0,0,0-25.658-10.245c17.868,11.331,17.325,28.883-1.638,39.832-19.526,11.273-51.185,11.273-70.714,0-18.314-10.573-19.45-27.308-3.413-38.647a100.71,100.71,0,0,0-21.411,9.061,68.219,68.219,0,0,0-12.569,9.172h-12.87v26.288h0c0,12.833,8.482,25.665,25.441,35.457,33.919,19.584,88.913,19.584,122.832,0,16.959-9.79,25.438-22.623,25.438-35.457V552.385Z" transform="translate(-445.408 -504.404)" fill="url(#linear-gradient)"/>
            <path id="Path_6092" data-name="Path 6092" d="M556.887,543.213a103.871,103.871,0,0,0-25.658-10.245c17.868,11.331,17.325,28.883-1.638,39.832-9.448,5.454-21.739,8.262-34.121,8.437v47.58c22.23,0,44.457-4.9,61.418-14.688s25.437-22.623,25.437-35.457V552.385H569.455A68.266,68.266,0,0,0,556.887,543.213Z" transform="translate(-408.616 -504.404)" fill="#e63e2c" opacity="0.3"/>
            <path id="Path_6093" data-name="Path 6093" d="M556.887,543.213a103.871,103.871,0,0,0-25.658-10.245c17.868,11.331,17.325,28.883-1.638,39.832-9.448,5.454-21.739,8.262-34.121,8.437v47.58c22.23,0,44.457-4.9,61.418-14.688s25.437-22.623,25.437-35.457V552.385H569.455A68.266,68.266,0,0,0,556.887,543.213Z" transform="translate(-408.616 -504.404)" opacity="0.5" fill="url(#radial-gradient-2)" style="mix-blend-mode: lighten;isolation: isolate"/>
            <path id="Path_6094" data-name="Path 6094" d="M593.679,531.192c-33.919-19.584-88.913-19.584-122.832,0s-33.918,51.333,0,70.917,88.913,19.584,122.832,0S627.6,550.776,593.679,531.192ZM567,587.063c-19.527,11.273-51.187,11.273-70.714,0s-19.528-29.553,0-40.826,51.187-11.274,70.714,0S586.53,575.79,567,587.063Z" transform="translate(-445.408 -516.504)" fill="#ee7c70"/>
            <g id="Group_1122" data-name="Group 1122" transform="translate(0.003 18.572)">
              <path id="Path_6095" data-name="Path 6095" d="M593.68,578.735c-33.919,19.582-88.913,19.582-122.832,0-16.364-9.447-24.83-21.726-25.406-34.105-.618,13.281,7.85,26.676,25.406,36.812,33.919,19.584,88.913,19.584,122.832,0,17.556-10.135,26.022-23.531,25.4-36.812C618.508,557.008,610.042,569.288,593.68,578.735Z" transform="translate(-445.41 -514.407)" fill="#fff"/>
              <path id="Path_6096" data-name="Path 6096" d="M551.652,535.665c-19.526-11.275-51.187-11.275-70.714,0-10.359,5.982-15.22,13.933-14.589,21.766.56-6.931,5.423-13.767,14.589-19.06,19.527-11.274,51.187-11.274,70.714,0,9.167,5.293,14.03,12.13,14.589,19.062C566.874,549.6,562.012,541.646,551.652,535.665Z" transform="translate(-430.061 -527.209)" fill="#fff"/>
            </g>
            <path id="Path_6097" data-name="Path 6097" d="M587.071,530.749c-31.575-18.23-82.77-18.23-114.343,0s-31.574,47.787,0,66.017,82.768,18.23,114.343,0S618.646,548.979,587.071,530.749Zm-23.022,52.723c-18.86,10.888-49.437,10.888-68.3,0s-18.86-28.543,0-39.431,49.435-10.888,68.3,0S582.907,572.583,564.048,583.471Z" transform="translate(-442.734 -516.084)" fill="url(#linear-gradient-2)"/>
          </g>
          <path id="Path_6098" data-name="Path 6098" d="M606.247,538.484a68.186,68.186,0,0,0-12.568-9.174,103.868,103.868,0,0,0-25.658-10.245c17.868,11.331,17.325,28.883-1.638,39.832-19.526,11.274-51.185,11.274-70.714,0-18.314-10.573-19.45-27.308-3.413-38.647a100.707,100.707,0,0,0-21.411,9.061,68.142,68.142,0,0,0-12.569,9.174h-12.87V564.77h0c0,12.833,8.482,25.665,25.441,35.457,33.919,19.584,88.913,19.584,122.832,0,16.959-9.792,25.438-22.625,25.438-35.458V538.484Z" transform="translate(-445.408 -396.312)" fill="#0e2634" opacity="0.4"/>
          <g id="Group_1125" data-name="Group 1125" transform="translate(0 78.873)">
            <path id="Path_6099" data-name="Path 6099" d="M481.557,541.651c19.164-11.064,50.233-11.064,69.4,0a37.57,37.57,0,0,1,7.8,5.868c10.85-10.835,8.255-24.929-7.8-34.2-19.164-11.064-50.233-11.064-69.4,0-16.055,9.27-18.65,23.362-7.8,34.2A37.557,37.557,0,0,1,481.557,541.651Z" transform="translate(-429.4 -485.506)" fill="#ee7c70"/>
            <path id="Path_6100" data-name="Path 6100" d="M606.247,529.654a68.258,68.258,0,0,0-12.568-9.172,103.8,103.8,0,0,0-25.658-10.245c17.868,11.331,17.325,28.883-1.638,39.832-19.526,11.273-51.185,11.272-70.714,0-18.314-10.573-19.45-27.308-3.413-38.647a100.709,100.709,0,0,0-21.411,9.06,68.305,68.305,0,0,0-12.569,9.174h-12.87v26.288h0c0,12.831,8.482,25.665,25.441,35.457,33.919,19.584,88.913,19.584,122.832,0,16.959-9.79,25.438-22.623,25.438-35.457V529.654Z" transform="translate(-445.408 -481.673)" fill="url(#linear-gradient)"/>
            <path id="Path_6101" data-name="Path 6101" d="M556.887,520.482a103.8,103.8,0,0,0-25.658-10.245c17.868,11.331,17.325,28.883-1.638,39.832-9.448,5.455-21.739,8.262-34.121,8.437v47.58c22.23,0,44.457-4.9,61.418-14.688s25.437-22.623,25.437-35.457V529.654H569.455A68.26,68.26,0,0,0,556.887,520.482Z" transform="translate(-408.616 -481.673)" fill="#e63e2c" opacity="0.3"/>
            <path id="Path_6102" data-name="Path 6102" d="M556.887,520.482a103.8,103.8,0,0,0-25.658-10.245c17.868,11.331,17.325,28.883-1.638,39.832-9.448,5.455-21.739,8.262-34.121,8.437v47.58c22.23,0,44.457-4.9,61.418-14.688s25.437-22.623,25.437-35.457V529.654H569.455A68.26,68.26,0,0,0,556.887,520.482Z" transform="translate(-408.616 -481.673)" opacity="0.5" fill="url(#radial-gradient-2)" style="mix-blend-mode: lighten;isolation: isolate"/>
            <path id="Path_6103" data-name="Path 6103" d="M593.679,508.461c-33.919-19.584-88.913-19.584-122.832,0s-33.918,51.333,0,70.917,88.913,19.584,122.832,0S627.6,528.044,593.679,508.461ZM567,564.332c-19.527,11.273-51.187,11.273-70.714,0s-19.528-29.553,0-40.826,51.187-11.274,70.714,0S586.53,553.059,567,564.332Z" transform="translate(-445.408 -493.773)" fill="#ee7c70"/>
            <g id="Group_1124" data-name="Group 1124" transform="translate(0.003 18.572)">
              <path id="Path_6104" data-name="Path 6104" d="M593.68,556c-33.919,19.582-88.913,19.582-122.832,0-16.364-9.447-24.83-21.726-25.406-34.107-.618,13.281,7.85,26.676,25.406,36.813,33.919,19.584,88.913,19.584,122.832,0,17.556-10.135,26.022-23.529,25.4-36.81C618.508,534.278,610.042,546.556,593.68,556Z" transform="translate(-445.41 -491.677)" fill="#fff"/>
              <path id="Path_6105" data-name="Path 6105" d="M551.652,512.934c-19.526-11.275-51.187-11.275-70.714,0-10.359,5.982-15.22,13.933-14.589,21.766.56-6.931,5.423-13.768,14.589-19.06,19.527-11.274,51.187-11.274,70.714,0,9.167,5.293,14.03,12.131,14.589,19.062C566.874,526.867,562.012,518.914,551.652,512.934Z" transform="translate(-430.061 -504.478)" fill="#fff"/>
            </g>
            <path id="Path_6106" data-name="Path 6106" d="M587.071,508.018c-31.575-18.231-82.77-18.231-114.343,0s-31.574,47.787,0,66.015,82.768,18.231,114.343,0S618.646,526.247,587.071,508.018ZM564.048,560.74c-18.86,10.888-49.437,10.888-68.3,0s-18.86-28.543,0-39.431,49.435-10.888,68.3,0S582.907,549.852,564.048,560.74Z" transform="translate(-442.734 -493.353)" fill="url(#linear-gradient-2)"/>
          </g>
          <path id="Path_6107" data-name="Path 6107" d="M606.247,515.751a68.259,68.259,0,0,0-12.568-9.172,103.863,103.863,0,0,0-25.658-10.245c17.868,11.331,17.325,28.883-1.638,39.832-19.526,11.273-51.185,11.273-70.714,0-18.314-10.573-19.45-27.308-3.413-38.647a100.715,100.715,0,0,0-21.411,9.062,68.215,68.215,0,0,0-12.569,9.172h-12.87v26.288h0c0,12.833,8.482,25.665,25.441,35.456,33.919,19.584,88.913,19.584,122.832,0,16.959-9.79,25.438-22.623,25.438-35.456V515.751Z" transform="translate(-445.408 -413.018)" fill="#0e2634" opacity="0.4"/>
          <g id="Group_1127" data-name="Group 1127" transform="translate(0 39.436)">
            <path id="Path_6108" data-name="Path 6108" d="M481.557,518.92c19.164-11.065,50.233-11.063,69.4,0a37.51,37.51,0,0,1,7.8,5.868c10.85-10.835,8.255-24.929-7.8-34.2-19.164-11.064-50.233-11.065-69.4,0-16.055,9.27-18.65,23.362-7.8,34.2A37.495,37.495,0,0,1,481.557,518.92Z" transform="translate(-429.4 -462.775)" fill="#ee7c70"/>
            <path id="Path_6109" data-name="Path 6109" d="M606.247,506.923a68.258,68.258,0,0,0-12.568-9.173,103.8,103.8,0,0,0-25.658-10.245c17.868,11.331,17.325,28.883-1.638,39.83-19.526,11.273-51.185,11.273-70.714,0-18.314-10.573-19.45-27.308-3.413-38.647a100.714,100.714,0,0,0-21.411,9.06,68.3,68.3,0,0,0-12.569,9.174h-12.87v26.287h0c0,12.831,8.482,25.665,25.441,35.456,33.919,19.582,88.913,19.584,122.832,0,16.959-9.79,25.438-22.623,25.438-35.456V506.923Z" transform="translate(-445.408 -458.942)" fill="url(#linear-gradient)"/>
            <path id="Path_6110" data-name="Path 6110" d="M556.887,497.751a103.8,103.8,0,0,0-25.658-10.245c17.868,11.331,17.325,28.883-1.638,39.83-9.448,5.456-21.739,8.263-34.121,8.439v47.58c22.23,0,44.457-4.9,61.418-14.688s25.437-22.623,25.437-35.456V506.923H569.455A68.26,68.26,0,0,0,556.887,497.751Z" transform="translate(-408.616 -458.942)" fill="#e63e2c" opacity="0.3"/>
            <path id="Path_6111" data-name="Path 6111" d="M556.887,497.751a103.8,103.8,0,0,0-25.658-10.245c17.868,11.331,17.325,28.883-1.638,39.83-9.448,5.456-21.739,8.263-34.121,8.439v47.58c22.23,0,44.457-4.9,61.418-14.688s25.437-22.623,25.437-35.456V506.923H569.455A68.26,68.26,0,0,0,556.887,497.751Z" transform="translate(-408.616 -458.942)" opacity="0.5" fill="url(#radial-gradient-4)" style="mix-blend-mode: lighten;isolation: isolate"/>
            <path id="Path_6112" data-name="Path 6112" d="M593.679,485.73c-33.919-19.584-88.913-19.584-122.832,0s-33.918,51.335,0,70.918,88.913,19.584,122.832,0S627.6,505.314,593.679,485.73ZM567,541.6c-19.527,11.273-51.187,11.273-70.714,0s-19.528-29.553,0-40.826,51.187-11.274,70.714,0S586.53,530.328,567,541.6Z" transform="translate(-445.408 -471.042)" fill="#ee7c70"/>
            <g id="Group_1126" data-name="Group 1126" transform="translate(0.003 18.572)">
              <path id="Path_6113" data-name="Path 6113" d="M593.68,533.273c-33.919,19.582-88.913,19.582-122.832,0-16.364-9.448-24.83-21.726-25.406-34.107-.618,13.281,7.85,26.676,25.406,36.813,33.919,19.584,88.913,19.584,122.832,0,17.556-10.135,26.022-23.529,25.4-36.81C618.508,511.547,610.042,523.825,593.68,533.273Z" transform="translate(-445.41 -468.945)" fill="#fff"/>
              <path id="Path_6114" data-name="Path 6114" d="M551.652,490.2c-19.526-11.273-51.187-11.273-70.714,0-10.359,5.98-15.22,13.933-14.589,21.766.56-6.931,5.423-13.768,14.589-19.06,19.527-11.273,51.187-11.273,70.714,0,9.167,5.293,14.03,12.131,14.589,19.061C566.874,504.137,562.012,496.184,551.652,490.2Z" transform="translate(-430.061 -481.746)" fill="#fff"/>
            </g>
            <path id="Path_6115" data-name="Path 6115" d="M587.071,485.287c-31.575-18.231-82.77-18.231-114.343,0s-31.574,47.787,0,66.015,82.768,18.231,114.343,0S618.646,503.516,587.071,485.287Zm-23.022,52.722c-18.86,10.888-49.437,10.888-68.3,0s-18.86-28.543,0-39.431,49.435-10.888,68.3,0S582.907,527.121,564.048,538.009Z" transform="translate(-442.734 -470.621)" fill="url(#linear-gradient-2)"/>
          </g>
          <path id="Path_6116" data-name="Path 6116" d="M606.247,493.02a68.261,68.261,0,0,0-12.568-9.173A103.8,103.8,0,0,0,568.022,473.6c17.868,11.331,17.325,28.883-1.638,39.83-19.526,11.275-51.185,11.273-70.714,0-18.314-10.573-19.45-27.308-3.413-38.647a100.714,100.714,0,0,0-21.411,9.06,68.3,68.3,0,0,0-12.569,9.174h-12.87v26.287h0c0,12.831,8.482,25.665,25.441,35.456,33.919,19.584,88.913,19.584,122.832,0,16.959-9.79,25.438-22.623,25.438-35.456V493.02Z" transform="translate(-445.408 -429.723)" fill="#0e2634" opacity="0.4"/>
          <g id="Group_1129" data-name="Group 1129">
            <path id="Path_6117" data-name="Path 6117" d="M481.557,496.188c19.164-11.064,50.233-11.064,69.4,0a37.512,37.512,0,0,1,7.8,5.867c10.85-10.835,8.255-24.929-7.8-34.2-19.164-11.065-50.233-11.065-69.4,0-16.055,9.271-18.65,23.364-7.8,34.2A37.557,37.557,0,0,1,481.557,496.188Z" transform="translate(-429.4 -440.044)" fill="#ee7c70"/>
            <path id="Path_6118" data-name="Path 6118" d="M606.247,484.192a68.261,68.261,0,0,0-12.568-9.173,103.8,103.8,0,0,0-25.658-10.245c17.868,11.331,17.325,28.883-1.638,39.83-19.526,11.273-51.185,11.273-70.714,0-18.314-10.574-19.45-27.308-3.413-38.647a100.625,100.625,0,0,0-21.411,9.06,68.222,68.222,0,0,0-12.569,9.174h-12.87V510.48h0c0,12.831,8.482,25.665,25.441,35.457,33.919,19.582,88.913,19.584,122.832,0,16.959-9.792,25.438-22.623,25.438-35.457V484.192Z" transform="translate(-445.408 -436.211)" fill="url(#linear-gradient)"/>
            <path id="Path_6119" data-name="Path 6119" d="M606.247,484.192a68.261,68.261,0,0,0-12.568-9.173,103.8,103.8,0,0,0-25.658-10.245c17.868,11.331,17.325,28.883-1.638,39.83-19.526,11.273-51.185,11.273-70.714,0-18.314-10.574-19.45-27.308-3.413-38.647a100.625,100.625,0,0,0-21.411,9.06,68.222,68.222,0,0,0-12.569,9.174h-12.87V510.48h0c0,12.831,8.482,25.665,25.441,35.457,33.919,19.582,88.913,19.584,122.832,0,16.959-9.792,25.438-22.623,25.438-35.457V484.192Z" transform="translate(-445.408 -436.211)" fill="url(#linear-gradient)"/>
            <path id="Path_6120" data-name="Path 6120" d="M556.887,475.02a103.8,103.8,0,0,0-25.658-10.245c17.868,11.331,17.325,28.883-1.638,39.83-9.448,5.456-21.739,8.263-34.121,8.439v47.58c22.23,0,44.457-4.9,61.418-14.688s25.437-22.623,25.437-35.458V484.192H569.455A68.263,68.263,0,0,0,556.887,475.02Z" transform="translate(-408.616 -436.211)" fill="#e63e2c" opacity="0.3"/>
            <path id="Path_6121" data-name="Path 6121" d="M556.887,475.02a103.8,103.8,0,0,0-25.658-10.245c17.868,11.331,17.325,28.883-1.638,39.83-9.448,5.456-21.739,8.263-34.121,8.439v47.58c22.23,0,44.457-4.9,61.418-14.688s25.437-22.623,25.437-35.457V484.192H569.455A68.263,68.263,0,0,0,556.887,475.02Z" transform="translate(-408.616 -436.211)" opacity="0.5" fill="url(#radial-gradient-4)" style="mix-blend-mode: lighten;isolation: isolate"/>
            <path id="Path_6122" data-name="Path 6122" d="M593.679,463c-33.919-19.584-88.913-19.584-122.832,0s-33.918,51.334,0,70.918,88.913,19.584,122.832,0S627.6,482.583,593.679,463ZM567,518.87c-19.527,11.274-51.187,11.274-70.714,0s-19.528-29.553,0-40.826,51.187-11.273,70.714,0S586.53,507.6,567,518.87Z" transform="translate(-445.408 -448.311)" fill="url(#linear-gradient-2)"/>
            <g id="Group_1128" data-name="Group 1128" transform="translate(0.003 48.791)">
              <path id="Path_6123" data-name="Path 6123" d="M593.68,510.542c-33.919,19.582-88.913,19.582-122.832,0-16.364-9.448-24.83-21.728-25.406-34.107-.618,13.281,7.85,26.676,25.406,36.813,33.919,19.582,88.913,19.584,122.832,0,17.556-10.135,26.022-23.531,25.4-36.81C618.508,488.816,610.042,501.094,593.68,510.542Z" transform="translate(-445.41 -476.434)" fill="#fff"/>
            </g>
            <path id="Path_6124" data-name="Path 6124" d="M587.071,463.617c-31.575-18.229-82.77-18.231-114.343,0s-31.574,47.785,0,66.015,82.768,18.231,114.343,0S618.646,481.847,587.071,463.617Zm-23.022,52.724c-18.86,10.888-49.437,10.888-68.3,0s-18.86-28.541,0-39.43,49.435-10.888,68.3,0S582.907,505.452,564.048,516.341Z" transform="translate(-442.734 -447.11)" fill="#e84c3b"/>
          </g>
        </g>
        <g id="Group_1131" data-name="Group 1131" transform="translate(122.955 240.334)">
          <path id="Path_6125" data-name="Path 6125" d="M613.651,808.2a21.777,21.777,0,0,1-10.666-2.45L463.423,725.169c-2.8-1.617-4.341-3.865-4.341-6.334,0-2.96,2.216-5.937,6.079-8.168L731.338,556.989c7.24-4.176,18.234-4.627,24.514-1l139.564,80.577c2.8,1.617,4.341,3.867,4.341,6.334,0,2.96-2.216,5.937-6.079,8.168L627.5,804.742A28.478,28.478,0,0,1,613.651,808.2ZM745.186,554.128a27.836,27.836,0,0,0-13.546,3.383L465.46,711.189c-3.671,2.12-5.777,4.906-5.777,7.646,0,2.243,1.435,4.309,4.039,5.812l139.566,80.577c6.112,3.531,16.841,3.081,23.912-1L893.375,650.543c3.673-2.12,5.779-4.906,5.779-7.646,0-2.243-1.435-4.31-4.041-5.812L755.55,556.509A21.122,21.122,0,0,0,745.186,554.128Z" transform="translate(-459.082 -553.537)" fill="#e63e2c"/>
        </g>
        <g id="Group_1143" data-name="Group 1143" transform="translate(123.256 203.194)">
          <path id="Path_6126" data-name="Path 6126" d="M899.328,613.407l-20.047,3.453L755.574,545.438c-6.206-3.584-17.046-3.135-24.213,1L494.7,683.08l-35.439,6.1,0,12.564.017,0c-.017,2.29,1.345,4.479,4.172,6.114L603.01,788.434c6.206,3.584,17.046,3.135,24.213-1L893.4,633.754c3.857-2.228,5.845-5.069,5.907-7.778l.019,0Z" transform="translate(-459.255 -524.128)" fill="url(#linear-gradient)"/>
          <path id="Path_6127" data-name="Path 6127" d="M603.01,783.787,463.445,703.209c-6.206-3.583-5.427-9.84,1.738-13.978L731.361,535.553c7.167-4.138,18.007-4.587,24.213-1l139.566,80.578c6.206,3.583,5.427,9.842-1.738,13.978L627.223,782.784C620.056,786.92,609.216,787.37,603.01,783.787Z" transform="translate(-459.255 -532.13)" fill="#e84c3b"/>
          <path id="Path_6128" data-name="Path 6128" d="M893.4,591.014,627.219,744.693c-7.167,4.136-18.007,4.585-24.213,1L463.441,665.118c-2.488-1.437-3.834-3.305-4.115-5.293-.385,2.58.954,5.1,4.115,6.924l139.565,80.578c6.206,3.583,17.046,3.133,24.213-1L893.4,592.645c4.292-2.477,6.274-5.715,5.854-8.685C898.879,586.444,896.912,588.984,893.4,591.014Z" transform="translate(-459.251 -494.039)" fill="#fff"/>
          <path id="Path_6129" data-name="Path 6129" d="M601.005,779.316,466.414,701.589c-6.006-3.466-5.252-9.523,1.681-13.527L729.335,537.275c6.935-4,17.424-4.438,23.43-.97l134.59,77.728c6.006,3.466,5.253,9.523-1.681,13.527L624.433,778.345C617.5,782.349,607.01,782.785,601.005,779.316Z" transform="translate(-456.974 -530.782)" fill="#ec6c5f" opacity="0.51"/>
          <g id="Group_1142" data-name="Group 1142" transform="translate(5.385 3.181)" opacity="0.3">
            <path id="Path_6130" data-name="Path 6130" d="M601.005,779.316,466.414,701.589c-6.006-3.466-5.252-9.523,1.681-13.527L729.335,537.275c6.935-4,17.424-4.438,23.43-.97l134.59,77.728c6.006,3.466,5.253,9.523-1.681,13.527L624.433,778.345C617.5,782.349,607.01,782.785,601.005,779.316Z" transform="translate(-462.359 -533.963)" opacity="0.5" fill="url(#radial-gradient)" style="mix-blend-mode: lighten;isolation: isolate"/>
            <g id="Group_1141" data-name="Group 1141" clip-path="url(#clip-path)">
              <g id="Group_1140" data-name="Group 1140" transform="translate(-29.409 10.474)">
                <g id="Group_1133" data-name="Group 1133" transform="translate(0 118.31)">
                  <path id="Path_6131" data-name="Path 6131" d="M481.557,656.072c19.164-11.065,50.233-11.064,69.4,0a37.572,37.572,0,0,1,7.8,5.867c10.85-10.835,8.255-24.929-7.8-34.2-19.164-11.064-50.233-11.064-69.4,0-16.055,9.27-18.65,23.362-7.8,34.2A37.552,37.552,0,0,1,481.557,656.072Z" transform="translate(-429.4 -599.927)" fill="#ee7c70"/>
                  <path id="Path_6132" data-name="Path 6132" d="M606.247,644.075a68.26,68.26,0,0,0-12.568-9.172,103.792,103.792,0,0,0-25.658-10.245c17.868,11.331,17.325,28.883-1.638,39.832-19.526,11.273-51.185,11.272-70.714,0-18.314-10.573-19.45-27.308-3.413-38.647a100.706,100.706,0,0,0-21.411,9.06,68.3,68.3,0,0,0-12.569,9.174h-12.87v26.288h0c0,12.832,8.482,25.665,25.441,35.457,33.919,19.584,88.913,19.584,122.832,0,16.959-9.79,25.438-22.623,25.438-35.457V644.075Z" transform="translate(-445.408 -596.094)" fill="url(#linear-gradient)"/>
                  <path id="Path_6133" data-name="Path 6133" d="M556.887,634.9a103.793,103.793,0,0,0-25.658-10.245c17.868,11.331,17.325,28.883-1.638,39.832-9.448,5.455-21.739,8.262-34.121,8.437v47.58c22.23,0,44.457-4.9,61.418-14.688s25.437-22.623,25.437-35.457V644.075H569.455A68.262,68.262,0,0,0,556.887,634.9Z" transform="translate(-408.616 -596.094)" fill="#e63e2c" opacity="0.3"/>
                  <path id="Path_6134" data-name="Path 6134" d="M556.887,634.9a103.793,103.793,0,0,0-25.658-10.245c17.868,11.331,17.325,28.883-1.638,39.832-9.448,5.455-21.739,8.262-34.121,8.437v47.58c22.23,0,44.457-4.9,61.418-14.688s25.437-22.623,25.437-35.457V644.075H569.455A68.262,68.262,0,0,0,556.887,634.9Z" transform="translate(-408.616 -596.094)" opacity="0.5" fill="url(#radial-gradient-7)" style="mix-blend-mode: lighten;isolation: isolate"/>
                  <path id="Path_6135" data-name="Path 6135" d="M593.679,622.882c-33.919-19.584-88.913-19.584-122.832,0s-33.918,51.333,0,70.917,88.913,19.584,122.832,0S627.6,642.466,593.679,622.882ZM567,678.753c-19.527,11.273-51.187,11.273-70.714,0s-19.528-29.553,0-40.826,51.187-11.273,70.714,0S586.53,667.48,567,678.753Z" transform="translate(-445.408 -608.194)" fill="#ee7c70"/>
                  <g id="Group_1132" data-name="Group 1132" transform="translate(0.003 18.572)">
                    <path id="Path_6136" data-name="Path 6136" d="M593.68,670.425c-33.919,19.582-88.913,19.582-122.832,0-16.364-9.447-24.83-21.726-25.406-34.107-.618,13.281,7.85,26.676,25.406,36.813,33.919,19.584,88.913,19.584,122.832,0,17.556-10.135,26.022-23.529,25.4-36.81C618.508,648.7,610.042,660.977,593.68,670.425Z" transform="translate(-445.41 -606.097)" fill="#fff"/>
                    <path id="Path_6137" data-name="Path 6137" d="M551.652,627.355c-19.526-11.275-51.187-11.275-70.714,0-10.359,5.982-15.22,13.933-14.589,21.766.56-6.931,5.423-13.768,14.589-19.06,19.527-11.274,51.187-11.274,70.714,0,9.167,5.293,14.03,12.13,14.589,19.061C566.874,641.288,562.012,633.335,551.652,627.355Z" transform="translate(-430.061 -618.899)" fill="#fff"/>
                  </g>
                  <path id="Path_6138" data-name="Path 6138" d="M587.071,622.439c-31.575-18.231-82.77-18.231-114.343,0s-31.574,47.787,0,66.015,82.768,18.231,114.343,0S618.646,640.668,587.071,622.439Zm-23.022,52.723c-18.86,10.888-49.437,10.888-68.3,0s-18.86-28.543,0-39.431,49.435-10.888,68.3,0S582.907,664.273,564.048,675.161Z" transform="translate(-442.734 -607.774)" fill="url(#linear-gradient-2)"/>
                </g>
                <path id="Path_6139" data-name="Path 6139" d="M606.247,630.172A68.261,68.261,0,0,0,593.679,621a103.868,103.868,0,0,0-25.658-10.245c17.868,11.331,17.325,28.883-1.638,39.832-19.526,11.273-51.185,11.273-70.714,0-18.314-10.573-19.45-27.308-3.413-38.647A100.707,100.707,0,0,0,470.847,621a68.216,68.216,0,0,0-12.569,9.173h-12.87V656.46h0c0,12.833,8.482,25.665,25.441,35.457,33.919,19.584,88.913,19.584,122.832,0,16.959-9.79,25.438-22.623,25.438-35.457V630.172Z" transform="translate(-445.408 -488.002)" fill="#e63e2c" opacity="0.4"/>
                <g id="Group_1135" data-name="Group 1135" transform="translate(0 78.873)">
                  <path id="Path_6140" data-name="Path 6140" d="M481.557,633.341c19.164-11.065,50.233-11.064,69.4,0a37.51,37.51,0,0,1,7.8,5.867c10.85-10.834,8.255-24.929-7.8-34.2-19.164-11.064-50.233-11.065-69.4,0-16.055,9.27-18.65,23.362-7.8,34.2A37.49,37.49,0,0,1,481.557,633.341Z" transform="translate(-429.4 -577.196)" fill="#ee7c70"/>
                  <path id="Path_6141" data-name="Path 6141" d="M606.247,621.344a68.258,68.258,0,0,0-12.568-9.173,103.8,103.8,0,0,0-25.658-10.245c17.868,11.331,17.325,28.883-1.638,39.83-19.526,11.273-51.185,11.273-70.714,0-18.314-10.573-19.45-27.308-3.413-38.647a100.706,100.706,0,0,0-21.411,9.06,68.3,68.3,0,0,0-12.569,9.174h-12.87v26.287h0c0,12.831,8.482,25.665,25.441,35.457,33.919,19.582,88.913,19.584,122.832,0,16.959-9.79,25.438-22.623,25.438-35.457V621.344Z" transform="translate(-445.408 -573.363)" fill="url(#linear-gradient)"/>
                  <path id="Path_6142" data-name="Path 6142" d="M556.887,612.172a103.8,103.8,0,0,0-25.658-10.245c17.868,11.331,17.325,28.883-1.638,39.83-9.448,5.456-21.739,8.263-34.121,8.439v47.58c22.23,0,44.457-4.9,61.418-14.688s25.437-22.623,25.437-35.457V621.344H569.455A68.26,68.26,0,0,0,556.887,612.172Z" transform="translate(-408.616 -573.363)" fill="#e63e2c" opacity="0.3"/>
                  <path id="Path_6143" data-name="Path 6143" d="M556.887,612.172a103.8,103.8,0,0,0-25.658-10.245c17.868,11.331,17.325,28.883-1.638,39.83-9.448,5.456-21.739,8.263-34.121,8.439v47.58c22.23,0,44.457-4.9,61.418-14.688s25.437-22.623,25.437-35.457V621.344H569.455A68.26,68.26,0,0,0,556.887,612.172Z" transform="translate(-408.616 -573.363)" opacity="0.5" fill="url(#radial-gradient-7)" style="mix-blend-mode: lighten;isolation: isolate"/>
                  <path id="Path_6144" data-name="Path 6144" d="M593.679,600.151c-33.919-19.584-88.913-19.584-122.832,0s-33.918,51.335,0,70.918,88.913,19.584,122.832,0S627.6,619.735,593.679,600.151ZM567,656.022c-19.527,11.273-51.187,11.273-70.714,0s-19.528-29.553,0-40.826,51.187-11.273,70.714,0S586.53,644.749,567,656.022Z" transform="translate(-445.408 -585.463)" fill="#ee7c70"/>
                  <g id="Group_1134" data-name="Group 1134" transform="translate(0.003 18.572)">
                    <path id="Path_6145" data-name="Path 6145" d="M593.68,647.694c-33.919,19.582-88.913,19.582-122.832,0-16.364-9.448-24.83-21.726-25.406-34.107-.618,13.281,7.85,26.676,25.406,36.813,33.919,19.584,88.913,19.584,122.832,0,17.556-10.135,26.022-23.529,25.4-36.81C618.508,625.968,610.042,638.246,593.68,647.694Z" transform="translate(-445.41 -583.366)" fill="#fff"/>
                    <path id="Path_6146" data-name="Path 6146" d="M551.652,604.622c-19.526-11.273-51.187-11.273-70.714,0-10.359,5.98-15.22,13.933-14.589,21.766.56-6.931,5.423-13.768,14.589-19.06,19.527-11.273,51.187-11.273,70.714,0,9.167,5.293,14.03,12.131,14.589,19.062C566.874,618.557,562.012,610.6,551.652,604.622Z" transform="translate(-430.061 -596.167)" fill="#fff"/>
                  </g>
                  <path id="Path_6147" data-name="Path 6147" d="M587.071,599.708c-31.575-18.231-82.77-18.231-114.343,0s-31.574,47.787,0,66.015,82.768,18.231,114.343,0S618.646,617.937,587.071,599.708ZM564.048,652.43c-18.86,10.888-49.437,10.888-68.3,0s-18.86-28.543,0-39.431,49.435-10.888,68.3,0S582.907,641.542,564.048,652.43Z" transform="translate(-442.734 -585.042)" fill="url(#linear-gradient-2)"/>
                </g>
                <path id="Path_6148" data-name="Path 6148" d="M606.247,607.441a68.258,68.258,0,0,0-12.568-9.172,103.8,103.8,0,0,0-25.658-10.245c17.868,11.331,17.325,28.883-1.638,39.83-19.526,11.275-51.185,11.273-70.714,0-18.314-10.573-19.45-27.308-3.413-38.647a100.716,100.716,0,0,0-21.411,9.06,68.3,68.3,0,0,0-12.569,9.174h-12.87v26.287h0c0,12.831,8.482,25.665,25.441,35.457,33.919,19.584,88.913,19.584,122.832,0,16.959-9.79,25.438-22.623,25.438-35.457V607.441Z" transform="translate(-445.408 -504.708)" fill="#e63e2c" opacity="0.4"/>
                <g id="Group_1137" data-name="Group 1137" transform="translate(0 39.436)">
                  <path id="Path_6149" data-name="Path 6149" d="M481.557,610.609c19.164-11.064,50.233-11.064,69.4,0a37.517,37.517,0,0,1,7.8,5.868c10.85-10.835,8.255-24.929-7.8-34.2-19.164-11.065-50.233-11.065-69.4,0-16.055,9.271-18.65,23.364-7.8,34.2A37.563,37.563,0,0,1,481.557,610.609Z" transform="translate(-429.4 -554.465)" fill="#ee7c70"/>
                  <path id="Path_6150" data-name="Path 6150" d="M606.247,598.613a68.261,68.261,0,0,0-12.568-9.173A103.8,103.8,0,0,0,568.022,579.2c17.868,11.331,17.325,28.883-1.638,39.83-19.526,11.273-51.185,11.273-70.714,0-18.314-10.574-19.45-27.308-3.413-38.647a100.628,100.628,0,0,0-21.411,9.06,68.221,68.221,0,0,0-12.569,9.174h-12.87V624.9h0c0,12.831,8.482,25.665,25.441,35.456,33.919,19.582,88.913,19.584,122.832,0,16.959-9.792,25.438-22.623,25.438-35.456V598.613Z" transform="translate(-445.408 -550.632)" fill="url(#linear-gradient)"/>
                  <path id="Path_6151" data-name="Path 6151" d="M556.887,589.441A103.8,103.8,0,0,0,531.229,579.2c17.868,11.331,17.325,28.883-1.638,39.83-9.448,5.456-21.739,8.263-34.121,8.439v47.58c22.23,0,44.457-4.9,61.418-14.688s25.437-22.623,25.437-35.456V598.613H569.455A68.263,68.263,0,0,0,556.887,589.441Z" transform="translate(-408.616 -550.632)" fill="#e63e2c" opacity="0.3"/>
                  <path id="Path_6152" data-name="Path 6152" d="M556.887,589.441A103.8,103.8,0,0,0,531.229,579.2c17.868,11.331,17.325,28.883-1.638,39.83-9.448,5.456-21.739,8.263-34.121,8.439v47.58c22.23,0,44.457-4.9,61.418-14.688s25.437-22.623,25.437-35.456V598.613H569.455A68.263,68.263,0,0,0,556.887,589.441Z" transform="translate(-408.616 -550.632)" opacity="0.5" fill="url(#radial-gradient-7)" style="mix-blend-mode: lighten;isolation: isolate"/>
                  <path id="Path_6153" data-name="Path 6153" d="M593.679,577.42c-33.919-19.584-88.913-19.584-122.832,0s-33.918,51.334,0,70.918,88.913,19.584,122.832,0S627.6,597,593.679,577.42ZM567,633.291c-19.527,11.274-51.187,11.274-70.714,0s-19.528-29.553,0-40.826,51.187-11.273,70.714,0S586.53,622.018,567,633.291Z" transform="translate(-445.408 -562.732)" fill="#ee7c70"/>
                  <g id="Group_1136" data-name="Group 1136" transform="translate(0.003 18.572)">
                    <path id="Path_6154" data-name="Path 6154" d="M593.68,624.964c-33.919,19.582-88.913,19.582-122.832,0-16.364-9.448-24.83-21.728-25.406-34.107-.618,13.281,7.85,26.676,25.406,36.813,33.919,19.582,88.913,19.584,122.832,0,17.556-10.135,26.022-23.531,25.4-36.81C618.508,603.237,610.042,615.515,593.68,624.964Z" transform="translate(-445.41 -560.635)" fill="#fff"/>
                    <path id="Path_6155" data-name="Path 6155" d="M551.652,581.892c-19.526-11.274-51.187-11.274-70.714,0-10.359,5.98-15.22,13.933-14.589,21.765.56-6.929,5.423-13.767,14.589-19.058,19.527-11.275,51.187-11.274,70.714,0,9.167,5.293,14.03,12.131,14.589,19.061C566.874,595.826,562.012,587.874,551.652,581.892Z" transform="translate(-430.061 -573.436)" fill="#fff"/>
                  </g>
                  <path id="Path_6156" data-name="Path 6156" d="M587.071,576.976c-31.575-18.229-82.77-18.231-114.343,0s-31.574,47.785,0,66.015,82.768,18.231,114.343,0S618.646,595.206,587.071,576.976ZM564.048,629.7c-18.86,10.888-49.437,10.888-68.3,0s-18.86-28.541,0-39.43,49.435-10.888,68.3,0S582.907,618.811,564.048,629.7Z" transform="translate(-442.734 -562.312)" fill="url(#linear-gradient-2)"/>
                </g>
                <path id="Path_6157" data-name="Path 6157" d="M606.247,584.71a68.258,68.258,0,0,0-12.568-9.172,103.8,103.8,0,0,0-25.658-10.245c17.868,11.331,17.325,28.883-1.638,39.83-19.526,11.274-51.185,11.274-70.714,0-18.314-10.574-19.45-27.308-3.413-38.647a100.719,100.719,0,0,0-21.411,9.06,68.3,68.3,0,0,0-12.569,9.174h-12.87V611h0c0,12.832,8.482,25.665,25.441,35.456,33.919,19.582,88.913,19.584,122.832,0,16.959-9.79,25.438-22.623,25.438-35.456V584.71Z" transform="translate(-445.408 -521.413)" fill="#e63e2c" opacity="0.4"/>
                <g id="Group_1139" data-name="Group 1139">
                  <path id="Path_6158" data-name="Path 6158" d="M481.557,587.878c19.164-11.064,50.233-11.064,69.4,0a37.515,37.515,0,0,1,7.8,5.868c10.85-10.835,8.255-24.929-7.8-34.2-19.164-11.065-50.233-11.065-69.4,0-16.055,9.27-18.65,23.364-7.8,34.2A37.556,37.556,0,0,1,481.557,587.878Z" transform="translate(-429.4 -531.734)" fill="#ee7c70"/>
                  <path id="Path_6159" data-name="Path 6159" d="M606.247,575.882a68.258,68.258,0,0,0-12.568-9.172,103.8,103.8,0,0,0-25.658-10.245c17.868,11.329,17.325,28.883-1.638,39.83-19.526,11.274-51.185,11.274-70.714,0-18.314-10.574-19.45-27.308-3.413-38.647a100.634,100.634,0,0,0-21.411,9.06,68.15,68.15,0,0,0-12.569,9.174h-12.87v26.286h0c0,12.833,8.482,25.666,25.441,35.457,33.919,19.584,88.913,19.586,122.832,0,16.959-9.792,25.438-22.625,25.438-35.458V575.882Z" transform="translate(-445.408 -527.901)" fill="url(#linear-gradient)"/>
                  <path id="Path_6160" data-name="Path 6160" d="M606.247,575.882a68.258,68.258,0,0,0-12.568-9.172,103.8,103.8,0,0,0-25.658-10.245c17.868,11.329,17.325,28.883-1.638,39.83-19.526,11.274-51.185,11.274-70.714,0-18.314-10.574-19.45-27.308-3.413-38.647a100.634,100.634,0,0,0-21.411,9.06,68.15,68.15,0,0,0-12.569,9.174h-12.87v26.286h0c0,12.833,8.482,25.666,25.441,35.457,33.919,19.584,88.913,19.586,122.832,0,16.959-9.792,25.438-22.625,25.438-35.458V575.882Z" transform="translate(-445.408 -527.901)" fill="url(#linear-gradient)"/>
                  <path id="Path_6161" data-name="Path 6161" d="M556.887,566.71a103.8,103.8,0,0,0-25.658-10.245c17.868,11.329,17.325,28.883-1.638,39.83-9.448,5.456-21.739,8.263-34.121,8.439v47.578c22.23,0,44.457-4.894,61.418-14.686S582.326,615,582.326,602.168V575.882H569.455A68.26,68.26,0,0,0,556.887,566.71Z" transform="translate(-408.616 -527.901)" fill="#e63e2c" opacity="0.3"/>
                  <path id="Path_6162" data-name="Path 6162" d="M556.887,566.71a103.8,103.8,0,0,0-25.658-10.245c17.868,11.329,17.325,28.883-1.638,39.83-9.448,5.456-21.739,8.263-34.121,8.439v47.578c22.23,0,44.457-4.894,61.418-14.686S582.326,615,582.326,602.168V575.882H569.455A68.26,68.26,0,0,0,556.887,566.71Z" transform="translate(-408.616 -527.901)" opacity="0.5" fill="url(#radial-gradient-10)" style="mix-blend-mode: lighten;isolation: isolate"/>
                  <path id="Path_6163" data-name="Path 6163" d="M593.679,554.689c-33.919-19.584-88.913-19.584-122.832,0s-33.918,51.335,0,70.917,88.913,19.586,122.832,0S627.6,574.273,593.679,554.689ZM567,610.56c-19.527,11.273-51.187,11.273-70.714,0s-19.528-29.551,0-40.826,51.187-11.272,70.714,0S586.53,599.287,567,610.56Z" transform="translate(-445.408 -540.001)" fill="#ee7c70"/>
                  <g id="Group_1138" data-name="Group 1138" transform="translate(0.003 18.572)">
                    <path id="Path_6164" data-name="Path 6164" d="M593.68,602.231c-33.919,19.584-88.913,19.584-122.832,0-16.364-9.448-24.83-21.728-25.406-34.107-.618,13.281,7.85,26.676,25.406,36.811,33.919,19.584,88.913,19.586,122.832,0,17.556-10.136,26.022-23.531,25.4-36.81C618.508,580.506,610.042,592.784,593.68,602.231Z" transform="translate(-445.41 -537.904)" fill="#fff"/>
                    <path id="Path_6165" data-name="Path 6165" d="M551.652,559.161c-19.526-11.273-51.187-11.273-70.714,0-10.359,5.98-15.22,13.933-14.589,21.765.56-6.931,5.423-13.767,14.589-19.06,19.527-11.273,51.187-11.272,70.714,0,9.167,5.293,14.03,12.131,14.589,19.062C566.874,573.1,562.012,565.143,551.652,559.161Z" transform="translate(-430.061 -550.705)" fill="#fff"/>
                  </g>
                  <path id="Path_6166" data-name="Path 6166" d="M587.071,554.245c-31.575-18.229-82.77-18.23-114.343,0s-31.574,47.785,0,66.015,82.768,18.231,114.343,0S618.646,572.475,587.071,554.245Zm-23.022,52.724c-18.86,10.888-49.437,10.887-68.3,0s-18.86-28.541,0-39.429,49.435-10.888,68.3,0S582.907,596.08,564.048,606.969Z" transform="translate(-442.734 -539.581)" fill="url(#linear-gradient-2)"/>
                </g>
              </g>
            </g>
          </g>
        </g>
        <g id="Group_1144" data-name="Group 1144" transform="translate(128.207 202.484)">
          <path id="Path_6168" data-name="Path 6168" d="M601.005,777.317,466.414,699.589c-6.006-3.466-5.252-9.523,1.681-13.527L729.335,535.275c6.935-4,17.424-4.438,23.43-.97l134.59,77.728c6.006,3.466,5.253,9.523-1.681,13.527L624.433,776.345C617.5,780.349,607.01,780.785,601.005,777.317Z" transform="translate(-461.925 -531.543)" opacity="0.5" fill="url(#radial-gradient)" style="mix-blend-mode: lighten;isolation: isolate"/>
          <path id="Path_6169" data-name="Path 6169" d="M611.359,780.259a21.19,21.19,0,0,1-10.387-2.387L466.38,700.144c-2.753-1.591-4.271-3.812-4.271-6.251,0-2.916,2.17-5.843,5.954-8.029L729.3,535.076c7.044-4.063,17.748-4.5,23.864-.97l134.59,77.728c2.755,1.591,4.271,3.81,4.271,6.251,0,2.916-2.17,5.842-5.952,8.027L624.832,776.9A27.69,27.69,0,0,1,611.359,780.259Zm-9.953-3.138c5.88,3.394,16.194,2.956,22.993-.973L885.641,625.36c3.508-2.025,5.519-4.675,5.519-7.275,0-2.118-1.362-4.07-3.838-5.5l-134.59-77.73c-5.878-3.392-16.194-2.956-23,.972L468.5,686.616c-3.508,2.025-5.521,4.677-5.521,7.276,0,2.118,1.364,4.07,3.838,5.5Z" transform="translate(-462.109 -531.721)" opacity="0.8" fill="url(#linear-gradient-20)" style="mix-blend-mode: lighten;isolation: isolate"/>
        </g>
        <path id="Path_6170" data-name="Path 6170" d="M661.046,656.5a22.255,22.255,0,0,1-10.9-2.5L556.939,600.18c-2.861-1.652-4.436-3.95-4.436-6.471,0-3.026,2.268-6.069,6.215-8.349,7.4-4.271,18.645-4.731,25.066-1.027l93.2,53.812c2.859,1.652,4.436,3.949,4.436,6.471,0,3.027-2.266,6.067-6.213,8.348A29.115,29.115,0,0,1,661.046,656.5ZM572.88,582.422a28.474,28.474,0,0,0-13.86,3.461c-3.758,2.169-5.913,5.019-5.914,7.826,0,2.3,1.468,4.412,4.136,5.949l93.2,53.812c6.255,3.612,17.23,3.151,24.464-1.027,3.758-2.169,5.913-5.021,5.913-7.826,0-2.3-1.469-4.412-4.136-5.949l-93.2-53.812A21.628,21.628,0,0,0,572.88,582.422Z" transform="translate(-267.47 -292.411)" fill="#e63e2c"/>
        <path id="Path_6171" data-name="Path 6171" d="M582.762,464.241c-30.089-17.372-78.869-17.372-108.955,0s-30.087,45.535,0,62.906,78.868,17.37,108.955,0S612.849,481.613,582.762,464.241Z" transform="translate(-341.888 -388.404)" fill="#0e2634" opacity="0.4"/>
        <ellipse id="Ellipse_68" data-name="Ellipse 68" cx="48.2" cy="27.828" rx="48.2" ry="27.828" transform="translate(138.198 79.461)" fill="#0e2634" opacity="0.4"/>
        <path id="Path_6172" data-name="Path 6172" d="M543.078,762.116a15.292,15.292,0,0,1-7.646-2.042l-144.1-83.038a6.241,6.241,0,0,1,0-10.809l126.052-72.776.3.522L391.631,666.75a5.637,5.637,0,0,0,0,9.764l144.1,83.038a14.727,14.727,0,0,0,14.728-.019l38.026-22.1.3.519-38.026,22.1A15.28,15.28,0,0,1,543.078,762.116Z" transform="translate(-388.211 -283.87)" fill="#e63e2c"/>
        <g id="Group_1145" data-name="Group 1145" transform="translate(169.12)">
          <path id="Path_6173" data-name="Path 6173" d="M510.318,468.736a1.963,1.963,0,1,1-1.964-1.962A1.964,1.964,0,0,1,510.318,468.736Z" transform="translate(-470.477 -376.968)" fill="#e63e2c" opacity="0.4"/>
          <path id="Path_6174" data-name="Path 6174" d="M490.545,416.974a1.964,1.964,0,1,1-1.964-1.964A1.964,1.964,0,0,1,490.545,416.974Z" transform="translate(-485.01 -415.01)" fill="#e63e2c" opacity="0.4"/>
          <path id="Path_6175" data-name="Path 6175" d="M493.542,456.053a2.9,2.9,0,1,1-2.9-2.9A2.9,2.9,0,0,1,493.542,456.053Z" transform="translate(-484.179 -386.976)" fill="#e63e2c" opacity="0.4"/>
          <path id="Path_6176" data-name="Path 6176" d="M489.787,484.192a2.048,2.048,0,1,1-2.049-2.047A2.05,2.05,0,0,1,489.787,484.192Z" transform="translate(-485.691 -365.671)" fill="#e63e2c" opacity="0.8"/>
          <path id="Path_6177" data-name="Path 6177" d="M507.512,436.947a3.135,3.135,0,1,1-3.135-3.135A3.136,3.136,0,0,1,507.512,436.947Z" transform="translate(-474.262 -401.192)" fill="#e63e2c" opacity="0.8"/>
          <circle id="Ellipse_69" data-name="Ellipse 69" cx="2.12" cy="2.12" r="2.12" transform="translate(26.561 43.788)" fill="#e63e2c" opacity="0.8"/>
        </g>
        <path id="Path_6178" data-name="Path 6178" d="M667.731,578.558l-82.178-47.445,111.094-64.14,82.178,47.446Z" transform="translate(-243.181 -376.822)" opacity="0.5" fill="url(#radial-gradient-12)" style="mix-blend-mode: lighten;isolation: isolate"/>
        <path id="Path_6179" data-name="Path 6179" d="M661.409,566.654a10.321,10.321,0,0,1-5.158-1.377l-60.733-35.063a2.991,2.991,0,0,1,0-5.177l89.839-51.867a10.346,10.346,0,0,1,10.318,0l60.731,35.063a2.988,2.988,0,0,1,0,5.175l-89.837,51.869A10.328,10.328,0,0,1,661.409,566.654Zm29.108-94.26a9.705,9.705,0,0,0-4.858,1.3L595.82,525.559a2.386,2.386,0,0,0,0,4.133l60.733,35.063a9.728,9.728,0,0,0,9.714,0L756.1,512.885a2.384,2.384,0,0,0,0-4.131l-60.731-35.063A9.7,9.7,0,0,0,690.517,472.394Z" transform="translate(-236.954 -373.28)" fill="#e63e2c"/>
        <g id="Group_1148" data-name="Group 1148" transform="translate(390.63 118.011)">
          <g id="Group_1146" data-name="Group 1146" transform="translate(0 9.564)">
            <path id="Path_6180" data-name="Path 6180" d="M645.3,495.413l-9.53-5.5,2.368-1.367,9.53,5.5Z" transform="translate(-596.904 -488.544)" fill="#e63e2c"/>
            <path id="Path_6181" data-name="Path 6181" d="M647.971,496.954l-4.765-2.751,2.368-1.367,4.765,2.751Z" transform="translate(-591.44 -485.39)" fill="#e63e2c" opacity="0.5"/>
            <path id="Path_6182" data-name="Path 6182" d="M642.1,497.261l-9.53-5.5,2.368-1.367,9.53,5.5Z" transform="translate(-599.256 -487.186)" fill="#e63e2c" opacity="0.5"/>
            <path id="Path_6183" data-name="Path 6183" d="M644.77,498.8l-4.765-2.751,2.368-1.367,4.765,2.751Z" transform="translate(-593.792 -484.032)" fill="#e63e2c" opacity="0.5"/>
            <path id="Path_6184" data-name="Path 6184" d="M638.9,499.109l-9.53-5.5,2.368-1.367,9.53,5.5Z" transform="translate(-601.608 -485.828)" fill="#e63e2c"/>
            <path id="Path_6185" data-name="Path 6185" d="M641.57,500.65,636.8,497.9l2.368-1.367,4.765,2.751Z" transform="translate(-596.144 -482.674)" fill="#e63e2c"/>
            <path id="Path_6186" data-name="Path 6186" d="M635.7,500.957l-9.53-5.5,2.368-1.367,9.53,5.5Z" transform="translate(-603.96 -484.47)" fill="#e63e2c"/>
            <path id="Path_6187" data-name="Path 6187" d="M638.369,502.5l-4.765-2.751,2.368-1.367,4.765,2.751Z" transform="translate(-598.496 -481.316)" fill="#e63e2c"/>
            <path id="Path_6188" data-name="Path 6188" d="M632.5,502.8l-9.53-5.5,2.368-1.367,9.53,5.5Z" transform="translate(-606.312 -483.112)" fill="#e63e2c"/>
            <path id="Path_6189" data-name="Path 6189" d="M635.169,504.345l-4.765-2.751,2.368-1.367,4.765,2.751Z" transform="translate(-600.849 -479.958)" fill="#e63e2c"/>
            <path id="Path_6190" data-name="Path 6190" d="M629.3,504.652l-9.53-5.5,2.368-1.367,9.53,5.5Z" transform="translate(-608.664 -481.754)" fill="#e63e2c"/>
            <path id="Path_6191" data-name="Path 6191" d="M631.968,506.193l-4.765-2.751,2.368-1.367,4.765,2.751Z" transform="translate(-603.201 -478.6)" fill="#e63e2c"/>
            <path id="Path_6192" data-name="Path 6192" d="M626.1,506.5l-9.53-5.5,2.368-1.367,9.53,5.5Z" transform="translate(-611.016 -480.396)" fill="#e63e2c"/>
            <path id="Path_6193" data-name="Path 6193" d="M628.768,508.041,624,505.29l2.368-1.367,4.765,2.751Z" transform="translate(-605.553 -477.242)" fill="#e63e2c" opacity="0.5"/>
            <path id="Path_6194" data-name="Path 6194" d="M622.9,508.348l-9.53-5.5,2.368-1.367,9.53,5.5Z" transform="translate(-613.368 -479.038)" fill="#e63e2c"/>
            <path id="Path_6195" data-name="Path 6195" d="M625.567,509.889l-4.765-2.751,2.368-1.367,4.765,2.751Z" transform="translate(-607.905 -475.884)" fill="#e63e2c" opacity="0.5"/>
          </g>
          <g id="Group_1147" data-name="Group 1147" transform="translate(21.27)">
            <path id="Path_6196" data-name="Path 6196" d="M657.5,502.526l-9.53-5.5,2.368-1.367,9.53,5.5Z" transform="translate(-609.208 -473.753)" fill="#e63e2c"/>
            <path id="Path_6197" data-name="Path 6197" d="M660.171,504.067l-4.765-2.751,2.368-1.367,4.765,2.751Z" transform="translate(-603.744 -470.598)" fill="#e63e2c"/>
            <path id="Path_6198" data-name="Path 6198" d="M654.3,504.374l-9.53-5.5,2.368-1.367,9.53,5.5Z" transform="translate(-611.56 -472.395)" fill="#e63e2c"/>
            <path id="Path_6199" data-name="Path 6199" d="M656.971,505.915l-4.765-2.751,2.368-1.367,4.765,2.751Z" transform="translate(-606.096 -469.24)" fill="#e63e2c"/>
            <path id="Path_6200" data-name="Path 6200" d="M651.1,506.221l-9.53-5.5,2.368-1.367,9.53,5.5Z" transform="translate(-613.912 -471.037)" fill="#e63e2c"/>
            <path id="Path_6201" data-name="Path 6201" d="M653.77,507.762l-4.765-2.751,2.368-1.367,4.765,2.751Z" transform="translate(-608.448 -467.882)" fill="#e63e2c"/>
            <path id="Path_6202" data-name="Path 6202" d="M654.85,489.9l-9.53-5.5,2.368-1.367,9.53,5.5Z" transform="translate(-611.157 -483.031)" fill="#e63e2c"/>
            <path id="Path_6203" data-name="Path 6203" d="M657.519,491.441l-4.765-2.751,2.368-1.367,4.765,2.751Z" transform="translate(-605.693 -479.877)" fill="#e63e2c"/>
            <path id="Path_6204" data-name="Path 6204" d="M651.649,491.748l-9.53-5.5,2.368-1.367,9.53,5.5Z" transform="translate(-613.509 -481.673)" fill="#e63e2c"/>
            <path id="Path_6205" data-name="Path 6205" d="M654.318,493.289l-4.765-2.751,2.368-1.367,4.765,2.751Z" transform="translate(-608.045 -478.519)" fill="#e63e2c"/>
            <path id="Path_6206" data-name="Path 6206" d="M648.449,493.6l-9.53-5.5,2.368-1.367,9.53,5.5Z" transform="translate(-615.861 -480.315)" fill="#e63e2c"/>
            <path id="Path_6207" data-name="Path 6207" d="M651.118,495.137l-4.765-2.751,2.368-1.367,4.765,2.751Z" transform="translate(-610.398 -477.161)" fill="#e63e2c"/>
            <path id="Path_6208" data-name="Path 6208" d="M667.05,497.013l-9.53-5.5,2.368-1.367,9.53,5.5Z" transform="translate(-602.19 -477.804)" fill="#e63e2c"/>
            <path id="Path_6209" data-name="Path 6209" d="M669.719,498.554l-4.765-2.751,2.368-1.367,4.765,2.751Z" transform="translate(-596.727 -474.65)" fill="#e63e2c"/>
            <path id="Path_6210" data-name="Path 6210" d="M663.85,498.861l-9.53-5.5,2.368-1.367,9.53,5.5Z" transform="translate(-604.542 -476.446)" fill="#e63e2c" opacity="0.5"/>
            <path id="Path_6211" data-name="Path 6211" d="M666.519,500.4l-4.765-2.751,2.368-1.367,4.765,2.751Z" transform="translate(-599.079 -473.292)" fill="#e63e2c"/>
            <path id="Path_6212" data-name="Path 6212" d="M660.649,500.709l-9.53-5.5,2.368-1.367,9.53,5.5Z" transform="translate(-606.894 -475.088)" fill="#e63e2c"/>
            <path id="Path_6213" data-name="Path 6213" d="M663.318,502.25l-4.765-2.751,2.368-1.367,4.765,2.751Z" transform="translate(-601.431 -471.934)" fill="#e63e2c"/>
            <path id="Path_6214" data-name="Path 6214" d="M647.9,508.069l-9.53-5.5,2.368-1.367,9.53,5.5Z" transform="translate(-616.264 -469.679)" fill="#e63e2c"/>
            <path id="Path_6215" data-name="Path 6215" d="M650.57,509.61l-4.765-2.751,2.368-1.367,4.765,2.751Z" transform="translate(-610.8 -466.524)" fill="#e63e2c"/>
            <path id="Path_6216" data-name="Path 6216" d="M644.7,509.917l-9.53-5.5,2.368-1.367,9.53,5.5Z" transform="translate(-618.616 -468.321)" fill="#e63e2c" opacity="0.5"/>
            <path id="Path_6217" data-name="Path 6217" d="M647.369,511.458l-4.765-2.751,2.368-1.367,4.765,2.751Z" transform="translate(-613.152 -465.166)" fill="#e63e2c"/>
            <path id="Path_6218" data-name="Path 6218" d="M641.5,511.765l-9.53-5.5,2.368-1.367,9.53,5.5Z" transform="translate(-620.968 -466.963)" fill="#e63e2c"/>
            <path id="Path_6219" data-name="Path 6219" d="M644.169,513.306l-4.765-2.751,2.368-1.367,4.765,2.751Z" transform="translate(-615.505 -463.808)" fill="#e63e2c"/>
            <path id="Path_6220" data-name="Path 6220" d="M638.3,513.613l-9.53-5.5,2.368-1.367,9.53,5.5Z" transform="translate(-623.32 -465.605)" fill="#e63e2c"/>
            <path id="Path_6221" data-name="Path 6221" d="M640.968,515.154,636.2,512.4l2.368-1.367,4.765,2.751Z" transform="translate(-617.857 -462.45)" fill="#e63e2c"/>
            <path id="Path_6222" data-name="Path 6222" d="M635.158,515.426l-9.53-5.5L628,508.557l9.53,5.5Z" transform="translate(-625.628 -464.272)" fill="#e63e2c"/>
            <path id="Path_6223" data-name="Path 6223" d="M637.827,516.967l-4.765-2.751,2.368-1.367L640.2,515.6Z" transform="translate(-620.165 -461.118)" fill="#e63e2c"/>
          </g>
        </g>
        <path id="Path_6224" data-name="Path 6224" d="M507.9,663.764l-7.417-4.282a3.019,3.019,0,0,1-1.26-2.408h0c0-.928.564-1.355,1.26-.954L507.9,660.4a3.024,3.024,0,0,1,1.261,2.41h0C509.162,663.74,508.6,664.165,507.9,663.764Z" transform="translate(-306.625 -237.925)" fill="#e84c3b"/>
      </g>
      <g id="Group_1150" data-name="Group 1150" transform="translate(0 344.745)">
        <g id="Group_182" data-name="Group 182" transform="translate(94.705 54.542)" opacity="0.6">
          <path id="Path_1046" data-name="Path 1046" d="M454.559,803.761l-10.917-6.3,2.38-1.374,10.917,6.3Z" transform="translate(-352.785 -796.084)" fill="#f7c3be"/>
          <path id="Path_1047" data-name="Path 1047" d="M467.968,811.5l-5.458-3.151,2.38-1.374,5.458,3.151Z" transform="translate(-356.878 -798.447)" fill="#f7c3be"/>
          <path id="Path_1048" data-name="Path 1048" d="M453.281,811.254l-4.651-2.685,2.38-1.374,4.651,2.685Z" transform="translate(-353.867 -798.494)" fill="#f7c3be"/>
          <path id="Path_1049" data-name="Path 1049" d="M463.006,816.869l-5.458-3.151,2.38-1.374,5.458,3.152Z" transform="translate(-355.802 -799.611)" fill="#f7c3be"/>
          <path id="Path_1050" data-name="Path 1050" d="M462.952,825.067,441.5,812.683l2.38-1.374,21.45,12.384Z" transform="translate(-352.321 -799.387)" fill="#f7c3be"/>
          <path id="Path_1051" data-name="Path 1051" d="M384.781,856.367l-21.45-12.384,2.38-1.374,21.45,12.384Z" transform="translate(-335.363 -806.177)" fill="#f7c3be"/>
          <path id="Path_1052" data-name="Path 1052" d="M399.746,865.006l-5.458-3.151,2.38-1.374,5.458,3.151Z" transform="translate(-342.078 -810.054)" fill="#f7c3be"/>
          <path id="Path_1053" data-name="Path 1053" d="M439.026,819.483l-4.651-2.685,2.38-1.374,4.651,2.685Z" transform="translate(-350.775 -800.28)" fill="#f7c3be"/>
          <path id="Path_1054" data-name="Path 1054" d="M448.751,825.1l-5.458-3.151,2.38-1.374,5.458,3.151Z" transform="translate(-352.71 -801.397)" fill="#f7c3be"/>
          <path id="Path_1055" data-name="Path 1055" d="M439.039,827.722l-11.792-6.808,2.38-1.374,11.792,6.808Z" transform="translate(-349.229 -801.172)" fill="#f7c3be"/>
          <path id="Path_1056" data-name="Path 1056" d="M450.874,834.554l-5.458-3.151,2.38-1.374,5.458,3.151Z" transform="translate(-353.17 -803.448)" fill="#f7c3be"/>
          <path id="Path_1057" data-name="Path 1057" d="M461.007,840.4l-5.458-3.151,2.38-1.374,5.458,3.151Z" transform="translate(-355.368 -804.717)" fill="#f7c3be"/>
          <path id="Path_1058" data-name="Path 1058" d="M476.009,849.066,465.681,843.1l2.38-1.374,10.328,5.963Z" transform="translate(-357.566 -805.986)" fill="#f7c3be"/>
          <path id="Path_1059" data-name="Path 1059" d="M455.2,853.511l-5.458-3.151,2.38-1.374,5.458,3.151Z" transform="translate(-354.108 -807.56)" fill="#f7c3be"/>
          <path id="Path_1060" data-name="Path 1060" d="M470.2,862.173l-10.329-5.963,2.38-1.374,10.328,5.963Z" transform="translate(-356.306 -808.83)" fill="#f7c3be"/>
          <path id="Path_1061" data-name="Path 1061" d="M418.45,832.295l-5.458-3.151,2.38-1.374,5.458,3.151Z" transform="translate(-346.136 -802.958)" fill="#f7c3be"/>
          <path id="Path_1062" data-name="Path 1062" d="M428.583,838.145l-5.458-3.151,2.38-1.374,5.458,3.151Z" transform="translate(-348.334 -804.227)" fill="#f7c3be"/>
          <path id="Path_1063" data-name="Path 1063" d="M443.586,846.807l-10.328-5.963,2.38-1.374,10.328,5.963Z" transform="translate(-350.532 -805.496)" fill="#f7c3be"/>
          <path id="Path_1064" data-name="Path 1064" d="M472.223,855.11l-5.458-3.151,2.38-1.374,5.458,3.151Z" transform="translate(-357.801 -807.907)" fill="#f7c3be"/>
          <path id="Path_1065" data-name="Path 1065" d="M482.355,860.96l-5.458-3.151,2.38-1.374,5.458,3.151Z" transform="translate(-360 -809.176)" fill="#f7c3be"/>
          <path id="Path_1066" data-name="Path 1066" d="M497.358,869.622l-10.329-5.963,2.38-1.374,10.328,5.963Z" transform="translate(-362.198 -810.445)" fill="#f7c3be"/>
          <path id="Path_1067" data-name="Path 1067" d="M410.651,871.3l-5.458-3.151,2.38-1.374,5.458,3.151Z" transform="translate(-344.444 -811.42)" fill="#f7c3be"/>
          <path id="Path_1068" data-name="Path 1068" d="M425.654,879.965,415.325,874l2.38-1.374,10.328,5.963Z" transform="translate(-346.642 -812.689)" fill="#f7c3be"/>
          <path id="Path_1069" data-name="Path 1069" d="M404.2,840.525l-5.458-3.152,2.38-1.374,5.458,3.151Z" transform="translate(-343.044 -804.743)" fill="#f7c3be"/>
          <path id="Path_1070" data-name="Path 1070" d="M419.2,849.187l-10.328-5.963,2.38-1.374,10.328,5.963Z" transform="translate(-345.242 -806.012)" fill="#f7c3be"/>
          <path id="Path_1071" data-name="Path 1071" d="M412.383,880.533l-5.458-3.151,2.38-1.374,5.458,3.151Z" transform="translate(-344.82 -813.422)" fill="#f7c3be"/>
          <path id="Path_1072" data-name="Path 1072" d="M427.386,889.195l-10.328-5.963,2.38-1.374,10.328,5.963Z" transform="translate(-347.018 -814.692)" fill="#f7c3be"/>
          <path id="Path_1073" data-name="Path 1073" d="M488.22,839.656l-5.458-3.151,2.38-1.374,5.458,3.151Z" transform="translate(-361.272 -804.555)" fill="#f7c3be"/>
          <path id="Path_1074" data-name="Path 1074" d="M477.681,833.571l-5.458-3.151,2.38-1.374,5.458,3.151Z" transform="translate(-358.986 -803.235)" fill="#f7c3be"/>
          <path id="Path_1075" data-name="Path 1075" d="M503.223,848.317l-10.328-5.963,2.38-1.374,10.328,5.963Z" transform="translate(-363.47 -805.824)" fill="#f7c3be"/>
          <path id="Path_1076" data-name="Path 1076" d="M425.044,827.872l-4.925-2.843,2.38-1.374,4.925,2.843Z" transform="translate(-347.682 -802.065)" fill="#f7c3be"/>
          <path id="Path_1077" data-name="Path 1077" d="M441.742,837.512l-11.97-6.911,2.38-1.374,11.97,6.911Z" transform="translate(-349.776 -803.274)" fill="#f7c3be"/>
          <path id="Path_1078" data-name="Path 1078" d="M460.391,848.279l-11.97-6.911,2.38-1.374,11.97,6.911Z" transform="translate(-353.822 -805.61)" fill="#f7c3be"/>
          <path id="Path_1079" data-name="Path 1079" d="M514.407,854.775l-4.925-2.843,2.38-1.374,4.925,2.843Z" transform="translate(-367.069 -807.901)" fill="#f7c3be"/>
          <path id="Path_1080" data-name="Path 1080" d="M531.1,864.415l-11.97-6.911,2.38-1.374,11.97,6.911Z" transform="translate(-369.162 -809.11)" fill="#f7c3be"/>
          <path id="Path_1081" data-name="Path 1081" d="M549.753,875.182l-11.97-6.911,2.38-1.374,11.97,6.911Z" transform="translate(-373.208 -811.446)" fill="#f7c3be"/>
          <path id="Path_1082" data-name="Path 1082" d="M417.97,840.248,406,833.337l2.38-1.374,11.97,6.911Z" transform="translate(-344.619 -803.867)" fill="#f7c3be"/>
          <path id="Path_1083" data-name="Path 1083" d="M428.326,846.227l-3.676-2.123,2.38-1.374,3.677,2.123Z" transform="translate(-348.665 -806.203)" fill="#f7c3be"/>
          <path id="Path_1084" data-name="Path 1084" d="M436.4,850.889l-3.677-2.123,2.38-1.374,3.677,2.123Z" transform="translate(-350.417 -807.215)" fill="#f7c3be"/>
          <path id="Path_1085" data-name="Path 1085" d="M449.844,858.65l-9.044-5.222,2.38-1.374,9.044,5.222Z" transform="translate(-352.169 -808.226)" fill="#f7c3be"/>
          <path id="Path_1086" data-name="Path 1086" d="M452.982,860.462l-9.044-5.222,2.38-1.374,9.044,5.222Z" transform="translate(-352.85 -808.619)" fill="#f7c3be"/>
          <path id="Path_1087" data-name="Path 1087" d="M485.648,854.631l-3.676-2.123,2.38-1.374,3.676,2.123Z" transform="translate(-361.1 -808.026)" fill="#f7c3be"/>
          <path id="Path_1088" data-name="Path 1088" d="M499.091,862.393l-9.044-5.222,2.38-1.374,9.044,5.222Z" transform="translate(-362.852 -809.038)" fill="#f7c3be"/>
          <path id="Path_1089" data-name="Path 1089" d="M502.229,864.2l-9.044-5.222,2.38-1.374,9.044,5.222Z" transform="translate(-363.533 -809.431)" fill="#f7c3be"/>
          <path id="Path_1090" data-name="Path 1090" d="M385.553,873.273l-11.792-6.808,2.38-1.374,11.792,6.808Z" transform="translate(-337.625 -811.054)" fill="#f7c3be"/>
          <path id="Path_1091" data-name="Path 1091" d="M397.388,880.106l-5.458-3.151,2.38-1.374,5.458,3.151Z" transform="translate(-341.567 -813.33)" fill="#f7c3be"/>
          <path id="Path_1092" data-name="Path 1092" d="M407.521,885.956l-5.458-3.151,2.38-1.374,5.458,3.151Z" transform="translate(-343.765 -814.599)" fill="#f7c3be"/>
          <path id="Path_1093" data-name="Path 1093" d="M422.523,894.617l-10.328-5.963,2.38-1.374,10.328,5.963Z" transform="translate(-345.963 -815.868)" fill="#f7c3be"/>
          <path id="Path_1094" data-name="Path 1094" d="M434.333,901.436l-5.458-3.151,2.38-1.374,5.458,3.151Z" transform="translate(-349.582 -817.957)" fill="#f7c3be"/>
          <path id="Path_1095" data-name="Path 1095" d="M449.335,910.1l-10.328-5.963,2.38-1.374,10.328,5.963Z" transform="translate(-351.78 -819.226)" fill="#f7c3be"/>
          <path id="Path_1096" data-name="Path 1096" d="M388.8,891.609l-5.458-3.151,2.38-1.374,5.458,3.151Z" transform="translate(-339.704 -815.825)" fill="#f7c3be"/>
          <path id="Path_1097" data-name="Path 1097" d="M403.8,900.27l-10.328-5.963,2.38-1.374,10.328,5.963Z" transform="translate(-341.902 -817.094)" fill="#f7c3be"/>
          <path id="Path_1098" data-name="Path 1098" d="M352.394,870.589l-5.458-3.151,2.38-1.374,5.458,3.151Z" transform="translate(-331.806 -811.265)" fill="#f7c3be"/>
          <path id="Path_1099" data-name="Path 1099" d="M362.527,876.439l-5.458-3.151,2.38-1.374,5.458,3.151Z" transform="translate(-334.004 -812.534)" fill="#f7c3be"/>
          <path id="Path_1100" data-name="Path 1100" d="M377.529,885.1,367.2,879.138l2.38-1.374,10.328,5.963Z" transform="translate(-336.202 -813.803)" fill="#f7c3be"/>
          <path id="Path_1101" data-name="Path 1101" d="M371.558,873.423l-4.925-2.843,2.38-1.374,4.925,2.843Z" transform="translate(-336.079 -811.947)" fill="#f7c3be"/>
          <path id="Path_1102" data-name="Path 1102" d="M388.256,883.063l-11.97-6.911,2.38-1.374,11.97,6.911Z" transform="translate(-338.173 -813.156)" fill="#f7c3be"/>
          <path id="Path_1103" data-name="Path 1103" d="M406.9,893.83l-11.97-6.911,2.38-1.374,11.97,6.911Z" transform="translate(-342.219 -815.492)" fill="#f7c3be"/>
          <path id="Path_1104" data-name="Path 1104" d="M339.584,871.423l-11.97-6.911,2.38-1.374,11.97,6.911Z" transform="translate(-327.614 -810.631)" fill="#f7c3be"/>
          <path id="Path_1105" data-name="Path 1105" d="M349.94,877.4l-3.677-2.123,2.38-1.374,3.677,2.122Z" transform="translate(-331.66 -812.966)" fill="#f7c3be"/>
          <path id="Path_1106" data-name="Path 1106" d="M358.015,882.064l-3.676-2.123,2.38-1.374,3.676,2.123Z" transform="translate(-333.412 -813.978)" fill="#f7c3be"/>
          <path id="Path_1107" data-name="Path 1107" d="M371.459,889.826l-9.044-5.221,2.38-1.374,9.044,5.222Z" transform="translate(-335.164 -814.989)" fill="#f7c3be"/>
          <path id="Path_1108" data-name="Path 1108" d="M374.6,891.637l-9.044-5.222,2.38-1.374,9.044,5.222Z" transform="translate(-335.845 -815.382)" fill="#f7c3be"/>
          <path id="Path_1109" data-name="Path 1109" d="M372.209,857.338l-3.677-2.123,2.38-1.374,3.677,2.123Z" transform="translate(-336.491 -808.614)" fill="#f7c3be"/>
          <path id="Path_1110" data-name="Path 1110" d="M385.652,865.1l-9.044-5.222,2.38-1.374,9.044,5.222Z" transform="translate(-338.243 -809.625)" fill="#f7c3be"/>
          <path id="Path_1111" data-name="Path 1111" d="M400.906,873.906l-9.044-5.222,2.38-1.374,9.044,5.222Z" transform="translate(-341.552 -811.536)" fill="#f7c3be"/>
          <path id="Path_1112" data-name="Path 1112" d="M448.959,918.11l-5.458-3.151,2.38-1.374,5.458,3.151Z" transform="translate(-352.755 -821.574)" fill="#f7c3be"/>
          <path id="Path_1113" data-name="Path 1113" d="M463.961,926.772l-10.328-5.963,2.38-1.374,10.328,5.963Z" transform="translate(-354.953 -822.843)" fill="#f7c3be"/>
          <path id="Path_1114" data-name="Path 1114" d="M422.227,902.677l-9.044-5.222,2.38-1.374,9.044,5.222Z" transform="translate(-346.178 -817.777)" fill="#f7c3be"/>
          <path id="Path_1115" data-name="Path 1115" d="M437.481,911.483l-9.044-5.222,2.38-1.374,9.044,5.222Z" transform="translate(-349.487 -819.688)" fill="#f7c3be"/>
          <path id="Path_1116" data-name="Path 1116" d="M383.306,836.695l-3.676-2.123,2.38-1.374,3.676,2.122Z" transform="translate(-338.898 -804.135)" fill="#f7c3be"/>
          <path id="Path_1117" data-name="Path 1117" d="M396.749,844.456l-9.044-5.222,2.38-1.374,9.044,5.222Z" transform="translate(-340.65 -805.147)" fill="#f7c3be"/>
          <path id="Path_1118" data-name="Path 1118" d="M412,853.263l-9.044-5.222,2.38-1.374,9.044,5.222Z" transform="translate(-343.959 -807.057)" fill="#f7c3be"/>
        </g>
        <path id="Path_1119" data-name="Path 1119" d="M221.734,813.3a7.935,7.935,0,0,1-3.9-.9l-9.513-5.491a2.881,2.881,0,0,1-1.652-2.44,3.862,3.862,0,0,1,2.27-3.091l28.3-16.339c2.631-1.519,6.636-1.68,8.925-.356l9.512,5.492a2.879,2.879,0,0,1,1.651,2.439,3.863,3.863,0,0,1-2.269,3.092l-28.3,16.338A10.305,10.305,0,0,1,221.734,813.3Zm20.536-28.864a9.667,9.667,0,0,0-4.7,1.174l-28.3,16.339a3.257,3.257,0,0,0-1.942,2.522,2.26,2.26,0,0,0,1.324,1.872l9.512,5.492c2.108,1.213,5.816,1.056,8.267-.356l28.3-16.338a3.257,3.257,0,0,0,1.94-2.524,2.259,2.259,0,0,0-1.322-1.871l-9.513-5.492A7.278,7.278,0,0,0,242.27,784.435Z" transform="translate(-206.673 -738.874)" fill="#f7c3be"/>
        <path id="Path_1120" data-name="Path 1120" d="M280.8,847.4a7.936,7.936,0,0,1-3.9-.9l-31.715-18.31a2.881,2.881,0,0,1-1.652-2.441,3.862,3.862,0,0,1,2.269-3.09l28.3-16.339c2.633-1.518,6.635-1.681,8.925-.356l31.715,18.311a2.88,2.88,0,0,1,1.652,2.439,3.865,3.865,0,0,1-2.269,3.092l-28.3,16.338A10.322,10.322,0,0,1,280.8,847.4Zm-1.668-41.682a9.671,9.671,0,0,0-4.7,1.174l-28.3,16.339a3.257,3.257,0,0,0-1.94,2.521,2.259,2.259,0,0,0,1.324,1.872l31.716,18.31c2.107,1.218,5.818,1.06,8.267-.356l28.3-16.338a3.256,3.256,0,0,0,1.94-2.524,2.261,2.261,0,0,0-1.323-1.871L282.7,806.532A7.279,7.279,0,0,0,279.128,805.715Z" transform="translate(-214.669 -743.491)" fill="#f7c3be"/>
        <path id="Path_1121" data-name="Path 1121" d="M332.688,803.2a8.345,8.345,0,0,1-4.091-.94l-60.162-34.734a3.014,3.014,0,0,1-1.73-2.553c0-1.185.867-2.365,2.378-3.237l58.862-33.985c2.76-1.6,6.964-1.764,9.372-.374l60.163,34.735a3.013,3.013,0,0,1,1.73,2.551c0,1.185-.868,2.366-2.379,3.238l-58.863,33.984A10.857,10.857,0,0,1,332.688,803.2Zm-3.763-1.508c2.223,1.28,6.134,1.115,8.715-.374L396.5,767.329c1.3-.752,2.051-1.725,2.051-2.669a2.394,2.394,0,0,0-1.4-1.983l-60.163-34.736c-2.222-1.283-6.131-1.114-8.715.375L269.412,762.3a3.439,3.439,0,0,0-2.049,2.669,2.4,2.4,0,0,0,1.4,1.985Z" transform="translate(-219.696 -726.431)" fill="#f7c3be"/>
      </g>
    </g>
    <g id="Group_1152" data-name="Group 1152" transform="translate(941.613 382.539)">
      <g id="Group_84" data-name="Group 84" transform="translate(3.143)" opacity="0.3" style="mix-blend-mode: multiply;isolation: isolate">
        <path id="Path_733" data-name="Path 733" d="M576.85,529.4c-11.343-6.548-20.537-1.306-20.537,11.709v20.582c0,13.015,9.195,28.875,20.537,35.424L694.56,665.335c11.341,6.548,25.082.587,25.082-12.428V632.325c0-13.015-13.741-28.156-25.082-34.7Z" transform="translate(-550.709 -526.583)" opacity="0" fill="url(#linear-gradient-21)"/>
        <path id="Path_734" data-name="Path 734" d="M576.352,530.114c-11.288-6.516-20.437-1.3-20.437,11.653V560.9c0,12.953,9.15,28.735,20.437,35.251l117.037,67.829c11.287,6.517,24.57.646,24.57-12.307V632.54c0-12.953-13.282-28.08-24.57-34.6Z" transform="translate(-550.821 -526.378)" opacity="0.091" fill="url(#linear-gradient-22)"/>
        <path id="Path_735" data-name="Path 735" d="M575.854,530.825c-11.233-6.484-20.337-1.293-20.337,11.6v17.7c0,12.888,9.1,28.594,20.337,35.078l116.361,67.439c11.232,6.485,24.056.705,24.056-12.183V632.755c0-12.89-12.823-28.006-24.056-34.491Z" transform="translate(-550.932 -526.174)" opacity="0.182" fill="url(#linear-gradient-23)"/>
        <path id="Path_736" data-name="Path 736" d="M575.357,531.537c-11.176-6.453-20.238-1.288-20.238,11.538v16.253c0,12.824,9.061,28.453,20.238,34.9l115.687,67.049c11.177,6.453,23.543.764,23.543-12.06V632.968c0-12.824-12.366-27.93-23.543-34.382Z" transform="translate(-551.045 -525.97)" opacity="0.273" fill="url(#linear-gradient-24)"/>
        <path id="Path_737" data-name="Path 737" d="M574.858,532.248c-11.121-6.421-20.136-1.282-20.136,11.48v14.81c0,12.762,9.015,28.312,20.136,34.733l115.014,66.66c11.121,6.421,23.029.823,23.029-11.939V633.183c0-12.762-11.908-27.854-23.029-34.276Z" transform="translate(-551.157 -525.766)" opacity="0.364" fill="url(#linear-gradient-25)"/>
        <path id="Path_738" data-name="Path 738" d="M574.361,532.959c-11.066-6.389-20.036-1.275-20.036,11.424v13.366c0,12.7,8.97,28.171,20.036,34.56L688.7,658.579c11.066,6.389,22.515.883,22.515-11.816V633.4c0-12.7-11.449-27.779-22.515-34.168Z" transform="translate(-551.268 -525.562)" opacity="0.455" fill="url(#linear-gradient-26)"/>
        <path id="Path_739" data-name="Path 739" d="M573.863,533.67c-11.011-6.357-19.936-1.268-19.936,11.366V556.96c0,12.635,8.926,28.03,19.936,34.387l113.665,65.882c11.011,6.357,22,.941,22-11.694V633.612c0-12.635-10.992-27.7-22-34.06Z" transform="translate(-551.38 -525.358)" opacity="0.545" fill="url(#linear-gradient-27)"/>
        <path id="Path_740" data-name="Path 740" d="M573.367,534.381c-10.956-6.325-19.836-1.261-19.836,11.309v10.48c0,12.572,8.881,27.89,19.836,34.215l112.989,65.492c10.956,6.325,21.49,1,21.49-11.572v-10.48c0-12.571-10.534-27.628-21.49-33.953Z" transform="translate(-551.492 -525.153)" opacity="0.636" fill="url(#linear-gradient-28)"/>
        <path id="Path_741" data-name="Path 741" d="M572.868,535.092c-10.9-6.293-19.736-1.255-19.736,11.253v9.037c0,12.508,8.837,27.749,19.736,34.042l112.316,65.1c10.9,6.293,20.976,1.059,20.976-11.449V634.04c0-12.508-10.076-27.553-20.976-33.846Z" transform="translate(-551.604 -524.949)" opacity="0.727" fill="url(#linear-gradient-29)"/>
        <path id="Path_742" data-name="Path 742" d="M572.372,535.8c-10.846-6.261-19.637-1.248-19.637,11.2v7.6c0,12.444,8.791,27.607,19.637,33.869l111.641,64.713c10.844,6.261,20.462,1.118,20.462-11.326v-7.6c0-12.444-9.618-27.476-20.462-33.739Z" transform="translate(-551.716 -524.745)" opacity="0.818" fill="url(#linear-gradient-30)"/>
        <path id="Path_743" data-name="Path 743" d="M571.873,536.514c-10.789-6.229-19.535-1.242-19.535,11.139V553.8c0,12.38,8.746,27.466,19.535,33.7L682.84,651.824c10.789,6.229,19.949,1.177,19.949-11.2v-6.151c0-12.381-9.16-27.4-19.949-33.631Z" transform="translate(-551.828 -524.541)" opacity="0.909" fill="url(#linear-gradient-31)"/>
        <path id="Path_744" data-name="Path 744" d="M571.375,537.225c-10.734-6.2-19.435-1.236-19.435,11.081v4.709c0,12.318,8.7,27.326,19.435,33.523l110.293,63.935c10.734,6.2,19.436,1.236,19.436-11.081v-4.709c0-12.317-8.7-27.326-19.436-33.523Z" transform="translate(-551.94 -524.337)" fill="url(#linear-gradient-32)"/>
      </g>
      <path id="Path_745" data-name="Path 745" d="M695.379,662.8,566.357,588.07c-9.278-5.357-16.869-19.861-16.869-32.233v-8.785c0-12.372,7.591-18.11,16.869-12.754l129.022,74.733c9.278,5.357,16.868,19.861,16.868,32.231v8.786C712.247,662.42,704.657,668.159,695.379,662.8Z" transform="translate(-549.488 -524.974)" opacity="0.8" fill="url(#linear-gradient-33)"/>
      <path id="Path_746" data-name="Path 746" d="M695.379,609.032,566.357,534.3c-9.278-5.356-16.869.382-16.869,12.753v1.894c0-12.371,7.591-18.11,16.869-12.753l129.022,74.733c9.278,5.356,16.868,19.861,16.868,32.231v-1.894C712.247,628.893,704.657,614.388,695.379,609.032Z" transform="translate(-549.488 -524.974)" fill="url(#radial-gradient-13)" style="mix-blend-mode: color-dodge;isolation: isolate"/>
      <ellipse id="Ellipse_9" data-name="Ellipse 9" cx="13.702" cy="23.733" rx="13.702" ry="23.733" transform="matrix(0.863, -0.505, 0.505, 0.863, 16.481, 37.792)" opacity="0.6" fill="url(#linear-gradient-34)"/>
      <ellipse id="Ellipse_10" data-name="Ellipse 10" cx="13.702" cy="23.733" rx="13.702" ry="23.733" transform="matrix(0.863, -0.505, 0.505, 0.863, 55.905, 61.26)" opacity="0.6" fill="url(#linear-gradient-35)"/>
      <ellipse id="Ellipse_11" data-name="Ellipse 11" cx="13.702" cy="23.733" rx="13.702" ry="23.733" transform="translate(95.637 83.903) rotate(-30.311)" opacity="0.6" fill="url(#linear-gradient-36)"/>
      <g id="Group_85" data-name="Group 85" transform="translate(23.453 30.498)" opacity="0.5" style="mix-blend-mode: multiply;isolation: isolate">
        <path id="Path_747" data-name="Path 747" d="M585.477,590.135c-9.3-5.368-16.835-18.368-16.835-29.036,0-5.252,1.833-8.95,4.8-10.721-3.459,1.541-5.651,5.412-5.651,11.148,0,10.669,7.538,23.67,16.835,29.037,4.72,2.725,8.981,2.949,12.037,1.123C593.684,593.01,589.774,592.618,585.477,590.135Z" transform="translate(-567.787 -550.378)" opacity="0.6" fill="url(#linear-gradient-37)"/>
        <path id="Path_748" data-name="Path 748" d="M616.237,608.446c-9.3-5.367-16.835-18.368-16.835-29.036,0-5.252,1.833-8.95,4.8-10.721-3.46,1.541-5.652,5.412-5.652,11.148,0,10.669,7.537,23.669,16.835,29.036,4.72,2.726,8.981,2.949,12.037,1.124C624.444,611.321,620.534,610.928,616.237,608.446Z" transform="translate(-559.123 -545.22)" opacity="0.6" fill="url(#linear-gradient-38)"/>
        <path id="Path_749" data-name="Path 749" d="M647.237,626.113c-9.3-5.368-16.835-18.368-16.835-29.037,0-5.251,1.833-8.949,4.8-10.72-3.459,1.541-5.651,5.412-5.651,11.148,0,10.669,7.537,23.669,16.835,29.036,4.72,2.726,8.981,2.949,12.037,1.123C655.445,628.988,651.534,628.595,647.237,626.113Z" transform="translate(-550.391 -540.244)" opacity="0.6" fill="url(#linear-gradient-39)"/>
      </g>
      <path id="Path_750" data-name="Path 750" d="M690.488,622.175v17.276l9.325-3.253ZM564.864,566.288V549.012l-9.325,3.254Z" transform="translate(-547.784 -520.265)" opacity="0.9" fill="url(#linear-gradient-40)"/>
      <g id="Group_87" data-name="Group 87" transform="translate(29.882 35.405)" style="mix-blend-mode: screen;isolation: isolate">
        <path id="Path_751" data-name="Path 751" d="M573.973,574.882a9.774,9.774,0,0,1-1.17-4.785V557.934q0-2.651,1.17-3.432t3.4.5a8.807,8.807,0,0,1,3.4,3.417,9.786,9.786,0,0,1,1.17,4.784V565.6l-2.932-1.693v-2.621a3.185,3.185,0,0,0-1.551-3Q575.9,557.4,575.9,559.5v12.649a3.155,3.155,0,0,0,1.551,2.966q1.55.9,1.551-1.175v-3.462l2.932,1.693v3.2q0,2.653-1.17,3.432t-3.4-.505A8.8,8.8,0,0,1,573.973,574.882Z" transform="translate(-572.803 -554.207)" fill="url(#linear-gradient-41)"/>
        <path id="Path_752" data-name="Path 752" d="M582.213,574.273l-1.382-.8.226-2.393,1.382.8.536-5.611-1.41-.814.226-2.393,1.41.814.479-4.932,2.452,1.416-.479,4.932,2,1.155.479-4.931,2.453,1.415-.479,4.932,1.438.831-.226,2.393-1.438-.83-.536,5.611,1.438.831-.226,2.393-1.438-.831-.592,6.128-2.453-1.416.592-6.128-2-1.155-.592,6.128-2.453-1.416Zm4.679.178.536-5.611-2-1.155-.536,5.61Z" transform="translate(-570.542 -552.873)" fill="url(#linear-gradient-42)"/>
        <path id="Path_753" data-name="Path 753" d="M605.835,595.246v-3.235a6.433,6.433,0,0,0,1.015.715c.619.358,1.081.446,1.38.264s.451-.64.451-1.374v-17.37l3.1,1.791v17.274q0,2.782-1.114,3.5t-3.4-.6A11.728,11.728,0,0,1,605.835,595.246Z" transform="translate(-563.499 -548.563)" fill="url(#linear-gradient-43)"/>
        <path id="Path_754" data-name="Path 754" d="M612.951,598.223a10.124,10.124,0,0,1-1.155-4.888v-1.294l2.931,1.693v1.552a3.315,3.315,0,0,0,1.607,3.127q.788.456,1.2.159t.409-1.5a7.587,7.587,0,0,0-.564-2.833,25.352,25.352,0,0,0-2.087-3.808,30.229,30.229,0,0,1-2.679-5.056,11.178,11.178,0,0,1-.761-3.982q0-2.684,1.184-3.473t3.44.514a8.6,8.6,0,0,1,3.368,3.417,10.175,10.175,0,0,1,1.142,4.881v.938l-2.931-1.693v-1.164a4.173,4.173,0,0,0-.395-1.926,2.913,2.913,0,0,0-1.156-1.2q-1.551-.9-1.551,1.271a6.911,6.911,0,0,0,.578,2.631,26.79,26.79,0,0,0,2.1,3.8,28.012,28.012,0,0,1,2.677,5.073,12,12,0,0,1,.733,4.142q0,2.784-1.2,3.578t-3.481-.522A8.732,8.732,0,0,1,612.951,598.223Z" transform="translate(-561.82 -547.61)" fill="url(#linear-gradient-44)"/>
        <g id="Group_86" data-name="Group 86" transform="translate(84.945 47.6)" opacity="0.9">
          <path id="Path_755" data-name="Path 755" d="M639.08,591.346l4.8,2.774a9.613,9.613,0,0,1,3.655,3.446,9.424,9.424,0,0,1,1.15,4.773v1.455q0,3.687-2.122,3.443v.068a5.952,5.952,0,0,1,1.665,2.618,12.052,12.052,0,0,1,.487,3.63v4.16q0,1.015.058,1.674a6.681,6.681,0,0,0,.295,1.4l-3.3-1.906a8.422,8.422,0,0,1-.236-1.218q-.06-.542-.059-1.861v-4.33a5.709,5.709,0,0,0-.457-2.53,3.839,3.839,0,0,0-1.576-1.553l-1.12-.647v10.148l-3.243-1.873Zm4.422,12.7q.973.561,1.459.267t.487-1.647v-1.826a4.732,4.732,0,0,0-.4-2.09,3.062,3.062,0,0,0-1.252-1.3l-1.474-.851v6.766Z" transform="translate(-639.08 -591.346)" fill="url(#linear-gradient-45)"/>
        </g>
      </g>
    </g>
    <g id="Group_1154" data-name="Group 1154" transform="translate(982.665 322.393)">
      <path id="Path_6225" data-name="Path 6225" d="M566.336,458.089l-39.783-22.97c-3.394-1.958-6.144-7.215-6.144-11.739h0c0-4.524,2.75-6.6,6.144-4.645l39.783,22.97c3.394,1.958,6.144,7.214,6.144,11.739h0C572.481,457.968,569.73,460.047,566.336,458.089Z" transform="translate(-500.952 -417.998)" opacity="0.8" fill="url(#linear-gradient-46)"/>
      <path id="Path_6226" data-name="Path 6226" d="M566.336,458.089l-39.783-22.97c-3.394-1.958-6.144-7.215-6.144-11.739h0c0-4.524,2.75-6.6,6.144-4.645l39.783,22.97c3.394,1.958,6.144,7.214,6.144,11.739h0C572.481,457.968,569.73,460.047,566.336,458.089Z" transform="translate(-504.791 -378.655)" opacity="0.8" fill="url(#linear-gradient-46)"/>
      <g id="Group_1153" data-name="Group 1153" transform="translate(0 9.153)">
        <path id="Path_530" data-name="Path 530" d="M578.152,503.461V490.027l-19.5-10.945-.633,1.114,18.849,10.577v11.948l-2.765-1.6,3.113,8.009,3.114-4.413Z" transform="translate(-490.359 -441.612)" fill="#9fa8ae"/>
        <path id="Path_531" data-name="Path 531" d="M540.825,455.438l3.114-4.413-2.441-1.409v-7.5l-1.282-.384v7.148l-2.505-1.446Z" transform="translate(-496.079 -420.467)" fill="#9fa8ae"/>
        <path id="Path_532" data-name="Path 532" d="M508.915,470.026l3.113-4.413-2.23-1.288v-12.26l14.383,8.339.641-1.111-16.306-9.445v13.738l-2.716-1.568Z" transform="translate(-505.067 -449.847)" fill="#9fa8ae"/>
        <path id="Path_533" data-name="Path 533" d="M588.537,541,506.51,493.773v-7.718l-1.282-.385v8.843L549.365,520v9.582l-2.505-1.446,3.114,8.009,3.114-4.413-2.441-1.409V520.74l38.21,21.924.961.553V533.8l-1.282-.385Z" transform="translate(-505.228 -439.756)" fill="#9fa8ae"/>
      </g>
    </g>
  </g>
</svg>
