<?xml version="1.0" encoding="utf-8"?>
<!-- Generator: Adobe Illustrator 21.1.0, SVG Export Plug-In . SVG Version: 6.00 Build 0)  -->
<svg version="1.1" id="Layer_1" xmlns="http://www.w3.org/2000/svg" xmlns:xlink="http://www.w3.org/1999/xlink" x="0px" y="0px"
	 viewBox="0 0 16 16" style="enable-background:new 0 0 16 16;" xml:space="preserve">
<style type="text/css">
	.st0{fill:#E53B2A;}
	.st1{fill:#FFFFFF;}
</style>
<g>
	<circle class="st0" cx="8" cy="8" r="8"/>
	<g>
		<g>
			<path class="st1" d="M11,9.5c-0.3-0.2-0.5-0.1-0.8,0.3c-0.8,1.1-2.1,1.3-3.2,0.8C5.9,9.9,5.3,8.6,5.6,7.3c0.3-1.1,1-1.8,2-2
				c1.1-0.3,2,0.1,2.7,1c0.3,0.4,0.6,0.4,0.8,0.2c0.3-0.2,0.3-0.5,0-0.9C10.2,4.4,9,3.9,7.5,4.2C6,4.5,4.7,5.8,4.5,7.4
				c-0.2,1.7,0.6,3.4,2.1,4.1c0.2,0.1,0.5,0.2,0.8,0.3c0.6,0.2,1.1,0.2,1.7,0.1c0.2-0.1,0.5-0.1,0.7-0.2c0.5-0.2,0.8-0.5,1.2-0.9
				c0.1-0.2,0.3-0.3,0.4-0.5C11.4,9.9,11.3,9.6,11,9.5z"/>
		</g>
	</g>
</g>
</svg>
