<svg id="Driving_the_future_Image" data-name="Driving the future Image" xmlns="http://www.w3.org/2000/svg" xmlns:xlink="http://www.w3.org/1999/xlink" width="628.575" height="517.28" viewBox="0 0 628.575 517.28">
  <defs>
    <linearGradient id="linear-gradient" x1="1" y1="0.5" x2="0" y2="0.5" gradientUnits="objectBoundingBox">
      <stop offset="0" stop-color="#f7c3be"/>
      <stop offset="0.052" stop-color="#f5b4ad"/>
      <stop offset="0.194" stop-color="#f09086"/>
      <stop offset="0.341" stop-color="#ec7265"/>
      <stop offset="0.492" stop-color="#e95b4c"/>
      <stop offset="0.647" stop-color="#e74a3a"/>
      <stop offset="0.812" stop-color="#e6412f"/>
      <stop offset="1" stop-color="#e63e2c"/>
    </linearGradient>
    <linearGradient id="linear-gradient-3" x1="0.031" y1="0.015" x2="1.554" y2="1.486" gradientUnits="objectBoundingBox">
      <stop offset="0" stop-color="#5e6e77"/>
      <stop offset="0.181" stop-color="#62727b"/>
      <stop offset="0.394" stop-color="#717f87"/>
      <stop offset="0.624" stop-color="#88959b"/>
      <stop offset="0.864" stop-color="#a9b2b7"/>
      <stop offset="1" stop-color="#c0c7ca"/>
    </linearGradient>
    <linearGradient id="linear-gradient-4" x1="1" y1="0.5" x2="-1.181" y2="0.5" xlink:href="#linear-gradient-3"/>
    <linearGradient id="linear-gradient-5" x1="0.491" y1="0.541" x2="1.21" y2="-0.295" xlink:href="#linear-gradient-3"/>
    <linearGradient id="linear-gradient-6" x1="1" y1="0.5" x2="-0.577" y2="0.5" xlink:href="#linear-gradient-3"/>
    <linearGradient id="linear-gradient-7" x1="1" y1="0.5" x2="0" y2="0.5" xlink:href="#linear-gradient-3"/>
    <linearGradient id="linear-gradient-8" x1="0.541" y1="0.5" x2="-0.459" y2="0.5" gradientUnits="objectBoundingBox">
      <stop offset="0" stop-color="#c0c7ca"/>
      <stop offset="0.298" stop-color="#c4cbce"/>
      <stop offset="0.649" stop-color="#d3d7da"/>
      <stop offset="1" stop-color="#e9ebed"/>
    </linearGradient>
    <linearGradient id="linear-gradient-9" x1="1" y1="0.5" x2="0" y2="0.5" gradientUnits="objectBoundingBox">
      <stop offset="0" stop-color="#e9ebed"/>
      <stop offset="0.351" stop-color="#d3d7da"/>
      <stop offset="0.702" stop-color="#c4cbce"/>
      <stop offset="1" stop-color="#c0c7ca"/>
    </linearGradient>
    <linearGradient id="linear-gradient-10" x1="0.17" y1="0.147" x2="0.533" y2="0.697" gradientUnits="objectBoundingBox">
      <stop offset="0.355" stop-color="#c0c7ca"/>
      <stop offset="0.445" stop-color="#b9c0c4"/>
      <stop offset="0.572" stop-color="#a6afb4"/>
      <stop offset="0.698" stop-color="#8e99a0"/>
      <stop offset="0.866" stop-color="#65747d"/>
      <stop offset="0.892" stop-color="#5e6e77"/>
    </linearGradient>
    <clipPath id="clip-path">
      <path id="Path_1014" data-name="Path 1014" d="M723.212,679.291l1.027-.593c3.8-2.2,3.326-6.031-1.065-8.567l-30.96-17.874c-4.392-2.536-11.035-2.811-14.838-.615l-1.027.593c-3.8,2.2-3.326,6.03,1.065,8.567l30.959,17.874C712.766,681.211,719.409,681.486,723.212,679.291Z" transform="translate(-673.782 -650.159)" fill="none"/>
    </clipPath>
    <linearGradient id="linear-gradient-12" x1="1" y1="0.5" x2="0" y2="0.5" gradientUnits="objectBoundingBox">
      <stop offset="0" stop-color="#f39f96"/>
      <stop offset="0.173" stop-color="#f29a91"/>
      <stop offset="0.377" stop-color="#f08d82"/>
      <stop offset="0.597" stop-color="#ed776b"/>
      <stop offset="0.826" stop-color="#e9594a"/>
      <stop offset="1" stop-color="#e63e2c"/>
    </linearGradient>
    <linearGradient id="linear-gradient-13" x1="1.148" y1="0.5" x2="0.148" y2="0.5" gradientUnits="objectBoundingBox">
      <stop offset="0.355" stop-color="#f5b4ad"/>
      <stop offset="0.43" stop-color="#f4ada6"/>
      <stop offset="0.536" stop-color="#f29d93"/>
      <stop offset="0.661" stop-color="#ef8175"/>
      <stop offset="0.698" stop-color="#ee786b"/>
      <stop offset="0.828" stop-color="#e85242"/>
      <stop offset="0.892" stop-color="#e63e2c"/>
    </linearGradient>
    <linearGradient id="linear-gradient-14" x1="1" y1="0.5" x2="0" y2="0.5" gradientUnits="objectBoundingBox">
      <stop offset="0" stop-color="#fce6e4"/>
      <stop offset="0.133" stop-color="#fadad7"/>
      <stop offset="0.451" stop-color="#f7c5c0"/>
      <stop offset="0.748" stop-color="#f5b8b1"/>
      <stop offset="1" stop-color="#f5b4ad"/>
    </linearGradient>
    <linearGradient id="linear-gradient-15" x1="30.173" y1="0.5" x2="29.173" y2="0.5" xlink:href="#linear-gradient-3"/>
    <linearGradient id="linear-gradient-16" x1="29.822" x2="28.822" xlink:href="#linear-gradient-8"/>
    <linearGradient id="linear-gradient-17" x1="115.698" x2="114.698" xlink:href="#linear-gradient-8"/>
    <linearGradient id="linear-gradient-18" x1="41.793" x2="40.793" xlink:href="#linear-gradient-8"/>
    <linearGradient id="linear-gradient-19" x1="243.391" y1="0.5" x2="242.391" y2="0.5" xlink:href="#linear-gradient-3"/>
  </defs>
  <g id="Group_156" data-name="Group 156" transform="translate(0)">
    <g id="Group_155" data-name="Group 155">
      <path id="Path_966" data-name="Path 966" d="M487.462,692.086l33.151-18.558c7.436-4.164,13.975-13.331,16.271-22.809l28.708-118.611c3.394-14.023,14.671-24.14,22.667-24.448,4-.163,6.869,2.032,8.264,6.324l8.648,26.58a9.357,9.357,0,0,0,5.455,6.206c3.1,1.192,7,.577,10.984-1.726l5.985-3.456c7.038-4.06,13.208-12.521,15.723-21.549,3.779-13.573,14.282-22.669,21.843-23.311a7.833,7.833,0,0,1,8.255,4.88l9.491,20.113a8.846,8.846,0,0,0,5.375,4.895c3,.941,6.723.265,10.476-1.9l6.853-3.953c7.518-4.341,14-13.67,16.141-23.213l28.688-128.126c3.147-14.055,14.386-24.441,22.508-24.972,3.979-.234,6.9,1.771,8.4,5.879l46.59,127.309a9.188,9.188,0,0,0,5.437,5.8c3.074,1.12,6.925.485,10.844-1.781l23.56-13.6-.4-.683-23.56,13.6c-3.713,2.142-7.33,2.757-10.178,1.72a8.419,8.419,0,0,1-4.966-5.328L782.09,350.054c-1.612-4.408-4.863-6.671-9.193-6.4-8.4.55-20.006,11.193-23.229,25.588L720.981,497.37c-2.059,9.2-8.54,18.53-15.763,22.7l-6.853,3.956c-3.558,2.056-7.055,2.711-9.845,1.834a8.082,8.082,0,0,1-4.9-4.477l-9.491-20.113a8.674,8.674,0,0,0-9.035-5.331c-7.827.664-18.67,9.987-22.541,23.888-2.423,8.7-8.593,17.172-15.356,21.076l-5.985,3.457c-3.776,2.177-7.433,2.774-10.306,1.671a8.593,8.593,0,0,1-4.985-5.713l-8.649-26.581c-1.495-4.595-4.732-7-9.046-6.868-8.454.326-19.877,10.469-23.408,25.051L536.114,650.531c-2.247,9.28-8.631,18.244-15.886,22.306L487.078,691.4Z" transform="translate(-487.078 -343.634)" fill="#f7c3be"/>
      <path id="Path_967" data-name="Path 967" d="M459.006,708.44l33.149-18.557c7.438-4.165,13.977-13.332,16.271-22.809l28.71-118.611c3.394-14.024,14.671-24.14,22.665-24.448,4.03-.142,6.87,2.034,8.266,6.323l8.646,26.581a9.361,9.361,0,0,0,5.453,6.206c3.1,1.191,7,.577,10.988-1.727l5.985-3.452c6.93-4,13.249-12.665,15.723-21.551,3.777-13.574,14.28-22.671,21.843-23.312a7.839,7.839,0,0,1,8.254,4.88l9.493,20.112a8.842,8.842,0,0,0,5.373,4.9c3,.943,6.724.265,10.478-1.9l6.851-3.953c7.516-4.34,14-13.668,16.142-23.212l28.686-128.127c3.147-14.054,14.388-24.442,22.51-24.973,3.972-.23,6.9,1.774,8.4,5.88l46.589,127.309a9.187,9.187,0,0,0,5.438,5.8c3.068,1.117,6.923.484,10.842-1.782l23.562-13.6-.4-.685-23.562,13.6c-3.713,2.145-7.323,2.752-10.178,1.724a8.424,8.424,0,0,1-4.964-5.329l-46.59-127.309c-1.614-4.409-4.9-6.683-9.193-6.4-8.4.55-20.008,11.194-23.231,25.589L692.524,513.727c-2.06,9.2-8.543,18.53-15.764,22.7l-6.851,3.955c-3.56,2.056-7.059,2.707-9.847,1.834a8.073,8.073,0,0,1-4.895-4.477l-9.493-20.113a8.7,8.7,0,0,0-9.035-5.332c-7.826.667-18.67,9.988-22.54,23.891-2.422,8.7-8.592,17.171-15.355,21.077l-5.985,3.452c-3.776,2.182-7.439,2.773-10.308,1.675a8.6,8.6,0,0,1-4.985-5.715l-8.647-26.581c-1.5-4.595-4.753-7.035-9.048-6.868-8.453.325-19.875,10.471-23.406,25.051l-28.71,118.611c-2.245,9.277-8.629,18.242-15.886,22.306L458.621,707.75Z" transform="translate(-433.466 -345.531)" fill="#f7c3be"/>
      <rect id="Rectangle_39" data-name="Rectangle 39" width="29.256" height="0.792" transform="matrix(-0.867, -0.499, 0.499, -0.867, 315.744, 16.323)" fill="#f7c3be"/>
      <rect id="Rectangle_40" data-name="Rectangle 40" width="29.62" height="0.792" transform="translate(208.756 168.953) rotate(-150.062)" fill="#f7c3be"/>
      <path id="Path_968" data-name="Path 968" d="M795.4,545.1l.4-.687-26.746-15.348-.4.687Z" transform="translate(-663.997 -365.147)" fill="#f7c3be"/>
      <path id="Path_969" data-name="Path 969" d="M487.462,692.086l33.151-18.558c7.436-4.164,13.975-13.331,16.271-22.809l28.708-118.611c3.394-14.023,14.671-24.14,22.667-24.448,4-.163,6.869,2.032,8.264,6.324l8.648,26.58a9.357,9.357,0,0,0,5.455,6.206c3.1,1.192,7,.577,10.984-1.726l5.985-3.456c7.038-4.06,13.208-12.521,15.723-21.549,3.779-13.573,14.282-22.669,21.843-23.311a7.833,7.833,0,0,1,8.255,4.88l9.491,20.113a8.846,8.846,0,0,0,5.375,4.895c3,.941,6.723.265,10.476-1.9l6.853-3.953c7.518-4.341,14-13.67,16.141-23.213l28.688-128.126c3.147-14.055,14.386-24.441,22.508-24.972,3.979-.234,6.9,1.771,8.4,5.879l46.59,127.309a9.188,9.188,0,0,0,5.437,5.8c3.074,1.12,6.925.485,10.844-1.781l23.56-13.6-.4-.683-23.56,13.6c-3.713,2.142-7.33,2.757-10.178,1.72a8.419,8.419,0,0,1-4.966-5.328L782.09,350.054c-1.612-4.408-4.863-6.671-9.193-6.4-8.4.55-20.006,11.193-23.229,25.588L720.981,497.37c-2.059,9.2-8.54,18.53-15.763,22.7l-6.853,3.956c-3.558,2.056-7.055,2.711-9.845,1.834a8.082,8.082,0,0,1-4.9-4.477l-9.491-20.113a8.674,8.674,0,0,0-9.035-5.331c-7.827.664-18.67,9.987-22.541,23.888-2.423,8.7-8.593,17.172-15.356,21.076l-5.985,3.457c-3.776,2.177-7.433,2.774-10.306,1.671a8.593,8.593,0,0,1-4.985-5.713l-8.649-26.581c-1.495-4.595-4.732-7-9.046-6.868-8.454.326-19.877,10.469-23.408,25.051L536.114,650.531c-2.247,9.28-8.631,18.244-15.886,22.306L487.078,691.4Z" transform="translate(-487.078 -343.634)" fill="#f7c3be"/>
      <path id="Path_970" data-name="Path 970" d="M459.006,708.44l33.149-18.557c7.438-4.165,13.977-13.332,16.271-22.809l28.71-118.611c3.394-14.024,14.671-24.14,22.665-24.448,4.03-.142,6.87,2.034,8.266,6.323l8.646,26.581a9.361,9.361,0,0,0,5.453,6.206c3.1,1.191,7,.577,10.988-1.727l5.985-3.452c6.93-4,13.249-12.665,15.723-21.551,3.777-13.574,14.28-22.671,21.843-23.312a7.839,7.839,0,0,1,8.254,4.88l9.493,20.112a8.842,8.842,0,0,0,5.373,4.9c3,.943,6.724.265,10.478-1.9l6.851-3.953c7.516-4.34,14-13.668,16.142-23.212l28.686-128.127c3.147-14.054,14.388-24.442,22.51-24.973,3.972-.23,6.9,1.774,8.4,5.88l46.589,127.309a9.187,9.187,0,0,0,5.438,5.8c3.068,1.117,6.923.484,10.842-1.782l23.562-13.6-.4-.685-23.562,13.6c-3.713,2.145-7.323,2.752-10.178,1.724a8.424,8.424,0,0,1-4.964-5.329l-46.59-127.309c-1.614-4.409-4.9-6.683-9.193-6.4-8.4.55-20.008,11.194-23.231,25.589L692.524,513.727c-2.06,9.2-8.543,18.53-15.764,22.7l-6.851,3.955c-3.56,2.056-7.059,2.707-9.847,1.834a8.073,8.073,0,0,1-4.895-4.477l-9.493-20.113a8.7,8.7,0,0,0-9.035-5.332c-7.826.667-18.67,9.988-22.54,23.891-2.422,8.7-8.592,17.171-15.355,21.077l-5.985,3.452c-3.776,2.182-7.439,2.773-10.308,1.675a8.6,8.6,0,0,1-4.985-5.715l-8.647-26.581c-1.5-4.595-4.753-7.035-9.048-6.868-8.453.325-19.875,10.471-23.406,25.051l-28.71,118.611c-2.245,9.277-8.629,18.242-15.886,22.306L458.621,707.75Z" transform="translate(-433.466 -345.531)" fill="#f7c3be"/>
    </g>
    <path id="Path_971" data-name="Path 971" d="M867.613,467.761l-23.561,13.6c-7.078,4.087-13.382,2.556-15.713-3.814l-46.59-127.309c-5.321-14.541-27.066-1.395-31.664,19.141L721.4,497.509c-2.1,9.364-8.586,18.7-15.952,22.955l-6.852,3.956c-6.658,3.844-12.675,2.736-15.3-2.818l-9.492-20.112c-5.884-12.467-25.491-.708-30.837,18.494h0c-2.465,8.858-8.645,17.333-15.539,21.313l-5.985,3.456c-7.257,4.19-13.678,2.466-15.867-4.26l-8.647-26.581c-4.88-15-26.691-2.51-31.693,18.154l-28.709,118.61c-2.257,9.322-8.777,18.471-16.079,22.558L487.3,691.792Z" transform="translate(-487.108 -343.686)" opacity="0.5" fill="url(#linear-gradient)" style="mix-blend-mode: lighten;isolation: isolate"/>
    <path id="Path_972" data-name="Path 972" d="M839.156,483.7l-23.562,13.6c-7.078,4.086-13.381,2.556-15.712-3.814l-46.59-127.309c-5.322-14.54-27.067-1.394-31.665,19.142L692.94,513.451c-2.1,9.364-8.586,18.7-15.952,22.955l-6.851,3.956c-6.658,3.844-12.676,2.735-15.3-2.818l-9.491-20.112c-5.884-12.467-25.49-.708-30.837,18.494h0c-2.466,8.858-8.646,17.333-15.54,21.313l-5.985,3.456c-7.257,4.19-13.678,2.466-15.866-4.261l-8.647-26.58c-4.881-15-26.691-2.51-31.693,18.154l-28.709,118.61c-2.256,9.322-8.777,18.47-16.079,22.558l-33.148,18.558Z" transform="translate(-433.496 -345.535)" opacity="0.5" fill="url(#linear-gradient)" style="mix-blend-mode: lighten;isolation: isolate"/>
  </g>
  <path id="Path_973" data-name="Path 973" d="M511.479,842.873a19.774,19.774,0,0,0,9.886-2.641L744.474,711.46a7.493,7.493,0,0,0,.015-12.969L607.25,618.81l-.185.107L374.228,753.3a7.494,7.494,0,0,0-.015,12.972l127.336,73.932A19.765,19.765,0,0,0,511.479,842.873Zm9.515-3.282a19.085,19.085,0,0,1-19.074-.027L374.584,765.632a6.754,6.754,0,0,1,.016-11.688L607.25,619.666l136.868,79.467a6.753,6.753,0,0,1-.016,11.687Z" transform="translate(-264.448 -375.559)" fill="#f7c3be"/>
  <g id="Group_181" data-name="Group 181" transform="translate(129.268 113.46)">
    <g id="Group_170" data-name="Group 170" transform="translate(0)">
      <g id="Group_159" data-name="Group 159" transform="translate(27.735 179.34)">
        <path id="Path_974" data-name="Path 974" d="M643.424,799.935a6.107,6.107,0,1,0,6.107-6.107A6.106,6.106,0,0,0,643.424,799.935Z" transform="translate(-570.144 -688.664)" fill="#0e2634"/>
        <path id="Path_975" data-name="Path 975" d="M711.458,722.759a6.107,6.107,0,1,0,6.107-6.107A6.106,6.106,0,0,0,711.458,722.759Z" transform="translate(-698.319 -679.71)" fill="#0e2634"/>
        <path id="Path_976" data-name="Path 976" d="M726.321,775.5a6.107,6.107,0,1,0,6.107-6.107A6.107,6.107,0,0,0,726.321,775.5Z" transform="translate(-726.321 -685.83)" fill="#0e2634"/>
        <g id="Group_158" data-name="Group 158" transform="translate(1.698)">
          <path id="Path_977" data-name="Path 977" d="M577.064,762.481a6.107,6.107,0,1,0,6.107-6.107A6.107,6.107,0,0,0,577.064,762.481Z" transform="translate(-446.822 -684.319)" fill="#0e2634"/>
          <path id="Path_978" data-name="Path 978" d="M619.769,715.815a6.107,6.107,0,1,0,6.107-6.107A6.107,6.107,0,0,0,619.769,715.815Z" transform="translate(-527.277 -678.905)" fill="#0e2634"/>
          <g id="Group_157" data-name="Group 157" transform="translate(0 26.566)">
            <path id="Path_979" data-name="Path 979" d="M581.161,742.2l67.133,12.931a7.7,7.7,0,0,1,.826.125l-.061-.444,3.228-.816v3.81l-.015,0a1.592,1.592,0,0,1-.044.449c-.408,1.49-2.833,2.507-5.415,2.271L579.68,747.6Z" transform="translate(-512.144 -709.24)" fill="url(#linear-gradient-3)"/>
            <path id="Path_980" data-name="Path 980" d="M660.234,716.15l2.044,1.722a7.645,7.645,0,0,1,6.29.47l47.812,20.812-6.694,3.864-47.812-20.812a2.669,2.669,0,0,1-1.62-2.266l-.021.009Z" transform="translate(-647.445 -706.218)" fill="url(#linear-gradient-4)"/>
            <path id="Path_981" data-name="Path 981" d="M652.532,710.571c1.186-1.344,4.036-1.879,6.366-1.194h0a6.018,6.018,0,0,1,.767.285,2.919,2.919,0,0,1,.412-.542,9.489,9.489,0,0,1,1.4-1.005l0,3.794-.017-.013a1.872,1.872,0,0,1-.5,1.157l-30.859,28.173-8.434-2.481Z" transform="translate(-558.46 -705.286)" fill="url(#linear-gradient-5)"/>
            <path id="Path_982" data-name="Path 982" d="M661.92,765.963l1.134.4.65,1.352a5.894,5.894,0,0,1,.8-.3l60.562-24.608,4.3,4.869L668.8,772.285c-2.329.685-5.179.15-6.365-1.194h0a1.819,1.819,0,0,1-.5-1.268l-.022.019Z" transform="translate(-661.92 -709.311)" fill="url(#linear-gradient-6)"/>
            <path id="Path_983" data-name="Path 983" d="M654.438,745.631l9.945,42.609.744-.379,0,3.937-.016-.018c-.134,1.25-1.746,2.325-3.978,2.529-2.581.236-5.006-.781-5.414-2.272l-10.632-45.551Z" transform="translate(-582.805 -709.638)" fill="url(#linear-gradient-7)"/>
            <path id="Path_984" data-name="Path 984" d="M582.266,759.226,638.434,736.4l-44.325-19.294c-1.986-1.147-2.2-2.882-.482-3.874l.465-.268a7.457,7.457,0,0,1,6.71.278l44.326,19.295,28.623-26.133c1.186-1.345,4.036-1.879,6.366-1.193h0c2.329.685,3.255,2.33,2.068,3.675l-28.622,26.13,62.266,11.994c2.581.235,4.343,1.635,3.934,3.126s-2.833,2.508-5.415,2.272l-62.265-11.993,9.861,42.249c.409,1.49-1.352,2.89-3.935,3.126s-5.006-.781-5.414-2.271l-9.862-42.249L586.563,764.1c-2.329.685-5.179.15-6.365-1.194S579.936,759.911,582.266,759.226Zm62.187-22.766,1.047,1.185,2.276-.208.361-1.314-2.054-.6Z" transform="translate(-579.68 -704.914)" fill="url(#linear-gradient-8)"/>
          </g>
          <path id="Path_985" data-name="Path 985" d="M662.108,736.468h0a4.9,4.9,0,0,0,4.9-4.9V674.862h-9.8V731.57A4.9,4.9,0,0,0,662.108,736.468Z" transform="translate(-595.398 -674.862)" fill="#0e2634"/>
        </g>
      </g>
      <path id="Path_986" data-name="Path 986" d="M573.3,597.943l.024.008a4.53,4.53,0,0,1,2.543-3.413l1.027-.593c3.8-2.2,10.447-1.921,14.838.615l30.959,17.874c2.33,1.345,3.547,3.056,3.617,4.694l.016.008v5.392l-.01,0a4.4,4.4,0,0,1-2.558,3.728l-1.027.592c-3.8,2.2-10.446,1.921-14.838-.614l-30.96-17.875c-2.256-1.3-3.471-2.948-3.611-4.538l-.021-.009Z" transform="translate(-451.1 -485.962)" fill="#4f616b"/>
      <g id="Group_160" data-name="Group 160" transform="translate(122.195 106.5)">
        <path id="Path_987" data-name="Path 987" d="M622.725,621.594l1.027-.593c3.8-2.2,3.326-6.031-1.065-8.567L591.728,594.56c-4.392-2.536-11.035-2.811-14.839-.615l-1.027.593c-3.8,2.2-3.326,6.031,1.065,8.567l30.96,17.874C612.279,623.515,618.922,623.789,622.725,621.594Z" transform="translate(-573.295 -592.462)" fill="url(#linear-gradient-9)"/>
      </g>
      <g id="Group_162" data-name="Group 162" transform="translate(35.943)">
        <path id="Path_988" data-name="Path 988" d="M581.008,650.883l64.847,37.4c3.213,1.855,5.818-.114,5.818-4.4h0c0-4.285-2.6-9.261-5.818-11.115l-74.284-42.85v2.931C571.572,639.8,575.8,647.874,581.008,650.883Z" transform="translate(-510.873 -490.308)" fill="#62727b"/>
        <g id="Group_161" data-name="Group 161" transform="translate(0)">
          <path id="Path_989" data-name="Path 989" d="M638.989,472.761l0,0c2.253-1.211,5.153-1.053,8.32.775l1.937,1.118c7.17,4.14,12.982,15.245,12.982,24.805V627.707L645,617.762v4.073l20.664,16.838,46.943,31.473-65.979,37.3-37.935-29.2-21.6-18.446L573.63,509.722Z" transform="translate(-573.63 -471.985)" fill="url(#linear-gradient-10)"/>
        </g>
      </g>
      <path id="Path_990" data-name="Path 990" d="M614.506,708.362s1.755-4.645-1.712-8.112-21.708-11.143-23.029-11.967-7.876-5.653-7.876-5.653l-2-4.476s37.034,3.608,37.529,4.187,17.333,15.682,16.837,16.342-11.607,3.354-11.607,3.354l-2.145,2.937Z" transform="translate(-464.872 -495.904)" fill="#2d2d2d"/>
      <path id="Path_991" data-name="Path 991" d="M658.859,515.531l1.936,1.118c7.17,4.139,12.983,15.245,12.983,24.8v128.23l46.383,26.755c3.212,1.855,5.817,6.831,5.817,11.115h0c0,4.284-2.605,6.252-5.817,4.4l-64.848-37.4c-5.212-3.009-9.437-11.082-9.437-18.031V525.345C645.876,515.786,651.688,511.392,658.859,515.531Z" transform="translate(-614.918 -476.856)" fill="#4f616b"/>
      <g id="Group_164" data-name="Group 164" transform="translate(40.148 6.806)">
        <g id="Group_163" data-name="Group 163">
          <path id="Path_992" data-name="Path 992" d="M585.2,742.286s9.553,6.129,12.784,9.742,9.63,11.007,7,14.53-11.523,5.491-21.079-3.308-6.841-9.324-14.977-13.685-10.379-9.108-9.4-11.822,5-7.514,7.195-6.48S585.2,742.286,585.2,742.286Z" transform="translate(-458.168 -508.855)" fill="#0e2634"/>
          <path id="Path_993" data-name="Path 993" d="M643.776,771.034s3.43,7.548,5.2,10.051,10.338,16.945,5.863,20.267-12.959,2.4-19.663-4.881-8.2-16.143-9.849-19.053-5.771-10.677-3.82-15.156,2.388-5.253,2.388-5.253Z" transform="translate(-563.206 -511.859)" fill="#0e2634"/>
          <path id="Path_994" data-name="Path 994" d="M645.061,651.129S673.448,679.139,678.1,693.2c0,0,1.965,7.6-3.523,13.558s-17.14,25.445-17.14,25.445-8.7,10.52-19.926,2.108c0,0-5.078-8.112-1.956-13.506s11.425-22.624,11.425-22.624-18.2-12.526-27.19-15.689a124.083,124.083,0,0,1-13.779-5.61,43.037,43.037,0,0,0,8.208,16.749c6.572,8.271,17.577,21.559,13.915,30.808s-5.787,12.111-9.231,17.433-6.7,16.428-9.638,17.582-16.51,2.486-18.711-6.354,4.63-26.018,7.707-31.83c0,0-36.714-42.358-40.209-47.013S633.7,643.945,645.061,651.129Z" transform="translate(-529.799 -499.429)" fill="#1a313e"/>
          <path id="Path_995" data-name="Path 995" d="M623.864,720.809c3.121-5.394,11.425-22.624,11.425-22.624s-18.2-12.526-27.19-15.689a124.082,124.082,0,0,1-13.78-5.61c-1.724-2.378-7.3-11.489-9.795-18.7,20.7-6.065,43.183-10.638,48.843-7.06-2.007,4.96-12.56,4.917-12.56,4.917s-3.943,9.595-6.556,10.821-8.873-.116-8.873-.116,1.011,1.581,5.473,4.8,32.4,26.108,32.4,26.108-1.592.907-9.031,14.352-8.4,22.3-8.4,22.3S620.743,726.2,623.864,720.809Z" transform="translate(-518.106 -499.429)" fill="#0e2634"/>
          <path id="Path_996" data-name="Path 996" d="M656.26,668c16.414-1.566,35.528-1.706,31.226,6.914a27.538,27.538,0,0,1-21.978,15.273c.094,5.37,22.618,31.311,22.618,31.311l-5.249,10.208c-5.249,10.207-4.591,28.791-4.591,28.791a8.256,8.256,0,0,1-4.272-5.384c-2.2-8.839,4.63-26.018,7.708-31.83,0,0-36.714-42.359-40.21-47.013C640.477,674.89,646.7,671.666,656.26,668Z" transform="translate(-613.26 -501.436)" fill="#0e2634"/>
          <path id="Path_997" data-name="Path 997" d="M679.92,562.161l-4.367-3.388s-23.536-13.069-31.369-17.3c-4.24-2.292-8.64-6.391-11.785-9.67a16.375,16.375,0,0,0-11.743-5l-41.235-.205s-4.8,7.7-6.423,9.211c-1.189,1.114-12.379,10.491-20.407,18.214a34.744,34.744,0,0,0-9.352,15.56c-4.594,16.195-4.526,48.828-5.222,72.163a73.158,73.158,0,0,0,9.9,2.617c7.015,1.5,6.149.54,6.149.54s10.523,23.672,24.795,25.96,33.5-4.39,36.934-26.8c0,0,27.829-4.169,35.374-7.267a1.14,1.14,0,0,0,.488-1.745c-3.365-4.468-15.913-21.78-17.107-33.059-1.38-13.041-.956-31.968.079-37.141,0,0,20.985,7.906,27.674,9.308,0,0,25.546,28.073,36.218,35.713,0,0-3.653-5.745,3.687-9.647Z" transform="translate(-535.956 -485.126)" fill="#435661"/>
          <path id="Path_998" data-name="Path 998" d="M638.928,658.807c-1.071-.229-2.034-.447-2.915-.655l1.483-2.912,38.712-4.1,22.611,1.167,7.774,7.387a36.9,36.9,0,0,1-1.839,6.648c-.04.005-9.613,1.383-14.056.432s-38.9,4.114-38.969,4.124a79.094,79.094,0,0,1-6.619-11.485C645.139,659.608,644.721,660.045,638.928,658.807Z" transform="translate(-626.963 -499.577)" fill="#1a313e"/>
          <path id="Path_999" data-name="Path 999" d="M612.777,644.047a.334.334,0,0,1,.314-.248c1.865-.047,13.962-.4,18.535-1.982,4.962-1.712,10.216-1.4,10.484-1.109s8.524,3.791,9.018,5.216c.438,1.264,1.231,5.645.135,7.265a23.562,23.562,0,0,0-1.612,2.7l-.861.091a24.994,24.994,0,0,1-1.738,2.96,5.2,5.2,0,0,0-.676,1.109c-.522,1.128-1.438,2.986-1.819,3.026a20.128,20.128,0,0,1-3.756.4c-.531-.138-1.01-1.761-.79-2.475a.3.3,0,0,0-.24-.408,35.726,35.726,0,0,0-8.789-.192c-5.382.494-12.989-3.024-13.678-3.349a.325.325,0,0,0-.111-.029l-7.588-.685a.346.346,0,0,1-.3-.441Z" transform="translate(-548.566 -498.34)" fill="#f0d6d0"/>
          <path id="Path_1000" data-name="Path 1000" d="M670.512,551.235s6.458,23.8-.37,48.259c0,0-24.843-46.345-27.537-53.865s-3.675-12.863-1.155-15.562,24.962,11.25,24.962,11.25Z" transform="translate(-597.164 -485.489)" fill="#f5f6f7"/>
          <path id="Path_1001" data-name="Path 1001" d="M663.823,591.637s-4.731-14.482-3.907-19.159a55.844,55.844,0,0,1,2-8.019l-4.267-3.936-1.882,3.9s-9.394-6.892-10.017-8.175c0,0,7.566,5.191,9.942,5.968a6.989,6.989,0,0,1,2.611-2.492c1.489-.632,5.19,4.436,5.19,4.436l.692,8.787,3.712,20.5-1.29,3.044Z" transform="translate(-596.873 -488.567)" fill="#cacfd2"/>
          <path id="Path_1002" data-name="Path 1002" d="M654.837,554.307s.9,9.352.123,10.014-3.67.705-5.016-.05-4.782-4.821-4.782-4.821S649.362,552.034,654.837,554.307Z" transform="translate(-583.732 -488.292)" fill="#1a313e"/>
          <path id="Path_1003" data-name="Path 1003" d="M640.851,563.748s-2.53,6.492-.1,15.465a130.108,130.108,0,0,1,3.357,17.309l3.69,6.92s4.6-13.542,3.091-27.143c-.679-6.109-5.337-11.518-5.337-11.518Z" transform="translate(-574.815 -489.437)" fill="#1a313e"/>
          <path id="Path_1004" data-name="Path 1004" d="M673.436,508.011s1.139,5.787.728,6.885-1.876,1.834-1.519,4.091-.946,9-1.619,11.247c0,0,.492,2.4-.181,3.144s-1.546.718-2.177,1.853-.845,6.973-3.21,8.924a8.737,8.737,0,0,1-7.035,1.931,11.422,11.422,0,0,1-3.219-1.637l-3.562,1.484s-18.473-5.231-17.9-18.215l.013-1.373a14.726,14.726,0,0,1-1.693-3.038c-.381-1.206-3.441-6.6-1.894-8.924,0,0-7.157-28.253,14.922-29.956S670.5,498.2,673.436,508.011Z" transform="translate(-588.483 -480.219)" fill="#f0d6d0"/>
          <path id="Path_1005" data-name="Path 1005" d="M650.628,532.666l0-.156a4.053,4.053,0,0,1,2.537-.772c2.526.446,1.946-4.794,1.946-4.794s.469.949,1.758,7.646S672.086,549.4,672.086,549.4l-3.562,1.484S650.051,545.65,650.628,532.666Z" transform="translate(-605.364 -485.167)" fill="#e2b1a6"/>
          <path id="Path_1006" data-name="Path 1006" d="M673.724,495.209c2.161,4.585,3.192,10.093-1.322,13.788,0,0-3.794,1.034-11.006-2.317a16.833,16.833,0,0,0-12.37-.366,2.934,2.934,0,0,0-1.994,2.868l.107,4.022a2.545,2.545,0,0,1-1.548,2.411l-3.352,1.428-.664,3.912a1.881,1.881,0,0,1-2.488,1.456l-.849-.3s-.5-8.7-7.678-8.259c0,0-5.814-12.571.143-24.067s22.282-10.677,25.763-9.373c4.581,1.717,3.943,1.462,6.569,3.085A27.906,27.906,0,0,1,673.724,495.209Z" transform="translate(-588.87 -479.684)"/>
          <path id="Path_1007" data-name="Path 1007" d="M682.671,597.529s3.346,24.646,4.717,31.621l10.8,5.7-19.188-1.171Z" transform="translate(-656.567 -493.356)" fill="#1a313e"/>
          <path id="Path_1008" data-name="Path 1008" d="M662.615,517.009a32.825,32.825,0,0,1-2.438-10.082,26.037,26.037,0,0,0,18.909,5.416l.107,4.022a2.545,2.545,0,0,1-1.548,2.411l-3.352,1.428-.664,3.912a1.881,1.881,0,0,1-2.488,1.456l-.849-.3S669.795,516.565,662.615,517.009Z" transform="translate(-620.925 -482.845)"/>
          <path id="Path_1009" data-name="Path 1009" d="M644.222,542.823s5.718,19.639,6.91,23.425l4.6-.487-.829,6.214,24.779,32.664-27.513-31.584,1.09-5.536-4.178.442Z" transform="translate(-607.309 -487.009)" fill="#1a313e"/>
          <path id="Path_1010" data-name="Path 1010" d="M716.863,653.845s-58.117-1.893-59.6-2.949-1.747-16.008-1.61-24.673c.1-6.08.026-29.863,5.215-46.545-4.077,14.127-1.931,64.084-.082,66.626s57.132,4.01,57.132,4.01h0C717.321,652.389,716.863,653.845,716.863,653.845Z" transform="translate(-655.622 -491.285)" fill="#2b404c"/>
          <path id="Path_1011" data-name="Path 1011" d="M517.574,610.487s.219,1.466,2.745,2.9,8.995,4.626,10.041,5.543,5.713,5.013,5.849,5.552,1.536,5.178,1.527,5.456-.456,2.422-.456,2.422l1.438,6.849s1.823,2.656-.157,3.38-3.108-1.332-3.142-1.645a33.158,33.158,0,0,1-5.2-3.129c-2.2-1.706-11.019-8.8-12.515-8.367s-.12,2.979.6,3.417,5.4,5.007,3.438,8.181-3.236-1.794-4.53-2.8-4.088-4.987-5.8-5.478-4.83-6.886-5.238-9.744-2.449-4.7-3.18-5.624,1.577-8.026,1.577-8.026l8.731-2.717,3.061,1.989Z" transform="translate(-342.14 -494.415)" fill="#f0d6d0"/>
        </g>
      </g>
      <g id="Group_166" data-name="Group 166" transform="translate(33.366 157.503)">
        <g id="Group_165" data-name="Group 165" clip-path="url(#clip-path)">
          <path id="Path_1012" data-name="Path 1012" d="M662.084,568.419c1.827-2.885,2.665-.754,5.116,1.626a37.935,37.935,0,0,1,9.607,14.487c3.9,11.455,2.5,40.085,1.194,44.18,0,0,36.392,5.959,38.912,5.851s-3.123,17.815-3.123,17.815-58.117-1.893-59.6-2.949-1.747-16.008-1.61-24.673C652.7,617.327,652.562,583.459,662.084,568.419Z" transform="translate(-645.767 -640.514)" fill="#334659"/>
          <path id="Path_1013" data-name="Path 1013" d="M716.863,653.845s-58.117-1.893-59.6-2.949-1.747-16.008-1.61-24.673c.1-6.08.026-29.863,5.215-46.545-4.077,14.127-1.931,64.084-.082,66.626s57.132,4.01,57.132,4.01h0C717.321,652.389,716.863,653.845,716.863,653.845Z" transform="translate(-648.84 -641.982)" fill="#263649"/>
        </g>
      </g>
      <path id="Path_1015" data-name="Path 1015" d="M673.782,655.64l.024.007a4.531,4.531,0,0,1,2.544-3.412l1.027-.593c3.8-2.2,10.446-1.921,14.838.615l30.96,17.874c2.33,1.345,3.546,3.056,3.617,4.694l.016.008v5.391l-.009,0a4.393,4.393,0,0,1-2.558,3.728l-1.027.593c-3.8,2.2-10.446,1.921-14.839-.615l-30.959-17.874c-2.257-1.3-3.471-2.948-3.611-4.538l-.022-.01Z" transform="translate(-640.416 -492.656)" fill="#4f616b"/>
      <g id="Group_167" data-name="Group 167" transform="translate(33.366 157.503)">
        <path id="Path_1016" data-name="Path 1016" d="M723.212,679.291l1.027-.593c3.8-2.2,3.326-6.031-1.065-8.567l-30.96-17.874c-4.392-2.536-11.035-2.811-14.838-.615l-1.027.593c-3.8,2.2-3.326,6.03,1.065,8.567l30.959,17.874C712.766,681.211,719.409,681.486,723.212,679.291Z" transform="translate(-673.782 -650.159)" fill="url(#linear-gradient-9)"/>
      </g>
      <g id="Group_168" data-name="Group 168" transform="translate(0 71.806)">
        <path id="Path_1017" data-name="Path 1017" d="M464.611,771.984,724.1,622.213,622.367,563.476,362.875,713.246Z" transform="translate(-362.875 -554.405)" opacity="0.5" fill="url(#linear-gradient-12)"/>
        <path id="Path_1018" data-name="Path 1018" d="M724.1,619.661v9.071L464.611,778.5,362.875,719.765v-9.071l101.736,58.737Z" transform="translate(-362.875 -560.924)" fill="url(#linear-gradient-13)"/>
        <path id="Path_1019" data-name="Path 1019" d="M464.611,761.723,724.1,611.952,622.367,553.215,362.875,702.985Z" transform="translate(-362.875 -553.215)" fill="url(#linear-gradient-14)"/>
        <path id="Path_1020" data-name="Path 1020" d="M464.611,768.444,723.3,619.137l.8.463L464.611,769.371,362.875,710.633l.8-.463Z" transform="translate(-362.875 -560.863)" fill="#fff"/>
      </g>
      <path id="Path_1021" data-name="Path 1021" d="M665.915,664.135s-7.28,2.6-12.843,1.671-32.334-1.451-32.334-1.451l4.209-2.43,9.388-6.538,23.266,1.57,8.975,3.218Z" transform="translate(-533.293 -493.263)" fill="#102836" opacity="0.3"/>
      <path id="Path_1022" data-name="Path 1022" d="M612.777,644.047a.334.334,0,0,1,.314-.248c1.865-.047,13.962-.4,18.535-1.982,4.962-1.712,10.216-1.4,10.484-1.109s8.524,3.791,9.018,5.216c.438,1.264,1.231,5.645.135,7.265a23.562,23.562,0,0,0-1.612,2.7l-.861.091a24.994,24.994,0,0,1-1.738,2.96,5.2,5.2,0,0,0-.676,1.109c-.522,1.128-1.438,2.986-1.819,3.026a20.128,20.128,0,0,1-3.756.4c-.531-.138-1.01-1.761-.79-2.475a.3.3,0,0,0-.24-.408,35.726,35.726,0,0,0-8.789-.192c-5.382.494-12.989-3.024-13.678-3.349a.325.325,0,0,0-.111-.029l-7.588-.685a.346.346,0,0,1-.3-.441Z" transform="translate(-508.417 -491.533)" fill="#f0d6d0"/>
      <path id="Path_1023" data-name="Path 1023" d="M662.084,568.419c1.827-2.885,2.665-.754,5.116,1.626a37.935,37.935,0,0,1,9.607,14.487c3.9,11.455,2.5,40.085,1.194,44.18,0,0,36.392,5.959,38.912,5.851s-3.123,17.815-3.123,17.815-58.117-1.893-59.6-2.949-1.747-16.008-1.61-24.673C652.7,617.327,652.562,583.459,662.084,568.419Z" transform="translate(-612.401 -483.011)" fill="#4a5c67"/>
      <path id="Path_1024" data-name="Path 1024" d="M716.863,653.845s-58.117-1.893-59.6-2.949-1.747-16.008-1.61-24.673c.1-6.08.026-29.863,5.215-46.545-4.077,14.127-1.931,64.084-.082,66.626s57.132,4.01,57.132,4.01h0C717.321,652.389,716.863,653.845,716.863,653.845Z" transform="translate(-615.474 -484.479)" fill="#1a313e"/>
      <path id="Path_1025" data-name="Path 1025" d="M534.84,626.7s-20.776-16.236-23.748-17.807a20.518,20.518,0,0,1-4.221-2.762l6.955-4.016,11.762,4.836,14.817,14.685L563.215,637.8v3.755s-18.818-8.078-20.923-9.457S534.84,626.7,534.84,626.7Z" transform="translate(-329.277 -487.081)" fill="#102836" opacity="0.3"/>
      <path id="Path_1026" data-name="Path 1026" d="M527.062,643.745s-4.424-3.954-7.282-5.275-7.4-4.828-7.954-7.511-5.282-8.621-5.282-8.621l7.573,4.37,10.965,6.334,18.253,10.586s-1.114,1.28-3.425.5-6.644-3.549-8.667-3.8-5.365-.867-5.365-.867Z" transform="translate(-309.109 -489.428)" fill="#515151" opacity="0.63"/>
      <path id="Path_1027" data-name="Path 1027" d="M517.574,610.487s.219,1.466,2.745,2.9,8.995,4.626,10.041,5.543,5.713,5.013,5.849,5.552,1.536,5.178,1.527,5.456-.456,2.422-.456,2.422l1.438,6.849s1.823,2.656-.157,3.38-3.108-1.332-3.142-1.645a33.158,33.158,0,0,1-5.2-3.129c-2.2-1.706-11.019-8.8-12.515-8.367s-.12,2.979.6,3.417,5.4,5.007,3.438,8.181-3.236-1.794-4.53-2.8-4.088-4.987-5.8-5.478-4.83-6.886-5.238-9.744-2.449-4.7-3.18-5.624,1.577-8.026,1.577-8.026l8.731-2.717,3.061,1.989Z" transform="translate(-301.992 -487.609)" fill="#f0d6d0"/>
      <g id="Group_169" data-name="Group 169" transform="translate(134.858 51.941)">
        <path id="Path_1028" data-name="Path 1028" d="M529.534,553.749s.32-13.018-1.9-23.007a16.028,16.028,0,0,1,1.734,1.537c3.145,3.279,7.546,7.378,11.785,9.67,7.833,4.235,31.369,17.3,31.369,17.3l4.367,3.388c13.805,10.823,29.228,34.369,31.469,39.038-1.08-1.441-3.855-3.81-9.178-.98-7.341,3.9-3.844,9.764-3.844,9.764-10.672-7.639-36.06-35.83-36.06-35.83-6.267-1.314-25.087-8.338-27.433-9.217A31.08,31.08,0,0,1,529.534,553.749Z" transform="translate(-527.636 -530.743)" fill="#4a5c67"/>
      </g>
    </g>
    <g id="Group_180" data-name="Group 180" transform="translate(118.038 92.398)">
      <g id="Group_178" data-name="Group 178" transform="translate(0 38.278)">
        <g id="Group_177" data-name="Group 177">
          <g id="Group_176" data-name="Group 176">
            <g id="Group_175" data-name="Group 175">
              <g id="Group_174" data-name="Group 174">
                <path id="Path_1029" data-name="Path 1029" d="M618.163,653.577l-5.042,2.633-50.556-29.188a3.666,3.666,0,0,0-3.3.136L472.071,677.5c-.834-.467-4.639-2.3-4.639-2.3l1.846,4.808.007-.005a1.1,1.1,0,0,0,.516.572l53.246,30.741a3.666,3.666,0,0,0,3.3-.137l89.227-51.515a1.59,1.59,0,0,0,.748-.8l.007,0Z" transform="translate(-467.401 -620.61)" fill="url(#linear-gradient-15)"/>
                <path id="Path_1030" data-name="Path 1030" d="M617.361,653.608l-91.447,52.8a3.757,3.757,0,0,1-3.381.14l-54.57-31.505c-.866-.5-.758-1.375.243-1.953l91.446-52.8a3.759,3.759,0,0,1,3.382-.141l54.57,31.506C618.47,652.156,618.361,653.03,617.361,653.608Z" transform="translate(-467.377 -619.812)" fill="url(#linear-gradient-16)"/>
                <path id="Path_1031" data-name="Path 1031" d="M617.363,657.338l-91.447,52.8a3.757,3.757,0,0,1-3.381.141l-54.57-31.506a1.12,1.12,0,0,1-.53-.59.921.921,0,0,0,.53,1.117l54.57,31.505a3.757,3.757,0,0,0,3.381-.14l91.447-52.8c.673-.389.933-.91.773-1.363A1.613,1.613,0,0,1,617.363,657.338Z" transform="translate(-467.38 -624.069)" fill="#fff"/>
                <g id="Group_172" data-name="Group 172" transform="translate(31.059 18.296)">
                  <path id="Path_1032" data-name="Path 1032" d="M484.048,684.6l75.991-43.874a1.638,1.638,0,0,1,1.638,0l27.06,15.657a.583.583,0,0,1,0,1.01L512.781,701.25a1.639,1.639,0,0,1-1.636,0l-27.1-15.637A.583.583,0,0,1,484.048,684.6Z" transform="translate(-483.757 -640.51)" fill="#b2babe"/>
                  <path id="Path_1033" data-name="Path 1033" d="M484.048,685.613l.272.157,75.719-43.717a1.638,1.638,0,0,1,1.638,0l26.788,15.5.271-.157a.583.583,0,0,0,0-1.01l-27.06-15.657a1.64,1.64,0,0,0-1.638,0L484.048,684.6A.583.583,0,0,0,484.048,685.613Z" transform="translate(-483.757 -640.51)" fill="#95a0a6"/>
                  <g id="Group_171" data-name="Group 171" transform="translate(4.095 2.491)">
                    <path id="Path_1034" data-name="Path 1034" d="M585.857,645.022l-70,40.413-3.47-1.385,70.533-40.723Z" transform="translate(-509.988 -643.327)" fill="#0e2634"/>
                    <path id="Path_1035" data-name="Path 1035" d="M569.1,649.721l-61.915,35.746-2.935-1.695,61.915-35.746Z" transform="translate(-486.034 -643.872)" fill="#0e2634"/>
                    <path id="Path_1036" data-name="Path 1036" d="M574.779,652.782l-72.9,42.088-2.935-1.695,72.9-42.088Z" transform="translate(-487.029 -644.227)" fill="#0e2634"/>
                    <path id="Path_1037" data-name="Path 1037" d="M569.478,655.843l-72.9,42.087-2.935-1.695,72.9-42.087Z" transform="translate(-477.041 -644.583)" fill="#0e2634"/>
                    <path id="Path_1038" data-name="Path 1038" d="M564.176,658.9l-72.9,42.088-2.935-1.695,72.9-42.087Z" transform="translate(-467.052 -644.938)" fill="#0e2634"/>
                    <path id="Path_1039" data-name="Path 1039" d="M597.443,690.739l-2.935,1.695-2.935-1.695,2.935-1.695Z" transform="translate(-591.573 -648.631)" fill="#0e2634"/>
                    <path id="Path_1040" data-name="Path 1040" d="M587.775,687.826,573.2,696.243l-2.935-1.695,14.685-8.478Z" transform="translate(-563.066 -648.286)" fill="#0e2634"/>
                  </g>
                </g>
                <g id="Group_173" data-name="Group 173" transform="translate(40.892 20.787)">
                  <path id="Path_1041" data-name="Path 1041" d="M565.565,665.268l20.49-11.83a.884.884,0,0,0,0-1.674l-14.011-8.09a3.205,3.205,0,0,0-2.9,0L548.653,655.5a.884.884,0,0,0,0,1.674l14.012,8.09A3.206,3.206,0,0,0,565.565,665.268Z" transform="translate(-548.052 -643.327)" fill="url(#linear-gradient-17)"/>
                  <path id="Path_1042" data-name="Path 1042" d="M548.654,656.189l20.491-11.829a3.2,3.2,0,0,1,2.9,0l14.011,8.09a1.252,1.252,0,0,1,.5.494c.211-.4.05-.859-.5-1.179l-14.011-8.09a3.205,3.205,0,0,0-2.9,0L548.654,655.5c-.553.32-.715.775-.5,1.18A1.257,1.257,0,0,1,548.654,656.189Z" transform="translate(-548.053 -643.327)" fill="#95a0a6"/>
                </g>
              </g>
            </g>
          </g>
        </g>
      </g>
      <g id="Group_179" data-name="Group 179" transform="translate(43.911)">
        <path id="Path_1043" data-name="Path 1043" d="M574.281,646.4l-11.56-68.582.929-.392-1.4-.8,0,.009a1,1,0,0,0-1.076.074l-92.387,53.339a2.612,2.612,0,0,0-1.2,2.347l11.652,69.127a.866.866,0,0,0,.487.7h0l1.367.789.235-1.276-.078.024,91.826-53.016A2.608,2.608,0,0,0,574.281,646.4Z" transform="translate(-467.575 -576.51)" fill="url(#linear-gradient-18)"/>
        <path id="Path_1044" data-name="Path 1044" d="M569.309,639.107l-1.519-.672a2.089,2.089,0,0,0-.2,1.143l11.652,69.127a.866.866,0,0,0,.487.7h0l1.367.789.235-1.276-.078.024,4.646-2.683Z" transform="translate(-567.575 -583.694)" fill="url(#linear-gradient-19)"/>
        <path id="Path_1045" data-name="Path 1045" d="M571.442,649.687l-92.387,53.339c-.713.412-1.323.174-1.449-.564l-11.652-69.127a2.608,2.608,0,0,1,1.2-2.347l92.386-53.34c.713-.412,1.324-.174,1.45.565l11.652,69.127A2.611,2.611,0,0,1,571.442,649.687Z" transform="translate(-464.486 -576.618)" fill="#394d59"/>
      </g>
    </g>
  </g>
  <g id="Group_183" data-name="Group 183" transform="translate(319.68 338.386)">
    <g id="Group_182" data-name="Group 182" transform="translate(0 61.572)" opacity="0.6">
      <path id="Path_1046" data-name="Path 1046" d="M446.329,804.75l12.324-7.115-2.687-1.551L443.642,803.2Z" transform="translate(-359.233 -796.084)" fill="#f7c3be"/>
      <path id="Path_1047" data-name="Path 1047" d="M465.2,812.086l6.162-3.557-2.687-1.551-6.162,3.558Z" transform="translate(-388.618 -797.348)" fill="#f7c3be"/>
      <path id="Path_1048" data-name="Path 1048" d="M451.317,811.777l5.251-3.032-2.687-1.551-5.251,3.031Z" transform="translate(-361.557 -797.373)" fill="#f7c3be"/>
      <path id="Path_1049" data-name="Path 1049" d="M460.235,817.452l6.162-3.557-2.687-1.551-6.162,3.558Z" transform="translate(-379.271 -797.97)" fill="#f7c3be"/>
      <path id="Path_1050" data-name="Path 1050" d="M444.189,826.841,468.4,812.86l-2.687-1.551L441.5,825.289Z" transform="translate(-367.093 -797.85)" fill="#f7c3be"/>
      <path id="Path_1051" data-name="Path 1051" d="M366.018,858.14l24.215-13.98-2.687-1.551-24.215,13.98Z" transform="translate(-219.82 -801.482)" fill="#f7c3be"/>
      <path id="Path_1052" data-name="Path 1052" d="M396.974,865.59l6.162-3.557-2.687-1.551-6.162,3.557Z" transform="translate(-260.088 -803.555)" fill="#f7c3be"/>
      <path id="Path_1053" data-name="Path 1053" d="M437.062,820.007l5.251-3.031-2.687-1.551-5.251,3.032Z" transform="translate(-334.701 -798.328)" fill="#f7c3be"/>
      <path id="Path_1054" data-name="Path 1054" d="M445.98,825.682l6.162-3.558-2.687-1.551-6.162,3.557Z" transform="translate(-352.414 -798.925)" fill="#f7c3be"/>
      <path id="Path_1055" data-name="Path 1055" d="M429.934,828.776l13.312-7.686-2.687-1.551-13.312,7.686Z" transform="translate(-329.334 -798.805)" fill="#f7c3be"/>
      <path id="Path_1056" data-name="Path 1056" d="M448.1,835.138l6.162-3.558-2.687-1.551-6.162,3.557Z" transform="translate(-356.414 -800.022)" fill="#f7c3be"/>
      <path id="Path_1057" data-name="Path 1057" d="M458.235,840.988l6.162-3.557-2.687-1.551-6.162,3.558Z" transform="translate(-375.503 -800.701)" fill="#f7c3be"/>
      <path id="Path_1058" data-name="Path 1058" d="M468.368,850.012l11.659-6.732-2.687-1.551-11.66,6.732Z" transform="translate(-400.091 -801.38)" fill="#f7c3be"/>
      <path id="Path_1059" data-name="Path 1059" d="M452.427,854.095l6.162-3.557-2.687-1.551-6.162,3.558Z" transform="translate(-364.56 -802.221)" fill="#f7c3be"/>
      <path id="Path_1060" data-name="Path 1060" d="M462.56,863.119l11.66-6.732-2.687-1.551-11.66,6.732Z" transform="translate(-389.148 -802.9)" fill="#f7c3be"/>
      <path id="Path_1061" data-name="Path 1061" d="M415.679,832.878l6.162-3.558-2.687-1.551-6.162,3.557Z" transform="translate(-295.328 -799.76)" fill="#f7c3be"/>
      <path id="Path_1062" data-name="Path 1062" d="M425.812,838.728l6.162-3.558-2.687-1.551-6.162,3.557Z" transform="translate(-314.418 -800.439)" fill="#f7c3be"/>
      <path id="Path_1063" data-name="Path 1063" d="M435.944,847.752l11.66-6.732-2.687-1.551L433.257,846.2Z" transform="translate(-339.005 -801.117)" fill="#f7c3be"/>
      <path id="Path_1064" data-name="Path 1064" d="M469.451,855.693l6.162-3.558-2.687-1.551-6.162,3.558Z" transform="translate(-396.634 -802.407)" fill="#f7c3be"/>
      <path id="Path_1065" data-name="Path 1065" d="M479.584,861.543l6.162-3.558-2.687-1.551-6.162,3.557Z" transform="translate(-415.723 -803.086)" fill="#f7c3be"/>
      <path id="Path_1066" data-name="Path 1066" d="M489.716,870.567l11.66-6.732-2.687-1.551-11.659,6.731Z" transform="translate(-440.311 -803.764)" fill="#f7c3be"/>
      <path id="Path_1067" data-name="Path 1067" d="M407.88,871.886l6.162-3.558-2.687-1.551-6.162,3.557Z" transform="translate(-280.634 -804.286)" fill="#f7c3be"/>
      <path id="Path_1068" data-name="Path 1068" d="M418.013,880.91l11.659-6.732-2.687-1.552-11.66,6.732Z" transform="translate(-305.222 -804.964)" fill="#f7c3be"/>
      <path id="Path_1069" data-name="Path 1069" d="M401.424,841.108l6.162-3.558L404.9,836l-6.162,3.557Z" transform="translate(-268.472 -800.715)" fill="#f7c3be"/>
      <path id="Path_1070" data-name="Path 1070" d="M411.557,850.132l11.659-6.732-2.687-1.551-11.66,6.731Z" transform="translate(-293.059 -801.394)" fill="#f7c3be"/>
      <path id="Path_1071" data-name="Path 1071" d="M409.612,881.116l6.162-3.558-2.687-1.551-6.162,3.557Z" transform="translate(-283.897 -805.356)" fill="#f7c3be"/>
      <path id="Path_1072" data-name="Path 1072" d="M419.745,890.14l11.659-6.732-2.687-1.551-11.66,6.731Z" transform="translate(-308.485 -806.035)" fill="#f7c3be"/>
      <path id="Path_1073" data-name="Path 1073" d="M485.448,840.239l6.162-3.557-2.687-1.551-6.162,3.557Z" transform="translate(-426.772 -800.614)" fill="#f7c3be"/>
      <path id="Path_1074" data-name="Path 1074" d="M474.91,834.154l6.162-3.557-2.687-1.551-6.162,3.557Z" transform="translate(-406.918 -799.908)" fill="#f7c3be"/>
      <path id="Path_1075" data-name="Path 1075" d="M495.581,849.263l11.659-6.732-2.687-1.551-11.659,6.731Z" transform="translate(-451.36 -801.293)" fill="#f7c3be"/>
      <path id="Path_1076" data-name="Path 1076" d="M422.806,828.415l5.56-3.21-2.687-1.551-5.56,3.21Z" transform="translate(-308.154 -799.283)" fill="#f7c3be"/>
      <path id="Path_1077" data-name="Path 1077" d="M432.459,838.58l13.513-7.8-2.687-1.551-13.513,7.8Z" transform="translate(-334.292 -799.929)" fill="#f7c3be"/>
      <path id="Path_1078" data-name="Path 1078" d="M451.108,849.347l13.513-7.8-2.687-1.551-13.513,7.8Z" transform="translate(-369.426 -801.178)" fill="#f7c3be"/>
      <path id="Path_1079" data-name="Path 1079" d="M512.169,855.318l5.559-3.21-2.687-1.551-5.56,3.21Z" transform="translate(-476.511 -802.404)" fill="#f7c3be"/>
      <path id="Path_1080" data-name="Path 1080" d="M521.821,865.483l13.513-7.8-2.687-1.551-13.513,7.8Z" transform="translate(-502.648 -803.05)" fill="#f7c3be"/>
      <path id="Path_1081" data-name="Path 1081" d="M540.47,876.25l13.513-7.8L551.3,866.9l-13.513,7.8Z" transform="translate(-537.783 -804.3)" fill="#f7c3be"/>
      <path id="Path_1082" data-name="Path 1082" d="M408.687,841.315l13.513-7.8-2.687-1.551L406,839.764Z" transform="translate(-289.506 -800.247)" fill="#f7c3be"/>
      <path id="Path_1083" data-name="Path 1083" d="M427.336,846.677l4.15-2.4L428.8,842.73l-4.15,2.4Z" transform="translate(-315.278 -801.496)" fill="#f7c3be"/>
      <path id="Path_1084" data-name="Path 1084" d="M435.411,851.34l4.151-2.4-2.687-1.552-4.15,2.4Z" transform="translate(-330.492 -802.037)" fill="#f7c3be"/>
      <path id="Path_1085" data-name="Path 1085" d="M443.487,859.5l10.21-5.895-2.687-1.551-10.21,5.895Z" transform="translate(-351.766 -802.578)" fill="#f7c3be"/>
      <path id="Path_1086" data-name="Path 1086" d="M446.625,861.312l10.21-5.895-2.687-1.551-10.21,5.895Z" transform="translate(-357.678 -802.788)" fill="#f7c3be"/>
      <path id="Path_1087" data-name="Path 1087" d="M484.659,855.082l4.15-2.4-2.687-1.552-4.15,2.4Z" transform="translate(-423.273 -802.471)" fill="#f7c3be"/>
      <path id="Path_1088" data-name="Path 1088" d="M492.734,863.243l10.21-5.895-2.687-1.551-10.21,5.895Z" transform="translate(-444.546 -803.012)" fill="#f7c3be"/>
      <path id="Path_1089" data-name="Path 1089" d="M495.872,865.054l10.21-5.895-2.687-1.551-10.21,5.895Z" transform="translate(-450.458 -803.222)" fill="#f7c3be"/>
      <path id="Path_1090" data-name="Path 1090" d="M376.448,874.327l13.312-7.686-2.687-1.551-13.312,7.686Z" transform="translate(-228.567 -804.09)" fill="#f7c3be"/>
      <path id="Path_1091" data-name="Path 1091" d="M394.617,880.689l6.162-3.557-2.687-1.551-6.162,3.557Z" transform="translate(-255.647 -805.307)" fill="#f7c3be"/>
      <path id="Path_1092" data-name="Path 1092" d="M404.749,886.539l6.162-3.558-2.687-1.551-6.162,3.557Z" transform="translate(-274.737 -805.986)" fill="#f7c3be"/>
      <path id="Path_1093" data-name="Path 1093" d="M414.882,895.563l11.659-6.732-2.687-1.551-11.66,6.732Z" transform="translate(-299.324 -806.664)" fill="#f7c3be"/>
      <path id="Path_1094" data-name="Path 1094" d="M431.561,902.019l6.162-3.558-2.687-1.551-6.162,3.557Z" transform="translate(-325.25 -807.782)" fill="#f7c3be"/>
      <path id="Path_1095" data-name="Path 1095" d="M441.694,911.043l11.66-6.732-2.687-1.551-11.66,6.731Z" transform="translate(-349.837 -808.46)" fill="#f7c3be"/>
      <path id="Path_1096" data-name="Path 1096" d="M386.03,892.192l6.162-3.557-2.687-1.552-6.162,3.558Z" transform="translate(-239.47 -806.641)" fill="#f7c3be"/>
      <path id="Path_1097" data-name="Path 1097" d="M396.163,901.216l11.659-6.732-2.687-1.551-11.659,6.732Z" transform="translate(-264.057 -807.32)" fill="#f7c3be"/>
      <path id="Path_1098" data-name="Path 1098" d="M349.623,871.172l6.162-3.557-2.687-1.551-6.162,3.557Z" transform="translate(-170.879 -804.203)" fill="#f7c3be"/>
      <path id="Path_1099" data-name="Path 1099" d="M359.755,877.022l6.162-3.557-2.687-1.551-6.162,3.558Z" transform="translate(-189.969 -804.881)" fill="#f7c3be"/>
      <path id="Path_1100" data-name="Path 1100" d="M369.888,886.046l11.659-6.732-2.687-1.552-11.66,6.732Z" transform="translate(-214.556 -805.56)" fill="#f7c3be"/>
      <path id="Path_1101" data-name="Path 1101" d="M369.32,873.967l5.56-3.21-2.687-1.551-5.56,3.21Z" transform="translate(-207.387 -804.567)" fill="#f7c3be"/>
      <path id="Path_1102" data-name="Path 1102" d="M378.973,884.131l13.513-7.8-2.687-1.551-13.513,7.8Z" transform="translate(-233.525 -805.214)" fill="#f7c3be"/>
      <path id="Path_1103" data-name="Path 1103" d="M397.622,894.9l13.513-7.8-2.687-1.551-13.513,7.8Z" transform="translate(-268.659 -806.463)" fill="#f7c3be"/>
      <path id="Path_1104" data-name="Path 1104" d="M330.3,872.491l13.513-7.8-2.687-1.552-13.513,7.8Z" transform="translate(-141.829 -803.863)" fill="#f7c3be"/>
      <path id="Path_1105" data-name="Path 1105" d="M348.95,877.853l4.15-2.4-2.687-1.551-4.15,2.4Z" transform="translate(-167.601 -805.113)" fill="#f7c3be"/>
      <path id="Path_1106" data-name="Path 1106" d="M357.026,882.515l4.15-2.4-2.687-1.551-4.15,2.4Z" transform="translate(-182.815 -805.654)" fill="#f7c3be"/>
      <path id="Path_1107" data-name="Path 1107" d="M365.1,890.676l10.21-5.894-2.687-1.552-10.21,5.895Z" transform="translate(-204.089 -806.194)" fill="#f7c3be"/>
      <path id="Path_1108" data-name="Path 1108" d="M368.239,892.487l10.21-5.895-2.687-1.551-10.21,5.895Z" transform="translate(-210.001 -806.405)" fill="#f7c3be"/>
      <path id="Path_1109" data-name="Path 1109" d="M371.219,857.789l4.15-2.4-2.687-1.551-4.15,2.4Z" transform="translate(-209.555 -802.785)" fill="#f7c3be"/>
      <path id="Path_1110" data-name="Path 1110" d="M379.295,865.95l10.21-5.895-2.687-1.551-10.21,5.895Z" transform="translate(-230.829 -803.326)" fill="#f7c3be"/>
      <path id="Path_1111" data-name="Path 1111" d="M394.548,874.756l10.21-5.895-2.687-1.552-10.21,5.895Z" transform="translate(-259.566 -804.347)" fill="#f7c3be"/>
      <path id="Path_1112" data-name="Path 1112" d="M446.187,918.693l6.162-3.557-2.687-1.551-6.162,3.557Z" transform="translate(-352.804 -809.716)" fill="#f7c3be"/>
      <path id="Path_1113" data-name="Path 1113" d="M456.32,927.717l11.659-6.732-2.687-1.551-11.66,6.732Z" transform="translate(-377.392 -810.395)" fill="#f7c3be"/>
      <path id="Path_1114" data-name="Path 1114" d="M415.87,903.527l10.21-5.895-2.687-1.551-10.21,5.895Z" transform="translate(-299.736 -807.685)" fill="#f7c3be"/>
      <path id="Path_1115" data-name="Path 1115" d="M431.124,912.333l10.21-5.895-2.687-1.551-10.21,5.895Z" transform="translate(-328.473 -808.707)" fill="#f7c3be"/>
      <path id="Path_1116" data-name="Path 1116" d="M382.317,837.145l4.15-2.4L383.78,833.2l-4.15,2.4Z" transform="translate(-230.462 -800.39)" fill="#f7c3be"/>
      <path id="Path_1117" data-name="Path 1117" d="M390.392,845.306l10.21-5.895-2.687-1.551-10.21,5.895Z" transform="translate(-251.736 -800.931)" fill="#f7c3be"/>
      <path id="Path_1118" data-name="Path 1118" d="M405.646,854.113l10.21-5.895-2.687-1.551-10.21,5.894Z" transform="translate(-280.473 -801.952)" fill="#f7c3be"/>
    </g>
    <path id="Path_1119" data-name="Path 1119" d="M246.856,817.1a8.959,8.959,0,0,0,4.4-1.013l10.739-6.2a3.252,3.252,0,0,0,1.865-2.754c0-1.278-.934-2.551-2.563-3.489L229.351,785.2c-2.97-1.715-7.492-1.9-10.076-.4L208.537,791a3.25,3.25,0,0,0-1.864,2.754c0,1.278.933,2.55,2.561,3.49l31.947,18.443A11.633,11.633,0,0,0,246.856,817.1Zm-23.182-32.584a10.913,10.913,0,0,1,5.306,1.325l31.945,18.445c1.392.8,2.192,1.841,2.192,2.847a2.551,2.551,0,0,1-1.495,2.113l-10.738,6.2c-2.38,1.369-6.565,1.192-9.332-.4L209.605,796.6c-1.392-.805-2.19-1.843-2.19-2.849a2.55,2.55,0,0,1,1.492-2.112l10.739-6.2A8.216,8.216,0,0,1,223.674,784.518Z" transform="translate(45.037 -733.086)" fill="#f7c3be"/>
    <path id="Path_1120" data-name="Path 1120" d="M283.714,852.852a8.96,8.96,0,0,0,4.4-1.012l35.8-20.67a3.252,3.252,0,0,0,1.865-2.755c0-1.277-.934-2.55-2.561-3.488l-31.947-18.445c-2.972-1.713-7.49-1.9-10.076-.4L245.4,826.75a3.251,3.251,0,0,0-1.864,2.754c0,1.278.933,2.551,2.561,3.491l31.947,18.443A11.652,11.652,0,0,0,283.714,852.852ZM285.6,805.8a10.919,10.919,0,0,1,5.307,1.325l31.947,18.445c1.391.8,2.19,1.841,2.19,2.846a2.55,2.55,0,0,1-1.495,2.114l-35.8,20.67c-2.379,1.375-6.568,1.2-9.332-.4l-31.947-18.443c-1.392-.8-2.19-1.843-2.19-2.849a2.553,2.553,0,0,1,1.493-2.112l35.8-20.671A8.217,8.217,0,0,1,285.6,805.8Z" transform="translate(-49.468 -735.555)" fill="#f7c3be"/>
    <path id="Path_1121" data-name="Path 1121" d="M341.8,813.09a9.42,9.42,0,0,0,4.619-1.061l67.915-39.211a3.4,3.4,0,0,0,1.953-2.882c0-1.338-.979-2.67-2.685-3.654l-66.448-38.365c-3.116-1.8-7.861-1.992-10.58-.423l-67.916,39.212a3.4,3.4,0,0,0-1.953,2.88c0,1.338.979,2.67,2.686,3.655l66.449,38.364A12.256,12.256,0,0,0,341.8,813.09Zm4.248-1.7c-2.51,1.445-6.924,1.259-9.839-.423L269.762,772.6c-1.47-.849-2.315-1.947-2.315-3.013a2.7,2.7,0,0,1,1.581-2.238l67.917-39.213c2.509-1.449,6.922-1.257,9.838.423l66.448,38.364c1.471.85,2.313,1.947,2.313,3.013a2.7,2.7,0,0,1-1.581,2.241Z" transform="translate(-160.459 -726.431)" fill="#f7c3be"/>
  </g>
</svg>
