<svg xmlns="http://www.w3.org/2000/svg" width="63.514" height="60.542" viewBox="0 0 63.514 60.542">
  <g id="Annual_Increments_Icon" data-name="Annual Increments Icon" transform="translate(-18.011 -26.524)">
    <path id="Path_7128" data-name="Path 7128" d="M81.525,61.874A12.17,12.17,0,0,1,80.406,63.4Q69.044,74.8,57.64,86.158a3.264,3.264,0,0,1-1.514.863,2.059,2.059,0,0,1-2.356-1.559c-1.009-2.729-2.019-5.458-3-8.2a1.675,1.675,0,0,0-.963-1.006,2.574,2.574,0,0,0-3.267.518,17.207,17.207,0,0,1-21.694.493,4.078,4.078,0,0,1-.385-.312.877.877,0,0,1-.136-1.228.905.905,0,0,1,1.269-.2c.14.087.265.2.4.3A15.562,15.562,0,0,0,45.525,75.3c.125-.106.243-.221.454-.414-.652-.241-1.227-.494-1.828-.65-.171-.044-.434.169-.624.307A13.744,13.744,0,1,1,48.91,60.761c.024.117.069.229.17.557.5-.556.926-1,1.3-1.483a.788.788,0,0,0,.042-.616c-1.918-6.13-6-9.984-12.33-11.093A15.4,15.4,0,0,0,20.2,60.243a15.073,15.073,0,0,0,2.416,12.046c.548.808.572,1.307.058,1.674s-1.007.19-1.557-.607a17.083,17.083,0,0,1-2.995-7.976,2.594,2.594,0,0,0-.111-.405V62c.13-.75.233-1.507.4-2.25a17.936,17.936,0,0,1,2.478-5.907,2.124,2.124,0,0,0,.332-1.075c.022-4.837.014-9.674.015-14.511a2.208,2.208,0,0,1,2.507-2.513q1.829-.006,3.659,0a.941.941,0,0,1,1.044.69.889.889,0,0,1-.939,1.141c-1.24.02-2.481.028-3.721,0-.538-.013-.719.16-.714.708.023,2.687.01,5.374.012,8.062,0,.161.015.321.026.544H25.42c.31,0,.62,0,.93,0a21.246,21.246,0,0,0,5.948-.552,13.612,13.612,0,0,1,5.544-.141c.2.03.4.04.644.064V37.583h-.662q-2.729,0-5.457,0c-.857,0-1.292-.3-1.312-.884s.409-.917,1.255-.959c.1,0,.2-.017.372-.033a4.474,4.474,0,0,1,.634-4.841A4.383,4.383,0,0,1,38,29.465a4.489,4.489,0,0,1,8.426,0,4.391,4.391,0,0,1,4.688,1.391,4.47,4.47,0,0,1,.618,4.888h.741q4.093,0,8.186,0c1.741,0,2.544.8,2.546,2.536q0,3.938,0,7.876v.866c.334-.328.555-.548.779-.765a2.147,2.147,0,0,1,3.715.832q1.545,4.148,3.041,8.313a1.274,1.274,0,0,0,.911.893c.572.17,1.13.393,1.685.616a.91.91,0,0,1,.615,1.181.9.9,0,0,1-1.213.544q-1.2-.4-2.38-.879a2.268,2.268,0,0,1-1.241-1.465q-1.514-4.159-3.052-8.309c-.289-.784-.394-.808-.974-.228L42.2,70.643c-.572.572-.542.693.239.98,2.731,1,5.455,2.025,8.2,3a2.693,2.693,0,0,1,1.764,1.75c.993,2.779,2.029,5.542,3.052,8.309.245.663.388.7.88.205Q67.846,73.379,79.354,61.866c.472-.472.44-.624-.17-.854-.733-.277-1.475-.533-2.205-.817a.924.924,0,1,1,.654-1.707c.6.21,1.193.471,1.806.648a2.931,2.931,0,0,1,2.086,1.747ZM41.815,73.441c-.057-.068-.076-.112-.108-.126-2.068-.929-2.342-2.439-.731-4.05,1.944-1.944,3.875-3.9,5.842-5.822a1.42,1.42,0,0,0,.457-1.309A11.905,11.905,0,1,0,28.354,73,11.809,11.809,0,0,0,41.815,73.441Zm19.565-26.58v-.623q0-3.934,0-7.868c0-.762-.028-.787-.813-.787q-7,0-14,0c-.2,0-.4.018-.606.027v9.25ZM45.106,48.755c1.191,1.134,2.407,2.3,3.641,3.449a.947.947,0,0,0,.59.222q4.026.022,8.052,0a1.022,1.022,0,0,0,.649-.243c1.068-1.033,2.112-2.092,3.16-3.147a1.417,1.417,0,0,0,.16-.281ZM44.038,37.634H40.363c0,2.96-.007,5.869.02,8.778a.637.637,0,0,0,.442.437c1.064.039,2.129.02,3.213.02ZM42.2,28.36a2.478,2.478,0,0,0-2.413,3.274,39.931,39.931,0,0,0,1.75,3.818.884.884,0,0,0,1.347.027A39.015,39.015,0,0,0,44.655,31.6,2.472,2.472,0,0,0,42.2,28.36Zm2.713,7.378c1.459,0,2.842.018,4.224-.019a1.036,1.036,0,0,0,.639-.408,2.579,2.579,0,0,0-1.689-4.162,1.247,1.247,0,0,0-1.663,1.031,4.659,4.659,0,0,1-.172.529C45.828,33.689,45.393,34.664,44.916,35.738Zm-5.409,0c-.053-.173-.074-.268-.11-.358-.511-1.256-1.016-2.515-1.548-3.762a.772.772,0,0,0-.427-.365,2.572,2.572,0,0,0-2.71,4.125.936.936,0,0,0,.55.344C36.657,35.75,38.053,35.737,39.508,35.737ZM55.77,54.32h-5.4l1.7,3.707ZM23.123,48.76v2.281l2.824-2.281Z" transform="translate(0 0)" fill="#fff"/>
    <path id="Path_7129" data-name="Path 7129" d="M222.792,245.678a3.084,3.084,0,0,1-3.168,3.116,4.046,4.046,0,0,1-3.866-3.93,3.09,3.09,0,0,1,3.115-3.111A4.011,4.011,0,0,1,222.792,245.678Zm-1.852-.021a2.149,2.149,0,0,0-2.009-2.052,1.242,1.242,0,0,0-1.328,1.249,2.2,2.2,0,0,0,2.055,2.092A1.224,1.224,0,0,0,220.94,245.658Z" transform="translate(-164.465 -179.004)" fill="#fff"/>
    <path id="Path_7130" data-name="Path 7130" d="M287.533,255.219a3.986,3.986,0,0,1-3.878-3.887,3.042,3.042,0,0,1,3.148-3.111,3.962,3.962,0,0,1,3.871,3.884A3.038,3.038,0,0,1,287.533,255.219Zm-.744-5.17a1.249,1.249,0,0,0-1.3,1.342,2.181,2.181,0,0,0,2.089,1.987,1.2,1.2,0,0,0,1.252-1.246A2.138,2.138,0,0,0,286.788,250.049Z" transform="translate(-220.934 -184.383)" fill="#fff"/>
    <path id="Path_7131" data-name="Path 7131" d="M256.528,235.366a3.141,3.141,0,0,1-.7.7.78.78,0,0,1-1.028-.322,2.856,2.856,0,0,1-.264-.557q-2.5-6.1-4.991-12.2c-.092-.226-.244-.505-.182-.7.1-.319.306-.759.562-.837a1.655,1.655,0,0,1,1.035.278c.145.073.2.348.274.538q2.51,6.129,5.013,12.26C256.338,234.754,256.4,234.991,256.528,235.366Z" transform="translate(-192.401 -162.101)" fill="#fff"/>
    <path id="Path_7132" data-name="Path 7132" d="M98.905,190.457c0-.281-.017-.591,0-.9a.847.847,0,0,1,.865-.872c.536-.027.969.3.917.792-.1.915.419,1.11,1.114,1.317a4.043,4.043,0,0,1,1.227.7.889.889,0,0,1,.175,1.269.913.913,0,0,1-1.272.182c-.265-.158-.533-.313-.8-.459a2.491,2.491,0,0,0-.388-.116v1.076c0,.806.045,1.616-.014,2.418a.956.956,0,0,0,.778,1.142,3.908,3.908,0,0,1,2.834,3.8,4.5,4.5,0,0,1-2.985,4.227c-.533.172-.669.42-.62.912a1.647,1.647,0,0,1-.062.611.9.9,0,0,1-1.755-.145,6.479,6.479,0,0,1-.008-.863c-1.038-.436-1.978-.78-2.869-1.221a.885.885,0,0,1-.434-1.34c.294-.459.78-.522,1.365-.231s1.181.533,1.927.866V201.9c0-1.158-.014-2.316.008-3.473a.623.623,0,0,0-.447-.7,5.845,5.845,0,0,1-.768-.4,3.219,3.219,0,0,1-1.833-3.31,3.693,3.693,0,0,1,2.559-3.338c.116-.042.236-.076.351-.119A.76.76,0,0,0,98.905,190.457Zm1.885,8.293v4.464a2.548,2.548,0,0,0,1.7-2.44A2.052,2.052,0,0,0,100.79,198.75Zm-1.922-2.937V192.56a1.77,1.77,0,0,0-1.187,1.646C97.636,194.967,97.938,195.392,98.869,195.813Z" transform="translate(-64.404 -134.868)" fill="#fff"/>
  </g>
</svg>
