<svg xmlns="http://www.w3.org/2000/svg" width="56.38" height="56.345" viewBox="0 0 56.38 56.345">
  <g id="Annual_Paid_Leaves_Icon" data-name="Annual Paid Leaves Icon" transform="translate(0)">
    <path id="Path_7178" data-name="Path 7178" d="M-888.537,696.088a1.642,1.642,0,0,0-.141-.2c-2.763-2.562-3.264-5.684-2.175-9.142a23.225,23.225,0,0,1,4.578-7.709c.578-.7,1.223-1.344,1.8-2.043a.966.966,0,0,0,.2-.689c-.2-1.155-.447-2.3-.677-3.45-.185-.924.336-1.466,1.235-1.224a7,7,0,0,0,4.4-.254,11.621,11.621,0,0,1,4.056-.73c.9,0,1.253.428,1.1,1.336-.244,1.416-.466,2.836-.723,4.25a.889.889,0,0,0,.306.845,31.357,31.357,0,0,1,5.37,7.354,11.98,11.98,0,0,1,1.47,5.365,7.79,7.79,0,0,1-2.519,5.929c-.082.078-.162.158-.242.239-.01.01-.01.031-.028.095.169.011.328.029.487.03,1.363,0,2.726-.009,4.089,0a2.713,2.713,0,0,1,2.754,2.727,9.88,9.88,0,0,1-.02,1.814,10.321,10.321,0,0,1-.575,1.682,3.223,3.223,0,0,0-.3.857c-.039.888-.011,1.779-.015,2.669,0,.843-.318,1.151-1.175,1.153-1.186,0-2.372,0-3.665,0,.59,1.028,1.138,1.968,1.669,2.917a1.857,1.857,0,0,1,.255.679.858.858,0,0,1-.908.939c-1.382.018-2.764.008-4.146,0a1.045,1.045,0,0,1-.922-.648c-.665-1.166-1.348-2.323-2.008-3.492a.658.658,0,0,0-.653-.409q-10.535.019-21.07.01c-.092,0-.184.01-.379.022l.917,1.6c.292.508.6,1.007.87,1.528a.9.9,0,0,1-.819,1.389c-1.344.022-2.688,0-4.032.008a1.072,1.072,0,0,1-.988-.636c-.664-1.167-1.35-2.321-2.007-3.492a.7.7,0,0,0-.7-.426q-3.492.027-6.985,0a.655.655,0,0,0-.667.38c-.654,1.172-1.346,2.323-2,3.495a1.213,1.213,0,0,1-1.2.684c-1.192-.024-2.385-.005-3.578-.008-1.173,0-1.545-.634-.961-1.645q4.223-7.322,8.463-14.636a.921.921,0,0,0-.008-1.074q-4.205-7.234-8.379-14.487c-.586-1.015-.5-1.315.508-1.9.295-.17.584-.351.886-.508.685-.355,1.3-.66,1.226-1.676a1.993,1.993,0,0,1,.731-1.454,10.976,10.976,0,0,1,2.673-1.56,2.552,2.552,0,0,1,3.128,1.309c.994,1.7,1.969,3.4,2.952,5.108q4.678,8.108,9.345,16.222a1.5,1.5,0,0,0,1.5.864C-893.7,696.066-891.164,696.088-888.537,696.088Zm9,0q1.873,0,3.747,0a5.927,5.927,0,0,0,5.1-2.7,6.723,6.723,0,0,0,.523-6.658,26.7,26.7,0,0,0-5.955-8.625.833.833,0,0,0-.549-.188c-1.911-.013-3.822-.018-5.733,0a.993.993,0,0,0-.673.291c-1.209,1.427-2.461,2.827-3.561,4.337a14.38,14.38,0,0,0-2.857,6.35,6.3,6.3,0,0,0,6.16,7.187Zm-3.428,5.453h9.145q3.862,0,7.725,0c.742,0,1.068-.335,1.08-1.076.007-.4,0-.795,0-1.193,0-1.121-.243-1.364-1.363-1.364q-14.939,0-29.878.012a3.194,3.194,0,0,1-3.043-1.761q-5.5-9.6-11.05-19.173c-.416-.721-.822-1.448-1.252-2.16a.908.908,0,0,0-1.4-.359c-.348.191-.688.4-1.031.6-.951.559-1.034.87-.484,1.823q6.978,12.089,13.948,24.183a.829.829,0,0,0,.839.482Q-891.344,701.529-882.966,701.541Zm-14.686,8.179-18.174-31.479-1.555.918c.1.186.165.3.231.417l10.382,17.979q3.389,5.87,6.786,11.736a.842.842,0,0,0,.513.41C-898.908,709.754-898.34,709.72-897.652,709.72Zm31.7-4.544V703.4h-33.24c.266.465.531.858.721,1.283a.81.81,0,0,0,.885.5q15.494-.019,30.989-.01Zm-51.1,4.543c.682,0,1.263.02,1.84-.014a.628.628,0,0,0,.417-.291q3.118-5.366,6.211-10.748c.069-.119.154-.31.107-.4-.29-.561-.616-1.1-.972-1.724Zm34.128-36.111c.16.826.288,1.545.449,2.256a.408.408,0,0,0,.315.218c1.812.014,3.624.01,5.477.01l.584-3.575C-878.473,672.677-880.5,674.151-882.93,673.609Zm-21.553,31.54-2.87-4.968-2.872,4.968Zm35,4.571c-.528-.918-.993-1.735-1.471-2.544a.377.377,0,0,0-.26-.171c-.611-.015-1.223-.008-1.923-.008.524.911.986,1.73,1.471,2.536a.5.5,0,0,0,.366.179C-870.735,709.731-870.169,709.72-869.483,709.72Z" transform="translate(919.547 -655.201)" fill="#fff"/>
    <path id="Path_7179" data-name="Path 7179" d="M-893.976,572.319a32.743,32.743,0,0,1,7.036,1,28.265,28.265,0,0,1,16.145,10.954,1.506,1.506,0,0,1,.27,1.027c-.1.581-.731.767-1.375.464a16.991,16.991,0,0,0-4.809-1.466,15.892,15.892,0,0,0-9.032,1.255,2.306,2.306,0,0,1-2.135,0,16.811,16.811,0,0,0-5.638-1.421c-.165-.015-.333,0-.561,0v24.824c0,.151,0,.3,0,.454-.017.656-.383,1.067-.934,1.051a.925.925,0,0,1-.881-1.044c-.007-1.817,0-3.635,0-5.453V584.117a16.213,16.213,0,0,0-4.333.756c-.773.246-1.533.541-2.278.863a1.47,1.47,0,0,1-1.3,0,16.316,16.316,0,0,0-14.205.015c-.474.218-.918.293-1.288-.142-.392-.461-.219-.9.1-1.334a28.358,28.358,0,0,1,18.319-11.406c1.5-.279,3.041-.358,4.561-.544.153-.019.377-.109.425-.225a.941.941,0,0,1,.926-.7.921.921,0,0,1,.895.805C-894.057,572.238-894.023,572.262-893.976,572.319Zm5.8,11.146a22.822,22.822,0,0,0-2.467-5.933,12.294,12.294,0,0,0-1.83-2.292,3.39,3.39,0,0,0-5.057,0,6.309,6.309,0,0,0-.483.479c-1.955,2.205-2.9,4.9-3.8,7.75A20.146,20.146,0,0,1-888.174,583.464Zm-2.45-9.034c2.365,2.755,3.459,5.985,4.435,9.308a18.857,18.857,0,0,1,11.869-.862A27.093,27.093,0,0,0-890.624,574.43Zm-8.712-.006a27.114,27.114,0,0,0-16.3,8.458,18.885,18.885,0,0,1,11.867.857C-902.81,580.409-901.709,577.2-899.336,574.424Z" transform="translate(919.524 -571.401)" fill="#fff"/>
    <path id="Path_7180" data-name="Path 7180" d="M-684.141,733.855a1.445,1.445,0,0,0,1.353,1.587,11.4,11.4,0,0,1,1.58.092,3.118,3.118,0,0,1,2.514,2.908,3.107,3.107,0,0,1-2.229,3.185c-.437.124-.532.319-.5.7a1.77,1.77,0,0,1-.013.509.859.859,0,0,1-.9.774c-.5-.007-.9-.315-.864-.793.061-.791-.245-1.106-.966-1.389a3.747,3.747,0,0,1-1.347-1.231.844.844,0,0,1,.235-1.241.922.922,0,0,1,1.253.252,2.406,2.406,0,0,0,2.7.657,1.377,1.377,0,0,0,.806-1.429,1.361,1.361,0,0,0-1.218-1.162c-.376-.033-.756-.006-1.134-.018a3.187,3.187,0,0,1-3.062-2.759,3.128,3.128,0,0,1,2.2-3.418c.424-.123.55-.3.505-.694a1.732,1.732,0,0,1,.01-.509.858.858,0,0,1,.895-.783c.5,0,.923.313.87.781-.1.854.34,1.091,1.008,1.419a4.272,4.272,0,0,1,1.407,1.4.857.857,0,0,1-.336,1.3.9.9,0,0,1-1.24-.454A2.277,2.277,0,0,0-683.56,733,3.073,3.073,0,0,0-684.141,733.855Z" transform="translate(722.315 -704.556)" fill="#fff"/>
  </g>
</svg>
