<svg xmlns="http://www.w3.org/2000/svg" width="56.769" height="60.115" viewBox="0 0 56.769 60.115">
  <g id="Champion_Of_The_Month_Bonus_Icon" data-name="Champion Of The Month Bonus Icon" transform="translate(-513.015 -25.588)">
    <path id="Path_7133" data-name="Path 7133" d="M519.216,85.7c-.8-.623-.806-1.143,0-1.767q8.858-6.815,17.712-13.636a1.958,1.958,0,0,0,.583-.767c1.033-2.489,2.033-4.991,3.061-7.483.287-.7.634-1.367.942-2.023H536.6a12.033,12.033,0,0,1-.008,1.344,3.154,3.154,0,0,1-2.614,2.652,2.8,2.8,0,0,1-3.124-1.531.9.9,0,0,1,.228-1.289.868.868,0,0,1,1.247.369c.5.732.842.894,1.484.7a1.479,1.479,0,0,0,1.1-1.43,1.413,1.413,0,0,0-1.121-1.4,4.8,4.8,0,0,0-2.94.138c-1.527.479-3.026,1.048-4.559,1.506a9.034,9.034,0,0,1-4.689.246,10.086,10.086,0,0,1-5.111-3.154c-.974-1.042-1.889-2.142-2.8-3.244a2.415,2.415,0,0,1,.512-3.757,5.415,5.415,0,0,1,4.966-.733c1.14.344,1.451.3,2.077-.164-.425-.51-.835-1.03-1.283-1.515a.545.545,0,0,0-.482-.04,1.577,1.577,0,0,1-2-.446c-.336-.382-.656-.777-.984-1.166a1.661,1.661,0,0,1,.216-2.72q4.826-4.062,9.655-8.12,5.008-4.21,10.016-8.421c1.1-.924,1.885-.862,2.8.229q.4.473.792.943a1.667,1.667,0,0,1,.042,2.529c.357.429.718.865,1.083,1.3.112.133.235.258.363.4a1.591,1.591,0,0,0,.551-1.429,17.793,17.793,0,0,1-.017-2.394,4.9,4.9,0,0,1,1.771-3.211,2.309,2.309,0,0,1,3.242.065,28.954,28.954,0,0,1,4.106,5.259,8.62,8.62,0,0,1,.174,8.424c-.8,1.629-1.7,3.211-2.512,4.834a3.705,3.705,0,0,0-.353,2.618,1.361,1.361,0,0,0,1.466,1.081,1.491,1.491,0,0,0,1.374-1.16,1.156,1.156,0,0,0-.449-1.19c-.551-.469-.629-.938-.269-1.357s.856-.394,1.4.044a2.8,2.8,0,0,1,.744,3.63,3.206,3.206,0,0,1-3.579,1.707c-.225-.053-.448-.116-.656-.17L547.3,55.931l2.341.713a3.194,3.194,0,0,1,5.6,2.258,3.222,3.222,0,0,1,2.976,3.251c2.469.629,3.321,1.813,2.935,4.148a3.244,3.244,0,0,1,2.22,2.151,5.89,5.89,0,0,1,.788-.393,2.056,2.056,0,0,1,2.121.471c.862.768,1.73,1.528,2.593,2.295a2.061,2.061,0,0,1-.051,3.445q-5.273,4.441-10.554,8.874c-.554.466-1.093.952-1.673,1.382a1.935,1.935,0,0,1-2.8-.423c-.786-1.165-1.489-2.386-2.213-3.592a4.708,4.708,0,0,1-.287-.746c-1.64.113-3.295.219-4.947.351a.943.943,0,0,0-.488.278c-.316.291-.6.622-.913.912a.861.861,0,0,1-1.263-1.171,19.708,19.708,0,0,1,1.48-1.5,1.152,1.152,0,0,1,.646-.22c1.363-.12,2.728-.284,4.094-.3a5.394,5.394,0,0,0,3.882-1.591L546.4,66.406c-.258.4-.468.772-.72,1.11a.859.859,0,0,1-1.23.272.845.845,0,0,1-.2-1.242,5.1,5.1,0,0,0,.917-3.09,1.13,1.13,0,0,1,.389-.734,2.463,2.463,0,0,1,3.315.049c.461.42.863.906,1.3,1.355.613.633,1.147.633,1.831.008.817-.746.916-1.279.306-1.948-1.134-1.243-2.277-2.478-3.442-3.691a2.043,2.043,0,0,0-2.992-.129,35.022,35.022,0,0,0-2.556,2.419,5.371,5.371,0,0,0-.968,1.581c-1.117,2.665-2.175,5.355-3.3,8.019a3.035,3.035,0,0,1-.893,1.176q-7.7,5.965-15.432,11.884c-.166.128-.325.264-.616.5h.753c5.477,0,10.955-.006,16.432.011a1.238,1.238,0,0,0,1.113-.476,2.81,2.81,0,0,1,.5-.491.8.8,0,0,1,1.164.043.777.777,0,0,1,.048,1.159c-.486.531-1.027,1.011-1.545,1.512Zm33.39-19.854a2.106,2.106,0,0,0,.671-.261q1.378-1.227,2.707-2.508a1.344,1.344,0,0,0-.044-2.058A1.307,1.307,0,0,0,554,61.24a9.8,9.8,0,0,1,.418,1.7c.083,1.376-.793,2.213-1.815,2.931l.025-.034v.043ZM538.724,32.626c-.21.165-.3.234-.392.309l-7.948,6.679c-1.467,1.233-2.93,2.47-4.4,3.7a.9.9,0,0,1-1.352,0c-.347-.409-.268-.882.222-1.33.072-.066.148-.128.223-.19L535,33.449c1.239-1.042,2.475-2.086,3.746-3.157l-1.058-1.242L517.718,45.845l1.049,1.248c.9-.758,1.76-1.491,2.632-2.21.528-.436,1.064-.427,1.4-.006.32.4.229.9-.259,1.332-.451.4-.913.781-1.443,1.232,1.752,2.011,3.4,4.048,5.216,5.928a15.541,15.541,0,0,0,3.3,2.5,18.439,18.439,0,0,0,11.745,2.321c1.228-.139,2.584,0,3.443-1.219a2.755,2.755,0,0,0,.442-.656c.286-.892.559-1.79.781-2.7,1.222-5,.8-9.837-2.01-14.211C542.483,37.017,540.523,34.9,538.724,32.626Zm16.518,50.72.211-.162c.14-.1.286-.2.418-.309q5.907-4.964,11.816-9.926c.351-.293.419-.5.035-.821-.837-.706-1.657-1.433-2.463-2.175a.542.542,0,0,0-.855,0c-.69.607-1.4,1.189-2.106,1.781q-4.423,3.72-8.849,7.438c-.241.2-.438.379-.217.73.624.993,1.233,2,1.839,3A2.558,2.558,0,0,1,555.242,83.346Zm-7.517-40.392c.7-1.325,1.46-2.657,2.116-4.038a6.685,6.685,0,0,0-.01-6.047,26.28,26.28,0,0,0-3.974-5.272c-.306-.362-.69-.294-1.027.029a3.714,3.714,0,0,0-1.133,3.3,4.172,4.172,0,0,1-.459,2.942c-.18.272-.394.521-.552.728.988,1.348,2.041,2.595,2.874,3.974S546.993,41.447,547.725,42.954ZM529.913,58.015a20.724,20.724,0,0,1-7.463-6.324c-.351.181-.621.339-.9.464a4.188,4.188,0,0,1-2.975-.047,3.7,3.7,0,0,0-3.346.5c-.515.364-.607.709-.208,1.172,1.122,1.3,2.212,2.639,3.428,3.849a6.745,6.745,0,0,0,5.677,2.119A27.388,27.388,0,0,0,529.913,58.015ZM552.28,67.76a3.435,3.435,0,0,1-2.5-1.325c-.618-.774-1.288-1.506-1.95-2.243a.792.792,0,0,0-1.026-.2l8.362,11.442.924-.784a3.221,3.221,0,0,1-1.423-3.694A3.236,3.236,0,0,1,552.28,67.76Zm1.679.086a1.621,1.621,0,0,0,.828,1.247,1.2,1.2,0,0,0,1.429-.1c.982-.865,1.954-1.744,2.885-2.662a1.345,1.345,0,0,0,.029-1.946,1.364,1.364,0,0,0-1.95.005c-.9.814-1.793,1.631-2.65,2.486A4.4,4.4,0,0,0,553.959,67.846Zm7.893,1.544a1.567,1.567,0,0,0-.847-1.24,1.211,1.211,0,0,0-1.421.161c-.945.846-1.9,1.681-2.786,2.59a2.007,2.007,0,0,0-.458,1.194,1.148,1.148,0,0,0,.774,1.073c.456.219.762.005,1.091-.278,1.021-.878,2.073-1.721,3.08-2.614A3.84,3.84,0,0,0,561.852,69.39Zm-9.185-9.4c.921-.811,1.042-1.681.378-2.317-.63-.6-1.489-.487-2.215.338Z" fill="#fff"/>
    <path id="Path_7134" data-name="Path 7134" d="M628.243,127.439c-.1.972-.179,1.946-.3,2.914a.8.8,0,0,0,.32.852c.753.591,1.464,1.234,2.2,1.843a1.123,1.123,0,0,1,.485,1.171,1.087,1.087,0,0,1-.965.818c-.934.206-1.864.431-2.8.6a.822.822,0,0,0-.695.6c-.334.874-.707,1.734-1.053,2.6a1.077,1.077,0,0,1-2.062.146c-.466-.813-.965-1.608-1.411-2.431a.824.824,0,0,0-.777-.486c-.9-.043-1.793-.13-2.689-.187-.531-.034-1.03-.132-1.245-.7a1.214,1.214,0,0,1,.4-1.317c.636-.69,1.269-1.383,1.864-2.108a.957.957,0,0,0,.168-.709c-.192-.936-.442-1.86-.667-2.789a1.168,1.168,0,0,1,.27-1.3,1.146,1.146,0,0,1,1.318-.072c.874.388,1.742.791,2.633,1.135a1.036,1.036,0,0,0,.783-.054c.867-.489,1.7-1.035,2.548-1.559a.952.952,0,0,1,1.2-.032,4.1,4.1,0,0,1,.6.977Zm.137,6.15c-.573-.484-1.021-.918-1.524-1.274a1.639,1.639,0,0,1-.7-1.78c.1-.6.13-1.208.2-1.923-.687.426-1.277.765-1.839,1.147a1.429,1.429,0,0,1-1.543.105c-.6-.289-1.225-.543-1.966-.867.184.765.306,1.393.49,2a1.506,1.506,0,0,1-.4,1.653c-.462.46-.871.974-1.373,1.544a18.273,18.273,0,0,0,1.907.145,1.638,1.638,0,0,1,1.665,1.032c.267.546.607,1.055.968,1.672.315-.773.591-1.4.823-2.038a1.379,1.379,0,0,1,1.142-.959C626.9,133.925,627.567,133.764,628.379,133.589Z" transform="translate(-86.844 -83.873)" fill="#fff"/>
  </g>
</svg>
