<svg xmlns="http://www.w3.org/2000/svg" width="75.475" height="50.472" viewBox="0 0 75.475 50.472">
  <g id="Dinner_Icon" data-name="Dinner Icon" transform="translate(-18.113 -80.271)">
    <path id="Path_7187" data-name="Path 7187" d="M357.484,127.773a2.591,2.591,0,0,0-.16.31,3.748,3.748,0,0,1-7.332-1.2c-.018-4.029-.006-8.058-.006-12.087v-7.782c-1.172-.038-1.263-.905-1.408-1.745a31.847,31.847,0,0,1,1.538-17.379,16.1,16.1,0,0,1,3.232-5.317,15.667,15.667,0,0,1,2.111-1.824c.941-.688,1.224-.629,2.025.146Zm-2.1-22.875V83.488c-4.5,3.943-6.362,14.237-4.733,21.409Zm-3.353,2.1v.8q0,9.357,0,18.715a4.562,4.562,0,0,0,.028.735,1.7,1.7,0,0,0,3.295.226,2.711,2.711,0,0,0,.073-.728q.005-9.615,0-19.231c0-.164-.026-.328-.042-.52Z" transform="translate(-263.896 0)" fill="#fff"/>
    <path id="Path_7188" data-name="Path 7188" d="M18.113,95.285c.323-.468.689-.854,1.333-.632.627.216.721.727.719,1.3-.006,2.186-.022,4.372.006,6.558a5.267,5.267,0,0,0,10.382,1.2,7.706,7.706,0,0,0,.174-1.752c.02-2.014-.013-4.028.027-6.042a1.7,1.7,0,0,1,.414-1.1.921.921,0,0,1,1.541.622c.015,2.82.074,5.651-.143,8.458a6.106,6.106,0,0,1-2.851,4.459,1.205,1.205,0,0,0-.548,1.153q.019,14.368.007,28.736a3.742,3.742,0,1,1-7.476.345c-.022-.293-.013-.589-.013-.884q0-14.11.01-28.221a1.223,1.223,0,0,0-.564-1.151,7.133,7.133,0,0,1-2.868-4.4,2.9,2.9,0,0,0-.149-.4Zm5.615,14.4v.686q0,13.778,0,27.555a4.63,4.63,0,0,0,.029.735,1.68,1.68,0,0,0,1.9,1.448c.944-.1,1.475-.822,1.475-2.028q0-13.888,0-27.776c0-.23-.022-.459-.031-.619Z" transform="translate(0 -11.441)" fill="#fff"/>
    <path id="Path_7189" data-name="Path 7189" d="M140.028,105.66A25.217,25.217,0,1,1,114.859,80.4,25.221,25.221,0,0,1,140.028,105.66Zm-2.037-.046a23.173,23.173,0,1,0-23.132,23.175A23.167,23.167,0,0,0,137.991,105.614Z" transform="translate(-57.177 -0.106)" fill="#fff"/>
    <path id="Path_7190" data-name="Path 7190" d="M51.714,86.257c0,1.546.02,3.092-.006,4.638-.016.954-.822,1.511-1.5,1.028a1.378,1.378,0,0,1-.506-.964c-.038-3.141-.028-6.282-.018-9.424a.984.984,0,0,1,1.006-1.108,1.011,1.011,0,0,1,1.015,1.117C51.729,83.115,51.713,84.686,51.714,86.257Z" transform="translate(-25.246 -0.125)" fill="#fff"/>
    <path id="Path_7191" data-name="Path 7191" d="M35.847,89.647c0,1.4.006,2.8,0,4.2,0,.784-.346,1.208-.962,1.233-.639.027-1.063-.425-1.067-1.219q-.019-4.238,0-8.476c0-.75.413-1.2,1.015-1.2.626-.005,1.01.46,1.014,1.263C35.853,86.846,35.847,88.247,35.847,89.647Z" transform="translate(-12.553 -3.129)" fill="#fff"/>
    <path id="Path_7192" data-name="Path 7192" d="M67.38,89.651c0,1.4.006,2.793,0,4.189,0,.8-.39,1.25-1.029,1.243s-1.012-.466-1.014-1.268q-.01-4.189,0-8.379c0-.779.42-1.259,1.038-1.25s1,.483,1,1.276C67.385,86.858,67.38,88.254,67.38,89.651Z" transform="translate(-37.768 -3.131)" fill="#fff"/>
    <path id="Path_7193" data-name="Path 7193" d="M165.715,139.846a16.647,16.647,0,1,1-16.651-16.637A16.672,16.672,0,0,1,165.715,139.846Zm-2.048.043a14.6,14.6,0,1,0-14.66,14.569A14.589,14.589,0,0,0,163.668,139.889Z" transform="translate(-91.435 -34.345)" fill="#fff"/>
    <path id="Path_7194" data-name="Path 7194" d="M163.232,164.044a10.514,10.514,0,0,1,10.137-10.009c.886-.012,1.345.318,1.361.977s-.431,1.011-1.311,1.071a8.4,8.4,0,0,0-8.066,7.23,6.705,6.705,0,0,0-.065.805c-.042.931-.4,1.414-1.047,1.415C163.563,165.534,163.21,165.013,163.232,164.044Z" transform="translate(-116.078 -59.002)" fill="#fff"/>
  </g>
</svg>
