<svg xmlns="http://www.w3.org/2000/svg" width="34.845" height="60.223" viewBox="0 0 34.845 60.223">
  <g id="Electricity_Backup_Icon" data-name="Electricity Backup Icon" transform="translate(-102.568 -26.417)">
    <path id="Path_7181" data-name="Path 7181" d="M133.259,26.417H106.73a3.793,3.793,0,0,0-4.162,4.172v33q0,9.448,0,18.895a3.8,3.8,0,0,0,4.122,4.151h26.59a3.766,3.766,0,0,0,4.132-4.142q0-25.95,0-51.9C137.413,27.941,135.9,26.418,133.259,26.417ZM104.27,30.149a2.025,2.025,0,0,1,1.882-2.065c.117-.01.233-.009.346-.009h26.909a2.093,2.093,0,0,1,2.324,2.061l.013.159H104.268Zm-.03,1.881h31.469V45.9H104.24Zm31.483,15.6V59.555H131.6V47.626Zm-5.858,0V59.555H110.127V47.624Zm-21.473,0V59.553H104.27V47.625Zm.972,37.34h-.147c-.322,0-.642,0-.962.009s-.631.009-.951.009c-.417,0-.837-.008-1.252-.033a2.023,2.023,0,0,1-1.812-1.874c-.026-.329-.021-.662-.017-.984,0-.141,0-.283,0-.424s0-.3,0-.461v-.4h5.137ZM128.912,83.2c-.007.524-.015,1.067-.015,1.6v.146H111.083V84.8c0-.535-.007-1.077-.015-1.6-.017-1.2-.034-2.443.04-3.657a2.924,2.924,0,0,1,2.97-2.66c3.9-.018,7.877-.018,11.822,0a2.926,2.926,0,0,1,2.972,2.657C128.946,80.757,128.929,82,128.912,83.2Zm1.547-4.35c-.035-.112-.072-.229-.111-.346a4.667,4.667,0,0,0-4.453-3.279c-3.636-.017-7.485-.018-11.768,0a4.7,4.7,0,0,0-4.5,3.3l-.194.6h-5.162V61.286h31.447V79.094h-5.183Zm5.284,4.167a2.059,2.059,0,0,1-1.945,1.948c-.389.016-.774.021-1.165.021-.3,0-.6,0-.916-.006s-.626-.006-.944-.006h-.146v-4.15h5.123v.146c0,.221,0,.437.005.651C135.76,82.1,135.766,82.557,135.742,83.018Z" transform="translate(0)" fill="#fff"/>
    <path id="Path_7182" data-name="Path 7182" d="M179.807,81.177a4.721,4.721,0,0,0,3.35,1.381h.009a4.732,4.732,0,0,0-.016-9.465h-.017a4.729,4.729,0,0,0-3.325,8.084ZM182.126,75l.191-.061v1.72h1.636V75.006l.171.029a2.854,2.854,0,0,1,2.089,2.958,3.1,3.1,0,0,1-2.818,2.9q-.127.01-.252.01a3.073,3.073,0,0,1-3.026-2.531A2.982,2.982,0,0,1,182.126,75Z" transform="translate(-63.153 -38.866)" fill="#fff"/>
    <g id="Group_1739" data-name="Group 1739" transform="translate(108.423 63.505)">
      <path id="Path_7183" data-name="Path 7183" d="M139.19,248.165h-1.63v2.6q0,2.886,0,5.772c0,.818.274,1.081,1.124,1.083q2.592.005,5.183,0c.969,0,1.206-.233,1.207-1.186q0-3.9,0-7.806c0-.13-.008-.263-.016-.39l0-.037h-1.661v7.72h-4.2Z" transform="translate(-137.559 -248.15)" fill="#fff"/>
      <path id="Path_7184" data-name="Path 7184" d="M243.662,253.645q.907,0,1.816,0h.938V255.9h-3.831v1.652h1.23c1.1,0,2.184,0,3.27,0,.747,0,1.026-.289,1.03-1.054.006-.992.006-2.076,0-3.41,0-.827-.273-1.093-1.109-1.1-.6,0-1.2,0-1.807,0h-.946v-2.274h3.83v-1.63h-1.243c-1.093,0-2.175,0-3.257,0-.746,0-1.025.288-1.029,1.053-.006,1-.006,2.086,0,3.41C242.557,253.375,242.827,253.642,243.662,253.645Z" transform="translate(-224.984 -248.08)" fill="#fff"/>
      <path id="Path_7185" data-name="Path 7185" d="M195.9,249.268q0,3.9,0,7.806c0,.129.008.258.016.395l0,.051h1.662v-3.877h.995c.632,0,1.249,0,1.866,0,.718-.007,1.012-.3,1.017-1.007.009-1.133.009-2.322,0-3.535,0-.717-.3-1.011-1.007-1.017-.878-.007-1.771-.005-2.634,0H197.1C196.133,248.081,195.9,248.314,195.9,249.268Zm1.7.5h2.181v2.17h-2.181Z" transform="translate(-186.135 -248.076)" fill="#fff"/>
    </g>
    <path id="Path_7186" data-name="Path 7186" d="M187.463,166.315h-.018a3.882,3.882,0,0,0-3.866,3.87,3.877,3.877,0,0,0,3.865,3.866h0a3.868,3.868,0,0,0,.015-7.736Zm2.167,3.813q-1.172,1.149-2.35,2.293l-.709.69a.4.4,0,0,1-.262.133.282.282,0,0,1-.168-.06.3.3,0,0,1-.058-.411l.351-.709q.269-.544.538-1.088a.971.971,0,0,0,.042-.1c-.037,0-.121-.006-.206-.006h-.231c-.237,0-.482,0-.724-.005a.43.43,0,0,1-.325-.163c-.087-.13.034-.32.084-.376.933-1.056,1.765-1.99,2.543-2.856a.408.408,0,0,1,.382-.134.255.255,0,0,1,.154.132.372.372,0,0,1-.02.294l-.24.659q-.19.521-.378,1.041a.9.9,0,0,0-.032.1,1,1,0,0,0,.111.006h.806c.157,0,.32,0,.481.005,0,0,.3.022.33.2A.43.43,0,0,1,189.63,170.128Z" transform="translate(-67.456 -116.49)" fill="#fff"/>
  </g>
</svg>
