<svg xmlns="http://www.w3.org/2000/svg" width="67.616" height="60.726" viewBox="0 0 67.616 60.726">
  <g id="Entertainment_Activities_Followed_By_Bonuses_Icon" data-name="Entertainment Activities Followed By Bonuses Icon" transform="translate(1878.625 -590.661)">
    <path id="Path_7135" data-name="Path 7135" d="M-1878.508,593.447a3.6,3.6,0,0,1,3.519-2.78c.765-.012,1.53,0,2.3,0,.874,0,1.1.173,1.346,1.015a1.132,1.132,0,0,1-1.339.968c-.592-.034-1.187-.007-1.782-.007-1.621,0-2.176.553-2.177,2.17q0,14.916,0,29.831a1.4,1.4,0,0,0,.059.706h28.777c-.046-.417-.1-.787-.128-1.158-.065-.787-.441-1.639-.146-2.344a4.11,4.11,0,0,0-.092-2.7,5.567,5.567,0,0,1,.281-2.454c-3.342,0-6.619,0-9.9-.007-.324,0-.442.129-.563.41a3.621,3.621,0,0,1-3.539,2.386,3.592,3.592,0,0,1-3.482-2.367.6.6,0,0,0-.686-.428c-.7.022-1.408.015-2.112,0-.724-.012-1.148-.391-1.14-.992s.444-.971,1.166-.984c.7-.013,1.409-.023,2.112.005a.6.6,0,0,0,.673-.448,3.61,3.61,0,0,1,3.507-2.337,3.574,3.574,0,0,1,3.453,2.309.659.659,0,0,0,.72.476q5.544-.022,11.088-.006c.716,0,1.24-.519,1.9-.667.119-.027.115-.172.126-.281a4.589,4.589,0,0,1,7.368-3.074.377.377,0,0,0,.562,0,4.37,4.37,0,0,1,2.617-.958c.356-.015.48-.133.542-.484a4.528,4.528,0,0,1,3.974-3.818,4.5,4.5,0,0,1,4.891,3.072.684.684,0,0,0,.57.521,4.467,4.467,0,0,1,3.585,3.533,10.064,10.064,0,0,1,.139,1.469,5.2,5.2,0,0,1,2.154.547c2.249,1.64,2.75,3.179,1.924,5.946a.5.5,0,0,0,.026.433,3.1,3.1,0,0,1,.255,2.052c-.106.774-.184,1.552-.277,2.347H-1813v-.761q0-4.817,0-9.634c0-.885.186-1.117,1.035-1.332a1.138,1.138,0,0,1,.952,1.287c-.013,5.853,0,11.705-.01,17.558a3.626,3.626,0,0,1-3.76,3.734c-.792.006-1.584.01-2.376,0-.285,0-.425.053-.464.383-.473,4.039-.979,8.073-1.443,12.113a2.674,2.674,0,0,1-2.935,2.693q-10.033,0-20.066,0a2.629,2.629,0,0,1-2.9-2.649c-.078-.765-.205-1.526-.261-2.293-.033-.453-.211-.573-.655-.57-3.366.018-6.733.011-10.1.008a1.451,1.451,0,0,1-.834-.128.93.93,0,0,1-.45-1.071.949.949,0,0,1,1.016-.765c.942-.015,1.884,0,2.87,0V636.2h-.72q-10.363,0-20.726,0a3.6,3.6,0,0,1-3.684-2.781.582.582,0,0,0-.118-.509V593.956A.587.587,0,0,0-1878.508,593.447Zm17.853,20.962a1.756,1.756,0,0,0-2.653.218,1.662,1.662,0,0,0,.392,2.458,1.632,1.632,0,0,0,2.323-.133A1.722,1.722,0,0,0-1860.655,614.409Zm27.6,32.367q.016-2.861.033-5.722c0-.185-.013-.335-.255-.375-.753-.125-1.5-.271-2.343-.425.1,2.2.192,4.359.287,6.522q.012,1.115.025,2.23c0,.2-.007.405.289.4.65,0,1.3,0,1.964,0Zm2.056-.01c-.017.3-.047.607-.048.91,0,1.773,0,1.773,1.769,1.735a.934.934,0,0,1,.131,0c.314.037.422-.108.419-.413-.006-.741.009-1.482.016-2.223.1-2.175.191-4.35.288-6.587a13.709,13.709,0,0,1-2.3.484c-.25.029-.333.135-.33.378C-1831.025,642.955-1831.012,644.861-1831,646.766Zm4.328,0v2.6h2.162a21.863,21.863,0,0,0,.184-2.865c.1-1.29.214-2.58.3-3.871.143-2.056.272-4.114.407-6.171a8.425,8.425,0,0,1-2.63,2.675.478.478,0,0,0-.214.446Q-1826.557,643.178-1826.668,646.769Zm-10.724,0c-.055-1.955-.166-3.911-.142-5.865a2.391,2.391,0,0,0-1.151-2.455,5.579,5.579,0,0,1-1.754-2.15c.143,2.233.267,4.3.41,6.356.1,1.379.217,2.755.327,4.133a14.62,14.62,0,0,0,.182,2.579h2.247A22.91,22.91,0,0,0-1837.391,646.769Zm13.847-14.647a.494.494,0,0,0,.217.4v-.4c.24-3.5.479-6.99.722-10.535-1.021,0-1.92.011-2.819-.006-.331-.007-.4.139-.411.432q-.108,3.4-.242,6.79a.631.631,0,0,0,.291.606A6.854,6.854,0,0,1-1823.544,632.121Zm-24.181,11.757h2.172c-.271-2.241-.521-4.4-.8-6.558-.151-1.167-.173-1.164-1.374-1.1h-3.633c0,2.487,0,4.918,0,7.349,0,.255.1.347.353.343C-1849.915,643.9-1848.82,643.89-1847.725,643.879Zm4.528,2.893c.064.542.12,1.084.193,1.624.137,1.007.421,1.185,1.469.9-.078-.838-.156-1.683-.234-2.527,0-.175.009-.351,0-.526q-.418-6.448-.842-12.9-.343-5.131-.718-10.26c-.037-.49.2-1.163-.214-1.425-.367-.231-.98-.077-1.485-.079-1.075,0-1.218.17-1.083,1.247q.446,3.563.88,7.128Q-1844.211,638.366-1843.2,646.772Zm-33.428-17.56c-.007.945-.018,1.89-.02,2.835,0,1.62.554,2.178,2.165,2.178h27.723c-.01-.182-.01-.31-.026-.436q-.281-2.289-.565-4.577a9.4,9.4,0,0,1-.106-1.177c.016-.558-.225-.673-.751-.672q-13.914.024-27.828.015a.909.909,0,0,0-.592.075Zm50.592-18.765a4.017,4.017,0,0,1-.411-1.17,2.5,2.5,0,0,0-2.931-1.836,2.57,2.57,0,0,0-2.207,2.742,1.415,1.415,0,0,1-1.752,1.571,2.718,2.718,0,0,0-2.5.869,1.385,1.385,0,0,1-2.147.027,2.632,2.632,0,0,0-3.111-.708,2.6,2.6,0,0,0-1.505,2.814.971.971,0,0,1-.96,1.161c-.218.028-.439.044-.653.089a2.623,2.623,0,0,0-1.945,3.234c.087.3.215.4.548.395q12.344-.023,24.688-.017c.263,0,.525-.022.788-.034.569.013,1.142-.007,1.708.049.385.038.483-.122.555-.452a2.6,2.6,0,0,0-3.062-3.121,1.545,1.545,0,0,1-1.518-1,2.222,2.222,0,0,1,.023-.842,2.628,2.628,0,0,0-2.49-3.339c-.258-.026-.511-.1-.766-.147Zm-6.311,28.307a8.928,8.928,0,0,0,5.482-1.571c2.292-1.78,2.283-4.392-.02-6.148a9.2,9.2,0,0,0-10.376.074,3.565,3.565,0,0,0-.078,5.94,6.435,6.435,0,0,0,1.094.725A8.385,8.385,0,0,0-1832.343,638.753Zm9.861,10.625c1.085.069,1.346-.044,1.419-.643q.609-4.972,1.2-9.946.628-5.2,1.258-10.4c.237-1.963.485-3.925.71-5.889.077-.668-.133-.89-.795-.909-.484-.013-.969.013-1.451-.008-.348-.015-.5.073-.524.464q-.447,7.043-.927,14.083c-.2,2.917-.407,5.834-.605,8.751C-1822.3,646.362-1822.387,647.849-1822.482,649.378Zm-18.225-16.981a14.3,14.3,0,0,1,1.084-1.692,6.941,6.941,0,0,1,1.44-1.349.563.563,0,0,0,.225-.569c-.085-2.265-.171-4.529-.242-6.794-.01-.317-.12-.419-.429-.412-.726.016-1.455.04-2.178-.007-.521-.033-.626.153-.591.637C-1841.154,625.6-1840.935,629-1840.707,632.4Zm27.707-5.022c-1.092,0-2.12.011-3.148-.006-.348-.006-.379.186-.41.45-.245,2.115-.5,4.228-.757,6.392.961,0,1.906.046,2.843-.014a1.564,1.564,0,0,0,1.466-1.587C-1812.983,630.9-1813,629.183-1813,627.375Zm-15.039.79c.078-2.09.15-4.13.236-6.169.014-.321-.1-.422-.415-.417-.791.014-1.583.017-2.373,0-.345-.008-.462.119-.459.459.011,1.692.008,3.385,0,5.077,0,.251.046.439.335.46A12.945,12.945,0,0,1-1828.039,628.164Zm-7.965.017a11.43,11.43,0,0,1,2.537-.586c.31-.028.458-.152.454-.5-.015-1.692-.008-3.385-.006-5.078,0-.238-.019-.437-.339-.435-.938.007-1.878,0-2.878,0C-1836.158,623.8-1836.083,625.948-1836,628.181Z" transform="translate(0)" fill="#fff"/>
    <path id="Path_7136" data-name="Path 7136" d="M-1767.674,610.492c-.843-.207-1.036-.446-1.036-1.326q0-7.21,0-14.421c0-1.49-.586-2.085-2.056-2.085-.987,0-1.974.013-2.962.02-.263-.007-.527-.021-.79-.021h-48.2c-.975,0-1.181-.142-1.385-.943.145-.82.407-1.032,1.3-1.032q9.139,0,18.278,0h33.783a3.668,3.668,0,0,1,4.015,4.007c0,4.817-.007,9.634.008,14.45C-1766.721,609.853-1766.941,610.334-1767.674,610.492Z" transform="translate(-44.286 -0.017)" fill="#fff"/>
    <path id="Path_7137" data-name="Path 7137" d="M-1585.155,811.557h.217v.4A.493.493,0,0,1-1585.155,811.557Z" transform="translate(-238.389 -179.436)" fill="#fff"/>
    <path id="Path_7138" data-name="Path 7138" d="M-1711.31,632.657a1.61,1.61,0,0,1-.813,1.489c-2.617,1.526-5.23,3.061-7.875,4.535a1.723,1.723,0,0,1-2.568-1.552q-.036-4.485,0-8.971a1.716,1.716,0,0,1,2.577-1.532c2.645,1.476,5.258,3.01,7.874,4.538A1.593,1.593,0,0,1-1711.31,632.657Zm-2.166,0-7.066-4.076v8.154Z" transform="translate(-126.754 -29.025)" fill="#fff"/>
    <path id="Path_7139" data-name="Path 7139" d="M-1638.041,724.239a1.231,1.231,0,0,1,1.244,1.246,1.253,1.253,0,0,1-1.23,1.271,1.288,1.288,0,0,1-1.293-1.29A1.263,1.263,0,0,1-1638.041,724.239Z" transform="translate(-194.391 -108.507)" fill="#fff"/>
    <path id="Path_7140" data-name="Path 7140" d="M-1665.829,719.141a1.227,1.227,0,0,1-1.251-1.238,1.261,1.261,0,0,1,1.223-1.28,1.3,1.3,0,0,1,1.3,1.286A1.263,1.263,0,0,1-1665.829,719.141Z" transform="translate(-171.841 -102.32)" fill="#fff"/>
  </g>
</svg>
