<svg xmlns="http://www.w3.org/2000/svg" width="59.823" height="60.145" viewBox="0 0 59.823 60.145">
  <g id="Medical_Insurance_IPD_OPD_Icon" data-name="Medical Insurance (IPD &amp; OPD) Icon" transform="translate(-505.228 -26.906)">
    <path id="Path_7116" data-name="Path 7116" d="M533.123,135.23c.865.33,1,.525,1,1.4q0,3.705,0,7.411c0,.947-.344,1.3-1.279,1.3q-6.751,0-13.5,0c-.972,0-1.3-.34-1.3-1.335,0-2.407.014-4.815-.009-7.222-.007-.766.12-1.386,1.007-1.524,0-.823.029-1.6-.007-2.37a3.163,3.163,0,0,0-1.206-2.257c-2.1-1.856-4.181-3.741-6.3-5.584A6.075,6.075,0,0,1,509.6,121.9c-1.373-5.214-2.785-10.418-4.183-15.625a4.055,4.055,0,0,1,1.532-4.619.825.825,0,0,0,.273-.558,4.068,4.068,0,0,1,3.333-4.118,4.183,4.183,0,0,1,4.593,2.962q2.115,6.2,4.293,12.378a1.215,1.215,0,0,0,.505.578c2.841,1.687,5.7,3.342,8.541,5.032a8.939,8.939,0,0,1,4.629,8.09C533.14,129.073,533.123,132.129,533.123,135.23Zm-2.011.032c0-3.127.01-6.184,0-9.24a6.975,6.975,0,0,0-3.6-6.342c-2.842-1.689-5.7-3.35-8.555-5.016a2.02,2.02,0,1,0-2.006,3.477c1.773,1.029,3.553,2.048,5.324,3.081.679.4.872.968.539,1.506-.319.515-.887.609-1.539.235-1.814-1.042-3.63-2.082-5.434-3.142a4.009,4.009,0,0,1-1.71-5.3,1.012,1.012,0,0,0,.079-.645q-1.513-4.751-3.07-9.488a2,2,0,1,0-3.8,1.249c1.427,5.354,2.846,10.71,4.33,16.048a4.019,4.019,0,0,0,1.127,1.751c2.087,1.937,4.231,3.814,6.37,5.694a5.248,5.248,0,0,1,1.9,4.2c-.009.641,0,1.282,0,1.938ZM520.1,137.326v5.955h11.986v-5.955Zm-10.809-36.42c2.471.524,3.24,1.224,4.045,3.689.149.456.293.914.441,1.371.72,2.221,1.44,4.442,2.168,6.685l1.333-.4-2.021-5.849q-1.023-2.959-2.046-5.917a2.18,2.18,0,0,0-2.388-1.5A1.92,1.92,0,0,0,509.289,100.906Z" transform="translate(0 -58.291)" fill="#fff"/>
    <path id="Path_7117" data-name="Path 7117" d="M704.752,135.227c.869.331,1,.522,1,1.41q0,3.705,0,7.411c0,.944-.345,1.288-1.286,1.289q-6.752,0-13.5,0c-.948,0-1.292-.342-1.293-1.28,0-2.491.011-4.983-.009-7.474a1.174,1.174,0,0,1,1.013-1.335v-2.433c0-2.261-.011-4.522,0-6.783a8.939,8.939,0,0,1,4.617-8.1c2.82-1.682,5.667-3.318,8.49-4.995a1.4,1.4,0,0,0,.58-.668q2.176-6.179,4.3-12.375a4.134,4.134,0,0,1,4.551-2.925,4.072,4.072,0,0,1,3.357,4.1.9.9,0,0,0,.306.6,3.944,3.944,0,0,1,1.537,4.391c-1.437,5.457-2.909,10.9-4.375,16.353a4.964,4.964,0,0,1-1.582,2.44c-2.084,1.846-4.141,3.724-6.253,5.537a3.679,3.679,0,0,0-1.465,3.222C704.784,134.14,704.752,134.665,704.752,135.227Zm-2.011.032c0-.666.011-1.272,0-1.876a5.3,5.3,0,0,1,1.941-4.3c2.13-1.858,4.257-3.722,6.326-5.649a4.142,4.142,0,0,0,1.142-1.811c1.472-5.3,2.876-10.614,4.294-15.927a2.025,2.025,0,0,0-1.32-2.657,2.12,2.12,0,0,0-2.526,1.522c-.99,3.042-1.978,6.084-2.941,9.133a1.368,1.368,0,0,0,.043.878,4.018,4.018,0,0,1-1.631,5.185c-.716.433-1.446.843-2.171,1.261-1.159.67-2.313,1.35-3.483,2a.994.994,0,0,1-1.558-.64,1.079,1.079,0,0,1,.667-1.16c1.834-1.049,3.67-2.1,5.488-3.172a2,2,0,1,0-2-3.471c-3.022,1.754-6.06,3.483-9.034,5.314a6.645,6.645,0,0,0-3.27,5.82c-.055,3.078-.014,6.157-.013,9.236,0,.1.02.2.032.317Zm.961,8.041v-5.955H691.716V143.3Zm10.82-42.391a1.953,1.953,0,0,0-1.561-1.933,2.111,2.111,0,0,0-2.34,1.465q-1.443,4.139-2.872,8.283c-.407,1.173-.815,2.345-1.229,3.537l1.344.38c.94-2.906,1.878-5.782,2.8-8.663a4.129,4.129,0,0,1,2.829-2.858A9.979,9.979,0,0,1,714.522,100.908Z" transform="translate(-153.533 -58.287)" fill="#fff"/>
    <path id="Path_7118" data-name="Path 7118" d="M598.423,29.863a10.382,10.382,0,0,1,5.613-2.827,10.067,10.067,0,0,1,8.391,17.271q-6.49,6.475-12.967,12.964c-.85.85-1.237.849-2.089,0-4.425-4.426-8.886-8.817-13.264-13.289a10.042,10.042,0,0,1,13.8-14.57ZM598.4,55.42a2.024,2.024,0,0,0,.214-.161c4.277-4.279,8.6-8.517,12.814-12.855a7.966,7.966,0,0,0-.234-11.119,8.047,8.047,0,0,0-11.131-.2c-.323.3-.618.627-.945.919a.985.985,0,0,1-1.411,0c-.312-.278-.594-.59-.9-.877a8.035,8.035,0,0,0-11.171,11.55c4.121,4.169,8.284,8.3,12.43,12.44C598.172,55.22,598.282,55.311,598.4,55.42Z" transform="translate(-63.28 0)" fill="#fff"/>
    <path id="Path_7119" data-name="Path 7119" d="M651.749,77.894c0,.968,0,1.864,0,2.759s-.354,1.256-1.251,1.261q-1.789.009-3.579,0c-.825-.006-1.19-.367-1.2-1.184-.009-.918,0-1.836,0-2.835-.93,0-1.822,0-2.714,0-.975,0-1.3-.339-1.307-1.33,0-1.172-.007-2.344,0-3.516.006-.818.372-1.176,1.2-1.183.916-.008,1.833,0,2.821,0,0-.943,0-1.835,0-2.728,0-.947.341-1.289,1.28-1.292q1.758-.007,3.516,0c.866,0,1.226.359,1.233,1.213.008.915,0,1.831,0,2.806.954,0,1.848,0,2.743,0,.936,0,1.275.348,1.278,1.3,0,1.172.006,2.344,0,3.516-.006.857-.366,1.211-1.23,1.218C653.64,77.9,652.741,77.894,651.749,77.894Zm-2.011,2V77.969c0-2.032.053-2.086,2.055-2.086h1.922V73.873h-1.858c-2.073,0-2.119-.044-2.119-2.086v-1.9h-2.011v1.9c0,2.03-.056,2.087-2.056,2.087h-1.92v2.011h1.8c2.161,0,2.18.019,2.18,2.15v1.859Z" transform="translate(-113.599 -34.074)" fill="#fff"/>
  </g>
</svg>
