<svg xmlns="http://www.w3.org/2000/svg" width="59.888" height="60.99" viewBox="0 0 59.888 60.99">
  <g id="Performance_Bonus_Icon" data-name="Performance Bonus Icon" transform="translate(-28.753 -25.167)">
    <path id="Path_7113" data-name="Path 7113" d="M64.492,77.337a11.418,11.418,0,0,1-2.2-3.88,15.712,15.712,0,0,1-.062-8.346,17.647,17.647,0,0,1,.684-2.522,10.241,10.241,0,0,0,.555-3.439c.089-2.777.171-5.554.285-8.33a8.8,8.8,0,0,1,.265-1.939A4.787,4.787,0,0,1,69,45.293a4.938,4.938,0,0,1,4.59,4.054,8.71,8.71,0,0,1,.146,1.773c-.04,3.949-.1,7.9-.158,11.847a2.33,2.33,0,0,1-.077.646.927.927,0,0,1-1.8-.185,4.972,4.972,0,0,1-.007-.595c.048-3.77.1-7.541.138-11.311a9.544,9.544,0,0,0-.136-1.775A2.963,2.963,0,0,0,68.6,47.188a2.9,2.9,0,0,0-2.845,2.688c-.152,1.457-.168,2.93-.226,4.4-.09,2.28-.15,4.562-.256,6.841a4.993,4.993,0,0,1-.3,1.26,22.528,22.528,0,0,0-1.358,7.571,9.4,9.4,0,0,0,3.01,6.831,1.415,1.415,0,0,0,.879.361c5.2.022,10.4.012,15.6.023.38,0,.55-.1.638-.494.964-4.353,1.982-8.695,2.9-13.057a9.057,9.057,0,0,0-.065-2.541c-.214-2.61-.435-5.219-.706-7.823a4.154,4.154,0,0,0-.537-1.742c-1.438-2.279-2.946-4.512-4.572-6.739v.606c0,3.156-.062,6.313.022,9.466A3.837,3.837,0,0,1,76.1,58.616a.858.858,0,0,1-.76-.927.9.9,0,0,1,.825-.938c.33-.052.674-.009,1.01-.03a1.71,1.71,0,0,0,1.679-1.671q.01-8.246,0-16.492c0-.059-.014-.118-.035-.276H52.01c-.159,0-.318,0-.476,0-.7-.013-1.125-.379-1.12-.955a.994.994,0,0,1,1.082-.948c.178-.008.357,0,.536,0H78.808c.018-.17.046-.321.047-.471q0-3.513,0-7.026a1.629,1.629,0,0,0-1.805-1.8q-16.581,0-33.163,0H43.44c0,.64.009,1.244,0,1.849-.006.255.032.6-.111.744a1.669,1.669,0,0,1-.946.554.789.789,0,0,1-.822-.842c-.024-.749-.006-1.5-.006-2.3h-.661q-4.138,0-8.276,0c-1.32,0-1.939.6-1.943,1.919-.008,2.263,0,4.525,0,6.787,0,.174.023.347.038.572.908,0,1.777,0,2.646,0,.752,0,1.188.356,1.192.947s-.444.951-1.19.956c-.871.006-1.741,0-2.688,0v.625q0,7.948.005,15.9a3.382,3.382,0,0,0,.129,1,1.217,1.217,0,0,0,1.178.937c3.154.018,6.308.009,9.557.009v-.714q0-6.4,0-12.8a5.647,5.647,0,0,1,.016-.654.86.86,0,0,1,.9-.849.877.877,0,0,1,.954.792,3.5,3.5,0,0,1,.033.652q0,6.4,0,12.8v.779H59.783a4.065,4.065,0,0,1,.594.017.964.964,0,0,1,.846.989.943.943,0,0,1-.928.9c-.2.015-.4.007-.6.007-9.03,0-18.06-.04-27.089.027a3.615,3.615,0,0,1-3.857-3.89c.042-5.418.013-10.836.013-16.254q0-4.7,0-9.405a3.586,3.586,0,0,1,3.94-3.954H76.825c2.534,0,3.935,1.4,3.936,3.942,0,3.81-.009,7.621.015,11.431a2.124,2.124,0,0,0,.336,1.089c1.718,2.62,3.44,5.239,5.215,7.82a8.915,8.915,0,0,1,1.557,4.488c.228,2.967.507,5.929.748,8.895a3.592,3.592,0,0,1-.084,1.057Q87.117,70.3,85.664,76.707c-.03.134-.042.272-.068.45,1.331.365,1.681,1.319,1.628,2.593-.06,1.446-.006,2.9-.016,4.346a1.893,1.893,0,0,1-2.046,2.038q-9.823,0-19.647,0a1.9,1.9,0,0,1-2.078-2.013c-.021-1.647,0-3.294-.007-4.942A2.1,2.1,0,0,1,64.492,77.337Zm.877,6.863h19.9V79.123h-19.9Z" transform="translate(0)" fill="#fff"/>
    <path id="Path_7114" data-name="Path 7114" d="M55.618,245.075c1.221,0,2.469,0,3.717,0a2.08,2.08,0,0,1,2.329,2.3c0,1.051,0,2.1,0,3.154a1.905,1.905,0,0,1-.9,1.712.729.729,0,0,0-.356.733c.007,2.955-.039,5.912.022,8.866a2.123,2.123,0,0,1-2.369,2.4c-5.89-.056-11.782-.022-17.673-.022a1.874,1.874,0,0,1-2.134-2.105q-.009-4.522,0-9.045a.869.869,0,0,0-.424-.879,1.858,1.858,0,0,1-.849-1.675c0-1.111-.009-2.222,0-3.332a2.028,2.028,0,0,1,2.1-2.108c1.13-.022,2.261-.005,3.392-.006h.672a3.483,3.483,0,0,1-.34-.5,8.121,8.121,0,0,1-.8-2.013,2.789,2.789,0,0,1,3.669-3.159,5.261,5.261,0,0,1,3.311,2.787c.1.171.185.349.312.592.24-.4.437-.772.669-1.118a4.709,4.709,0,0,1,3.421-2.329,2.811,2.811,0,0,1,3.165,3.715A13.672,13.672,0,0,1,55.618,245.075Zm-3,17.209h5.855v-9.623H52.621ZM46,262.3v-9.642H40.2V262.3Zm1.984-.016h2.655v-9.619H47.982ZM38.924,250.66h6.341v-3.641H38.924Zm20.783,0v-3.646H53.374v3.646Zm-8.317,0v-3.648H47.25V250.7c1.244,0,2.451,0,3.657,0C51.06,250.7,51.213,250.677,51.39,250.663ZM48.1,245.035a6.368,6.368,0,0,0-1.863-3.284,1.773,1.773,0,0,0-2.122-.322c-.431.4-.331,1.391.292,2.11A3.914,3.914,0,0,0,48.1,245.035ZM50.562,245a3.879,3.879,0,0,0,4.043-2.064,2.307,2.307,0,0,0,.168-.862.784.784,0,0,0-.841-.865,2.24,2.24,0,0,0-1.745.746A6.726,6.726,0,0,0,50.562,245Z" transform="translate(-6.845 -178.089)" fill="#fff"/>
    <path id="Path_7115" data-name="Path 7115" d="M70.107,62.76c-.794-.537-1.625-1.005-2.346-1.606A4.763,4.763,0,0,1,65.883,57.7a2.629,2.629,0,0,1,3.387-2.848,5.407,5.407,0,0,1,3.416,2.576c.236.364.432.754.616,1.078.535-.73,1.043-1.507,1.638-2.21a4.316,4.316,0,0,1,2.3-1.4,2.719,2.719,0,0,1,3.48,3.529,6.254,6.254,0,0,1-3.388,3.858c-.241.132-.491.246-.8.4a9.015,9.015,0,0,1,2.357,4.358c.187.685-.026,1.172-.589,1.341s-.992-.121-1.229-.8c-.248-.709-.482-1.427-.8-2.106a4.851,4.851,0,0,0-2.612-2.4.99.99,0,0,0-.711.039,5.282,5.282,0,0,0-2.926,3.262c-.141.412-.265.829-.4,1.243-.211.637-.654.918-1.2.766a.938.938,0,0,1-.62-1.276A8.834,8.834,0,0,1,70.107,62.76Zm4.36-1.438a6.319,6.319,0,0,0,3.759-2.143,4.15,4.15,0,0,0,.7-1.6c.135-.622-.216-.922-.86-.883A2.8,2.8,0,0,0,76.1,57.8,8.347,8.347,0,0,0,74.467,61.322Zm-2.216,0a7.317,7.317,0,0,0-1.963-3.82,3.881,3.881,0,0,0-1.612-.787c-.63-.155-1.011.2-.875.823a4.391,4.391,0,0,0,.778,1.744A6.35,6.35,0,0,0,72.251,61.326Z" transform="translate(-30.877 -24.622)" fill="#fff"/>
  </g>
</svg>
