<svg xmlns="http://www.w3.org/2000/svg" width="63.252" height="60.843" viewBox="0 0 63.252 60.843">
  <g id="Referral_Bonus_Icon" data-name="Referral Bonus Icon" transform="translate(-17.633 -24.52)">
    <path id="Path_7120" data-name="Path 7120" d="M19.043,53.3c13.674-.011,27.577-.01,41.022-.01H70.978q4.385,0,8.772,0c.682,0,1.128-.373,1.135-.948a.883.883,0,0,0-.241-.646,1.212,1.212,0,0,0-.868-.313l-.658-.006c-.967-.01-1.966-.021-2.943.018a1.033,1.033,0,0,1-1.132-.829c-.168-.43-.329-.874-.484-1.3a18.089,18.089,0,0,0-1.667-3.712,8.87,8.87,0,0,1-1.45-6.05,2.192,2.192,0,0,1,.33-.985c.437-.632.9-1.26,1.346-1.868q.39-.53.776-1.063a1.019,1.019,0,0,0-.573-1.776c-.427-.141-.855-.278-1.284-.415-.706-.226-1.437-.46-2.15-.71a1.922,1.922,0,0,1-.855-.62c-.487-.636-.961-1.3-1.42-1.935q-.319-.445-.641-.888c-.234-.322-.6-.705-1-.705a1.4,1.4,0,0,0-.971.681q-.388.532-.773,1.067-.655.906-1.315,1.807a1.343,1.343,0,0,1-.578.513c-.6.215-1.2.4-1.83.6l-.668.212-.493.158.121-.5c.283-1.176.134-1.447-.992-1.814q-.662-.216-1.326-.428c-1.041-.335-2.118-.682-3.171-1.043a1.9,1.9,0,0,1-.859-.626c-.685-.915-1.364-1.857-2.021-2.767q-.4-.558-.8-1.114c-.365-.5-.713-.758-1.034-.758s-.656.248-1.011.737q-.373.514-.744,1.029c-.677.939-1.377,1.909-2.085,2.851a2.008,2.008,0,0,1-.906.661c-1.36.464-2.752.906-4.1,1.334l-.642.2c-.5.161-.744.367-.8.691a2.679,2.679,0,0,0,.013.7c.013.126.025.253.031.38l.02.419-.4-.127c-.2-.063-.4-.123-.6-.184-.488-.147-.994-.3-1.48-.5a2.55,2.55,0,0,1-1.029-.758c-.46-.589-.9-1.2-1.328-1.8-.257-.358-.514-.716-.775-1.071a1.147,1.147,0,0,0-.881-.553h0a1.181,1.181,0,0,0-.9.576q-.381.52-.757,1.044c-.458.635-.932,1.292-1.415,1.928a1.827,1.827,0,0,1-.805.587l-.541.2a17.366,17.366,0,0,1-2.394.754c-.754.159-1.243.465-1.378.86s.067.944.592,1.564c.113.133.229.266.345.4a7.661,7.661,0,0,1,1.656,2.487,6.918,6.918,0,0,1,.169,2.486c-.018.35-.036.712-.031,1.056a.4.4,0,0,1-.012.147c-.021.072-.036.148-.052.223a1.712,1.712,0,0,1-.214.607,26.832,26.832,0,0,0-3.4,7.281.8.8,0,0,1-.9.648c-.509-.007-1.027-.005-1.528,0-.664,0-1.351.006-2.028-.013a1.245,1.245,0,0,0-1.319.667v.608A1.4,1.4,0,0,0,19.043,53.3ZM60.608,35.186c.272-.088.539-.17.8-.251.6-.186,1.173-.361,1.716-.588a2.932,2.932,0,0,0,1.053-.771c.375-.437.713-.918,1.07-1.427.158-.225.321-.457.492-.694l.235-.325.235.325c.154.212.307.417.457.62.347.467.675.907.979,1.376a2.158,2.158,0,0,0,1.339.979c.532.141,1.051.316,1.6.5.245.082.5.167.757.251l.382.123-.236.325c-.149.2-.293.408-.435.609-.328.464-.638.9-.986,1.327a2.372,2.372,0,0,0-.562,1.747c.033.522.026,1.039.018,1.587,0,.244-.007.495-.007.753v.4l-.381-.124c-.246-.08-.488-.157-.725-.231-.542-.171-1.055-.333-1.566-.524a2.236,2.236,0,0,0-1.664-.018c-.527.2-1.058.367-1.62.543-.246.077-.5.155-.752.238l-.381.124v-.4c0-.283,0-.559.008-.831.009-.633.018-1.232-.026-1.824a2.72,2.72,0,0,0-.378-1.185c-.311-.506-.674-.988-1.059-1.5-.167-.222-.338-.449-.511-.687l-.236-.324Zm-18.825-2.48c.359-.116.711-.232,1.058-.347.812-.269,1.579-.524,2.37-.746A2.785,2.785,0,0,0,46.9,30.395c.453-.691.938-1.347,1.451-2.04.22-.3.443-.6.669-.91l.235-.325.236.325c.233.322.465.638.693.95.557.762,1.084,1.481,1.6,2.227A2.113,2.113,0,0,0,53,31.5c.868.258,1.715.537,2.613.834.369.122.744.245,1.126.369l.381.124-.236.324q-.351.482-.686.951c-.541.753-1.052,1.464-1.6,2.167a2.258,2.258,0,0,0-.49,1.539c.022.877.018,1.744.013,2.661,0,.385,0,.776,0,1.176v.4l-.379-.12c-.2-.065-.411-.122-.61-.178a7.6,7.6,0,0,1-1.279-.439,5.592,5.592,0,0,0-5.107-.019,8.558,8.558,0,0,1-1.3.452c-.214.062-.436.127-.666.2l-.381.124v-.4c0-.407,0-.805.007-1.2.008-.97.016-1.887-.028-2.805a2.659,2.659,0,0,0-.412-1.278c-.5-.768-1.048-1.5-1.624-2.278-.232-.312-.466-.629-.7-.953l-.237-.325ZM27.03,35.632l-.235-.324.381-.123c.273-.088.541-.171.8-.252.619-.191,1.2-.372,1.766-.6a2.562,2.562,0,0,0,.954-.7c.383-.456.733-.952,1.1-1.477.161-.229.327-.464.5-.705l.236-.325.236.325c.142.2.284.385.425.572.321.427.624.831.9,1.269a2.556,2.556,0,0,0,1.674,1.2c.48.115.945.276,1.437.447.224.078.456.158.7.237l.38.124-.235.324c-.157.216-.309.43-.459.641-.354.5-.689.968-1.055,1.43a2,2,0,0,0-.458,1.415c.025.565.02,1.129.014,1.726,0,.264-.005.534-.005.815v.4l-.381-.123c-.274-.088-.538-.178-.8-.267-.6-.2-1.168-.4-1.744-.536a2.74,2.74,0,0,0-1.242,0c-.575.139-1.144.33-1.745.533-.261.088-.527.178-.8.266l-.38.122v-.4c0-.262,0-.518-.006-.769-.007-.571-.013-1.111.016-1.657a2.277,2.277,0,0,0-.54-1.635c-.345-.427-.659-.869-.99-1.337C27.333,36.054,27.185,35.845,27.03,35.632ZM25.2,50.922c.221-.487.44-.963.655-1.432.484-1.055.942-2.051,1.383-3.067A4.883,4.883,0,0,1,30.7,43.464a5.2,5.2,0,0,1,3.712.05,13.636,13.636,0,0,0,1.684.576c.175.052.351.1.525.157A.969.969,0,0,0,38,43.235c0-.477,0-.955,0-1.432,0-.737-.006-1.5.013-2.25a2.038,2.038,0,0,1,.34-1.063c.5-.72,1.008-1.413,1.55-2.147q.3-.408.61-.828l.235-.321.235.321c.132.18.262.356.389.528.341.461.663.9.966,1.35a1.243,1.243,0,0,1,.14.7v.059q0,1.231,0,2.463t0,2.46a1.327,1.327,0,0,0,.4,1.079,1.308,1.308,0,0,0,1.136.05q.842-.27,1.682-.547c.98-.321,1.994-.653,3-.961a2.013,2.013,0,0,1,1.122,0c1.107.34,2.223.708,3.3,1.063q.658.217,1.318.432a1.06,1.06,0,0,0,1.6-1.168q0-.492,0-.984c0-1.147.009-2.332-.024-3.495a2.456,2.456,0,0,1,.6-1.792,9.377,9.377,0,0,0,.6-.8c.1-.141.2-.287.311-.438l.236-.323.81,1.114c.622.853,1.209,1.659,1.79,2.486a1.144,1.144,0,0,1,.142.669v.032c0,.688,0,1.376,0,2.064q0,.776,0,1.552a1.309,1.309,0,0,0,.386,1.059,1.35,1.35,0,0,0,1.158.039q.594-.191,1.187-.385c.756-.247,1.537-.5,2.311-.738a1.569,1.569,0,0,1,.879,0c.965.293,1.963.619,2.967.971a1.5,1.5,0,0,1,.73.516,24.1,24.1,0,0,1,2.964,6.1,1.128,1.128,0,0,1,.043.225c0,.032.008.068.014.108l.052.335H25.015Z" fill="#fff"/>
    <path id="Path_7121" data-name="Path 7121" d="M80.881,312.955a.956.956,0,0,0-.957-.959,3.252,3.252,0,0,0-.368-.011H69.178c-16.425,0-33.41,0-50.115-.009h0a1.474,1.474,0,0,0-1.427.64v.606a1.22,1.22,0,0,0,1.306.683c1.395-.012,2.811-.011,4.183-.011,1.223,0,2.489,0,3.733-.008a1.4,1.4,0,0,1,1.228.581,26.74,26.74,0,0,0,15.39,9.653.918.918,0,0,0,1.188-.693.938.938,0,0,0-.759-1.148c-.107-.032-.216-.057-.324-.082l-.146-.035a25.009,25.009,0,0,1-12.495-7.286,3.131,3.131,0,0,1-.242-.3c-.036-.049-.073-.1-.115-.154l-.36-.468H68.448l-.461.49-.285.305c-.174.187-.324.348-.478.506a25.123,25.123,0,0,1-12.642,7.032,1.186,1.186,0,0,0-.776.5.854.854,0,0,0-.085.675c.152.577.631.82,1.313.667a26.679,26.679,0,0,0,15.319-9.559,1.634,1.634,0,0,1,1.428-.682c2.88.029,5.71.018,8.1,0A.906.906,0,0,0,80.881,312.955Z" transform="translate(0 -239.371)" fill="#fff"/>
    <path id="Path_7122" data-name="Path 7122" d="M51.524,223.5c-.042-.026-.083-.052-.122-.078l-.213-.146.225-.43c.055-.1.1-.186.139-.267a3.19,3.19,0,0,0-.052-3.044,3.068,3.068,0,0,0-2.517-1.567c-.443-.028-.893-.037-1.342-.037-.5,0-.994.012-1.482.023l-.266.006a.745.745,0,0,0-.829.854c-.01,3.329-.01,6.725,0,10.093,0,.576.263.848.825.855h.036c1.209.016,2.459.033,3.679-.043a3.212,3.212,0,0,0,3.022-2.35,3.332,3.332,0,0,0-.911-3.737A1.15,1.15,0,0,0,51.524,223.5Zm-4.892-3.995h.291c.214,0,.423,0,.628-.008a13.339,13.339,0,0,1,1.36.02,1.516,1.516,0,0,1,1.459,1.626,1.532,1.532,0,0,1-1.553,1.527c-.247.011-.5.014-.742.014l-.467,0a4.175,4.175,0,0,1-.631-.026l-.094-.015-.251-.035Zm2.934,8.678a4.405,4.405,0,0,1-.6.039c-.3,0-.593,0-.9,0H46.6v-1.059c0-.717,0-1.406,0-2.094,0-.121.01-.238.021-.362,0-.057.01-.117.014-.181l.019-.271h.271c.276,0,.55-.006.823-.012a15.651,15.651,0,0,1,1.878.033,1.9,1.9,0,0,1,1.68,1.988A1.924,1.924,0,0,1,49.566,228.185Z" transform="translate(-22.836 -161.059)" fill="#fff"/>
    <path id="Path_7123" data-name="Path 7123" d="M187.588,222.944,189.005,225q1.448,2.1,2.9,4.2c.481.693.847.674,1.172.549.437-.168.613-.5.606-1.131q-.026-2.5-.044-5-.017-2.109-.036-4.219a1.605,1.605,0,0,0-.3-1.121.636.636,0,0,0-.483-.161c-.245,0-.756.015-.751,1.313.005,1.453,0,2.907,0,4.4v2.823l-.526-.717-.165-.223c-.1-.132-.18-.242-.257-.354q-1.837-2.658-3.673-5.318l-.842-1.219c-.053-.076-.106-.152-.157-.229a.822.822,0,0,0-.683-.448.9.9,0,0,0-.265.043c-.376.116-.536.379-.536.881q0,1.854,0,3.709,0,2.163,0,4.326c0,.186,0,.373-.007.56a9.367,9.367,0,0,0,.057,1.571.944.944,0,0,0,.485.591.993.993,0,0,0,.767-.186,1.287,1.287,0,0,0,.22-.807c.02-1.328.018-2.679.016-3.986q0-.839,0-1.678c0-.142.01-.282.023-.459.007-.1.015-.2.022-.333l.049-.826.711,1C187.422,222.706,187.506,222.824,187.588,222.944Z" transform="translate(-139.329 -161.207)" fill="#fff"/>
    <path id="Path_7124" data-name="Path 7124" d="M100.838,224.024a5.946,5.946,0,0,0,5.812,5.878h.03a5.8,5.8,0,0,0,5.912-5.9,5.8,5.8,0,0,0-5.886-5.909h-.081A5.893,5.893,0,0,0,100.838,224.024Zm6-4.4a4.357,4.357,0,0,1,2.892,7.527,4.191,4.191,0,0,1-2.909,1.208h-.1a4.407,4.407,0,0,1-3.008-7.534A4.346,4.346,0,0,1,106.838,219.628Z" transform="translate(-69.287 -161.189)" fill="#fff"/>
    <path id="Path_7125" data-name="Path 7125" d="M256.141,227.481a2.459,2.459,0,0,1-.7-1.849c.062-1.5.048-3.037.033-4.521-.006-.628-.012-1.256-.012-1.883,0-.507-.132-1.113-.759-1.122h-.014a.655.655,0,0,0-.478.18,1.271,1.271,0,0,0-.286.917q0,3.146,0,6.292a4.119,4.119,0,0,0,3.971,4.4,4.689,4.689,0,0,0,3.528-1.262,3.675,3.675,0,0,0,1.174-2.912c-.034-.705-.025-1.42-.016-2.112,0-.221.006-.442.007-.664h0v-.291q0-.552,0-1.1c0-.863.005-1.755-.007-2.631a.848.848,0,0,0-.243-.625.727.727,0,0,0-.542-.185c-.49.023-.74.368-.742,1.024q-.006,1.943,0,3.887,0,1.3,0,2.593a2.708,2.708,0,0,1-2.813,2.761A3.012,3.012,0,0,1,256.141,227.481Z" transform="translate(-196.763 -161.203)" fill="#fff"/>
    <path id="Path_7126" data-name="Path 7126" d="M320.809,227.107a1.11,1.11,0,0,0-.706-.342.766.766,0,0,0-.718.719,1.078,1.078,0,0,0,.359.735,5.388,5.388,0,0,0,3.845,1.57l.2.006.028.085c.174-.051.35-.1.522-.143a6.874,6.874,0,0,0,1.589-.561,3.045,3.045,0,0,0,1.64-2.478,3.111,3.111,0,0,0-1.363-2.711,6.615,6.615,0,0,0-1.254-.672c-.452-.2-.92-.383-1.372-.563-.419-.167-.852-.339-1.274-.52a1.233,1.233,0,0,1-.344-2.139,2.187,2.187,0,0,1,.886-.442,3.856,3.856,0,0,1,3.15.782.761.761,0,0,0,1.09-.154.777.777,0,0,0,.132-.592.719.719,0,0,0-.33-.475,8.963,8.963,0,0,0-1.863-.956,4.148,4.148,0,0,0-3.5.265,2.785,2.785,0,0,0-1.565,2.7,2.6,2.6,0,0,0,1.821,2.471c.829.316,1.681.662,2.6,1.058a4.585,4.585,0,0,1,1.038.582,1.5,1.5,0,0,1,.616,1.116,1.424,1.424,0,0,1-.515,1.1,2.75,2.75,0,0,1-1.275.654A3.825,3.825,0,0,1,320.809,227.107Z" transform="translate(-251.276 -161.107)" fill="#fff"/>
    <path id="Path_7127" data-name="Path 7127" d="M202.905,378.07a.924.924,0,0,0-.94-.922h-.009a.916.916,0,0,0-.685,1.562.98.98,0,0,0,.7.294h0A.924.924,0,0,0,202.905,378.07Z" transform="translate(-152.697 -293.641)" fill="#fff"/>
  </g>
</svg>
