<svg xmlns="http://www.w3.org/2000/svg" width="60.196" height="60.104" viewBox="0 0 60.196 60.104">
  <g id="Remote_Work_Icon" data-name="Remote Work Icon" transform="translate(-24.329 -24.292)">
    <path id="Path_7109" data-name="Path 7109" d="M84.525,83.221V84.4h-59.6c-.395-.293-.727-.625-.532-1.172s.641-.612,1.147-.6c1.072.015,2.145,0,3.245,0V44.819a.53.53,0,0,0-.147.02c-.325.18-.648.364-.972.547-.754.426-1.1.355-1.586-.336-.439-.625-.872-1.254-1.307-1.881-.677-.977-.6-1.311.411-1.906q14.172-8.331,28.336-16.677a1.578,1.578,0,0,1,1.828,0Q69.528,32.955,83.73,41.293a6.153,6.153,0,0,1,.795.665v.588c-.591.851-1.176,1.705-1.773,2.552a.955.955,0,0,1-1.5.325c-.382-.215-.762-.435-1.165-.666V82.624c1.1,0,2.156.023,3.209-.01A1.228,1.228,0,0,1,84.525,83.221ZM78.261,82.6v-.77q0-18.72.014-37.44a1.093,1.093,0,0,0-.649-1.09Q66.27,36.723,54.937,30.108a.854.854,0,0,0-1,0q-11.384,6.643-22.79,13.25a.959.959,0,0,0-.559.96q.021,18.808.011,37.616v.66H40L42.684,69.84c-.945,0-1.805.009-2.665,0-.692-.01-1-.317-1-1.011-.011-.9-.008-1.8,0-2.7.006-.8.307-1.1,1.1-1.106.6-.008,1.191,0,1.8,0a.774.774,0,0,0-.906-.746,3.354,3.354,0,0,1-1.413-.283,2.344,2.344,0,0,1-1.244-2.613,2.443,2.443,0,0,1,2.253-1.908,4.224,4.224,0,0,0,.929-.179c.323-.1.629-.347.946-.353,1.86-.035,3.722-.022,5.583-.015.862,0,1.2.319,1.171,1.171-.058,1.641.312,3.33-.579,4.878h8.157V63.118h-.661c-1.45,0-2.9.005-4.349,0-.723,0-1.041-.315-1.043-1.039q-.01-4.408,0-8.816c0-.735.312-1.062,1.022-1.063q7.464-.009,14.929,0c.7,0,1.036.311,1.039.988q.017,4.467,0,8.934c0,.682-.336.982-1.028,1-.215.005-.431,0-.646,0H61.712v1.9h.67c2.116,0,4.232,0,6.348,0,.8,0,1.112.307,1.119,1.091q.011,1.322,0,2.645c-.006.8-.3,1.081-1.109,1.087-.835.006-1.671,0-2.563,0L68.862,82.6Zm-11.275,0a.941.941,0,0,0,.011-.21c-.854-4.056-1.716-8.109-2.555-12.168-.082-.4-.308-.376-.589-.376q-9.427,0-18.854-.007c-.391,0-.529.121-.607.5-.552,2.7-1.135,5.395-1.7,8.092-.29,1.374-.572,2.75-.866,4.165ZM65.939,61.344V54H52.567V61.32c.18.01.332.025.483.025,1.253,0,2.507.009,3.76-.013a.631.631,0,0,0,.386-.281,2.4,2.4,0,0,1,4.12,0c.089.126.252.283.382.285C63.1,61.352,64.507,61.344,65.939,61.344ZM27.22,43.579c.218-.121.389-.212.556-.31q12.918-7.509,25.83-15.026a1.44,1.44,0,0,1,1.631-.014Q68.17,35.77,81.119,43.282c.165.1.334.185.525.29l.7-1c-.177-.115-.3-.2-.433-.282Q68.4,34.339,54.891,26.383a.8.8,0,0,0-.952.027Q40.483,34.337,27.016,42.244c-.163.1-.317.208-.5.327ZM40.8,68.024H68.033V66.837H40.8Zm6.611-7.279H43.143c0,.745-.013,1.446,0,2.148A2.13,2.13,0,0,0,45.1,65.006a2.065,2.065,0,0,0,2.3-1.782A21.043,21.043,0,0,0,47.415,60.745Zm12.459,4.242c0-.943.038-1.825-.027-2.7a.846.846,0,0,0-.575-.563.754.754,0,0,0-.592.457c-.061.926-.028,1.858-.028,2.8Zm-18.6-2.333a3.205,3.205,0,0,0,.1-.437c.007-.307,0-.614,0-1.114a6.231,6.231,0,0,0-1.152.447.652.652,0,0,0-.024.611A5.924,5.924,0,0,0,41.269,62.654Z" fill="#fff"/>
    <path id="Path_7110" data-name="Path 7110" d="M201.506,126a9.226,9.226,0,0,1,6.535,2.652.894.894,0,0,1,.1,1.36.927.927,0,0,1-1.328-.049l-.044-.04a7.532,7.532,0,0,0-10.513.008c-.492.441-.988.476-1.37.1a.911.911,0,0,1,.132-1.4A9.19,9.19,0,0,1,201.506,126Z" transform="translate(-142.278 -84.936)" fill="#fff"/>
    <path id="Path_7111" data-name="Path 7111" d="M212.97,144.534a5.949,5.949,0,0,1,3.778,1.67c.512.476.573.986.188,1.4s-.849.385-1.366-.045a4.446,4.446,0,0,0-6.184-.01c-.536.45-1.038.458-1.408.024-.345-.4-.269-.906.2-1.358A6.5,6.5,0,0,1,212.97,144.534Z" transform="translate(-153.227 -100.405)" fill="#fff"/>
    <path id="Path_7112" data-name="Path 7112" d="M225.846,164.394c.021.836-.745,1.333-1.313.913a1.708,1.708,0,0,0-2.354-.01.781.781,0,0,1-1.154-.2.833.833,0,0,1,.029-1.136,3.193,3.193,0,0,1,4.552-.02A1.934,1.934,0,0,1,225.846,164.394Z" transform="translate(-164.092 -115.826)" fill="#fff"/>
  </g>
</svg>
