<svg xmlns="http://www.w3.org/2000/svg" width="61.405" height="60.855" viewBox="0 0 61.405 60.855">
  <g id="Trips_Icon" data-name="Trips Icon" transform="translate(1404.511 -573.983)">
    <path id="Path_7141" data-name="Path 7141" d="M-1175.217,591.731l-3.6,2.074c.975.877,1.677,1.868,1.391,3.161a4.209,4.209,0,0,1-.926,1.758,2.377,2.377,0,0,1-2.458.773,14.6,14.6,0,0,1-2.413-1.167c-.264.437-.615,1.016-.964,1.6-.34.564-.679,1.13-1.047,1.742-1.42-1.312-2.967-2.472-2.7-4.752a24.088,24.088,0,0,0,.013-3.177.941.941,0,0,0-.182-.6c-1.1-1.132-2.22-2.24-3.414-3.434l-3.569,9.268c-1.856-1.694-3.7-3.28-3.45-6.159.263-3.006.374-6.026.519-9.041a1.328,1.328,0,0,0-.327-.878c-.9-.961-1.862-1.871-2.787-2.811a3.036,3.036,0,0,1-.122-4.353,3.093,3.093,0,0,1,4.416.06c.945.921,1.852,1.881,2.813,2.785a1.321,1.321,0,0,0,.874.328c3.1-.15,6.189-.331,9.283-.515a5.169,5.169,0,0,1,4.161,1.616c.574.581,1.172,1.138,1.851,1.8l-9.359,3.607c1.182,1.181,2.3,2.317,3.45,3.428a.95.95,0,0,0,.6.164c1.24.015,2.48.018,3.72,0a3.421,3.421,0,0,1,2.68,1.109c.488.523,1.027,1,1.543,1.495Zm-4.207,4.56a5.46,5.46,0,0,0-.584-.8q-9.024-9.045-18.064-18.074c-.1-.1-.194-.2-.3-.293a1,1,0,0,0-1.406.01,1.006,1.006,0,0,0-.02,1.407c.1.122.221.231.334.344q8.991,8.993,17.985,17.984a2.916,2.916,0,0,0,.54.47C-1180.276,597.736-1179.435,597.257-1179.424,596.291Zm-16.5-11-.152.07c-.141,2.792-.309,5.582-.4,8.375a5.35,5.35,0,0,0,.452,1.557c.161-.084.189-.089.195-.1.882-2.269,1.765-4.539,2.634-6.813a.475.475,0,0,0-.074-.412C-1194.14,587.069-1195.033,586.184-1195.921,585.3Zm4.187-4.4c.918.917,1.748,1.719,2.544,2.554a.723.723,0,0,0,.927.212c2.039-.812,4.093-1.587,6.141-2.379.156-.06.3-.146.5-.241a2.894,2.894,0,0,0-2.085-.618c-1.816.1-3.632.2-5.449.3C-1189.971,580.766-1190.781,580.827-1191.734,580.89Zm5.97,14.588-.14.066a11.572,11.572,0,0,0,.226,2.914l1.048-1.737Zm7.182-4.165-.033-.166h-2.737l1.143,1.163Z" transform="translate(-167.89 -0.708)" fill="#fff"/>
    <path id="Path_7142" data-name="Path 7142" d="M-1367.079,639.019a22.145,22.145,0,0,0,3.431,12.938c1.12-.737,2.232-1.429,3.29-2.2a1.387,1.387,0,0,0,.33-.913c.052-.575,0-1.159.021-1.739a2,2,0,0,1,2.024-2.015c.66-.019,1.322-.032,1.98.006a.788.788,0,0,0,.815-.452c.252-.431.537-.844.826-1.25a2.974,2.974,0,0,1,2.548-1.333c.92,0,1.841,0,2.761,0a2.954,2.954,0,0,1,2.653,1.47c.737,1.189,1.482,2.376,2.138,3.61a4.113,4.113,0,0,1,.446,1.71c.062,1.458.02,2.92.021,4.38a3.2,3.2,0,0,1-.975,2.372q-1.365,1.351-2.717,2.716a3.056,3.056,0,0,1-2.254.955,13.572,13.572,0,0,1-1.619-.01,3.262,3.262,0,0,0-2.647,1,21.843,21.843,0,0,0,20.254-.924c-.513-.843-1.019-1.694-1.545-2.531a5.134,5.134,0,0,1-.82-3.016,6.467,6.467,0,0,1,1.413-3.567,2.733,2.733,0,0,1,2.193-1.066c.06,0,.12,0,.18,0,2.233.012,1.968.137,2.793-1.894a11.977,11.977,0,0,1,.5-1.219,5.343,5.343,0,0,0,.386-3.339c-.062-.476-.636-.922-1.058-1.289-.119-.1-.537.082-.79.2-.6.273-1.18.588-1.773.876a3.028,3.028,0,0,1-2.773.006c-1.345-.659-2.689-1.323-4.019-2.011a3,3,0,0,1-1.7-2.822c-.009-.878,0-1.756,0-2.652-.252-.049-.466-.087-.678-.134a3,3,0,0,1-2.338-2.772c-.018-.419-.011-.84-.005-1.26a2.846,2.846,0,0,1,1.12-2.291c1.069-.84,2.167-1.641,3.322-2.51l1.22,1.617c-.979.735-1.935,1.453-2.891,2.17a2.108,2.108,0,0,0-.632,2.5,1.469,1.469,0,0,0,.945.593,2.073,2.073,0,0,1,1.97,2.213c.006.84.008,1.68,0,2.521a1.075,1.075,0,0,0,.645,1.056c1.288.64,2.559,1.318,3.871,1.9a1.7,1.7,0,0,0,1.184-.029c.759-.3,1.467-.723,2.205-1.079a2.123,2.123,0,0,1,2.535.388,4.248,4.248,0,0,1,1.748,4.007,8.823,8.823,0,0,1-.569,2.788c-.375.838-.682,1.706-1.041,2.551a3.035,3.035,0,0,1-2.9,1.949c-.08,0-.161-.007-.24,0-.681.083-1.5-.3-1.977.493-.643,1.066-1.182,2.213-.588,3.452.514,1.072,1.192,2.066,1.857,3.2,7.333-5.664,10.368-12.99,9.223-22.148l1.915-.357a23.6,23.6,0,0,1-.643,11.146,23.8,23.8,0,0,1-9.611,13.149,24.305,24.305,0,0,1-30.578-2.585,24.363,24.363,0,0,1-3.8-30.318,24.272,24.272,0,0,1,26.947-10.658l-.49,1.9a22.348,22.348,0,0,0-9.846-.339c0,.432-.009.848,0,1.263a3.1,3.1,0,0,1-1.62,2.936c-.67.4-1.336.8-2,1.2-.96.575-1.066.891-.635,1.9.5,1.176,1.011,2.348,1.5,3.527a3.021,3.021,0,0,1-.964,3.8c-.963.781-1.944,1.54-2.9,2.334a3.523,3.523,0,0,1-2.538.879c-.515-.028-1.032,0-1.636,0l.711,2.536c.195.692.413,1.378.579,2.077a1.984,1.984,0,0,1-1.91,2.472c-.38.014-.76.007-1.14,0a1.929,1.929,0,0,1-1.789-1.1q-.568-1.089-1.1-2.2a1.158,1.158,0,0,0-1.187-.733C-1366.011,639.033-1366.508,639.019-1367.079,639.019Zm4.616,14.58c.1.136.159.234.23.324a22.7,22.7,0,0,0,5.1,4.682c.934.629.935.628,1.893-.011.3-.2.608-.386.9-.6a3.637,3.637,0,0,1,2.413-.733,11.254,11.254,0,0,0,1.916-.017,2.581,2.581,0,0,0,1.209-.506,16.372,16.372,0,0,0,1.5-1.468c1.787-1.831,1.333-1.033,1.513-3.57a9.322,9.322,0,0,0-1.67-6.116,2.727,2.727,0,0,0-2.708-1.521c-2.619.144-1.952-.311-3.434,1.849-.045.066-.09.132-.134.2a2.088,2.088,0,0,1-1.916,1.012c-.754-.013-1.509,0-2.336,0,0,.553-.015,1.048,0,1.541a3.3,3.3,0,0,1-1.739,3.18C-1360.649,652.387-1361.534,653-1362.463,653.6Zm2.081-12.646c-.412-1.444-.827-2.86-1.22-4.282a2.04,2.04,0,0,1,2.032-2.738c.54-.014,1.086.048,1.617-.02a2.511,2.511,0,0,0,1.136-.4c.982-.722,1.917-1.506,2.867-2.271a1.1,1.1,0,0,0,.4-1.564c-.506-1.195-1.022-2.385-1.529-3.579a3.054,3.054,0,0,1,1.345-4.205q.949-.573,1.9-1.143a1.5,1.5,0,0,0,.8-2.081,21.871,21.871,0,0,0-12.05,8.579,21.968,21.968,0,0,0-3.814,9.745c.529,0,.946.005,1.363,0a3.063,3.063,0,0,1,3.014,1.871,15.934,15.934,0,0,1,.711,1.451C-1361.554,640.991-1361.126,641.186-1360.382,640.954Z" transform="translate(-29.339 -34.604)" fill="#fff"/>
    <path id="Path_7143" data-name="Path 7143" d="M-1239.251,574.082l2.043-.1V576l-1.887.092Z" transform="translate(-137.082)" fill="#fff"/>
    <path id="Path_7144" data-name="Path 7144" d="M-1104.775,858.953l1.277-1.453,1.567,1.272-1.361,1.564Z" transform="translate(-248.629 -235.175)" fill="#fff"/>
    <path id="Path_7145" data-name="Path 7145" d="M-1260.99,577.783l-1.9.336-.417-1.979,2.03-.355Z" transform="translate(-117.128 -1.495)" fill="#fff"/>
    <path id="Path_7146" data-name="Path 7146" d="M-1286.039,583.313l-.682-1.9,1.965-.64.551,1.943Z" transform="translate(-97.706 -5.635)" fill="#fff"/>
    <path id="Path_7147" data-name="Path 7147" d="M-1401.089,787.1l1.968-.416.471,1.863-1.94.565Z" transform="translate(-2.839 -176.435)" fill="#fff"/>
    <path id="Path_7148" data-name="Path 7148" d="M-1384.765,830.266l1.8-.931.951,1.679-1.723,1.055Z" transform="translate(-16.379 -211.813)" fill="#fff"/>
    <path id="Path_7149" data-name="Path 7149" d="M-1355.05,866.322l1.344,1.4-1.34,1.445-1.421-1.5Z" transform="translate(-39.853 -242.493)" fill="#fff"/>
    <path id="Path_7150" data-name="Path 7150" d="M-1250.241,917.433l1.908.18c-.034.661-.067,1.3-.1,2.02l-2.061-.19C-1250.411,918.771-1250.332,918.151-1250.241,917.433Z" transform="translate(-127.754 -284.889)" fill="#fff"/>
    <path id="Path_7151" data-name="Path 7151" d="M-1392.6,808.533l.716,1.792-1.846.812-.773-1.914Z" transform="translate(-8.304 -194.558)" fill="#fff"/>
    <path id="Path_7152" data-name="Path 7152" d="M-1346.995,614.325l1.279,1.565-1.447,1.281-1.386-1.472Z" transform="translate(-46.421 -33.463)" fill="#fff"/>
    <path id="Path_7153" data-name="Path 7153" d="M-1066.977,797.9l-.623,1.968-1.906-.668.582-1.838Z" transform="translate(-277.884 -185.292)" fill="#fff"/>
    <path id="Path_7154" data-name="Path 7154" d="M-1061.4,777.409l-1.975-.4.317-1.9,2,.262Z" transform="translate(-282.97 -166.829)" fill="#fff"/>
    <path id="Path_7155" data-name="Path 7155" d="M-1370.415,848.683l1.17,1.534-1.561,1.28-1.257-1.643Z" transform="translate(-26.915 -227.862)" fill="#fff"/>
    <path id="Path_7156" data-name="Path 7156" d="M-1119.867,874.068l1.376,1.48-1.554,1.368-1.275-1.566Z" transform="translate(-234.905 -248.918)" fill="#fff"/>
    <path id="Path_7157" data-name="Path 7157" d="M-1317.9,894.787l1.689.953-.928,1.793-1.8-1Z" transform="translate(-70.981 -266.105)" fill="#fff"/>
    <path id="Path_7158" data-name="Path 7158" d="M-1160.035,901.128l1.748-.83.929,1.785-1.858.9Z" transform="translate(-202.791 -270.676)" fill="#fff"/>
    <path id="Path_7159" data-name="Path 7159" d="M-1077.712,818.723l1.848.809-.883,1.871-1.788-.925Z" transform="translate(-270.395 -203.01)" fill="#fff"/>
    <path id="Path_7160" data-name="Path 7160" d="M-1326.942,601.978l-1.61,1.073-1.173-1.642,1.719-1.148Z" transform="translate(-62.035 -21.797)" fill="#fff"/>
    <path id="Path_7161" data-name="Path 7161" d="M-1087.618,840l-1.134,1.73-1.654-1.169,1.065-1.613Z" transform="translate(-260.548 -219.785)" fill="#fff"/>
    <path id="Path_7162" data-name="Path 7162" d="M-1362.256,632.379l-1.272,1.466-1.566-1.27,1.347-1.567Z" transform="translate(-32.696 -47.302)" fill="#fff"/>
    <path id="Path_7163" data-name="Path 7163" d="M-1379.136,651.638l1.139-1.731,1.642,1.16-1.052,1.622Z" transform="translate(-21.048 -62.978)" fill="#fff"/>
    <path id="Path_7164" data-name="Path 7164" d="M-1395.857,693.792l-.583,1.839-1.944-.536.614-1.968Z" transform="translate(-5.081 -98.829)" fill="#fff"/>
    <path id="Path_7165" data-name="Path 7165" d="M-1402.536,740.827v1.86h-1.975V740.7Z" transform="translate(0 -138.292)" fill="#fff"/>
    <path id="Path_7166" data-name="Path 7166" d="M-1336.011,882.921l-1.162,1.656-1.651-1.238,1.26-1.579Z" transform="translate(-54.487 -255.3)" fill="#fff"/>
    <path id="Path_7167" data-name="Path 7167" d="M-1404.405,764.329l2-.138.218,1.918-2.009.275Z" transform="translate(-0.088 -157.776)" fill="#fff"/>
    <path id="Path_7168" data-name="Path 7168" d="M-1306.293,590.84l-1.739.835-.933-1.784,1.858-.9Z" transform="translate(-79.255 -12.447)" fill="#fff"/>
    <path id="Path_7169" data-name="Path 7169" d="M-1295.4,907.9l-1.929-.762.807-1.853,1.791.709Z" transform="translate(-88.906 -274.811)" fill="#fff"/>
    <path id="Path_7170" data-name="Path 7170" d="M-1178.85,911.272l-1.972.629-.546-1.945,1.833-.583Z" transform="translate(-185.096 -278.204)" fill="#fff"/>
    <path id="Path_7171" data-name="Path 7171" d="M-1403.257,718.63l.34-2.031,1.979.393-.323,1.906Z" transform="translate(-1.04 -118.299)" fill="#fff"/>
    <path id="Path_7172" data-name="Path 7172" d="M-1203.659,915.8l1.9-.327.422,1.974-2.031.353Z" transform="translate(-166.605 -283.268)" fill="#fff"/>
    <path id="Path_7173" data-name="Path 7173" d="M-1387.625,671.658l-.834,1.743-1.854-.8.887-1.873Z" transform="translate(-11.777 -80.252)" fill="#fff"/>
    <path id="Path_7174" data-name="Path 7174" d="M-1273.786,912.894l1.88.448c-.134.665-.257,1.28-.4,1.971l-2-.47Z" transform="translate(-108.006 -281.124)" fill="#fff"/>
    <path id="Path_7175" data-name="Path 7175" d="M-1137.079,890.092l-1.726,1.141-1.05-1.719,1.6-1.075Z" transform="translate(-219.53 -260.84)" fill="#fff"/>
    <path id="Path_7176" data-name="Path 7176" d="M-1225.99,918.906h1.876l.141,1.94-2.017.1Z" transform="translate(-148.082 -286.111)" fill="#fff"/>
    <path id="Path_7177" data-name="Path 7177" d="M-1058.075,754.74l-1.967-.132v-1.888h1.967Z" transform="translate(-285.734 -148.262)" fill="#fff"/>
  </g>
</svg>
