<svg xmlns="http://www.w3.org/2000/svg" width="80.05" height="80" viewBox="0 0 80.05 80">
  <g id="Advertising" transform="translate(1165.459 -152)">
    <path id="Path_1333" data-name="Path 1333" d="M-1098.36,152.246a14.6,14.6,0,0,1,7.344,3.241,15.241,15.241,0,0,1,5.461,9.759,15.514,15.514,0,0,1-9.333,16.761c-.188.085-.377.166-.63.278a31.371,31.371,0,0,1,1.5,9.608,31.172,31.172,0,0,1-1.511,9.661c.246.12.473.235.7.342,5.193,2.393,8.481,6.4,9.246,12.041a15.526,15.526,0,0,1-13.027,17.862,15.724,15.724,0,0,1-16.86-9.287c-.092-.213-.186-.425-.308-.7a31.915,31.915,0,0,1-9.613,1.495,30.768,30.768,0,0,1-9.593-1.495c-.5.94-.921,1.863-1.447,2.723a15.677,15.677,0,0,1-23.634,3.593,3.294,3.294,0,0,1-.448-.435,1.114,1.114,0,0,1,.014-1.44,1.151,1.151,0,0,1,1.481-.265,5.285,5.285,0,0,1,.615.481c4.028,3.227,8.52,4.108,13.348,2.277a12.749,12.749,0,0,0,8.491-10.547,13.326,13.326,0,0,0-11.265-15.129,13.374,13.374,0,0,0-15.169,11.5,13.263,13.263,0,0,0,.98,7.033,5.765,5.765,0,0,1,.239.577,1.156,1.156,0,0,1-.642,1.426,1.113,1.113,0,0,1-1.434-.44,7.089,7.089,0,0,1-.521-1.133,15.7,15.7,0,0,1,8.481-20.184c.188-.08.371-.172.594-.276a31.478,31.478,0,0,1-1.516-9.632,31.342,31.342,0,0,1,1.508-9.647c-.517-.243-1.015-.46-1.5-.707a15.7,15.7,0,0,1-8.49-16.364,15.368,15.368,0,0,1,5.036-9.308A15.633,15.633,0,0,1-1149.2,152a15.188,15.188,0,0,1,12.371,6.712c.7,1.02,1.234,2.158,1.865,3.278a31.648,31.648,0,0,1,19.18.02c.114-.257.2-.469.3-.679,2.246-4.861,7.074-9.1,12.641-9.3A24.108,24.108,0,0,1-1098.36,152.246Zm-36,12.026c.04.325.064.58.1.834a15.572,15.572,0,0,1-3.142,12.134,2.382,2.382,0,0,1-.426.453,1.089,1.089,0,0,1-1.249.1,1,1,0,0,1-.578-1.1,2.24,2.24,0,0,1,.419-.9,13.386,13.386,0,0,0,2.757-9.526,13.387,13.387,0,0,0-15.64-11.853,13.369,13.369,0,0,0-10.681,16.021,13.366,13.366,0,0,0,14.112,10.426,13.845,13.845,0,0,0,5.282-1.553,1.182,1.182,0,0,1,1.762.375c.36.648.108,1.293-.7,1.718a15.429,15.429,0,0,1-8.6,1.8c-.694-.057-1.384-.144-2.115-.221a29.2,29.2,0,0,0,.018,17.915c5.521-.939,10.377.345,14.339,4.29,3.984,3.966,5.279,8.844,4.356,14.316,5.523,2.027,13.234,1.822,17.876-.033a15.456,15.456,0,0,1,4.343-14.268c3.974-3.973,8.857-5.245,14.359-4.311a29.35,29.35,0,0,0,0-17.931c-5.554.938-10.405-.356-14.364-4.312-3.978-3.973-5.27-8.849-4.321-14.378A29.267,29.267,0,0,0-1134.363,164.272Zm33.664,16.648a13.36,13.36,0,0,0,12.983-13.912,13.383,13.383,0,0,0-14.1-12.781,13.39,13.39,0,0,0-12.594,13.892A13.394,13.394,0,0,0-1100.7,180.92Zm-.4,48.722a13.4,13.4,0,0,0,13.4-13.28,13.409,13.409,0,0,0-13.326-13.437,13.415,13.415,0,0,0-13.4,13.366A13.4,13.4,0,0,0-1101.1,229.642Z" fill="#fff"/>
    <path id="Path_1334" data-name="Path 1334" d="M-1154.038,216.089c0-1.458-.011-2.917,0-4.375a1.611,1.611,0,0,1,2.569-1.5q3.832,2.178,7.639,4.4a1.626,1.626,0,0,1,0,3.02q-3.8,2.229-7.638,4.407a1.62,1.62,0,0,1-2.571-1.5C-1154.048,219.058-1154.038,217.573-1154.038,216.089Zm2.375,3.374,5.761-3.336-5.761-3.324Z" fill="#fff"/>
    <path id="Path_1335" data-name="Path 1335" d="M-1118.111,196.753V184.246c-1.505.653-2.95,1.342-4.442,1.91s-3,1-4.55,1.512V193.3c.907.27,1.822.548,2.739.814.449.13.893.343.955.815a1.9,1.9,0,0,1-.246,1.153,1,1,0,0,1-1.2.338c-.753-.208-1.495-.458-2.253-.641a3.08,3.08,0,0,0-.9.013c-.336.022-.67.081-1.006.094-.439.017-.878,0-1.4,0,0,.348-.012.624,0,.9q.156,3.165.319,6.327a4.661,4.661,0,0,1,.006.626,1.1,1.1,0,0,1-.969,1.056,1.094,1.094,0,0,1-1.27-.789,4.076,4.076,0,0,1-.114-.925c-.116-2.239-.225-4.478-.339-6.717-.006-.125-.037-.249-.073-.483-.346,0-.677.013-1.007,0a2.3,2.3,0,0,1-2.361-2.382q-.03-3.051,0-6.1a2.293,2.293,0,0,1,2.38-2.36,30.9,30.9,0,0,1,4.765.043,10.264,10.264,0,0,0,5.4-1.017c1.738-.688,3.4-1.566,5.1-2.353a.787.787,0,0,0,.507-.778,1.144,1.144,0,0,1,1.167-1.2,1.212,1.212,0,0,1,1.157,1.242c.013.156.005.313.005.47q0,9,0,17.992a3.717,3.717,0,0,1-.068.852,1.105,1.105,0,0,1-1.216.875,1.033,1.033,0,0,1-1.022-.991,1.092,1.092,0,0,0-.78-1.1c-.588-.277-1.159-.592-1.731-.9a1.176,1.176,0,0,1-.661-1.609,1.179,1.179,0,0,1,1.723-.476C-1119.047,196.292-1118.613,196.51-1118.111,196.753Zm-15.715-9.336v6.06h4.294v-6.06Z" fill="#fff"/>
    <path id="Path_1336" data-name="Path 1336" d="M-1151.454,164.386a4.485,4.485,0,0,1,2.877-3.682,4.03,4.03,0,0,1,3.612.293,1.08,1.08,0,0,0,1.343-.028,4.828,4.828,0,0,1,.671-.4,1.107,1.107,0,0,1,1.248.128,1.025,1.025,0,0,1,.392,1.182,10.538,10.538,0,0,1-.9,2.058,3,3,0,0,0-.506,1.592,10.646,10.646,0,0,1-1.891,5.782,10.247,10.247,0,0,1-11.45,3.774,16.808,16.808,0,0,1-2.311-.93c-.766-.359-1-.835-.832-1.479.141-.55.555-.8,1.328-.856.714-.055,1.424-.154,2.253-.246a3.381,3.381,0,0,0-.275-.355c-2.515-2.217-2.974-5-2.245-8.115a7.512,7.512,0,0,1,.262-.9c.464-1.25,1.409-1.387,2.311-.417a10.74,10.74,0,0,0,1.987,1.727A12.112,12.112,0,0,0-1151.454,164.386Zm-4.579.361a5.029,5.029,0,0,0,2.764,5.426c.229.122.471.225.691.362a1.167,1.167,0,0,1,.106,2.012c-.235.182-.491.336-.868.592.317.024.463.045.609.045,3.69-.013,7.758-2.712,7.71-8.464a1.784,1.784,0,0,0-.958-1.609,1.989,1.989,0,0,0-3.079,1.51c-.025.285,0,.574-.023.859a1.176,1.176,0,0,1-1.319,1.226,13.1,13.1,0,0,1-2.087-.246A8.91,8.91,0,0,1-1156.033,164.747Z" fill="#fff"/>
    <path id="Path_1337" data-name="Path 1337" d="M-1100.916,168.48v1.579c0,1.641,0,3.283,0,4.925a3.954,3.954,0,0,1-.054.777,1.077,1.077,0,0,1-1.054.878,1.088,1.088,0,0,1-1.163-.838,3.726,3.726,0,0,1-.071-.853c-.006-1.85,0-3.7-.005-5.55,0-.279-.023-.558-.039-.921-.554,0-1.044.015-1.532,0a1.175,1.175,0,0,1-1.256-1.12,1.2,1.2,0,0,1,1.256-1.214c.488-.024.979,0,1.573,0,0-.926-.019-1.777.007-2.626a7.421,7.421,0,0,1,.165-1.781,4.123,4.123,0,0,1,3.411-3.153,11.28,11.28,0,0,1,2.411-.094,1.152,1.152,0,0,1,1.095,1.2,1.163,1.163,0,0,1-1.187,1.11c-.468.024-.938-.005-1.406.013a2.021,2.021,0,0,0-2.126,2.036c-.051,1.062-.011,2.127-.011,3.29.576,0,1.089-.011,1.6,0,.845.022,1.364.479,1.363,1.18s-.5,1.142-1.367,1.161C-1099.8,168.489-1100.3,168.48-1100.916,168.48Z" fill="#fff"/>
    <path id="Path_1338" data-name="Path 1338" d="M-1101.076,207.979c1.59,0,3.179-.011,4.768,0a3.258,3.258,0,0,1,3.57,3.6q.012,4.729,0,9.458a3.272,3.272,0,0,1-3.541,3.568q-4.806.014-9.614,0a3.241,3.241,0,0,1-3.485-3.461q-.03-4.847,0-9.693a3.215,3.215,0,0,1,3.459-3.475C-1104.307,207.962-1102.691,207.979-1101.076,207.979Zm.081,2.347c-1.565,0-3.13-.005-4.695,0-1.113,0-1.344.229-1.346,1.321q-.008,4.655,0,9.31c0,1.036.27,1.306,1.291,1.308q4.656.006,9.311,0c1.081,0,1.347-.261,1.349-1.331q.006-4.654,0-9.31c0-1.045-.249-1.292-1.294-1.3C-1097.918,210.32-1099.457,210.326-1100.995,210.326Z" fill="#fff"/>
    <path id="Path_1339" data-name="Path 1339" d="M-1101.071,219.819a3.506,3.506,0,0,1-3.525-3.52,3.539,3.539,0,0,1,3.582-3.556,3.538,3.538,0,0,1,3.485,3.573A3.5,3.5,0,0,1-1101.071,219.819Zm1.19-3.5a1.186,1.186,0,0,0-1.152-1.221,1.19,1.19,0,0,0-1.213,1.162,1.164,1.164,0,0,0,1.154,1.209A1.159,1.159,0,0,0-1099.881,216.315Z" fill="#fff"/>
  </g>
</svg>
