<svg xmlns="http://www.w3.org/2000/svg" width="80" height="71.302" viewBox="0 0 80 71.302">
  <g id="E_commrce" data-name="E commrce" transform="translate(1603.412 -156.35)">
    <path id="Path_1328" data-name="Path 1328" d="M-1603.412,165.6c.092-.207.191-.412.277-.621a4.07,4.07,0,0,1,3.876-2.785c4.66-.063,9.322-.029,13.983-.02a1.157,1.157,0,0,1,1.285,1.166c0,.718-.5,1.167-1.353,1.169q-6.6.009-13.2,0c-1.852,0-2.522.679-2.522,2.548q0,17.655,0,35.31v.991h59.283a8.843,8.843,0,0,1,.936.023,1.088,1.088,0,0,1,1.068,1.12,1.116,1.116,0,0,1-1.023,1.173,6.62,6.62,0,0,1-.935.027q-29.061,0-58.12,0h-1.209v1.02c0,1.64-.009,3.281,0,4.921a1.975,1.975,0,0,0,2.047,2.16c.26.017.521.008.781.008q34.841,0,69.681,0a8.261,8.261,0,0,0,1.091-.049,1.769,1.769,0,0,0,1.661-1.6c.065-2.125.021-4.254.021-6.454h-1.762c-2.317,0-4.635,0-6.952,0a3.346,3.346,0,0,1-.85-.078,1.06,1.06,0,0,1-.837-1.163,1.067,1.067,0,0,1,.965-1.062,5.97,5.97,0,0,1,.857-.036q3.828,0,7.656,0h.95V167.008c0-1.8-.694-2.49-2.5-2.491h-18.369c.153.248.245.421.36.579a21.5,21.5,0,0,1-12.53,33.717,21.533,21.533,0,0,1-25.884-17.089,21.473,21.473,0,0,1,17.994-25.128,20.805,20.805,0,0,1,9.642.784,2.142,2.142,0,0,1,.91.549,1.01,1.01,0,0,1,.041,1.3,1.172,1.172,0,0,1-1.371.463c-1.315-.3-2.625-.668-3.959-.84a19.15,19.15,0,0,0-20.731,14.467,19.142,19.142,0,0,0,14.738,23.278,19.112,19.112,0,0,0,22.76-15.866c1.016-7.558-1.621-13.681-7.638-18.354-.123-.1-.255-.182-.373-.284a1.18,1.18,0,0,1-.265-1.66,1.138,1.138,0,0,1,1.663-.2,20.935,20.935,0,0,1,1.9,1.5,1.629,1.629,0,0,0,1.184.447c6.432-.015,12.864.057,19.295-.042,2.691-.041,4.588.83,5.482,3.464v47.031a12.663,12.663,0,0,1-1.142,2.093,4.433,4.433,0,0,1-3.72,1.44q-12.187-.021-24.374-.005c-.327,0-.654.028-1,.044v9.056c.25.015.453.038.656.039.938.005,1.876-.02,2.812.013A1.137,1.137,0,0,1-1549,226.5a1.133,1.133,0,0,1-1.14,1.14c-.181.014-.364.006-.547.006q-12.889,0-25.78,0a4.088,4.088,0,0,1-.7-.024,1.117,1.117,0,0,1-.722-1.795,1.823,1.823,0,0,1,1.145-.5c1.081-.067,2.168-.023,3.255-.023v-9.143h-1.077q-11.874,0-23.749,0a10.369,10.369,0,0,1-1.247-.051,4.181,4.181,0,0,1-3.6-2.827c-.084-.215-.167-.431-.25-.646Zm32.379,59.649h14.925V216.2h-14.925Z" fill="#fff"/>
    <path id="Path_1329" data-name="Path 1329" d="M-1571.643,169.795h.944q8,0,16.008,0c1.665,0,2.125.588,1.807,2.245-.643,3.344-1.27,6.692-1.91,10.036-.2,1.033-.53,1.309-1.587,1.31q-5.9.008-11.792,0h-.914l.476,2.523h11.584a6.572,6.572,0,0,1,.7.012,1.134,1.134,0,0,1,1.065,1.135,1.134,1.134,0,0,1-1.022,1.176,6.059,6.059,0,0,1-.866.008,10.659,10.659,0,0,1,.086,2.14,2.075,2.075,0,0,1-.8,1.1,2.117,2.117,0,0,1-2.606-.085c-.873-.7-1-1.656-.4-3.09h-4.326a10.874,10.874,0,0,1,.023,2.141,2.071,2.071,0,0,1-.83,1.072,2.114,2.114,0,0,1-2.6-.168c-.838-.728-.951-1.681-.323-3.045-.155-.018-.29-.042-.426-.049-.93-.045-1.256-.3-1.429-1.21q-1.638-8.619-3.265-17.24c-.044-.23-.108-.457-.137-.688a.582.582,0,0,0-.7-.56,8.121,8.121,0,0,1-1.092-.013,1.159,1.159,0,0,1-1.108-1.186,1.124,1.124,0,0,1,1.147-1.133,13.1,13.1,0,0,1,1.483.007,2.76,2.76,0,0,1,2.517,2.2C-1571.817,168.858-1571.746,169.293-1571.643,169.795Zm4.509,5.593-.239-3.18h-3.833l.616,3.18Zm11.84-3.2h-3.736l-.214,3.2h3.338Zm-9.487,3.19h3.161l.231-3.185h-3.62Zm-5.369,2.431.616,3.184h2.809l-.238-3.184Zm10.709-.01-.23,3.205h2.7l.609-3.205Zm-4.923,3.2h2.334l.217-3.181h-2.786Z" fill="#fff"/>
    <path id="Path_1330" data-name="Path 1330" d="M-1535.073,175.41c-.883,0-1.681.012-2.479-.006a2.63,2.63,0,0,1-.914-.138,1.048,1.048,0,0,1-.684-1.186,1.056,1.056,0,0,1,1.031-.994c.7-.035,1.4-.016,2.1-.02h.942c0-.8,0-1.524,0-2.242a5.241,5.241,0,0,1,.053-.931,1.131,1.131,0,0,1,1.166-.941,1.105,1.105,0,0,1,1.089,1.021c.052.646.027,1.3.033,1.948,0,.334,0,.669,0,1.145h2.04c.312,0,.625-.012.935.01a1.155,1.155,0,0,1,1.133,1.071,1.127,1.127,0,0,1-.988,1.206,18.791,18.791,0,0,1-1.945.056c-.359.006-.719,0-1.175,0,0,.847.005,1.621,0,2.394a3.206,3.206,0,0,1-.064.851,1.067,1.067,0,0,1-1.168.828,1.049,1.049,0,0,1-1.056-.967c-.068-.643-.042-1.3-.052-1.945C-1535.077,176.215-1535.073,175.859-1535.073,175.41Z" fill="#fff"/>
    <path id="Path_1331" data-name="Path 1331" d="M-1589.269,197.943c2.056,0,4.112.008,6.167,0a1.272,1.272,0,0,1,1.3.671,1.163,1.163,0,0,1-1.115,1.669c-.962.033-1.925.009-2.888.009h-9.367c-.209,0-.418.011-.625-.009a1.191,1.191,0,0,1-1.151-1.155,1.154,1.154,0,0,1,1.2-1.171c1.457-.023,2.914-.008,4.372-.009Z" fill="#fff"/>
    <path id="Path_1332" data-name="Path 1332" d="M-1592.32,194.991c-1.09,0-2.18.01-3.27,0-.84-.01-1.363-.475-1.36-1.171s.536-1.161,1.373-1.165q3.27-.015,6.539,0a1.21,1.21,0,0,1,1.362,1.178c-.005.692-.531,1.149-1.375,1.158C-1590.14,195-1591.23,194.992-1592.32,194.991Z" fill="#fff"/>
  </g>
</svg>
