<svg xmlns="http://www.w3.org/2000/svg" width="80" height="80" viewBox="0 0 80 80">
  <g id="Financial_Institutions" data-name="Financial Institutions" transform="translate(2053.39 -152)">
    <path id="Path_1340" data-name="Path 1340" d="M-2053.39,211.219a4.133,4.133,0,0,1,2.183-2.409c1.311-.688,2.572-1.472,3.856-2.212,1.962-1.132,3.067-1,4.716.585.906-.515,1.829-1.037,2.749-1.563q6.673-3.81,13.34-7.629a2.231,2.231,0,0,1,1.849-.247c7.16,1.995,14.327,3.958,21.488,5.947a1.62,1.62,0,0,0,1.383-.173c3.274-1.921,6.553-3.836,9.859-5.7a5.648,5.648,0,0,1,8.348,3.429c.143.543.185,1.113.288,1.761l1.245-.7a5.639,5.639,0,0,1,8.569,3.629,1.93,1.93,0,0,0,.127.283v1.719c-.49,2.3-2.03,3.648-4,4.773q-13.42,7.648-26.759,15.443a3.159,3.159,0,0,1-2.648.331c-7.17-1.958-14.355-3.864-21.538-5.777a1.285,1.285,0,0,0-.821-.026c-1.165.615-2.3,1.287-3.425,1.929.527,1.9.149,3.2-1.247,4.018-1.968,1.157-3.974,2.25-5.964,3.371h-1.25a4.165,4.165,0,0,1-2.439-2.14c-2.683-4.718-5.421-9.406-8.126-14.112-.619-1.078-1.187-2.185-1.779-3.279Zm19.508,11.241c1.318-.747,2.566-1.437,3.794-2.16a1.975,1.975,0,0,1,1.631-.22c7.327,1.974,14.661,3.922,21.987,5.9a1.657,1.657,0,0,0,1.389-.189q11.1-6.435,22.224-12.841c1.779-1.027,3.57-2.034,5.332-3.091a3.149,3.149,0,0,0,.472-5.208,3.135,3.135,0,0,0-3.715-.216q-8.655,4.983-17.3,9.987a2.8,2.8,0,0,0-.505.36,6.429,6.429,0,0,1-6.511,1.5c-3.006-.832-6.025-1.614-9.038-2.419q-4.707-1.258-9.413-2.523a1.287,1.287,0,0,1-1.077-1.611,1.306,1.306,0,0,1,1.7-.819c.1.023.2.066.3.092q9.227,2.468,18.454,4.93a3.81,3.81,0,0,0,4.913-3.052,3.843,3.843,0,0,0-2.964-4.329q-11.232-3.111-22.467-6.212a1.494,1.494,0,0,0-1.245.174q-7.442,4.275-14.9,8.521c-.195.112-.379.245-.6.385Zm-6.718,7.1a5.1,5.1,0,0,0,.556-.226c1.6-.918,3.2-1.844,4.8-2.762.505-.29.49-.643.222-1.106q-4.787-8.263-9.558-16.537c-.385-.665-.575-.711-1.252-.324q-2.2,1.259-4.387,2.535c-.794.462-.822.582-.348,1.407q1.419,2.466,2.844,4.93,3.255,5.637,6.516,11.271A8.234,8.234,0,0,0-2040.6,229.565Zm43.93-18.959a.813.813,0,0,0,.229-.026c3.019-1.739,6.054-3.45,9.046-5.233a3.1,3.1,0,0,0,1.036-4.246,3.146,3.146,0,0,0-4.2-1.2c-.624.32-1.222.69-1.83,1.041l-7.075,4.091A6.62,6.62,0,0,1-1996.67,210.606Z" fill="#fff"/>
    <path id="Path_1341" data-name="Path 1341" d="M-1981.2,152c.265.093.529.191.8.278a5.564,5.564,0,0,1,3.843,5.089,5.6,5.6,0,0,1-3.217,5.209,5.419,5.419,0,0,1-6.141-1.045,1.015,1.015,0,0,0-1.389-.228c-3.554,1.667-7.126,3.293-10.692,4.935-.209.1-.411.209-.6.306.255,5.292-3.763,8.066-8.5,5.828l-12.213,11.972c1.27,2.562,1.082,4.966-1.028,6.98a5.116,5.116,0,0,1-5.727,1.1c-2.648-1.06-3.7-3.2-3.558-6-2.649-1.055-5.278-2.1-7.907-3.15-.676-.269-1.368-.5-2.027-.809a.782.782,0,0,0-1.059.245,5.508,5.508,0,0,1-9.354-2.245,5.216,5.216,0,0,1,1.659-5.659,5.194,5.194,0,0,1,5.891-.91,5.276,5.276,0,0,1,3.285,4.9c.009.182-.005.364-.007.546s0,.361,0,.607l10.446,4.144a5.723,5.723,0,0,1,7.62-1.517l12.241-12a5.552,5.552,0,0,1-.724-3.778,5.323,5.323,0,0,1,3.839-4.406,5.315,5.315,0,0,1,5.6,1.428c.284.28.473.45.916.243,3.769-1.759,7.553-3.487,11.331-5.226a3.532,3.532,0,0,0,.331-.207,10.746,10.746,0,0,1,.023-2.136,5.4,5.4,0,0,1,3.819-4.247c.215-.072.425-.16.638-.241Zm-22.877,12.639a3.021,3.021,0,0,0-3.061,2.989,3.065,3.065,0,0,0,3.056,3.1,3.086,3.086,0,0,0,3.031-3.052A3.037,3.037,0,0,0-2004.079,164.639Zm-19.977,25.659a3.032,3.032,0,0,0,3.009-3.048,3.074,3.074,0,0,0-3.039-3.04,3.079,3.079,0,0,0-3.049,3.109A3.039,3.039,0,0,0-2024.056,190.3Zm41.969-35.8a3.025,3.025,0,0,0-3.051,3,3.032,3.032,0,0,0,2.967,3.086,3.078,3.078,0,0,0,3.115-3.042A3.077,3.077,0,0,0-1982.087,154.5Zm-59.554,24.426a3.008,3.008,0,0,0-3.019-3.028,3.056,3.056,0,0,0-3.063,3.005,3.089,3.089,0,0,0,3.08,3.081A3.042,3.042,0,0,0-2041.641,178.928Z" fill="#fff"/>
    <path id="Path_1342" data-name="Path 1342" d="M-2024.171,152c.574.145,1.153.274,1.722.437a11.1,11.1,0,0,1,8.041,11.3,11.146,11.146,0,0,1-9.877,10.426,11.171,11.171,0,0,1-12.206-9.41,11.146,11.146,0,0,1,9.155-12.6,3.85,3.85,0,0,0,.509-.152Zm-1.387,19.7a8.616,8.616,0,0,0,8.674-8.591,8.641,8.641,0,0,0-8.511-8.608,8.628,8.628,0,0,0-8.709,8.562A8.609,8.609,0,0,0-2025.558,171.7Z" fill="#fff"/>
    <path id="Path_1343" data-name="Path 1343" d="M-2029.333,166c.011-.953.45-1.468,1.136-1.518a1.226,1.226,0,0,1,1.352,1.117,3.9,3.9,0,0,0,.089.535,1.308,1.308,0,0,0,1.475.878,1.306,1.306,0,0,0,1.114-1.222c.064-.748-.153-1.052-.941-1.283-.523-.153-1.053-.283-1.576-.435a3.3,3.3,0,0,1-2.619-2.945,3.742,3.742,0,0,1,1.872-3.9,1.274,1.274,0,0,0,.744-1.118,1.11,1.11,0,0,1,1.18-1.013,1.082,1.082,0,0,1,1.19.992c.016.669.391.911.869,1.21a3.607,3.607,0,0,1,1.779,3.108,1.207,1.207,0,0,1-1.13,1.332,1.231,1.231,0,0,1-1.349-1.123c-.029-.153-.018-.315-.06-.463a1.344,1.344,0,0,0-1.431-.962,1.333,1.333,0,0,0-1.189,1.242c-.064.74.152,1.038.948,1.273.523.155,1.052.286,1.575.441a3.309,3.309,0,0,1,2.616,2.948,3.756,3.756,0,0,1-1.874,3.9,1.164,1.164,0,0,0-.73,1.042,1.142,1.142,0,0,1-1.2,1.1,1.165,1.165,0,0,1-1.218-1.159,1,1,0,0,0-.637-.93A3.686,3.686,0,0,1-2029.333,166Z" fill="#fff"/>
  </g>
</svg>
