<svg xmlns="http://www.w3.org/2000/svg" width="80" height="78.703" viewBox="0 0 80 78.703">
  <g id="Healthcare" transform="translate(278.978 -152.648)">
    <path id="Path_1355" data-name="Path 1355" d="M-278.978,203.9a2.516,2.516,0,0,1,2.381-1.118c2.811.054,5.624.018,8.436.019,1.593,0,1.951.245,2.492,1.749l5-.829c-.84-.858-1.584-1.615-2.326-2.374a22.339,22.339,0,0,1-3.942-25.26,1.691,1.691,0,0,1,.806-.87,1.583,1.583,0,0,1,1.2.256c.474.344.4.89.194,1.423a29.61,29.61,0,0,0-1.5,4.089c-1.6,7.123-.081,13.46,5.014,18.818.968,1.019,1.971,2.005,2.943,3.022a.986.986,0,0,0,1.01.352c3.225-.576,6.461-1.091,9.689-1.652a22.236,22.236,0,0,1,8.3.229c1.58.32,3.175.566,4.751.9a6.93,6.93,0,0,1,3.908,2.279,4.781,4.781,0,0,1-2.722,8.029,12.951,12.951,0,0,1-4.348-.069c-1.834-.218-3.664-.469-5.5-.689a1.473,1.473,0,0,0-1.827,1.257,1.549,1.549,0,0,0,1.33,1.811q5.526,1,11.064,1.937c1.583.266,3.084-.339,4.622-.556a2.1,2.1,0,0,0,1.262-.679c5.339-5.485,10.735-10.916,16.03-16.443a19.1,19.1,0,0,0,5.214-16.144c-.173-1.483-.6-2.936-.931-4.5a13.857,13.857,0,0,1-12.366.206,13.884,13.884,0,0,1-7.686-9.548,19.068,19.068,0,0,0-6.088,3.788c-.731.667-1.412,1.387-2.153,2.042a1.74,1.74,0,0,1-2.75-.008c-.719-.639-1.381-1.344-2.094-1.991a18.168,18.168,0,0,0-11.643-5.038,13.122,13.122,0,0,0-10.08,3.781c-.131.127-.252.264-.386.387a1.152,1.152,0,0,1-1.731.071,1.189,1.189,0,0,1,.093-1.741,14.939,14.939,0,0,1,7.741-4.429,18.769,18.769,0,0,1,15.1,3.285c1.556,1.071,2.933,2.4,4.482,3.688a23.2,23.2,0,0,1,9.054-6.181c.209-1.433.343-2.8.628-4.142a13.466,13.466,0,0,1,.9-2.485,1.152,1.152,0,0,1,1.62-.747,1.186,1.186,0,0,1,.487,1.725,11.342,11.342,0,0,0-.061,9.815,11.541,11.541,0,0,0,12.38,6.577,11.564,11.564,0,0,0,9.52-9.77A11.542,11.542,0,0,0-213.7,155.024a11.27,11.27,0,0,0-5.993,2.21c-.93.686-1.565.706-2.046.076s-.242-1.317.692-2a13.912,13.912,0,0,1,21.921,9.245,5.943,5.943,0,0,0,.148.6v2.812a1.959,1.959,0,0,0-.126.366,13.654,13.654,0,0,1-5.009,8.971.686.686,0,0,0-.2.93,21.54,21.54,0,0,1,1.323,6.705,21.615,21.615,0,0,1-6.168,16.389c-4.453,4.6-8.946,9.164-13.42,13.744-.147.151-.275.319-.479.557a4.168,4.168,0,0,0,.442-.025c2.318-.469,4.642-.913,6.95-1.424a10.125,10.125,0,0,1,4.013-.281,4.283,4.283,0,0,1,3.744,4.535,5.209,5.209,0,0,1-1.648,3.358,7.661,7.661,0,0,1-3.115,1.709c-7.027,2.248-14.059,4.484-21.074,6.767a18.022,18.022,0,0,1-10.735.479c-5.953-1.676-11.926-3.277-17.891-4.908-1.1-.3-2.2-.586-3.289-.876-.565,1.489-.939,1.742-2.512,1.742-2.863,0-5.726-.02-8.589.011a2.15,2.15,0,0,1-2.215-1.249Zm13.189,18.553c.287.085.508.155.732.216,6.869,1.873,13.753,3.69,20.6,5.641a15.554,15.554,0,0,0,9.353-.1c5.214-1.7,10.443-3.345,15.665-5.016,2.178-.7,4.357-1.387,6.528-2.106a3.58,3.58,0,0,0,2.57-2.4,1.735,1.735,0,0,0-1.156-2.3,5.694,5.694,0,0,0-2.066-.207,22.228,22.228,0,0,0-2.44.5c-3.952.782-7.9,1.569-11.861,2.325a13.627,13.627,0,0,1-4.859.542c-3.9-.658-7.794-1.31-11.671-2.067a3.756,3.756,0,0,1-2.906-4.42,3.721,3.721,0,0,1,4.259-3.2c1.835.207,3.663.481,5.5.687a9.9,9.9,0,0,0,3.952.052,2.4,2.4,0,0,0,1.233-4.1,5.047,5.047,0,0,0-3.1-1.658c-1.357-.238-2.716-.468-4.065-.75a20.4,20.4,0,0,0-7.672-.268q-8.959,1.524-17.925,3c-.535.088-.682.269-.678.783.021,2.577.009,5.154.009,7.731Zm-10.783-17.265V224.3h8.4V205.189Z" fill="#fff"/>
    <path id="Path_1356" data-name="Path 1356" d="M-235.913,185.741l-4.126,7.2c-.09.158-.174.32-.269.475a1.2,1.2,0,0,1-2.221.057c-.751-1.156-1.471-2.332-2.206-3.5-.136-.215-.282-.424-.5-.749-.6.98-1.2,1.85-1.672,2.787a2.118,2.118,0,0,1-2.241,1.283c-1.975-.077-3.956-.022-5.935-.022-.182,0-.365.009-.546,0a1.152,1.152,0,0,1-1.188-1.181,1.13,1.13,0,0,1,1.211-1.15c1.822-.02,3.646-.054,5.466.012a1.581,1.581,0,0,0,1.715-.946c.605-1.177,1.34-2.288,2.037-3.416.659-1.067,1.583-1.086,2.26-.041.736,1.135,1.445,2.288,2.168,3.431.135.214.284.419.474.7.174-.273.317-.478.441-.694q2-3.486,3.989-6.976a1.313,1.313,0,0,1,1.208-.834c.613.016.906.426,1.166.9q2.7,4.927,5.4,9.85c.148.269.3.535.505.9.945-1.58,1.873-3.046,2.71-4.563a1.972,1.972,0,0,1,1.993-1.153c2.862.057,5.727.02,8.59.021a5.912,5.912,0,0,1,.625.009,1.137,1.137,0,0,1,1.066,1.135,1.149,1.149,0,0,1-1.021,1.18,4.972,4.972,0,0,1-.7.019c-2.629,0-5.259.013-7.888-.011a.972.972,0,0,0-.981.559c-.987,1.712-2.01,3.4-3.026,5.1-.342.572-.6,1.261-1.449,1.235s-1.063-.735-1.382-1.316q-2.6-4.715-5.182-9.436C-235.558,186.345-235.7,186.1-235.913,185.741Z" fill="#fff"/>
    <path id="Path_1357" data-name="Path 1357" d="M-214.031,165.359c0-.94,0-1.793,0-2.645a7.864,7.864,0,0,1,.026-.935,1.1,1.1,0,0,1,1.089-1.015,1.054,1.054,0,0,1,1.162.926,17.747,17.747,0,0,1,.064,1.946c.008.54,0,1.08,0,1.723.927,0,1.776,0,2.625,0a6.6,6.6,0,0,1,.934.035,1.12,1.12,0,0,1,1.036,1.235,1.091,1.091,0,0,1-1.132,1.057c-.832.034-1.665.013-2.5.016h-.966c0,.917,0,1.764,0,2.612a6.674,6.674,0,0,1-.04,1.011,1.138,1.138,0,0,1-1.188,1.009,1.112,1.112,0,0,1-1.093-1.1c-.039-.909-.015-1.82-.023-2.731,0-.229-.025-.457-.045-.8h-1.879c-.494,0-.989.015-1.482-.007a1.15,1.15,0,0,1-1.223-1.144,1.153,1.153,0,0,1,1.2-1.175c.831-.042,1.665-.015,2.5-.018Z" fill="#fff"/>
  </g>
</svg>
