<svg xmlns="http://www.w3.org/2000/svg" width="80" height="76.892" viewBox="0 0 80 76.892">
  <g id="Retail_FMCG" data-name="Retail &amp; FMCG" transform="translate(-152 -153.554)">
    <path id="Path_1350" data-name="Path 1350" d="M152,226.054c.059-.17.126-.338.176-.511a5.057,5.057,0,0,1,4.844-3.72c1.275-.023,2.552,0,3.828-.009.253,0,.507-.022.837-.037V197.925c0-.234-.013-.471.01-.7a1.157,1.157,0,0,1,1.119-1.094,1.143,1.143,0,0,1,1.2,1.093c.043.622.016,1.249.016,1.874,0,1.664,0,3.328,0,5.057h14.016v-4.713c-.568,0-1.107.013-1.647,0a1.947,1.947,0,0,1-1.933-2.774q1.105-3.165,2.269-6.311a2.727,2.727,0,0,1,2.748-1.919q12.5-.015,25,0a2.756,2.756,0,0,1,2.8,1.959q1.143,3.109,2.24,6.238a1.956,1.956,0,0,1-1.964,2.809c-.517.012-1.035,0-1.6,0v4.779c1.321,0,2.615,0,3.909,0a5.416,5.416,0,0,1,.856.034,1.13,1.13,0,0,1,1.015,1.258,1.08,1.08,0,0,1-1.15,1.038c-1.249.027-2.5.011-3.75.013h-.885V214.6h13.958v-7.992c-.191-.015-.412-.048-.633-.049-1.146-.006-2.292.01-3.438-.009a1.147,1.147,0,0,1-1.263-1.1,1.17,1.17,0,0,1,1.238-1.223c1.35-.034,2.7-.01,4.1-.01V184.329H164.029v.822q0,3.243,0,6.485a5.406,5.406,0,0,1-.011.624,1.19,1.19,0,0,1-1.209,1.094,1.177,1.177,0,0,1-1.113-1.108,5.92,5.92,0,0,1-.01-.625v-7.338c-.978,0-1.881,0-2.784,0-2.251-.008-3.289-1.05-3.29-3.3q0-8.829,0-17.656a3.036,3.036,0,0,1,.914-2.4,2.7,2.7,0,0,1,1.929-.706c1.038.009,2.076,0,3.167,0,.027-.248.065-.444.066-.64.007-1.12-.018-2.24.011-3.359a2.717,2.717,0,0,1,2.638-2.665c.13-.006.261,0,.391,0q27.266,0,54.531,0a4.348,4.348,0,0,1,.855.052,2.712,2.712,0,0,1,2.2,2.668c.021,1.274,0,2.549,0,3.892.264.019.489.049.714.05.885.007,1.771-.017,2.656.011a2.71,2.71,0,0,1,2.7,2.6c.015.207.008.416.008.625q0,8.788,0,17.578c0,2.189-1.057,3.238-3.267,3.248-.906,0-1.811,0-2.761,0v37.533c1.357,0,2.677-.008,4,0a7.726,7.726,0,0,1,1.554.1,5.015,5.015,0,0,1,3.911,3.631c.054.17.118.338.177.507v2.969a2.55,2.55,0,0,1-2.6,1.423q-37.4-.034-74.807,0a2.552,2.552,0,0,1-2.6-1.423Zm12.03-65.833h45.385a6.616,6.616,0,0,1,.935.033,1.1,1.1,0,0,1,.951,1.073,1.074,1.074,0,0,1-.782,1.131,3.317,3.317,0,0,1-.924.1c-2.422.008-4.843.005-7.264.005q-21.673,0-43.348,0c-1.012,0-1.027.015-1.028.977q0,8.748,0,17.495c0,.825.068.887.887.9.209,0,.417,0,.625,0h58.813c2.291,0,4.582,0,6.873,0,.821,0,.89-.074.89-.9q0-8.787,0-17.574c0-.861-.043-.9-.948-.9q-3.748,0-7.5,0c-.729,0-1.458.019-2.186-.008a1.222,1.222,0,0,1-1.333-1.221c.028-.664.534-1.094,1.343-1.11.7-.014,1.406,0,2.108,0h2.439c0-1.333,0-2.554,0-3.776,0-.4-.211-.558-.589-.547-.182.005-.364,0-.546,0H165.177c-.182,0-.365.007-.547,0-.432-.019-.607.19-.6.614C164.036,157.707,164.03,158.9,164.03,160.221Zm65.617,67.835c0-.521.029-.963-.006-1.4a2.709,2.709,0,0,0-2.564-2.486c-.26-.014-.521-.009-.781-.009q-34.3,0-68.591,0c-.26,0-.521-.005-.781.009a2.581,2.581,0,0,0-2.42,1.88,12.8,12.8,0,0,0-.205,2.007Zm-38.872-6.288V199.5h-10.28v22.265Zm2.446-22.282v22.273H203.51V199.486ZM164.054,214.6h13.991v-7.979H164.054Zm0,7.178H178.04v-4.72H164.058Zm41.867-.019h14v-4.709h-14Zm-8.178-24.705c-.752-2.08-1.443-4.034-2.182-5.969-.064-.168-.451-.3-.689-.3-1.9-.024-3.8,0-5.693-.025a.789.789,0,0,0-.9.62c-.579,1.694-1.2,3.373-1.8,5.06a6.114,6.114,0,0,0-.147.613Zm-11.826-6.193a1.086,1.086,0,0,0-.251-.078c-2.03-.005-4.061,0-6.092-.014-.47,0-.606.283-.737.653-.608,1.714-1.235,3.422-1.849,5.134a4.467,4.467,0,0,0-.114.542c2.182,0,4.289-.008,6.4.007.393,0,.536-.179.654-.514.623-1.764,1.268-3.521,1.9-5.282A3.166,3.166,0,0,0,185.921,190.858ZM207.17,197.1c-.1-.336-.172-.579-.257-.816-.431-1.2-.852-2.4-1.3-3.592-.891-2.358-.219-1.869-2.729-1.913-1.583-.028-3.167,0-4.77,0a1.35,1.35,0,0,0,0,.369c.665,1.86,1.344,3.714,2,5.577.126.356.364.383.668.382,1.093-.006,2.187,0,3.28,0Z" fill="#fff"/>
    <path id="Path_1351" data-name="Path 1351" d="M191.776,172.128a7.534,7.534,0,1,1,7.364,7.655A7.565,7.565,0,0,1,191.776,172.128Zm12.723.141a5.191,5.191,0,1,0-5.243,5.174A5.218,5.218,0,0,0,204.5,172.269Z" fill="#fff"/>
    <path id="Path_1352" data-name="Path 1352" d="M180.568,170.811h6.449v-.869c0-1.327-.016-2.654.009-3.98a1.188,1.188,0,0,1,1.2-1.264,1.152,1.152,0,0,1,1.125,1.244q.017,6.283,0,12.566a1.17,1.17,0,0,1-1.1,1.271,1.187,1.187,0,0,1-1.226-1.239c-.027-1.43-.009-2.862-.01-4.293v-.984h-6.4c-.015.2-.045.427-.046.651,0,1.43.006,2.861-.009,4.292a2.419,2.419,0,0,1-.152.91,1.041,1.041,0,0,1-1.136.649,1.091,1.091,0,0,1-1.018-.927,3.883,3.883,0,0,1-.03-.7q0-5.894,0-11.786c0-1.111.412-1.68,1.189-1.656.746.023,1.151.593,1.153,1.638C180.571,167.811,180.568,169.288,180.568,170.811Z" fill="#fff"/>
    <path id="Path_1353" data-name="Path 1353" d="M170.563,179.791a7.344,7.344,0,0,1-5-2.06c-.634-.624-.708-1.253-.232-1.786s1.192-.505,1.85.1a4.561,4.561,0,0,0,4.3,1.253,2.826,2.826,0,0,0,1.094-.562,1.561,1.561,0,0,0-.1-2.682,8.383,8.383,0,0,0-1.526-.767c-.979-.417-1.981-.782-2.959-1.2a3.635,3.635,0,0,1-1.292-5.836,4.746,4.746,0,0,1,3.777-1.547,6.972,6.972,0,0,1,4.132,1.438,1.184,1.184,0,0,1,.4,1.7,1.172,1.172,0,0,1-1.715.231,4.471,4.471,0,0,0-3.664-.907,2.529,2.529,0,0,0-1.081.566,1.286,1.286,0,0,0,.393,2.216c1.145.493,2.318.921,3.461,1.419a7.559,7.559,0,0,1,1.557.871,3.916,3.916,0,0,1,.019,6.411A5.555,5.555,0,0,1,170.563,179.791Z" fill="#fff"/>
    <path id="Path_1354" data-name="Path 1354" d="M211.762,174.206c0,1.407,0,2.652,0,3.9,0,1.109-.413,1.685-1.18,1.677s-1.161-.581-1.162-1.7q0-5.852,0-11.7c0-1.359.345-1.7,1.725-1.69a32.734,32.734,0,0,1,3.736.1,4.7,4.7,0,0,1,4.1,4.822,4.776,4.776,0,0,1-4.626,4.588C213.526,174.233,212.7,174.206,211.762,174.206Zm.07-7.13v4.792c.829,0,1.6.023,2.372-.006a2.48,2.48,0,0,0,2.429-2.282,2.42,2.42,0,0,0-2.12-2.484A23.159,23.159,0,0,0,211.832,167.076Z" fill="#fff"/>
  </g>
</svg>
