<svg xmlns="http://www.w3.org/2000/svg" width="40" height="40" viewBox="0 0 40 40">
  <g id="Facebook_Icon" data-name="Facebook Icon" transform="translate(-260.274 -896.692)">
    <circle id="Ellipse_55" data-name="Ellipse 55" cx="20" cy="20" r="20" transform="translate(260.274 896.693)" fill="none"/>
    <path id="Path_1318" data-name="Path 1318" d="M280.274,899.527a17.165,17.165,0,1,1-17.166,17.166,17.184,17.184,0,0,1,17.166-17.166m0-.835a18,18,0,1,0,18,18,18,18,0,0,0-18-18Z" fill="#fff"/>
    <path id="Path_1319" data-name="Path 1319" d="M283.212,910.424c.586-.02,1.172,0,1.76-.005h.242v-3.05c-.313-.031-.641-.076-.969-.092-.6-.027-1.2-.057-1.8-.043a4.416,4.416,0,0,0-2.548.788,3.811,3.811,0,0,0-1.532,2.546,8.925,8.925,0,0,0-.106,1.308c-.017.685,0,1.369,0,2.054v.256h-2.918v3.406h2.9v8.562h3.545v-8.548h2.891c.149-1.133.293-2.254.445-3.422-.232,0-.441,0-.65,0-.822,0-2.71,0-2.71,0s.009-1.689.029-2.421C281.813,910.759,282.408,910.453,283.212,910.424Z" fill="#fff" fill-rule="evenodd"/>
  </g>
</svg>
