<svg xmlns="http://www.w3.org/2000/svg" width="40" height="40" viewBox="0 0 40 40">
  <g id="Instagram_Icon" data-name="Instagram Icon" transform="translate(-488.692 -898.312)">
    <circle id="Ellipse_58" data-name="Ellipse 58" cx="20" cy="20" r="20" transform="translate(488.692 898.311)" fill="none"/>
    <path id="Path_1325" data-name="Path 1325" d="M508.692,901.146a17.165,17.165,0,1,1-17.166,17.165,17.184,17.184,0,0,1,17.166-17.165m0-.835a18,18,0,1,0,18,18,18,18,0,0,0-18-18Z" fill="#fff"/>
    <g id="Group_263" data-name="Group 263">
      <path id="Path_1326" data-name="Path 1326" d="M517.6,913.983a4.661,4.661,0,0,0-1.421-3,4.875,4.875,0,0,0-3.223-1.309,63.357,63.357,0,0,0-8.694.1,4.436,4.436,0,0,0-3.8,3.414c-.419,1.495-.336,8.388-.091,9.867a4.448,4.448,0,0,0,3.531,3.833,52.094,52.094,0,0,0,9.729.064,4.456,4.456,0,0,0,3.851-3.514C517.879,921.9,517.739,915.367,517.6,913.983Zm-1.617,8.783a2.978,2.978,0,0,1-2.8,2.655c-1.418.155-7.75.241-9.065-.127a2.883,2.883,0,0,1-2.186-2.483,58.8,58.8,0,0,1,0-8.87,2.973,2.973,0,0,1,2.785-2.644,62.122,62.122,0,0,1,8.653.035,2.975,2.975,0,0,1,2.649,2.8A63.167,63.167,0,0,1,515.981,922.766Zm-7.027-8.912a4.507,4.507,0,1,0,4.5,4.51A4.507,4.507,0,0,0,508.954,913.854Zm-.031,7.419a2.915,2.915,0,1,1,2.94-2.889A2.914,2.914,0,0,1,508.923,921.273Zm5.769-7.589a1.056,1.056,0,1,1-1.053-1.058A1.055,1.055,0,0,1,514.692,913.684Z" fill="#fff"/>
      <path id="Path_1327" data-name="Path 1327" d="M517.6,913.983a4.661,4.661,0,0,0-1.421-3,4.875,4.875,0,0,0-3.223-1.309,63.357,63.357,0,0,0-8.694.1,4.436,4.436,0,0,0-3.8,3.414c-.419,1.495-.336,8.388-.091,9.867a4.448,4.448,0,0,0,3.531,3.833,52.094,52.094,0,0,0,9.729.064,4.456,4.456,0,0,0,3.851-3.514C517.879,921.9,517.739,915.367,517.6,913.983Zm-1.617,8.783a2.978,2.978,0,0,1-2.8,2.655c-1.418.155-7.75.241-9.065-.127a2.883,2.883,0,0,1-2.186-2.483,58.8,58.8,0,0,1,0-8.87,2.973,2.973,0,0,1,2.785-2.644,62.122,62.122,0,0,1,8.653.035,2.975,2.975,0,0,1,2.649,2.8A63.167,63.167,0,0,1,515.981,922.766Zm-7.027-8.912a4.507,4.507,0,1,0,4.5,4.51A4.507,4.507,0,0,0,508.954,913.854Zm-.031,7.419a2.915,2.915,0,1,1,2.94-2.889A2.914,2.914,0,0,1,508.923,921.273Zm5.769-7.589a1.056,1.056,0,1,1-1.053-1.058A1.055,1.055,0,0,1,514.692,913.684Z" fill="#fff"/>
    </g>
  </g>
</svg>
