<svg xmlns="http://www.w3.org/2000/svg" width="40" height="40" viewBox="0 0 40 40">
  <g id="LinkedIn_Icon" data-name="LinkedIn Icon" transform="translate(-336.413 -895.883)">
    <circle id="Ellipse_56" data-name="Ellipse 56" cx="20" cy="20" r="20" transform="translate(336.413 895.883)" fill="none"/>
    <path id="Path_1320" data-name="Path 1320" d="M356.413,898.718a17.165,17.165,0,1,1-17.165,17.165,17.185,17.185,0,0,1,17.165-17.165m0-.835a18,18,0,1,0,18,18,18,18,0,0,0-18-18Z" fill="#fff"/>
    <g id="Group_260" data-name="Group 260">
      <path id="Path_1321" data-name="Path 1321" d="M349.6,912.015H353v10.936h-3.4Zm1.7-5.434a1.971,1.971,0,1,1-1.973,1.969,1.971,1.971,0,0,1,1.973-1.969" fill="#fff"/>
      <path id="Path_1322" data-name="Path 1322" d="M355.137,912.015H358.4v1.5h.044a3.575,3.575,0,0,1,3.219-1.767c3.442,0,4.076,2.264,4.076,5.209v6h-3.4v-5.317c0-1.269-.024-2.9-1.766-2.9-1.77,0-2.04,1.382-2.04,2.808v5.409h-3.4Z" fill="#fff"/>
    </g>
  </g>
</svg>
