<svg xmlns="http://www.w3.org/2000/svg" width="40" height="40" viewBox="0 0 40 40">
  <g id="twitter_Icon" data-name="twitter Icon" transform="translate(-412.552 -897.502)">
    <circle id="Ellipse_57" data-name="Ellipse 57" cx="20" cy="20" r="20" transform="translate(412.552 897.502)" fill="none"/>
    <path id="Path_1323" data-name="Path 1323" d="M432.553,900.336A17.165,17.165,0,1,1,415.387,917.5a17.185,17.185,0,0,1,17.166-17.166m0-.834a18,18,0,1,0,18,18,18,18,0,0,0-18-18Z" fill="#fff"/>
    <path id="Path_1324" data-name="Path 1324" d="M429.538,923.077a4.265,4.265,0,0,1-3.956-2.951,4.214,4.214,0,0,0,1.823-.055.385.385,0,0,0,.061-.028,4.24,4.24,0,0,1-2.761-1.95,4.123,4.123,0,0,1-.623-2.261,4.184,4.184,0,0,0,1.892.515,4.271,4.271,0,0,1-1.75-2.579,4.207,4.207,0,0,1,.456-3.079,12.168,12.168,0,0,0,8.769,4.443c-.025-.169-.051-.317-.069-.466a4.251,4.251,0,0,1,7.227-3.516.214.214,0,0,0,.226.067,8.548,8.548,0,0,0,2.473-.951.589.589,0,0,1,.056-.029s.011,0,.029,0a4.353,4.353,0,0,1-1.821,2.313,8.1,8.1,0,0,0,2.367-.637l.018.02c-.163.213-.32.43-.489.637a8.341,8.341,0,0,1-1.546,1.469.144.144,0,0,0-.07.133,11.676,11.676,0,0,1-.079,1.888,12.5,12.5,0,0,1-1.1,3.786,12.212,12.212,0,0,1-2.3,3.351,11.365,11.365,0,0,1-5.842,3.256,12.644,12.644,0,0,1-2.368.281,11.994,11.994,0,0,1-6.8-1.826c-.026-.015-.053-.034-.1-.064a8.6,8.6,0,0,0,4.253-.587A8.4,8.4,0,0,0,429.538,923.077Z" fill="#fff" fill-rule="evenodd"/>
  </g>
</svg>
