<svg id="Layer_1" data-name="Layer 1" xmlns="http://www.w3.org/2000/svg" viewBox="0 0 841.89 595.28"><defs><style>.cls-1,.cls-2,.cls-3{fill:#e73b2a;}.cls-2{stroke:#e73b2a;stroke-miterlimit:10;stroke-width:2px;}.cls-3{font-size:42.16px;font-family:Opificio-RegularRounded, Opificio;}</style></defs><path class="cls-1" d="M94.52,364.18c-7-2.07-14.41-3.3-20.94-6.36C50.83,347.14,38.54,323,42,297.42c3.12-23,22.53-43.42,46.11-47.37,21.9-3.66,40.27,3.09,54,21,4,5.21,3.9,10-.11,13.11s-8.51,2.1-12.69-3.22C119,267.75,105.47,262.62,89.3,266.5c-16,3.83-26.29,14.32-30.47,30.25-4.83,18.39,4.51,38,21.71,46.57C98,352,116.67,347.64,129.29,332c4.1-5.06,7.76-6.26,11.84-3.89,3.54,2.06,5.24,6.56,3.3,10.23a38.18,38.18,0,0,1-5.76,7.83,52.44,52.44,0,0,1-33.56,17.16,11.06,11.06,0,0,0-2.34.82Z"/><path class="cls-1" d="M427,364.18c-4.64-2.85-6.16-6.95-6.14-12.41.16-48.42.09-96.85.1-145.27a35.37,35.37,0,0,1,.07-4.12c.56-4.75,4.22-8.31,8.36-8.22,4.62.1,7.91,3.67,7.91,9q.06,76,.08,152c0,4.72-2.9,6.93-6.26,9.07Z"/><path class="cls-2" d="M799.89,259.27c1.49-3.16-.37-5.83-2.64-8.64L793.64,249c-4.95,0-7.56,2.14-9.25,5.81Q765.15,296.45,745.65,338q-20-42.64-39.88-85.32c-1.66-3.56-5.65-4.6-9.73-2.78-3.65,1.62-5.75,5.5-4.75,8.91a20.32,20.32,0,0,0,1.22,2.79c15.13,32.43,30.32,64.84,45.31,97.33,1.5,3.24,3.71,5.26,7.61,5.71.22,0,.42,0,.63,0s.66.06,1,.06l.19-.09a6.17,6.17,0,0,0,5.05-3.6l.33-.71a9,9,0,0,0,.91-2Q776.74,308.84,799.89,259.27Z"/><path class="cls-1" d="M339.37,369.05h6.54a9.82,9.82,0,0,0,0-19.63h-6.54a39.34,39.34,0,0,1,0-78.68,36.1,36.1,0,0,1,36.06,36.07v52.51a9.82,9.82,0,0,0,19.63,0V306.81a55.72,55.72,0,0,0-55.69-55.87,59.06,59.06,0,1,0,0,118.11Z"/><path class="cls-1" d="M631.24,247.78a59.62,59.62,0,0,0,0,119.24,64.66,64.66,0,0,0,46.68-19.64,9.91,9.91,0,1,0-14.37-13.65,44.83,44.83,0,0,1-32.31,13.48,39.72,39.72,0,0,1,0-79.44,36.49,36.49,0,0,1,35.34,27.58H617.94a9.91,9.91,0,1,0,0,19.81h59.62a9.94,9.94,0,0,0,9.91-9.9v-1.07A56.26,56.26,0,0,0,631.24,247.78Z"/><path class="cls-1" d="M258.47,272.52a55.22,55.22,0,0,0-42-19.29l-.68,0-.68,0a55.34,55.34,0,0,0-41.3,18.52,58.41,58.41,0,0,0-.74,79.4,55.2,55.2,0,0,0,42,19.29l.68,0,.68,0a55.33,55.33,0,0,0,41.3-18.51,58.42,58.42,0,0,0,.74-79.41Zm-12.12,62.39c-.35.52-.71,1-1.08,1.52a37.3,37.3,0,0,1-58.2,1.09c-.67-.84-1.32-1.7-1.92-2.61a10.06,10.06,0,0,0-1.16-1.43,39,39,0,0,1,.31-43.63,9.32,9.32,0,0,0,.85-1.09c.35-.51.72-1,1.09-1.52a37.3,37.3,0,0,1,58.19-1.08c.67.84,1.32,1.7,1.92,2.6a9.65,9.65,0,0,0,1.16,1.43,39.06,39.06,0,0,1-.3,43.63A9.16,9.16,0,0,0,246.35,334.91Z"/><path class="cls-1" d="M559.67,258.81v52a55.18,55.18,0,0,1-55.14,55.32,58.47,58.47,0,1,1,0-116.94H511a9.72,9.72,0,0,1,0,19.43h-6.48a38.95,38.95,0,1,0,0,77.9,35.75,35.75,0,0,0,35.71-35.71v-9a3.39,3.39,0,0,1,0-.45V201.4c0-3.52,4.37-6.4,9.71-6.4s9.72,2.82,9.72,6.4v56.71C559.66,258.34,559.67,258.57,559.67,258.81Z"/><text class="cls-3" transform="translate(279.67 418.69)">turning dreams to code</text></svg>