<svg xmlns="http://www.w3.org/2000/svg" xmlns:xlink="http://www.w3.org/1999/xlink" width="136" height="143" viewBox="0 0 136 143">
  <defs>
    <clipPath id="clip-path">
      <rect id="Rectangle_245" data-name="Rectangle 245" width="136" height="143" transform="translate(477 1988)" fill="#fff"/>
    </clipPath>
  </defs>
  <g id="Architecture_Icon_Orange_Light_Opacity_" data-name="Architecture Icon (Orange Light Opacity)" transform="translate(-477 -1988)" clip-path="url(#clip-path)">
    <g id="Group_4220" data-name="Group 4220" transform="translate(268.66 1992)" opacity="0.15">
      <path id="Path_17496" data-name="Path 17496" d="M391.151,37.787c-1.633-.523-3.252-1.038-4.852-1.615a1.966,1.966,0,0,1-1.02-.8c-2.322-5.2-2.322-5.2.364-10.4l.111-.235a1.612,1.612,0,0,1,.147-.292,2.253,2.253,0,0,0-.4-3.333c-2.864-2.795-5.695-5.631-8.519-8.468l-2.963-2.966c-2.864-2.864-3.366-3.147-6.976-.966-2.783,1.679-4.762,1.778-6.835.349a3.441,3.441,0,0,0-1.02-.424,2.273,2.273,0,0,1-.632-.241,3.7,3.7,0,0,1-1.233-1.245c-.593-1.552-1.086-3.114-1.615-4.765L354.944,0,350.63,0C344.993,0,339.4-.005,333.8.052a2.516,2.516,0,0,0-1.85,1.576c-.355.954-.662,1.928-.966,2.9-.292.921-.581,1.841-.918,2.744a2.334,2.334,0,0,1-.926,1.041c-3.724,2.289-7.066,2.151-10.2-.4a2.418,2.418,0,0,0-.566-.328,1.789,1.789,0,0,1-.262-.135,2.012,2.012,0,0,0-2.873.355c-4.437,4.5-8.989,9.055-13.528,13.525a2.065,2.065,0,0,0-.388,2.816c.7,1.272,1.36,2.572,2.055,3.947l.412.806H282.376q-26.722,0-53.447,0c-9.368.006-15.908,6.513-15.911,15.82q-.018,42.615,0,85.229c0,9.335,6.528,15.856,15.868,15.865q12.062.014,24.141.006l11.738,0a15.049,15.049,0,0,1-5.222,9.473,3.585,3.585,0,0,1-2,.7c-1.279.075-2.6.063-3.887.048-.743-.009-1.48-.021-2.217-.006a9.291,9.291,0,0,0-9.524,9.6c-.015,1.161-.012,2.322-.006,3.484l0,1.038c.009,6.564,3.748,10.33,10.267,10.333l32.017,0,16.013,0,10.676,0q5.343,0,10.676,0,8.014,0,16.025-.015a9.309,9.309,0,0,0,9.68-9.632c.021-1.874.042-3.748-.009-5.625a9.3,9.3,0,0,0-9.19-9.178c-1.227-.027-2.458-.024-3.685-.021-.948,0-1.883.006-2.819,0l-.217,0h-.015a2.331,2.331,0,0,1-.915-.1,14.954,14.954,0,0,1-5.98-10.1l12.436,0,23.112,0c9.822-.006,16.172-6.326,16.178-16.1l0-11.079q0-14.769.045-29.544a3.6,3.6,0,0,1,.887-2.175c2.846-3.038,5.421-5.619,7.873-7.885,1.092-1,2.148-2.425.632-4.491-2.566-3.5-2.771-6.519-.653-9.506a1.061,1.061,0,0,0,.156-.358c.132-.138.265-.286.4-.436a3.162,3.162,0,0,1,.969-.851c1.54-.6,3.141-1.107,4.693-1.6.608-.2,1.218-.391,1.82-.59l.46-.15V38.524ZM268.713,155.912l3.694-10h44.362l3.688,10Zm71.422,15.032a2.232,2.232,0,0,1-2.428,2.419c-.274.015-.557.009-.836.009l-84.177,0c-3.18,0-3.661-.481-3.664-3.667l0-1.236c-.006-.905-.012-1.814.009-2.716.042-1.79.818-2.563,2.584-2.587,1.273-.012,2.548-.018,3.817-.018q1.439,0,2.873.006l78.353,0c2.96,0,3.481.523,3.487,3.484l.006,1.285C340.165,168.926,340.171,169.936,340.134,170.944ZM386.4,55.085c.009.857-.162.914-.6.966-4.585.551-7.289,3.168-8.026,7.776a3.7,3.7,0,0,1-.716,1.661c-2.488,3.1-1.381,5.911.033,8.246.238.391.439.71.611.978a6.96,6.96,0,0,1,.514.866,4.7,4.7,0,0,1-.725.773c-.265.256-.593.569-.981.966-.945.969-1.907,1.919-2.867,2.873-1.176,1.17-2.352,2.337-3.5,3.529-.584.6-.773.514-1.1.256-3.679-2.87-7.385-2.93-11.019-.2a2.909,2.909,0,0,1-1.345.505c-3.712.421-5.86,2.662-6.386,6.666-.171,1.272-.686,1.6-2.268,1.555-1.408-.06-2.828-.081-4.242-.081-1.507,0-3.011.024-4.488.045l-.875.012c-.8.048-.9-.165-.963-.6-.635-4.678-3.2-7.358-7.617-7.966a3.778,3.778,0,0,1-1.8-.758c-3.372-2.813-6.42-1.218-8.42.217-1.288.933-2.064.83-3.18-.439-1.724-1.973-3.64-3.817-5.493-5.6l-1.149-1.107c-.617-.6-.52-.782-.265-1.107,2.816-3.58,2.9-7.187.265-11.022a8.691,8.691,0,0,1-1-2.554,15.707,15.707,0,0,0-.68-2.049,4.134,4.134,0,0,0-1.952-1.949,24.372,24.372,0,0,0-4.4-1.438c-.644-.15-.755-.319-.743-1.113.051-3.336.051-6.865,0-10.49-.009-.839.15-.9.608-.966,4.675-.629,7.346-3.195,7.948-7.626a3.916,3.916,0,0,1,.779-1.808c2.485-3.108,1.378-5.911-.03-8.246-.235-.394-.439-.713-.611-.981a6.674,6.674,0,0,1-.511-.86,4.645,4.645,0,0,1,.722-.773c.271-.259.6-.572.987-.969,1.778-1.82,3.586-3.613,5.394-5.406l.851-.845c.235-.229.493-.436.746-.638l.018-.012c.361.184.719.361,1.068.535,1.053.523,2.046,1.017,2.99,1.579a3.676,3.676,0,0,0,3.935.09,74.7,74.7,0,0,1,7.909-3.237,3.113,3.113,0,0,0,2.274-2.358c.165-.647.385-1.282.6-1.916a22.674,22.674,0,0,0,.686-2.22c.159-.641.316-.761,1.125-.743,3.294.054,6.726.054,10.493,0,.827,0,.906.165.966.6.62,4.666,3.189,7.34,7.626,7.951a3.9,3.9,0,0,1,1.811.779c3.237,2.569,6.11,1.324,8.255-.045,1.826-1.167,1.826-1.161,3.571.584l1.856,1.865c1.5,1.516,3.011,3.032,4.546,4.515.617.6.52.779.262,1.11-2.81,3.6-2.9,7.208-.271,11.022a8.5,8.5,0,0,1,1,2.545,15.244,15.244,0,0,0,.686,2.055,4.128,4.128,0,0,0,1.952,1.946,25.48,25.48,0,0,0,4.389,1.435c.638.153.758.331.746,1.122C386.35,47.97,386.35,51.5,386.4,55.085Zm-90.109,6.7c1.658.526,3.219,1.023,4.771,1.609a3.748,3.748,0,0,1,1.257,1.251,1.733,1.733,0,0,1,.2.538,3.221,3.221,0,0,0,.379.933c1.51,2.217,1.408,4.29-.358,7.154-2.115,3.435-1.844,3.923,1.026,6.8l2.9,2.891c2.867,2.861,5.734,5.719,8.558,8.616a2.262,2.262,0,0,0,3.327.415,1.425,1.425,0,0,1,.274-.138c.087-.039.172-.078.3-.144,5.147-2.635,5.153-2.638,10.351-.361a1.954,1.954,0,0,1,.8,1.02c.578,1.594,1.095,3.21,1.618,4.843l.746,2.31h22.432l.716-2.01c.581-1.63,1.158-3.243,1.745-4.855v22.836H231.778V47.712H293.91V61.02Zm1.769-24.568a16.613,16.613,0,0,0-3.742,1.36l-.328.177-.1,1.7H232.1c-5.063,0-7.524,2.458-7.524,7.5q0,33.676,0,67.348c0,4.909,2.506,7.4,7.448,7.4q62.555.009,125.122,0c4.949,0,7.46-2.485,7.463-7.385l0-17.6,0-8.008.539.274c1.294.653,2.413,1.215,3.5,1.865a1.366,1.366,0,0,1,.364.86c.033,12.544.069,25.513-.006,38.274a7.88,7.88,0,0,1-7.671,7.7c-.427.021-.866.021-1.3.012H229.564c-6.429,0-9.428-2.984-9.428-9.386q0-42.073,0-84.14c0-6.071,3.068-9.148,9.115-9.148l53.625,0h18.54A15.223,15.223,0,0,1,298.058,37.216Z" transform="translate(0 0)" fill="#e63e2c"/>
      <rect id="Rectangle_246" data-name="Rectangle 246" width="6.884" height="6.96" transform="translate(328.726 127.212)" fill="#e63e2c"/>
      <rect id="Rectangle_247" data-name="Rectangle 247" width="6.916" height="6.948" transform="translate(340.234 127.207)" fill="#e63e2c"/>
      <rect id="Rectangle_248" data-name="Rectangle 248" width="6.864" height="6.96" transform="translate(351.819 127.233)" fill="#e63e2c"/>
      <path id="Path_17497" data-name="Path 17497" d="M263.98,21.135q-16.605-.009-33.211,0c-6.107.006-10.057,3.923-10.066,9.975q-.018,13.808,0,27.616c.009,6.05,3.959,9.966,10.066,9.978q3.285.009,6.57.006h4.927l4.927,0,4.151,0L263.8,68.7c6.411-.006,10.243-3.8,10.249-10.159q.014-13.627,0-27.255C274.042,25.031,270.183,21.141,263.98,21.135ZM245.253,32.614V28.4h4.211v4.212ZM227.827,31.14c0-2.109.74-2.861,2.816-2.879q1.516-.014,3.041-.012c.8,0,1.615,0,2.434,0l1.874,0V39.681h18.756V28.28q1.033,0,2.04-.015c2.133-.015,4.148-.033,6.182.045,1.691.069,1.949,1.679,1.952,2.635q.023,5.956.009,11.91v7.731c.006,2.713.009,5.433-.006,8.149-.012,2.1-.755,2.843-2.849,2.846q-16.7.014-33.391,0c-2.106,0-2.855-.743-2.858-2.828Q227.8,44.945,227.827,31.14Z" transform="translate(15.431 42.436)" fill="#e63e2c"/>
      <rect id="Rectangle_249" data-name="Rectangle 249" width="41.566" height="6.905" transform="translate(247.834 52.136)" fill="#e63e2c"/>
      <rect id="Rectangle_250" data-name="Rectangle 250" width="6.951" height="6.86" transform="translate(236.261 52.128)" fill="#e63e2c"/>
      <rect id="Rectangle_251" data-name="Rectangle 251" width="6.879" height="6.908" transform="translate(322.949 104.145)" fill="#e63e2c"/>
      <rect id="Rectangle_252" data-name="Rectangle 252" width="6.899" height="6.89" transform="translate(334.446 104.122)" fill="#e63e2c"/>
      <rect id="Rectangle_253" data-name="Rectangle 253" width="6.876" height="6.908" transform="translate(346.034 104.113)" fill="#e63e2c"/>
      <path id="Path_17498" data-name="Path 17498" d="M278.167,5.764h-.03A32.43,32.43,0,0,0,255.1,61.055a32.144,32.144,0,0,0,22.884,9.617h.1a32.437,32.437,0,0,0,23-55.364A32.214,32.214,0,0,0,278.167,5.764Zm25.287,32.507a25.395,25.395,0,0,1-25.383,25.278h-.093a25.331,25.331,0,0,1,.193-50.662h.093A25.349,25.349,0,0,1,303.454,38.271Z" transform="translate(65.586 11.576)" fill="#e63e2c"/>
      <path id="Path_17499" data-name="Path 17499" d="M266.6,11.528h-.042a15.113,15.113,0,0,0,0,30.227h.027A15.1,15.1,0,0,0,277.257,16,14.983,14.983,0,0,0,266.6,11.528Zm-8.044,15.156a8.027,8.027,0,0,1,8-8.032h.036a7.973,7.973,0,0,1,5.6,13.627,7.922,7.922,0,0,1-5.64,2.352H266.5A8.009,8.009,0,0,1,258.555,26.684Z" transform="translate(77.164 23.152)" fill="#e63e2c"/>
    </g>
  </g>
</svg>
