<svg xmlns="http://www.w3.org/2000/svg" width="59.98" height="60" viewBox="0 0 59.98 60">
  <g id="Architecture_Icon_White_" data-name="Architecture Icon (White)" transform="translate(-213.01 0)">
    <path id="Path_17496" data-name="Path 17496" d="M272.228,12.561c-.543-.174-1.081-.345-1.613-.537a.654.654,0,0,1-.339-.267c-.772-1.727-.772-1.727.121-3.457l.037-.078a.535.535,0,0,1,.049-.1.749.749,0,0,0-.132-1.108c-.952-.929-1.893-1.872-2.832-2.815l-.985-.986c-.952-.952-1.119-1.046-2.319-.321a1.871,1.871,0,0,1-2.272.116,1.144,1.144,0,0,0-.339-.141.756.756,0,0,1-.21-.08,1.23,1.23,0,0,1-.41-.414c-.2-.516-.361-1.035-.537-1.584L260.192,0h-1.434c-1.874,0-3.734,0-5.594.017a.836.836,0,0,0-.615.524c-.118.317-.22.641-.321.963-.1.306-.193.612-.3.912a.776.776,0,0,1-.308.346,2.678,2.678,0,0,1-3.391-.133.8.8,0,0,0-.188-.109.594.594,0,0,1-.087-.045.669.669,0,0,0-.955.118c-1.475,1.5-2.988,3.01-4.5,4.5a.687.687,0,0,0-.129.936c.233.423.452.855.683,1.312l.137.268H218.3a5.049,5.049,0,0,0-5.289,5.259q-.006,14.166,0,28.332a5.05,5.05,0,0,0,5.275,5.274q4.01,0,8.025,0h3.9a5,5,0,0,1-1.736,3.149,1.192,1.192,0,0,1-.666.234c-.425.025-.865.021-1.292.016-.247,0-.492-.007-.737,0a3.088,3.088,0,0,0-3.166,3.191c0,.386,0,.772,0,1.158v.345A3.12,3.12,0,0,0,226.03,60h23.064q2.664,0,5.327-.005a3.1,3.1,0,0,0,3.218-3.2c.007-.623.014-1.246,0-1.87a3.09,3.09,0,0,0-3.055-3.051c-.408-.009-.817-.008-1.225-.007-.315,0-.626,0-.937,0h-.077a.775.775,0,0,1-.3-.034,4.971,4.971,0,0,1-1.988-3.357h11.817a5.032,5.032,0,0,0,5.378-5.353V39.436q0-4.91.015-9.821a1.2,1.2,0,0,1,.3-.723c.946-1.01,1.8-1.868,2.617-2.621a1,1,0,0,0,.21-1.493,2.451,2.451,0,0,1-.217-3.16.353.353,0,0,0,.052-.119c.044-.046.088-.1.132-.145a1.051,1.051,0,0,1,.322-.283c.512-.2,1.044-.368,1.56-.533.2-.065.4-.13.605-.2l.153-.05V12.806Zm-40.7,39.267,1.228-3.324H247.5l1.226,3.324Zm23.742,5a.742.742,0,0,1-.807.8c-.091,0-.185,0-.278,0H226.2c-1.057,0-1.217-.16-1.218-1.219V56c0-.3,0-.6,0-.9.014-.6.272-.852.859-.86.423,0,.847-.006,1.269-.006l.955,0h26.046c.984,0,1.157.174,1.159,1.158l0,.427C255.279,56.154,255.281,56.49,255.269,56.825Zm15.379-38.514c0,.285-.054.3-.2.321a2.823,2.823,0,0,0-2.668,2.585,1.231,1.231,0,0,1-.238.552,2.166,2.166,0,0,0,.011,2.741c.079.13.146.236.2.325a2.314,2.314,0,0,1,.171.288,1.563,1.563,0,0,1-.241.257c-.088.085-.2.189-.326.321-.314.322-.634.638-.953.955-.391.389-.782.777-1.165,1.173-.194.2-.257.171-.367.085a2.751,2.751,0,0,0-3.663-.065.967.967,0,0,1-.447.168,2.273,2.273,0,0,0-2.123,2.216c-.057.423-.228.533-.754.517-.468-.02-.94-.027-1.41-.027-.5,0-1,.008-1.492.015l-.291,0c-.266.016-.3-.055-.32-.2a2.771,2.771,0,0,0-2.532-2.648,1.256,1.256,0,0,1-.6-.252,2.086,2.086,0,0,0-2.8.072c-.428.31-.686.276-1.057-.146-.573-.656-1.21-1.269-1.826-1.861l-.382-.368c-.205-.2-.173-.26-.088-.368a2.809,2.809,0,0,0,.088-3.664,2.889,2.889,0,0,1-.333-.849,5.222,5.222,0,0,0-.226-.681,1.374,1.374,0,0,0-.649-.648,8.1,8.1,0,0,0-1.461-.478c-.214-.05-.251-.106-.247-.37.017-1.109.017-2.282,0-3.487,0-.279.05-.3.2-.321a2.762,2.762,0,0,0,2.642-2.535,1.3,1.3,0,0,1,.259-.6,2.17,2.17,0,0,0-.01-2.741c-.078-.131-.146-.237-.2-.326a2.219,2.219,0,0,1-.17-.286,1.544,1.544,0,0,1,.24-.257c.09-.086.2-.19.328-.322.591-.605,1.192-1.2,1.793-1.8l.283-.281c.078-.076.164-.145.248-.212l.006,0,.355.178c.35.174.68.338.994.525a1.222,1.222,0,0,0,1.308.03,24.833,24.833,0,0,1,2.629-1.076,1.035,1.035,0,0,0,.756-.784c.055-.215.128-.426.2-.637a7.534,7.534,0,0,0,.228-.738c.053-.213.105-.253.374-.247,1.1.018,2.236.018,3.488,0,.275,0,.3.055.321.2a2.764,2.764,0,0,0,2.535,2.643,1.3,1.3,0,0,1,.6.259,2.146,2.146,0,0,0,2.744-.015c.607-.388.607-.386,1.187.194l.617.62c.5.5,1,1.008,1.511,1.5.2.2.173.259.087.369a2.815,2.815,0,0,0-.09,3.664,2.826,2.826,0,0,1,.333.846,5.067,5.067,0,0,0,.228.683,1.372,1.372,0,0,0,.649.647,8.47,8.47,0,0,0,1.459.477c.212.051.252.11.248.373C270.632,15.946,270.632,17.12,270.648,18.311Zm-29.954,2.227c.551.175,1.07.34,1.586.535a1.246,1.246,0,0,1,.418.416.576.576,0,0,1,.066.179,1.071,1.071,0,0,0,.126.31,1.947,1.947,0,0,1-.119,2.378c-.7,1.142-.613,1.3.341,2.259l.964.961c.953.951,1.906,1.9,2.845,2.864a.752.752,0,0,0,1.106.138.474.474,0,0,1,.091-.046c.029-.013.057-.026.1-.048,1.711-.876,1.713-.877,3.441-.12a.649.649,0,0,1,.267.339c.192.53.364,1.067.538,1.61l.248.768h7.457l.238-.668c.193-.542.385-1.078.58-1.614V38.39H219.249V15.86H239.9v4.424Zm.588-8.167a5.522,5.522,0,0,0-1.244.452l-.109.059-.032.565H219.355a2.2,2.2,0,0,0-2.5,2.493q0,11.195,0,22.388a2.187,2.187,0,0,0,2.476,2.459q20.794,0,41.593,0a2.189,2.189,0,0,0,2.481-2.455V29.821l.179.091c.43.217.8.4,1.165.62a.454.454,0,0,1,.121.286c.011,4.17.023,8.481,0,12.723a2.619,2.619,0,0,1-2.55,2.56c-.142.007-.288.007-.431,0H218.513c-2.137,0-3.134-.992-3.134-3.12q0-13.986,0-27.97a2.691,2.691,0,0,1,3.03-3.041H242.4A5.061,5.061,0,0,1,241.282,12.371Z" fill="#fff"/>
    <rect id="Rectangle_246" data-name="Rectangle 246" width="2.288" height="2.314" transform="translate(251.476 42.288)" fill="#fff"/>
    <rect id="Rectangle_247" data-name="Rectangle 247" width="2.299" height="2.31" transform="translate(255.302 42.286)" fill="#fff"/>
    <rect id="Rectangle_248" data-name="Rectangle 248" width="2.282" height="2.314" transform="translate(259.153 42.294)" fill="#fff"/>
    <path id="Path_17497" data-name="Path 17497" d="M235.083,21.132q-5.52,0-11.04,0a3.127,3.127,0,0,0-3.346,3.316q-.006,4.59,0,9.18a3.129,3.129,0,0,0,3.346,3.317q1.092,0,2.184,0h4.656l4.14,0a3.121,3.121,0,0,0,3.407-3.377q0-4.53,0-9.06A3.123,3.123,0,0,0,235.083,21.132Zm-6.225,3.816v-1.4h1.4v1.4Zm-5.793-.49c0-.7.246-.951.936-.957q.5,0,1.011,0h1.432v3.8h6.235v-3.79l.678,0c.709-.005,1.379-.011,2.055.015.562.023.648.558.649.876q.007,1.98,0,3.959v2.57c0,.9,0,1.806,0,2.709,0,.7-.251.945-.947.946q-5.553,0-11.1,0c-.7,0-.949-.247-.95-.94Q223.057,29.047,223.065,24.458Z" fill="#fff"/>
    <rect id="Rectangle_249" data-name="Rectangle 249" width="13.817" height="2.295" transform="translate(224.586 17.331)" fill="#fff"/>
    <rect id="Rectangle_250" data-name="Rectangle 250" width="2.311" height="2.28" transform="translate(220.739 17.328)" fill="#fff"/>
    <rect id="Rectangle_251" data-name="Rectangle 251" width="2.287" height="2.296" transform="translate(249.556 34.62)" fill="#fff"/>
    <rect id="Rectangle_252" data-name="Rectangle 252" width="2.293" height="2.29" transform="translate(253.378 34.612)" fill="#fff"/>
    <rect id="Rectangle_253" data-name="Rectangle 253" width="2.286" height="2.296" transform="translate(257.23 34.609)" fill="#fff"/>
    <path id="Path_17498" data-name="Path 17498" d="M256.472,5.764h-.01a10.781,10.781,0,0,0-7.659,18.38,10.685,10.685,0,0,0,7.607,3.2h.033a10.789,10.789,0,0,0,.029-21.577Zm8.406,10.806a8.442,8.442,0,0,1-8.438,8.4h-.031a8.421,8.421,0,0,1,.064-16.841h.031A8.427,8.427,0,0,1,264.878,16.57Z" fill="#fff"/>
    <path id="Path_17499" data-name="Path 17499" d="M256.475,11.528h-.014a5.024,5.024,0,0,0,0,10.048h.009a5.019,5.019,0,0,0,3.549-8.561A4.981,4.981,0,0,0,256.475,11.528ZM253.8,16.566a2.668,2.668,0,0,1,2.658-2.67h.012a2.65,2.65,0,0,1,1.86,4.53,2.633,2.633,0,0,1-1.875.782h-.013A2.662,2.662,0,0,1,253.8,16.566Z" fill="#fff"/>
  </g>
</svg>
