<svg xmlns="http://www.w3.org/2000/svg" width="60" height="59.977" viewBox="0 0 60 59.977">
  <g id="Challenge_Icon_White_" data-name="Challenge Icon (White)" transform="translate(0 -0.014)">
    <path id="Path_17467" data-name="Path 17467" d="M59.769,26.227A29.148,29.148,0,0,0,51.426,8.942a1.532,1.532,0,0,0-1.047-.548h-.011a1.093,1.093,0,0,0-.773.348c-.5.491-.442,1.18.161,1.841.128.141.258.281.386.42.481.522.978,1.061,1.426,1.622s.871,1.152,1.312,1.769q.26.362.524.729l-3.536,2.045-.09-.128c-.1-.146-.2-.284-.305-.415-.226-.275-.452-.552-.677-.828-.635-.78-1.292-1.585-1.967-2.353a1.319,1.319,0,0,0-.918-.53,1.363,1.363,0,0,0-1,.487c-.284.275-.561.556-.838.837-.177.179-.353.358-.531.535L41.87,16.431l-.569.563c-.134-.108-.237-.192-.339-.277a16.348,16.348,0,0,0-9.152-3.808,22.915,22.915,0,0,0-3,.031c-.5.027-1.02.055-1.528.065a1.91,1.91,0,0,1-.589-.06c-.305-1-.57-1.992-.851-3.043l-.2-.732a20.652,20.652,0,0,1,8.089-.14,21.452,21.452,0,0,1,6.716,2.409c.791.443,1.4.324,1.807-.36,1.06-1.786,2.094-3.574,3.073-5.316.446-.793.352-1.232-.369-1.738a13.886,13.886,0,0,0-2.6-1.521A31.456,31.456,0,0,0,21.528,1.2a26.985,26.985,0,0,0-6.335,2.675c-.757.435-.985,1.008-.643,1.614,1.042,1.847,2.133,3.712,3.336,5.7a1.185,1.185,0,0,0,.833.481,1.09,1.09,0,0,0,1.041-.481,1.287,1.287,0,0,0-.02-1.335c-.589-1.052-1.183-2.075-1.811-3.157q-.362-.622-.728-1.257A27.41,27.41,0,0,1,31.5,2.32,26.952,26.952,0,0,1,42.818,5.447L40.8,8.924l-.058-.011a.517.517,0,0,1-.11-.029A26.861,26.861,0,0,0,28.142,6.4a16.146,16.146,0,0,0-3.881.658c-1.251.345-1.332,1.018-1.051,2.064l.933,3.45.291,1.072A17.494,17.494,0,0,0,18.715,17l-.068-.062c-.075-.068-.138-.125-.2-.185l-7.7-7.7A1.72,1.72,0,0,0,9.6,8.4a1.657,1.657,0,0,0-1.11.657A29.843,29.843,0,0,0,.311,25.645a34.015,34.015,0,0,0-.282,3.619L0,29.912a1.149,1.149,0,0,0,.292.857,1.217,1.217,0,0,0,.87.368h.058c.638,0,.968-.331,1.067-1.066a7.113,7.113,0,0,0,.047-.768c0-.1.006-.2.011-.308A27.653,27.653,0,0,1,9.134,11.77c.113-.132.233-.257.356-.384l.106-.111,7.346,7.452c-4.518,5.742-5.332,12.078-2.421,18.836l-.154.09c-.17.1-.339.2-.509.3l-1.179.68q-1.318.76-2.635,1.524a1.028,1.028,0,0,0-.553,1.359,1.747,1.747,0,0,0,.949.805,1.416,1.416,0,0,0,1-.279c1.1-.616,2.162-1.233,3.29-1.887l1-.581a17.587,17.587,0,0,0,8.7,6.689l-.375,1.4c-.284,1.067-.563,2.109-.834,3.154A1.959,1.959,0,0,0,23.2,52.3c.183.292.552.47,1.273.614,1.02.206,2.066.379,3.078.547q.621.1,1.244.209v3.948c-5.325.223-14.979-3.791-17.405-7.235l2.836-2.822.084.072c.129.112.275.238.43.35l.664.479c.881.636,1.792,1.294,2.706,1.916a1.1,1.1,0,0,0,1.57-.2,1.047,1.047,0,0,0,.273-.816,1.542,1.542,0,0,0-.694-1.016l-.476-.344c-1.137-.82-2.311-1.668-3.4-2.579-1.1-.927-1.442-1.024-2.513.052L10.556,47.8l-.92.922A27.032,27.032,0,0,1,3.6,38.25l.925-.245c1.278-.339,2.516-.668,3.753-1,.927-.249,1.157-.549,1.117-1.459a12.633,12.633,0,0,0-.2-1.666,18.846,18.846,0,0,1,.228-9.336,36.89,36.89,0,0,1,1.609-3.956c.161-.356.322-.711.479-1.067a1.546,1.546,0,0,0,.029-1.382,1.046,1.046,0,0,0-.825-.513,1.27,1.27,0,0,0-1.3.827A23.473,23.473,0,0,0,6.868,34.394c.092.49-.024.6-.443.706-1.348.334-2.711.7-4.029,1.061l-.229.062a1.536,1.536,0,0,0-1,.644,1.5,1.5,0,0,0-.051,1.166A30.06,30.06,0,0,0,29.667,59.991h.03a1.248,1.248,0,0,0,1.48-1.491q.006-2.4,0-4.809v-.8c0-1.257-.32-1.583-1.623-1.661-.911-.055-1.812-.148-2.765-.248-.383-.04-.771-.081-1.167-.118l1.033-3.833c.568,0,1.137.017,1.689.034a24.813,24.813,0,0,0,3.889-.087,25.187,25.187,0,0,0,3.82-.907c.533-.155,1.083-.316,1.633-.461.231.4.524.912.818,1.422l.439.766c.389.679.792,1.381,1.2,2.066a1.2,1.2,0,0,0,1.651.568,1.185,1.185,0,0,0,.362-1.753c-.114-.209-.234-.415-.354-.622l-.077-.133-1.982-3.437-.1-.172c.258-.222.514-.435.767-.646a22.146,22.146,0,0,0,1.741-1.555,21.761,21.761,0,0,0,2.13-2.58A15.682,15.682,0,0,0,46.6,34.5a1.169,1.169,0,1,0-2.225-.716,3.7,3.7,0,0,0-.11.359c-.02.074-.041.149-.064.222a14.851,14.851,0,0,1-8.382,9.266A14.292,14.292,0,0,1,23.8,43.38c-6.709-3.37-10-10.265-8.2-17.156A15.028,15.028,0,0,1,29.582,15.1l.254,0c6.76,0,12.959,4.608,14.481,10.807a1.414,1.414,0,0,0,.573.942,1.432,1.432,0,0,0,1.13.051c.643-.168,1.284-.342,1.925-.515.5-.134.992-.269,1.489-.4.323-.087.648-.165,1.016-.255l.464-.113c.037.407.075.805.113,1.2.092.975.181,1.9.244,2.828.067.988.464,1.491,1.177,1.494h.006a1.094,1.094,0,0,0,.837-.342,1.555,1.555,0,0,0,.31-1.227c-.186-1.922-.405-3.632-.67-5.225a1.612,1.612,0,0,0-.572-1.181,1.792,1.792,0,0,0-1.451-.008l-3.721,1-.693.186-3.316-5.715,2.752-2.743.107.117a6.586,6.586,0,0,1,.434.507l.175.232c.427.57.87,1.16,1.269,1.762,1.135,1.722,1.341,1.768,3.132.722q1.24-.726,2.479-1.456l.978-.575c5.486,9.933,3.742,23.377-4.069,31.361L47.7,45.8c.279-.407.574-.817.859-1.215a26.928,26.928,0,0,0,2-3.063,34.984,34.984,0,0,0,1.658-3.842c.177-.461.354-.92.537-1.377a1.064,1.064,0,0,0-.329-1.384,1.365,1.365,0,0,0-1.131-.183,1.717,1.717,0,0,0-.785.99,19.047,19.047,0,0,1-2.619,5.777c-.537.759-1.145,1.49-1.733,2.2-.313.374-.625.75-.929,1.132-.726.91-.705,1.307.115,2.124.906.909,1.814,1.814,2.735,2.734l.655.654A27.145,27.145,0,0,1,38.28,56.371l-.042-.136c-.046-.147-.086-.272-.119-.4q-.187-.72-.369-1.442c-.246-.968-.5-1.968-.768-2.947a1.338,1.338,0,0,0-1-1,.982.982,0,0,0-.991.419,1.879,1.879,0,0,0-.2,1.378c.391,1.621.843,3.255,1.28,4.836l.213.773a1.5,1.5,0,0,0,.618.98,1.544,1.544,0,0,0,1.2.02A28.625,28.625,0,0,0,50.278,52.1C57.731,45.031,60.925,36.326,59.769,26.227Z" fill="#fff"/>
    <path id="Path_17468" data-name="Path 17468" d="M30,18.086H30a7.368,7.368,0,0,0-6.612,3.974,6.841,6.841,0,0,0,.27,7.669,10.325,10.325,0,0,1,2.006,6.552,4.285,4.285,0,0,0,1.19,3.153A4.345,4.345,0,0,0,30,40.757h.009A4.309,4.309,0,0,0,34.365,36.3a10.491,10.491,0,0,1,1.961-6.5,7,7,0,0,0,.317-7.747A7.445,7.445,0,0,0,30,18.086ZM32.1,33.78l-.066.341H27.949A11.846,11.846,0,0,0,25.6,28.432a5.085,5.085,0,0,1,.978-6.684,5.253,5.253,0,0,1,6.846-.006,5.162,5.162,0,0,1,.991,6.761,12.981,12.981,0,0,0-2.158,4.51C32.2,33.268,32.153,33.522,32.1,33.78Zm-.088,2.737a1.744,1.744,0,0,1-.461,1.181,2.043,2.043,0,0,1-1.46.724A2.02,2.02,0,0,1,28,36.517Z" fill="#fff"/>
  </g>
</svg>
