<svg xmlns="http://www.w3.org/2000/svg" xmlns:xlink="http://www.w3.org/1999/xlink" width="140" height="126" viewBox="0 0 140 126">
  <defs>
    <clipPath id="clip-path">
      <rect id="Rectangle_238" data-name="Rectangle 238" width="140" height="126" transform="translate(23735 7263)" fill="#fff"/>
    </clipPath>
  </defs>
  <g id="Challenge_Icon_Orange_Light_Opacity_" data-name="Challenge Icon (Orange Light Opacity)" transform="translate(-23735 -7263)" clip-path="url(#clip-path)">
    <g id="Group_4196" data-name="Group 4196" transform="translate(23734.896 7262.781)" opacity="0.15">
      <path id="Path_17467" data-name="Path 17467" d="M179.829,78.882c-2.257-19.668-10.7-37.164-25.1-52.006a4.609,4.609,0,0,0-3.15-1.649h-.033a3.289,3.289,0,0,0-2.326,1.047c-1.507,1.477-1.33,3.55.484,5.539.385.424.776.845,1.161,1.264,1.447,1.571,2.943,3.192,4.29,4.88,1.366,1.712,2.621,3.466,3.947,5.322q.781,1.088,1.577,2.193l-10.639,6.153c-.09-.129-.184-.259-.271-.385-.307-.439-.593-.854-.918-1.249-.68-.827-1.36-1.661-2.037-2.491-1.911-2.347-3.887-4.769-5.918-7.079a3.967,3.967,0,0,0-2.762-1.595,4.1,4.1,0,0,0-3.018,1.465c-.854.827-1.688,1.673-2.521,2.518-.533.539-1.062,1.077-1.6,1.61q-2.509,2.5-5.022,4.988L124.264,51.1c-.4-.325-.713-.578-1.02-.833-8.4-6.836-17.664-10.693-27.536-11.457a68.944,68.944,0,0,0-9.026.093c-1.51.081-3.069.165-4.6.2a5.745,5.745,0,0,1-1.772-.181c-.918-3.006-1.715-5.993-2.56-9.156l-.59-2.2a62.137,62.137,0,0,1,24.337-.421,64.541,64.541,0,0,1,20.206,7.248c2.38,1.333,4.215.975,5.437-1.083,3.189-5.374,6.3-10.753,9.246-15.994,1.342-2.386,1.059-3.707-1.11-5.229a41.778,41.778,0,0,0-7.817-4.576A94.641,94.641,0,0,0,64.772,3.574a81.189,81.189,0,0,0-19.06,8.048c-2.278,1.309-2.964,3.033-1.935,4.856,3.135,5.557,6.418,11.168,10.037,17.15a3.565,3.565,0,0,0,2.506,1.447,3.279,3.279,0,0,0,3.132-1.447,3.872,3.872,0,0,0-.06-4.017c-1.772-3.165-3.559-6.243-5.449-9.5q-1.088-1.873-2.19-3.782a82.47,82.47,0,0,1,43.01-9.378,81.091,81.091,0,0,1,34.065,9.408l-6.066,10.461-.174-.033a1.556,1.556,0,0,1-.331-.087c-11.292-5.383-23.567-7.8-37.585-7.465A48.579,48.579,0,0,0,73,21.217c-3.764,1.038-4.008,3.063-3.162,6.21.93,3.439,1.859,6.875,2.807,10.38l.876,3.225A52.634,52.634,0,0,0,56.309,51.105l-.2-.187c-.226-.2-.415-.376-.6-.557L32.342,27.207c-1.4-1.4-2.47-1.992-3.46-1.977-1.014.012-2.013.6-3.34,1.977A89.788,89.788,0,0,0,.937,77.131,102.34,102.34,0,0,0,.088,88.019L0,89.969a3.458,3.458,0,0,0,.879,2.578A3.661,3.661,0,0,0,3.5,93.654c.057,0,.117,0,.175,0,1.92,0,2.912-1,3.21-3.207a21.4,21.4,0,0,0,.141-2.311c.009-.31.018-.617.033-.927A83.2,83.2,0,0,1,27.483,35.385c.34-.4.7-.773,1.071-1.155.105-.111.211-.223.319-.334l22.1,22.421C37.381,73.592,34.932,92.656,43.69,112.988l-.463.271c-.511.3-1.02.6-1.531.888l-3.547,2.046q-3.967,2.288-7.928,4.585c-1.739,1.014-2.377,2.578-1.664,4.089a5.255,5.255,0,0,0,2.855,2.422c.836.289,1.989-.268,3-.839,3.3-1.853,6.5-3.71,9.9-5.677l3.012-1.748a52.915,52.915,0,0,0,26.167,20.125l-1.128,4.224c-.854,3.21-1.694,6.345-2.509,9.489-.5,1.929-.7,3.427-.042,4.468.551.879,1.661,1.414,3.83,1.847,3.069.62,6.216,1.14,9.261,1.646q1.868.307,3.743.629v11.878c-16.021.671-45.067-11.406-52.367-21.768l8.533-8.491c.081.069.165.144.253.217.388.337.827.716,1.294,1.053l2,1.441c2.651,1.914,5.392,3.893,8.142,5.765a3.3,3.3,0,0,0,4.724-.587,3.151,3.151,0,0,0,.821-2.455,4.641,4.641,0,0,0-2.088-3.057l-1.432-1.035c-3.421-2.467-6.953-5.019-10.227-7.759-3.322-2.789-4.339-3.081-7.561.156-2.317,2.317-4.63,4.636-6.974,6.983l-2.768,2.774a81.331,81.331,0,0,1-18.161-31.513l2.783-.737c3.845-1.02,7.57-2.01,11.292-3.009,2.789-.749,3.481-1.652,3.361-4.39a38.009,38.009,0,0,0-.593-5.013c-2.058-11.478-1.847-20.137.686-28.089a110.993,110.993,0,0,1,4.841-11.9c.484-1.071.969-2.139,1.441-3.21a4.653,4.653,0,0,0,.087-4.158A3.146,3.146,0,0,0,32.248,53c-2.127-.259-3.2,1.2-3.9,2.488a70.623,70.623,0,0,0-7.684,47.962c.277,1.474-.072,1.808-1.333,2.124-4.056,1-8.157,2.118-12.122,3.192l-.689.187a4.622,4.622,0,0,0-3.012,1.938,4.518,4.518,0,0,0-.153,3.508,90.441,90.441,0,0,0,85.9,66.065h.09a4.625,4.625,0,0,0,3.424-1c.71-.707,1.026-1.778,1.029-3.487q.018-7.234.006-14.469l0-2.41c0-3.782-.963-4.763-4.883-5-2.741-.165-5.452-.445-8.319-.746-1.152-.12-2.32-.244-3.511-.355L80.2,141.472c1.709,0,3.421.051,5.082.1a74.657,74.657,0,0,0,11.7-.262,75.782,75.782,0,0,0,11.493-2.729c1.6-.466,3.258-.951,4.913-1.387.7,1.21,1.577,2.744,2.461,4.278l1.321,2.3c1.17,2.043,2.383,4.155,3.6,6.216,1.185,2,3.183,2.681,4.967,1.709,1.877-1.029,2.3-3.051,1.089-5.274-.343-.629-.7-1.249-1.065-1.871l-.232-.4c-2.013-3.493-4.026-6.983-5.963-10.341l-.3-.518c.776-.668,1.546-1.309,2.308-1.944a66.63,66.63,0,0,0,5.238-4.679,65.472,65.472,0,0,0,6.409-7.762,47.183,47.183,0,0,0,6.977-15.149,3.517,3.517,0,1,0-6.694-2.154,11.12,11.12,0,0,0-.331,1.08c-.06.223-.123.448-.193.668a44.681,44.681,0,0,1-25.219,27.879,43,43,0,0,1-36.165-.749c-20.185-10.139-30.1-30.884-24.659-51.617,5-19.063,22.686-33.135,42.059-33.466.256,0,.508-.006.764-.006,20.339,0,38.99,13.864,43.569,32.515a4.255,4.255,0,0,0,1.724,2.834,4.308,4.308,0,0,0,3.4.153c1.935-.505,3.863-1.029,5.792-1.549,1.5-.4,2.985-.809,4.48-1.2.972-.262,1.95-.5,3.057-.767l1.4-.34c.111,1.225.226,2.422.34,3.6.277,2.933.545,5.7.734,8.509.2,2.973,1.4,4.486,3.541,4.5h.018a3.293,3.293,0,0,0,2.518-1.029,4.678,4.678,0,0,0,.933-3.692c-.56-5.783-1.219-10.928-2.016-15.721-.316-1.9-.845-2.991-1.721-3.553-.927-.6-2.226-.6-4.366-.024-3.836,1.035-7.669,2.067-11.2,3.015l-2.085.56-9.977-17.195,8.28-8.253c.1.114.211.232.322.352a19.817,19.817,0,0,1,1.306,1.525l.527.7c1.285,1.715,2.618,3.49,3.818,5.3,3.415,5.181,4.035,5.319,9.423,2.172q3.732-2.184,7.459-4.381l2.943-1.73c16.506,29.886,11.259,70.335-12.242,94.356l-8.238-8.274c.839-1.225,1.727-2.458,2.584-3.656a81.014,81.014,0,0,0,6.008-9.216,105.256,105.256,0,0,0,4.988-11.559c.533-1.387,1.065-2.768,1.616-4.143.7-1.754.322-3.349-.99-4.164-.827-.518-2.419-1.032-3.4-.551a5.167,5.167,0,0,0-2.362,2.979c-2.217,7.456-4.648,12.817-7.88,17.381-1.616,2.284-3.445,4.483-5.214,6.61-.942,1.125-1.88,2.257-2.8,3.406-2.184,2.738-2.121,3.932.346,6.391,2.726,2.735,5.458,5.458,8.229,8.226l1.971,1.968a81.672,81.672,0,0,1-31.432,18.124l-.126-.409c-.138-.442-.259-.818-.358-1.2q-.564-2.166-1.11-4.339c-.74-2.912-1.5-5.921-2.311-8.867a4.025,4.025,0,0,0-3.012-3,2.954,2.954,0,0,0-2.982,1.261,5.653,5.653,0,0,0-.6,4.146c1.176,4.877,2.536,9.793,3.851,14.55l.641,2.326a4.5,4.5,0,0,0,1.859,2.949,4.646,4.646,0,0,0,3.607.06,86.125,86.125,0,0,0,36.64-20.318C173.7,135.457,183.307,109.267,179.829,78.882Z" transform="translate(0 0)" fill="#e63e2c"/>
      <path id="Path_17468" data-name="Path 17468" d="M45.394,18.086h-.027c-9.207.433-15.9,4.456-19.894,11.957-4.429,8.316-4.155,16.079.812,23.074a31.064,31.064,0,0,1,6.035,19.713,12.892,12.892,0,0,0,3.58,9.486A13.073,13.073,0,0,0,45.379,86.3h.027A12.966,12.966,0,0,0,58.512,72.89a31.566,31.566,0,0,1,5.9-19.557c5-7.2,5.331-15.263.954-23.308C61.283,22.524,54.564,18.51,45.394,18.086ZM51.706,65.3l-.2,1.026h-12.3c-.472-6.655-3.752-12.1-7.076-17.117A15.3,15.3,0,0,1,35.074,29.1a15.806,15.806,0,0,1,20.6-.018,15.532,15.532,0,0,1,2.982,20.342C55.84,53.664,53.229,57.891,52.16,63,52,63.764,51.857,64.528,51.706,65.3Zm-.265,8.235a5.248,5.248,0,0,1-1.387,3.553,6.148,6.148,0,0,1-4.393,2.178c-3.31.135-5.8-2.181-6.285-5.732Z" transform="translate(44.884 36.302)" fill="#e63e2c"/>
    </g>
  </g>
</svg>
