<svg xmlns="http://www.w3.org/2000/svg" width="45.251" height="59.999" viewBox="0 0 45.251 59.999">
  <g id="Industry_Icon_White_" data-name="Industry Icon (White)" transform="translate(-7.372 0)">
    <path id="Path_17500" data-name="Path 17500" d="M32.085,34.364a1.16,1.16,0,0,0-1.632.392,19.921,19.921,0,0,0-3.417,7.553c-.137.716-.261,1.434-.385,2.152l-.122.7H22.072V41.838q0-2.061,0-4.122a1.108,1.108,0,0,0-1.078-1.2,1.132,1.132,0,0,0-1.236,1.139,3.754,3.754,0,0,0-.008.383v7.134H15.286c-.023-.17-.045-.331-.08-.488-.1-.453-.193-.908-.286-1.363-.221-1.078-.45-2.192-.76-3.27a18.991,18.991,0,0,0-2.533-4.945l-.505-.788A9.443,9.443,0,0,1,9.87,27.5a10.95,10.95,0,0,1,8.218-9.2c.8-.241,1.171-.788.987-1.462a1.179,1.179,0,0,0-1.585-.779A13.555,13.555,0,0,0,7.809,32.48,15.667,15.667,0,0,0,10.14,37.1a17.645,17.645,0,0,1,2.81,8.307,3.014,3.014,0,0,0-2.014,2.694c-.08,1.791-.08,3.43,0,5.013a3.084,3.084,0,0,0,3.113,2.9c.284.009.569.007.872,0h.116v.752a3.079,3.079,0,0,0,3.231,3.216q1.248,0,2.5,0,1.365,0,2.73,0a3.1,3.1,0,0,0,3.313-3.262c0-.226,0-.452,0-.689v-.017h.129c.282,0,.537,0,.791,0a3.182,3.182,0,0,0,3.21-3.223c.019-1.635.019-3.072,0-4.394a3.036,3.036,0,0,0-1.832-2.866c-.253-.119-.252-.185-.207-.374.115-.495.215-.995.315-1.5a21.153,21.153,0,0,1,.862-3.338,20.315,20.315,0,0,1,1.565-3.012c.26-.438.52-.876.764-1.32A1.161,1.161,0,0,0,32.085,34.364ZM17.358,54.943A1.165,1.165,0,0,0,16.1,53.706c-.19,0-.379-.006-.568-.006l-.414,0c-.3,0-.587,0-.882,0-.691-.012-1.005-.313-1.015-.974-.025-1.344-.025-2.756,0-4.194.011-.7.344-1,1.111-1q2.339-.009,4.679,0H27c1.5,0,1.615.123,1.615,1.642v1.061c0,.807,0,1.614,0,2.421,0,.728-.321,1.043-1.056,1.053-.332.005-.661,0-.993,0h-.627c-1.064.006-1.445.391-1.456,1.469q0,.325,0,.654c0,.3,0,.6,0,.9-.02.685-.276.941-.942.943q-2.615.012-5.224,0c-.7,0-.947-.258-.953-.977,0-.231,0-.461,0-.691C17.365,55.648,17.368,55.3,17.358,54.943Z" fill="#fff"/>
    <path id="Path_17501" data-name="Path 17501" d="M41.877,25.962a1.366,1.366,0,0,1-.308-1.551,1.336,1.336,0,0,1,1.28-.838,1.914,1.914,0,0,0,1.889-2c.021-.7.021-1.418,0-2.122a1.886,1.886,0,0,0-1.831-1.984,1.407,1.407,0,0,1-.988-2.454,1.855,1.855,0,0,0-.076-2.6c-.515-.555-1.064-1.1-1.631-1.629a1.829,1.829,0,0,0-2.594-.069,1.42,1.42,0,0,1-2.466-1.048A1.837,1.837,0,0,0,33.3,7.92c-.782-.022-1.577-.023-2.36,0a1.836,1.836,0,0,0-1.851,1.746,1.452,1.452,0,0,1-.868,1.4,1.435,1.435,0,0,1-1.6-.353,1.846,1.846,0,0,0-2.6.07c-.554.512-1.1,1.06-1.633,1.63a1.82,1.82,0,0,0-.045,2.608,1.439,1.439,0,0,1,.315,1.586,1.4,1.4,0,0,1-1.3.871h-.013A1.849,1.849,0,0,0,19.5,19.52c-.009.644-.007,1.288,0,1.931.009.825.444,1.348,1.136,1.366a1.076,1.076,0,0,0,.8-.291,1.5,1.5,0,0,0,.389-1.093c0-.454,0-.909,0-1.357v-.319a3.924,3.924,0,0,0,2.932-2.033,4.236,4.236,0,0,0-.38-3.854l1.056-1.092a3.776,3.776,0,0,0,5.977-2.5h1.47a3.727,3.727,0,0,0,5.911,2.494l1.087,1.036a3.773,3.773,0,0,0-.486,3.647,3.864,3.864,0,0,0,2.994,2.333v1.458a3.871,3.871,0,0,0-3.036,2.4,3.763,3.763,0,0,0,.495,3.58l-1.01,1.056a3.8,3.8,0,0,0-3.618-.505,3.9,3.9,0,0,0-2.39,3.022l-.332,0c-.476,0-.952-.007-1.427.008a1.363,1.363,0,0,0-.911.342,1.1,1.1,0,0,0-.334.862,1.139,1.139,0,0,0,1.248,1.109c.325.005.7.012,1.11.012.344,0,.708-.005,1.07-.016a1.837,1.837,0,0,0,1.911-1.82,1.4,1.4,0,0,1,2.419-1.008,1.881,1.881,0,0,0,2.69-.085c.538-.506,1.057-1.026,1.543-1.543A1.877,1.877,0,0,0,41.877,25.962Z" fill="#fff"/>
    <path id="Path_17502" data-name="Path 17502" d="M32.127,27.281a6.757,6.757,0,0,0-.008-13.514h-.008a6.749,6.749,0,0,0-4.745,11.542A6.669,6.669,0,0,0,32.1,27.281ZM29,23.66a4.427,4.427,0,0,1,3.112-7.568h.007A4.43,4.43,0,0,1,36.55,20.54a4.446,4.446,0,0,1-4.428,4.416h-.007A4.376,4.376,0,0,1,29,23.66Z" fill="#fff"/>
    <path id="Path_17503" data-name="Path 17503" d="M23.614,35.028c.155.158.313.313.472.467.291.283.566.55.817.843a1.336,1.336,0,0,1,.3.648,1.849,1.849,0,0,0,1.792,1.657h.044A1.851,1.851,0,0,0,28.88,37a1.912,1.912,0,0,0-.44-1.428,1.478,1.478,0,0,0-1.061-.547,1.627,1.627,0,0,1-1.159-.694c-.084-.09-.171-.182-.263-.272.09-.1.173-.182.258-.267l1.2-1.2q1.248-1.246,2.49-2.5a1.364,1.364,0,0,0,.447-.98,1.107,1.107,0,0,0-.378-.794,1.151,1.151,0,0,0-1.712.14q-2.34,2.325-4.665,4.666A1.19,1.19,0,0,0,23.614,35.028Z" fill="#fff"/>
    <path id="Path_17504" data-name="Path 17504" d="M23.579,22.3a1.288,1.288,0,0,0-.948.347c-.135.117-.26.245-.386.374l-3.663,3.67c-.075-.074-.15-.146-.225-.217a1.848,1.848,0,0,1-.786-1.318,1.29,1.29,0,0,0-.478-.94,2.03,2.03,0,0,0-1.51-.437,1.848,1.848,0,0,0-1.607,1.711,1.925,1.925,0,0,0,.49,1.388,1.465,1.465,0,0,0,1.027.5c.484.017.733.266,1.126.656l.34.34c.211.214.424.428.639.637a1.435,1.435,0,0,0,.971.5,1.42,1.42,0,0,0,.969-.5q.912-.9,1.813-1.81L22.61,25.94c.548-.546,1.1-1.092,1.636-1.645a1.123,1.123,0,0,0,.069-1.615A1.067,1.067,0,0,0,23.579,22.3Z" fill="#fff"/>
    <path id="Path_17505" data-name="Path 17505" d="M24.117,27.468a1.35,1.35,0,0,0-1.038.444q-.713.7-1.417,1.415c-.827.828-1.654,1.656-2.493,2.472a1.089,1.089,0,0,1-.577.251,1.862,1.862,0,0,0-1.684,1.915,1.835,1.835,0,0,0,1.839,1.763h.015A1.9,1.9,0,0,0,20.6,34.039a1.229,1.229,0,0,1,.29-.631c.824-.849,1.66-1.684,2.5-2.52q.654-.651,1.3-1.306a1.188,1.188,0,0,0,.219-1.7A1.1,1.1,0,0,0,24.117,27.468Z" fill="#fff"/>
    <path id="Path_17506" data-name="Path 17506" d="M20.807,10.793a1.04,1.04,0,0,0,.7.223,1.463,1.463,0,0,0,.5-.082,1.224,1.224,0,0,0,.544-.535c.049-.074.1-.15.154-.22l.135-.167-.1-.188c-.05-.09-.089-.175-.127-.254a1.721,1.721,0,0,0-.308-.5q-1.491-1.529-3.016-3.024a1.106,1.106,0,0,0-1.622-.071,1.179,1.179,0,0,0-.414.822,1.037,1.037,0,0,0,.306.765C18.7,8.757,19.76,9.814,20.807,10.793Z" fill="#fff"/>
    <path id="Path_17507" data-name="Path 17507" d="M42.665,11.087h.01a1.42,1.42,0,0,0,.98-.466c.956-.944,1.91-1.891,2.847-2.854a2.368,2.368,0,0,0,.36-.537c.051-.093.106-.193.172-.3l.126-.2L47,6.545c-.067-.073-.127-.156-.186-.235a1.146,1.146,0,0,0-.622-.525,1.543,1.543,0,0,0-1.244.291c-.871.8-1.714,1.663-2.53,2.492L41.991,9a1.192,1.192,0,0,0-.109,1.729A1.1,1.1,0,0,0,42.665,11.087Z" fill="#fff"/>
    <path id="Path_17508" data-name="Path 17508" d="M43.6,30.36a2.053,2.053,0,0,0-.521-.337c-.085-.044-.177-.092-.274-.149l-.2-.118-.175.158a2.813,2.813,0,0,1-.233.184,1.151,1.151,0,0,0-.529.631,1.558,1.558,0,0,0,.311,1.248c.812.878,1.679,1.729,2.517,2.551l.408.4a1.359,1.359,0,0,0,.94.436,1.1,1.1,0,0,0,.783-.344,1.192,1.192,0,0,0-.083-1.731Q45.081,31.811,43.6,30.36Z" fill="#fff"/>
    <path id="Path_17509" data-name="Path 17509" d="M52.268,19.67a1.358,1.358,0,0,0-.917-.315c-1.383-.011-2.764-.011-4.151,0a1.324,1.324,0,0,0-.958.382,1.107,1.107,0,0,0-.306.812,1.178,1.178,0,0,0,1.249,1.122c.282.006.564.007.847.007h.632l.629,0,.622,0c.475,0,.952,0,1.425,0a1.164,1.164,0,0,0,1.283-1.149A1.1,1.1,0,0,0,52.268,19.67Z" fill="#fff"/>
    <path id="Path_17510" data-name="Path 17510" d="M32.117,6.684h.013A1.136,1.136,0,0,0,33.268,5.46c.014-.493.011-.987.007-1.481l0-.628,0-.641c0-.49.006-.98-.007-1.468A1.15,1.15,0,0,0,32.146,0a1.09,1.09,0,0,0-.821.307,1.252,1.252,0,0,0-.363.9c-.02,1.395-.021,2.832,0,4.272A1.132,1.132,0,0,0,32.117,6.684Z" fill="#fff"/>
  </g>
</svg>
