<svg xmlns="http://www.w3.org/2000/svg" width="56.193" height="60" viewBox="0 0 56.193 60">
  <g id="Services_Icon_White_" data-name="Services Icon (White)" transform="translate(-1.904 0)">
    <path id="Path_17483" data-name="Path 17483" d="M57.761,38.164a4.966,4.966,0,0,0-6.141-1.757.5.5,0,0,1-.663-.1,4.2,4.2,0,0,0-4.9-.635.551.551,0,0,1-.4-.04,5.607,5.607,0,0,0-6-.163c-.348.19-.691.4-1.034.612a8.745,8.745,0,0,1-2.367,1.159,8.553,8.553,0,0,1-2.477.117c-.469-.022-.954-.044-1.435-.026a8.516,8.516,0,0,1-4.2-.937,11.465,11.465,0,0,0-7.493-1,11.979,11.979,0,0,0-6.014,3.182,12.565,12.565,0,0,1-1.458,1.112c-.161.11-.325.222-.491.339l-.7-2.282c-.3-.974-.591-1.2-1.573-1.2H3.4a1.534,1.534,0,0,0-1.219.391,1.548,1.548,0,0,0-.259,1.254c.094.886.206,1.77.318,2.655.061.478.122.955.179,1.433l.695,5.743q.642,5.3,1.284,10.594C4.532,59.69,4.879,60,5.954,60H16.826a1.526,1.526,0,0,0,1.325-.45,1.566,1.566,0,0,0,.041-1.434l-1.287-4.251c.37-.233.736-.467,1.1-.7,1.115-.71,2.269-1.446,3.427-2.107a2.386,2.386,0,0,1,1.427-.214c1.082.161,2.18.367,3.24.566.752.142,1.5.283,2.258.411.5.084,1,.172,1.494.26,1.59.283,3.234.575,4.87.716a9.835,9.835,0,0,0,6.39-1.525c4.06-2.723,8.149-5.546,12.1-8.275q2.091-1.443,4.182-2.883A1.218,1.218,0,0,0,57.761,38.164ZM17.077,50.989l-.886.555-2.848-9.337A9.231,9.231,0,0,0,16.19,40.33c.3-.252.59-.506.9-.745a8.81,8.81,0,0,1,9.572-1.255,14.485,14.485,0,0,0,6.65,1.351c1.371-.061,2.769-.038,4.123-.016l.621.01a3.48,3.48,0,0,1,3.223,2.219l-.606,0c-.737,0-1.477-.008-2.214.008-1.944.041-4.016.09-6.1.18a1.188,1.188,0,0,0-.9.413,1.194,1.194,0,0,0,1.168,1.9,34.7,34.7,0,0,1,6.892-.105c.6.031,1.194.062,1.79.084l.513.023c.258.011.516.024.774.031a1.179,1.179,0,0,0,1.324-1.032.584.584,0,0,1,.246-.322q1.8-.984,3.612-1.955,2.236-1.2,4.467-2.423a2.823,2.823,0,0,1,2.9.124l-1.632,1.124q-2.04,1.406-4.079,2.808-1.437.986-2.876,1.967c-1.965,1.34-4,2.727-5.977,4.115a9.288,9.288,0,0,1-6.96,1.539c-2.852-.436-5.739-.992-8.53-1.529L23.7,48.576a5.127,5.127,0,0,0-3.945.715C18.88,49.865,17.992,50.418,17.077,50.989ZM43.235,37.205c-.7.379-1.353.732-1.975,1.062-.022.01-.08-.013-.136-.04-.271-.133-.539-.275-.829-.43a3.76,3.76,0,0,1,3.033-.642Zm.164,3.6-.434-.759.09-.051c.234-.132.469-.265.7-.391.371-.2.745-.4,1.117-.6.744-.4,1.487-.793,2.219-1.209a1.775,1.775,0,0,1,1.88,0ZM11.146,55.029a.712.712,0,0,1-.265.564.17.17,0,0,1-.093.049h0a.052.052,0,0,1-.024,0h0a.727.727,0,0,1-.262-.443.184.184,0,0,1,.072-.2.55.55,0,0,1,.343-.118.366.366,0,0,1,.123.018A.151.151,0,0,1,11.146,55.029Zm2.373.2a2.707,2.707,0,0,0-2.7-2.74h-.012a2.686,2.686,0,0,0-2.717,2.7,2.687,2.687,0,0,0,1.5,2.425H6.652L4.37,38.9H8.952c.944,0,.944,0,1.222.911l5.336,17.5c.03.1.059.2.09.306H11.993A2.74,2.74,0,0,0,13.519,55.226Z" fill="#fff"/>
    <path id="Path_17484" data-name="Path 17484" d="M15.9,18.561l.153.014c.528.053,1.056.1,1.585.14a.405.405,0,0,1,.445.338,15.225,15.225,0,0,0,.861,2.043.351.351,0,0,1-.063.491c-.4.444-.787.916-1.161,1.4a2.751,2.751,0,0,0-.286.5c-.037.076-.074.155-.117.235l-.072.136.078.132c.045.075.084.151.123.224a2.021,2.021,0,0,0,.323.494c.928.953,1.874,1.891,2.819,2.828a1.166,1.166,0,0,0,1.685.078c.167-.136.332-.276.5-.415.319-.269.648-.547.987-.791a.556.556,0,0,1,.4-.053c.695.254,1.4.553,2.1.889a.593.593,0,0,1,.278.318c.077.423.116.866.152,1.294.016.18.031.359.05.538.089.866.5,1.256,1.325,1.264q.957.008,1.913.008.975,0,1.951-.008c.811-.007,1.2-.365,1.32-1.241.081-.6.163-1.216.186-1.833.009-.214.051-.262.328-.362a18.813,18.813,0,0,0,2.035-.865c.237-.12.311-.1.479.055.363.331.746.639,1.13.948l.315.255a1.138,1.138,0,0,0,1.636-.031c.988-.96,1.969-1.941,2.917-2.916a1.149,1.149,0,0,0,.046-1.636c-.07-.087-.137-.176-.2-.265a5.416,5.416,0,0,0-.7-.8.86.86,0,0,1-.16-1.309,4.217,4.217,0,0,0,.364-.9,1.891,1.891,0,0,1,.474-.937,2.485,2.485,0,0,1,1.3-.229c.258,0,.517-.01.759-.039a1.186,1.186,0,0,0,1.145-1.244c.008-1.33.005-2.66,0-3.991A1.165,1.165,0,0,0,44.2,12.055l-.307-.036c-.511-.062-1.039-.125-1.565-.152-.282-.015-.355-.069-.439-.32a15.547,15.547,0,0,0-.86-2.042c-.121-.242-.1-.321.051-.484.413-.448.787-.917,1.166-1.4a1.171,1.171,0,0,0-.074-1.779Q40.824,4.457,39.451,3.1a1.182,1.182,0,0,0-1.78-.06c-.183.145-.361.3-.539.447-.29.244-.589.5-.9.716a.564.564,0,0,1-.407.037c-.709-.261-1.415-.56-2.1-.89a.575.575,0,0,1-.258-.321c-.064-.354-.1-.725-.133-1.084-.025-.252-.049-.5-.083-.754A1.159,1.159,0,0,0,31.937.007q-1.931-.015-3.864,0c-.843.006-1.24.38-1.328,1.25-.019.177-.034.356-.049.535-.036.408-.071.83-.144,1.231a.592.592,0,0,1-.264.334c-.67.319-1.377.614-2.1.877a.572.572,0,0,1-.406-.033c-.3-.216-.6-.466-.883-.707-.183-.155-.365-.31-.552-.459a1.21,1.21,0,0,0-1.832.1q-1.353,1.332-2.686,2.687a1.181,1.181,0,0,0-.069,1.827l.073.093c.355.441.71.881,1.087,1.3.135.15.155.217.05.43a18.07,18.07,0,0,0-.888,2.1c-.079.228-.142.274-.4.288-.489.027-.979.084-1.468.14l-.4.045a1.191,1.191,0,0,0-1.152,1.3v1.414c0,.816,0,1.632,0,2.447A1.21,1.21,0,0,0,15.9,18.561Zm4.189-5.494c.428-1.15.864-2.183,1.33-3.157A1.423,1.423,0,0,0,21.265,8.2c-.3-.346-.591-.7-.88-1.057l-.223-.272,1.442-1.4.245.2c.35.282.71.572,1.058.878a1.384,1.384,0,0,0,1.7.177A33.351,33.351,0,0,1,27.759,5.4a1.414,1.414,0,0,0,1.076-1.332c.029-.438.074-.874.12-1.32l.037-.362H31.01l.04.363c.051.475.1.947.143,1.42A1.371,1.371,0,0,0,32.212,5.4c1.311.494,2.3.909,3.22,1.345a1.361,1.361,0,0,0,1.642-.169c.343-.3.7-.584,1.05-.873l.287-.235,1.376,1.441-.2.242c-.28.343-.578.709-.887,1.065a1.408,1.408,0,0,0-.147,1.7c.465.969.9,2,1.327,3.158A1.361,1.361,0,0,0,41.1,14.1c.476.038.95.092,1.436.147l.391.044v2.017l-.335.038c-.432.05-.865.1-1.3.122a1.438,1.438,0,0,0-1.4,1.087c-.38,1.047-.827,2.108-1.328,3.156a1.373,1.373,0,0,0,.152,1.645c.305.351.6.712.883,1.063l.195.239-1.464,1.4-.182-.148c-.328-.263-.7-.565-1.067-.88a1.421,1.421,0,0,0-1.706-.147,28.684,28.684,0,0,1-3.089,1.308,1.419,1.419,0,0,0-1.106,1.3c-.038.465-.086.929-.134,1.409l-.038.366H28.991l-.036-.363c-.046-.44-.09-.873-.117-1.309a1.474,1.474,0,0,0-1.156-1.413A24.087,24.087,0,0,1,24.655,23.9a1.453,1.453,0,0,0-1.764.151c-.329.289-.667.567-1.023.858l-.317.261L20.1,23.8l.277-.34c.306-.378.6-.737.9-1.087a1.42,1.42,0,0,0,.138-1.7,27.908,27.908,0,0,1-1.3-3.09,1.431,1.431,0,0,0-1.374-1.11c-.436-.026-.873-.073-1.32-.122l-.37-.039V14.294l.377-.043c.486-.055.971-.112,1.459-.153A1.354,1.354,0,0,0,20.094,13.067Z" fill="#fff"/>
    <path id="Path_17485" data-name="Path 17485" d="M29.8,24.566c.177,0,.356,0,.534-.017a9.307,9.307,0,0,0,8.92-9.854,9.073,9.073,0,0,0-3.068-6.3,9.446,9.446,0,0,0-6.926-2.339,9.32,9.32,0,0,0-8.514,9.677A9.28,9.28,0,0,0,29.8,24.566Zm-6.718-9.23A6.936,6.936,0,0,1,30.043,8.39h.006a6.912,6.912,0,0,1-.055,13.823h-.008a6.869,6.869,0,0,1-4.879-2.041A6.8,6.8,0,0,1,23.08,15.336Z" fill="#fff"/>
    <path id="Path_17486" data-name="Path 17486" d="M28.073,18.1a1.412,1.412,0,0,0,.952.477A1.454,1.454,0,0,0,30,18.089c.375-.36.747-.725,1.119-1.091l1.435-1.4q.77-.748,1.537-1.5a1.069,1.069,0,0,0,.253-1.445,1.5,1.5,0,0,0-1.02-.6,1.616,1.616,0,0,0-1.005.51c-.849.806-1.686,1.625-2.591,2.51l-.826.808-.274-.323c-.365-.432-.71-.839-1.089-1.231a1.3,1.3,0,0,0-.931-.438,1.129,1.129,0,0,0-.816.365,1.172,1.172,0,0,0,.121,1.736Q26.982,17.061,28.073,18.1Z" fill="#fff"/>
  </g>
</svg>
