<svg xmlns="http://www.w3.org/2000/svg" xmlns:xlink="http://www.w3.org/1999/xlink" width="109" height="136" viewBox="0 0 109 136">
  <defs>
    <clipPath id="clip-path">
      <rect id="Rectangle_244" data-name="Rectangle 244" width="109" height="136" transform="translate(1033 1633)" fill="#fff"/>
    </clipPath>
  </defs>
  <g id="Services_Icon_Orange_Light_Opacity_" data-name="Services Icon (Orange Light Opacity)" transform="translate(-1033 -1633)" clip-path="url(#clip-path)">
    <g id="Group_4203" data-name="Group 4203" transform="translate(996.484 1636.551)" opacity="0.15">
      <path id="Path_17483" data-name="Path 17483" d="M170.312,45.189a14.974,14.974,0,0,0-18.515-5.3,1.51,1.51,0,0,1-2-.3c-4.7-3.859-9.663-4.51-14.761-1.914a1.662,1.662,0,0,1-1.218-.121,16.9,16.9,0,0,0-18.087-.491c-1.049.573-2.083,1.209-3.117,1.845a26.365,26.365,0,0,1-7.136,3.494,25.786,25.786,0,0,1-7.468.353c-1.414-.066-2.876-.133-4.326-.078A25.674,25.674,0,0,1,81.008,39.85a34.566,34.566,0,0,0-22.591-3,36.115,36.115,0,0,0-18.132,9.594,37.885,37.885,0,0,1-4.4,3.353c-.485.332-.98.669-1.48,1.022l-2.1-6.88c-.9-2.937-1.782-3.612-4.743-3.618q-10.56,0-21.141,0c-1.812,0-2.946.368-3.675,1.179s-.971,2-.781,3.781c.283,2.671.621,5.336.959,8,.184,1.441.368,2.879.54,4.32l2.1,17.315Q7.495,90.891,9.43,106.863c.4,3.226,1.444,4.161,4.685,4.161H46.894c2.065,0,3.3-.422,3.995-1.357.706-.953.742-2.282.124-4.323l-3.88-12.817c1.116-.7,2.219-1.408,3.326-2.11,3.362-2.141,6.841-4.36,10.332-6.353a7.192,7.192,0,0,1,4.3-.645c3.262.485,6.573,1.106,9.768,1.706,2.267.428,4.535.853,6.808,1.239,1.5.253,3,.519,4.5.784,4.794.853,9.75,1.734,14.683,2.159a29.652,29.652,0,0,0,19.266-4.6c12.241-8.21,24.569-16.721,36.49-24.949q6.3-4.351,12.609-8.692C171.614,49.425,171.949,47.613,170.312,45.189ZM47.651,83.856,44.98,85.529,36.393,57.379c3.413-1.224,6.036-3.476,8.584-5.659.889-.76,1.779-1.526,2.7-2.246C56.7,42.454,66.407,41.179,76.54,45.69a43.672,43.672,0,0,0,20.05,4.073c4.134-.184,8.348-.115,12.431-.048l1.872.03a10.491,10.491,0,0,1,9.717,6.69l-1.827-.006c-2.222-.015-4.453-.024-6.675.024-5.861.124-12.108.271-18.4.543a3.583,3.583,0,0,0-2.723,1.245,3.6,3.6,0,0,0,3.521,5.728c6.9-1.031,13.959-.666,20.779-.317,1.8.093,3.6.187,5.4.253l1.547.069c.778.033,1.556.072,2.334.093a3.556,3.556,0,0,0,3.992-3.111,1.76,1.76,0,0,1,.742-.971q5.431-2.967,10.89-5.894,6.743-3.632,13.468-7.305c2.786-1.532,6.669-1.3,8.755.374l-4.92,3.389q-6.151,4.238-12.3,8.466-4.332,2.971-8.671,5.93c-5.924,4.04-12.048,8.222-18.02,12.407a28,28,0,0,1-20.984,4.64c-8.6-1.315-17.3-2.991-25.718-4.61l-4.176-.8a15.456,15.456,0,0,0-11.894,2.156C53.087,80.467,50.41,82.134,47.651,83.856ZM126.516,42.3c-2.11,1.143-4.079,2.207-5.955,3.2-.066.03-.241-.039-.41-.121-.817-.4-1.625-.829-2.5-1.3,3.111-1.866,5.912-2.789,9.144-1.936Zm.494,10.845L125.7,50.854l.271-.154c.706-.4,1.414-.8,2.126-1.179,1.119-.612,2.246-1.209,3.368-1.806,2.243-1.2,4.483-2.391,6.69-3.645a5.352,5.352,0,0,1,5.668-.006ZM29.769,96.036a2.146,2.146,0,0,1-.8,1.7.511.511,0,0,1-.28.148h0a.156.156,0,0,1-.072-.015h-.006a2.191,2.191,0,0,1-.79-1.336.554.554,0,0,1,.217-.6,1.659,1.659,0,0,1,1.034-.356,1.1,1.1,0,0,1,.371.054A.456.456,0,0,1,29.769,96.036Zm7.155.594a8.163,8.163,0,0,0-8.137-8.261H28.75a8.1,8.1,0,0,0-8.192,8.14,8.1,8.1,0,0,0,4.535,7.311H16.22L9.34,47.4H23.154c2.846,0,2.846,0,3.684,2.747L42.926,102.9c.09.3.178.6.271.923H32.323A8.26,8.26,0,0,0,36.924,96.63Z" transform="translate(0 69.875)" fill="#e63e2c"/>
      <path id="Path_17484" data-name="Path 17484" d="M18.423,55.962l.461.042c1.592.16,3.184.317,4.779.422A1.221,1.221,0,0,1,25,57.445a45.9,45.9,0,0,0,2.6,6.16,1.058,1.058,0,0,1-.19,1.48c-1.2,1.339-2.373,2.762-3.5,4.224a8.294,8.294,0,0,0-.862,1.5c-.112.229-.223.467-.353.709l-.217.41.235.4c.136.226.253.455.371.675a6.1,6.1,0,0,0,.974,1.489c2.8,2.873,5.65,5.7,8.5,8.526a3.515,3.515,0,0,0,5.08.235c.5-.41,1-.832,1.5-1.251.962-.811,1.954-1.649,2.976-2.385a1.675,1.675,0,0,1,1.218-.16c2.1.766,4.224,1.667,6.331,2.68a1.789,1.789,0,0,1,.838.959c.232,1.275.35,2.611.458,3.9.048.543.093,1.082.151,1.622.268,2.611,1.5,3.787,3.995,3.811q2.885.023,5.768.024,2.94,0,5.882-.024c2.445-.021,3.63-1.1,3.98-3.742.244-1.8.491-3.666.561-5.526.027-.645.154-.79.989-1.091a56.72,56.72,0,0,0,6.135-2.608c.715-.362.938-.292,1.444.166,1.094,1,2.249,1.927,3.407,2.858l.95.769a3.43,3.43,0,0,0,4.932-.093c2.979-2.894,5.936-5.852,8.795-8.792a3.464,3.464,0,0,0,.139-4.932c-.211-.262-.413-.531-.618-.8a16.331,16.331,0,0,0-2.1-2.418c-1.4-1.242-1.52-2.237-.482-3.947a12.714,12.714,0,0,0,1.1-2.7,5.7,5.7,0,0,1,1.429-2.825c.9-.636,2.37-.663,3.926-.69.778-.015,1.559-.03,2.288-.118a3.574,3.574,0,0,0,3.452-3.751c.024-4.01.015-8.02.006-12.033a3.512,3.512,0,0,0-3.368-3.808l-.926-.109c-1.541-.187-3.133-.377-4.718-.458-.85-.045-1.07-.208-1.324-.965a46.874,46.874,0,0,0-2.593-6.157c-.365-.73-.3-.968.154-1.459,1.245-1.351,2.373-2.765,3.515-4.215C99.4,21,99.329,19.4,97.6,17.62q-4.052-4.183-8.192-8.285c-1.7-1.682-3.407-1.743-5.367-.181-.552.437-1.088.892-1.625,1.348-.874.736-1.776,1.5-2.707,2.159a1.7,1.7,0,0,1-1.227.112c-2.138-.787-4.266-1.688-6.328-2.683a1.734,1.734,0,0,1-.778-.968c-.193-1.067-.3-2.186-.4-3.268-.075-.76-.148-1.52-.25-2.273C70.392,1.068,69.243.037,66.759.022q-5.82-.045-11.65,0c-2.542.018-3.739,1.146-4,3.769-.057.534-.1,1.073-.148,1.613-.109,1.23-.214,2.5-.434,3.711a1.784,1.784,0,0,1-.8,1.007c-2.02.962-4.152,1.851-6.347,2.644a1.724,1.724,0,0,1-1.224-.1c-.917-.651-1.8-1.4-2.662-2.132-.552-.467-1.1-.935-1.664-1.384-2-1.586-3.7-1.483-5.523.314q-4.079,4.016-8.1,8.1c-1.812,1.842-1.872,3.44-.208,5.508l.22.28c1.07,1.33,2.141,2.656,3.277,3.928.407.452.467.654.151,1.3A54.479,54.479,0,0,0,24.971,34.9c-.238.687-.428.826-1.206.868-1.474.081-2.952.253-4.426.422l-1.206.136a3.591,3.591,0,0,0-3.473,3.928v4.263c-.006,2.46-.009,4.92.009,7.378C14.693,54.418,15.887,55.712,18.423,55.962ZM31.052,39.4c1.29-3.467,2.6-6.582,4.01-9.518a4.289,4.289,0,0,0-.479-5.144c-.908-1.043-1.782-2.113-2.653-3.187l-.672-.82L35.605,16.5l.739.6c1.055.85,2.141,1.725,3.19,2.647,1.526,1.348,3.1,1.517,5.122.534a100.55,100.55,0,0,1,9.506-3.992c2.11-.769,3.111-2.008,3.244-4.016.087-1.321.223-2.635.362-3.98l.112-1.091h6.084l.121,1.094c.154,1.432.311,2.855.431,4.281a4.133,4.133,0,0,0,3.072,3.711c3.953,1.489,6.946,2.741,9.708,4.055a4.1,4.1,0,0,0,4.951-.51c1.034-.9,2.1-1.761,3.166-2.632l.865-.709,4.149,4.345-.6.73c-.844,1.034-1.743,2.138-2.674,3.211-1.649,1.893-1.152,3.66-.443,5.141,1.4,2.922,2.71,6.036,4,9.521a4.1,4.1,0,0,0,3.684,3.078c1.435.115,2.864.277,4.329.443l1.179.133v6.081c-.335.039-.672.075-1.01.115-1.3.151-2.608.3-3.919.368a4.336,4.336,0,0,0-4.212,3.277c-1.146,3.157-2.493,6.356-4,9.515a4.139,4.139,0,0,0,.458,4.96c.92,1.058,1.806,2.147,2.662,3.2l.588.721-4.414,4.224-.549-.446c-.989-.793-2.12-1.7-3.217-2.653a4.286,4.286,0,0,0-5.144-.443,86.482,86.482,0,0,1-9.313,3.944c-1.532.537-3.124,1.42-3.335,3.925-.115,1.4-.259,2.8-.4,4.248l-.115,1.1h-6.1l-.109-1.094c-.139-1.327-.271-2.632-.353-3.947-.142-2.18-1.215-3.494-3.485-4.26A72.623,72.623,0,0,1,44.8,72.068a4.379,4.379,0,0,0-5.318.455c-.992.871-2.011,1.709-3.084,2.587l-.956.787L31.071,71.76l.835-1.025c.923-1.14,1.8-2.222,2.7-3.277a4.282,4.282,0,0,0,.416-5.141A84.141,84.141,0,0,1,31.1,53c-.76-2.189-2.038-3.22-4.143-3.347-1.315-.078-2.632-.22-3.98-.368l-1.116-.118V43.1L23,42.967c1.465-.166,2.928-.338,4.4-.461C29.663,42.316,30.519,40.827,31.052,39.4Z" transform="translate(25.695 0)" fill="#e63e2c"/>
      <path id="Path_17485" data-name="Path 17485" d="M48.077,61.895c.534,0,1.073-.015,1.61-.051,16.028-.986,27.837-14.035,26.894-29.709a27.353,27.353,0,0,0-9.25-18.979A28.479,28.479,0,0,0,46.449,6.1,28.1,28.1,0,0,0,20.779,35.279C21.762,50.281,33.843,61.895,48.077,61.895ZM27.822,34.067A20.912,20.912,0,0,1,48.816,13.125h.018A20.838,20.838,0,0,1,48.668,54.8h-.024a20.71,20.71,0,0,1-14.71-6.154A20.491,20.491,0,0,1,27.822,34.067Z" transform="translate(37.927 12.172)" fill="#e63e2c"/>
      <path id="Path_17486" data-name="Path 17486" d="M33.332,30.3A4.257,4.257,0,0,0,36.2,31.74a4.384,4.384,0,0,0,2.943-1.486c1.131-1.085,2.252-2.186,3.374-3.289l4.326-4.221q2.32-2.257,4.634-4.522c1.429-1.4,1.713-3.036.763-4.357a4.534,4.534,0,0,0-3.075-1.809,4.871,4.871,0,0,0-3.03,1.538c-2.56,2.43-5.083,4.9-7.812,7.568L35.835,23.6c-.277-.326-.552-.651-.826-.974-1.1-1.3-2.141-2.53-3.283-3.711a3.925,3.925,0,0,0-2.807-1.321,3.4,3.4,0,0,0-2.46,1.1c-1.45,1.5-1.305,3.549.365,5.234Q30.043,27.154,33.332,30.3Z" transform="translate(47.471 24.285)" fill="#e63e2c"/>
    </g>
  </g>
</svg>
