<svg xmlns="http://www.w3.org/2000/svg" width="60" height="59.936" viewBox="0 0 60 59.936">
  <g id="Solution_Icon_White_" data-name="Solution Icon (White)" transform="translate(640 -0.03)">
    <path id="Path_17470" data-name="Path 17470" d="M-593.667,16.338q-1.875-1.875-3.746-3.754a1.4,1.4,0,0,0-1.445-.547,1.407,1.407,0,0,0-.9,1.25,3.765,3.765,0,0,1-4.059,2.938,3.773,3.773,0,0,1-3.374-3.455,3.731,3.731,0,0,1,2.963-3.979A1.4,1.4,0,0,0-603,7.863a1.364,1.364,0,0,0-.529-1.39q-1.764-1.757-3.522-3.518L-609.367.637c-.808-.805-1.376-.809-2.174-.013l-4.743,4.74c-.086.085-.174.167-.267.253A6.19,6.19,0,0,0-622.607,1.4a6.012,6.012,0,0,0-5.668,4.344c-.9,3.527.421,6.116,3.924,7.7l-1.373,1.369c-1.225,1.221-2.436,2.427-3.644,3.637a1.244,1.244,0,0,0-.006,2.076q1.394,1.4,2.788,2.8l1.993,2c.085.086.168.175.253.269a5.99,5.99,0,0,0-4.19,5.492,6.012,6.012,0,0,0,3.61,6.007l-.572,1.642c-.6,1.718-1.192,3.423-1.791,5.127a5.168,5.168,0,0,0,.089,3.836q.744,1.758,1.495,3.511.784,1.837,1.563,3.675c.078.185.159.37.24.554a6.464,6.464,0,0,1,.807,3.371.974.974,0,0,0,.242.756,1.25,1.25,0,0,0,.9.41h.026a1.168,1.168,0,0,0,1.175-1.1,6.608,6.608,0,0,0-.4-3.078q-.906-2.114-1.807-4.229-1.008-2.359-2.019-4.719a2.793,2.793,0,0,1-.1-2.1q.528-1.538,1.066-3.071c.439-1.259.879-2.518,1.31-3.781.082-.239.164-.3.438-.3a5.725,5.725,0,0,0,4.363-2,11.5,11.5,0,0,0,1.088-1.615c.119-.2.241-.4.37-.611l.078.1a6.942,6.942,0,0,0,.734.8,1.341,1.341,0,0,1,.471,1.145c-.018,2.3-.015,4.6-.013,6.9l0,2.107,0,.145a2.256,2.256,0,0,0,.019.447,1.136,1.136,0,0,0,1.16,1.035h.019A1.132,1.132,0,0,0-612.8,45.04a2.281,2.281,0,0,0,.025-.5l-.006-3.5c0-3.241-.008-6.591.03-9.886a3.748,3.748,0,0,1,.566-1.858,2.611,2.611,0,0,1,3.068-.983,2.782,2.782,0,0,1,1.9,2.642l.006,1.616c.011,3.174.023,6.456-.013,9.683a10.826,10.826,0,0,0,1.265,5.405,6.727,6.727,0,0,1,.751,3.793,7.957,7.957,0,0,1-1.275,3.559,6.407,6.407,0,0,0-.723,3.763,1.19,1.19,0,0,0,1.176,1.187h.011a1.2,1.2,0,0,0,1.19-1.184.683.683,0,0,0,0-.15,4.707,4.707,0,0,1,.823-3.216,4.649,4.649,0,0,0,.258-.514l.079-.172a8.52,8.52,0,0,0,.7-5.51,13.959,13.959,0,0,0-.707-2.118c-.114-.291-.229-.582-.334-.876q-.276-.762-.559-1.518l-.133-.361a7.727,7.727,0,0,0,3.084,1.544,3.879,3.879,0,0,0,3.62-.591,3.663,3.663,0,0,0,1.144-3.179c-.082-1.112-.061-2.253-.041-3.356.009-.458.018-.916.02-1.372,2.966-1.189,4.483-3.174,4.512-5.9.026-2.633-1.4-4.646-4.242-5.989a1.377,1.377,0,0,0,.3-.209q2.164-2.136,4.3-4.3l.4-.4c.826-.828.824-1.388-.006-2.218Zm-4.808,7.758c-.431.434-.862.868-1.3,1.294-.422.41-.846.908-.522,1.632s1.012.692,1.512.668a3.608,3.608,0,0,1,3.48,1.8,3.593,3.593,0,0,1,.03,3.868,3.746,3.746,0,0,1-4.375,1.685,3.712,3.712,0,0,1-2.618-3.886,1.317,1.317,0,0,0-.7-1.5,1.261,1.261,0,0,0-1.537.468c-.11.12-.217.243-.346.394-.517-2.856-2.455-4.7-5.033-4.733h-.085a5.066,5.066,0,0,0-3.911,1.76c-.738.82-.9,1.254-1.3,3.841l-.183-.185c-.36-.365-.7-.713-1.041-1.065a1.31,1.31,0,0,0-1.587-.476c-.663.309-.69.886-.663,1.451a3.612,3.612,0,0,1-2.114,3.708,3.581,3.581,0,0,1-4.079-.513,3.722,3.722,0,0,1-1.107-4.165,3.728,3.728,0,0,1,3.533-2.47h0a2.17,2.17,0,0,1,.238.018,1.209,1.209,0,0,0,.567-.025,1.543,1.543,0,0,0,.933-.636,1.848,1.848,0,0,0-.074-1.162.938.938,0,0,0-.336-.429c-.044-.037-.087-.075-.126-.113l-5.485-5.493c-.089-.089-.176-.182-.279-.292l-.072-.077.154-.144c.193-.179.381-.353.564-.534l2.24-2.238q1.494-1.493,2.989-2.983a1.327,1.327,0,0,0,.481-1.586,1.336,1.336,0,0,0-1.505-.685,3.777,3.777,0,0,1-2.808-.956,3.745,3.745,0,0,1-1.239-2.669,3.654,3.654,0,0,1,1.017-2.68,3.729,3.729,0,0,1,2.685-1.162h.046a3.783,3.783,0,0,1,2.715,1.091,3.767,3.767,0,0,1,1.072,2.762c0,.11,0,.219-.015.327a1.169,1.169,0,0,0,.691,1.33,1.239,1.239,0,0,0,1.45-.362q2.58-2.586,5.168-5.163l.674-.673c.066-.065.135-.125.2-.184l4.072,4.08c-2.667,1.7-3.69,4.124-2.961,7.013a5.746,5.746,0,0,0,4.922,4.47,5.96,5.96,0,0,0,6.407-3.056l4.114,4.11-1.147,1.135c-.847.837-1.7,1.684-2.559,2.531Q-598.053,23.666-598.475,24.1Zm-6.331,10a1.4,1.4,0,0,1,.308-.622c.036-.05.071-.1.1-.153a6.259,6.259,0,0,0,5.115,4.249l0,1.406c0,1.314.008,2.674-.015,4.005-.009.516-.509.686-.934.693a4.744,4.744,0,0,1-4.592-4.508C-604.868,37.52-604.864,35.815-604.806,34.094Z" fill="#fff"/>
    <path id="Path_17471" data-name="Path 17471" d="M-635.862,21.223h1.713c.382,0,.763,0,1.144-.005a1.21,1.21,0,0,0,1.341-1.154,1.117,1.117,0,0,0-.307-.835,1.4,1.4,0,0,0-1.037-.39q-2.826-.012-5.652,0A1.2,1.2,0,0,0-640,19.993a1.125,1.125,0,0,0,.3.831,1.439,1.439,0,0,0,1.038.4c.654.007,1.308.007,1.958,0Z" fill="#fff"/>
    <path id="Path_17472" data-name="Path 17472" d="M-581.373,18.841q-2.8-.009-5.59,0a1.212,1.212,0,0,0-1.373,1.19,1.219,1.219,0,0,0,1.373,1.19c.638,0,1.276,0,1.914,0h2.533q.571,0,1.144,0A1.217,1.217,0,0,0-580,20.029,1.211,1.211,0,0,0-581.373,18.841Z" fill="#fff"/>
    <path id="Path_17473" data-name="Path 17473" d="M-631.19,30.435a1.177,1.177,0,0,0-1.189.007c-1.5.839-3.087,1.756-5.151,2.974a1.147,1.147,0,0,0-.437,1.609,1.158,1.158,0,0,0,1.01.6,1.238,1.238,0,0,0,.6-.161c1.942-1.093,3.626-2.067,5.15-2.979a1.6,1.6,0,0,0,.495-.569,1.632,1.632,0,0,1,.092-.142l.04-.052v-.066A1.356,1.356,0,0,0-631.19,30.435Z" fill="#fff"/>
    <path id="Path_17474" data-name="Path 17474" d="M-582.639,33.3q-2.409-1.4-4.833-2.779a3.609,3.609,0,0,0-.5-.221c-.1-.04-.219-.084-.354-.14l-.131-.054-.093.106c-.077.087-.163.17-.249.254a2.169,2.169,0,0,0-.551.7c-.21.514.018,1.012.624,1.363l1.291.748q1.821,1.054,3.645,2.1a1.6,1.6,0,0,0,.783.23,1.13,1.13,0,0,0,.3-.041,1.127,1.127,0,0,0,.684-.564A1.212,1.212,0,0,0-582.639,33.3Z" fill="#fff"/>
    <path id="Path_17475" data-name="Path 17475" d="M-637.44,6.71l.144.084c1.593.922,3.186,1.845,4.786,2.756a1.589,1.589,0,0,0,.784.23,1.121,1.121,0,0,0,.307-.042,1.113,1.113,0,0,0,.679-.56,1.227,1.227,0,0,0-.614-1.71q-2.406-1.4-4.826-2.773a3.148,3.148,0,0,0-.437-.2c-.049-.019-.095-.037-.133-.054l-.043-.018-.046,0a1.209,1.209,0,0,0-1.232.865A1.151,1.151,0,0,0-637.44,6.71Z" fill="#fff"/>
    <path id="Path_17476" data-name="Path 17476" d="M-588.25,9.788a1.391,1.391,0,0,0,.685-.192c1.526-.865,3.3-1.875,5.032-2.918a1.727,1.727,0,0,0,.523-.585c.037-.058.069-.109.1-.146l.044-.055v-.07a1.352,1.352,0,0,0-.62-1.209,1.26,1.26,0,0,0-1.255.038c-1.779,1.006-3.517,2.019-4.982,2.878a1.332,1.332,0,0,0-.657.807,1.14,1.14,0,0,0,.144.879A1.136,1.136,0,0,0-588.25,9.788Z" fill="#fff"/>
  </g>
</svg>
