<svg xmlns="http://www.w3.org/2000/svg" xmlns:xlink="http://www.w3.org/1999/xlink" width="101" height="120" viewBox="0 0 101 120">
  <defs>
    <clipPath id="clip-path">
      <rect id="Rectangle_242" data-name="Rectangle 242" width="101" height="120" transform="translate(1041 1226)" fill="#fff"/>
    </clipPath>
  </defs>
  <g id="Solution_Icon_Orange_Light_Opacity_" data-name="Solution Icon (Orange Light Opacity)" transform="translate(-1041 -1226)" clip-path="url(#clip-path)">
    <g id="Group_4199" data-name="Group 4199" transform="translate(1655.873 1225.971)" opacity="0.15">
      <path id="Path_17470" data-name="Path 17470" d="M-520.988,49.023q-5.633-5.633-11.254-11.278c-1.088-1.094-2.406-2.214-4.341-1.643-2.022.595-2.422,2.421-2.713,3.755a11.312,11.312,0,0,1-12.194,8.826A11.336,11.336,0,0,1-561.626,38.3a11.21,11.21,0,0,1,8.9-11.954c1.169-.255,3.124-.679,3.707-2.788.523-1.878-.544-3.139-1.589-4.176q-5.3-5.277-10.581-10.569l-6.967-6.964c-2.427-2.418-4.134-2.43-6.531-.039l-14.249,14.24c-.258.255-.523.5-.8.76C-593.384,7.1-601.748,3.893-607.93,4.155c-8.154.321-15.153,5.687-17.028,13.05-2.7,10.6,1.265,18.374,11.789,23.124l-4.125,4.113c-3.68,3.668-7.318,7.291-10.947,10.926-2.244,2.247-2.25,4-.018,6.237q4.187,4.2,8.376,8.4l5.987,5.993c.255.258.5.526.76.808-7.88,3.1-12.116,8.643-12.588,16.5-.484,7.952,3.167,14.024,10.845,18.046l-1.719,4.933c-1.8,5.161-3.581,10.283-5.381,15.4a15.527,15.527,0,0,0,.267,11.524q2.235,5.281,4.491,10.548,2.356,5.52,4.7,11.041c.234.556.478,1.112.721,1.664,1.454,3.311,2.83,6.441,2.424,10.127a2.928,2.928,0,0,0,.727,2.271,3.754,3.754,0,0,0,2.7,1.232h.078a3.509,3.509,0,0,0,3.53-3.29,19.851,19.851,0,0,0-1.193-9.247q-2.722-6.349-5.429-12.7-3.028-7.088-6.065-14.177a8.391,8.391,0,0,1-.312-6.294q1.586-4.619,3.2-9.226c1.319-3.782,2.641-7.565,3.935-11.359.246-.718.493-.889,1.316-.913a17.2,17.2,0,0,0,13.107-6,34.571,34.571,0,0,0,3.269-4.852c.357-.6.724-1.211,1.112-1.836l.234.288a20.864,20.864,0,0,0,2.205,2.415,4.027,4.027,0,0,1,1.415,3.44c-.054,6.907-.045,13.813-.039,20.723l.006,6.33-.006.436a6.778,6.778,0,0,0,.057,1.343,3.413,3.413,0,0,0,3.485,3.109h.057a3.4,3.4,0,0,0,3.5-3.028,6.85,6.85,0,0,0,.075-1.5l-.018-10.5c-.012-9.737-.024-19.8.09-29.7a11.26,11.26,0,0,1,1.7-5.582,7.843,7.843,0,0,1,9.217-2.953,8.356,8.356,0,0,1,5.7,7.937l.018,4.855c.033,9.535.069,19.4-.039,29.09a32.527,32.527,0,0,0,3.8,16.238,20.211,20.211,0,0,1,2.256,11.4c-.246,3.371-1.427,6.669-3.831,10.692-2.214,3.7-2.349,7.619-2.172,11.3a3.574,3.574,0,0,0,3.533,3.566h.033a3.617,3.617,0,0,0,3.575-3.557,2.047,2.047,0,0,0,0-.451c-.451-3.1.315-6.078,2.472-9.662a13.972,13.972,0,0,0,.775-1.544l.237-.517a25.6,25.6,0,0,0,2.1-16.553,41.922,41.922,0,0,0-2.124-6.363c-.342-.874-.688-1.748-1-2.632q-.829-2.289-1.68-4.56l-.4-1.085a23.215,23.215,0,0,0,9.265,4.639c5.639,1.379,9.031-.207,10.875-1.776,2.518-2.133,3.74-5.525,3.437-9.55-.246-3.341-.183-6.769-.123-10.082.027-1.376.054-2.752.06-4.122,8.91-3.572,13.468-9.535,13.555-17.722.078-7.91-4.209-13.958-12.744-17.992a4.135,4.135,0,0,0,.889-.628q6.5-6.417,12.933-12.906l1.2-1.2c2.481-2.488,2.475-4.17-.018-6.663ZM-535.432,72.33c-1.295,1.3-2.59,2.608-3.906,3.887-1.268,1.232-2.541,2.728-1.568,4.9s3.04,2.079,4.543,2.007a10.84,10.84,0,0,1,10.455,5.42,10.794,10.794,0,0,1,.09,11.62,11.252,11.252,0,0,1-13.143,5.062,11.151,11.151,0,0,1-7.865-11.674c.144-1.586.039-3.53-2.109-4.5-2.094-.943-3.563.252-4.618,1.406-.33.361-.652.73-1.039,1.184-1.553-8.58-7.375-14.114-15.12-14.219l-.255,0a15.22,15.22,0,0,0-11.75,5.287c-2.217,2.463-2.7,3.767-3.906,11.539l-.55-.556c-1.082-1.1-2.112-2.142-3.128-3.2-.847-.883-2.415-2.527-4.768-1.43-1.992.928-2.073,2.662-1.992,4.359.258,5.191-1.881,8.941-6.351,11.14a10.757,10.757,0,0,1-12.254-1.541,11.182,11.182,0,0,1-3.326-12.513,11.2,11.2,0,0,1,10.614-7.42h.012a6.521,6.521,0,0,1,.715.054,3.633,3.633,0,0,0,1.7-.075c1.154-.415,2.388-.967,2.8-1.911.457-1.027.081-2.379-.222-3.491a2.816,2.816,0,0,0-1.009-1.289c-.132-.111-.261-.225-.379-.339l-16.478-16.5c-.267-.267-.529-.547-.838-.877l-.216-.231.463-.433c.58-.538,1.145-1.06,1.694-1.6l6.73-6.723q4.488-4.484,8.979-8.962c.94-.934,2.512-2.5,1.445-4.765-.949-2.013-2.719-2.178-4.521-2.058a11.346,11.346,0,0,1-8.436-2.872,11.25,11.25,0,0,1-3.722-8.018,10.976,10.976,0,0,1,3.055-8.051,11.2,11.2,0,0,1,8.066-3.491l.138,0a11.366,11.366,0,0,1,8.157,3.278,11.316,11.316,0,0,1,3.22,8.3c-.006.33-.009.658-.045.982a3.511,3.511,0,0,0,2.076,4,3.722,3.722,0,0,0,4.356-1.088q7.751-7.769,15.526-15.511l2.025-2.022c.2-.2.406-.376.607-.553l12.233,12.257c-8.012,5.119-11.086,12.389-8.9,21.069,1.875,7.432,7.123,12.2,14.787,13.429C-545.208,56.9-538.725,53.8-534.1,46.4l12.359,12.347-3.446,3.41c-2.544,2.515-5.119,5.059-7.688,7.6Q-534.164,71.038-535.432,72.33Zm-19.02,30.036a4.2,4.2,0,0,1,.925-1.869c.108-.15.213-.306.315-.46,2.593,7.132,7.757,11.422,15.367,12.765l.009,4.224c.012,3.948.024,8.033-.045,12.032-.027,1.55-1.529,2.061-2.806,2.082a14.252,14.252,0,0,1-13.8-13.543C-554.638,112.659-554.626,107.536-554.452,102.366Z" transform="translate(20.183 0)" fill="#e63e2c"/>
      <path id="Path_17471" data-name="Path 17471" d="M-627.569,26.009l2.572,0q1.289,0,2.575,0c1.147,0,2.292,0,3.437-.015,2.382-.024,3.963-1.385,4.029-3.467a3.355,3.355,0,0,0-.922-2.509A4.219,4.219,0,0,0-619,18.853q-8.49-.036-16.98,0c-2.376.009-3.957,1.37-4.023,3.461a3.38,3.38,0,0,0,.91,2.5A4.322,4.322,0,0,0-635.969,26c1.965.021,3.93.021,5.882.012Z" transform="translate(0 37.689)" fill="#e63e2c"/>
      <path id="Path_17472" data-name="Path 17472" d="M-567.417,18.85q-8.4-.027-16.794,0c-2.5.006-4.125,1.412-4.125,3.575,0,2.148,1.622,3.551,4.125,3.575,1.917.015,3.833.012,5.75.009l2.464,0,2.569,0c.859,0,1.718,0,2.578,0q1.717,0,3.437-.012c2.506-.021,4.122-1.427,4.122-3.581S-564.912,18.856-567.417,18.85Z" transform="translate(103.546 37.692)" fill="#e63e2c"/>
      <path id="Path_17473" data-name="Path 17473" d="M-617.271,30.751a3.535,3.535,0,0,0-3.572.021c-4.5,2.521-9.274,5.275-15.475,8.935a3.447,3.447,0,0,0-1.313,4.834,3.478,3.478,0,0,0,3.034,1.8,3.718,3.718,0,0,0,1.805-.484c5.834-3.284,10.893-6.21,15.472-8.95a4.8,4.8,0,0,0,1.487-1.709,4.911,4.911,0,0,1,.276-.427l.12-.156,0-.2A4.074,4.074,0,0,0-617.271,30.751Z" transform="translate(3.738 60.622)" fill="#e63e2c"/>
      <path id="Path_17474" data-name="Path 17474" d="M-569.027,39.7q-7.237-4.213-14.52-8.349a10.838,10.838,0,0,0-1.514-.664c-.312-.12-.658-.252-1.064-.421l-.393-.162-.279.318c-.231.261-.49.511-.748.763A6.517,6.517,0,0,0-589.2,33.3c-.631,1.544.054,3.04,1.875,4.095l3.878,2.247q5.471,3.168,10.95,6.312a4.812,4.812,0,0,0,2.352.691,3.4,3.4,0,0,0,.91-.123,3.386,3.386,0,0,0,2.055-1.694C-566.131,42.943-566.84,40.978-569.027,39.7Z" transform="translate(101.353 60.285)" fill="#e63e2c"/>
      <path id="Path_17475" data-name="Path 17475" d="M-636.057,11.286l.433.252c4.786,2.77,9.572,5.543,14.378,8.28a4.773,4.773,0,0,0,2.355.691,3.367,3.367,0,0,0,.922-.126,3.344,3.344,0,0,0,2.04-1.682c1.036-1.869.309-3.884-1.845-5.137q-7.228-4.2-14.5-8.331a9.452,9.452,0,0,0-1.313-.589c-.147-.057-.285-.111-.4-.162l-.129-.054-.138.009a3.632,3.632,0,0,0-3.7,2.6C-638.481,8.792-637.826,10.261-636.057,11.286Z" transform="translate(3.747 8.812)" fill="#e63e2c"/>
      <path id="Path_17476" data-name="Path 17476" d="M-585.914,20.46a4.178,4.178,0,0,0,2.058-.577c4.585-2.6,9.911-5.633,15.117-8.766a5.188,5.188,0,0,0,1.571-1.757c.111-.174.207-.327.294-.439l.132-.165v-.21A4.06,4.06,0,0,0-568.6,4.913a3.785,3.785,0,0,0-3.77.114c-5.344,3.022-10.566,6.066-14.967,8.646a4,4,0,0,0-1.974,2.424,3.423,3.423,0,0,0,.433,2.641A3.413,3.413,0,0,0-585.914,20.46Z" transform="translate(101.383 8.885)" fill="#e63e2c"/>
    </g>
  </g>
</svg>
