<svg xmlns="http://www.w3.org/2000/svg" xmlns:xlink="http://www.w3.org/1999/xlink" width="128" height="133" viewBox="0 0 128 133">
  <defs>
    <clipPath id="clip-path">
      <rect id="Rectangle_243" data-name="Rectangle 243" width="128" height="133" transform="translate(485 1636)" fill="#fff"/>
    </clipPath>
  </defs>
  <g id="Tech_Stack_Icon_Orange_Light_Opacity_" data-name="Tech Stack Icon (Orange Light Opacity)" transform="translate(-485 -1636)" clip-path="url(#clip-path)">
    <g id="Group_4201" data-name="Group 4201" transform="translate(473 1635.999)" opacity="0.15">
      <path id="Path_17477" data-name="Path 17477" d="M16.091,46.434a11.733,11.733,0,0,0-9.328.5c-.19.1-.335.232-.515.335a11.8,11.8,0,0,0-1.29.829,10.809,10.809,0,0,0-.91.738A11.359,11.359,0,0,0,2.96,49.969c-.238.283-.47.576-.684.886a13.029,13.029,0,0,0-.892,1.513c-.181.353-.356.72-.515,1.1A18.531,18.531,0,0,0,.229,55.28c-.069.226-.166.413-.229.648v3.55l.714,2.167A11.6,11.6,0,0,0,6.8,68.5a12.1,12.1,0,0,0,3.936,1.037c.316.033.624.093.94.1.13.006.253.042.383.042a12.355,12.355,0,0,0,4.316-.778,11.876,11.876,0,0,0,6.682-6.5,12.018,12.018,0,0,0,0-9.427A12.161,12.161,0,0,0,16.091,46.434Zm.844,11.353a4.94,4.94,0,0,1-4.9,4.816h-.084a4.94,4.94,0,0,1-4.822-4.982,4.971,4.971,0,0,1,4.907-4.816h.081a4.94,4.94,0,0,1,4.816,4.982Z" transform="translate(0 92.028)" fill="#e63e2c"/>
      <path id="Path_17478" data-name="Path 17478" d="M151.694,78.415c-.244-.015-.485-.024-.726-.024a11.389,11.389,0,0,0-6.109,1.79,13.227,13.227,0,0,0-4.834,5.591,2.025,2.025,0,0,1-1.435,1.034c-5.88.054-11.838.036-17.61.024l-2.517-.006a.768.768,0,0,1-.307-.112c-.063-.03-.127-.066-.2-.1l0-8.861c0-5.705,0-11.6-.006-17.4,0-3.264-1.26-4.545-4.494-4.566-.606-.006-1.209-.009-1.817-.009-.889,0-1.811,0-2.758.006V34.648q2.165,0,4.316,0c4.638.006,9.412,0,14.084-.015a7.991,7.991,0,0,0,2.438-.3,3.207,3.207,0,0,0,2.315-3.246,3.2,3.2,0,0,0-2.3-3.255,7.813,7.813,0,0,0-2.438-.3c-6.573-.018-13.261-.012-19.735-.012l-1.1,0c-3.638,0-4.8,1.163-4.807,4.78q-.009,7.174,0,14.358,0,3.589,0,7.179v1.79H86.878q0-2.645.006-5.268c.006-4.973.012-10.114-.036-15.141-.009-1.055.536-1.3,1.29-1.633l.054-.024a12.011,12.011,0,0,0-4.864-22.98l-.039,0A12.082,12.082,0,0,0,71.6,20.082a11.794,11.794,0,0,0,6.923,13.481,1.836,1.836,0,0,1,1.263,2.08c-.033,4.322-.027,8.719-.024,12.971q0,2.165,0,4.328v2.839l-9.072,0c-5.7,0-11.594,0-17.4.006-3.339,0-4.584,1.26-4.6,4.638-.006,1.127-.006,2.251,0,3.366v1.076H27.624c-.009-.105-.018-.2-.027-.3-.018-.223-.036-.413-.036-.606V53.273c0-9.34,0-19-.036-28.5-.006-1.118.518-1.429,1.383-1.808a11.909,11.909,0,0,0,5.79-5.479A12.04,12.04,0,0,0,24.1,0l-.136,0A12.085,12.085,0,0,0,12.3,9.368a11.829,11.829,0,0,0,6.615,13.493A2.187,2.187,0,0,1,20.46,25.29c-.036,12.227-.03,24.662-.024,36.687l0,5.5c0,3.348,1.254,4.6,4.629,4.6,5.172.006,10.431,0,15.509,0h8.017V86.76c-.1.009-.184.024-.268.036a3.124,3.124,0,0,1-.452.048q-2.694,0-5.392,0c-4.708,0-9.584-.006-14.379.042h-.027c-1,0-1.242-.546-1.546-1.23l-.063-.142a11.982,11.982,0,0,0-8.14-6.766,11.613,11.613,0,0,0-10.039,2.1,12.018,12.018,0,0,0,6.658,21.561c.238.015.476.024.714.024.362,0,.714-.048,1.07-.081l.051-.006a11.01,11.01,0,0,0,1.661-.3l.112-.027a11.234,11.234,0,0,0,1.531-.533c.048-.018.1-.036.145-.057a11.954,11.954,0,0,0,1.465-.778l.087-.051a13.157,13.157,0,0,0,4.834-5.551,2.025,2.025,0,0,1,1.435-1.034c2.905-.027,5.832-.036,8.749-.036.31,0,.621,0,.931,0,2.9,0,5.781.009,8.614.018l1.832,0a.793.793,0,0,1,.3.108,1.92,1.92,0,0,0,.208.1l0,8.867c0,5.7,0,11.6.006,17.4.006,3.264,1.263,4.545,4.491,4.566.606.006,1.212.006,1.82.006.892,0,1.817,0,2.761,0v21.133c-1.546,0-3.092,0-4.626,0-4.515,0-9.2,0-13.773.015a8.081,8.081,0,0,0-2.438.3,3.446,3.446,0,0,0-.015,6.507,7.993,7.993,0,0,0,2.438.289c5.877.018,11.844.012,17.628.015l3.2,0c3.635,0,4.8-1.16,4.807-4.777q.009-8.079,0-16.154v-7.179H79.76v3.972c.006,5.708.009,11.1-.06,16.615-.006.47-.7,1.172-1.272,1.438a12.04,12.04,0,0,0,4.882,23.023h.039a12.08,12.08,0,0,0,11.694-9.488,11.8,11.8,0,0,0-6.92-13.481,1.843,1.843,0,0,1-1.266-2.08c.033-4.28.03-8.632.024-12.839q0-2.229,0-4.463v-2.839h2.11q3.345,0,6.694,0c5.847,0,11.9.006,17.845-.009,3.119-.006,4.4-1.3,4.421-4.457.009-1.088.006-2.2.006-3.279,0-.464,0-.934,0-1.4h21.061c.012.145.024.268.033.386.021.22.036.4.036.573v9.147c0,9.846,0,20.03.033,30.045,0,1.121-.518,1.432-1.38,1.814a11.93,11.93,0,0,0-5.793,5.473,12.046,12.046,0,0,0,10.6,17.483h.13a11.938,11.938,0,0,0,7.456-2.667,12.087,12.087,0,0,0,4.246-6.875,11.9,11.9,0,0,0-6.811-13.387,1.952,1.952,0,0,1-1.38-2.179c.033-13.24.03-26.7.024-39.722l0-2.646c0-3.348-1.26-4.593-4.635-4.6q-8.137-.009-16.284,0h-7.239V94.065c.09-.009.172-.021.25-.033a3.1,3.1,0,0,1,.473-.051h5.515c4.674.012,9.5.006,14.255-.039h.03c.995,0,1.236.539,1.534,1.221l.072.151a11.993,11.993,0,0,0,8.14,6.769,11.591,11.591,0,0,0,10.036-2.107,12.017,12.017,0,0,0-6.658-21.561Zm4.328,12.034a4.935,4.935,0,0,1-4.9,4.864h-.036a4.95,4.95,0,0,1-4.87-4.937,4.972,4.972,0,0,1,4.906-4.864h.033A4.91,4.91,0,0,1,156.021,90.449ZM86.731,154.722a4.895,4.895,0,0,1-3.354,8.39h-.06a4.935,4.935,0,0,1-4.9-4.84,4.975,4.975,0,0,1,4.843-4.961h.06A4.852,4.852,0,0,1,86.731,154.722Zm.036-135.571A4.849,4.849,0,0,1,88.219,22.6a4.974,4.974,0,0,1-4.891,4.913h-.009a4.9,4.9,0,0,1-.009-9.8h.009A4.86,4.86,0,0,1,86.767,19.151Zm23.975,43.83v54.806H55.929V62.981ZM28.9,12.083A4.969,4.969,0,0,1,24,16.927h-.057A4.973,4.973,0,0,1,19.1,11.966,4.94,4.94,0,0,1,24,7.126h.06A4.94,4.94,0,0,1,28.9,12.083Zm-16.865,74.9a4.86,4.86,0,0,1,3.442-1.471h.033a4.97,4.97,0,0,1,4.91,4.861,4.95,4.95,0,0,1-4.867,4.94h-.039a4.889,4.889,0,0,1-3.478-8.33Zm125.7,81.831a4.945,4.945,0,0,1,4.885-4.916h.015a4.9,4.9,0,0,1,.012,9.8h-.012A4.965,4.965,0,0,1,137.74,168.814Zm13.246-90.363.087,0c-.054,0-.105,0-.16,0ZM15.659,102.375l-.118,0c.072,0,.145,0,.217,0C15.725,102.368,15.692,102.375,15.659,102.375Z" transform="translate(7.102 0)" fill="#e63e2c"/>
      <path id="Path_17479" data-name="Path 17479" d="M72.477,9.851a11.876,11.876,0,0,0-8.412-3.523l-.072,0a11.961,11.961,0,0,0-8.5,3.641,11.836,11.836,0,0,0-3.472,8.475A12.136,12.136,0,0,0,64.005,30.372l.051,0A11.975,11.975,0,0,0,72.477,9.851Zm-8.415,13.4h-.018a4.9,4.9,0,0,1-.018-9.8h.018a4.9,4.9,0,0,1,.018,9.8Z" transform="translate(104.763 12.741)" fill="#e63e2c"/>
      <path id="Path_17480" data-name="Path 17480" d="M51.447,16.214l.048,0a3.424,3.424,0,0,0,2.393-1,3.528,3.528,0,0,0-2.366-6.076l-.039,0a3.429,3.429,0,0,0-2.408.992,3.545,3.545,0,0,0,2.372,6.082Z" transform="translate(96.673 18.406)" fill="#e63e2c"/>
      <path id="Path_17481" data-name="Path 17481" d="M13.187,48.512h-.015a3.431,3.431,0,0,0-2.417,1.016,3.6,3.6,0,0,0-1.064,2.511,3.558,3.558,0,0,0,3.472,3.547h.009a3.537,3.537,0,0,0,.015-7.073Z" transform="translate(19.516 97.693)" fill="#e63e2c"/>
      <path id="Path_17482" data-name="Path 17482" d="M29.052,57.147c2.715.009,5.47.012,8.131.006h7.39c1.215,0,2.447,0,3.686,0,1.48,0,2.969,0,4.445-.009,3.149-.015,4.436-1.3,4.442-4.439.012-7.848.012-15.807,0-23.659-.006-3.146-1.293-4.433-4.442-4.439-7.848-.015-15.8-.015-23.655,0-3.146.006-4.433,1.293-4.439,4.442-.012,7.848-.012,15.807,0,23.655C24.616,55.845,25.9,57.132,29.052,57.147Zm2.806-7.263V31.8H49.932v18.08Z" transform="translate(49.542 49.534)" fill="#e63e2c"/>
    </g>
  </g>
</svg>
