<svg xmlns="http://www.w3.org/2000/svg" width="60" height="59.997" viewBox="0 0 60 59.997">
  <g id="Tech_Stack_Icon_White_" data-name="Tech Stack Icon (White)" transform="translate(0 -0.001)">
    <path id="Path_17477" data-name="Path 17477" d="M5.339,45.943a3.893,3.893,0,0,0-3.1.165c-.063.032-.111.077-.171.111a3.916,3.916,0,0,0-.428.275,3.587,3.587,0,0,0-.3.245,3.768,3.768,0,0,0-.361.377c-.079.094-.156.191-.227.294a4.323,4.323,0,0,0-.3.5c-.06.117-.118.239-.171.366a6.148,6.148,0,0,0-.212.6c-.023.075-.055.137-.076.215v1.178l.237.719a3.848,3.848,0,0,0,2.02,2.273,4.014,4.014,0,0,0,1.306.344c.105.011.207.031.312.034.043,0,.084.014.127.014A4.1,4.1,0,0,0,5.434,53.4a3.941,3.941,0,0,0,2.217-2.156,3.988,3.988,0,0,0,0-3.128A4.035,4.035,0,0,0,5.339,45.943Zm.28,3.767a1.639,1.639,0,0,1-1.625,1.6H3.966a1.639,1.639,0,0,1-1.6-1.653,1.649,1.649,0,0,1,1.628-1.6h.027a1.639,1.639,0,0,1,1.6,1.653Z" fill="#fff"/>
    <path id="Path_17478" data-name="Path 17478" d="M52.689,26.019c-.081,0-.161-.008-.241-.008a3.779,3.779,0,0,0-2.027.594,4.389,4.389,0,0,0-1.6,1.855.672.672,0,0,1-.476.343c-1.951.018-3.928.012-5.843.008l-.835,0a.255.255,0,0,1-.1-.037c-.021-.01-.042-.022-.068-.033V25.8c0-1.893,0-3.85,0-5.774,0-1.083-.418-1.508-1.491-1.515-.2,0-.4,0-.6,0-.295,0-.6,0-.915,0V11.5h1.432c1.539,0,3.123,0,4.673-.005a2.652,2.652,0,0,0,.809-.1,1.064,1.064,0,0,0,.768-1.077,1.063,1.063,0,0,0-.764-1.08,2.592,2.592,0,0,0-.809-.1c-2.181-.006-4.4,0-6.548,0H37.68c-1.207,0-1.594.386-1.6,1.586q0,2.38,0,4.764,0,1.191,0,2.382v.594h-4.9q0-.878,0-1.748c0-1.65,0-3.356-.012-5.024,0-.35.178-.43.428-.542l.018-.008A3.985,3.985,0,0,0,30,3.514h-.013a4.009,4.009,0,0,0-3.88,3.149,3.913,3.913,0,0,0,2.3,4.473.609.609,0,0,1,.419.69c-.011,1.434-.009,2.893-.008,4.3q0,.719,0,1.436v.942h-3.01c-1.89,0-3.847,0-5.774,0-1.108,0-1.521.418-1.525,1.539,0,.374,0,.747,0,1.117v.357H11.522c0-.035-.006-.067-.009-.1-.006-.074-.012-.137-.012-.2V17.677c0-3.1,0-6.3-.012-9.457,0-.371.172-.474.459-.6A3.951,3.951,0,0,0,13.869,5.8,3.995,3.995,0,0,0,10.353,0h-.045A4.01,4.01,0,0,0,6.437,3.109a3.925,3.925,0,0,0,2.2,4.477.726.726,0,0,1,.513.806c-.012,4.057-.01,8.183-.008,12.173v1.826c0,1.111.416,1.525,1.536,1.526,1.716,0,3.461,0,5.146,0h2.66v4.87c-.032,0-.061.008-.089.012a1.036,1.036,0,0,1-.15.016H16.452c-1.562,0-3.18,0-4.771.014h-.009c-.333,0-.412-.181-.513-.408l-.021-.047a3.976,3.976,0,0,0-2.7-2.245,3.853,3.853,0,0,0-3.331.7,3.988,3.988,0,0,0,2.209,7.154c.079.005.158.008.237.008.12,0,.237-.016.355-.027l.017,0a3.653,3.653,0,0,0,.551-.1l.037-.009a3.728,3.728,0,0,0,.508-.177l.048-.019a3.967,3.967,0,0,0,.486-.258l.029-.017a4.366,4.366,0,0,0,1.6-1.842.672.672,0,0,1,.476-.343c.964-.009,1.935-.012,2.9-.012h.309c.961,0,1.918,0,2.858.006h.608a.263.263,0,0,1,.1.036.637.637,0,0,0,.069.033V34.2c0,1.892,0,3.849,0,5.773,0,1.083.419,1.508,1.49,1.515.2,0,.4,0,.6,0,.3,0,.6,0,.916,0V48.5H19.987c-1.5,0-3.051,0-4.57.005a2.681,2.681,0,0,0-.809.1,1.143,1.143,0,0,0-.005,2.159,2.652,2.652,0,0,0,.809.1c1.95.006,3.93,0,5.849.005h1.063c1.206,0,1.594-.385,1.6-1.585q0-2.68,0-5.36V41.538h4.9v1.318c0,1.894,0,3.684-.02,5.513,0,.156-.232.389-.422.477A3.995,3.995,0,0,0,30,56.485h.013a4.008,4.008,0,0,0,3.88-3.148,3.914,3.914,0,0,0-2.3-4.473.611.611,0,0,1-.42-.69c.011-1.42.01-2.864.008-4.26q0-.74,0-1.481v-.942H34.1c1.94,0,3.947,0,5.921,0,1.035,0,1.46-.43,1.467-1.479,0-.361,0-.731,0-1.088,0-.154,0-.31,0-.465h6.988c0,.048.008.089.011.128.007.073.012.132.012.19V41.81c0,3.267,0,6.646.011,9.969,0,.372-.172.475-.458.6A3.959,3.959,0,0,0,46.135,54.2,4,4,0,0,0,49.652,60h.043a3.961,3.961,0,0,0,2.474-.885,4.01,4.01,0,0,0,1.409-2.281,3.949,3.949,0,0,0-2.26-4.442.648.648,0,0,1-.458-.723c.011-4.393.01-8.86.008-13.18v-.878c0-1.111-.418-1.524-1.538-1.526q-2.7,0-5.4,0h-2.4v-4.87l.083-.011a1.028,1.028,0,0,1,.157-.017h1.83c1.551,0,3.153,0,4.73-.013h.01c.33,0,.41.179.509.405l.024.05a3.979,3.979,0,0,0,2.7,2.246,3.846,3.846,0,0,0,3.33-.7,3.987,3.987,0,0,0-2.209-7.154Zm1.436,3.993A1.637,1.637,0,0,1,52.5,31.626h-.012a1.643,1.643,0,0,1-1.616-1.638A1.65,1.65,0,0,1,52.5,28.374h.011A1.629,1.629,0,0,1,54.125,30.012ZM31.134,51.338a1.624,1.624,0,0,1-1.113,2.784H30a1.637,1.637,0,0,1-1.625-1.606,1.651,1.651,0,0,1,1.607-1.646H30A1.61,1.61,0,0,1,31.134,51.338Zm.012-44.983A1.609,1.609,0,0,1,31.628,7.5,1.651,1.651,0,0,1,30,9.13h0a1.627,1.627,0,0,1,0-3.253h0A1.613,1.613,0,0,1,31.146,6.355ZM39.1,20.9V39.083H20.914V20.9ZM11.946,4.01a1.649,1.649,0,0,1-1.627,1.607H10.3A1.65,1.65,0,0,1,8.693,3.971a1.639,1.639,0,0,1,1.626-1.606h.02A1.639,1.639,0,0,1,11.946,4.01ZM6.35,28.862a1.613,1.613,0,0,1,1.142-.488H7.5a1.649,1.649,0,0,1,1.629,1.613,1.643,1.643,0,0,1-1.615,1.639H7.5A1.622,1.622,0,0,1,6.35,28.862ZM48.059,56.014a1.641,1.641,0,0,1,1.621-1.631h.005a1.627,1.627,0,0,1,0,3.253h0A1.648,1.648,0,0,1,48.059,56.014Zm4.4-29.983H52.43Zm-44.9,7.938h.033Z" fill="#fff"/>
    <path id="Path_17479" data-name="Path 17479" d="M58.809,7.5a3.941,3.941,0,0,0-2.791-1.169h-.024a3.969,3.969,0,0,0-2.82,1.208,3.927,3.927,0,0,0-1.152,2.812A4.027,4.027,0,0,0,56,14.306h.017A3.973,3.973,0,0,0,58.809,7.5Zm-2.792,4.447h-.006a1.627,1.627,0,0,1-.006-3.253h.006a1.627,1.627,0,0,1,.006,3.253Z" fill="#fff"/>
    <path id="Path_17480" data-name="Path 17480" d="M49.147,11.488h.016a1.136,1.136,0,0,0,.794-.331,1.171,1.171,0,0,0-.785-2.016h-.013a1.138,1.138,0,0,0-.8.329,1.176,1.176,0,0,0,.787,2.018Z" fill="#fff"/>
    <path id="Path_17481" data-name="Path 17481" d="M10.851,48.512h-.005a1.139,1.139,0,0,0-.8.337,1.193,1.193,0,0,0-.353.833,1.181,1.181,0,0,0,1.152,1.177h0a1.174,1.174,0,0,0,.005-2.347Z" fill="#fff"/>
    <path id="Path_17482" data-name="Path 17482" d="M26.078,35.4c.9,0,1.815,0,2.7,0h3.675c.491,0,.985,0,1.475,0,1.045,0,1.472-.432,1.474-1.473,0-2.6,0-5.245,0-7.85,0-1.044-.429-1.471-1.474-1.473-2.6,0-5.244,0-7.849,0-1.044,0-1.471.429-1.473,1.474,0,2.6,0,5.245,0,7.849C24.606,34.966,25.033,35.393,26.078,35.4Zm.931-2.41v-6h6v6Z" fill="#fff"/>
  </g>
</svg>
