<svg id="Timeline_Icon_White_" data-name="Timeline Icon (White)" xmlns="http://www.w3.org/2000/svg" width="60" height="59.996" viewBox="0 0 60 59.996">
  <path id="Path_17487" data-name="Path 17487" d="M59.99,36.047a1.174,1.174,0,0,0-1.167-1.171h-.008a1.162,1.162,0,0,0-1.17,1.157c-.016.238-.012.474-.008.7,0,.048,0,.1,0,.143H45.6V26.961H57.639l.007.012c.384.956.967,1.055,1.391.968s.955-.405.956-1.413q0-8.458,0-16.919a5.278,5.278,0,0,0-5.637-5.616c-.821,0-1.642,0-2.481,0H50.729V3.765c0-.245,0-.472,0-.7A3.238,3.238,0,0,0,47.491-.122h-.017A3.246,3.246,0,0,0,44.258,3.1c0,.231,0,.463,0,.688v.151H42.494V3.722c0-.25.005-.483,0-.717A3.229,3.229,0,0,0,39.258-.122h-.011A3.233,3.233,0,0,0,36.025,3.03c-.007.248-.006.5,0,.74l0,.174H23.968v-.2c0-.233,0-.45,0-.667a3.244,3.244,0,0,0-3.235-3.2h-.006A3.243,3.243,0,0,0,17.5,3.09c0,.23,0,.461,0,.69v.166H15.756C15.542,1.243,14.6-.012,12.7-.118a3.213,3.213,0,0,0-2.2.69A3.719,3.719,0,0,0,9.257,3.993H5.617A5.278,5.278,0,0,0,0,9.627q0,22.29,0,44.581A5.3,5.3,0,0,0,5.65,59.873h48.7A5.3,5.3,0,0,0,59.993,54.2q0-6.635,0-13.269V36.384C60,36.272,60,36.159,59.99,36.047Zm-2.4-21.291v9.915H45.615V14.756ZM45.618,49.378V39.463H57.591v9.915ZM2.885,27.1c-.168.236-.329.476-.482.718V27.1ZM14.379,14.755v5.8a15.364,15.364,0,0,0-5.817,1.655,15.9,15.9,0,0,0-3.531,2.462H2.406V14.755Zm3.609,36.7H18ZM2.547,40.66a1.945,1.945,0,0,0-.091-.372l-.031-.1A13.816,13.816,0,0,1,26.7,27.883a13.578,13.578,0,0,1,2.524,10.6,13.207,13.207,0,0,1-9.609,10.84c-5.34,1.608-10.084.321-14.1-3.825A13.324,13.324,0,0,1,4.2,43.809c-.15-.216-.3-.43-.453-.642a1.131,1.131,0,0,0-.888-.505.78.78,0,0,0-.128.01.763.763,0,0,0-.607.526L1.416,41.67a1.044,1.044,0,0,0,.45-.012A.849.849,0,0,0,2.547,40.66Zm28.661-5.8V27.112H43.18v9.915H31.236A15.957,15.957,0,0,0,31.208,34.863ZM28.781,44.6v4.757H24A15.637,15.637,0,0,0,28.781,44.6Zm.208-.622Zm-.606-16.887h.4v.587Q28.589,27.378,28.383,27.088Zm.382-2.43H26.23a15.845,15.845,0,0,0-9.437-4.109V14.743H28.765ZM2.4,44.443a16.26,16.26,0,0,0,4.841,4.911H2.4ZM2.354,51.81H15.5l.147.006.074-.006h41.9c0,.309.008.617.014.924A23.188,23.188,0,0,1,57.6,55.07a2.876,2.876,0,0,1-2.813,2.567c-.141,0-.282,0-.427,0H5.8c-2.318,0-3.445-1.122-3.445-3.433Zm28.87-2.436V39.437H43.189v9.937ZM31.2,24.657V14.744H43.174v9.913Zm-.376,8.522ZM21.612,4.719c0,.212,0,.423,0,.634l0,.559c0,.455.007.911-.006,1.366a.886.886,0,0,1-.869.952H20.73a.872.872,0,0,1-.871-.936c-.018-1.27-.018-2.611,0-3.984a.874.874,0,0,1,.868-.948h.008A.874.874,0,0,1,21.6,3.3C21.619,3.771,21.616,4.253,21.612,4.719ZM47.495,2.362a.874.874,0,0,1,.872.936c.013.463.01.934.007,1.391,0,.2,0,.4,0,.6s0,.4,0,.608c0,.46.006.921-.006,1.382a.886.886,0,0,1-.868.952h-.009A.873.873,0,0,1,46.62,7.3c-.017-1.27-.017-2.611,0-3.984a.874.874,0,0,1,.867-.949ZM10.5,9.894a3.234,3.234,0,0,0,2.2.691c1.9-.107,2.851-1.362,3.057-4.063H17.5V6.7c0,.246,0,.494,0,.741a3.234,3.234,0,0,0,3.225,3.149h.009a3.232,3.232,0,0,0,3.231-3.131c.009-.233.007-.467.005-.717V6.525H36.021V6.65c0,.213,0,.431,0,.649a3.267,3.267,0,0,0,3.215,3.291h.02A3.235,3.235,0,0,0,42.5,7.274c0-.194,0-.389,0-.6V6.49h1.762v.19c0,.25,0,.5,0,.741a3.237,3.237,0,0,0,3.2,3.169h.026a3.236,3.236,0,0,0,3.237-3.177c.006-.233,0-.467,0-.712V6.507c.433,0,.861-.01,1.288-.018a30.359,30.359,0,0,1,3.146.046A2.8,2.8,0,0,1,57.63,9.356c.016.7.012,1.389.008,2.117,0,.278,0,.559,0,.842H2.386c0-.317-.009-.632-.017-.947a20.748,20.748,0,0,1,.04-2.418A2.84,2.84,0,0,1,4.93,6.495a3.309,3.309,0,0,1,.475-.02h3.85A3.729,3.729,0,0,0,10.5,9.894ZM38.378,4.683c0-.459-.007-.919.007-1.378a.876.876,0,1,1,1.747,0c.017,1.321.017,2.661,0,3.983a.869.869,0,0,1-.873.942h0a.88.88,0,0,1-.873-.946c-.014-.459-.01-.918-.007-1.378,0-.2,0-.407,0-.611S38.379,4.887,38.378,4.683Zm-26.762,0c0-.461-.006-.922.007-1.382a.876.876,0,1,1,1.747,0c.018,1.321.018,2.661,0,3.983a.868.868,0,0,1-.873.942h0a.881.881,0,0,1-.873-.946c-.013-.46-.01-.921-.007-1.382,0-.2,0-.4,0-.607S11.617,4.889,11.616,4.687Z" transform="translate(0.004 0.123)" fill="#fff"/>
  <path id="Path_17488" data-name="Path 17488" d="M57.79,32.015a1.025,1.025,0,1,0,2.049.019,7.652,7.652,0,0,0-.008-1.092,1.02,1.02,0,0,0-2.031-.019,3.594,3.594,0,0,0-.005.578h-.007C57.788,31.672,57.78,31.844,57.79,32.015Z" transform="translate(0.004 0.123)" fill="#fff"/>
  <path id="Path_17489" data-name="Path 17489" d="M49.61,22.287c.7.668,1.14.718,1.836.058,1.366-1.3,2.683-2.645,3.994-4a.983.983,0,0,0-.032-1.441,1.028,1.028,0,0,0-1.448.022c-.146.125-.275.27-.411.406l-3,2.991c-.454-.475-.849-.924-1.283-1.331a1.028,1.028,0,1,0-1.451,1.457C48.393,21.08,48.991,21.7,49.61,22.287Z" transform="translate(0.004 0.123)" fill="#fff"/>
  <path id="Path_17490" data-name="Path 17490" d="M39.592,41.6c-.132.108-.248.236-.369.357l-3.1,3.093c-.456-.488-.844-.945-1.277-1.354a1,1,0,0,0-1.444-.023.993.993,0,0,0-.033,1.441c.639.692,1.3,1.368,1.987,2.008.558.518.972.565,1.531.037C38.318,45.8,39.7,44.4,41.074,42.99a.957.957,0,0,0-.083-1.387A1.018,1.018,0,0,0,39.592,41.6Z" transform="translate(0.004 0.123)" fill="#fff"/>
  <path id="Path_17491" data-name="Path 17491" d="M14.872,35.96c0,.619.244.93.76.936,1.325.015,2.65.012,3.974,0a.685.685,0,0,0,.716-.658.71.71,0,0,0-.588-.827,2.02,2.02,0,0,0-.5-.036c-.915,0-1.83,0-2.828,0V34.7c0-1.7.005-3.4,0-5.1,0-.6-.3-.933-.781-.921-.461.011-.734.331-.744.907-.011.594,0,1.189,0,1.783C14.869,32.9,14.864,34.431,14.872,35.96Z" transform="translate(0.004 0.123)" fill="#fff"/>
  <path id="Path_17492" data-name="Path 17492" d="M14.893,25.175a7.109,7.109,0,0,0,.008.912.671.671,0,0,0,.738.622.658.658,0,0,0,.728-.631,13.239,13.239,0,0,0,0-1.725.661.661,0,0,0-.716-.645.686.686,0,0,0-.762.655,6.661,6.661,0,0,0-.006.812Z" transform="translate(0.004 0.123)" fill="#fff"/>
  <path id="Path_17493" data-name="Path 17493" d="M16.364,46.184a.679.679,0,0,0-.707-.606.662.662,0,0,0-.749.611,12.4,12.4,0,0,0-.005,1.777.667.667,0,0,0,.734.632.688.688,0,0,0,.734-.638,7.094,7.094,0,0,0,.007-.863h.035A8.376,8.376,0,0,0,16.364,46.184Z" transform="translate(0.004 0.123)" fill="#fff"/>
  <path id="Path_17494" data-name="Path 17494" d="M3.91,36.9c.254.016.51,0,.764,0,.272,0,.544.013.815,0A.7.7,0,0,0,6.2,36.18a.668.668,0,0,0-.6-.763,10.033,10.033,0,0,0-1.826,0,.658.658,0,0,0-.589.767A.7.7,0,0,0,3.91,36.9Z" transform="translate(0.004 0.123)" fill="#fff"/>
  <path id="Path_17495" data-name="Path 17495" d="M25.785,36.9c.254.014.509,0,.764,0,.271,0,.544.012.814,0a.7.7,0,0,0,.714-.663.668.668,0,0,0-.592-.814,9.511,9.511,0,0,0-1.825,0,.667.667,0,0,0-.6.766A.706.706,0,0,0,25.785,36.9Z" transform="translate(0.004 0.123)" fill="#fff"/>
</svg>
