<svg xmlns="http://www.w3.org/2000/svg" width="60.029" height="60.056" viewBox="0 0 60.029 60.056">
  <path id="Website_Icon_White_" data-name="Website Icon (White)" d="M57.529,18.051A28.821,28.821,0,0,0,41.245,2.093a29.5,29.5,0,0,0-20.575-.462A30.4,30.4,0,0,0,5.589,12.34,28.349,28.349,0,0,0,.117,27.433a3.6,3.6,0,0,1-.062.4c-.014.067-.027.135-.042.236v3.961l0,.025c.049.372.092.746.137,1.119.093.787.189,1.6.327,2.4a28.167,28.167,0,0,0,11.9,18.771,31.64,31.64,0,0,0,13.8,5.454c.5.073,1,.129,1.5.186l.715.081,3.752,0,.881-.1c.629-.072,1.257-.145,1.884-.232a27.108,27.108,0,0,0,19.621-12.27,32.441,32.441,0,0,0,5.458-16.163A28.434,28.434,0,0,0,57.529,18.051ZM15.632,44.89A29.386,29.386,0,0,0,22.16,56.531a27.587,27.587,0,0,1-12.026-7.238A26.513,26.513,0,0,1,15.632,44.89Zm.187-13.645H28.854a2.676,2.676,0,0,1,.019.3v2.23c0,1.487,0,2.975.008,4.461,0,.292-.026.326-.276.336a29.743,29.743,0,0,0-11.445,2.849c-.025.012-.05.021-.078.032A49.706,49.706,0,0,1,15.819,31.245Zm1.769,12.546a27.88,27.88,0,0,1,11.245-2.94V57.616a8.745,8.745,0,0,1-4.184-1.96,18.109,18.109,0,0,1-4.989-6.737c-.543-1.176-1-2.362-1.483-3.617Q17.886,44.549,17.588,43.791ZM15.824,28.847a49.085,49.085,0,0,1,1.259-10.212A30.337,30.337,0,0,0,28.852,21.55v7.3Zm1.838-12.509c1.6-4.982,3.41-8.914,6.971-11.892a8.5,8.5,0,0,1,4.2-1.976V19.23A27.349,27.349,0,0,1,17.662,16.338ZM10.13,10.814A27,27,0,0,1,22.181,3.553c-2.816,2.86-4.856,6.5-6.546,11.654A26.856,26.856,0,0,1,10.13,10.814Zm4.828,6.9a50.222,50.222,0,0,0-1.45,11.142H2.373a27.414,27.414,0,0,1,6.18-16.283q.327.3.645.593c.607.56,1.177,1.088,1.807,1.572.9.7,1.86,1.349,2.785,1.982q.465.317.927.636l.082.056C14.969,17.528,15,17.548,14.957,17.719Zm-.372,25.1a28.509,28.509,0,0,0-5.635,4.368,2.7,2.7,0,0,0-.3.378.305.305,0,0,0-.022.032A27.6,27.6,0,0,1,2.37,31.242H13.488l.133,2.365a45.255,45.255,0,0,0,1.28,8.477C15,42.468,14.936,42.611,14.585,42.817Zm43.1-13.945H46.58l-.034-.615c-.035-.641-.07-1.278-.11-1.915a45.711,45.711,0,0,0-1.27-8.356c-.1-.376-.042-.506.285-.7a28.505,28.505,0,0,0,5.8-4.525c.068-.067.138-.131.224-.208A27.487,27.487,0,0,1,57.685,28.872ZM57.68,31.23a27.458,27.458,0,0,1-6.2,16.306c-.1-.093-.189-.178-.277-.266a29.416,29.416,0,0,0-5.86-4.545c-.235-.141-.273-.223-.212-.468A49.217,49.217,0,0,0,46.547,31.4a1.15,1.15,0,0,1,.019-.17ZM49.925,49.276a27.7,27.7,0,0,1-12.193,7.347c3.187-3.444,4.386-5.32,6.711-11.738A27.218,27.218,0,0,1,49.925,49.276Zm-18.714,8.34V40.85a27.8,27.8,0,0,1,11.21,2.91c-.132.361-.26.724-.389,1.085-.317.894-.647,1.82-1.014,2.707a20.869,20.869,0,0,1-4.789,7.39,9.378,9.378,0,0,1-4.936,2.666C31.265,57.611,31.239,57.614,31.211,57.616Zm.012-38.38V2.473A7.734,7.734,0,0,1,34.1,3.524a12.805,12.805,0,0,1,3.6,3.235,27.97,27.97,0,0,1,4.682,9.588A27.841,27.841,0,0,1,31.223,19.236Zm11.616-.542c.033-.015.068-.029.105-.043a47.622,47.622,0,0,1,1.276,10.193H31.2a1.713,1.713,0,0,1-.021-.238V26.28c0-1.474,0-2.949-.007-4.422,0-.3.023-.328.273-.338A29.64,29.64,0,0,0,42.839,18.695Zm1.584-3.5c-1.7-5.152-3.737-8.787-6.531-11.644A27.157,27.157,0,0,1,49.93,10.8,27.549,27.549,0,0,1,44.424,15.2Zm-.191,16.036a49.855,49.855,0,0,1-1.256,10.214A30.254,30.254,0,0,0,31.21,38.538v-7.3Z" transform="translate(-0.013 -0.002)" fill="#fff"/>
</svg>
