<svg xmlns="http://www.w3.org/2000/svg" width="1078.31" height="802.103" viewBox="0 0 1078.31 802.103">
  <g id="Orbits_and_Rocket" data-name="Orbits and Rocket" transform="translate(-26.487 -98.822)">
    <g id="Group_3508" data-name="Group 3508" transform="translate(948.104 227.09)">
      <circle id="Ellipse_97" data-name="Ellipse 97" cx="78.347" cy="78.347" r="78.347" fill="#d3695c"/>
      <path id="Path_13168" data-name="Path 13168" d="M386.971,155.225a78.068,78.068,0,0,0-7.1,11.773c42.728-6.854,85.5-13.541,128.516-18.191a78.695,78.695,0,0,0-17.14-14.237c-4.613,1.428-9.225,2.827-13.845,4.137-23.021,6.531-46.6,10.935-70.289,14.325C400.422,153.99,393.7,154.8,386.971,155.225Z" transform="translate(-371.94 -123.021)" fill="#c74131"/>
      <path id="Path_13169" data-name="Path 13169" d="M385.039,217.942a309.69,309.69,0,0,0,66.717-25.091c11.621-5.989,22.9-12.733,35.061-17.527,14.132-5.573,28.947-8.348,44.046-9.99a77.851,77.851,0,0,0-5.318-16.6c-49.747,13.24-98.442,33.817-148.277,47.731A77.782,77.782,0,0,0,385.039,217.942Z" transform="translate(-375.706 -102.483)" fill="#c74131"/>
      <path id="Path_13170" data-name="Path 13170" d="M490.975,192.681a77.813,77.813,0,0,0,9.367-24.719,204.152,204.152,0,0,0-45.075,18.6c-20.758,11.479-38.309,26.394-56.877,40.654a78.166,78.166,0,0,0,23.34,4.069c9.639-9.257,19.531-18.137,31.088-24.763C464.708,199.709,477.63,195.662,490.975,192.681Z" transform="translate(-345.089 -74.616)" fill="#c74131"/>
    </g>
    <g id="Group_3509" data-name="Group 3509" transform="translate(26.487 419.99)">
      <circle id="Ellipse_98" data-name="Ellipse 98" cx="90.471" cy="90.471" r="90.471" transform="translate(0 72.526) rotate(-23.63)" fill="#7c848a"/>
      <path id="Path_13171" data-name="Path 13171" d="M108.819,227.01c-.105,1.854-9.95,2.8-21.988,2.109s-21.708-2.753-21.6-4.608,9.95-2.8,21.985-2.109S108.924,225.156,108.819,227.01Z" transform="translate(32.124 -177.925)" fill="#1d2b36"/>
      <path id="Path_13172" data-name="Path 13172" d="M65.68,259.98c0,9.269-5.382,16.782-12.02,16.782s-12.02-7.513-12.02-16.782S47.022,243.2,53.66,243.2,65.68,250.708,65.68,259.98Z" transform="translate(-2.072 -147.458)" fill="#1d2b36"/>
      <path id="Path_13173" data-name="Path 13173" d="M157.844,248.424c0,8.466-20.748,15.33-46.344,15.33s-46.344-6.864-46.344-15.33,20.751-15.332,46.344-15.332S157.844,239.956,157.844,248.424Z" transform="translate(32.017 -162.103)" fill="#1d2b36"/>
      <path id="Path_13174" data-name="Path 13174" d="M104.4,263.206c0,4.238-6.778,7.672-15.139,7.672s-15.136-3.434-15.136-7.672,6.778-7.67,15.136-7.67S104.4,258.97,104.4,263.206Z" transform="translate(45.021 -129.568)" fill="#1d2b36"/>
      <path id="Path_13175" data-name="Path 13175" d="M108.819,261.941c0,6.945-1.306,12.574-2.913,12.574s-2.913-5.629-2.913-12.574,1.3-12.571,2.913-12.571S108.819,255,108.819,261.941Z" transform="translate(86.867 -138.507)" fill="#1d2b36"/>
      <path id="Path_13176" data-name="Path 13176" d="M61.9,236.437c0,5.379-1.391,9.74-3.109,9.74s-3.109-4.36-3.109-9.74,1.391-9.74,3.109-9.74S61.9,231.057,61.9,236.437Z" transform="translate(18.286 -171.373)" fill="#1d2b36"/>
      <path id="Path_13177" data-name="Path 13177" d="M98.06,233.015c-5.36.438-9.82-.6-9.96-2.305s4.1-3.454,9.455-3.89,9.82.6,9.96,2.307S103.422,232.579,98.06,233.015Z" transform="translate(65.272 -171.34)" fill="#1d2b36"/>
      <path id="Path_13178" data-name="Path 13178" d="M104.858,275.39c0,2.751-10.146,4.98-22.661,4.98s-22.661-2.229-22.661-4.98,10.146-4.982,22.661-4.982S104.858,272.64,104.858,275.39Z" transform="translate(23.869 -108.01)" fill="#1d2b36"/>
      <ellipse id="Ellipse_99" data-name="Ellipse 99" cx="16.366" cy="1.969" rx="16.366" ry="1.969" transform="translate(134.285 184.017)" fill="#1d2b36"/>
    </g>
    <g id="Group_3510" data-name="Group 3510" transform="translate(713.324 669.793)" opacity="0.4">
      <circle id="Ellipse_100" data-name="Ellipse 100" cx="85.037" cy="85.037" r="85.037" transform="translate(55.984 148.837) rotate(-61.061)" fill="#c74131"/>
      <ellipse id="Ellipse_101" data-name="Ellipse 101" cx="9.262" cy="185.043" rx="9.262" ry="185.043" transform="translate(0 68.474) rotate(-71.666)" fill="#fff"/>
      <path id="Path_13179" data-name="Path 13179" d="M402.873,362.132c-.554,1.673-11.694-.512-24.878-4.88s-23.426-9.269-22.872-10.945,11.694.512,24.881,4.88S403.429,360.457,402.873,362.132Z" transform="translate(-178.514 -301.827)" fill="#fff"/>
      <path id="Path_13180" data-name="Path 13180" d="M389.943,374.813c-1.2,3.623-12.863,3.016-26.049-1.355s-22.9-10.847-21.7-14.467,12.86-3.016,26.047,1.355S391.14,371.192,389.943,374.813Z" transform="translate(-197.372 -286.055)" fill="#fff"/>
      <path id="Path_13181" data-name="Path 13181" d="M400.617,401.643c-.6,1.81-11.775-.265-24.961-4.635s-23.389-9.377-22.789-11.19,11.775.265,24.961,4.635S401.217,399.832,400.617,401.643Z" transform="translate(-181.79 -244.686)" fill="#fff"/>
      <path id="Path_13182" data-name="Path 13182" d="M378.715,409.382c-1.475,4.451-13.36,4.517-26.546.147s-22.678-11.518-21.2-15.969,13.36-4.517,26.546-.147S380.19,404.931,378.715,409.382Z" transform="translate(-213.721 -237.416)" fill="#fff"/>
    </g>
    <g id="Group_3538" data-name="Group 3538" transform="translate(440.644 98.822)">
      <g id="Group_3511" data-name="Group 3511" transform="translate(147.999 114.344)">
        <path id="Path_13183" data-name="Path 13183" d="M261.375,132.607s16.309-8.789,28.037,9.844c-.13.573-12.173-6.083-23.249.888C265.61,142.459,261.375,132.607,261.375,132.607Z" transform="translate(-261.375 -130.536)" fill="#272b30"/>
      </g>
      <g id="Group_3512" data-name="Group 3512" transform="translate(126.034 125.368)">
        <path id="Path_13184" data-name="Path 13184" d="M257.954,136.137s-14.983,10.9-3.257,29.537c.575.13-.217-13.607,10.858-20.576C265,144.218,257.954,136.137,257.954,136.137Z" transform="translate(-250.214 -136.137)" fill="#272b30"/>
      </g>
      <g id="Group_3513" data-name="Group 3513" transform="translate(34.296 183.098)">
        <path id="Path_13185" data-name="Path 13185" d="M211.341,165.47s-14.983,10.9-3.255,29.537c.573.13-.218-13.607,10.858-20.576C218.391,173.551,211.341,165.47,211.341,165.47Z" transform="translate(-203.602 -165.47)" fill="#272b30"/>
      </g>
      <g id="Group_3514" data-name="Group 3514" transform="translate(56.223 172.099)">
        <path id="Path_13186" data-name="Path 13186" d="M214.743,161.953s16.31-8.791,28.037,9.844c-.13.573-12.173-6.083-23.249.886C218.978,171.8,214.743,161.953,214.743,161.953Z" transform="translate(-214.743 -159.881)" fill="#272b30"/>
      </g>
      <g id="Group_3515" data-name="Group 3515" transform="translate(46.151 178.542)">
        <path id="Path_13187" data-name="Path 13187" d="M219.31,163.155l-5.088,2.531s.512.823,1.36,2.181l-.262-.2-1.214-1.909-4.481,3.493s1.616,12.259,21.787,23.942C229.607,169.953,219.31,163.155,219.31,163.155Zm11.816,29.6.124.2C231.211,192.889,231.17,192.824,231.126,192.751Z" transform="translate(-209.625 -163.155)" fill="#455a6f"/>
      </g>
      <g id="Group_3516" data-name="Group 3516" transform="translate(137.869 120.822)">
        <path id="Path_13188" data-name="Path 13188" d="M265.915,133.827l-5.089,2.531,1.362,2.183-.264-.2c-.758-1.195-1.212-1.909-1.212-1.909l-4.483,3.491s1.618,12.259,21.787,23.942C276.21,140.625,265.915,133.827,265.915,133.827Zm11.816,29.6.122.2C277.816,163.563,277.775,163.5,277.731,163.423Z" transform="translate(-256.228 -133.827)" fill="#455a6f"/>
      </g>
      <g id="Group_3517" data-name="Group 3517" transform="translate(111.08 95.645)">
        <path id="Path_13189" data-name="Path 13189" d="M242.616,156.7l17.472-35.661,4.245,6.746-18.079,34.7Z" transform="translate(-242.616 -121.034)" fill="#272b30"/>
      </g>
      <g id="Group_3518" data-name="Group 3518" transform="translate(117.152 90.184)">
        <rect id="Rectangle_180" data-name="Rectangle 180" width="17.416" height="42.418" transform="matrix(0.846, -0.533, 0.533, 0.846, 0, 9.276)" fill="#fbfbfb"/>
      </g>
      <g id="Group_3519" data-name="Group 3519" transform="translate(115.645 85.846)">
        <path id="Path_13190" data-name="Path 13190" d="M261.016,120.127a8.708,8.708,0,0,0-14.741,9.276Z" transform="translate(-244.935 -116.055)" fill="#c74131"/>
      </g>
      <g id="Group_3520" data-name="Group 3520" transform="translate(31.723 156.256)">
        <path id="Path_13191" data-name="Path 13191" d="M242,151.831l-39.71.324,4.245,6.746,39.1-1.287Z" transform="translate(-202.294 -151.831)" fill="#272b30"/>
      </g>
      <g id="Group_3521" data-name="Group 3521" transform="translate(25.354 147.952)">
        <rect id="Rectangle_181" data-name="Rectangle 181" width="17.416" height="42.418" transform="translate(0 9.276) rotate(-32.183)" fill="#fbfbfb"/>
      </g>
      <g id="Group_3522" data-name="Group 3522" transform="translate(23.847 143.613)">
        <path id="Path_13192" data-name="Path 13192" d="M199.632,158.754a8.707,8.707,0,1,1,14.739-9.276Z" transform="translate(-198.292 -145.407)" fill="#c74131"/>
      </g>
      <g id="Group_3523" data-name="Group 3523">
        <path id="Path_13193" data-name="Path 13193" d="M186.785,72.822c1.082,1.718,20.529,32.623,20.529,32.623" transform="translate(-185.585 -72.063)" fill="#455a6f"/>
        <path id="Path_13194" data-name="Path 13194" d="M209.105,105.066l-2.4,1.506-20.531-32.62,2.4-1.515Z" transform="translate(-186.176 -72.437)" fill="#455a6f"/>
      </g>
      <g id="Group_3524" data-name="Group 3524" transform="translate(92.84 155.62)">
        <path id="Path_13195" data-name="Path 13195" d="M252.72,151.508l-10.177,5.06,2.72,4.365-.524-.4-2.427-3.818-8.965,6.985s3.236,24.52,43.573,47.884C273.312,165.1,252.72,151.508,252.72,151.508Zm23.631,59.19.248.394C276.524,210.976,276.439,210.846,276.351,210.7Z" transform="translate(-233.348 -151.508)" fill="#455a6f"/>
      </g>
      <g id="Group_3525" data-name="Group 3525" transform="translate(81.952 141.971)">
        <path id="Path_13196" data-name="Path 13196" d="M227.816,164.71c.378.6,5.66,8.99,5.66,8.99l29.771-18.734s-7.048-10.551-6.54-10.392S227.816,164.71,227.816,164.71Z" transform="translate(-227.816 -144.573)" fill="#455a6f"/>
      </g>
      <g id="Group_3526" data-name="Group 3526" transform="translate(13.366 24.236)">
        <path id="Path_13197" data-name="Path 13197" d="M250.266,122.044a85.09,85.09,0,0,0-54.691-37.293,85.091,85.091,0,0,0,9.959,65.443Z" transform="translate(-192.967 -84.751)" fill="#c94939"/>
      </g>
      <g id="Group_3527" data-name="Group 3527" transform="translate(27.069 63.334)">
        <path id="Path_13198" data-name="Path 13198" d="M222.3,118.692l-22.366,14.075,48.914,77.728L271.21,196.42l22.366-14.075-48.914-77.728Z" transform="translate(-199.929 -104.617)" fill="#fbfbfb"/>
      </g>
      <g id="Group_3528" data-name="Group 3528" transform="translate(78.06 122.973)">
        <path id="Path_13199" data-name="Path 13199" d="M234.946,168.82a58.987,58.987,0,0,0,26.644,22.836,59.266,59.266,0,0,0-35.7-56.736A58.965,58.965,0,0,0,234.946,168.82Z" transform="translate(-225.838 -134.92)" fill="#272b30"/>
      </g>
      <g id="Group_3529" data-name="Group 3529" transform="translate(52.018 87.818)">
        <path id="Path_13200" data-name="Path 13200" d="M232.37,122.061a10.7,10.7,0,1,1-14.761-3.358A10.7,10.7,0,0,1,232.37,122.061Z" transform="translate(-212.606 -117.058)" fill="#45576c"/>
      </g>
      <g id="Group_3531" data-name="Group 3531" transform="translate(44.626 80.428)">
        <g id="Group_3530" data-name="Group 3530">
          <path id="Path_13201" data-name="Path 13201" d="M236.586,146.716a18.1,18.1,0,1,1,5.678-24.959A18.12,18.12,0,0,1,236.586,146.716Zm-17.016-27.04a13.85,13.85,0,1,0,19.1,4.344A13.865,13.865,0,0,0,219.57,119.676Z" transform="translate(-208.851 -113.302)" fill="#c74131"/>
        </g>
      </g>
      <g id="Group_3532" data-name="Group 3532" transform="translate(13.366 24.236)" opacity="0.4">
        <path id="Path_13202" data-name="Path 13202" d="M205.533,150.194,227.9,136.12,195.575,84.751A85.091,85.091,0,0,0,205.533,150.194Z" transform="translate(-192.967 -84.751)" fill="#272b30"/>
      </g>
      <g id="Group_3533" data-name="Group 3533" transform="translate(27.069 77.409)" opacity="0.4">
        <rect id="Rectangle_182" data-name="Rectangle 182" width="26.426" height="91.839" transform="translate(0 14.075) rotate(-32.182)" fill="#272b30"/>
      </g>
      <g id="Group_3534" data-name="Group 3534" transform="translate(25.354 152.59)" opacity="0.4">
        <rect id="Rectangle_183" data-name="Rectangle 183" width="8.708" height="42.418" transform="matrix(0.846, -0.533, 0.533, 0.846, 0, 4.638)" fill="#272b30"/>
      </g>
      <g id="Group_3535" data-name="Group 3535" transform="translate(23.847 144.953)" opacity="0.4">
        <path id="Path_13203" data-name="Path 13203" d="M202.364,146.088a8.707,8.707,0,0,0-2.732,12.007l7.37-4.637-4.639-7.37Z" transform="translate(-198.292 -146.088)" fill="#272b30"/>
      </g>
      <g id="Group_3536" data-name="Group 3536" transform="translate(124.522 90.184)" opacity="0.4">
        <rect id="Rectangle_184" data-name="Rectangle 184" width="8.708" height="42.418" transform="matrix(0.846, -0.533, 0.533, 0.846, 0, 4.638)" fill="#272b30"/>
      </g>
      <g id="Group_3537" data-name="Group 3537" transform="translate(119.716 85.846)" opacity="0.4">
        <path id="Path_13204" data-name="Path 13204" d="M247,117.395a8.709,8.709,0,0,1,12.009,2.732l-7.37,4.637L247,117.395Z" transform="translate(-247.004 -116.055)" fill="#272b30"/>
      </g>
    </g>
  </g>
</svg>
