<svg xmlns="http://www.w3.org/2000/svg" width="552.117" height="417.7" viewBox="0 0 552.117 417.7">
  <g id="Text" transform="translate(-155.779 352.62)">
    <g id="Group_3406" data-name="Group 3406" transform="translate(168.311 -352.62)">
      <path id="Path_13020" data-name="Path 13020" d="M297.412-289.3l-.171,2.734-.343,3.935-.34,2.563-1.026,5.129-.343,3.935-.34,2.563-.514,2.737-.683,2.563-1.712,3.592-1.2,2.392-4.614,7.695-1.54,2.223-1.712,2.223-1.709,1.88-2.734,2.909-1.883,1.709-2.22,1.709-2.052,1.54-3.077,2.052-2.226,1.369-2.563,1.369-2.394,1.023-3.42,1.369-2.563.683-5.472,1.712-2.906.854-2.737.686-2.906.683-2.906.511-2.909.171h-9.232l-5.815-.343-5.64-.683-2.394-.514-2.563-.683-9.235-3.077-2.734-.854-2.906-1.2-5.472-2.394-2.566-1.366-2.563-1.54-2.223-1.709-2.223-1.88-2.051-2.226-1.88-2.22-4.617-4.617-1.709-2.051-1.712-2.223-1.366-2.223-1.369-3.42-2.566-7.692-1.026-3.592-.511-2.563-.514-2.737-.514-2.566-.511-3.76-.171-2.566-.171-2.906V-289.3l.171-2.909.171-3.074.343-2.909.511-2.906.686-2.906.854-2.909.854-2.563,1.026-2.734,1.2-3.935,1.2-2.734.683-1.54,1.369-2.563,2.391-3.763,1.712-2.395.854-1.366,2.051-2.054,2.906-2.392,2.223-1.709,2.223-1.54,5.129-3.42,2.223-1.366,2.394-1.369,2.394-1.2,3.589-1.54,2.394-.854,2.566-.854,2.563-.686,6.5-1.194,2.566-.514,8.549-1.026,5.472-.34,5.129.34,4.1.171,2.906.343,2.909.511,2.906.686,2.906.511,2.734.683,2.566.686,2.566.854,3.589,1.366,2.394,1.029,5.643,3.249,2.223,1.537,2.22,1.709,2.909,2.737,1.88,1.709,1.88,1.88,1.54,2.054,2.391,3.249,1.369,2.22,1.2,2.223,1.369,2.223,1.88,3.42,1.369,2.223,1.194,2.563.857,2.394.854,3.932,1.026,5.132.343,2.906.511,2.906Zm-35.9,2.906V-289.3l-.171-2.909-.171-2.734-1.026-5.129-.683-2.394-1.883-3.76-1.366-2.223-2.394-3.077-1.709-1.88-2.566-2.737-1.88-1.537-4.446-2.566-2.394-1.026-2.734-.854-2.737-.514-5.472-.34-2.563.168-3.763.172-2.563.514-4.446,1.2-2.734,1.023-3.935,2.055-2.392,1.537-2.737,2.394-1.88,2.052-1.88,2.566-1.369,2.223-.514,1.023-1.537,3.592-.854,2.566-.514,1.2-.511,2.391-.343,2.394-.171,2.395L195-288.959v2.563l.171,2.734.514,2.737.168,1.54.686,2.563.343,1.2.854,2.394.683,1.369,1.369,2.392.854,1.369,1.88,2.394,1.026,1.194,2.055,2.054,3.417,2.906,2.394,1.537,2.734,1.369,2.566,1.026,3.589,1.2,2.566.511,4.275.514,2.909.171,4.272-.343,2.737-.343,3.76-.854,2.394-1.026,3.76-2.391,2.055-1.54,2.734-2.734,1.709-1.883,2.223-2.734,1.54-2.394,1.709-3.76,1.026-2.566.854-3.932.343-2.566Z" transform="translate(-159.945 352.736)" fill="#fff"/>
      <path id="Path_13021" data-name="Path 13021" d="M347.027-289.3l-.172,2.734-.34,3.935-.343,2.563-1.026,5.129-.343,3.935-.343,2.563-.511,2.737-.683,2.563-1.712,3.592-1.2,2.392-4.614,7.695-1.537,2.223-1.712,2.223-1.709,1.88-2.734,2.909-1.88,1.709-2.226,1.709-2.052,1.54-3.077,2.052-2.223,1.369-2.563,1.369-2.394,1.023-3.42,1.369-2.566.683-5.469,1.712-2.909.854-2.734.686-2.906.683-2.909.511-2.906.171h-9.232l-5.812-.343-5.643-.683-2.394-.514-2.566-.683-9.232-3.077-2.734-.854-2.909-1.2-5.469-2.394-2.566-1.366-2.566-1.54-2.223-1.709-2.223-1.88-2.052-2.226-1.88-2.22L221.7-248.1l-1.712-2.051-1.709-2.223-1.369-2.223-1.369-3.42-2.563-7.692-1.026-3.592-.514-2.563-.511-2.737-.514-2.566-.511-3.76-.171-2.566-.172-2.906V-289.3l.172-2.909.171-3.074.343-2.909.511-2.906.683-2.906.857-2.909.854-2.563,1.026-2.734,1.2-3.935,1.2-2.734.683-1.54,1.369-2.563,2.391-3.763,1.709-2.395.857-1.366,2.052-2.054,2.906-2.392,2.223-1.709,2.223-1.54,5.129-3.42,2.223-1.366,2.394-1.369,2.394-1.2,3.589-1.54,2.394-.854,2.566-.854,2.563-.686,6.5-1.194,2.563-.514,8.552-1.026,5.469-.34,5.132.34,4.1.171,2.906.343,2.906.511,2.906.686,2.909.511,2.734.683,2.566.686,2.563.854,3.592,1.366,2.394,1.029,5.643,3.249,2.22,1.537,2.223,1.709,2.909,2.737,1.88,1.709,1.88,1.88,1.54,2.054,2.391,3.249,1.366,2.22,1.2,2.223,1.366,2.223,1.883,3.42,1.366,2.223,1.2,2.563.854,2.394.854,3.932,1.026,5.132.343,2.906.511,2.906Zm-35.9,2.906V-289.3l-.174-2.909-.171-2.734-1.023-5.129-.686-2.394-1.88-3.76-1.369-2.223-2.391-3.077-1.709-1.88-2.569-2.737-1.88-1.537-4.443-2.566-2.394-1.026-2.734-.854-2.737-.514-5.472-.34-2.563.168-3.763.172-2.563.514-4.446,1.2-2.737,1.023-3.932,2.055-2.394,1.537-2.734,2.394-1.88,2.052-1.88,2.566-1.369,2.223-.514,1.023-1.54,3.592-.854,2.566-.511,1.2-.514,2.391-.34,2.394-.171,2.395-.171,2.566v2.563l.171,2.734.511,2.737.171,1.54.686,2.563.34,1.2.857,2.394.683,1.369,1.369,2.392.854,1.369,1.88,2.394,1.026,1.194,2.052,2.054,3.42,2.906,2.391,1.537,2.737,1.369,2.566,1.026,3.589,1.2,2.566.511,4.275.514,2.906.171,4.275-.343,2.734-.343,3.763-.854,2.394-1.026,3.76-2.391,2.052-1.54,2.734-2.734,1.712-1.883,2.223-2.734,1.54-2.394,1.709-3.76,1.026-2.566.854-3.932.34-2.566Z" transform="translate(-60.309 352.736)" fill="#fff"/>
      <path id="Path_13022" data-name="Path 13022" d="M370.993-307.657l.171,2.566-.171,2.563-.168,2.909-.857,4.275-.511,2.734-1.372,3.42-1.023,2.395-1.712,3.246-1.537,2.226-2.391,3.246-1.883,2.052-2.223,2.052-2.223,1.883-2.223,1.537-2.392,1.54-3.763,1.709-2.566,1.2-2.9,1.2-2.566.854-3.763,1.026-2.563.514-2.566.34-2.734.174-4.449.34H308.244l-2.906-.172-2.909.172-2.906.343-2.049.34-.514,1.2-.171,2.223-.683,11.455v2.737l.168,5.129-.168,2.563-.171,3.763-.343,1.88-.511,1.026-.854.343-1.88.343-5.475.34-6.666-.34h-2.737l-5.472.34-2.734-.171-3.935-.168-2.22-.686-1.026-1.026-.343-2.052-.34-2.563-.171-2.737v-18.292l.683-9.063v-2.734l-.683-9.063v-2.734l-.343-20.861v-2.734l.683-9.232v-2.737l-.514-9.06v-2.737l.686-9.063v-2.563l-.34-5.129.168-2.566.171-1.366.343-1.883.511-1.026.854-.854,1.88-.171,4.96-.34,3.932.168h2.566l11.458-.168h11.452l11.458.683h11.283l6.5-.343,2.394.171h1.366l2.563.514,3.935,1.026,2.734.854,2.737,1.026,2.566,1.2,2.563,1.54,2.223,1.709,3.077,2.734,2.052,1.712.857,1.026,3.074,3.077,1.712,2.223.854,1.026,1.2,2.049.683,1.029,1.029,2.223.854,2.563.68,2.394.174,1.2.683,2.394.343,1.366.683,2.394,1.026,4.789Zm-35.39,3.077v-4.275l-.514-2.563-.511-1.369-1.029-2.223-.683-1.026-1.883-2.052-1.366-.854-2.563-1.369-4.449-1.2-2.734-.343h-3.929l-5.135.343-7.523-.511H300.72l-1.366.168-1.88.343-.686.514-.514,1.2-.34,2.051v3.932l.511,6.326.174,2.737.168,9.915.171,2.052.514,1.2,1.88.686,8.889.683,11.626-.683,3.08-.343,2.9-.686,1.369-.511,2.394-1.369,1.026-.683,1.712-1.712.683-1.023,1.2-2.223.511-1.2.686-2.737Z" transform="translate(42.751 354.676)" fill="#fff"/>
      <path id="Path_13023" data-name="Path 13023" d="M409.806-264.4l-.168,2.909-.346,2.906-.508,2.734-.857,3.763-.854,2.394-1.54,3.417-1.194,2.223-2.055,3.08-1.709,2.051-2.051,2.049-2.052,1.883-3.42,2.223-2.223,1.537-2.566,1.369-2.392,1.2-3.931,1.366-5.129,1.712-2.737.511-4.274.686-2.566.343-3.76.34-2.394.171-3.932.171-8.206.511h-3.763l-2.394-.171-3.932-.34-2.563-.343-2.909-.514-2.563-.854-3.76-1.194-2.394-1.2-2.566-1.2-2.394-1.2-2.223-1.369-5.469-3.76-2.055-1.712-3.074-2.391-2.055-1.712-1.88-1.88-1.369-1.537-.171-1.2.854-1.54.686-.854,1.709-1.88,4.789-4.446,1.54-1.88,2.906-4.446,1.537-1.88,1.712-1.883,1.88-1.026,1.88.343,1.883,1.369,5.469,3.76,2.566,1.369,2.394,1.2,3.932,1.88,2.566.854,2.734.857,2.734.511,3.935.171,2.734.171,10.772-.686,2.734-.343,1.369-.34,2.566-1.026,2.223-1.369,1.709-1.709.854-1.2L375.1-262l-.168-2.906-.346-1.369-1.366-2.391-.854-1.029-2.223-1.709-1.369-.514-2.566-1.023-2.906-.686-2.906-.511-16.244-1.54-5.129-1.026-2.734-.683-3.763-1.369-2.566-.854-2.563-1.2-5.815-2.906-2.22-1.54-2.566-1.537-2.223-1.54-2.909-2.395-1.534-2.223-1.54-2.563-1.026-2.566-1.2-3.592-.511-2.563-.514-3.763-.34-5.472.168-2.734.343-4.1.511-2.563.686-2.223.854-2.566,1.709-3.76,1.2-2.394,1.369-2.052,1.709-1.88,2.737-2.566,2.223-1.709,2.22-1.54,2.394-1.2,3.249-1.88,5.129-2.052,2.566-.854,3.932-.686,2.734-.511,5.132-.686,3.763-.683,2.734-.34,2.563-.174h2.734l5.132.514,2.563.343,1.2.34,2.737.343,5.812,1.026,2.906.683,2.734.857,2.909.854,2.734,1.026,2.566,1.2,2.563,1.026,3.249,1.88,2.394,1.2,2.226,1.54,1.534,1.537v1.712l-1.023,1.88-1.88,3.417L396.64-329.2l-6.495,8.549-1.883,2.394-2.049,1.712-1.369.511-1.2-.171-1.709-.854-2.566-1.54-2.563-1.023-1.2-.514-2.563-.854-1.366-.343-2.909-.683-3.932-.854-2.737-.171-4.446-.343h-4.443l-2.909.171-2.906.511-2.734.857-1.029.511-2.048,1.537-.857,1.029-1.194,2.391-.343,2.737.514,2.223,1.366,2.223,1.883,1.709,2.048,1.026,1.2.511,2.566.514,4.274.514,5.812.343,2.909.511,5.812,1.369,5.472,1.709,3.932.854,2.566.686,4.789,1.709,3.417,1.537,2.394,1.2,2.394,1.369,2.22,1.369,4.96,4.1,1.88,2.052,1.709,2.052,2.054,3.077,1.366,2.223,1.2,2.566.686,2.563.68,3.763.346,2.563Z" transform="translate(124.124 352.62)" fill="#fff"/>
    </g>
    <g id="Group_3408" data-name="Group 3408" transform="translate(179.128 -203.959)">
      <g id="Group_3407" data-name="Group 3407">
        <path id="Path_13024" data-name="Path 13024" d="M181.322-288.721l-.03.478-.054.475-.084.448-.141.62-.138.391-.253.56-.2.364-.334.505-.283.337-.337.337-.334.31-.563.364-.364.253-.421.223-.394.2-.644.223-.842.28-.448.087-.7.111-.424.054-.617.057-.391.027-.644.03-1.348.084h-.617l-.394-.03-.644-.054-.421-.057-.475-.084-.421-.138-.62-.2-.391-.2-.421-.2-.391-.2-.367-.223-.9-.617-.337-.283-.505-.391-.334-.28-.31-.31-.226-.253-.027-.2.141-.253.111-.141.28-.307.785-.728.253-.31.478-.731.253-.307.28-.31.307-.165.31.054.31.226.9.617.421.223.391.2.647.307.418.141.451.141.448.081.644.03.451.027,1.766-.111.448-.057.226-.054.418-.168.364-.226.283-.28.138-.2.168-.424-.027-.475-.057-.223-.223-.394-.141-.168-.364-.28-.226-.084-.418-.168-.478-.111-.478-.084-2.662-.253-.842-.168-.448-.111-.617-.226-.421-.138-.421-.2-.954-.478-.364-.25-.421-.253-.364-.253-.475-.391-.253-.367-.253-.421-.171-.418-.193-.59-.087-.421-.084-.617-.054-.9.027-.448.057-.674.084-.418.111-.364.138-.424.283-.617.2-.391.226-.337.28-.307.448-.424.364-.28.367-.25.391-.2.532-.307.842-.337.421-.141.644-.111.451-.084.839-.111.617-.114.448-.054.421-.027h.448l.842.081.421.057.2.057.448.054.954.168.478.111.448.141.475.141.451.168.418.2.421.168.532.307.394.2.364.253.253.25v.283l-.168.307-.307.563-.226.334-1.065,1.4-.31.391-.334.28-.226.087-.2-.03-.28-.138-.421-.253-.421-.168-.2-.084-.421-.141-.223-.054-.478-.114-.644-.138-.448-.03-.731-.054h-.728l-.475.027-.478.084-.448.141-.168.084-.337.253-.138.165-.2.394-.054.448.081.364.226.364.31.283.334.168.2.081.421.084.7.087.957.054.475.084.954.226.9.28.647.138.421.114.782.28.562.253.394.2.391.226.364.226.815.671.307.337.283.337.334.505.226.364.2.421.114.421.111.617.054.418Z" transform="translate(-163.541 303.22)" fill="#fff"/>
        <path id="Path_13025" data-name="Path 13025" d="M192.341-292.806l-.027.448-.057.647-.054.418-.168.842-.057.647-.057.421-.081.448-.114.421-.28.59-.2.391-.758,1.26-.253.367-.28.364-.283.31-.448.475-.307.28-.364.28-.337.253-.505.337-.364.226-.421.226-.394.165-.56.226-.421.111-.9.28-.478.141-.448.111-.475.114-.478.084-.475.027h-1.516l-.954-.057-.926-.111-.391-.084-.421-.111-1.513-.505-.451-.141-.475-.2-.9-.391-.421-.226-.421-.253-.364-.28-.367-.31-.334-.364-.31-.364-.755-.758-.283-.337-.28-.364-.226-.364-.223-.559-.421-1.263-.168-.589-.084-.421-.084-.448-.084-.421-.084-.617-.027-.421-.03-.475v-.478l.03-.475.027-.505.057-.475.084-.478.111-.478.138-.475.141-.421.168-.448.2-.644.2-.451.111-.253.226-.418.391-.617.28-.394.141-.226.337-.334.475-.394.367-.28.364-.253.842-.559.364-.226.391-.226.391-.2.59-.253.394-.141.421-.138.421-.114,1.065-.2.421-.084,1.4-.168.9-.054.842.054.674.03.475.054.478.084.475.114.478.081.448.114.421.111.421.141.587.223.394.168.924.532.367.253.364.28.475.451.31.28.307.31.253.334.394.535.223.364.2.364.226.364.307.562.226.364.2.421.141.391.138.644.168.842.057.478.084.475Zm-5.887.478v-.478l-.03-.475-.027-.451-.168-.839-.111-.394-.31-.617-.223-.364-.394-.505-.283-.307-.418-.448-.31-.253-.728-.421-.394-.168-.448-.141-.448-.084-.9-.054-.418.027-.617.027-.421.084-.731.2-.448.172-.644.334-.394.253-.448.394-.31.337-.307.418-.223.367-.087.165-.25.589-.141.421-.084.2-.084.394-.057.394-.027.391-.027.421v.421l.027.448.084.448.027.253.114.421.054.2.141.394.111.223.226.394.138.223.31.394.168.2.337.337.56.478.394.253.448.223.421.168.587.2.421.084.7.084.475.027.7-.054.448-.057.617-.141.394-.165.617-.394.337-.253.448-.448.28-.31.364-.448.253-.391.28-.617.171-.421.138-.644.057-.424Z" transform="translate(-150.988 303.238)" fill="#fff"/>
        <path id="Path_13026" data-name="Path 13026" d="M200.773-285.27l.027.448.114.869.027.421-.027.226-.027.307-.141.226-.168.138-.307.057-.421.03H199.4l-1.122-.087-.478-.027h-.7l-.505-.027-1.038-.141-.2-.057-.111-.138-.03-.28-.027-.394-.03-.421.057-.954v-2.635l-.084-1.769v-.445l.114-1.742v-2.187l-.057-.334-.168-.114h-.168l-.2.253-.28.391-1.179,1.348-1.712,2.048-1.122,1.4-.25.223-.2.084H189.7l-.31-.057-.337-.081-.307-.226-1.4-1.682-1.035-1.375-.283-.337-1.459-1.627-.364-.364-.168.054-.054.31-.084,1.766v.451l.111,1.766v.448l.057,1.769v.448l-.03,1.739v.421l.03.842-.03.445-.027.478-.057.364-.111.168-.2.057-.731.084-.448.027-1.092-.084-.448.027-1.348.114h-.647l-.334-.057-.168-.168-.057-.2-.057-.28v-.647l.057-.869v-4.317l-.057-1.486v-.451l.03-1.486-.03-.448-.081-1.513v-.451l.081-1.486.03-.448-.111-1.486.027-.448.111-1.486v-.448l-.111-1.041v-.448l.054-.364.114-.2.168-.141.223-.057.364-.027.478.057.617.141h.448l.869-.087.478-.054.421-.03,1.065.03h.364l.31.141.28.307.981,1.092.28.367.815,1.149.28.364.927,1.095.28.394.869,1.092.28.307.253.141h.28l.253-.141.253-.28.842-1.119.28-.394.9-1.095.283-.364.981-1.092.28-.364.728-.9.226-.307.226-.226.28-.141.364.027,1.486.087,1.318.027h.451l.839-.057.478.03.334.054.2.057.168.141.057.223-.03.337-.111,1.263-.03.448.057,1.486v.448l-.027,1.486v.448l.027,1.486v.451l.114,1.513v.448l-.114,1.486v.451l.084,1.486v.448l-.111,1.486v.448Z" transform="translate(-134.05 303.499)" fill="#fff"/>
        <path id="Path_13027" data-name="Path 13027" d="M203.43-285.336l-.027.448-.111,1.516-.03.28-.111.2-.141.114-3.673.111h-.448l-1.486-.111-.448.027-1.459.111-.448.027h-1.937l-1.456-.111h-.448l-2.416.141-.951-.057-.337-.057-.2-.138-.084-.2-.054-.31-.057-.644-.027-.451.027-.418v-.421l.111-1.489v-.445l.03-1.489-.03-.448-.081-1.486-.03-.448.057-1.516v-2.382l.111-1.486-.027-.451-.084-1.483-.027-.451v-.671l.054-.842v-.421l.084-1.459.027-.391.087-.226.138-.111.226-.03.364-.054,1.823.111,1.712-.027h.448l1.682.111h.448l1.685-.111h.448l3.814.054.475-.027.954-.084h.7l.391.084.168.141.057.2.054.364v.758l-.054.7v.478l.027.7.027.424-.027.418-.057.337-.111.2-.141.114-.334.057h-.226l-.451.027L199-298.1h-.448l-1.432.057h-.445l-1.459-.057-1.263-.084h-.421l-.223.027-.28.057-.141.141-.03.168-.054.307-.057.674v.448l.03.478.027.307.054.2.114.138.307.084.9.057.9-.057h2.665l3.141-.168.869.057.31.054.165.141.087.169.027.307.054.478.03.475v.927l.054.647-.054.842-.057.334-.111.2-.2.141-.283.057h-.56l-1.263-.141-.448-.027-2.244.138-1.793-.054h-.451l-1.119-.084-.478.027-.337.03-.141.081-.084.2-.027.424-.084.7-.027.451v.617l.027.28.084.2.111.114.31.027,1.543.057h.448l1.513-.114,1.991.114h.448l1.994-.114h.418l.421.03,1.011.111.168.084.111.169.027.307Z" transform="translate(-116.27 303.481)" fill="#fff"/>
        <path id="Path_13028" data-name="Path 13028" d="M210.777-300.768l-.027.421.027.839-.027.448-.03.226-.054.337-.084.2-.168.141-.337.057h-.448l-.842-.087-.448-.027-1.291.084H206.6l-.7-.057h-.421l-.2.03-.28.084-.114.168-.027.364-.111,1.654v.448l.111,1.682-.03.451-.111,1.682-.027.448.057,1.654v2.581l-.057,1.654.027.421.141,1.26.027.451-.084.337-.138.138-.367.057-.532-.03-.7-.084-.475-.027-1.263.084h-.448l-1.26-.084-.337-.027-.168-.084-.057-.31v-.475l.084-1.179.027-.448v-2.1l.027-1.682v-.451l.03-1.654v-.448l-.111-1.682-.03-.451v-2.13l-.054-1.654v-.394l-.087-.223-.28-.057h-.421l-.9.057h-.505l-.755-.057-.478-.027-.475.027-.647.027h-.421l-.223-.027-.31-.057-.168-.111-.111-.168-.057-.28v-.2l-.027-.448.057-.842v-.421l-.084-1.065.027-.448.084-.364.111-.2.168-.084.28-.057h.647l1.038.087h.448l1.627-.114h.448l1.655.141h.448l2.076-.141,1.627.027h.448l2.1-.027h2.076l.927-.057.475.03.226.027.337.057.2.111.141.2.054.334v.2l.03.424Z" transform="translate(-104.109 303.517)" fill="#fff"/>
        <path id="Path_13029" data-name="Path 13029" d="M218.642-285.315l.03.448.057.7.027.421-.027.391-.141.367-.2.2-.31.027-.448.057-1.516-.084h-.448l-1.486.111h-.448l-.391-.084-.171-.223-.054-.394-.111-1.823-.03-.448.057-1.823v-.448l-.057-1.8v-.394l-.111-.223-.31-.111h-.671l-1.122.081-.448.03-2.244-.057-1.516-.084-.364.03-.253.081-.141.253-.027.394.027,1.8v.448l-.054,1.823.027.448.114,1.206v.644l-.114.394-.253.223-.364.084-.421.03-.421-.03-1.176-.111-.448-.027-1.318.084-.451-.03h-.226l-.307-.054-.223-.114-.114-.138-.054-.31-.03-.253v-.445l.057-.842v-2.355l.054-1.489v-.448l.03-1.486v-.448l-.084-1.486v-.448L200-294.541v-1.937l.027-.448.084-1.486.027-.448-.027-1.486-.03-.448-.138-.957v-.59l.111-.334.253-.2.364-.087.421-.027h.421l1.179.057h.448l1.122-.084h.448l.421.027.364.057.223.223.114.364.027.2v.421l-.084,1.26-.027.448-.03,1.823v2.3l.03.337.084.223.138.114.283.027.391.027h.394l1.065-.169.421-.027,1.8.057,1.651.111h.421l.2-.027.307-.168.114-.226.027-.307.111-1.823v-.451l-.054-1.823v-.448l-.03-1.823.084-.448.226-.253.337-.057h.448l1.513.084h.448l1.263-.084.448.03h.253l.364.054.226.226.111.391v.424l-.084,1.122-.027.448.084,1.486v.448l-.057,1.486v.448l.111,1.486v.451l-.111,1.486v.448l-.057,1.486v.448l.03,1.486v.448l-.03,1.489Z" transform="translate(-90.452 303.517)" fill="#fff"/>
        <path id="Path_13030" data-name="Path 13030" d="M213.349-287.176v.448l-.114,1.513v.448l-.027,1.543v.31l-.084.168-.223.054-.394.03-1.429-.03h-1.739l-1.4-.111-.165-.054-.087-.087v-.28l-.054-.7v-.448l-.03-.421v-.421l-.081-1.513.027-.448.084-1.516.027-.448-.084-1.54v-.451l-.027-1.513v-2.412l-.027-1.543v-.448l.027-1.516v-2.41l-.057-1.543.084-.31.168-.111.283-.027h.223l.421-.03.674.03h.445l1.293-.057h1.739l.307.057.057.168.027.307.057.731.027.448v2.746l.027,1.516v.448l-.027,1.543v.448l.027,1.516v.448l-.054,1.513v2.44Z" transform="translate(-75.295 303.555)" fill="#fff"/>
        <path id="Path_13031" data-name="Path 13031" d="M229.756-298.545l-.027.448v4.151l.084,1.627v.448l.057,3.7v.475l-.03.226-.027.475-.084,1.345.027,1.63-.027.391-.111.337-.226.307-.28.2-.253.081-.394.03-1.429.054-.448.03-.7.027h-.451l-.364-.084-.337-.138-.334-.253-.253-.364-.421-.815-.253-.364-1.095-1.375-.28-.337-1.095-1.345-.253-.367-.981-1.459-.253-.334-1.092-1.348-.28-.334-1.041-1.378-.253-.223-.2.084-.084.337-.054,1.4v.448l.027,1.4v.448l.027,1.57v.451l-.084,1.57.03.448.168,1.122.027.448-.084.364-.2.2-.2.054-.337.057-.223.027-.475.027-1.291-.027h-.451l-1.149.057h-.448l-.421-.03-.31-.054-.223-.141-.111-.2-.057-.28-.027-.2v-.418l.054-.927.03-.448-.084-1.489v-.445l.054-3.423.03-.448.084-1.486.027-.448v-1.937l-.111-1.486v-.448l.111-1.486-.027-.448-.114-1.516-.027-.448v-.647l.027-.418.057-.421.057-.307.084-.2.165-.084.31-.057.842-.054.842.054h2.1l.337.03.141.111.165.253,1.179,1.263.28.334,1.038,1.348.28.337,1.038,1.375.283.334,1.008,1.4.253.334,1.065,1.348.28.337,1.011,1.4.226.2.223.03.2-.141v-.307l-.2-1.179-.027-.448.084-1.206v-.448l-.111-1.712v-.448l.111-1.712-.03-.448-.081-1.038v-.7l.081-.364.114-.226.2-.111.337-.057h.253l.475-.027,1.263.084h.448l.954-.057.421.027.647.03.307.054.2.087.168.2.057.391.027.253.027.478-.054.869-.057.448Z" transform="translate(-68.811 303.481)" fill="#fff"/>
        <path id="Path_13032" data-name="Path 13032" d="M238.036-293.917l.027.475-.111,1.823v2.638l-.057,1.176v1.657l-.027.307-.168.283-.223.364-.253.364-.478.475-.337.31-.168.168-.364.253-.2.111-.364.223-.563.283-.421.168-.391.138-.647.2-.421.111-.448.084-.418.084-.647.084-.391.054-.421.084-1.122.141-.421.027-.869-.054-.647-.057-.448-.057-.448-.084-.421-.111-.981-.28-.421-.114-.421-.138-.559-.2-.364-.2-.563-.31-.337-.253-.364-.253-.337-.28-.337-.253-.307-.28-.448-.448-.283-.337-.307-.421-.253-.394-.7-1.26-.2-.451-.2-.418-.138-.451-.141-.475-.084-.448-.084-.475-.054-.451-.114-.617-.057-.448-.027-.421v-.421l.084-1.263.057-.223.084-.475.111-.478.141-.448.138-.478.141-.448.141-.418.2-.451.2-.475.2-.394.364-.505.253-.337.31-.364.31-.334.334-.31.731-.617.364-.28.337-.253.337-.226.923-.532.421-.253.478-.2.475-.141.448-.111,1.041-.168.812-.111.421-.084.418-.057.647-.054.448-.03.617.057.421.027.647.084.391.084.617.111.421.111.617.2.421.138,1.008.505.424.253.364.253.138.084.31.2.307.223.141.141.31.223.165.141.168.2v.2l-.081.2-.171.25-.253.367-.28.307-.785.785-.505.448-.334.283-.31.223-.226.168-.165.114-.226.027-.31-.2-.364-.253-.364-.223-.394-.226-.448-.2-.448-.168-.478-.111-.475-.084-1.318-.084h-.2l-.451.027-.728.057-.448.111-.842.394-.364.253-.364.28-.31.31-.28.364-.253.364-.223.391-.168.421-.141.448-.111.421-.168.842-.084.448-.03.478v.475l.057.674.084.448.141.644.138.448.283.674.2.394.337.505.28.337.505.475.364.28.56.31.421.168.842.2.475.057.478.027h.448l.451-.054.418-.087,1.516-.364.445-.168.424-.2.28-.2.084-.168v-.31l.027-.253v-.418l-.057-.842v-.478l-.111-.165-.307-.057h-.674l-.448.027-.647.084-.448.027h-.644l-.448-.027-.957-.168-.165-.057-.114-.138-.054-.337-.03-.223-.027-.451.027-.7-.054-.842-.057-.418v-.59l.084-.31.141-.138.337-.057.7-.084.475-.027h1.291l1.823-.084,2.244.138h.448l1.149-.138.448-.03.226.03.421.084.2.111.057.168.084.394Z" transform="translate(-53.991 303.2)" fill="#fff"/>
        <path id="Path_13033" data-name="Path 13033" d="M260.336-302.462l-1.345,3.534-.168.421-.475,1.57-.171.421-.671,1.57-.141.421-.448,1.57-.168.448-.7,1.459-.168.448-.448,1.6-.141.418-.728,1.543-.141.421-.505,1.57-.138.448-.478,1.57-.111.283-.141.138-.2.027-1.88-.054-2.187-.141-.28-.057-.141-.223-.7-1.375-.141-.391-.5-1.459-.114-.394-.5-1.429-.141-.394-.563-1.429-.165-.394-.505-1.4-.141-.253H244.8l-.111.253-.505,1.429-.138.394-.674,1.345-.141.394-.448,1.486-.141.394-.475,1.429-.168.394-.532,1.4-.141.31-.307.138-1.739-.138h-.451l-1.736.138-.253-.138-.114-.337-.785-1.516-.141-.421-.391-1.6-.141-.421-.7-1.57-.165-.421-.59-1.513-.141-.451-.478-1.6-.138-.421-1.4-3.532-.168-.421-.505-1.57-.2-.451-.7-1.456-.2-.421-.644-1.6-.027-.334.169-.2.307-.084h.421l1.095.084h.448l1.934.027H235.1l.364.03.111.111.057.283.644,1.85.141.421.559,1.793.141.421.728,1.682.141.424.559,1.709.084.448.337,1.769.111.253.168.027.168-.225.478-1.429.138-.394.367-1.486.111-.421.418-1.372.114-.424.475-1.456.114-.394.448-1.459.141-.391.418-1.206.111-.31.141-.138.31-.057,1.4-.111.421-.027.617.027h.421l.421.027.28.111.168.283.084.223.168.394.307.785.141.391.421,1.459.111.394.448,1.456.111.394.34,1.486.138.394.674,1.375.111.391.084.644.084.451.111.421.168.223.168-.027.141-.31.334-1.627.114-.418.223-.59.141-.421.226-.617.138-.448.283-1.321.138-.448.478-1.26.168-.421.532-1.263.138-.418.283-1.068.111-.337.168-.2.337-.057,1.486.114h.448l1.513-.084h.451l1.486.111h.307l.111.084Z" transform="translate(-31.675 303.443)" fill="#fff"/>
        <path id="Path_13034" data-name="Path 13034" d="M256.641-285.336l-.027.448-.114,1.516-.027.28-.111.2-.141.114-3.676.111H252.1l-1.486-.111-.451.027-1.459.111-.448.027H246.32l-1.456-.111h-.451l-2.413.141-.954-.057-.334-.057-.2-.138-.084-.2-.057-.31-.054-.644-.027-.451.027-.418v-.421l.111-1.489v-.445l.027-1.489-.027-.448-.084-1.486-.027-.448.054-1.516v-2.382l.111-1.486-.027-.451-.084-1.483-.027-.451v-.671l.057-.842v-.421l.081-1.459.03-.391.084-.226.138-.111.226-.03.367-.054,1.82.111,1.715-.027h.445l1.685.111h.448l1.685-.111h.445l3.817.054.475-.027.954-.084h.7l.391.084.169.141.057.2.054.364v.758l-.054.7v.478l.027.7.027.424-.027.418-.054.337-.111.2-.141.114-.337.057h-.226l-.448.027-2.635-.057h-.451l-1.429.057h-.451l-1.456-.057-1.263-.084h-.418l-.226.027-.28.057-.138.141-.03.168-.057.307-.054.674v.448l.027.478.027.307.057.2.111.138.31.084.9.057.9-.057h2.665l3.141-.168.869.057.31.054.168.141.084.169.027.307.057.478.03.475v.927l.054.647-.054.842-.06.334-.111.2-.2.141-.28.057h-.563l-1.263-.141-.445-.027-2.244.138-1.8-.054h-.448l-1.122-.084-.478.027-.337.03-.138.081-.084.2-.03.424-.081.7-.03.451v.617l.03.28.081.2.114.114.31.027,1.54.057h.451l1.513-.114,1.991.114h.448l1.988-.114h.424l.421.03,1.011.111.165.084.111.169.03.307Z" transform="translate(-9.417 303.481)" fill="#fff"/>
        <path id="Path_13035" data-name="Path 13035" d="M265.866-298.545l-.027.448v4.151l.084,1.627v.448l.054,3.7v.475l-.027.226-.027.475-.084,1.345.027,1.63-.027.391-.114.337-.223.307-.283.2-.253.081-.388.03-1.432.054-.448.03-.7.027h-.445l-.367-.084-.337-.138-.337-.253-.253-.364-.421-.815-.253-.364-1.092-1.375-.283-.337-1.092-1.345-.253-.367-.981-1.459-.253-.334-1.092-1.348-.283-.334-1.038-1.378-.253-.223-.2.084-.084.337-.054,1.4v.448l.027,1.4v.448l.027,1.57v.451l-.084,1.57.03.448.168,1.122.024.448-.081.364-.2.2-.2.054-.334.057-.226.027-.478.027-1.287-.027h-.451l-1.149.057h-.448l-.421-.03-.307-.054-.226-.141-.111-.2-.057-.28-.03-.2v-.418l.06-.927.027-.448-.087-1.489v-.445l.06-3.423.027-.448.084-1.486.027-.448v-1.937l-.111-1.486v-.448l.111-1.486-.027-.448-.111-1.516-.03-.448v-.647l.03-.418.054-.421.057-.307.081-.2.171-.084.307-.057.842-.054.839.054h2.1l.34.03.138.111.168.253,1.179,1.263.277.334,1.041,1.348.28.337,1.038,1.375.28.334,1.011,1.4.253.334,1.065,1.348.283.337,1.008,1.4.226.2.223.03.2-.141v-.307l-.2-1.179-.027-.448.084-1.206v-.448l-.114-1.712v-.448l.114-1.712-.027-.448-.087-1.038v-.7l.087-.364.111-.226.2-.111.337-.057h.253l.478-.027,1.26.084h.448l.954-.057.421.027.644.03.31.054.2.087.168.2.054.391.03.253.03.478-.06.869-.054.448Z" transform="translate(3.696 303.481)" fill="#fff"/>
        <path id="Path_13036" data-name="Path 13036" d="M271.741-300.768l-.03.421.03.839-.03.448-.027.226-.054.337-.087.2-.165.141-.34.057h-.445l-.842-.087-.451-.027-1.287.084h-.451l-.7-.057h-.421l-.2.03-.283.084-.111.168-.027.364-.114,1.654v.448l.114,1.682-.03.451-.111,1.682-.03.448.057,1.654v2.581l-.057,1.654.03.421.141,1.26.027.451-.084.337-.138.138-.364.057-.535-.03-.7-.084-.478-.027-1.26.084h-.448l-1.263-.084-.334-.027-.172-.084-.057-.31v-.475l.087-1.179.027-.448v-2.1l.027-1.682v-.451l.03-1.654v-.448l-.114-1.682-.027-.451v-2.13l-.054-1.654v-.394l-.087-.223-.28-.057h-.418l-.9.057H257.8l-.758-.057-.475-.027-.475.027-.647.027h-.421l-.223-.027-.31-.057-.168-.111-.111-.168-.057-.28v-.2l-.027-.448.057-.842v-.421l-.084-1.065.027-.448.084-.364.111-.2.168-.084.28-.057h.647l1.038.087h.448l1.624-.114h.451l1.651.141h.451l2.076-.141,1.624.027h.451l2.1-.027h2.076l.926-.057.475.03.223.027.34.057.2.111.138.2.06.334v.2l.024.424Z" transform="translate(18.313 303.517)" fill="#fff"/>
        <path id="Path_13037" data-name="Path 13037" d="M295.4-302.462l-1.345,3.534-.168.421-.478,1.57-.168.421-.671,1.57-.141.421-.451,1.57-.165.448-.7,1.459-.165.448-.451,1.6-.138.418-.731,1.543-.138.421-.505,1.57-.141.448-.475,1.57-.111.283-.141.138-.2.027-1.88-.054-2.187-.141-.28-.057-.138-.223-.7-1.375-.141-.391-.505-1.459-.111-.394-.505-1.429-.138-.394-.559-1.429-.171-.394-.5-1.4-.141-.253h-.084l-.111.253-.505,1.429-.141.394-.671,1.345-.138.394-.451,1.486-.141.394-.475,1.429-.172.394-.529,1.4-.141.31-.31.138-1.739-.138h-.445l-1.739.138-.253-.138-.111-.337L271-284.6l-.138-.421-.394-1.6-.141-.421-.7-1.57-.171-.421-.587-1.513-.141-.451-.475-1.6-.141-.421-1.4-3.532-.172-.421-.5-1.57-.2-.451-.7-1.456-.2-.421-.644-1.6-.027-.334.165-.2.31-.084h.421l1.1.084h.448l1.934.027h1.516l.364.03.111.111.054.283.647,1.85.141.421.563,1.793.135.421.734,1.682.135.424.563,1.709.084.448.337,1.769.114.253.165.027.168-.225.475-1.429.141-.394.364-1.486.111-.421.424-1.372.111-.424.475-1.456.111-.394.451-1.459.141-.391.418-1.206.111-.31.141-.138.31-.057,1.4-.111.421-.027.617.027h.421l.421.027.277.111.171.283.081.223.171.394.31.785.138.391.421,1.459.111.394.451,1.456.111.394.334,1.486.141.394.674,1.375.111.391.084.644.084.451.111.421.168.223.168-.027.141-.31.337-1.627.111-.418.223-.59.141-.421.223-.617.141-.448.283-1.321.138-.448.478-1.26.168-.421.532-1.263.138-.418.28-1.068.114-.337.168-.2.334-.057,1.486.114h.451l1.516-.084h.445l1.486.111h.31l.114.084Z" transform="translate(38.736 303.443)" fill="#fff"/>
        <path id="Path_13038" data-name="Path 13038" d="M294.119-282.794l-.364.111h-1.967l-1.54-.027H289.8l-1.263.057h-.364l-.253-.111-.226-.226-.9-1.26-.253-.337-.9-1.206-.253-.337-.785-1.29-.253-.337-.9-1.206-.2-.226-.165-.081-.34-.03-.893-.054-.367.027-.226.168-.081.364-.057,1.543.027.448.111,1.57.03.448.027.674v.448l-.027.448-.057.337-.138.141-.31.084h-.448L279-282.737l-1.288.084h-.451l-1.288-.084-.34-.057-.165-.111-.057-.28-.03-.394-.027-.418.057-.731.03-.448.111-1.516v-.448l-.084-1.513-.027-.448-.03-1.486v-.451l.084-1.513V-293l-.084-1.516v-.448l.084-1.513v-.451l.057-1.486v-.448l-.03-1.513v-.451l-.054-.923.027-.421.027-.169.084-.364.168-.226.337-.084.226-.027.418-.027,1.263.054,3.339.111,1.9-.111h.451l1.85.111h1.068l.475.03.418.084.593.168.418.138.421.168.448.168.421.2.364.223.535.367.307.25.28.28.283.337.391.563.253.364.337.532.2.394.2.418.141.451.084.448.027.448.057.617v.448l-.027.451-.057.475-.084.478-.111.445-.168.424-.2.418-.253.421-.253.364-.253.337-.253.31-.451.448-.307.253-.563.307-.334.2-.364.2-.364.084-.226.084.111.226,1.011,1.429.253.337,1.008,1.372.28.34,1.011,1.4.28.334.869,1.011.253.31.141.307Zm-7.881-10.91.364-.138.337-.2.28-.337.2-.421.111-.448.03-.451-.03-.475-.054-.478-.111-.418-.2-.421-.253-.337-.307-.253-.391-.168-.62-.138-.448-.057-1.4-.03h-.448l-1.429.087-.34.027-.2.084-.168.168-.027.307.027.647.057.448.054.478.03.475-.057,1.54.027.31.057.168.2.084.34.057,1.456.111h.448l1.853-.111Z" transform="translate(60.992 303.463)" fill="#fff"/>
        <path id="Path_13039" data-name="Path 13039" d="M304.519-292.806l-.027.448-.057.647-.057.418-.168.842-.054.647-.057.421-.084.448-.111.421-.28.59-.2.391-.758,1.26-.253.367-.28.364-.283.31-.448.475-.31.28-.364.28-.334.253-.505.337-.364.226-.421.226-.394.165-.56.226-.421.111-.9.28-.475.141-.448.111-.478.114-.475.084-.478.027h-1.513l-.954-.057-.927-.111-.391-.084-.424-.111-1.51-.505-.451-.141-.475-.2-.9-.391-.421-.226-.418-.253-.364-.28-.364-.31-.34-.364-.307-.364-.758-.758-.28-.337-.283-.364-.223-.364-.223-.559-.424-1.263-.165-.589-.087-.421-.081-.448-.084-.421-.084-.617-.03-.421-.027-.475v-.478l.027-.475.03-.505.057-.475.081-.478.111-.478.141-.475.141-.421.168-.448.2-.644.2-.451.111-.253.223-.418.394-.617.28-.394.138-.226.34-.334.475-.394.364-.28.364-.253.842-.559.364-.226.394-.226.391-.2.59-.253.391-.141.424-.138.421-.114,1.065-.2.421-.084,1.4-.168.9-.054.842.054.671.03.478.054.478.084.475.114.475.081.451.114.418.111.421.141.59.223.394.168.926.532.364.253.364.28.475.451.31.28.307.31.253.334.394.535.223.364.2.364.223.364.307.562.229.364.2.421.138.391.141.644.165.842.057.478.084.475Zm-5.89.478v-.478l-.027-.475-.03-.451-.165-.839-.114-.394-.307-.617-.226-.364-.391-.505-.283-.307-.421-.448-.307-.253-.728-.421-.394-.168-.451-.141-.445-.084-.9-.054-.418.027-.62.027-.418.084-.731.2-.448.172-.647.334-.391.253-.448.394-.307.337-.31.418-.226.367-.084.165-.253.589-.138.421-.087.2-.081.394-.057.394-.027.391-.027.421v.421l.027.448.084.448.027.253.114.421.054.2.138.394.114.223.226.394.138.223.31.394.168.2.334.337.562.478.391.253.451.223.418.168.593.2.418.084.7.084.478.027.7-.054.451-.057.617-.141.394-.165.617-.394.334-.253.451-.448.28-.31.364-.448.253-.391.28-.617.168-.421.141-.644.054-.424Z" transform="translate(74.277 303.238)" fill="#fff"/>
        <path id="Path_13040" data-name="Path 13040" d="M309.448-298.545l-.027.448v4.151l.084,1.627v.448l.054,3.7v.475l-.027.226-.027.475-.084,1.345.027,1.63-.027.391-.114.337-.223.307-.28.2-.253.081-.391.03-1.432.054-.448.03-.7.027h-.445l-.367-.084-.337-.138-.337-.253-.253-.364-.421-.815-.253-.364-1.092-1.375-.283-.337-1.092-1.345-.253-.367-.981-1.459-.253-.334-1.092-1.348-.283-.334-1.038-1.378-.253-.223-.2.084-.081.337-.057,1.4v.448l.027,1.4v.448l.03,1.57v.451l-.087,1.57.03.448.168,1.122.024.448-.081.364-.2.2-.2.054-.334.057-.226.027-.478.027-1.288-.027h-.451l-1.146.057h-.451l-.421-.03-.307-.054-.226-.141-.111-.2-.057-.28-.03-.2v-.418l.06-.927.027-.448-.087-1.489v-.445l.06-3.423.027-.448.084-1.486.027-.448v-1.937l-.111-1.486v-.448l.111-1.486-.027-.448-.111-1.516-.03-.448v-.647l.03-.418.054-.421.057-.307.081-.2.172-.084.307-.057.842-.054.839.054h2.1l.34.03.138.111.168.253,1.179,1.263.277.334,1.041,1.348.28.337,1.038,1.375.28.334,1.011,1.4.253.334,1.065,1.348.283.337,1.008,1.4.226.2.223.03.2-.141v-.307l-.2-1.179-.027-.448.084-1.206v-.448l-.114-1.712v-.448l.114-1.712-.027-.448-.087-1.038v-.7l.087-.364.111-.226.2-.111.337-.057h.253l.478-.027,1.26.084h.448l.954-.057.421.027.644.03.31.054.2.087.168.2.054.391.03.253.03.478-.06.869-.054.448Z" transform="translate(91.214 303.481)" fill="#fff"/>
        <path id="Path_13041" data-name="Path 13041" d="M317.726-293.917l.027.475-.111,1.823v2.638l-.057,1.176v1.657l-.027.307-.168.283-.223.364-.253.364-.478.475-.337.31-.168.168-.364.253-.2.111-.364.223-.562.283-.418.168-.394.138-.647.2-.421.111-.448.084-.421.084-.644.084-.394.054-.418.084-1.122.141-.421.027-.869-.054-.647-.057-.448-.057-.448-.084-.418-.111-.984-.28-.421-.114-.421-.138-.559-.2-.364-.2-.563-.31-.337-.253-.364-.253-.337-.28-.337-.253-.307-.28-.451-.448-.28-.337-.307-.421-.253-.394-.7-1.26-.193-.451-.2-.418-.141-.451-.141-.475-.084-.448-.084-.475-.054-.451-.114-.617-.054-.448-.03-.421v-.421l.084-1.263.057-.223.081-.475.114-.478.138-.448.141-.478.141-.448.141-.418.193-.451.2-.475.2-.394.364-.505.253-.337.31-.364.307-.334.34-.31.728-.617.364-.28.337-.253.337-.226.923-.532.421-.253.478-.2.475-.141.451-.111,1.035-.168.815-.111.421-.084.418-.057.647-.054.451-.03.617.057.418.027.644.084.394.084.617.111.421.111.617.2.418.138,1.011.505.421.253.364.253.141.084.31.2.307.223.141.141.307.223.168.141.171.2v.2l-.087.2-.165.25-.253.367-.283.307-.785.785-.506.448-.337.283-.307.223-.226.168-.166.114-.229.027-.307-.2-.364-.253-.364-.223-.391-.226-.451-.2-.448-.168-.475-.111-.478-.084-1.318-.084h-.2l-.451.027-.728.057-.448.111-.842.394-.364.253-.364.28-.307.31-.283.364-.253.364-.223.391-.168.421-.141.448-.111.421-.172.842-.081.448-.03.478v.475l.057.674.084.448.141.644.138.448.283.674.2.394.334.505.283.337.505.475.364.28.562.31.418.168.842.2.475.057.478.027h.451l.445-.054.421-.087,1.516-.364.448-.168.421-.2.277-.2.087-.168v-.31l.027-.253v-.418l-.054-.842v-.478l-.114-.165-.31-.057h-.671l-.451.027-.644.084-.448.027h-.644l-.448-.027-.957-.168-.165-.057-.114-.138-.054-.337-.03-.223-.027-.451.027-.7-.054-.842-.057-.418v-.59l.084-.31.138-.138.34-.057.7-.084.478-.027h1.29l1.82-.084,2.244.138h.451l1.149-.138.448-.03.226.03.421.084.2.111.057.168.081.394Z" transform="translate(106.035 303.2)" fill="#fff"/>
        <path id="Path_13042" data-name="Path 13042" d="M327.965-285.315l.03.448.057.7.027.421-.027.391-.141.367-.2.2-.31.027-.448.057-1.513-.084h-.451l-1.486.111h-.448l-.391-.084-.168-.223-.057-.394-.114-1.823-.024-.448.054-1.823v-.448l-.054-1.8v-.394l-.111-.223-.31-.111h-.677l-1.119.081-.448.03-2.244-.057-1.516-.084-.364.03-.253.081-.138.253-.03.394.03,1.8v.448l-.057,1.823.027.448.111,1.206v.644l-.111.394-.253.223-.364.084-.421.03-.418-.03-1.179-.111-.448-.027-1.321.084-.445-.03h-.226l-.31-.054-.223-.114-.111-.138-.057-.31-.027-.253v-.445l.054-.842v-2.355l.057-1.489v-.448l.027-1.486v-.448l-.084-1.486v-.448l-.027-1.486v-1.937l.027-.448.084-1.486.027-.448-.027-1.486-.027-.448-.141-.957v-.59l.114-.334.253-.2.364-.087.421-.027h.418l1.179.057h.448l1.122-.084h.448l.421.027.364.057.226.223.111.364.03.2v.421l-.087,1.26-.027.448-.027,1.823v2.3l.027.337.084.223.141.114.277.027.394.027h.394l1.068-.169.418-.027,1.8.057,1.654.111h.418l.2-.027.307-.168.111-.226.03-.307.111-1.823v-.451l-.054-1.823v-.448l-.03-1.823.084-.448.225-.253.337-.057h.448l1.513.084h.451l1.263-.084.445.03h.253l.364.054.226.226.111.391v.424l-.084,1.122-.027.448.084,1.486v.448l-.057,1.486v.448l.111,1.486v.451l-.111,1.486v.448l-.057,1.486v.448l.03,1.486v.448l-.03,1.489Z" transform="translate(129.08 303.517)" fill="#fff"/>
        <path id="Path_13043" data-name="Path 13043" d="M333.159-285.336l-.03.448-.111,1.516-.03.28-.111.2-.141.114-3.67.111h-.451l-1.486-.111-.448.027-1.459.111-.448.027h-1.937l-1.456-.111h-.448l-2.412.141-.951-.057-.34-.057-.2-.138-.084-.2-.054-.31-.06-.644-.024-.451.024-.418v-.421l.114-1.489v-.445l.027-1.489-.027-.448-.084-1.486-.03-.448.06-1.516v-2.382l.111-1.486-.03-.451-.081-1.483-.03-.451v-.671l.057-.842v-.421l.084-1.459.027-.391.084-.226.141-.111.223-.03.364-.054,1.826.111,1.709-.027h.451l1.682.111h.448l1.682-.111h.451l3.811.054.478-.027.954-.084h.7l.391.084.171.141.054.2.057.364v.758l-.057.7v.478l.027.7.03.424-.03.418-.057.337-.111.2-.141.114-.334.057h-.226l-.448.027-2.638-.057h-.445l-1.432.057H326.4l-1.459-.057-1.26-.084h-.421l-.226.027-.28.057-.141.141-.027.168-.057.307-.057.674v.448l.03.478.027.307.057.2.114.138.307.084.9.057.9-.057h2.665l3.137-.168.872.057.307.054.168.141.084.169.027.307.054.478.03.475v.927l.057.647-.057.842-.054.334-.111.2-.2.141-.283.057h-.556l-1.263-.141-.451-.027-2.244.138-1.793-.054h-.448l-1.122-.084-.478.027-.334.03-.141.081-.084.2-.027.424-.087.7-.024.451v.617l.024.28.087.2.111.114.307.027,1.543.057h.448l1.516-.114,1.988.114h.451l1.991-.114h.421l.418.03,1.011.111.168.084.114.169.027.307Z" transform="translate(144.24 303.481)" fill="#fff"/>
        <path id="Path_13044" data-name="Path 13044" d="M342.093-282.794l-.364.111h-1.964l-1.543-.027h-.445l-1.263.057h-.364l-.253-.111-.226-.226-.9-1.26-.253-.337-.9-1.206-.253-.337-.788-1.29-.253-.337-.9-1.206-.2-.226-.168-.081-.337-.03-.9-.054-.364.027-.226.168-.081.364-.057,1.543.027.448.111,1.57.03.448.024.674v.448l-.024.448-.057.337-.141.141-.307.084h-.451l-1.345-.084-1.29.084h-.448l-1.29-.084-.337-.057-.168-.111-.054-.28-.03-.394-.027-.418.057-.731.027-.448.111-1.516v-.448l-.084-1.513-.027-.448-.027-1.486v-.451l.084-1.513V-293l-.084-1.516v-.448l.084-1.513v-.451l.054-1.486v-.448l-.027-1.513v-.451l-.057-.923.03-.421.027-.169.084-.364.168-.226.337-.084.223-.027.421-.027,1.263.054,3.336.111,1.907-.111h.448l1.853.111h1.065l.475.03.421.084.59.168.421.138.421.168.448.168.421.2.364.223.532.367.31.25.28.28.28.337.391.563.253.364.34.532.193.394.2.418.138.451.087.448.027.448.054.617v.448l-.027.451-.054.475-.087.478-.111.445-.165.424-.2.418-.253.421-.253.364-.253.337-.253.31-.448.448-.31.253-.56.307-.337.2-.364.2-.364.084-.226.084.111.226,1.011,1.429.253.337,1.011,1.372.28.34,1.011,1.4.28.334.869,1.011.253.31.138.307Zm-7.881-10.91.364-.138.34-.2.277-.337.2-.421.111-.448.03-.451-.03-.475-.057-.478-.111-.418-.2-.421-.253-.337-.31-.253-.391-.168-.62-.138-.445-.057-1.4-.03h-.445l-1.432.087-.337.027-.2.084-.166.168-.027.307.027.647.054.448.057.478.03.475-.057,1.54.027.31.054.168.2.084.337.057,1.459.111h.448l1.85-.111Z" transform="translate(157.334 303.463)" fill="#fff"/>
        <path id="Path_13045" data-name="Path 13045" d="M346.765-285.336l-.03.448-.111,1.516-.03.28-.111.2-.141.114-3.673.111h-.448l-1.486-.111-.451.027-1.456.111-.448.027h-1.937l-1.456-.111h-.451l-2.413.141-.95-.057-.337-.057-.2-.138-.081-.2-.057-.31-.057-.644-.027-.451.027-.418v-.421l.114-1.489v-.445l.027-1.489-.027-.448-.084-1.486-.03-.448.057-1.516v-2.382l.114-1.486-.03-.451L330.5-298.4l-.027-.451v-.671l.054-.842v-.421l.087-1.459.024-.391.087-.226.138-.111.226-.03.364-.054,1.823.111,1.712-.027h.448l1.685.111h.445l1.684-.111h.448l3.814.054.478-.027.951-.084h.7l.388.084.171.141.057.2.054.364v.758l-.054.7v.478l.024.7.03.424-.03.418-.054.337-.111.2-.141.114-.334.057h-.229l-.445.027-2.638-.057h-.445l-1.432.057h-.448l-1.462-.057-1.26-.084h-.418l-.229.027-.277.057-.141.141-.027.168-.06.307-.054.674v.448l.03.478.024.307.06.2.111.138.31.084.893.057.9-.057h2.665l3.14-.168.869.057.31.054.165.141.087.169.024.307.057.478.03.475v.927l.054.647-.054.842-.057.334-.111.2-.2.141-.283.057h-.56l-1.263-.141-.448-.027-2.244.138-1.8-.054h-.445l-1.122-.084-.478.027-.337.03-.141.081-.081.2-.03.424-.084.7-.027.451v.617l.027.28.084.2.111.114.31.027,1.543.057h.448l1.516-.114,1.988.114h.448l1.994-.114h.418l.421.03,1.011.111.166.084.117.169.024.307Z" transform="translate(171.556 303.481)" fill="#fff"/>
      </g>
    </g>
    <g id="Group_3410" data-name="Group 3410" transform="translate(299.491 43.71)">
      <g id="Group_3409" data-name="Group 3409">
        <path id="Path_13046" data-name="Path 13046" d="M221.615-213.482l.027.421-.027.418-.03.478-.138.7-.084.448-.226.563-.168.391-.28.532-.253.367-.391.532-.31.337-.364.334-.367.31-.364.253-.391.253-.617.28-.421.2-.475.2-.424.138-.617.168-.418.084-.421.057-.448.027-.731.057h-2.355l-.475-.027-.478.027-.475.054-.337.057-.084.2-.03.364-.111,1.88v.448l.027.842-.027.421-.027.617-.057.307-.084.172-.138.054-.31.057-.9.054-1.095-.054h-.448l-.9.054-.451-.027-.644-.027-.364-.111-.168-.172-.057-.334-.054-.424-.03-.445v-3l.111-1.486v-.451l-.111-1.486v-.448l-.054-3.42v-.448l.111-1.516v-.448l-.084-1.486v-.448l.111-1.486v-.421l-.054-.842.027-.421.027-.223.057-.31.084-.168.138-.138.31-.03.812-.054.647.027h.418l1.88-.027h1.88l1.877.111h1.853l1.065-.057.394.03h.223l.421.084.647.165.448.141.448.168.421.2.418.253.367.283.5.448.34.28.138.168.505.505.28.364.141.168.2.334.111.171.168.364.141.421.111.391.03.2.111.391.054.226.114.391.168.785Zm-8.387,2.749.505-.057.475-.114.226-.081.391-.226.168-.111.283-.28.111-.171.2-.364.084-.2.114-.448.027-.2v-.7l-.084-.424-.084-.223-.168-.364-.111-.168-.31-.337-.226-.141-.418-.223-.731-.2-.448-.057h-.644l-.842.057-1.233-.084h-.421l-.226.027-.307.057-.114.081-.084.2-.054.337v.644l.084,1.038.027.448.027,1.627.03.337.084.2.307.114,1.459.111Z" transform="translate(-203.554 221.221)" fill="#fff"/>
        <path id="Path_13047" data-name="Path 13047" d="M232.3-201.245l.084.394-.2.307-.307.141-.364.054h-.394l-.644-.054-.421-.03H228.8l-1.742.111-.364-.111-.168-.223-.138-.31-.869-2.355-.2-.28-.253-.057-.337-.027-1.682-.111H222.6l-2.1-.057-1.685-.027h-.418l-.421.027h-1.291l-.364.057-.226.138-.168.337-.644,1.907-.168.448-.31.367-.418.165-.451-.027-1.624-.084h-.451l-1.739.111-.364.03-.337-.168-.226-.31.03-.364.054-.223.168-.451.394-.869.168-.421.7-1.57.168-.391.728-1.57.168-.421.647-1.513.168-.424.755-1.57.168-.391,1.011-2.3.785-1.682.2-.448.617-1.263.2-.448.532-1.29.168-.421.5-1.149.141-.31.28-.165.421-.084,1.29-.057h2.187l1.29.027.475.084.31.226.141.364.391,1.095.168.421.7,1.317.168.391.62,1.375.165.391.505,1.432.168.394.617,1.345.168.391.617,1.378.168.391.563,1.4.165.394.872,1.739.671,1.318.2.394.758,1.766Zm-9.367-7.908-.111-.364-.617-1.91-.141-.418L221.5-213.5l-.138-.367-.28-.193-.367-.087-.307.087-.28.277-.758,1.91-.168.418-.731,1.88-.081.421.081.337.31.141.394.054h1.766l1.318.084.364-.111.226-.226Z" transform="translate(-192.238 221.239)" fill="#fff"/>
        <path id="Path_13048" data-name="Path 13048" d="M236.9-211.583l.03.475-.114,1.823v2.635l-.057,1.179v1.654l-.027.31-.165.28-.226.364-.253.364-.478.478-.337.307-.165.168-.367.253-.2.111-.364.226-.56.28-.424.168-.391.141-.644.2-.421.111-.448.084-.421.084-.647.084-.391.057-.421.084-1.122.141-.421.027-.869-.057-.647-.054-.445-.057-.451-.084-.421-.111-.981-.283-.421-.111-.418-.141-.563-.2-.364-.2-.563-.307-.334-.253-.367-.253-.337-.283-.337-.253-.307-.28-.448-.448-.28-.337-.31-.421-.253-.391-.7-1.263-.2-.448-.2-.421-.138-.448-.141-.475-.084-.451-.084-.475-.054-.448-.114-.617-.054-.451-.03-.418v-.421l.084-1.263.057-.223.084-.478.111-.475.141-.451.141-.475.138-.448.141-.421.2-.448.2-.478.2-.391.364-.505.253-.337.307-.364.31-.337.337-.31.728-.617.364-.28.337-.253.337-.226.926-.529.421-.253.475-.2.478-.138.448-.114,1.038-.165.812-.114.421-.084.421-.054.644-.057.448-.027.617.054.421.03.647.081.391.084.617.114.421.111.617.2.421.141,1.011.505.421.253.364.253.138.084.31.2.307.223.141.141.31.226.165.138.171.2v.2l-.084.2-.168.253-.253.364-.283.31-.782.785-.505.448-.337.28-.31.226-.223.165-.168.114-.226.027-.307-.2-.364-.253-.367-.223-.391-.226-.448-.2-.451-.168-.475-.114-.478-.084-1.318-.081h-.2l-.448.027-.731.054-.448.114-.839.391-.367.253-.364.28-.31.31-.28.364-.253.364-.223.394-.168.421-.141.448-.111.421-.168.839-.084.451-.027.475v.478l.054.671.084.451.141.644.141.448.28.674.2.391.337.505.28.337.505.475.364.283.563.307.418.168.842.2.478.054.475.03h.448l.451-.057.418-.084,1.516-.364.448-.168.421-.2.28-.2.084-.168v-.307l.027-.253v-.421l-.054-.842v-.475l-.111-.168-.31-.057h-.674l-.448.027-.644.087-.451.027h-.644l-.448-.027-.954-.171-.168-.054-.114-.138-.054-.34-.03-.223-.027-.448.027-.7-.054-.842-.057-.421v-.59l.084-.307.141-.141.337-.057.7-.081.475-.03h1.29l1.823-.084,2.244.141h.448l1.149-.141.448-.027.226.027.421.084.2.111.057.171.084.391Z" transform="translate(-176.631 220.866)" fill="#fff"/>
        <path id="Path_13049" data-name="Path 13049" d="M241.045-203l-.027.448-.111,1.513-.027.283-.114.2-.138.111-3.673.111H236.5l-1.486-.111-.448.027-1.459.114-.448.027h-1.934l-1.459-.111h-.448l-2.413.138-.954-.054-.337-.057-.2-.138-.084-.2-.057-.307-.054-.647-.03-.448.03-.421v-.421l.111-1.486v-.448l.027-1.486-.027-.451-.084-1.486-.027-.448.054-1.513v-2.385l.111-1.486-.027-.448-.084-1.486-.027-.448v-.674l.054-.842v-.418l.084-1.459.03-.394.084-.223.138-.114.226-.027.364-.057,1.823.114,1.712-.03h.448l1.681.114h.451l1.682-.114h.448l3.814.057.475-.027.954-.084h.7l.391.084.168.138.057.2.054.367v.755l-.054.7v.475l.027.7.027.421-.027.421-.054.337-.114.2-.138.111-.337.057H239.7l-.448.027-2.635-.054h-.451l-1.429.054h-.448l-1.459-.054-1.263-.084h-.421l-.223.027-.28.057-.141.138-.027.168-.057.31-.054.674v.445l.027.478.027.31.057.2.111.141.307.081.9.057.9-.057h2.665l3.141-.165.869.054.31.057.165.141.087.165.027.31.057.478.027.475v.926l.054.644-.054.842-.057.337-.111.2-.2.141-.28.054h-.563l-1.26-.141-.451-.027-2.241.141-1.8-.057h-.451l-1.119-.084-.478.027-.337.03-.138.084-.084.2-.03.421-.081.7-.03.448v.617l.03.283.081.2.114.111.307.027,1.543.057h.448l1.516-.111,1.991.111h.448l1.991-.111h.418l.424.027,1.008.111.168.084.111.168.03.31Z" transform="translate(-161.099 221.145)" fill="#fff"/>
        <path id="Path_13050" data-name="Path 13050" d="M254-216.212l-.03.451v4.148l.087,1.627v.448l.054,3.7v.475l-.027.226-.027.478-.087,1.345.03,1.627-.03.391-.111.337-.226.31-.28.2-.253.084-.391.027-1.432.057-.448.027-.7.027h-.448l-.364-.081-.337-.141-.337-.253-.253-.364-.421-.812-.253-.367-1.092-1.375-.28-.334-1.095-1.348-.253-.364-.981-1.459-.253-.337-1.095-1.345-.28-.337-1.038-1.375-.253-.226-.2.087-.084.334-.057,1.4v.451l.027,1.4v.448l.03,1.57v.448l-.084,1.57.027.451.168,1.119.03.451-.084.364-.2.2-.2.057-.337.054-.226.03-.475.027-1.29-.027h-.448l-1.149.054h-.448l-.421-.027-.31-.057-.226-.138-.111-.2-.054-.28-.03-.2v-.421l.057-.927.027-.448-.084-1.486v-.448l.057-3.423.027-.448.084-1.486.027-.448v-1.934l-.111-1.486v-.448l.111-1.486-.027-.451L235.016-218l-.027-.448v-.647l.027-.421.057-.418.054-.31.084-.2.168-.084.31-.057.839-.057.842.057h2.1l.337.027.141.114.168.253,1.176,1.26.283.337,1.035,1.348.283.337,1.038,1.372.28.337,1.011,1.4.253.337,1.065,1.348.28.337,1.011,1.4.223.2.226.027.2-.138v-.31l-.2-1.176-.03-.451.087-1.206v-.448l-.114-1.712v-.445l.114-1.712-.03-.451-.084-1.035v-.7l.084-.367.114-.223.2-.114.337-.054h.25l.478-.03,1.26.084h.451l.954-.054.418.027.647.027.31.057.2.084.168.2.054.394.03.253.027.475-.057.869-.054.451Z" transform="translate(-140.489 221.145)" fill="#fff"/>
        <path id="Path_13051" data-name="Path 13051" d="M264.877-210.47l-.027.448-.057.644-.054.421-.168.842-.057.644-.054.421-.084.448-.114.421-.28.59-.2.391-.758,1.263-.253.364-.28.367-.283.307-.445.475-.31.283-.364.28-.337.253-.505.337-.364.223-.421.226-.394.168-.56.223-.421.114-.9.28-.478.141-.448.111-.475.111-.478.084-.475.03h-1.516l-.954-.057-.927-.114-.391-.081-.421-.114-1.513-.505-.451-.138-.475-.2-.9-.394-.421-.223-.421-.253-.364-.283-.367-.307-.334-.364-.31-.364-.755-.758-.283-.337-.28-.364-.226-.367-.223-.56-.421-1.263-.168-.59-.084-.418-.084-.451-.084-.418-.084-.617-.027-.421-.027-.478v-.475l.027-.478.027-.505.057-.475.084-.478.111-.475.138-.475.141-.424.168-.445.2-.647.2-.448.111-.253.226-.421.391-.617.28-.391.141-.226.337-.337.475-.394.367-.28.364-.25.842-.563.364-.226.391-.223.394-.2.587-.253.394-.141.421-.141.421-.111,1.065-.2.421-.084,1.4-.168.9-.057.842.057.674.027.475.057.478.084.475.111.478.084.448.111.421.114.421.138.587.226.394.168.924.532.367.253.364.28.475.448.31.283.307.307.253.337.394.532.223.364.2.364.226.367.307.56.226.364.2.421.141.394.138.644.169.842.057.475.084.478Zm-6.843,3.646.253-.394.283-.617.168-.421.138-.644.057-.421.057-.674v-.475l-.03-.478-.027-.448-.168-.839-.111-.394-.31-.617-.223-.364-.394-.505-.283-.31-.418-.448-.31-.253-.728-.421-.394-.168-.448-.138-.448-.084-.9-.057-.421.027-.617.03-.421.084-.728.2-.451.168-.644.337-.394.253-.448.391-.31.337-.307.421-.223.364-.087.168-.25.59-.141.421-.084.2-.084.394-.057.391-.027.391-.027.424v.418l.027.448.084.451.03.253.111.418.054.2.141.391.111.226.226.391.138.226.31.391.168.2.337.334.559.478.394.253.448.223.421.168.59.2.418.084.7.084.475.027.7-.057.448-.054.617-.141.394-.168.617-.394.337-.25.448-.451.28-.307Z" transform="translate(-125.686 220.902)" fill="#fff"/>
        <path id="Path_13052" data-name="Path 13052" d="M267.463-218.437l-.027.421.027.842-.027.448-.027.223-.057.337-.084.2-.169.138-.337.057h-.448l-.842-.084-.448-.027-1.291.084h-.448l-.7-.057h-.421l-.2.027-.28.084-.114.168-.027.364-.111,1.654v.451l.111,1.682-.027.448-.111,1.682-.03.451.057,1.654v2.581l-.057,1.651.03.421.138,1.263.027.448-.084.337-.138.141-.367.054-.532-.027-.7-.084-.475-.027-1.263.084h-.448l-1.26-.084-.337-.03-.168-.081-.057-.31v-.478l.084-1.176.027-.451v-2.1l.03-1.682v-.448l.027-1.654v-.451l-.111-1.682-.027-.448v-2.133l-.057-1.654v-.391l-.084-.226-.283-.054h-.418l-.9.054h-.505l-.758-.054-.478-.03-.475.03-.644.027h-.424l-.223-.027-.31-.057-.168-.111-.111-.168-.057-.283v-.2l-.027-.448.057-.842v-.418l-.084-1.068.027-.448.084-.364.111-.2.168-.084.28-.057h.647l1.038.084h.448l1.627-.111h.448l1.654.138h.451l2.073-.138,1.627.027h.448l2.106-.027h2.073l.926-.057.478.027.223.03.337.054.2.114.141.2.054.337v.2l.03.421Z" transform="translate(-110.641 221.183)" fill="#fff"/>
        <path id="Path_13053" data-name="Path 13053" d="M275.939-217.36l.027.448-.027.421-.03.307-.084.2-.168.138-.307.084h-.587l-.845-.111-.445-.027h-1.826l-3.195.111-1.263-.084h-.617l-.28.084-.114.2-.027.394-.054,2.494.027.31.027.168.141.111.337.084h.728l.953-.084.451-.027,1.678.057h2.133l.421-.03,1.065-.084h.674l.307.057.169.138.114.226.057.337.027.226.027.418-.054.842v.421l.027.647-.027.418-.03.451-.057.334-.084.226-.138.111-.337.084h-.674l-1.035-.138-.451-.03-1.681.057h-.451l-3.029-.057-.418.03-.391.054-.283.084-.111.168v.364l-.03,1.6v.448l-.111,1.57v.448l.03.617-.03.448-.027.478-.03.337-.084.168-.168.084-.307.054-.475.057-.451.027-1.035-.027h-.451l-1.149.084-.842-.057-.307-.054-.169-.111-.057-.2-.027-.307-.084-1.489-.03-.448-.024-1.486.024-.448.114-1.486.027-.451-.084-1.486v-.448l-.081-1.513v-.448l.054-1.489v-2.382l.057-1.486v-2.382l.054-1.486.027-.34.06-.2.165-.084.28-.054h.617l1.068.084h.448l1.654-.084h.448l1.627.084h.448l1.657-.084.445-.03,1.657.084h.445l1.658-.084h.445l.7.03.448.027.475.057.31.027.168.084.114.168.024.31.03.25v.421l-.054.842v.448Z" transform="translate(-89.506 221.201)" fill="#fff"/>
        <path id="Path_13054" data-name="Path 13054" d="M288.8-210.47l-.027.448-.054.644-.057.421-.171.842-.054.644-.057.421-.081.448-.114.421-.28.59-.2.391-.758,1.263-.253.364-.28.367-.283.307-.445.475-.31.283-.364.28-.337.253-.505.337-.364.223-.421.226-.394.168-.56.223-.421.114-.9.28-.478.141-.445.111-.478.111-.478.084-.475.03h-1.516l-.954-.057-.927-.114-.391-.081-.418-.114-1.516-.505-.451-.138-.475-.2-.9-.394-.421-.223-.421-.253-.364-.283-.364-.307-.337-.364-.31-.364-.755-.758-.283-.337-.28-.364-.226-.367-.223-.56-.421-1.263-.168-.59-.084-.418-.084-.451-.084-.418-.084-.617-.027-.421-.027-.478v-.475l.027-.478.027-.505.057-.475.084-.478.111-.475.138-.475.141-.424.168-.445.2-.647.2-.448.111-.253.226-.421.391-.617.283-.391.141-.226.334-.337.475-.394.367-.28.364-.25.842-.563.364-.226.391-.223.391-.2.593-.253.394-.141.418-.141.421-.111,1.065-.2.421-.084,1.4-.168.9-.057.839.057.674.027.478.057.475.084.475.111.478.084.448.111.421.114.421.138.587.226.394.168.926.532.364.253.364.28.475.448.31.283.307.307.253.337.394.532.223.364.2.364.226.367.31.56.223.364.2.421.141.394.138.644.171.842.054.475.081.478Zm-6.84,3.646.253-.394.277-.617.172-.421.138-.644.054-.421.06-.674v-.475l-.03-.478-.03-.448-.165-.839-.111-.394-.31-.617-.223-.364-.394-.505-.283-.31-.418-.448-.31-.253-.728-.421-.394-.168-.445-.138-.451-.084-.9-.057-.418.027-.617.03-.421.084-.728.2-.451.168-.644.337-.391.253-.451.391-.307.337-.31.421-.223.364-.084.168-.253.59-.141.421-.084.2-.084.394-.054.391-.03.391-.027.424v.418l.027.448.084.451.03.253.111.418.057.2.138.391.114.226.223.391.141.226.307.391.168.2.337.334.562.478.391.253.448.223.421.168.59.2.421.084.7.084.475.027.7-.057.445-.054.617-.141.394-.168.617-.394.337-.25.448-.451.283-.307Z" transform="translate(-77.646 220.902)" fill="#fff"/>
        <path id="Path_13055" data-name="Path 13055" d="M293.738-210.238l.06.9-.03.418-.03.647-.054.421-.114.671-.084.451-.111.644-.111.421-.223.59-.141.391-.253.59-.2.394-.364.559-.277.364-.34.364-.364.31-.559.448-.364.253-.563.337-.364.2-.587.28-.424.141-.617.223-.421.114-.644.111-.421.084-.866.057h-1.293l-.644-.057-.421-.027-1.543-.168-.448-.084-.253-.03-.448-.138-.223-.084-.451-.2-.617-.283-.418-.253-.421-.28-.731-.617-.31-.307-.364-.478-.253-.334-.448-.731-.25-.391-.226-.424-.2-.448-.168-.421-.111-.391-.111-.421-.111-.617-.084-.475-.057-.478-.054-.954-.03-.448.084-1.712v-.448l-.054-1.712v-.448l.081-1.709v-2.611l-.054-.9v-.478l.027-.475.084-.448.2-.253.364-.084.927-.057,1.065.084h.451l.923-.027.421.027.647.03.364.084.223.223.084.367.027.391v.421l-.054,1.092v.448l.084,1.712v.451l-.03,1.709v.448l-.081,1.712v.448l-.03,1.712.03.448.054.7.087.448.165.617.168.424.283.644.28.337.448.475.364.226.617.223.421.111.728.057h.448l.731-.138.421-.114.532-.253.364-.223.448-.394.28-.334.31-.59.2-.421.141-.448.081-.451.117-.839.024-.448-.111-1.712v-.448l.087-1.739v-.451l.054-1.709v-.448l-.054-1.742-.03-.448-.087-1.176v-.7l.117-.394.253-.223.364-.084h.587l1.432.111h.448l1.119-.084h.448l.421.027.364.084.225.2.027.34.03.839v.421l-.03.644v.448l.084,1.742v.448l-.054,1.709v.451l-.111,1.739Z" transform="translate(-60.916 221.145)" fill="#fff"/>
        <path id="Path_13056" data-name="Path 13056" d="M301.235-216.212l-.03.451v4.148l.084,1.627v.448l.057,3.7v.475l-.03.226-.027.478-.084,1.345.03,1.627-.03.391-.111.337-.226.31-.28.2-.253.084-.391.027-1.432.057-.448.027-.7.027h-.445l-.367-.081-.334-.141-.34-.253-.253-.364-.418-.812-.253-.367-1.1-1.375-.28-.334-1.095-1.348-.253-.364-.981-1.459-.253-.337-1.092-1.345-.283-.337-1.038-1.375-.253-.226-.2.087-.081.334-.057,1.4v.451l.027,1.4v.448l.03,1.57v.448l-.087,1.57.03.451.168,1.119.027.451-.084.364-.2.2-.2.057-.334.054-.226.03-.475.027-1.29-.027h-.448l-1.149.054h-.451l-.418-.027-.31-.057-.226-.138-.111-.2-.057-.28-.03-.2v-.421l.06-.927.027-.448-.087-1.486v-.448l.06-3.423.027-.448.084-1.486.027-.448v-1.934l-.111-1.486v-.448l.111-1.486-.027-.451L282.248-218l-.03-.448v-.647l.03-.421.057-.418.054-.31.081-.2.172-.084.31-.057.839-.057.839.057h2.1l.34.027.141.114.165.253,1.179,1.26.28.337,1.038,1.348.28.337,1.038,1.372.283.337,1.011,1.4.25.337,1.065,1.348.283.337,1.008,1.4.226.2.223.027.2-.138v-.31l-.2-1.176-.027-.451.084-1.206v-.448l-.111-1.712v-.445l.111-1.712-.027-.451-.084-1.035v-.7l.084-.367.111-.223.2-.114.337-.054h.253l.478-.03,1.26.084h.448l.954-.054.421.027.644.027.31.057.2.084.168.2.054.394.03.253.03.475-.06.869-.054.451Z" transform="translate(-45.648 221.145)" fill="#fff"/>
        <path id="Path_13057" data-name="Path 13057" d="M309.218-209.975l-.03.475-.024.674-.087.448-.2.644-.141.451-.168.418-.165.451-.168.475-.172.421-.307.617-.223.364-.394.451-.28.307-.475.448-.617.617-.367.31-.533.421-.364.223-.563.307-.364.171-.617.223-.421.141-.448.111-.448.084-1.712.253-.418.027-.617.057h-.451l-.9-.027-.728-.057h-.448l-.9.057-.7.027-.475.027-.418-.027h-1.967l-.418-.027-1.206-.111-.226-.114-.138-.138-.057-.31-.027-.448.027-.226.057-.839v-.394l.027-.647v-.418l.03-.451v-.448l-.03-1.486v-.448l-.057-1.486.03-.421.027-.617.057-.421.027-.475v-.451l-.054-.728-.03-.478v-.253l-.027-.475.111-1.486v-.448l-.027-1.486v-.448l-.084-1.489v-1.092l.027-.448.084-.421.057-.31.111-.168.307-.084.478-.054.421-.057.448-.027,2.467.027h.448l1.348.084.226.027h.505l1.176-.054.421-.03h.451l.7.057.9.057.445.054.731.114.448.081.421.114,1.008.364.421.2.424.226.391.223.924.647.367.307.337.283.617.587.28.283.25.307.2.364.307.62.172.418.138.448.171.451.135.448.117.448.111.617.081.451.084.475.057.448.03.674.024.448Zm-6.4,2.409.2-.418.166-.478.111-.421.117-.617.024-.394.03-.644v-.9l-.03-.448-.084-.647-.111-.421-.057-.168-.223-.421-.421-.587-.138-.141-.283-.307-.31-.31-.334-.253-.617-.364-.394-.168-.394-.084-.445-.084-.7-.027-.475-.03h-.7l-.617-.027-.421.027-.617.084-.31.084-.138.141-.087.337-.027.253-.027.421.054.839.03.448.057.617.054.448.03.451v.448l-.03.617v1.348l-.027.475-.027.448-.057.617v.394l-.03.647.03.418.084.674.111.307.168.141.337.027,2.611-.168.641-.027.451-.084.475-.141.448-.165.421-.2.364-.253.505-.448.283-.334Z" transform="translate(-30.283 221.165)" fill="#fff"/>
      </g>
    </g>
    <g id="Group_3411" data-name="Group 3411" transform="translate(155.779 -168.121)">
      <path id="Path_13058" data-name="Path 13058" d="M324.735-148.118v6.467l-1.035,3.363-2.07,1.811-3.363.779-7.764.517-1.811.773-2.587,2.073-1.552,3.1-.259,3.622.776,8.281.259,4.139-.259,3.88-.776,3.622-2.328,2.587-3.622,1.035h-5.953l-15-1.035h-6.47l-4.139-.259-5.95-.517-3.622-.517-2.07-1.552-1.038-3.363-.259-3.88v-4.139l.517-10.092-.259-3.88-1.811-3.107-2.328-1.29-3.363-.262-17.077,1.038h-4.139L186.57-135.7l-3.88.259-9.834.773h-3.88l-3.883-.256-3.1-1.038-1.549-2.328-.52-3.1-2.587-14.749-.517-4.139-1.035-15.263.259-2.849,1.035-1.294,1.814-2.07,8.537-11.127,2.587-3.1,9.572-10.607,2.849-2.846,9.83-10.092,2.846-2.846,9.575-10.351,2.587-3.1,8.8-11.127,2.849-2.843,9.831-10.092,2.846-3.1,4.139-4.915,2.59-3.366,2.328-2.846,2.846-2.587,9.833-10.092,2.07-2.07,1.293-1.032,2.587-.262,17.594.52,13.97-.779h3.883l3.88.259,2.846.52,1.811.773.776,1.552.259,3.366.776,16.3v4.139l-.517,16.3v4.142l.259,16.3v4.139l-.259,16.3v4.139l-.776,16.3.259,3.363,2.07,2.846,3.366,2.328,7.244.517h1.552l3.1.776,1.811,1.811.776,3.366.259,2.328.259,4.139-.517,5.95.259,4.139ZM231.589-176.84h4.139l10.61-.256,3.622-.52,2.328-1.552,1.552-2.846.259-3.622,1.038-13.714V-217.2l-.52-3.1-1.552-1.294-1.811.259-2.328,2.069-9.054,9.057-2.846,3.1L229-197.021l-2.846,3.1-9.054,8.8-1.814,2.328v2.328l2.07,2.328,3.366.776Z" transform="translate(-155.779 293.013)" fill="#fff"/>
      <path id="Path_13059" data-name="Path 13059" d="M389.243-209.267l.256,4.142-.256,8.8v15.266l-.259,5.694-.259,3.88-.259,5.691-.779,3.88-1.035,5.95-2.587,8.281-1.811,3.88-2.587,5.174-2.328,3.625-2.59,3.88-2.584,3.622-2.849,3.622-3.1,3.1-4.139,4.4-3.1,2.331-5.177,2.587-3.363,1.811-5.174,2.328-3.625,1.552-5.43,2.07-3.622,1.293-5.694,1.294-3.88.776-4.4.517-4.395.259-6.212.52-4.139-.259-6.726-.52-4.139-.517-13.973-2.328-3.883-.776-5.433-1.552-3.88-1.552-5.691-2.587-3.88-2.328-3.622-2.328-3.366-2.331-4.915-3.622L241.5-122.33l-3.88-4.4-2.328-2.846-3.625-4.918-1.811-3.363-2.846-4.915-1.294-3.622-1.811-5.95-.776-3.625-1.293-5.691-.517-3.88-.776-4.4-.517-4.142-.259-6.726-.259-3.88.259-9.833v-10.607l.517-8.281.776-4.139,1.035-6.726,1.035-4.139,1.035-5.694,1.035-3.88,1.552-5.433,1.293-3.884,1.552-3.88,1.811-3.88,3.107-5.691,2.587-3.622,4.139-4.66,3.363-2.846,3.622-2.846,3.363-2.328,5.177-2.846,3.363-1.814,9.054-3.88,6.988-2.584,3.88-1.3,3.88-1.035,4.139-.517,6.729-.259h4.139l13.2.517,4.139.259,6.209,1.035,4.139.517,10.092,2.328,4.4,1.293,4.139,1.552,3.884,1.555,3.622,1.811,5.95,3.363,3.363,2.328,2.846,2.846,2.846,3.363,4.142,5.174,2.325,3.625,3.622,5.691,1.814,3.622,1.552,3.883,1.552,3.622,1.811,5.95,1.293,3.88,1.035,4.4.776,4.142.779,5.691.517,3.88ZM279.02-155.446l2.587,3.363,2.846,3.1,3.363,2.07,1.555,1.035,4.139,1.294,4.657.776,4.4.259h4.654l6.47-.517,4.136-1.035,3.88-1.552,3.625-2.328,1.293-1.294,2.846-3.363,2.328-4.142,1.811-3.88,2.59-8.8.776-4.142.256-6.209.776-12.421v-4.139l.259-7.761-.259-3.883-.517-6.209-1.032-4.139-1.3-4.4-1.552-3.88-2.846-5.694-2.067-3.363-3.107-3.1-3.363-2.587-3.625-1.811-1.808-.517L312.916-246l-3.88-.259-1.814-.259h-4.139l-4.4.776-1.811.256-3.88,1.3-3.88,2.07-4.66,3.1-2.846,2.846-2.846,3.88-2.328,3.883-1.555,4.657-1.032,4.4-.517,4.4-.262,5.95v3.883l-.259,7.761v4.139l-.256,8.281v4.139l.514,6.467.52,4.142,1.035,4.4,1.293,3.622.518,1.811L278.244-157Z" transform="translate(-27.798 291.286)" fill="#fff"/>
      <path id="Path_13060" data-name="Path 13060" d="M452.111-148.118v6.467l-1.032,3.363-2.073,1.811-3.363.779-7.761.517-1.814.773-2.587,2.073-1.552,3.1-.259,3.622.776,8.281.259,4.139-.259,3.88-.776,3.622-2.328,2.587-3.622,1.035h-5.953l-15-1.035H398.3l-4.142-.259-5.95-.517-3.625-.517-2.067-1.552-1.035-3.363-.262-3.88v-4.139l.52-10.092-.259-3.88-1.814-3.107-2.328-1.29-3.363-.262L356.9-134.922h-4.139l-38.811-.776-3.88.259-9.833.773h-3.88l-3.88-.256-3.1-1.038-1.555-2.328-.517-3.1-2.587-14.749-.517-4.139-1.035-15.263.259-2.849,1.035-1.294,1.811-2.07,8.537-11.127,2.59-3.1,9.572-10.607,2.849-2.846,9.83-10.092,2.846-2.846,9.575-10.351,2.584-3.1,8.8-11.127,2.849-2.843,9.831-10.092,2.846-3.1,4.139-4.915,2.59-3.366,2.325-2.846,2.846-2.587L380.7-286.8l2.073-2.07,1.291-1.032,2.59-.262,17.591.52,13.976-.779h3.88l3.88.259,2.846.52,1.811.773.776,1.552.259,3.366.776,16.3v4.139l-.517,16.3v4.142l.259,16.3v4.139l-.259,16.3v4.139l-.776,16.3.259,3.363,2.07,2.846,3.363,2.328,7.243.517h1.555l3.1.776,1.811,1.811.776,3.366.259,2.328.259,4.139-.517,5.95.259,4.139ZM358.965-176.84H363.1l10.61-.256,3.622-.52,2.328-1.552,1.552-2.846.262-3.622,1.035-13.714V-217.2l-.517-3.1L380.44-221.6l-1.808.259-2.331,2.069-9.057,9.057-2.846,3.1-8.02,10.089-2.846,3.1-9.057,8.8-1.811,2.328v2.328l2.07,2.328,3.363.776Z" transform="translate(100.006 293.013)" fill="#fff"/>
    </g>
  </g>
</svg>
