<svg xmlns="http://www.w3.org/2000/svg" width="1278.265" height="1306.29" viewBox="0 0 1278.265 1306.29">
  <g id="White_Stars" data-name="White Stars" transform="translate(-18.903 -11.435)">
    <g id="Group_3413" data-name="Group 3413" transform="translate(33.81 11.435)">
      <path id="Path_13061" data-name="Path 13061" d="M91.622,217.479l.591-19.871,2.544,19.968,14.915,1.229-14.4,2.142-1.019,19-2.963-18.725-13.958-1.106Z" transform="translate(68.819 315.568)" fill="#fff"/>
      <path id="Path_13062" data-name="Path 13062" d="M132.451,109.105l.8-27.015,3.458,27.146,20.276,1.671-19.574,2.912-1.385,25.825L132,114.187l-18.976-1.5Z" transform="translate(131.51 112.668)" fill="#fff"/>
      <path id="Path_13063" data-name="Path 13063" d="M220.987,112.181l.448-15.065,1.929,15.139,11.308.932-10.916,1.624-.772,14.4-2.247-14.2-10.583-.839Z" transform="translate(302.112 139.059)" fill="#fff"/>
      <path id="Path_13064" data-name="Path 13064" d="M430.929,52.206l.591-19.871L434.064,52.3l14.915,1.229-14.4,2.142-1.019,19L430.6,55.944,416.64,54.838Z" transform="translate(664.794 25.275)" fill="#fff"/>
      <path id="Path_13065" data-name="Path 13065" d="M351.425,160.982l.591-19.871,2.544,19.968,14.914,1.229-14.4,2.142-1.019,19-2.963-18.725-13.958-1.106Z" transform="translate(525.15 216.335)" fill="#fff"/>
      <path id="Path_13066" data-name="Path 13066" d="M251.348,31.306l.591-19.871L254.483,31.4,269.4,32.631,255,34.773l-1.019,19-2.963-18.725-13.958-1.106Z" transform="translate(349.37 -11.435)" fill="#fff"/>
      <path id="Path_13067" data-name="Path 13067" d="M183.93,415.725l.591-19.871,2.544,19.967,14.915,1.229-14.4,2.142-1.019,19L183.6,419.463l-13.958-1.106Z" transform="translate(230.954 663.777)" fill="#fff"/>
      <path id="Path_13068" data-name="Path 13068" d="M452.507,117.917,453,101.464,455.1,118l12.349,1.018-11.922,1.773-.844,15.729-2.453-15.5-11.558-.916Z" transform="translate(707.012 146.696)" fill="#fff"/>
      <path id="Path_13069" data-name="Path 13069" d="M420.941,238.6l.37-12.43,1.591,12.491,9.33.769-9.007,1.34-.637,11.883-1.853-11.714L412,240.251Z" transform="translate(656.65 365.743)" fill="#fff"/>
      <path id="Path_13070" data-name="Path 13070" d="M33.25,322.968l.37-12.43,1.591,12.491,9.33.768-9.007,1.34L34.9,337.021l-1.853-11.714-8.731-.692Z" transform="translate(-24.311 513.925)" fill="#fff"/>
      <path id="Path_13071" data-name="Path 13071" d="M377.668,307.195l.37-12.43,1.591,12.491,9.33.768-9.007,1.34-.637,11.883-1.853-11.714-8.732-.692Z" transform="translate(580.642 486.219)" fill="#fff"/>
      <path id="Path_13072" data-name="Path 13072" d="M318.678,405.421l.369-12.43,1.592,12.491,9.33.769-9.007,1.34-.638,11.883-1.854-11.714-8.732-.692Z" transform="translate(477.028 658.748)" fill="#fff"/>
      <path id="Path_13073" data-name="Path 13073" d="M202.6,333.94l.549-18.451,2.362,18.541,13.849,1.141-13.369,1.989-.946,17.638-2.751-17.387-12.961-1.027Z" transform="translate(265.538 522.621)" fill="#fff"/>
      <path id="Path_13074" data-name="Path 13074" d="M79.708,396.794l.549-18.451,2.362,18.541,13.848,1.141L83.1,400.013l-.946,17.639L79.4,400.265,66.44,399.238Z" transform="translate(49.686 633.02)" fill="#fff"/>
      <path id="Path_13075" data-name="Path 13075" d="M435.774,474.934l.549-18.451,2.362,18.541,13.849,1.141-13.369,1.989-.946,17.639L435.467,478.4l-12.961-1.027Z" transform="translate(675.097 770.27)" fill="#fff"/>
    </g>
    <g id="Group_3506" data-name="Group 3506" transform="translate(18.903 16.052)">
      <g id="Group_3414" data-name="Group 3414" transform="translate(80.747 46.186)">
        <path id="Path_13076" data-name="Path 13076" d="M52.558,32.229l-1.976,1.976c-3.065,3.062-3.291,8.672,0,11.693a8.414,8.414,0,0,0,11.693,0l1.976-1.976c3.065-3.062,3.291-8.672,0-11.693a8.414,8.414,0,0,0-11.693,0Z" transform="translate(-48.197 -29.865)" fill="#fff"/>
      </g>
      <g id="Group_3415" data-name="Group 3415" transform="translate(315.263)">
        <path id="Path_13077" data-name="Path 13077" d="M134.274,15.177a1.034,1.034,0,0,0,0-2.067,1.034,1.034,0,0,0,0,2.067Z" transform="translate(-133.276 -13.11)" fill="#fff"/>
      </g>
      <g id="Group_3416" data-name="Group 3416" transform="translate(1037.596 81.883)">
        <path id="Path_13078" data-name="Path 13078" d="M399.322,51.085c5.32,0,5.331-8.269,0-8.269s-5.331,8.269,0,8.269Z" transform="translate(-395.328 -42.816)" fill="#fff"/>
      </g>
      <g id="Group_3417" data-name="Group 3417" transform="translate(1073.03 245.919)">
        <path id="Path_13079" data-name="Path 13079" d="M408.183,106.464v1.976a4.135,4.135,0,0,0,8.269,0v-1.976a4.135,4.135,0,0,0-8.269,0Z" transform="translate(-408.183 -102.326)" fill="#fff"/>
      </g>
      <g id="Group_3418" data-name="Group 3418" transform="translate(1038.615 428.873)">
        <path id="Path_13080" data-name="Path 13080" d="M396.7,170.766a1.034,1.034,0,0,0,0-2.067,1.034,1.034,0,0,0,0,2.067Z" transform="translate(-395.698 -168.699)" fill="#fff"/>
      </g>
      <g id="Group_3419" data-name="Group 3419" transform="translate(958.526 619.317)">
        <path id="Path_13081" data-name="Path 13081" d="M376.785,240.28l-3.947-1.982a4.237,4.237,0,0,0-5.659,1.483,4.175,4.175,0,0,0,1.486,5.656l3.947,1.985a4.236,4.236,0,0,0,5.656-1.483,4.176,4.176,0,0,0-1.483-5.659Z" transform="translate(-366.642 -237.789)" fill="#fff"/>
      </g>
      <g id="Group_3420" data-name="Group 3420" transform="translate(889.368 556.213)">
        <path id="Path_13082" data-name="Path 13082" d="M345.547,223.165c5.32,0,5.331-8.269,0-8.269s-5.331,8.269,0,8.269Z" transform="translate(-341.553 -214.896)" fill="#fff"/>
      </g>
      <g id="Group_3421" data-name="Group 3421" transform="translate(345.865 510.756)">
        <path id="Path_13083" data-name="Path 13083" d="M148.372,206.674c5.32,0,5.331-8.269,0-8.269s-5.331,8.269,0,8.269Z" transform="translate(-144.378 -198.405)" fill="#fff"/>
      </g>
      <g id="Group_3422" data-name="Group 3422" transform="translate(497.089 596.865)">
        <path id="Path_13084" data-name="Path 13084" d="M200.238,231.711a1.034,1.034,0,0,0,0-2.067,1.034,1.034,0,0,0,0,2.067Z" transform="translate(-199.24 -229.644)" fill="#fff"/>
      </g>
      <g id="Group_3423" data-name="Group 3423" transform="translate(225.307 785.472)">
        <path id="Path_13085" data-name="Path 13085" d="M104.635,306.337c5.32,0,5.331-8.269,0-8.269s-5.331,8.269,0,8.269Z" transform="translate(-100.641 -298.068)" fill="#fff"/>
      </g>
      <g id="Group_3424" data-name="Group 3424" transform="translate(837.982 828.952)">
        <path id="Path_13086" data-name="Path 13086" d="M326.905,322.111c5.32,0,5.331-8.269,0-8.269s-5.331,8.269,0,8.269Z" transform="translate(-322.911 -313.842)" fill="#fff"/>
      </g>
      <g id="Group_3425" data-name="Group 3425" transform="translate(417.015 1133.314)">
        <path id="Path_13087" data-name="Path 13087" d="M174.184,432.529c5.32,0,5.331-8.269,0-8.269s-5.331,8.269,0,8.269Z" transform="translate(-170.19 -424.26)" fill="#fff"/>
      </g>
      <g id="Group_3426" data-name="Group 3426" transform="translate(727.306 1016.708)">
        <path id="Path_13088" data-name="Path 13088" d="M286.753,390.226c5.32,0,5.331-8.269,0-8.269s-5.331,8.269,0,8.269Z" transform="translate(-282.759 -381.957)" fill="#fff"/>
      </g>
      <g id="Group_3427" data-name="Group 3427" transform="translate(1171.99 1123.432)">
        <path id="Path_13089" data-name="Path 13089" d="M448.078,428.944c5.32,0,5.331-8.269,0-8.269s-5.331,8.269,0,8.269Z" transform="translate(-444.084 -420.675)" fill="#fff"/>
      </g>
      <g id="Group_3428" data-name="Group 3428" transform="translate(1156.179 886.267)">
        <path id="Path_13090" data-name="Path 13090" d="M442.342,342.9c5.32,0,5.331-8.269,0-8.269s-5.331,8.269,0,8.269Z" transform="translate(-438.348 -334.635)" fill="#fff"/>
      </g>
      <g id="Group_3429" data-name="Group 3429" transform="translate(1011.903 1024.613)">
        <path id="Path_13091" data-name="Path 13091" d="M390,393.094c5.32,0,5.331-8.269,0-8.269s-5.331,8.269,0,8.269Z" transform="translate(-386.007 -384.825)" fill="#fff"/>
      </g>
      <g id="Group_3430" data-name="Group 3430" transform="translate(962.494 1117.503)">
        <path id="Path_13092" data-name="Path 13092" d="M372.076,426.793c5.32,0,5.331-8.269,0-8.269s-5.331,8.269,0,8.269Z" transform="translate(-368.082 -418.524)" fill="#fff"/>
      </g>
      <g id="Group_3431" data-name="Group 3431" transform="translate(130.441 1160.983)">
        <path id="Path_13093" data-name="Path 13093" d="M70.219,442.567c5.32,0,5.331-8.269,0-8.269s-5.331,8.269,0,8.269Z" transform="translate(-66.225 -434.298)" fill="#fff"/>
      </g>
      <g id="Group_3432" data-name="Group 3432" transform="translate(148.087 813.138)">
        <path id="Path_13094" data-name="Path 13094" d="M72.627,312.243v1.976a4.135,4.135,0,0,0,8.269,0v-1.976a4.135,4.135,0,0,0-8.269,0Z" transform="translate(-72.627 -308.105)" fill="#fff"/>
      </g>
      <g id="Group_3433" data-name="Group 3433" transform="translate(61.175 574.18)">
        <path id="Path_13095" data-name="Path 13095" d="M47.176,228.773,45.2,222.844c-.838-2.514-4.832-1.436-3.986,1.1l1.976,5.929c.838,2.514,4.832,1.436,3.986-1.1Z" transform="translate(-41.097 -221.414)" fill="#fff"/>
      </g>
      <g id="Group_3434" data-name="Group 3434" transform="translate(43.501 271.706)">
        <path id="Path_13096" data-name="Path 13096" d="M36.682,115.816c2.66,0,2.665-4.135,0-4.135s-2.665,4.135,0,4.135Z" transform="translate(-34.684 -111.681)" fill="#fff"/>
      </g>
      <g id="Group_3435" data-name="Group 3435" transform="translate(168.012 380.406)">
        <path id="Path_13097" data-name="Path 13097" d="M81.853,155.251c2.66,0,2.665-4.135,0-4.135s-2.665,4.135,0,4.135Z" transform="translate(-79.855 -151.116)" fill="#fff"/>
      </g>
      <g id="Group_3436" data-name="Group 3436" transform="translate(264.834 396.126)">
        <path id="Path_13098" data-name="Path 13098" d="M118.975,165.088c5.32,0,5.331-8.269,0-8.269s-5.331,8.269,0,8.269Z" transform="translate(-114.981 -156.819)" fill="#fff"/>
      </g>
      <g id="Group_3437" data-name="Group 3437" transform="translate(303.404 675.92)">
        <path id="Path_13099" data-name="Path 13099" d="M129.972,260.391a1.034,1.034,0,0,0,0-2.067,1.034,1.034,0,0,0,0,2.067Z" transform="translate(-128.974 -258.324)" fill="#fff"/>
      </g>
      <g id="Group_3438" data-name="Group 3438" transform="translate(449.656 707.542)">
        <path id="Path_13100" data-name="Path 13100" d="M183.03,271.863a1.034,1.034,0,0,0,0-2.067,1.034,1.034,0,0,0,0,2.067Z" transform="translate(-182.032 -269.796)" fill="#fff"/>
      </g>
      <g id="Group_3439" data-name="Group 3439" transform="translate(782.644 453.441)">
        <path id="Path_13101" data-name="Path 13101" d="M306.829,185.881c5.32,0,5.331-8.269,0-8.269s-5.331,8.269,0,8.269Z" transform="translate(-302.835 -177.612)" fill="#fff"/>
      </g>
      <g id="Group_3440" data-name="Group 3440" transform="translate(992.14 323.001)">
        <path id="Path_13102" data-name="Path 13102" d="M382.831,138.559c5.32,0,5.331-8.269,0-8.269s-5.331,8.269,0,8.269Z" transform="translate(-378.837 -130.29)" fill="#fff"/>
      </g>
      <g id="Group_3441" data-name="Group 3441" transform="translate(1248.111 448.637)">
        <path id="Path_13103" data-name="Path 13103" d="M472.7,177.936a1.034,1.034,0,0,0,0-2.067,1.034,1.034,0,0,0,0,2.067Z" transform="translate(-471.7 -175.869)" fill="#fff"/>
      </g>
      <g id="Group_3442" data-name="Group 3442" transform="translate(1197.682 623.409)">
        <path id="Path_13104" data-name="Path 13104" d="M457.4,247.543c5.32,0,5.331-8.269,0-8.269s-5.331,8.269,0,8.269Z" transform="translate(-453.405 -239.274)" fill="#fff"/>
      </g>
      <g id="Group_3443" data-name="Group 3443" transform="translate(838.225 34.552)">
        <path id="Path_13105" data-name="Path 13105" d="M330.987,42.184c10.643,0,10.659-16.539,0-16.539-10.643,0-10.659,16.539,0,16.539Z" transform="translate(-322.999 -25.645)" fill="#fff"/>
      </g>
      <g id="Group_3444" data-name="Group 3444" transform="translate(1256.932 178.543)">
        <path id="Path_13106" data-name="Path 13106" d="M482.888,94.422c10.643,0,10.659-16.539,0-16.539-10.643,0-10.659,16.539,0,16.539Z" transform="translate(-474.9 -77.883)" fill="#fff"/>
      </g>
      <g id="Group_3445" data-name="Group 3445" transform="translate(1140.368 433.678)">
        <path id="Path_13107" data-name="Path 13107" d="M436.606,178.711c5.32,0,5.331-8.269,0-8.269s-5.331,8.269,0,8.269Z" transform="translate(-432.612 -170.442)" fill="#fff"/>
      </g>
      <g id="Group_3446" data-name="Group 3446" transform="translate(998.069 544.355)">
        <path id="Path_13108" data-name="Path 13108" d="M384.982,218.863c5.32,0,5.331-8.269,0-8.269s-5.331,8.269,0,8.269Z" transform="translate(-380.988 -210.594)" fill="#fff"/>
      </g>
      <g id="Group_3447" data-name="Group 3447" transform="translate(1189.736 65.89)">
        <path id="Path_13109" data-name="Path 13109" d="M458.51,53.553c10.643,0,10.659-16.539,0-16.539-10.643,0-10.659,16.539,0,16.539Z" transform="translate(-450.522 -37.014)" fill="#fff"/>
      </g>
      <g id="Group_3448" data-name="Group 3448" transform="translate(511.74 769.658)">
        <path id="Path_13110" data-name="Path 13110" d="M204.555,296.469v1.976a4.135,4.135,0,1,0,8.269,0v-1.976a4.135,4.135,0,1,0-8.269,0Z" transform="translate(-204.555 -292.331)" fill="#fff"/>
      </g>
      <g id="Group_3449" data-name="Group 3449" transform="translate(1120.32 733.964)">
        <path id="Path_13111" data-name="Path 13111" d="M429.7,281.745l-1.976,1.976c-3.065,3.062-3.291,8.672,0,11.693a8.414,8.414,0,0,0,11.693,0l1.976-1.976c3.065-3.062,3.291-8.672,0-11.693a8.414,8.414,0,0,0-11.693,0Z" transform="translate(-425.339 -279.381)" fill="#fff"/>
      </g>
      <g id="Group_3450" data-name="Group 3450" transform="translate(551.124 1044.254)">
        <path id="Path_13112" data-name="Path 13112" d="M232.92,407.983l1.976-1.976c3.065-3.062,3.291-8.672,0-11.693a8.414,8.414,0,0,0-11.693,0l-1.976,1.976c-3.065,3.062-3.291,8.672,0,11.693a8.414,8.414,0,0,0,11.693,0Z" transform="translate(-218.843 -391.95)" fill="#fff"/>
      </g>
      <g id="Group_3451" data-name="Group 3451" transform="translate(320.131 951.306)">
        <path id="Path_13113" data-name="Path 13113" d="M143.03,374.769c10.643,0,10.659-16.539,0-16.539-10.643,0-10.659,16.539,0,16.539Z" transform="translate(-135.042 -358.23)" fill="#fff"/>
      </g>
      <g id="Group_3452" data-name="Group 3452" transform="translate(0 969.275)">
        <path id="Path_13114" data-name="Path 13114" d="M22.9,373.018c5.32,0,5.331-8.269,0-8.269s-5.331,8.269,0,8.269Z" transform="translate(-18.903 -364.749)" fill="#fff"/>
      </g>
      <g id="Group_3453" data-name="Group 3453" transform="translate(231.236 1072.046)">
        <path id="Path_13115" data-name="Path 13115" d="M106.786,410.3c5.32,0,5.331-8.269,0-8.269s-5.331,8.269,0,8.269Z" transform="translate(-102.792 -402.033)" fill="#fff"/>
      </g>
      <g id="Group_3454" data-name="Group 3454" transform="translate(792.547 917.98)">
        <path id="Path_13116" data-name="Path 13116" d="M312.377,346.14h-3.953c-2.66,0-2.665,4.135,0,4.135h3.953c2.66,0,2.666-4.135,0-4.135Z" transform="translate(-306.428 -346.14)" fill="#fff"/>
      </g>
      <g id="Group_3455" data-name="Group 3455" transform="translate(926.87 674.956)">
        <path id="Path_13117" data-name="Path 13117" d="M359.293,261.948v-1.976c0-2.66-4.135-2.666-4.135,0v1.976c0,2.66,4.135,2.665,4.135,0Z" transform="translate(-355.158 -257.975)" fill="#fff"/>
      </g>
      <g id="Group_3456" data-name="Group 3456" transform="translate(970.399 206.395)">
        <path id="Path_13118" data-name="Path 13118" d="M374.944,96.256c5.32,0,5.331-8.269,0-8.269s-5.331,8.269,0,8.269Z" transform="translate(-370.95 -87.987)" fill="#fff"/>
      </g>
      <g id="Group_3457" data-name="Group 3457" transform="translate(525.715 28.521)">
        <path id="Path_13119" data-name="Path 13119" d="M213.619,31.726c5.32,0,5.331-8.269,0-8.269s-5.331,8.269,0,8.269Z" transform="translate(-209.625 -23.457)" fill="#fff"/>
      </g>
      <g id="Group_3458" data-name="Group 3458" transform="translate(705.565 54.214)">
        <path id="Path_13120" data-name="Path 13120" d="M278.866,41.047c5.32,0,5.331-8.269,0-8.269s-5.331,8.269,0,8.269Z" transform="translate(-274.872 -32.778)" fill="#fff"/>
      </g>
      <g id="Group_3459" data-name="Group 3459" transform="translate(248.908 95.741)">
        <path id="Path_13121" data-name="Path 13121" d="M112.364,49.03l-1.976,1.976a4.136,4.136,0,0,0,5.849,5.849l1.976-1.976a4.136,4.136,0,0,0-5.849-5.849Z" transform="translate(-109.203 -47.844)" fill="#fff"/>
      </g>
      <g id="Group_3460" data-name="Group 3460" transform="translate(175.897 257.78)">
        <path id="Path_13122" data-name="Path 13122" d="M86.71,114.9c5.32,0,5.331-8.269,0-8.269s-5.331,8.269,0,8.269Z" transform="translate(-82.716 -106.629)" fill="#fff"/>
      </g>
      <g id="Group_3461" data-name="Group 3461" transform="translate(49.43 378.43)">
        <path id="Path_13123" data-name="Path 13123" d="M38.833,154.534c2.66,0,2.665-4.135,0-4.135s-2.665,4.135,0,4.135Z" transform="translate(-36.835 -150.399)" fill="#fff"/>
      </g>
      <g id="Group_3462" data-name="Group 3462" transform="translate(126.488 153.033)">
        <path id="Path_13124" data-name="Path 13124" d="M68.785,76.9c5.32,0,5.331-8.269,0-8.269s-5.331,8.269,0,8.269Z" transform="translate(-64.791 -68.628)" fill="#fff"/>
      </g>
      <g id="Group_3463" data-name="Group 3463" transform="translate(413.062 40.379)">
        <path id="Path_13125" data-name="Path 13125" d="M172.75,36.028c5.32,0,5.331-8.269,0-8.269s-5.331,8.269,0,8.269Z" transform="translate(-168.756 -27.759)" fill="#fff"/>
      </g>
      <g id="Group_3464" data-name="Group 3464" transform="translate(427.678 146.888)">
        <path id="Path_13126" data-name="Path 13126" d="M178.051,74.668c5.323,0,5.331-8.269,0-8.269s-5.328,8.269,0,8.269Z" transform="translate(-174.058 -66.399)" fill="#fff"/>
      </g>
      <g id="Group_3465" data-name="Group 3465" transform="translate(928.896 20.615)">
        <path id="Path_13127" data-name="Path 13127" d="M359.887,28.858c5.32,0,5.331-8.269,0-8.269s-5.331,8.269,0,8.269Z" transform="translate(-355.893 -20.589)" fill="#fff"/>
      </g>
      <g id="Group_3466" data-name="Group 3466" transform="translate(889.368 224.959)">
        <path id="Path_13128" data-name="Path 13128" d="M345.547,102.991c5.32,0,5.331-8.269,0-8.269s-5.331,8.269,0,8.269Z" transform="translate(-341.553 -94.722)" fill="#fff"/>
      </g>
      <g id="Group_3467" data-name="Group 3467" transform="translate(717.424 836.858)">
        <path id="Path_13129" data-name="Path 13129" d="M283.168,324.979c5.32,0,5.331-8.269,0-8.269s-5.331,8.269,0,8.269Z" transform="translate(-279.174 -316.71)" fill="#fff"/>
      </g>
      <g id="Group_3468" data-name="Group 3468" transform="translate(928.896 935.677)">
        <path id="Path_13130" data-name="Path 13130" d="M359.887,360.829c5.32,0,5.331-8.269,0-8.269s-5.331,8.269,0,8.269Z" transform="translate(-355.893 -352.56)" fill="#fff"/>
      </g>
      <g id="Group_3469" data-name="Group 3469" transform="translate(1043.525 805.236)">
        <path id="Path_13131" data-name="Path 13131" d="M401.473,313.507c5.32,0,5.331-8.269,0-8.269s-5.331,8.269,0,8.269Z" transform="translate(-397.479 -305.238)" fill="#fff"/>
      </g>
      <g id="Group_3470" data-name="Group 3470" transform="translate(1249.068 755.826)">
        <path id="Path_13132" data-name="Path 13132" d="M476.041,295.582c5.32,0,5.331-8.269,0-8.269s-5.331,8.269,0,8.269Z" transform="translate(-472.047 -287.313)" fill="#fff"/>
      </g>
      <g id="Group_3471" data-name="Group 3471" transform="translate(1164.084 657.008)">
        <path id="Path_13133" data-name="Path 13133" d="M445.21,259.732c5.32,0,5.331-8.269,0-8.269s-5.331,8.269,0,8.269Z" transform="translate(-441.216 -251.463)" fill="#fff"/>
      </g>
      <g id="Group_3472" data-name="Group 3472" transform="translate(1007.951 927.771)">
        <path id="Path_13134" data-name="Path 13134" d="M388.567,357.961c5.32,0,5.331-8.269,0-8.269s-5.331,8.269,0,8.269Z" transform="translate(-384.573 -349.692)" fill="#fff"/>
      </g>
      <g id="Group_3473" data-name="Group 3473" transform="translate(1124.557 1016.708)">
        <path id="Path_13135" data-name="Path 13135" d="M430.87,390.226c5.32,0,5.331-8.269,0-8.269s-5.331,8.269,0,8.269Z" transform="translate(-426.876 -381.957)" fill="#fff"/>
      </g>
      <g id="Group_3474" data-name="Group 3474" transform="translate(841.935 1155.054)">
        <path id="Path_13136" data-name="Path 13136" d="M328.339,440.416c5.32,0,5.331-8.269,0-8.269s-5.331,8.269,0,8.269Z" transform="translate(-324.345 -432.147)" fill="#fff"/>
      </g>
      <g id="Group_3475" data-name="Group 3475" transform="translate(634.416 1123.432)">
        <path id="Path_13137" data-name="Path 13137" d="M253.054,428.944c5.32,0,5.331-8.269,0-8.269s-5.331,8.269,0,8.269Z" transform="translate(-249.06 -420.675)" fill="#fff"/>
      </g>
      <g id="Group_3476" data-name="Group 3476" transform="translate(1075.007 1142.114)">
        <path id="Path_13138" data-name="Path 13138" d="M417.169,432.669v-1.224c0-5.32-8.269-5.328-8.269,0v1.224c0,5.32,8.269,5.331,8.269,0v-1.224c0-5.32-8.269-5.328-8.269,0v1.224c0,5.32,8.269,5.331,8.269,0Z" transform="translate(-408.9 -427.452)" fill="#fff"/>
      </g>
      <g id="Group_3477" data-name="Group 3477" transform="translate(1239.186 1117.503)">
        <path id="Path_13139" data-name="Path 13139" d="M472.456,426.793c5.32,0,5.331-8.269,0-8.269s-5.331,8.269,0,8.269Z" transform="translate(-468.462 -418.524)" fill="#fff"/>
      </g>
      <g id="Group_3478" data-name="Group 3478" transform="translate(849.841 736.063)">
        <path id="Path_13140" data-name="Path 13140" d="M331.207,288.412c5.32,0,5.331-8.269,0-8.269s-5.331,8.269,0,8.269Z" transform="translate(-327.213 -280.143)" fill="#fff"/>
      </g>
      <g id="Group_3479" data-name="Group 3479" transform="translate(1092.791 348.694)">
        <path id="Path_13141" data-name="Path 13141" d="M421.466,139.611H419.49a4.135,4.135,0,0,0,0,8.269h1.976a4.135,4.135,0,0,0,0-8.269Z" transform="translate(-415.352 -139.611)" fill="#fff"/>
      </g>
      <g id="Group_3480" data-name="Group 3480" transform="translate(1203.57 253.646)">
        <path id="Path_13142" data-name="Path 13142" d="M463.529,121.668c10.643,0,10.659-16.539,0-16.539-10.643,0-10.659,16.539,0,16.539Z" transform="translate(-455.541 -105.129)" fill="#fff"/>
      </g>
      <g id="Group_3481" data-name="Group 3481" transform="translate(1102.775 14.504)">
        <path id="Path_13143" data-name="Path 13143" d="M426.962,34.911c10.643,0,10.659-16.539,0-16.539-10.643,0-10.659,16.539,0,16.539Z" transform="translate(-418.974 -18.372)" fill="#fff"/>
      </g>
      <g id="Group_3482" data-name="Group 3482" transform="translate(848.016 226.96)">
        <path id="Path_13144" data-name="Path 13144" d="M330.545,103.717c5.32,0,5.331-8.269,0-8.269s-5.331,8.269,0,8.269Z" transform="translate(-326.551 -95.448)" fill="#fff"/>
      </g>
      <g id="Group_3483" data-name="Group 3483" transform="translate(397.144 338.564)">
        <path id="Path_13145" data-name="Path 13145" d="M170.969,152.475c10.643,0,10.659-16.539,0-16.539-10.643,0-10.659,16.539,0,16.539Z" transform="translate(-162.981 -135.936)" fill="#fff"/>
      </g>
      <g id="Group_3484" data-name="Group 3484" transform="translate(447.342 249.354)">
        <path id="Path_13146" data-name="Path 13146" d="M185.185,111.841c5.323,0,5.331-8.269,0-8.269s-5.328,8.269,0,8.269Z" transform="translate(-181.192 -103.572)" fill="#fff"/>
      </g>
      <g id="Group_3485" data-name="Group 3485" transform="translate(898.149 144.03)">
        <path id="Path_13147" data-name="Path 13147" d="M352.725,81.9c10.643,0,10.659-16.539,0-16.539-10.64,0-10.659,16.539,0,16.539Z" transform="translate(-344.738 -65.362)" fill="#fff"/>
      </g>
      <g id="Group_3486" data-name="Group 3486" transform="translate(458.519 522.614)">
        <path id="Path_13148" data-name="Path 13148" d="M189.241,210.976c5.32,0,5.331-8.269,0-8.269s-5.331,8.269,0,8.269Z" transform="translate(-185.247 -202.707)" fill="#fff"/>
      </g>
      <g id="Group_3487" data-name="Group 3487" transform="translate(798.455 489.016)">
        <path id="Path_13149" data-name="Path 13149" d="M312.565,198.787c5.32,0,5.331-8.269,0-8.269s-5.331,8.269,0,8.269Z" transform="translate(-308.571 -190.518)" fill="#fff"/>
      </g>
      <g id="Group_3488" data-name="Group 3488" transform="translate(367.283 785.283)">
        <path id="Path_13150" data-name="Path 13150" d="M168.687,308.252v-1.976c0-4.325-3.8-8.471-8.269-8.269a8.414,8.414,0,0,0-8.269,8.269v1.976c0,4.325,3.8,8.471,8.269,8.269a8.414,8.414,0,0,0,8.269-8.269Z" transform="translate(-152.148 -297.999)" fill="#fff"/>
      </g>
      <g id="Group_3489" data-name="Group 3489" transform="translate(84.984 755.826)">
        <path id="Path_13151" data-name="Path 13151" d="M53.728,295.582c5.32,0,5.331-8.269,0-8.269s-5.331,8.269,0,8.269Z" transform="translate(-49.734 -287.313)" fill="#fff"/>
      </g>
      <g id="Group_3490" data-name="Group 3490" transform="translate(118.541 314.913)">
        <path id="Path_13152" data-name="Path 13152" d="M69.9,143.895c10.643,0,10.659-16.539,0-16.539-10.643,0-10.659,16.539,0,16.539Z" transform="translate(-61.908 -127.356)" fill="#fff"/>
      </g>
      <g id="Group_3491" data-name="Group 3491" transform="translate(267.643 586.813)">
        <path id="Path_13153" data-name="Path 13153" d="M132.539,236.112v-1.839c0-4.325-3.8-8.471-8.269-8.269A8.414,8.414,0,0,0,116,234.274v1.839c0,4.325,3.8,8.468,8.269,8.269a8.414,8.414,0,0,0,8.269-8.269Z" transform="translate(-116 -225.997)" fill="#fff"/>
      </g>
      <g id="Group_3492" data-name="Group 3492" transform="translate(250.999 1259.802)">
        <path id="Path_13154" data-name="Path 13154" d="M113.956,478.417c5.32,0,5.331-8.269,0-8.269s-5.331,8.269,0,8.269Z" transform="translate(-109.962 -470.148)" fill="#fff"/>
      </g>
      <g id="Group_3493" data-name="Group 3493" transform="translate(972.376 1291.424)">
        <path id="Path_13155" data-name="Path 13155" d="M375.661,489.889c5.32,0,5.331-8.269,0-8.269s-5.331,8.269,0,8.269Z" transform="translate(-371.667 -481.62)" fill="#fff"/>
      </g>
      <g id="Group_3494" data-name="Group 3494" transform="translate(33.458 1291.42)">
        <path id="Path_13156" data-name="Path 13156" d="M39.31,487.733v-1.976a4.135,4.135,0,1,0-8.269,0v1.976a4.135,4.135,0,1,0,8.269,0Z" transform="translate(-31.041 -481.619)" fill="#fff"/>
      </g>
      <g id="Group_3495" data-name="Group 3495" transform="translate(1035.62 1188.652)">
        <path id="Path_13157" data-name="Path 13157" d="M398.605,452.605c5.32,0,5.331-8.269,0-8.269s-5.331,8.269,0,8.269Z" transform="translate(-394.611 -444.336)" fill="#fff"/>
      </g>
      <g id="Group_3496" data-name="Group 3496" transform="translate(758.284 114.489)">
        <path id="Path_13158" data-name="Path 13158" d="M297.99,62.914c5.323,0,5.331-8.269,0-8.269s-5.328,8.269,0,8.269Z" transform="translate(-293.997 -54.645)" fill="#fff"/>
      </g>
      <g id="Group_3497" data-name="Group 3497" transform="translate(507.103 378.334)">
        <path id="Path_13159" data-name="Path 13159" d="M206.868,158.633c5.32,0,5.328-8.269,0-8.269s-5.331,8.269,0,8.269Z" transform="translate(-202.873 -150.364)" fill="#fff"/>
      </g>
      <g id="Group_3498" data-name="Group 3498" transform="translate(800.499 357.228)">
        <path id="Path_13160" data-name="Path 13160" d="M313.308,150.976c5.32,0,5.328-8.269,0-8.269s-5.331,8.269,0,8.269Z" transform="translate(-309.313 -142.707)" fill="#fff"/>
      </g>
      <g id="Group_3499" data-name="Group 3499" transform="translate(517.657 192.588)">
        <path id="Path_13161" data-name="Path 13161" d="M210.694,91.247c5.323,0,5.331-8.269,0-8.269s-5.328,8.269,0,8.269Z" transform="translate(-206.701 -82.978)" fill="#fff"/>
      </g>
      <g id="Group_3500" data-name="Group 3500" transform="translate(458.556 340.341)">
        <path id="Path_13162" data-name="Path 13162" d="M189.253,144.85c5.323,0,5.331-8.269,0-8.269s-5.328,8.269,0,8.269Z" transform="translate(-185.26 -136.581)" fill="#fff"/>
      </g>
      <g id="Group_3501" data-name="Group 3501" transform="translate(606.17 893.613)">
        <path id="Path_13163" data-name="Path 13163" d="M242.808,345.569c5.32,0,5.328-8.269,0-8.269s-5.331,8.269,0,8.269Z" transform="translate(-238.813 -337.3)" fill="#fff"/>
      </g>
      <g id="Group_3502" data-name="Group 3502" transform="translate(1233.832 739.734)">
        <path id="Path_13164" data-name="Path 13164" d="M470.512,289.744c5.323,0,5.331-8.269,0-8.269s-5.328,8.269,0,8.269Z" transform="translate(-466.519 -281.475)" fill="#fff"/>
      </g>
      <g id="Group_3503" data-name="Group 3503" transform="translate(1270.277 958.403)">
        <path id="Path_13165" data-name="Path 13165" d="M483.734,369.074c5.32,0,5.331-8.269,0-8.269s-5.328,8.269,0,8.269Z" transform="translate(-479.741 -360.805)" fill="#fff"/>
      </g>
      <g id="Group_3504" data-name="Group 3504" transform="translate(338.597 1185.609)">
        <path id="Path_13166" data-name="Path 13166" d="M156.005,447.855l-8.068-4.113a4.233,4.233,0,0,0-5.656,1.483,4.175,4.175,0,0,0,1.483,5.659l8.068,4.11a4.231,4.231,0,0,0,5.656-1.483,4.178,4.178,0,0,0-1.483-5.656Z" transform="translate(-141.741 -443.232)" fill="#fff"/>
      </g>
      <g id="Group_3505" data-name="Group 3505" transform="translate(249.82 901.712)">
        <path id="Path_13167" data-name="Path 13167" d="M113.528,348.507c5.32,0,5.328-8.269,0-8.269s-5.331,8.269,0,8.269Z" transform="translate(-109.534 -340.238)" fill="#fff"/>
      </g>
    </g>
  </g>
</svg>
