<svg id="Blue_Left_Orbit" data-name="Blue Left Orbit" xmlns="http://www.w3.org/2000/svg" width="238.297" height="238.297" viewBox="0 0 238.297 238.297">
  <circle id="Ellipse_98" data-name="Ellipse 98" cx="90.471" cy="90.471" r="90.471" transform="translate(0 72.526) rotate(-23.63)" fill="#7c848a"/>
  <path id="Path_13171" data-name="Path 13171" d="M108.819,227.01c-.105,1.854-9.95,2.8-21.988,2.109s-21.708-2.753-21.6-4.608,9.95-2.8,21.985-2.109S108.924,225.156,108.819,227.01Z" transform="translate(32.124 -177.925)" fill="#1d2b36"/>
  <path id="Path_13172" data-name="Path 13172" d="M65.68,259.98c0,9.269-5.382,16.782-12.02,16.782s-12.02-7.513-12.02-16.782S47.022,243.2,53.66,243.2,65.68,250.708,65.68,259.98Z" transform="translate(-2.072 -147.458)" fill="#1d2b36"/>
  <path id="Path_13173" data-name="Path 13173" d="M157.844,248.424c0,8.466-20.748,15.33-46.344,15.33s-46.344-6.864-46.344-15.33,20.751-15.332,46.344-15.332S157.844,239.956,157.844,248.424Z" transform="translate(32.017 -162.103)" fill="#1d2b36"/>
  <path id="Path_13174" data-name="Path 13174" d="M104.4,263.206c0,4.238-6.778,7.672-15.139,7.672s-15.136-3.434-15.136-7.672,6.778-7.67,15.136-7.67S104.4,258.97,104.4,263.206Z" transform="translate(45.021 -129.568)" fill="#1d2b36"/>
  <path id="Path_13175" data-name="Path 13175" d="M108.819,261.941c0,6.945-1.306,12.574-2.913,12.574s-2.913-5.629-2.913-12.574,1.3-12.571,2.913-12.571S108.819,255,108.819,261.941Z" transform="translate(86.867 -138.507)" fill="#1d2b36"/>
  <path id="Path_13176" data-name="Path 13176" d="M61.9,236.437c0,5.379-1.391,9.74-3.109,9.74s-3.109-4.36-3.109-9.74,1.391-9.74,3.109-9.74S61.9,231.057,61.9,236.437Z" transform="translate(18.286 -171.373)" fill="#1d2b36"/>
  <path id="Path_13177" data-name="Path 13177" d="M98.06,233.015c-5.36.438-9.82-.6-9.96-2.305s4.1-3.454,9.455-3.89,9.82.6,9.96,2.307S103.422,232.579,98.06,233.015Z" transform="translate(65.272 -171.34)" fill="#1d2b36"/>
  <path id="Path_13178" data-name="Path 13178" d="M104.858,275.39c0,2.751-10.146,4.98-22.661,4.98s-22.661-2.229-22.661-4.98,10.146-4.982,22.661-4.982S104.858,272.64,104.858,275.39Z" transform="translate(23.869 -108.01)" fill="#1d2b36"/>
  <ellipse id="Ellipse_99" data-name="Ellipse 99" cx="16.366" cy="1.969" rx="16.366" ry="1.969" transform="translate(134.285 184.017)" fill="#1d2b36"/>
</svg>
