<svg id="Orange_Right_Orbit" data-name="Orange Right Orbit" xmlns="http://www.w3.org/2000/svg" width="156.693" height="156.693" viewBox="0 0 156.693 156.693">
  <circle id="Ellipse_97" data-name="Ellipse 97" cx="78.347" cy="78.347" r="78.347" fill="#d3695c"/>
  <path id="Path_13168" data-name="Path 13168" d="M386.971,155.225a78.068,78.068,0,0,0-7.1,11.773c42.728-6.854,85.5-13.541,128.516-18.191a78.695,78.695,0,0,0-17.14-14.237c-4.613,1.428-9.225,2.827-13.845,4.137-23.021,6.531-46.6,10.935-70.289,14.325C400.422,153.99,393.7,154.8,386.971,155.225Z" transform="translate(-371.94 -123.021)" fill="#c74131"/>
  <path id="Path_13169" data-name="Path 13169" d="M385.039,217.942a309.69,309.69,0,0,0,66.717-25.091c11.621-5.989,22.9-12.733,35.061-17.527,14.132-5.573,28.947-8.348,44.046-9.99a77.851,77.851,0,0,0-5.318-16.6c-49.747,13.24-98.442,33.817-148.277,47.731A77.782,77.782,0,0,0,385.039,217.942Z" transform="translate(-375.706 -102.483)" fill="#c74131"/>
  <path id="Path_13170" data-name="Path 13170" d="M490.975,192.681a77.813,77.813,0,0,0,9.367-24.719,204.152,204.152,0,0,0-45.075,18.6c-20.758,11.479-38.309,26.394-56.877,40.654a78.166,78.166,0,0,0,23.34,4.069c9.639-9.257,19.531-18.137,31.088-24.763C464.708,199.709,477.63,195.662,490.975,192.681Z" transform="translate(-345.089 -74.616)" fill="#c74131"/>
</svg>
