<svg width="47" height="47" viewBox="0 0 47 47" fill="none" xmlns="http://www.w3.org/2000/svg">
<circle cx="23.5" cy="23.5" r="23.5" fill="#E73B2A"/>
<path d="M37.5403 11.5343C37.2646 11.1667 36.9888 11.0748 36.4374 11.3505C35.2426 11.9019 34.1397 12.5453 33.0369 13.2805C30.4635 14.9349 28.1658 16.8649 26.0519 19.0707C24.9491 20.2655 23.8462 21.3683 22.8352 22.655C22.5595 23.0227 22.3757 23.1146 22.008 22.7469C21.2728 21.9198 20.3537 21.0926 19.5266 20.2655C19.1589 19.8059 18.6994 19.4383 18.3318 18.9788C17.5046 18.1516 17.2289 18.0597 16.3098 18.7949C15.4827 19.2545 15.2989 19.8059 15.7584 20.6331C17.4127 23.7579 19.1589 26.9747 20.8133 30.0995C21.1809 30.7428 21.6404 31.2024 22.3757 31.2024C23.1109 31.2024 23.5705 30.7428 23.9381 30.0995C25.041 27.9856 26.2358 25.8718 27.5225 23.9417C29.4525 21.0007 31.5663 18.1516 34.1397 15.6701C35.1507 14.6591 36.2536 13.6482 37.2646 12.6372C37.7241 12.2696 37.7241 11.9019 37.5403 11.5343Z" fill="#0F2634"/>
<path d="M35.794 19.9897C35.7021 19.4382 35.5182 18.9787 35.3344 18.4273C35.2425 18.2434 34.5992 17.1406 34.6911 17.0487C34.1396 17.692 33.5882 18.3354 33.0368 18.8868C32.761 19.1625 32.761 19.3463 32.8529 19.714C33.5882 21.644 33.6801 23.574 33.3125 25.5041C32.1177 31.2942 26.6952 35.0624 20.8132 33.9595C15.4826 33.0404 11.2549 28.0775 12.082 21.8278C12.5415 18.4273 14.3797 15.762 17.3207 13.9238C19.3426 12.6371 21.6403 12.2695 24.0299 12.5452C25.5923 12.729 27.1547 13.1886 28.4414 14.1076C28.7171 14.2915 28.901 14.4753 29.1767 14.1995C29.82 13.6481 30.4634 13.1886 31.1067 12.729C31.1067 12.729 31.1067 12.6371 31.0148 12.6371C31.0148 12.5452 30.9229 12.5452 30.831 12.5452C27.6143 10.1556 23.938 9.23658 19.986 10.0637C12.5415 11.5343 8.03812 18.7949 9.41672 25.8717C10.6115 32.0295 15.9421 36.9005 22.8351 36.9005C25.5004 36.9005 27.9819 36.1653 30.2796 34.6948C32.761 33.0404 34.5992 30.7428 35.6101 27.8937C35.8859 27.0665 36.1616 26.1474 36.2535 25.3203C36.3454 24.6769 36.4373 23.9417 36.4373 23.2983C36.2535 22.1954 36.0697 21.0926 35.794 19.9897Z" fill="white"/>
</svg>
