<svg id="Layer_1" data-name="Layer 1" xmlns="http://www.w3.org/2000/svg" viewBox="0 0 120 120"><defs><style>.cls-1{fill:none;}.cls-2{fill:#fff;}</style></defs><title>blockchain hover</title><path class="cls-1" d="M80.84,66.82l-.35-.68a.25.25,0,0,1,.1-.33l2.26-1.28a.25.25,0,0,1,.33.08l.4.6a5.83,5.83,0,0,0-1.06-2.88A4.26,4.26,0,0,0,81.14,61l.35.74a.25.25,0,0,1-.1.32L79.17,63.3a.25.25,0,0,1-.33-.08l-.45-.67a4.46,4.46,0,0,0,.58,2.1A5.59,5.59,0,0,0,80.84,66.82Z"/><path class="cls-1" d="M74.47,49.32l.37.72a.25.25,0,0,1-.1.33l-2.26,1.27a.25.25,0,0,1-.33-.08l-.44-.69a5,5,0,0,0,.72,2.33,5.29,5.29,0,0,0,1.76,2l-.34-.71a.25.25,0,0,1,.1-.33l2.23-1.27a.25.25,0,0,1,.33.08l.43.66a5.21,5.21,0,0,0-.71-2.29A5.62,5.62,0,0,0,74.47,49.32Z"/><path class="cls-1" d="M68.67,88.72V86.15a.25.25,0,0,1,.23-.25l.77-.06a5.35,5.35,0,0,0-3-.55,4,4,0,0,0-2,.57l.73,0a.25.25,0,0,1,.23.25v2.56a.25.25,0,0,1-.23.25l-.69,0a5.82,5.82,0,0,0,2.85.49,4.79,4.79,0,0,0,2-.5l-.74,0A.25.25,0,0,1,68.67,88.72Z"/><path class="cls-1" d="M36.48,65.26h0l.42-.65a.25.25,0,0,1,.33-.08l2.25,1.29a.25.25,0,0,1,.1.33l-.34.67A5.45,5.45,0,0,0,41,64.72a4.77,4.77,0,0,0,.63-2.17l-.45.66a.25.25,0,0,1-.33.08L38.67,62a.25.25,0,0,1-.1-.33l.35-.71a6.27,6.27,0,0,0-2.15,2.8A3.32,3.32,0,0,0,36.48,65.26Z"/><path class="cls-1" d="M52.76,85.42a3.68,3.68,0,0,0-1.47.47l.71,0a.25.25,0,0,1,.24.25v2.56A.25.25,0,0,1,52,89l-.7.05a6.13,6.13,0,0,0,3.38.48,3.76,3.76,0,0,0,1.59-.5l-.86,0a.25.25,0,0,1-.24-.25V86.2a.25.25,0,0,1,.23-.25l.85-.07A6.4,6.4,0,0,0,52.76,85.42Z"/><path class="cls-1" d="M43.15,53.59l.43-.64a.25.25,0,0,1,.33-.08l2.23,1.3a.25.25,0,0,1,.1.33l-.34.65A5.52,5.52,0,0,0,47.77,53a4.35,4.35,0,0,0,.57-2.07l-.44.67a.25.25,0,0,1-.33.08l-2.24-1.28a.25.25,0,0,1-.1-.33l.36-.71a6.06,6.06,0,0,0-2,2.51A4.11,4.11,0,0,0,43.15,53.59Z"/><path class="cls-2" d="M44.75,95.21q-5.43,3.13-10.86,6.29a1.53,1.53,0,0,1-1.75,0C27.67,98.91,23,96.23,18,93.35a1.54,1.54,0,0,1-.9-1.52c0-5.26,0-10.77,0-16.36A1.47,1.47,0,0,1,17.95,74q5-2.87,10-5.79l2.81-1.62.6-.36.13-.08-1.07-1.85-.11.06-.65.36-3.61,2.09-9.47,5.46c-.4.23-.81.44-1.22.66l-.43.23V94.12l.14.08.58.31L18.26,96q7.1,4.09,14.18,8.2a.92.92,0,0,0,1.11,0Q39.1,101,44.67,97.75L49,95.26l.44-.28.07,0-1.07-1.84Z"/><path class="cls-2" d="M72.82,89.36a1.24,1.24,0,0,1,1.34-.87c1.1,0,2.18,0,3.33,0h1.12V86.34H77.48c-1.13,0-2.2,0-3.28,0a1.24,1.24,0,0,1-1.36-.85,4.12,4.12,0,0,0-3.39-2.65,20.87,20.87,0,0,0-4.43,0,4.27,4.27,0,0,0-3.53,2.75l-.05.12a.93.93,0,0,1-.93.7c-.72,0-.91-.44-1.09-.84A4.21,4.21,0,0,0,56,82.88a20.5,20.5,0,0,0-3.74-.1,4.65,4.65,0,0,0-4.3,3,1.37,1.37,0,0,1-1.09.61c-1.2,0-2.42,0-3.6,0h-1v2.14h1.11c1.13,0,2.24,0,3.34,0h.07a1.2,1.2,0,0,1,1.28.84,4.32,4.32,0,0,0,3.64,2.72,21.91,21.91,0,0,0,3.4.08,4.59,4.59,0,0,0,4.26-2.77l0-.09a1.08,1.08,0,0,1,1.07-.81h0a1,1,0,0,1,.95.72l.08.17a4.36,4.36,0,0,0,3.77,2.66,29.57,29.57,0,0,0,3.67,0A4.24,4.24,0,0,0,72.82,89.36Zm-15.64-3.2a.25.25,0,0,1-.21.16l-1.29.11v2.07l1.16.05a.25.25,0,0,1,.21.13.25.25,0,0,1,0,.24c-.42.76-1.62,1-2.31,1.1a7.4,7.4,0,0,1-.9.05A4.91,4.91,0,0,1,50.44,89a.25.25,0,0,1,.17-.42l1.13-.08V86.42l-1,0A.25.25,0,0,1,50.5,86a3,3,0,0,1,2.19-1.07c1.52-.21,3.53.06,4.43,1A.25.25,0,0,1,57.18,86.16Zm10,3.86a4.91,4.91,0,0,1-3.36-1,.25.25,0,0,1,.16-.42l1.13-.08V86.4l-1-.06a.25.25,0,0,1-.2-.13A.25.25,0,0,1,64,86a3.34,3.34,0,0,1,2.71-1.16c1.41-.1,3.14.21,3.81,1.1a.25.25,0,0,1-.18.4l-1.13.09v2.1l1.12.07a.25.25,0,0,1,.18.4A3.93,3.93,0,0,1,67.62,90Z"/><path class="cls-2" d="M79.54,52.37a22.81,22.81,0,0,0-1.88-3.72,4.37,4.37,0,0,0-4.52-2.24,1.24,1.24,0,0,1-1.35-.75c-.54-1-1.09-1.95-1.67-2.94l-.56-1L67.7,42.84l.55,1c.56,1,1.11,2,1.69,2.92a1.22,1.22,0,0,1-.07,1.59,3.92,3.92,0,0,0-.77,3.75,22.46,22.46,0,0,0,1.56,3.23l.11.21a4.69,4.69,0,0,0,4.79,2.62,1.32,1.32,0,0,1,1.13.54,1.37,1.37,0,0,1-.17,1.21,4.65,4.65,0,0,0-.39,4.94,27.45,27.45,0,0,0,1.55,2.74,4.45,4.45,0,0,0,4.4,2.21h.23a1.31,1.31,0,0,1,1.26.8c.52,1,1.07,1.91,1.64,2.9l.56,1,1.87-1.07-.58-1c-.56-1-1.09-1.93-1.65-2.87a1.22,1.22,0,0,1,.06-1.59,3.84,3.84,0,0,0,.74-3.91,22,22,0,0,0-2.64-4.57A4.1,4.1,0,0,0,79.79,58a1.66,1.66,0,0,1-1.11-.4c-.57-.48-.19-1,0-1.3l.07-.09A4,4,0,0,0,79.54,52.37Zm-2.21,2a.25.25,0,0,1-.21.17.26.26,0,0,1-.24-.11l-.67-1-1.82,1,.52,1.07a.25.25,0,0,1-.22.36h0A4.76,4.76,0,0,1,72,53.45a4.31,4.31,0,0,1-.65-3.34.25.25,0,0,1,.21-.16.24.24,0,0,1,.24.11l.66,1,1.84-1-.59-1.14a.25.25,0,0,1,0-.27.26.26,0,0,1,.26-.09,5.11,5.11,0,0,1,2.67,2.52A4.56,4.56,0,0,1,77.33,54.39Zm1.15,7.39.64,1,1.82-1-.5-1.06a.25.25,0,0,1,0-.25.25.25,0,0,1,.23-.1,3.63,3.63,0,0,1,2.24,1.76A5.47,5.47,0,0,1,84,66a.25.25,0,0,1-.2.18.26.26,0,0,1-.25-.11l-.66-1-1.85,1,.55,1.06a.25.25,0,0,1-.22.37h0c-1.15-.21-2.23-1.57-2.8-2.68a3.77,3.77,0,0,1-.48-3,.25.25,0,0,1,.21-.14A.24.24,0,0,1,78.48,61.79Z"/><path class="cls-2" d="M35.94,60a23.6,23.6,0,0,0-1.79,3.1,4.4,4.4,0,0,0,.42,4.68,1.32,1.32,0,0,1,.09,1.67c-.57.94-1.1,1.88-1.66,2.87l-.57,1,1.87,1.06.6-1c.58-1,1.13-1.95,1.65-2.92a1.19,1.19,0,0,1,1.35-.72,3.91,3.91,0,0,0,3.75-1.35,21.74,21.74,0,0,0,2.64-4.67c.45-1.08.22-2.32-.72-3.78a1.08,1.08,0,0,1,1-1.83,4.69,4.69,0,0,0,4.63-2.47l.09-.15c.46-.77.93-1.56,1.32-2.37a4.49,4.49,0,0,0-.41-4.84,1.25,1.25,0,0,1-.07-1.59c.57-.94,1.1-1.89,1.67-2.89l.55-1h0l-1.85-1.07-.58,1c-.58,1-1.12,1.92-1.64,2.89a1.27,1.27,0,0,1-1.42.75,4.43,4.43,0,0,0-4.41,2.17c-.52.8-1,1.7-1.52,2.66a4.68,4.68,0,0,0,.37,5.09,1.34,1.34,0,0,1,.12,1.23,1.37,1.37,0,0,1-1.14.5A4.45,4.45,0,0,0,35.94,60Zm7.18-8.4a5.69,5.69,0,0,1,2.94-3.08.25.25,0,0,1,.29.35L45.78,50l1.83,1,.63-.95a.22.22,0,0,1,.22-.11.25.25,0,0,1,.21.14,3.65,3.65,0,0,1-.45,3c-.62,1.21-1.72,2.5-2.8,2.68h0a.25.25,0,0,1-.22-.37l.53-1-1.83-1.06-.62.93a.23.23,0,0,1-.23.11.25.25,0,0,1-.21-.14A3.46,3.46,0,0,1,43.12,51.62Zm-3.74,8.63a.25.25,0,0,1,.25.09.25.25,0,0,1,0,.26l-.54,1.08,1.81,1,.66-1a.24.24,0,0,1,.23-.11.25.25,0,0,1,.21.16A4.11,4.11,0,0,1,41.48,65a5,5,0,0,1-2.72,2.59H38.7a.25.25,0,0,1-.22-.36L39,66.13l-1.83-1-.56.87a.25.25,0,0,1-.2.11c-.07,0-.16,0-.21-.1a2.75,2.75,0,0,1,.1-2.37C36.88,62.15,38.16,60.49,39.38,60.26Z"/><path class="cls-2" d="M104.42,73q-5.16-3-10.3-5.92l-4-2.31-.46-.24-.06,0-1.05,1.84.13.08.67.39,2.88,1.67q4.9,2.83,9.82,5.65a1.47,1.47,0,0,1,.86,1.45c0,5.39,0,10.92,0,16.45a1.4,1.4,0,0,1-.82,1.38c-3.91,2.24-9.05,5.2-14.22,8.22a1.55,1.55,0,0,1-1.76,0q-5.32-3.1-10.66-6.16l-3-1.7-.57-.32-.09,0-1.07,1.84.14.1,2.36,1.36c4.39,2.53,8.93,5.15,13.41,7.7a1.07,1.07,0,0,0,.83-.08l8.85-5.1,8.14-4.68a.92.92,0,0,0,.54-1c0-7.16,0-13.55,0-19.54A1,1,0,0,0,104.42,73Z"/><path class="cls-2" d="M42,27.41q0,6,0,12v4.39c0,.19,0,.39,0,.58v0h2.11V40.21c0-3.73,0-7.46,0-11.19A1.47,1.47,0,0,1,45,27.54c4.66-2.66,9.44-5.42,14.22-8.2a1.47,1.47,0,0,1,1.69,0C65.7,22.15,70.46,24.89,75,27.5A1.54,1.54,0,0,1,75.9,29c0,3.72,0,7.44,0,11.15v4.22H78a1.66,1.66,0,0,0,0-.3V41.94c0-4.82,0-9.8,0-14.71a1.21,1.21,0,0,0-.55-.75Q72.76,23.71,68,21l-7.45-4.32a.85.85,0,0,0-1,0c-5.84,3.4-11.56,6.69-17,9.8A.91.91,0,0,0,42,27.41Z"/><path class="cls-2" d="M43.86,78.65l2.22-1.28.55-.34.08-.05-1.06-1.84-.12.07-.5.28-2.75,1.58c-2.74,1.58-5.56,3.2-8.33,4.83a1.65,1.65,0,0,1-1.92,0c-1.64-1-3.33-2-5-2.89l-1.6-.92-4-2.3-1.12-.64L19.27,77l.13.08.54.33L22.67,79c2.66,1.54,5.42,3.14,8.15,4.66a2,2,0,0,1,1.14,2c0,3.19,0,6.44,0,9.58v2.89c0,.22,0,.44,0,.66v.08h2.11V95c0-3.26,0-6.53,0-9.79a1.48,1.48,0,0,1,.84-1.46Q39.4,81.24,43.86,78.65Z"/><path class="cls-2" d="M46.31,30.5l.13.08.55.33,2.52,1.46q4.28,2.47,8.57,4.93a1.56,1.56,0,0,1,.9,1.53c0,3.49,0,7,0,10.48v2.33c0,.23,0,.46,0,.68v.06h2.13v-4c0-3.18,0-6.36,0-9.54a1.6,1.6,0,0,1,.9-1.6c2.88-1.63,5.79-3.32,8.61-4.95l2.48-1.43.55-.33.09-.05-1.07-1.84L72,29l-2.32,1.33q-4.46,2.57-8.92,5.15a1.34,1.34,0,0,1-1.54,0c-1.68-1-3.38-2-5.07-2.94l-6.81-3.93Z"/><path class="cls-2" d="M99.5,75.31l-.56.31-2.6,1.5c-2.76,1.59-5.61,3.23-8.4,4.88A1.66,1.66,0,0,1,86,82c-2.84-1.67-5.74-3.33-8.55-4.95L75,75.61l-.57-.31-.11-.06-1.06,1.84.1.06.6.36L76.55,79c2.76,1.6,5.61,3.25,8.44,4.84a1.67,1.67,0,0,1,.94,1.68c0,3.22,0,6.44,0,9.66v3.76h2.15V94.81c0-3,0-6.07,0-9.11a1.91,1.91,0,0,1,1.1-1.95c2.76-1.56,5.55-3.18,8.25-4.74l2.69-1.56.6-.36,0,0-1.07-1.84Z"/><path class="cls-2" d="M54.38,54.73c1.86,1.08,3.62,2.1,5.43,3.11a1,1,0,0,0,.71-.13c1.61-.9,3.24-1.84,4.81-2.75l1-.58L66.9,54l.12-.08L65.93,52.1l-1.29.73c-1.18.67-2.29,1.29-3.38,2a2,2,0,0,1-2.47,0c-1.11-.7-2.23-1.34-3.42-2l-1.25-.71L53,54Z"/><path class="cls-2" d="M48.88,75.91c-.07,1.38,0,2.74,0,4.13a.72.72,0,0,0,.25.41,12.25,12.25,0,0,0,1.46,0H51v0l0-.09V79.1c0-1.81,0-3.68,0-5.52a1,1,0,0,0-.45-.55c-1-.58-1.95-1.15-2.91-1.7l-3.43-2-1.07,1.86,1.23.72c1.13.67,2.2,1.3,3.31,1.87A2,2,0,0,1,48.88,75.91Z"/><path class="cls-2" d="M75.72,72,77,71.25l-1.08-1.87-1.45.87a41.29,41.29,0,0,1-3.74,2.09,2.65,2.65,0,0,0-1.77,3.07A28.21,28.21,0,0,1,69,78.85c0,.42,0,.85,0,1.28h2.17c0-.36,0-.72,0-1.08,0-1,0-2,0-3a2,2,0,0,1,1.23-2.16C73.48,73.3,74.57,72.65,75.72,72Z"/><path class="cls-2" d="M21.49,89.22H19.4v.42c0,.55,0,1.08,0,1.59a.64.64,0,0,0,.22.42c2.52,1.47,5.05,2.93,7.63,4.41l1.47.85L29.8,95,28,94c-1.75-1-3.46-2-5.19-3L22.75,91C22.09,90.61,21.36,90.2,21.49,89.22Z"/><path class="cls-2" d="M59.48,24.12h.06l.38.07a2.94,2.94,0,0,1,.91.26c.79.41,1.57.87,2.32,1.31l.9.53,3.32,1.92,1.08-1.87-1.3-.75c-2.33-1.35-4.61-2.67-6.9-4a.52.52,0,0,0-.39,0c-.4.2-.79.43-1.19.67l-.28.17,1,1.69A.24.24,0,0,1,59.48,24.12Z"/><path class="cls-2" d="M98.7,89.73a.25.25,0,0,1-.07.13l-.33.33a4.08,4.08,0,0,1-.83.72c-1.62,1-3.29,1.93-4.9,2.85l-1.46.84,1.08,1.87,1.32-.76,6.87-4a.46.46,0,0,0,.19-.26c0-.48,0-.95,0-1.45v-.29Z"/><rect class="cls-2" x="19.45" y="80.35" width="2.04" height="2.05"/><polygon class="cls-2" points="54.54 24.68 55.62 26.54 57.49 25.45 56.4 23.6 54.54 24.68"/><rect class="cls-2" x="51.1" y="26.2" width="2.16" height="2.16" transform="matrix(0.86, -0.5, 0.5, 0.86, -6.64, 29.94)"/><rect class="cls-2" x="98.5" y="80.89" width="2.04" height="2.05"/><rect class="cls-2" x="19.47" y="84.77" width="2.03" height="2.07"/><rect class="cls-2" x="98.5" y="85.33" width="2.03" height="2.05"/></svg>