<svg id="Layer_1" data-name="Layer 1" xmlns="http://www.w3.org/2000/svg" viewBox="0 0 120 120"><defs><style>.cls-1{fill:none;}.cls-2{fill:#182f3c;}.cls-3{fill:#e53f2c;}</style></defs><title>blockchain</title><path class="cls-1" d="M68.67,85.92l1-.08a5.41,5.41,0,0,0-3-.54,4,4,0,0,0-2,.57l1,.06v3l-.92.07a5.81,5.81,0,0,0,2.84.49,4.78,4.78,0,0,0,2-.5l-1-.06Z"/><path class="cls-1" d="M74.47,49.32l.48.93-2.67,1.51-.57-.89a5,5,0,0,0,.72,2.33,5.29,5.29,0,0,0,1.76,2l-.45-.92,2.63-1.51.56.86a5.2,5.2,0,0,0-.71-2.29A5.62,5.62,0,0,0,74.47,49.32Z"/><path class="cls-1" d="M55.18,86l1.07-.09a6.4,6.4,0,0,0-3.49-.45,3.68,3.68,0,0,0-1.47.47l1,0v3L51.3,89a6.08,6.08,0,0,0,3.38.48,3.76,3.76,0,0,0,1.59-.5L55.18,89Z"/><path class="cls-1" d="M36.48,65.26h0l.55-.85,2.66,1.52-.45.88A5.45,5.45,0,0,0,41,64.72a4.76,4.76,0,0,0,.63-2.16l-.58.85L38.46,61.9l.46-.92a6.26,6.26,0,0,0-2.15,2.8A3.32,3.32,0,0,0,36.48,65.26Z"/><path class="cls-1" d="M43.15,53.59l.56-.83,2.64,1.54-.45.87A5.52,5.52,0,0,0,47.77,53a4.35,4.35,0,0,0,.57-2.07l-.57.86-2.64-1.51.46-.92a6.06,6.06,0,0,0-2,2.51A4.11,4.11,0,0,0,43.15,53.59Z"/><path class="cls-1" d="M80.84,66.82l-.46-.89L83,64.42l.53.79a5.82,5.82,0,0,0-1.06-2.88A4.25,4.25,0,0,0,81.14,61l.45,1L79,63.41l-.58-.87A4.46,4.46,0,0,0,79,64.64,5.6,5.6,0,0,0,80.84,66.82Z"/><path class="cls-2" d="M47.65,93.53l-3,1.7q-5.41,3.12-10.81,6.25a1.53,1.53,0,0,1-1.75,0c-4.44-2.6-9.06-5.27-14.14-8.17a1.54,1.54,0,0,1-.9-1.52c0-5.26,0-10.77,0-16.36A1.47,1.47,0,0,1,17.95,74Q23,71.14,28,68.21l2.76-1.6.67-.39.06,0-1.07-1.85-.15.09-.61.34-4.48,2.59-8.6,5c-.4.23-.81.44-1.22.66l-.43.23V94.12l.13.07.59.32,2.82,1.63q7,4,13.93,8.05a.92.92,0,0,0,1.11,0q5.74-3.34,11.49-6.65l4-2.28.43-.28.08-.05-1.07-1.84Z"/><path class="cls-3" d="M72.82,89.36a1.25,1.25,0,0,1,1.34-.87c1.11,0,2.19,0,3.34,0h1.11V86.34H77.49c-1.13,0-2.21,0-3.29,0h-.07a1.24,1.24,0,0,1-1.29-.85,4.12,4.12,0,0,0-3.39-2.65,20.87,20.87,0,0,0-4.43,0,4.26,4.26,0,0,0-3.53,2.75l-.05.12a.93.93,0,0,1-.93.7h0c-.7,0-.9-.45-1.08-.84A4.21,4.21,0,0,0,56,82.88a20.65,20.65,0,0,0-3.74-.1,4.65,4.65,0,0,0-4.3,3,1.37,1.37,0,0,1-1.09.61c-1.2,0-2.43,0-3.61,0h-1v2.14h1.08c1.14,0,2.26,0,3.38,0h.07a1.21,1.21,0,0,1,1.28.83,4.32,4.32,0,0,0,3.64,2.72,22,22,0,0,0,3.4.08,4.59,4.59,0,0,0,4.26-2.77l0-.09a1.08,1.08,0,0,1,1.07-.81h0a1,1,0,0,1,.95.72l.08.17a4.36,4.36,0,0,0,3.77,2.66,29.2,29.2,0,0,0,3.67,0A4.24,4.24,0,0,0,72.82,89.36Zm-15.58-.79-.19.35c-.42.76-1.62,1-2.3,1.1a7.4,7.4,0,0,1-.9.05A4.91,4.91,0,0,1,50.44,89l-.35-.38,1.65-.12V86.42l-1.43-.07.2-.35a3,3,0,0,1,2.19-1.07c1.52-.21,3.53.06,4.43,1l.38.38-1.83.15v2.07Zm10,1.45a4.91,4.91,0,0,1-3.36-1l-.36-.38,1.66-.12V86.4l-1.41-.09L64,86a3.33,3.33,0,0,1,2.71-1.16c1.42-.1,3.14.21,3.81,1.1l.27.36-1.58.12v2.1l1.59.1-.29.37A3.94,3.94,0,0,1,67.62,90Z"/><path class="cls-3" d="M79.54,52.37a22.84,22.84,0,0,0-1.88-3.72,4.37,4.37,0,0,0-4.52-2.24,1.23,1.23,0,0,1-1.35-.75c-.53-1-1.09-1.94-1.66-2.93l-.56-1L67.7,42.84l.56,1c.56,1,1.1,1.94,1.67,2.89a1.22,1.22,0,0,1-.07,1.59,3.92,3.92,0,0,0-.77,3.75,22.46,22.46,0,0,0,1.56,3.23l.11.21a4.7,4.7,0,0,0,4.79,2.62,1.32,1.32,0,0,1,1.13.54,1.36,1.36,0,0,1-.17,1.21,4.65,4.65,0,0,0-.39,4.94,27.58,27.58,0,0,0,1.55,2.74,4.43,4.43,0,0,0,4.4,2.21h.23a1.31,1.31,0,0,1,1.26.8c.52,1,1.07,1.91,1.64,2.91l.56,1,1.87-1.07-.57-1c-.56-1-1.1-1.95-1.67-2.89a1.22,1.22,0,0,1,.06-1.59,3.85,3.85,0,0,0,.74-3.91,21.94,21.94,0,0,0-2.64-4.57A4.09,4.09,0,0,0,79.79,58a1.6,1.6,0,0,1-1.11-.4c-.57-.48-.19-1,0-1.3l.06-.09A4,4,0,0,0,79.54,52.37Zm-2.21,2-.16.5-1-1.47-1.82,1L75.13,56l-.49-.1A4.75,4.75,0,0,1,72,53.45a4.32,4.32,0,0,1-.65-3.34l.18-.46.93,1.44,1.84-1-.84-1.63.54.14a5.11,5.11,0,0,1,2.67,2.52A4.55,4.55,0,0,1,77.33,54.39Zm1.8,8.35,1.82-1-.7-1.47.45.05a3.63,3.63,0,0,1,2.24,1.76A5.47,5.47,0,0,1,84,66l-.14.54-1-1.45-1.85,1,.79,1.51-.5-.09c-1.16-.21-2.23-1.58-2.8-2.68a3.76,3.76,0,0,1-.48-3l.19-.4Z"/><path class="cls-3" d="M34.15,63.12a4.4,4.4,0,0,0,.42,4.68,1.32,1.32,0,0,1,.09,1.67c-.56.93-1.09,1.86-1.65,2.85l-.58,1,1.87,1.06.6-1c.58-1,1.13-1.95,1.65-2.92a1.2,1.2,0,0,1,1.35-.72,3.9,3.9,0,0,0,3.76-1.35,21.74,21.74,0,0,0,2.64-4.67c.45-1.08.22-2.32-.72-3.78a1.47,1.47,0,0,1-.2-1.29,1.49,1.49,0,0,1,1.21-.54,4.71,4.71,0,0,0,4.63-2.47l.09-.15c.46-.77.93-1.56,1.32-2.37a4.48,4.48,0,0,0-.41-4.84,1.25,1.25,0,0,1-.07-1.59c.57-.94,1.1-1.88,1.66-2.87l.56-1-1.86-1.07-.58,1c-.57,1-1.12,1.92-1.63,2.88a1.26,1.26,0,0,1-1.42.75,4.43,4.43,0,0,0-4.41,2.17c-.52.8-1,1.7-1.52,2.66a4.68,4.68,0,0,0,.37,5.09,1.33,1.33,0,0,1,.12,1.23,1.4,1.4,0,0,1-1.14.5,4.45,4.45,0,0,0-4.34,2A23.42,23.42,0,0,0,34.15,63.12Zm9-11.5a5.69,5.69,0,0,1,2.94-3.08l.55-.16L45.78,50l1.83,1,.87-1.31.19.39a3.65,3.65,0,0,1-.46,3c-.62,1.21-1.72,2.5-2.8,2.68l-.49.08.76-1.46-1.83-1.06L43,54.72l-.19-.4A3.46,3.46,0,0,1,43.12,51.62Zm-6.82,12c.58-1.44,1.85-3.1,3.08-3.34l.49-.09-.76,1.53,1.81,1,.93-1.36.17.44A4.11,4.11,0,0,1,41.48,65a5,5,0,0,1-2.72,2.59l-.52.12L39,66.13l-1.83-1-.76,1.18-.21-.3A2.75,2.75,0,0,1,36.3,63.59Z"/><path class="cls-2" d="M104.42,73q-5.35-3.06-10.69-6.15L90.1,64.75l-.47-.24,0,0-1.05,1.84.2.12.6.35,2.55,1.47Q97,71.2,102,74.11a1.47,1.47,0,0,1,.86,1.45c0,5.39,0,10.92,0,16.45a1.4,1.4,0,0,1-.82,1.38c-3.9,2.23-9,5.19-14.22,8.22a1.55,1.55,0,0,1-1.76,0q-5.46-3.18-10.94-6.32l-2.67-1.54-.57-.32-.09,0-1.07,1.84.14.1,2,1.15c4.51,2.6,9.18,5.3,13.79,7.92a1.07,1.07,0,0,0,.83-.08l8.85-5.1,8.14-4.68a.92.92,0,0,0,.54-1c0-7.16,0-13.55,0-19.54A1,1,0,0,0,104.42,73Z"/><path class="cls-2" d="M42,27.41q0,6,0,12v4.39c0,.19,0,.39,0,.58v0h2.11V40.21c0-3.73,0-7.46,0-11.19A1.47,1.47,0,0,1,45,27.54c4.76-2.71,9.54-5.47,14.22-8.2a1.48,1.48,0,0,1,1.69,0c4.79,2.8,9.55,5.54,14.15,8.16A1.54,1.54,0,0,1,75.9,29c0,3.72,0,7.44,0,11.15v4.22H78a1.67,1.67,0,0,0,0-.3V41.94c0-4.82,0-9.8,0-14.71a1.21,1.21,0,0,0-.55-.75Q72.79,23.73,68.07,21l-7.53-4.36a.84.84,0,0,0-1,0c-5.73,3.33-11.44,6.63-17,9.8A.91.91,0,0,0,42,27.41Z"/><path class="cls-2" d="M43.82,78.67l2.26-1.3.54-.34.08-.05-1.06-1.84-.12.07-.5.28-2.81,1.62c-2.72,1.56-5.53,3.18-8.27,4.8a1.66,1.66,0,0,1-1.92,0c-1.66-1-3.36-2-5-2.91l-6.67-3.83L19.27,77l.13.08.54.33,2.68,1.55c2.68,1.55,5.44,3.15,8.19,4.69a2,2,0,0,1,1.14,2c0,3.19,0,6.44,0,9.58v2.89c0,.22,0,.44,0,.66v.08h2.11V95c0-3.26,0-6.53,0-9.79a1.48,1.48,0,0,1,.84-1.46Q39.38,81.25,43.82,78.67Z"/><path class="cls-2" d="M46.31,30.49l.09.05.59.36,2.31,1.33q4.39,2.53,8.78,5a1.56,1.56,0,0,1,.9,1.53c0,3.49,0,7,0,10.48v2.33c0,.23,0,.46,0,.68v.06h2.13v-4c0-3.18,0-6.36,0-9.54a1.6,1.6,0,0,1,.9-1.6c2.82-1.6,5.68-3.25,8.44-4.85l2.65-1.53.55-.33.09-.05-1.07-1.84,0,0L72,29l-2.6,1.5q-4.32,2.49-8.63,5a1.35,1.35,0,0,1-1.54,0c-1.67-1-3.34-1.95-5-2.91l-6.86-4Z"/><path class="cls-2" d="M100.72,77.07l-1.07-1.84-.12.06-.6.33-2.51,1.45c-2.79,1.61-5.67,3.27-8.49,4.93A1.65,1.65,0,0,1,86,82c-2.83-1.66-5.67-3.29-8.51-4.93L75,75.61l-.55-.3-.13-.07-1.06,1.84.13.08.57.34L76.62,79c2.74,1.58,5.57,3.22,8.38,4.8a1.67,1.67,0,0,1,.94,1.68c0,3.22,0,6.44,0,9.66v3.76h2.15V94.81c0-3,0-6.08,0-9.11a1.91,1.91,0,0,1,1.1-1.95c2.72-1.54,5.47-3.13,8.13-4.67l2.81-1.63.55-.33Z"/><path class="cls-2" d="M54.46,54.78c1.83,1.06,3.57,2.07,5.35,3.06a1,1,0,0,0,.71-.13c1.64-.92,3.3-1.88,4.91-2.81l.91-.53c.2-.11.39-.24.59-.37l.1-.07L65.93,52.1l-1.28.72c-1.19.67-2.3,1.3-3.39,2a2,2,0,0,1-2.47,0c-1.11-.7-2.23-1.34-3.42-2l-1.25-.71L53,54Z"/><path class="cls-2" d="M48.88,75.91c-.07,1.38,0,2.74,0,4.13a.72.72,0,0,0,.25.41,12.93,12.93,0,0,0,1.46,0H51v0l0-.09V79.1c0-1.81,0-3.68,0-5.52a1,1,0,0,0-.45-.55c-.95-.58-1.93-1.14-2.87-1.68l-3.46-2-1.07,1.86,1.23.72c1.13.67,2.2,1.3,3.31,1.87A2,2,0,0,1,48.88,75.91Z"/><path class="cls-2" d="M75.74,72,77,71.25l-1.08-1.87-1.46.87a41.14,41.14,0,0,1-3.73,2.08,2.65,2.65,0,0,0-1.77,3.07A28.21,28.21,0,0,1,69,78.85c0,.42,0,.85,0,1.28h2.17c0-.36,0-.72,0-1.08,0-1,0-2,0-3a2,2,0,0,1,1.23-2.17C73.48,73.29,74.58,72.65,75.74,72Z"/><path class="cls-2" d="M21.49,89.22H19.4v.42c0,.55,0,1.08,0,1.59a.64.64,0,0,0,.22.42c2.47,1.44,5,2.87,7.48,4.32l1.62.93L29.8,95,28,94c-1.73-1-3.42-2-5.13-2.93L22.75,91C22.09,90.61,21.36,90.2,21.49,89.22Z"/><path class="cls-2" d="M59.36,24.08l.18,0,.38.07a2.94,2.94,0,0,1,.91.26c.79.42,1.58.88,2.34,1.33l.88.51,3.32,1.92,1.08-1.87-1.3-.75c-2.33-1.35-4.61-2.67-6.9-4a.54.54,0,0,0-.39,0c-.4.2-.79.44-1.21.68l-.27.16,1,1.66Z"/><path class="cls-2" d="M97.48,90.91c-1.63,1-3.3,1.93-4.92,2.87l-1.44.83,1.08,1.86,1.38-.8,6.81-3.95a.46.46,0,0,0,.19-.26c0-.48,0-.95,0-1.45v-.29H98.77l-.14.13-.33.33A4.06,4.06,0,0,1,97.48,90.91Z"/><rect class="cls-3" x="19.45" y="80.35" width="2.04" height="2.05"/><polygon class="cls-3" points="54.54 24.68 55.62 26.54 57.49 25.45 56.4 23.6 54.54 24.68"/><rect class="cls-3" x="51.1" y="26.2" width="2.15" height="2.15" transform="matrix(0.86, -0.5, 0.5, 0.86, -6.64, 29.94)"/><rect class="cls-3" x="98.5" y="80.89" width="2.04" height="2.05"/><rect class="cls-3" x="19.47" y="84.77" width="2.03" height="2.07"/><rect class="cls-3" x="98.5" y="85.33" width="2.03" height="2.06"/></svg>