<svg width="68" height="75" viewBox="0 0 68 75" fill="none" xmlns="http://www.w3.org/2000/svg">
<path d="M34.1216 17.7585L37.2251 16.4055L39.2547 18.1559C39.2547 18.1559 39.762 21.2002 39.872 21.5385C39.9819 21.8768 39.7029 23.1199 39.1955 23.289C38.6881 23.4581 36.7685 23.5173 36.5486 23.5173C36.3203 23.5173 34.1216 21.2594 34.1216 21.2594C34.1216 21.2594 33.6227 19.7373 33.7326 19.2891C33.8426 18.824 34.1216 17.7585 34.1216 17.7585Z" fill="#E63E2B"/>
<path d="M51.8547 2.41852L65.8078 2.69758L62.7043 6.84123L66.6196 11.5176C66.6196 11.5176 62.5014 11.4923 61.8587 11.5176C61.2075 11.543 51.8547 11.8305 51.8547 11.8305V2.41852Z" fill="#E63E2B"/>
<path d="M66.9495 10.0801L63.736 7.25561L63.6599 7.18796L63.736 7.12031L66.9495 4.29586C67.423 3.8815 67.5837 3.23035 67.3638 2.6384C67.144 2.04645 66.5859 1.66592 65.9601 1.66592H52.6666H52.582V1.58135V1.01477C52.582 0.456647 52.1254 0 51.5672 0C51.0091 0 50.5525 0.456647 50.5525 1.01477V15.8727V15.9234L50.5102 15.9488L41.4618 20.862L41.3519 20.9212L41.335 20.7943C41.2842 20.3969 41.1659 20.0248 40.9883 19.6612L39.7113 17.175C39.1279 16.0334 37.9693 15.3315 36.6839 15.3315C36.1427 15.3315 35.6269 15.4583 35.1449 15.7036L34.1555 16.211C33.3437 16.6253 32.7517 17.3272 32.4727 18.1898C32.1936 19.0523 32.2697 19.9741 32.6841 20.7774L33.961 23.2636C34.24 23.8048 34.6629 24.2699 35.1872 24.5913L35.2633 24.642L35.2125 24.7181C34.536 25.623 34.2147 26.773 33.9018 27.8893L33.665 28.7265C33.5889 28.9886 33.6227 29.2592 33.758 29.496C33.8933 29.7328 34.1047 29.9019 34.3669 29.978C34.4599 30.0034 34.5529 30.0203 34.646 30.0203C35.0941 30.0203 35.5 29.7159 35.6269 29.2761L35.8637 28.4389C36.3541 26.7138 36.6501 25.7921 37.6311 25.2593L39.3224 24.3376L39.5338 24.2276C39.593 24.2023 39.6437 24.1685 39.7029 24.1346L39.7283 24.1177L51.7871 17.564L51.9224 17.4879L51.914 17.6401C51.8379 19.213 50.9838 20.6421 49.6476 21.4539L41.8085 26.2149C41.8001 26.2234 41.7916 26.2234 41.7832 26.2318L39.3224 27.7286C38.8403 28.0161 38.6881 28.6504 38.9841 29.1239C39.1701 29.4283 39.4915 29.6144 39.8551 29.6144C40.0073 29.6144 40.1595 29.5806 40.2948 29.5129L40.4724 29.4283L40.4132 29.6228L38.5613 35.2125L38.5528 35.2464L38.519 35.2633L37.166 35.8214L33.4874 37.3266L33.3268 37.3943L33.3775 37.2252L34.4345 33.479C34.5868 32.9378 34.2739 32.3796 33.7327 32.2274C33.6396 32.2021 33.5466 32.1851 33.4536 32.1851C33.0054 32.1851 32.5995 32.4896 32.4727 32.9293L30.7983 38.8573C30.7814 38.9334 30.7645 39.0095 30.7645 39.0771L30.3247 47.1361C30.3247 47.2122 30.3247 47.3137 30.3247 47.4236C30.3332 47.7365 30.3416 48.117 30.2232 48.3538L25.3523 58.603L25.327 58.6537H25.2762H21.733C19.7035 58.6537 18.0545 60.3027 18.0545 62.3323V65.5119V65.6472L17.9361 65.5965C17.4541 65.3766 16.9467 65.2667 16.4139 65.2667H7.42474C5.3952 65.2667 3.74619 66.9157 3.74619 68.9452V72.8859V72.9705H3.66163H1.01477C0.456647 72.9705 0 73.4271 0 73.9852C0 74.5434 0.456647 75 1.01477 75H65.9601C66.5182 75 66.9748 74.5434 66.9748 73.9852C66.9748 73.4271 66.5182 72.9705 65.9601 72.9705H63.0933H63.0088V72.8859V44.4723C63.0088 42.4428 61.3598 40.7938 59.3302 40.7938H52.6666H52.582V40.7092V21.4962V21.4709L52.5989 21.4455C53.1993 20.6337 53.6137 19.6781 53.8082 18.6887C54.0027 17.6739 53.9604 16.6169 53.6898 15.6275C53.6053 15.323 53.3938 15.0863 53.1063 14.9594C52.9795 14.9087 52.8442 14.8748 52.7089 14.8748C52.692 14.8748 52.6835 14.8748 52.6666 14.8748H52.582V14.7903V12.7777V12.6931H52.6666H65.9601C66.5943 12.6931 67.144 12.3125 67.3638 11.7206C67.5837 11.1456 67.423 10.4944 66.9495 10.0801ZM38.7304 22.3419L38.3668 22.5364L37.6057 22.9254C37.4112 23.0268 37.1998 23.0776 36.9884 23.0776C36.4725 23.0776 36.0074 22.7901 35.7707 22.3334L34.4937 19.8472C34.3246 19.5259 34.2992 19.1538 34.4092 18.8071C34.5191 18.4604 34.7643 18.1813 35.0857 18.0122L36.0751 17.5048C36.2696 17.4033 36.481 17.3526 36.6924 17.3526C37.2082 17.3526 37.6734 17.6401 37.9101 18.0967L39.187 20.5829C39.4915 21.2087 39.297 21.9613 38.7304 22.3419ZM18.0545 72.869V72.9535H17.9699H5.8603H5.77574V72.869V68.9198C5.77574 68.015 6.51144 67.2793 7.41628 67.2793H16.4055C17.3103 67.2793 18.046 68.015 18.046 68.9198V72.869H18.0545ZM40.5232 35.7453L43.1531 27.8047L43.1616 27.7793L43.1869 27.7624L50.4256 23.3651L50.5525 23.289V23.4412V40.7177V40.8022H50.4679H50.3411C48.3115 40.8022 46.6625 42.4512 46.6625 44.4808V51.8125V51.9478L46.5441 51.8971C46.1467 51.7195 45.7323 51.6095 45.2926 51.5757L45.208 51.5673L45.2165 51.4827L46.1129 44.2186C46.282 42.8402 45.5716 41.91 44.8867 41.0221C44.8275 40.946 42.0115 37.5972 40.5316 35.8468L40.4978 35.8129L40.5232 35.7453ZM39.2124 42.5865L39.9481 38.4936L39.982 38.316L40.1003 38.4513C40.2272 38.6036 43.2123 42.1468 43.28 42.2398C43.9396 43.0939 44.1679 43.4406 44.1002 43.948L43.17 51.4658L43.1616 51.5419H43.0855H42.3159H42.2398L42.2314 51.4658L41.614 45.1657C41.5379 44.3962 41.0559 43.7112 40.3625 43.373H40.354L39.2462 42.6711L39.1955 42.6373L39.2124 42.5865ZM38.7896 44.9205L38.815 44.8021L38.9164 44.8698C39.1617 45.022 39.4407 45.1911 39.4746 45.208C39.5422 45.2418 39.5845 45.301 39.593 45.3772L40.1934 51.4658L40.2018 51.5588H40.1088H36.4133H36.2442L36.3457 51.4235L37.4366 49.9774C37.9524 49.3601 38.0962 48.6329 38.2146 48.0409C38.2484 47.8972 38.7811 44.9543 38.7896 44.9205ZM27.6356 58.5269L32.0498 49.2502C32.2697 48.5906 32.3712 47.9141 32.3543 47.2376L32.7517 39.8889V39.8382L32.8025 39.8213L37.8932 37.7326L38.037 37.6734L38.0116 37.8256L37.0814 42.9586C37.0814 42.9755 37.0729 42.984 37.0729 42.9924L36.3034 47.2376C36.2865 47.3221 36.2696 47.4151 36.2442 47.5082C36.1597 47.9225 36.0582 48.4299 35.8214 48.7344L28.3797 58.6199L28.3544 58.6537H28.3121H27.6948H27.5595L27.6356 58.5269ZM32.3627 72.869V72.9535H32.2782H20.1686H20.084V72.869V69.0044V68.9198V62.3238C20.084 61.419 20.8197 60.6833 21.7245 60.6833H30.7137C31.6186 60.6833 32.3543 61.419 32.3543 62.3238V72.869H32.3627ZM32.3627 56.9709V58.899V59.0343L32.2443 58.9835C31.8722 58.8144 31.4748 58.7045 31.0604 58.6706L30.9082 58.6537L31.0012 58.5353L32.2105 56.9286L32.3627 56.7257V56.9709ZM59.3302 42.8318C60.2351 42.8318 60.9708 43.5675 60.9708 44.4723V72.8605V72.9451H60.8862H48.7851H48.7005V72.8605V66.2561C48.7005 65.6979 48.2439 65.2413 47.6858 65.2413C47.1276 65.2413 46.671 65.6979 46.671 66.2561V72.8605V72.9451H46.5864H34.4768H34.3923V72.8605V55.2289C34.3923 54.324 35.128 53.5883 36.0328 53.5883H45.022C45.9268 53.5883 46.6625 54.324 46.6625 55.2289V60.7509C46.6625 61.3091 47.1192 61.7657 47.6773 61.7657C48.2354 61.7657 48.6921 61.3091 48.6921 60.7509V44.4723C48.6921 43.5675 49.4278 42.8318 50.3326 42.8318H51.5419H51.5503C51.5588 42.8318 51.5588 42.8318 51.5588 42.8318H59.3302ZM64.3195 10.672H52.6666H52.582V10.5874V3.78848V3.70391H52.6666H64.3195H64.5394L64.3703 3.85613L61.8587 6.06325C61.5374 6.35077 61.3513 6.75668 61.3513 7.18796C61.3513 7.61924 61.5374 8.02514 61.8587 8.31266L64.3703 10.5198L64.5394 10.672H64.3195Z" fill="#213744"/>
</svg>
