<?xml version="1.0" encoding="utf-8"?>
<!-- Generator: Adobe Illustrator 21.1.0, SVG Export Plug-In . SVG Version: 6.00 Build 0)  -->
<svg version="1.1" id="Layer_1" xmlns="http://www.w3.org/2000/svg" xmlns:xlink="http://www.w3.org/1999/xlink" x="0px" y="0px"
	 viewBox="0 0 120 120" style="enable-background:new 0 0 120 120;" xml:space="preserve">
<style type="text/css">
	.st0{fill:#182F3C;}
	.st1{fill:#E53F2C;}
	.st2{fill:#FFFFFF;}
	.st3{fill:#FFFFFF;stroke:#182F3C;stroke-width:3;stroke-linejoin:round;stroke-miterlimit:10;}
	.st4{fill:#FFFFFF;stroke:#182F3C;stroke-width:3;stroke-linecap:round;stroke-linejoin:round;stroke-miterlimit:10;}
	.st5{fill:none;stroke:#182F3C;stroke-width:2.7;stroke-linejoin:round;stroke-miterlimit:10;}
	.st6{fill:#E53F2C;stroke:#182F3C;stroke-width:2.7;stroke-linejoin:round;stroke-miterlimit:10;}
	.st7{fill:none;stroke:#182F3C;stroke-width:2.5;stroke-linejoin:round;stroke-miterlimit:10;}
	.st8{fill:none;}
	.st9{fill:none;stroke:#182F3C;stroke-width:2.5982;stroke-linejoin:round;stroke-miterlimit:10;}
	.st10{fill:#E53F2C;stroke:#182F3C;stroke-width:2.5982;stroke-linejoin:round;stroke-miterlimit:10;}
	.st11{fill:#FFFFFF;stroke:#182F3C;stroke-width:2.5982;stroke-linejoin:round;stroke-miterlimit:10;}
</style>
<g>
	<path class="st8" d="M89.7,52.6c-0.6,0-1.3,0.1-1.9,0.1c-0.5,0.1-1-0.1-1.3-0.4C86.1,52,86,51.5,86.1,51c0.1-0.7,0.2-1.5,0.2-2.2
		c0-6.7-5.4-12.1-12.1-12.1c-2.9,0-5.6,1-7.8,2.9C66,39.9,65.5,40,65,39.9c-0.5-0.1-0.9-0.5-1-1c-2.3-7.2-8.9-12.1-16.5-12.1
		c-9.6,0-17.3,7.8-17.3,17.3c0,2.2,0.4,4.3,1.2,6.4c0.2,0.5,0.1,1-0.1,1.4c-0.3,0.4-0.7,0.7-1.2,0.7c-6.5,0.2-11.8,5.6-11.8,12.1
		c0,6.7,5.4,12.1,12.1,12.1h8.6c-0.7-2.2-1.2-4.5-1.2-6.8c0-11.7,9.5-21.3,21.3-21.3s21.3,9.5,21.3,21.3c0,2.4-0.4,4.7-1.2,6.8h10.6
		c6.7,0,12.1-5.4,12.1-12.1C101.7,58,96.3,52.6,89.7,52.6z M47.4,33c-0.3,0-0.7-0.1-1-0.1c-5.4,0-9.8,4.4-9.8,9.8
		c0,0.4,0,0.8,0.1,1.2l-2.9,0.4c-0.1-0.5-0.1-1.1-0.1-1.6c0-7,5.7-12.7,12.7-12.7c0.4,0,0.9,0,1.3,0.1L47.4,33z"/>
	<path class="st8" d="M65.8,94.2h-14c-0.6,0-1.1,0.5-1.1,1.1s0.5,1.1,1.1,1.1h3.6h6.9h3.5c0.6,0,1.1-0.5,1.1-1.1
		S66.4,94.2,65.8,94.2z"/>
	<path class="st8" d="M56.5,99.6c0,1.3,1.1,2.4,2.4,2.4c1.3,0,2.4-1.1,2.4-2.4c0-0.1,0-0.2,0-0.3h-4.7
		C56.5,99.5,56.5,99.6,56.5,99.6z"/>
	<path class="st2" d="M25.1,47.7c-1.5-8.9,2.5-17.8,10.2-22.7c10.4-6.6,24.2-3.6,30.7,6.7c0.2,0.3,0.4,0.7,0.6,1l2.6-1.4
		c-0.2-0.4-0.4-0.8-0.7-1.1c-7.4-11.7-23-15.1-34.8-7.6c-8.7,5.5-13.2,15.6-11.5,25.7L25.1,47.7z"/>
	<circle class="st1" cx="29.4" cy="95" r="3.9"/>
	<path class="st2" d="M29.4,88.2c-3.8,0-6.8,3.1-6.8,6.8c0,3.8,3.1,6.8,6.8,6.8c3.8,0,6.8-3.1,6.8-6.8
		C36.2,91.2,33.1,88.2,29.4,88.2z M25.5,95c0-2.1,1.7-3.9,3.9-3.9c2.1,0,3.9,1.7,3.9,3.9c0,2.1-1.7,3.9-3.9,3.9
		C27.2,98.9,25.5,97.1,25.5,95z"/>
	<circle class="st1" cx="96.9" cy="26.5" r="4.9"/>
	<path class="st2" d="M96.9,34.4c4.3,0,7.9-3.5,7.9-7.9c0-4.3-3.5-7.9-7.9-7.9c-4.3,0-7.9,3.5-7.9,7.9C89,30.9,92.5,34.4,96.9,34.4z
		 M96.9,21.7c2.7,0,4.9,2.2,4.9,4.9c0,2.7-2.2,4.9-4.9,4.9c-2.7,0-4.9-2.2-4.9-4.9C92,23.8,94.2,21.7,96.9,21.7z"/>
	<circle class="st1" cx="95.8" cy="93.9" r="1.8"/>
	<path class="st2" d="M95.8,89.2c-2.6,0-4.8,2.1-4.8,4.8s2.1,4.8,4.8,4.8c2.6,0,4.8-2.1,4.8-4.8S98.5,89.2,95.8,89.2z M95.8,95.7
		c-1,0-1.8-0.8-1.8-1.8s0.8-1.8,1.8-1.8c1,0,1.8,0.8,1.8,1.8S96.8,95.7,95.8,95.7z"/>
	<path class="st2" d="M33.6,42.7c0,0.5,0,1.1,0.1,1.6l2.9-0.4c-0.1-0.4-0.1-0.8-0.1-1.2c0-5.4,4.4-9.8,9.8-9.8c0.3,0,0.7,0,1,0.1
		l0.3-3c-0.4,0-0.9-0.1-1.3-0.1C39.3,30,33.6,35.7,33.6,42.7z"/>
	<circle class="st2" cx="26.7" cy="16.5" r="1.5"/>
	<circle class="st2" cx="102.5" cy="42.6" r="1.5"/>
	<circle class="st2" cx="104.8" cy="86.2" r="1.5"/>
	<circle class="st2" cx="79.7" cy="97.6" r="1.5"/>
	<circle class="st2" cx="43.3" cy="99.7" r="1.5"/>
	<circle class="st2" cx="81.9" cy="19.6" r="1.5"/>
	<circle class="st2" cx="16.3" cy="38.3" r="1.5"/>
	<circle class="st2" cx="15.2" cy="87.2" r="1.5"/>
	<path class="st2" d="M104.7,64.7c0-8.4-7-15.3-15.5-15c0-0.3,0-0.5,0-0.8c0-8.3-6.8-15-15-15c-2.9,0-5.7,0.8-8.1,2.4
		c-3.2-7.4-10.4-12.2-18.6-12.2c-11.2,0-20.3,9.1-20.3,20.3c0,1.9,0.3,3.8,0.8,5.6c-7.2,1.1-12.7,7.4-12.7,14.9c0,8.3,6.8,15,15,15
		h9.9c2.2,4.3,5.9,7.8,10.5,9.8v1.9c-1.7,0.5-2.9,2-2.9,3.9c0,2.3,1.8,4.1,4.1,4.1h1.7c0,0.1,0,0.2,0,0.3c0,3,2.4,5.4,5.4,5.4
		c3,0,5.4-2.4,5.4-5.4c0-0.1,0-0.2,0-0.3h1.6c2.3,0,4.1-1.8,4.1-4.1c0-1.7-1.1-3.2-2.5-3.8l0-2c4.6-2,8.2-5.5,10.5-9.7h11.8
		C98,79.7,104.7,73,104.7,64.7z M65.3,87.1c-0.6,0.2-1,0.8-1,1.4l0,2.5H53.6v-2.5c0-0.6-0.4-1.2-1-1.4c-7.2-2.6-12-9.5-12-17.2
		c0-10.1,8.2-18.3,18.3-18.3s18.3,8.2,18.3,18.3C77.3,77.5,72.5,84.4,65.3,87.1z M61.2,99.6c0,1.3-1.1,2.4-2.4,2.4
		c-1.3,0-2.4-1.1-2.4-2.4c0-0.1,0-0.2,0-0.3h4.7C61.2,99.5,61.2,99.6,61.2,99.6z M65.8,96.4h-3.5h-6.9h-3.6c-0.6,0-1.1-0.5-1.1-1.1
		s0.5-1.1,1.1-1.1h14c0.6,0,1.1,0.5,1.1,1.1S66.4,96.4,65.8,96.4z M89.7,76.8H79.1c0.7-2.2,1.2-4.5,1.2-6.8
		c0-11.7-9.5-21.3-21.3-21.3s-21.3,9.5-21.3,21.3c0,2.4,0.4,4.7,1.2,6.8h-8.6c-6.7,0-12.1-5.4-12.1-12.1c0-6.5,5.3-11.9,11.8-12.1
		c0.5,0,0.9-0.3,1.2-0.7c0.3-0.4,0.3-0.9,0.1-1.4c-0.8-2-1.2-4.2-1.2-6.4c0-9.6,7.8-17.3,17.3-17.3c7.6,0,14.2,4.9,16.5,12.1
		c0.2,0.5,0.5,0.8,1,1c0.5,0.1,1,0,1.4-0.3c2.2-1.9,5-2.9,7.8-2.9c6.7,0,12.1,5.4,12.1,12.1c0,0.7-0.1,1.5-0.2,2.2
		c-0.1,0.5,0.1,1,0.4,1.3c0.3,0.3,0.8,0.5,1.3,0.4c0.6-0.1,1.3-0.1,1.9-0.1c6.7,0,12.1,5.4,12.1,12.1
		C101.7,71.3,96.3,76.8,89.7,76.8z"/>
	<path class="st2" d="M59,59c6.1,0,11.1,5,11.1,11.1h3c0-7.7-6.3-14-14-14s-14,6.3-14,14h3C47.9,64,52.9,59,59,59z"/>
</g>
</svg>
