<?xml version="1.0" encoding="utf-8"?>
<!-- Generator: Adobe Illustrator 21.1.0, SVG Export Plug-In . SVG Version: 6.00 Build 0)  -->
<svg version="1.1" id="Layer_1" xmlns="http://www.w3.org/2000/svg" xmlns:xlink="http://www.w3.org/1999/xlink" x="0px" y="0px"
	 viewBox="0 0 16 16" style="enable-background:new 0 0 16 16;" xml:space="preserve">
<style type="text/css">
	.st0{fill:#E63B2A;}
</style>
<path class="st0" d="M14.5,11c-0.6-0.3-1.1-0.2-1.6,0.5c-1.7,2.2-4.3,2.8-6.7,1.6c-2.4-1.2-3.6-3.9-3-6.5c0.6-2.2,2-3.7,4.2-4.2
	c2.2-0.5,4.1,0.2,5.5,2c0.6,0.7,1.2,0.9,1.7,0.4c0.5-0.4,0.6-1.1,0-1.8c-1.9-2.5-4.4-3.4-7.4-2.9C4.1,0.7,1.4,3.5,1,6.7
	c-0.5,3.6,1.2,6.9,4.3,8.4c0.5,0.2,1,0.4,1.6,0.5c1.2,0.3,2.3,0.4,3.5,0.1c0.5-0.1,1-0.3,1.4-0.5c0.9-0.4,1.8-1.1,2.4-1.8
	c0.3-0.3,0.6-0.7,0.8-1.1C15.3,12,15,11.3,14.5,11z"/>
</svg>
