<?xml version="1.0" encoding="utf-8"?>
<!-- Generator: Adobe Illustrator 21.1.0, SVG Export Plug-In . SVG Version: 6.00 Build 0)  -->
<svg version="1.1" id="Layer_1" xmlns="http://www.w3.org/2000/svg" xmlns:xlink="http://www.w3.org/1999/xlink" x="0px" y="0px"
	 viewBox="0 0 120 120" style="enable-background:new 0 0 120 120;" xml:space="preserve">
<style type="text/css">
	.st0{fill:#E53F2C;}
	.st1{fill:#182F3C;}
	.st2{fill:#FFFFFF;}
	.st3{fill:#FFFFFF;stroke:#182F3C;stroke-width:3;stroke-linejoin:round;stroke-miterlimit:10;}
	.st4{fill:#FFFFFF;stroke:#182F3C;stroke-width:3;stroke-linecap:round;stroke-linejoin:round;stroke-miterlimit:10;}
	.st5{fill:none;stroke:#182F3C;stroke-width:2.7;stroke-linejoin:round;stroke-miterlimit:10;}
	.st6{fill:#E53F2C;stroke:#182F3C;stroke-width:2.7;stroke-linejoin:round;stroke-miterlimit:10;}
	.st7{fill:none;stroke:#182F3C;stroke-width:2.5;stroke-linejoin:round;stroke-miterlimit:10;}
	.st8{fill:none;}
	.st9{fill:none;stroke:#182F3C;stroke-width:2.5982;stroke-linejoin:round;stroke-miterlimit:10;}
	.st10{fill:#E53F2C;stroke:#182F3C;stroke-width:2.5982;stroke-linejoin:round;stroke-miterlimit:10;}
	.st11{fill:#FFFFFF;stroke:#182F3C;stroke-width:2.5982;stroke-linejoin:round;stroke-miterlimit:10;}
</style>
<g>
	<path class="st8" d="M71.7,43.6c1.1,1,2.2,2,3.2,3.1c1.1,1.1,2.1,2.1,3.1,3.2c-0.3-1.8-0.6-3.6-0.9-5.4
		C75.3,44.2,73.5,43.9,71.7,43.6z"/>
	<path class="st8" d="M60,40.5c1.5,0,3,0,4.5,0.1c-1.5-1.1-3-2.2-4.4-3.1c-1.5,1-3,2-4.5,3.1C57,40.6,58.5,40.5,60,40.5z"/>
	<path class="st8" d="M67.6,43.2c-2.5-0.2-5-0.3-7.6-0.3c-2.6,0-5.2,0.1-7.6,0.3c-1.9,1.6-3.8,3.3-5.6,5.2c-1.8,1.8-3.6,3.7-5.2,5.6
		c-0.2,2.5-0.3,5-0.3,7.6c0,2.6,0.1,5.1,0.3,7.6c1.6,1.9,3.3,3.8,5.2,5.6h0c1.8,1.8,3.7,3.6,5.6,5.2c2.5,0.2,5,0.3,7.6,0.3
		c2.6,0,5.2-0.1,7.6-0.3c1.9-1.6,3.8-3.3,5.6-5.2c1.8-1.8,3.6-3.7,5.2-5.6c0.2-2.5,0.3-5,0.3-7.6c0-2.6-0.1-5.2-0.3-7.6
		c-1.6-1.9-3.3-3.8-5.1-5.6C71.4,46.5,69.5,44.8,67.6,43.2z M72.8,68.3c0,3.3-6.3,5.1-12.5,5.1s-12.5-1.7-12.5-5.1v-16
		c0-3.3,6.3-5.1,12.5-5.1s12.5,1.7,12.5,5.1V68.3z"/>
	<path class="st8" d="M43.5,42.1c2.5-0.5,5.2-0.9,7.9-1.1c2.1-1.7,4.3-3.3,6.4-4.8c-3.6-2.2-7.1-3.8-10.4-4.9
		C45.9,34.3,44.5,38,43.5,42.1z"/>
	<path class="st8" d="M45.1,46.7c1.1-1.1,2.1-2.1,3.2-3.1c-1.8,0.3-3.6,0.6-5.4,0.9c-0.4,1.7-0.7,3.5-0.9,5.4
		C43,48.8,44,47.8,45.1,46.7z"/>
	<path class="st8" d="M29.7,74.2c3.1,1.5,6.7,2.9,10.8,3.9c-0.5-2.5-0.9-5.2-1.1-7.9c-1.8-2.1-3.3-4.2-4.8-6.4
		c-1.9,3.2-3.4,6.3-4.5,9.4C29.9,73.5,29.8,73.9,29.7,74.2z"/>
	<path class="st8" d="M60.3,57.4c-4,0-8-0.7-10.3-2.1v5c0,1,3.6,2.9,10.3,2.9s10.3-1.9,10.3-2.9v-5C68.3,56.7,64.3,57.4,60.3,57.4z
		 M55.9,60.5h-1.8v-1.8h1.8V60.5z M59.5,60.5h-1.8v-1.8h1.8V60.5z M63,60.5h-1.8v-1.8H63V60.5z M66.6,60.5h-1.8v-1.8h1.8V60.5z"/>
	<path class="st8" d="M38.9,61.6c0-1.5,0-3,0.1-4.4c-1.1,1.5-2.2,3-3.1,4.4c1,1.5,2,2.9,3.1,4.4C39,64.6,38.9,63.1,38.9,61.6z"/>
	<path class="st8" d="M34.5,59.4c1.4-2.2,3-4.3,4.8-6.4c0.3-2.8,0.6-5.4,1.1-7.9c-0.5,0.1-0.9,0.2-1.4,0.4c0,0.1,0,0.1,0,0.2
		c0,2.4-2,4.4-4.4,4.4c-1.4,0-2.7-0.7-3.5-1.8c-0.5,0.2-1.1,0.5-1.6,0.7C30.7,52.3,32.4,55.8,34.5,59.4z"/>
	<path class="st8" d="M91.1,46.8c0.5-1.9,0.8-3.7,0.8-5.4c-2.1-0.4-3.6-2.2-3.6-4.3c0-1.4,0.7-2.6,1.7-3.4c-0.3-0.4-0.6-0.7-0.9-1.1
		c-1.9-1.9-4.6-2.8-8-2.8c-1.9,0-3.9,0.3-6.2,0.9c1.7,3.4,3.1,7.5,4.1,12C83.5,43.6,87.6,45,91.1,46.8z"/>
	<path class="st8" d="M51.5,82.3c-2.8-0.3-5.4-0.6-7.9-1.1c1,4.1,2.3,7.7,3.9,10.8c0.4-0.1,0.7-0.2,1.1-0.4c3.1-1.1,6.2-2.6,9.4-4.5
		C55.7,85.6,53.6,84,51.5,82.3z"/>
	<path class="st8" d="M68.5,82.3c-2.1,1.7-4.2,3.3-6.4,4.8c3.2,1.9,6.3,3.4,9.4,4.5c0.4,0.1,0.7,0.2,1,0.4c1.5-3.1,2.9-6.7,3.9-10.8
		C74,81.6,71.3,82,68.5,82.3z"/>
	<path class="st8" d="M60.3,65.3c-4,0-8-0.7-10.3-2.1v5.1c0,1,3.6,2.9,10.3,2.9s10.3-1.9,10.3-2.9v-5.1
		C68.3,64.6,64.3,65.3,60.3,65.3z M55.9,68.6h-1.8v-1.8h1.8V68.6z M59.5,68.6h-1.8v-1.8h1.8V68.6z M63,68.6h-1.8v-1.8H63V68.6z
		 M66.6,68.6h-1.8v-1.8h1.8V68.6z"/>
	<path class="st8" d="M60.3,55.2c6.7,0,10.3-1.9,10.3-2.9s-3.6-2.9-10.3-2.9S50,51.3,50,52.3S53.6,55.2,60.3,55.2z"/>
	<path class="st8" d="M68.6,40.9c2.7,0.3,5.4,0.6,7.9,1.1c-1-4.1-2.3-7.7-3.9-10.8c-0.3,0.1-0.7,0.2-1.1,0.4
		c-3.1,1.1-6.2,2.6-9.4,4.5C64.3,37.6,66.5,39.2,68.6,40.9z"/>
	<path class="st8" d="M45.1,76.5C45.1,76.5,45.1,76.5,45.1,76.5C44,75.4,43,74.3,42,73.3c0.3,1.9,0.6,3.6,0.9,5.4
		c1.7,0.4,3.5,0.7,5.4,0.9C47.3,78.6,46.2,77.6,45.1,76.5z"/>
	<path class="st8" d="M90,73.2c-1.1-3.1-2.6-6.2-4.5-9.4c-1.4,2.1-3,4.3-4.8,6.4c-0.3,2.7-0.6,5.4-1.1,7.9c0.4-0.1,0.7-0.2,1.1-0.3
		c0-0.1,0-0.1,0-0.2c0-2.4,2-4.4,4.4-4.4c1.5,0,2.8,0.7,3.6,1.8c0.6-0.3,1.2-0.5,1.8-0.8C90.2,73.9,90.1,73.5,90,73.2z"/>
	<path class="st8" d="M89.4,77.6c0,2.4-2,4.4-4.4,4.4c-1.5,0-2.9-0.8-3.7-2c-0.8,0.2-1.5,0.4-2.3,0.6c-1,4.5-2.4,8.5-4.1,12
		c2,0.5,3.8,0.8,5.5,0.9c0.2-2.2,2.1-4,4.4-4c1.5,0,2.8,0.7,3.6,1.8c0.2-0.2,0.5-0.4,0.7-0.6c2.9-2.9,3.6-7.9,2-14.2
		c-0.5,0.3-1.1,0.5-1.6,0.8C89.4,77.4,89.4,77.5,89.4,77.6z"/>
	<path class="st8" d="M33.1,61.6c-2.5-4-4.3-7.8-5.6-11.5c-5.4,3.2-8.6,7.2-8.6,11.5c0,4.3,3.2,8.3,8.7,11.5
		c0.1-0.2,0.2-0.5,0.2-0.7C29.1,68.9,30.9,65.2,33.1,61.6z"/>
	<path class="st8" d="M29,76.5c-0.2,0.8-0.4,1.6-0.5,2.4c1.7,0.6,2.9,2.2,2.9,4.1c0,1.8-1.1,3.3-2.6,4c0.5,1.4,1.2,2.7,2.2,3.6
		c2.9,2.9,7.9,3.6,14.2,2c-1.7-3.4-3.1-7.5-4.1-12C36.5,79.6,32.4,78.2,29,76.5z"/>
	<path class="st8" d="M60,88.4c-3.6,2.3-7.3,4.1-10.8,5.3c-0.2,0.1-0.5,0.2-0.7,0.2c3.2,5.4,7.2,8.7,11.5,8.7c1.1,0,2.2-0.2,3.2-0.6
		c-0.2-0.5-0.3-1-0.3-1.5c0-2.4,2-4.4,4.4-4.4c0.8,0,1.6,0.2,2.3,0.7c0.7-0.9,1.3-1.8,1.9-2.8c-0.2-0.1-0.5-0.2-0.7-0.2
		C67.3,92.5,63.6,90.7,60,88.4z"/>
	<path class="st8" d="M60,82.7c-1.5,0-3,0-4.4-0.1c1.5,1.1,2.9,2.2,4.4,3.1c1.5-1,3-2,4.4-3.1C63,82.6,61.5,82.7,60,82.7z"/>
	<path class="st8" d="M92.5,50.1c-1.2,3.7-3.1,7.5-5.6,11.5c2.2,3.6,4,7.2,5.3,10.8c0.1,0.2,0.2,0.5,0.2,0.7
		c5.4-3.2,8.7-7.2,8.7-11.5C101.1,57.3,97.9,53.3,92.5,50.1z"/>
	<path class="st8" d="M70.8,29.4c0.2-0.1,0.5-0.2,0.7-0.2c-2.3-4-5.1-6.8-8.1-8c-0.7,1.5-2.2,2.6-4,2.6c-1.6,0-3-0.9-3.8-2.1
		c-2.6,1.4-5,4-7.1,7.5c3.7,1.2,7.6,3.1,11.5,5.6C63.7,32.5,67.3,30.7,70.8,29.4z"/>
	<path class="st8" d="M74.9,76.5c-1.1,1.1-2.1,2.1-3.2,3.1c1.8-0.3,3.6-0.6,5.4-0.9c0.4-1.7,0.7-3.5,0.9-5.4
		C77,74.4,76,75.4,74.9,76.5z"/>
	<path class="st8" d="M81.1,61.6c0,1.5,0,3-0.1,4.4c1.1-1.5,2.2-3,3.1-4.4c-1-1.5-2-3-3.1-4.5C81,58.6,81.1,60.1,81.1,61.6z"/>
	<path class="st8" d="M79.5,45.1c0.5,2.5,0.9,5.2,1.1,7.9c1.7,2.1,3.3,4.3,4.8,6.4c2.2-3.6,3.8-7.1,4.9-10.4
		C87.3,47.4,83.6,46.1,79.5,45.1z"/>
	<path class="st8" d="M30.3,45.6c0-2.4,2-4.4,4.4-4.4c1.5,0,2.9,0.8,3.7,2c0.9-0.2,1.7-0.5,2.6-0.7c1-4.5,2.5-8.6,4.2-12.1
		c-6.1-1.6-11.1-1-14.2,2c-3.1,3.1-3.6,8.1-2,14.2c0.4-0.2,0.9-0.4,1.4-0.6C30.3,45.9,30.3,45.8,30.3,45.6z"/>
	<path class="st1" d="M93.1,47.9c0.6-2.4,1-4.6,1.1-6.7c1.7-0.6,2.9-2.2,2.9-4.1c0-2.4-2-4.4-4.4-4.4c-0.2,0-0.4,0-0.5,0.1
		c-0.4-0.6-0.9-1.3-1.4-1.8c-3.6-3.6-9.6-4.4-16.9-2.4c-2.8-4.9-6.2-8.3-10-9.6c-0.3-2.2-2.1-3.9-4.4-3.9c-2.4,0-4.4,2-4.4,4.4l0,0
		c-3.3,1.6-6.2,4.7-8.7,9c-7.1-1.9-13.2-1.3-16.9,2.5c-3.7,3.7-4.4,9.8-2.5,17c-6.4,3.7-10.3,8.4-10.3,13.7
		c0,5.3,3.9,10.1,10.3,13.8c-0.3,1.1-0.6,2.2-0.7,3.3c-2,0.4-3.6,2.2-3.6,4.3c0,2.2,1.7,4.1,3.9,4.4c0.6,1.9,1.5,3.6,2.9,5
		c2.3,2.3,5.6,3.5,9.6,3.5c2.2,0,4.7-0.4,7.3-1.1c3.7,6.4,8.5,10.3,13.8,10.3c1.6,0,3.1-0.3,4.6-1c0.8,0.6,1.7,1,2.8,1
		c2.4,0,4.4-2,4.4-4.4c0-0.7-0.2-1.4-0.5-2.1c0.9-1.1,1.8-2.4,2.6-3.8c2.5,0.7,4.9,1.1,7.1,1.1c0.7,1.5,2.2,2.5,3.9,2.5
		c2.4,0,4.4-2,4.4-4.4c0-0.1,0-0.2,0-0.3c0.5-0.4,1.1-0.8,1.5-1.3c3.6-3.6,4.4-9.6,2.4-16.9c6.4-3.7,10.3-8.4,10.3-13.7
		C103.4,56.3,99.6,51.5,93.1,47.9z M94.8,37.1c0,1.1-0.9,2.1-2.1,2.1c-1.1,0-2.1-0.9-2.1-2.1s0.9-2.1,2.1-2.1
		C93.8,35,94.8,35.9,94.8,37.1z M81.1,29.7c3.4,0,6.1,0.9,8,2.8c0.3,0.3,0.6,0.7,0.9,1.1c-1,0.8-1.7,2-1.7,3.4c0,2.2,1.6,4,3.6,4.3
		c-0.1,1.7-0.4,3.5-0.8,5.4c-3.5-1.7-7.5-3.1-12-4.2c-1-4.5-2.4-8.5-4.1-12C77.1,30,79.2,29.7,81.1,29.7z M87.1,77.6
		c0,1.1-0.9,2.1-2.1,2.1c-1.1,0-2.1-0.9-2.1-2.1c0-1.1,0.9-2.1,2.1-2.1C86.2,75.5,87.1,76.5,87.1,77.6z M85,73.2
		c-2.4,0-4.4,2-4.4,4.4c0,0.1,0,0.1,0,0.2c-0.4,0.1-0.7,0.2-1.1,0.3c0.5-2.5,0.9-5.2,1.1-7.9c1.8-2.1,3.4-4.3,4.8-6.4
		c1.9,3.2,3.4,6.3,4.5,9.4c0.1,0.4,0.2,0.7,0.4,1.1c-0.6,0.3-1.2,0.6-1.8,0.8C87.8,73.9,86.5,73.2,85,73.2z M71.6,91.6
		c-3.1-1.1-6.2-2.6-9.4-4.5c2.1-1.4,4.3-3,6.4-4.8c2.8-0.3,5.4-0.6,7.9-1.1c-1,4.1-2.3,7.7-3.9,10.8C72.3,91.8,71.9,91.7,71.6,91.6z
		 M47.4,91.9c-1.5-3.1-2.9-6.7-3.9-10.8c2.5,0.5,5.2,0.9,7.9,1.1c2.1,1.7,4.2,3.3,6.4,4.8c-3.2,1.9-6.3,3.4-9.4,4.5
		C48.1,91.7,47.7,91.8,47.4,91.9z M32.6,45.6c0-1.1,0.9-2.1,2.1-2.1c1.1,0,2.1,0.9,2.1,2.1c0,1.1-0.9,2.1-2.1,2.1
		C33.5,47.7,32.6,46.8,32.6,45.6z M34.7,50.1c2.4,0,4.4-2,4.4-4.4c0-0.1,0-0.1,0-0.2c0.5-0.1,0.9-0.2,1.4-0.4
		c-0.5,2.5-0.9,5.2-1.1,7.9c-1.7,2.1-3.3,4.2-4.8,6.4c-2.2-3.6-3.8-7.1-4.9-10.4c0.5-0.3,1-0.5,1.6-0.7C32,49.3,33.2,50.1,34.7,50.1
		z M72.6,31.3c1.5,3.1,2.9,6.7,3.9,10.8c-2.5-0.5-5.2-0.9-7.9-1.1c-2.1-1.8-4.3-3.4-6.4-4.8c3.2-1.9,6.3-3.4,9.4-4.5
		C71.9,31.5,72.3,31.4,72.6,31.3z M78.7,61.6c0,2.6-0.1,5.2-0.3,7.6c-1.6,1.9-3.3,3.8-5.2,5.6c-1.8,1.8-3.7,3.6-5.6,5.2
		c-2.5,0.2-5,0.3-7.6,0.3c-2.6,0-5.1-0.1-7.6-0.3c-1.9-1.6-3.8-3.3-5.6-5.2h0c-1.8-1.8-3.6-3.7-5.2-5.6c-0.2-2.5-0.3-5-0.3-7.6
		c0-2.6,0.1-5.2,0.3-7.6c1.6-1.9,3.3-3.8,5.2-5.6c1.8-1.8,3.7-3.6,5.6-5.2c2.5-0.2,5-0.3,7.6-0.3c2.6,0,5.2,0.1,7.6,0.3
		c1.9,1.6,3.8,3.3,5.6,5.2c1.8,1.8,3.5,3.7,5.1,5.6C78.6,56.4,78.7,59,78.7,61.6z M74.9,46.7c-1.1-1.1-2.1-2.1-3.2-3.1
		c1.8,0.2,3.6,0.6,5.4,0.9c0.4,1.7,0.7,3.5,0.9,5.4C77,48.8,76,47.8,74.9,46.7z M64.5,40.6c-1.5-0.1-3-0.1-4.5-0.1
		c-1.5,0-3,0-4.4,0.1c1.5-1.1,3-2.2,4.5-3.1C61.5,38.5,63,39.5,64.5,40.6z M51.5,40.9c-2.8,0.3-5.4,0.6-7.9,1.1
		c1-4.1,2.3-7.8,3.9-10.9c3.3,1.1,6.8,2.8,10.4,4.9C55.7,37.6,53.6,39.2,51.5,40.9z M48.3,43.6c-1.1,1-2.2,2-3.2,3.1
		C44,47.8,43,48.8,42,49.9c0.3-1.8,0.6-3.6,0.9-5.4C44.7,44.2,46.5,43.9,48.3,43.6z M39,57.2c-0.1,1.5-0.1,2.9-0.1,4.4
		c0,1.5,0,3,0.1,4.4c-1.1-1.5-2.2-3-3.1-4.4C36.9,60.1,37.9,58.6,39,57.2z M39.3,70.1c0.3,2.8,0.6,5.4,1.1,7.9
		c-4.1-1-7.7-2.3-10.8-3.9c0.1-0.4,0.2-0.7,0.4-1.1c1.1-3.1,2.6-6.2,4.5-9.4C36,65.9,37.6,68,39.3,70.1z M42,73.3
		c1,1.1,2,2.2,3.1,3.2c0,0,0,0,0,0c1.1,1.1,2.1,2.1,3.2,3.1c-1.9-0.3-3.7-0.6-5.4-0.9C42.6,76.9,42.3,75.1,42,73.3z M55.6,82.6
		c1.5,0.1,2.9,0.1,4.4,0.1c1.5,0,3,0,4.4-0.1c-1.5,1.1-2.9,2.2-4.4,3.1C58.5,84.7,57,83.7,55.6,82.6z M71.7,79.6
		c1.1-1,2.2-2,3.2-3.1c1.1-1.1,2.1-2.1,3.1-3.2c-0.3,1.8-0.6,3.6-0.9,5.4C75.3,79,73.5,79.3,71.7,79.6z M81,66
		c0.1-1.5,0.1-2.9,0.1-4.4c0-1.5,0-3-0.1-4.5c1.1,1.5,2.2,3,3.1,4.5C83.1,63.1,82.1,64.6,81,66z M80.7,53c-0.3-2.7-0.6-5.4-1.1-7.9
		c4.1,1,7.8,2.3,10.9,3.9c-1.1,3.3-2.8,6.8-4.9,10.4C84,57.3,82.4,55.1,80.7,53z M57.3,19.4c0-1.1,0.9-2.1,2.1-2.1
		c1.1,0,2.1,0.9,2.1,2.1s-0.9,2.1-2.1,2.1C58.2,21.5,57.3,20.6,57.3,19.4z M55.6,21.7c0.8,1.3,2.2,2.1,3.8,2.1c1.8,0,3.3-1.1,4-2.6
		c3,1.2,5.8,4,8.1,8c-0.2,0.1-0.5,0.2-0.7,0.2c-3.5,1.3-7.1,3.1-10.7,5.3c-4-2.5-7.8-4.4-11.5-5.6C50.6,25.6,53,23.1,55.6,21.7z
		 M31,32.5c3.1-3.1,8.1-3.6,14.2-2C43.5,34,42,38.1,41,42.6c-0.9,0.2-1.8,0.4-2.6,0.7c-0.8-1.2-2.1-2-3.7-2c-2.4,0-4.4,2-4.4,4.4
		c0,0.2,0,0.3,0,0.5c-0.5,0.2-0.9,0.4-1.4,0.6C27.4,40.7,27.9,35.6,31,32.5z M18.9,61.6c0-4.3,3.2-8.3,8.6-11.5
		c1.2,3.7,3.1,7.5,5.6,11.5c-2.2,3.6-4,7.2-5.3,10.8c-0.1,0.2-0.2,0.5-0.2,0.7C22.2,69.9,18.9,65.9,18.9,61.6z M24.9,83
		c0-1.1,0.9-2.1,2.1-2.1c1.1,0,2.1,0.9,2.1,2.1c0,1.1-0.9,2.1-2.1,2.1C25.8,85.1,24.9,84.1,24.9,83z M31,90.6c-1-1-1.7-2.2-2.2-3.6
		c1.5-0.7,2.6-2.2,2.6-4c0-1.9-1.2-3.5-2.9-4.1c0.1-0.8,0.3-1.6,0.5-2.4c3.4,1.7,7.5,3.1,12,4.1c1,4.5,2.4,8.5,4.1,12
		C38.8,94.2,33.9,93.6,31,90.6z M69.4,100.6c0,1.1-0.9,2.1-2.1,2.1c-1.1,0-2.1-0.9-2.1-2.1c0-1.1,0.9-2.1,2.1-2.1
		C68.5,98.5,69.4,99.4,69.4,100.6z M69.6,96.8c-0.7-0.4-1.4-0.7-2.3-0.7c-2.4,0-4.4,2-4.4,4.4c0,0.5,0.1,1,0.3,1.5
		c-1,0.4-2.1,0.6-3.2,0.6c-4.3,0-8.3-3.2-11.5-8.7c0.2-0.1,0.5-0.2,0.7-0.2c3.5-1.3,7.2-3.1,10.8-5.3c3.6,2.3,7.3,4.1,10.8,5.3
		c0.2,0.1,0.5,0.2,0.7,0.2C70.9,95,70.3,96,69.6,96.8z M86.9,93.8c0,1.1-0.9,2.1-2.1,2.1c-1.1,0-2.1-0.9-2.1-2.1
		c0-1.1,0.9-2.1,2.1-2.1C85.9,91.8,86.9,92.7,86.9,93.8z M89.1,90.6c-0.2,0.2-0.5,0.4-0.7,0.6c-0.8-1.1-2.1-1.8-3.6-1.8
		c-2.3,0-4.2,1.8-4.4,4c-1.7-0.1-3.6-0.3-5.5-0.9c1.7-3.4,3.1-7.5,4.1-12c0.8-0.2,1.6-0.4,2.3-0.6c0.8,1.2,2.1,2,3.7,2
		c2.4,0,4.4-2,4.4-4.4c0-0.1,0-0.2,0-0.4c0.6-0.2,1.1-0.5,1.6-0.8C92.6,82.8,92,87.7,89.1,90.6z M92.4,73.1
		c-0.1-0.2-0.2-0.5-0.2-0.7c-1.3-3.5-3.1-7.1-5.3-10.8c2.5-3.9,4.3-7.8,5.6-11.5c5.4,3.2,8.6,7.1,8.6,11.5
		C101.1,65.9,97.8,69.9,92.4,73.1z"/>
	<circle class="st0" cx="67.3" cy="100.6" r="2.1"/>
	<path class="st1" d="M60.3,47.3c-6.2,0-12.5,1.7-12.5,5.1v16c0,3.3,6.3,5.1,12.5,5.1s12.5-1.7,12.5-5.1v-16
		C72.8,49,66.5,47.3,60.3,47.3z M60.3,49.4c6.7,0,10.3,1.9,10.3,2.9s-3.6,2.9-10.3,2.9S50,53.3,50,52.3S53.6,49.4,60.3,49.4z
		 M60.3,71.2c-6.7,0-10.3-1.9-10.3-2.9v-5.1c2.4,1.4,6.4,2.1,10.3,2.1s8-0.7,10.3-2.1v5.1C70.6,69.3,67,71.2,60.3,71.2z M60.3,63.2
		c-6.7,0-10.3-1.9-10.3-2.9v-5c2.4,1.4,6.4,2.1,10.3,2.1s8-0.7,10.3-2.1v5C70.6,61.2,67,63.2,60.3,63.2z"/>
	<rect x="76.3" y="24.5" transform="matrix(0.9879 -0.1552 0.1552 0.9879 -3.0086 12.2981)" class="st0" width="1.8" height="1.8"/>
	<rect x="79.9" y="24.2" class="st0" width="1.8" height="1.8"/>
	
		<rect x="83.5" y="24.5" transform="matrix(0.1559 -0.9878 0.9878 0.1559 46.1243 104.7962)" class="st0" width="1.8" height="1.8"/>
	<rect x="87" y="25.5" transform="matrix(0.3768 -0.9263 0.9263 0.3768 30.3367 97.8009)" class="st0" width="1.8" height="1.8"/>
	<rect x="90.1" y="27.2" transform="matrix(0.5504 -0.8349 0.8349 0.5504 17.4722 88.6054)" class="st0" width="1.8" height="1.8"/>
	<rect x="54.1" y="58.7" class="st0" width="1.8" height="1.8"/>
	<rect x="57.7" y="58.7" class="st0" width="1.8" height="1.8"/>
	<rect x="61.2" y="58.7" class="st0" width="1.8" height="1.8"/>
	<rect x="64.8" y="58.7" class="st0" width="1.8" height="1.8"/>
	<rect x="54.1" y="66.8" class="st0" width="1.8" height="1.8"/>
	<rect x="57.7" y="66.8" class="st0" width="1.8" height="1.8"/>
	<rect x="61.2" y="66.8" class="st0" width="1.8" height="1.8"/>
	<rect x="64.8" y="66.8" class="st0" width="1.8" height="1.8"/>
	<rect x="95.3" y="77.9" transform="matrix(0.9879 -0.1552 0.1552 0.9879 -11.072 15.89)" class="st0" width="1.8" height="1.8"/>
	<rect x="95.6" y="81.5" class="st0" width="1.8" height="1.8"/>
	
		<rect x="95.3" y="85.1" transform="matrix(0.1559 -0.9878 0.9878 0.1559 -3.7183 167.5953)" class="st0" width="1.8" height="1.8"/>
	
		<rect x="94.4" y="88.5" transform="matrix(0.3768 -0.9263 0.9263 0.3768 -23.4911 143.9813)" class="st0" width="1.8" height="1.8"/>
	
		<rect x="92.6" y="91.7" transform="matrix(0.5504 -0.8349 0.8349 0.5504 -35.2622 119.7198)" class="st0" width="1.8" height="1.8"/>
	<rect x="22.9" y="42.9" transform="matrix(0.9912 -0.1321 0.1321 0.9912 -5.5831 3.5238)" class="st0" width="1.8" height="1.8"/>
	
		<rect x="22.7" y="39.4" transform="matrix(2.333779e-02 -0.9997 0.9997 2.333779e-02 -17.2263 62.8728)" class="st0" width="1.8" height="1.8"/>
	<rect x="23" y="35.8" transform="matrix(0.1789 -0.9839 0.9839 0.1789 -16.452 53.6656)" class="st0" width="1.8" height="1.8"/>
	<rect x="24.1" y="32.3" transform="matrix(0.3983 -0.9172 0.9172 0.3983 -15.475 42.8838)" class="st0" width="1.8" height="1.8"/>
	
		<rect x="25.8" y="29.2" transform="matrix(0.5697 -0.8218 0.8218 0.5697 -13.2494 34.9442)" class="st0" width="1.8" height="1.8"/>
	
		<rect x="37.1" y="97.2" transform="matrix(9.826007e-02 -0.9952 0.9952 9.826007e-02 -63.3617 126.3144)" class="st0" width="1.8" height="1.8"/>
	
		<rect x="33.6" y="96.6" transform="matrix(0.2515 -0.9679 0.9679 0.2515 -68.5379 106.3545)" class="st0" width="1.8" height="1.8"/>
	
		<rect x="30.2" y="95.4" transform="matrix(0.3993 -0.9168 0.9168 0.3993 -69.6251 86.3802)" class="st0" width="1.8" height="1.8"/>
	
		<rect x="27.1" y="93.6" transform="matrix(0.5977 -0.8017 0.8017 0.5977 -64.5358 60.4682)" class="st0" width="1.8" height="1.8"/>
	<circle class="st0" cx="59.4" cy="19.4" r="2.1"/>
	<circle class="st0" cx="92.7" cy="37.1" r="2.1"/>
	<circle class="st0" cx="27" cy="83" r="2.1"/>
	<circle class="st0" cx="85" cy="77.6" r="2.1"/>
	<circle class="st0" cx="84.8" cy="93.8" r="2.1"/>
	<circle class="st0" cx="34.7" cy="45.6" r="2.1"/>
</g>
</svg>
