<?xml version="1.0" encoding="utf-8"?>
<!-- Generator: Adobe Illustrator 21.1.0, SVG Export Plug-In . SVG Version: 6.00 Build 0)  -->
<svg version="1.1" id="Layer_1" xmlns="http://www.w3.org/2000/svg" xmlns:xlink="http://www.w3.org/1999/xlink" x="0px" y="0px"
	 viewBox="0 0 120 120" style="enable-background:new 0 0 120 120;" xml:space="preserve">
<style type="text/css">
	.st0{fill:#182F3C;}
	.st1{fill:#E53F2C;}
	.st2{fill:#FFFFFF;}
	.st3{fill:#FFFFFF;stroke:#182F3C;stroke-width:3;stroke-linejoin:round;stroke-miterlimit:10;}
	.st4{fill:#FFFFFF;stroke:#182F3C;stroke-width:3;stroke-linecap:round;stroke-linejoin:round;stroke-miterlimit:10;}
	.st5{fill:none;stroke:#182F3C;stroke-width:2.7;stroke-linejoin:round;stroke-miterlimit:10;}
	.st6{fill:#E53F2C;stroke:#182F3C;stroke-width:2.7;stroke-linejoin:round;stroke-miterlimit:10;}
	.st7{fill:none;stroke:#182F3C;stroke-width:2.5;stroke-linejoin:round;stroke-miterlimit:10;}
	.st8{fill:none;}
	.st9{fill:none;stroke:#182F3C;stroke-width:2.5982;stroke-linejoin:round;stroke-miterlimit:10;}
	.st10{fill:#E53F2C;stroke:#182F3C;stroke-width:2.5982;stroke-linejoin:round;stroke-miterlimit:10;}
	.st11{fill:#FFFFFF;stroke:#182F3C;stroke-width:2.5982;stroke-linejoin:round;stroke-miterlimit:10;}
</style>
<g>
	<path class="st8" d="M72.1,42.6c1.1,1,2.2,2,3.3,3.1c1.1,1.1,2.1,2.1,3.2,3.2c-0.3-1.8-0.6-3.6-1-5.4C75.9,43.1,74,42.8,72.1,42.6z
		"/>
	<path class="st8" d="M60,39.5c1.6,0,3.1,0,4.6,0.1c-1.5-1.1-3.1-2.2-4.6-3.1c-1.5,1-3.1,2-4.6,3.1C56.9,39.5,58.4,39.5,60,39.5z"/>
	<path class="st8" d="M67.9,42.1c-2.6-0.2-5.2-0.3-7.9-0.3c-2.7,0-5.3,0.1-7.9,0.3c-2,1.6-3.9,3.3-5.8,5.2c-1.9,1.8-3.7,3.7-5.3,5.6
		c-0.2,2.5-0.3,5-0.3,7.6c0,2.6,0.1,5.1,0.3,7.6c1.7,1.9,3.4,3.8,5.4,5.6h0c1.9,1.8,3.9,3.6,5.8,5.2c2.6,0.2,5.2,0.3,7.9,0.3
		c2.7,0,5.3-0.1,7.9-0.3c2-1.6,3.9-3.3,5.8-5.2c1.9-1.8,3.7-3.7,5.3-5.6c0.2-2.5,0.3-5,0.3-7.6c0-2.6-0.1-5.2-0.3-7.6
		c-1.7-1.9-3.4-3.8-5.3-5.6C71.8,45.4,69.9,43.7,67.9,42.1z M73.3,67.2c0,3.3-6.5,5.1-13,5.1s-13-1.7-13-5.1v-16
		c0-3.3,6.5-5.1,13-5.1s13,1.7,13,5.1V67.2z"/>
	<path class="st8" d="M42.9,41c2.6-0.5,5.4-0.9,8.2-1.1c2.2-1.7,4.4-3.3,6.6-4.8c-3.7-2.2-7.4-3.8-10.8-4.9
		C45.3,33.2,44,36.9,42.9,41z"/>
	<path class="st8" d="M44.6,45.6c1.1-1.1,2.2-2.1,3.3-3.1c-1.9,0.3-3.8,0.6-5.6,0.9c-0.4,1.7-0.7,3.5-1,5.4
		C42.4,47.8,43.5,46.7,44.6,45.6z"/>
	<path class="st8" d="M28.5,73.2c3.2,1.5,7,2.9,11.2,3.9c-0.5-2.5-0.9-5.2-1.2-7.9c-1.8-2.1-3.5-4.2-5-6.4c-2,3.2-3.6,6.3-4.7,9.4
		C28.8,72.5,28.7,72.8,28.5,73.2z"/>
	<path class="st8" d="M60.3,56.3c-4.1,0-8.3-0.7-10.7-2.1v5c0,1,3.8,2.9,10.7,2.9S71,60.2,71,59.2v-5C68.6,55.6,64.4,56.3,60.3,56.3
		z M55.8,59.4h-1.9v-1.8h1.9V59.4z M59.5,59.4h-1.9v-1.8h1.9V59.4z M63.1,59.4h-1.9v-1.8h1.9V59.4z M66.8,59.4h-1.9v-1.8h1.9V59.4z"
		/>
	<path class="st8" d="M38.2,60.5c0-1.5,0-3,0.1-4.4c-1.2,1.5-2.2,3-3.2,4.4c1,1.5,2.1,2.9,3.2,4.4C38.2,63.5,38.2,62,38.2,60.5z"/>
	<path class="st8" d="M33.6,58.4c1.5-2.2,3.2-4.3,5-6.4c0.3-2.8,0.7-5.4,1.2-7.9c-0.5,0.1-1,0.2-1.4,0.4c0,0.1,0,0.1,0,0.2
		c0,2.4-2,4.4-4.6,4.4c-1.5,0-2.8-0.7-3.7-1.8c-0.6,0.2-1.1,0.5-1.6,0.7C29.6,51.2,31.4,54.8,33.6,58.4z"/>
	<path class="st8" d="M92.2,45.7c0.5-1.9,0.8-3.7,0.9-5.4c-2.1-0.4-3.8-2.2-3.8-4.3c0-1.4,0.7-2.6,1.7-3.4c-0.3-0.4-0.6-0.7-0.9-1.1
		c-2-1.9-4.8-2.8-8.3-2.8c-1.9,0-4.1,0.3-6.4,0.9c1.8,3.4,3.2,7.5,4.3,12C84.4,42.6,88.6,44,92.2,45.7z"/>
	<path class="st8" d="M51.2,81.2c-2.9-0.3-5.6-0.6-8.2-1.1c1,4.1,2.4,7.7,4,10.8c0.4-0.1,0.7-0.2,1.1-0.4c3.2-1.1,6.5-2.6,9.8-4.5
		C55.5,84.5,53.3,82.9,51.2,81.2z"/>
	<path class="st8" d="M68.9,81.2c-2.2,1.7-4.4,3.3-6.6,4.8c3.3,1.9,6.6,3.4,9.8,4.5c0.4,0.1,0.7,0.2,1.1,0.4c1.6-3.1,3-6.7,4-10.8
		C74.5,80.6,71.7,80.9,68.9,81.2z"/>
	<path class="st8" d="M60.3,64.3c-4.1,0-8.3-0.7-10.7-2.1v5.1c0,1,3.8,2.9,10.7,2.9S71,68.2,71,67.2v-5.1
		C68.6,63.5,64.4,64.3,60.3,64.3z M55.8,67.5h-1.9v-1.8h1.9V67.5z M59.5,67.5h-1.9v-1.8h1.9V67.5z M63.1,67.5h-1.9v-1.8h1.9V67.5z
		 M66.8,67.5h-1.9v-1.8h1.9V67.5z"/>
	<path class="st8" d="M60.3,54.2c6.9,0,10.7-1.9,10.7-2.9s-3.8-2.9-10.7-2.9s-10.7,1.9-10.7,2.9S53.4,54.2,60.3,54.2z"/>
	<path class="st8" d="M68.9,39.9c2.8,0.3,5.6,0.6,8.2,1.1c-1-4.1-2.4-7.7-4-10.8c-0.4,0.1-0.7,0.2-1.1,0.4c-3.2,1.1-6.4,2.6-9.7,4.5
		C64.5,36.5,66.7,38.1,68.9,39.9z"/>
	<path class="st8" d="M44.6,75.4C44.6,75.4,44.6,75.4,44.6,75.4c-1.1-1.1-2.2-2.1-3.2-3.2c0.3,1.9,0.6,3.6,1,5.4
		c1.8,0.4,3.7,0.7,5.6,0.9C46.8,77.5,45.7,76.5,44.6,75.4z"/>
	<path class="st8" d="M91.1,72.1c-1.1-3.1-2.7-6.2-4.7-9.4c-1.5,2.1-3.1,4.3-5,6.4c-0.3,2.7-0.7,5.4-1.2,7.9
		c0.4-0.1,0.7-0.2,1.1-0.3c0-0.1,0-0.1,0-0.2c0-2.4,2-4.4,4.6-4.4c1.5,0,2.9,0.7,3.7,1.8c0.6-0.3,1.2-0.5,1.8-0.8
		C91.3,72.8,91.2,72.5,91.1,72.1z"/>
	<path class="st8" d="M90.5,76.5c0,2.4-2,4.4-4.6,4.4c-1.6,0-3-0.8-3.8-2c-0.8,0.2-1.6,0.4-2.4,0.6c-1.1,4.5-2.5,8.5-4.3,12
		c2.1,0.5,4,0.8,5.7,0.9c0.2-2.2,2.1-4,4.5-4c1.5,0,2.9,0.7,3.7,1.8c0.3-0.2,0.5-0.4,0.7-0.6c3-2.9,3.7-7.9,2-14.2
		c-0.6,0.3-1.1,0.5-1.7,0.8C90.5,76.3,90.5,76.4,90.5,76.5z"/>
	<path class="st8" d="M32.2,60.6c-2.6-4-4.5-7.8-5.8-11.5c-5.6,3.2-8.9,7.2-8.9,11.5c0,4.3,3.4,8.3,9,11.5c0.1-0.2,0.2-0.5,0.3-0.7
		C28,67.8,29.8,64.2,32.2,60.6z"/>
	<path class="st8" d="M27.9,75.4c-0.2,0.8-0.4,1.6-0.5,2.4c1.8,0.6,3,2.2,3,4.1c0,1.8-1.1,3.3-2.7,4c0.5,1.4,1.2,2.7,2.3,3.6
		c3,2.9,8.2,3.6,14.7,2c-1.8-3.4-3.2-7.5-4.3-12C35.6,78.5,31.4,77.1,27.9,75.4z"/>
	<path class="st8" d="M60,87.4c-3.8,2.3-7.5,4.1-11.2,5.3c-0.3,0.1-0.5,0.2-0.7,0.2c3.3,5.4,7.4,8.7,11.9,8.7c1.1,0,2.2-0.2,3.3-0.6
		c-0.2-0.5-0.3-1-0.3-1.5c0-2.4,2-4.4,4.6-4.4c0.9,0,1.7,0.2,2.4,0.7c0.7-0.9,1.3-1.8,2-2.8c-0.2-0.1-0.5-0.2-0.7-0.2
		C67.5,91.4,63.8,89.6,60,87.4z"/>
	<path class="st8" d="M60,81.6c-1.6,0-3.1,0-4.6-0.1c1.5,1.1,3.1,2.2,4.6,3.1c1.5-1,3.1-2,4.6-3.1C63.1,81.6,61.6,81.6,60,81.6z"/>
	<path class="st8" d="M93.7,49.1c-1.3,3.7-3.2,7.5-5.8,11.5c2.3,3.6,4.2,7.2,5.5,10.8c0.1,0.2,0.2,0.5,0.2,0.7c5.6-3.2,9-7.2,9-11.5
		C102.6,56.2,99.2,52.2,93.7,49.1z"/>
	<path class="st8" d="M71.2,28.4c0.3-0.1,0.5-0.2,0.7-0.2c-2.4-4-5.3-6.8-8.4-8c-0.7,1.5-2.3,2.6-4.2,2.6c-1.7,0-3.1-0.9-3.9-2.1
		c-2.7,1.4-5.2,4-7.3,7.5c3.8,1.2,7.8,3.1,11.9,5.6C63.8,31.4,67.5,29.6,71.2,28.4z"/>
	<path class="st8" d="M75.4,75.4c-1.1,1.1-2.2,2.1-3.3,3.1c1.9-0.3,3.8-0.6,5.6-0.9c0.4-1.7,0.7-3.5,1-5.4
		C77.6,73.3,76.5,74.4,75.4,75.4z"/>
	<path class="st8" d="M81.8,60.5c0,1.5,0,3-0.1,4.4c1.2-1.5,2.3-3,3.3-4.4c-1-1.5-2.1-3-3.3-4.5C81.8,57.5,81.8,59,81.8,60.5z"/>
	<path class="st8" d="M80.3,44.1c0.5,2.5,0.9,5.2,1.2,7.9c1.8,2.1,3.5,4.3,5,6.4c2.3-3.6,4-7.1,5.1-10.4
		C88.3,46.4,84.5,45.1,80.3,44.1z"/>
	<path class="st8" d="M29.2,44.6c0-2.4,2-4.4,4.6-4.4c1.6,0,3,0.8,3.8,2c0.9-0.2,1.8-0.5,2.7-0.7c1.1-4.5,2.6-8.6,4.3-12.1
		c-6.3-1.6-11.6-1-14.7,2c-3.2,3.1-3.7,8.1-2.1,14.2c0.5-0.2,0.9-0.4,1.4-0.6C29.2,44.9,29.2,44.7,29.2,44.6z"/>
	<path class="st2" d="M94.4,46.8c0.7-2.4,1-4.6,1.1-6.7c1.7-0.6,3-2.2,3-4.1c0-2.4-2-4.4-4.6-4.4c-0.2,0-0.4,0-0.6,0.1
		c-0.4-0.6-0.9-1.3-1.5-1.8c-3.8-3.6-9.9-4.4-17.6-2.4c-2.9-4.9-6.5-8.3-10.4-9.6c-0.3-2.2-2.2-3.9-4.5-3.9c-2.5,0-4.6,2-4.6,4.4
		l0,0c-3.4,1.6-6.5,4.7-9,9c-7.4-1.9-13.7-1.3-17.6,2.5c-3.9,3.7-4.6,9.8-2.6,17C19,50.5,15,55.2,15,60.5c0,5.3,4,10.1,10.7,13.8
		c-0.3,1.1-0.6,2.2-0.8,3.3c-2.1,0.4-3.7,2.2-3.7,4.3c0,2.2,1.8,4.1,4,4.4c0.6,1.9,1.6,3.6,3,5c2.4,2.3,5.8,3.5,10,3.5
		c2.3,0,4.8-0.4,7.6-1.1c3.8,6.4,8.8,10.3,14.3,10.3c1.6,0,3.2-0.3,4.7-1c0.8,0.6,1.8,1,2.9,1c2.5,0,4.6-2,4.6-4.4
		c0-0.7-0.2-1.4-0.6-2.1c0.9-1.1,1.8-2.4,2.6-3.8c2.6,0.7,5.1,1.1,7.4,1.1c0.7,1.5,2.3,2.5,4.1,2.5c2.5,0,4.6-2,4.6-4.4
		c0-0.1,0-0.2,0-0.3c0.6-0.4,1.1-0.8,1.6-1.3c3.8-3.6,4.6-9.6,2.5-16.9c6.7-3.7,10.7-8.4,10.7-13.7C105,55.2,101,50.5,94.4,46.8z
		 M96,36c0,1.1-1,2.1-2.2,2.1c-1.2,0-2.2-0.9-2.2-2.1s1-2.1,2.2-2.1C95.1,33.9,96,34.8,96,36z M81.8,28.7c3.5,0,6.3,0.9,8.3,2.8
		c0.3,0.3,0.6,0.7,0.9,1.1c-1.1,0.8-1.7,2-1.7,3.4c0,2.2,1.6,4,3.8,4.3c-0.1,1.7-0.4,3.5-0.9,5.4c-3.6-1.7-7.8-3.1-12.5-4.2
		c-1.1-4.5-2.5-8.5-4.3-12C77.7,29,79.9,28.7,81.8,28.7z M88.1,76.5c0,1.1-1,2.1-2.2,2.1c-1.2,0-2.2-0.9-2.2-2.1
		c0-1.1,1-2.1,2.2-2.1C87.1,74.5,88.1,75.4,88.1,76.5z M85.9,72.1c-2.5,0-4.6,2-4.6,4.4c0,0.1,0,0.1,0,0.2c-0.4,0.1-0.7,0.2-1.1,0.3
		c0.5-2.5,0.9-5.2,1.2-7.9c1.8-2.1,3.5-4.3,5-6.4c2,3.2,3.6,6.3,4.7,9.4c0.1,0.4,0.3,0.7,0.4,1.1c-0.6,0.3-1.2,0.6-1.8,0.8
		C88.8,72.9,87.5,72.1,85.9,72.1z M72,90.5c-3.2-1.1-6.5-2.6-9.8-4.5c2.2-1.4,4.4-3,6.6-4.8c2.9-0.3,5.6-0.6,8.2-1.1
		c-1,4.1-2.4,7.7-4,10.8C72.7,90.7,72.4,90.6,72,90.5z M46.9,90.9c-1.6-3.1-3-6.7-4-10.8c2.6,0.5,5.4,0.9,8.2,1.1
		c2.2,1.7,4.4,3.3,6.6,4.8c-3.3,1.9-6.6,3.4-9.8,4.5C47.6,90.6,47.3,90.8,46.9,90.9z M31.6,44.6c0-1.1,1-2.1,2.2-2.1
		c1.2,0,2.2,0.9,2.2,2.1c0,1.1-1,2.1-2.2,2.1C32.6,46.7,31.6,45.7,31.6,44.6z M33.8,49c2.5,0,4.6-2,4.6-4.4c0-0.1,0-0.1,0-0.2
		c0.5-0.1,0.9-0.2,1.4-0.4c-0.5,2.5-0.9,5.2-1.2,7.9c-1.8,2.1-3.5,4.2-5,6.4c-2.3-3.6-4-7.1-5.1-10.4c0.5-0.3,1.1-0.5,1.6-0.7
		C30.9,48.3,32.3,49,33.8,49z M73.1,30.2c1.6,3.1,3,6.7,4,10.8c-2.6-0.5-5.4-0.9-8.2-1.1c-2.2-1.8-4.4-3.4-6.6-4.8
		c3.3-1.9,6.5-3.4,9.7-4.5C72.4,30.4,72.7,30.3,73.1,30.2z M79.4,60.5c0,2.6-0.1,5.2-0.3,7.6c-1.7,1.9-3.4,3.8-5.3,5.6
		c-1.9,1.8-3.9,3.6-5.8,5.2c-2.6,0.2-5.2,0.3-7.9,0.3c-2.7,0-5.3-0.1-7.9-0.3c-2-1.6-3.9-3.3-5.8-5.2h0c-1.9-1.8-3.7-3.7-5.4-5.6
		c-0.2-2.5-0.3-5-0.3-7.6c0-2.6,0.1-5.2,0.3-7.6c1.7-1.9,3.5-3.8,5.3-5.6c1.9-1.8,3.8-3.6,5.8-5.2c2.6-0.2,5.2-0.3,7.9-0.3
		c2.7,0,5.4,0.1,7.9,0.3c2,1.6,3.9,3.3,5.8,5.2c1.9,1.8,3.7,3.7,5.3,5.6C79.3,55.4,79.4,57.9,79.4,60.5z M75.5,45.6
		c-1.1-1.1-2.2-2.1-3.3-3.1c1.9,0.2,3.8,0.6,5.5,0.9c0.4,1.7,0.7,3.5,1,5.4C77.6,47.8,76.5,46.7,75.5,45.6z M64.6,39.6
		c-1.5-0.1-3.1-0.1-4.6-0.1c-1.6,0-3.1,0-4.6,0.1c1.5-1.1,3.1-2.2,4.6-3.1C61.5,37.4,63.1,38.4,64.6,39.6z M51.1,39.9
		c-2.9,0.3-5.6,0.6-8.2,1.1c1-4.1,2.4-7.8,4-10.9c3.4,1.1,7.1,2.8,10.8,4.9C55.5,36.5,53.3,38.1,51.1,39.9z M47.9,42.6
		c-1.1,1-2.2,2-3.3,3.1c-1.1,1.1-2.2,2.1-3.2,3.2c0.3-1.8,0.6-3.6,1-5.4C44.1,43.1,46,42.8,47.9,42.6z M38.3,56.1
		c-0.1,1.5-0.1,2.9-0.1,4.4c0,1.5,0,3,0.1,4.4c-1.2-1.5-2.2-3-3.2-4.4C36,59,37.1,57.6,38.3,56.1z M38.6,69.1
		c0.3,2.8,0.7,5.4,1.2,7.9c-4.2-1-8-2.3-11.2-3.9c0.1-0.4,0.2-0.7,0.4-1.1c1.1-3.1,2.7-6.2,4.7-9.4C35.1,64.8,36.8,67,38.6,69.1z
		 M41.4,72.2c1,1.1,2.1,2.2,3.2,3.2c0,0,0,0,0,0c1.1,1.1,2.2,2.1,3.3,3.1c-1.9-0.3-3.8-0.6-5.6-0.9C42,75.8,41.6,74,41.4,72.2z
		 M55.4,81.5c1.5,0.1,3,0.1,4.6,0.1c1.6,0,3.1,0,4.6-0.1c-1.5,1.1-3.1,2.2-4.6,3.1C58.5,83.6,56.9,82.6,55.4,81.5z M72.1,78.5
		c1.1-1,2.2-2,3.3-3.1c1.1-1.1,2.2-2.1,3.2-3.2c-0.3,1.8-0.6,3.6-1,5.4C75.9,77.9,74,78.2,72.1,78.5z M81.7,65
		c0.1-1.5,0.1-2.9,0.1-4.4c0-1.5,0-3-0.1-4.5c1.2,1.5,2.3,3,3.3,4.5C84,62,82.9,63.5,81.7,65z M81.4,52c-0.3-2.7-0.7-5.4-1.2-7.9
		c4.2,1,8,2.3,11.3,3.9c-1.1,3.3-2.9,6.8-5.1,10.4C84.9,56.2,83.2,54.1,81.4,52z M57.2,18.3c0-1.1,1-2.1,2.2-2.1
		c1.2,0,2.2,0.9,2.2,2.1s-1,2.1-2.2,2.1C58.1,20.4,57.2,19.5,57.2,18.3z M55.4,20.6c0.8,1.3,2.2,2.1,3.9,2.1c1.9,0,3.5-1.1,4.2-2.6
		c3.1,1.2,6,4,8.4,8c-0.2,0.1-0.5,0.2-0.7,0.2c-3.6,1.3-7.4,3.1-11.1,5.3c-4.1-2.5-8.1-4.4-11.9-5.6C50.2,24.6,52.7,22,55.4,20.6z
		 M29.9,31.5c3.2-3.1,8.4-3.6,14.7-2c-1.8,3.5-3.2,7.5-4.3,12.1c-0.9,0.2-1.8,0.4-2.7,0.7c-0.8-1.2-2.2-2-3.8-2
		c-2.5,0-4.6,2-4.6,4.4c0,0.2,0,0.3,0,0.5c-0.5,0.2-1,0.4-1.4,0.6C26.2,39.6,26.7,34.5,29.9,31.5z M17.4,60.5
		c0-4.3,3.3-8.3,8.9-11.5c1.3,3.7,3.2,7.5,5.8,11.5c-2.3,3.6-4.2,7.2-5.5,10.8c-0.1,0.2-0.2,0.5-0.3,0.7
		C20.8,68.8,17.4,64.9,17.4,60.5z M23.6,81.9c0-1.1,1-2.1,2.2-2.1c1.2,0,2.2,0.9,2.2,2.1c0,1.1-1,2.1-2.2,2.1
		C24.6,84,23.6,83.1,23.6,81.9z M29.9,89.6c-1-1-1.8-2.2-2.3-3.6c1.6-0.7,2.7-2.2,2.7-4c0-1.9-1.3-3.5-3-4.1
		c0.1-0.8,0.3-1.6,0.5-2.4c3.6,1.7,7.8,3.1,12.4,4.1c1.1,4.5,2.5,8.5,4.3,12C38.1,93.2,32.9,92.5,29.9,89.6z M69.8,99.5
		c0,1.1-1,2.1-2.2,2.1c-1.2,0-2.2-0.9-2.2-2.1c0-1.1,1-2.1,2.2-2.1C68.8,97.4,69.8,98.4,69.8,99.5z M70,95.8
		c-0.7-0.4-1.5-0.7-2.4-0.7c-2.5,0-4.6,2-4.6,4.4c0,0.5,0.1,1,0.3,1.5c-1.1,0.4-2.2,0.6-3.3,0.6c-4.5,0-8.6-3.2-11.9-8.7
		c0.2-0.1,0.5-0.2,0.7-0.2c3.6-1.3,7.4-3.1,11.2-5.3c3.8,2.3,7.5,4.1,11.2,5.3c0.2,0.1,0.5,0.2,0.7,0.2C71.3,94,70.6,94.9,70,95.8z
		 M87.9,92.8c0,1.1-1,2.1-2.2,2.1c-1.2,0-2.2-0.9-2.2-2.1c0-1.1,1-2.1,2.2-2.1C86.9,90.7,87.9,91.6,87.9,92.8z M90.1,89.6
		c-0.2,0.2-0.5,0.4-0.7,0.6c-0.8-1.1-2.2-1.8-3.7-1.8c-2.4,0-4.3,1.8-4.5,4c-1.8-0.1-3.7-0.3-5.7-0.9c1.8-3.4,3.2-7.5,4.3-12
		c0.8-0.2,1.6-0.4,2.4-0.6c0.8,1.2,2.2,2,3.8,2c2.5,0,4.6-2,4.6-4.4c0-0.1,0-0.2,0-0.4c0.6-0.2,1.1-0.5,1.7-0.8
		C93.8,81.7,93.2,86.7,90.1,89.6z M93.6,72c-0.1-0.2-0.2-0.5-0.2-0.7c-1.3-3.5-3.2-7.1-5.5-10.8c2.6-3.9,4.5-7.8,5.8-11.5
		c5.6,3.2,8.9,7.1,8.9,11.5C102.6,64.9,99.2,68.8,93.6,72z"/>
	<ellipse class="st1" cx="67.6" cy="99.5" rx="2.2" ry="2.1"/>
	<path class="st2" d="M60.3,46.2c-6.4,0-13,1.7-13,5.1v16c0,3.3,6.5,5.1,13,5.1s13-1.7,13-5.1v-16C73.3,47.9,66.8,46.2,60.3,46.2z
		 M60.3,48.4c6.9,0,10.7,1.9,10.7,2.9s-3.8,2.9-10.7,2.9s-10.7-1.9-10.7-2.9S53.4,48.4,60.3,48.4z M60.3,70.1
		c-6.9,0-10.7-1.9-10.7-2.9v-5.1c2.5,1.4,6.6,2.1,10.7,2.1s8.3-0.7,10.7-2.1v5.1C71,68.2,67.3,70.1,60.3,70.1z M60.3,62.1
		c-6.9,0-10.7-1.9-10.7-2.9v-5c2.5,1.4,6.6,2.1,10.7,2.1s8.3-0.7,10.7-2.1v5C71,60.2,67.3,62.1,60.3,62.1z"/>
	<polygon class="st2" points="78.9,25.1 78.6,23.3 76.8,23.6 77.1,25.4 	"/>
	<rect x="80.6" y="23.2" class="st2" width="1.9" height="1.8"/>
	<polygon class="st2" points="86.3,23.6 84.5,23.3 84.2,25.1 86,25.4 	"/>
	<polygon class="st2" points="90.1,24.8 88.4,24.1 87.7,25.8 89.4,26.5 	"/>
	<polygon class="st2" points="93.4,26.8 91.9,25.8 90.9,27.3 92.4,28.3 	"/>
	<rect x="53.9" y="57.6" class="st2" width="1.9" height="1.8"/>
	<rect x="57.6" y="57.6" class="st2" width="1.9" height="1.8"/>
	<rect x="61.3" y="57.6" class="st2" width="1.9" height="1.8"/>
	<rect x="64.9" y="57.6" class="st2" width="1.9" height="1.8"/>
	<rect x="53.9" y="65.7" class="st2" width="1.9" height="1.8"/>
	<rect x="57.6" y="65.7" class="st2" width="1.9" height="1.8"/>
	<rect x="61.3" y="65.7" class="st2" width="1.9" height="1.8"/>
	<rect x="64.9" y="65.7" class="st2" width="1.9" height="1.8"/>
	<polygon class="st2" points="98.3,76.7 96.5,77 96.8,78.8 98.6,78.5 	"/>
	<rect x="96.9" y="80.4" class="st2" width="1.9" height="1.8"/>
	<polygon class="st2" points="96.5,85.7 98.3,85.9 98.6,84.2 96.8,83.9 	"/>
	<polygon class="st2" points="95.3,88.9 97.1,89.6 97.8,87.9 96,87.2 	"/>
	<polygon class="st2" points="93.5,91.8 95,92.8 96.1,91.3 94.5,90.3 	"/>
	<polygon class="st2" points="21.4,42 21.6,43.8 23.5,43.5 23.2,41.8 	"/>
	<polygon class="st2" points="23.2,38.3 21.3,38.3 21.3,40.1 23.1,40.1 	"/>
	<polygon class="st2" points="23.7,34.9 21.8,34.6 21.5,36.3 23.3,36.7 	"/>
	<polygon class="st2" points="24.9,31.7 23.2,31 22.4,32.6 24.1,33.4 	"/>
	<polygon class="st2" points="26.8,28.8 25.3,27.8 24.2,29.3 25.8,30.3 	"/>
	<polygon class="st2" points="36.2,97.9 38,98 38.2,96.2 36.4,96.1 	"/>
	<polygon class="st2" points="32.4,97.1 34.2,97.5 34.7,95.8 32.9,95.3 	"/>
	<polygon class="st2" points="28.8,95.7 30.5,96.4 31.3,94.8 29.6,94.1 	"/>
	<polygon class="st2" points="25.5,93.7 27,94.7 28.1,93.3 26.6,92.2 	"/>
	<ellipse class="st1" cx="59.3" cy="18.3" rx="2.2" ry="2.1"/>
	<ellipse class="st1" cx="93.9" cy="36" rx="2.2" ry="2.1"/>
	<ellipse class="st1" cx="25.8" cy="81.9" rx="2.2" ry="2.1"/>
	<ellipse class="st1" cx="85.9" cy="76.5" rx="2.2" ry="2.1"/>
	<ellipse class="st1" cx="85.7" cy="92.8" rx="2.2" ry="2.1"/>
	<ellipse class="st1" cx="33.8" cy="44.6" rx="2.2" ry="2.1"/>
</g>
</svg>
