<svg width="185" height="188" viewBox="0 0 185 188" fill="none" xmlns="http://www.w3.org/2000/svg">
<path d="M105.756 102.797H83.6504C82.5372 102.797 81.583 101.84 81.583 100.723V70.2475C81.583 69.1306 82.5372 68.0137 83.6504 68.0137C84.7636 68.0137 85.7178 68.971 85.7178 70.2475V98.6485H105.756C106.869 98.6485 107.823 99.6058 107.823 100.723C107.823 101.84 107.028 102.797 105.756 102.797Z" fill="#172F3C"/>
<path d="M83.9685 57.3233C80.9469 57.3233 78.4023 54.7704 78.4023 51.7389V38.9744H89.5346V51.7389C89.5346 54.7704 86.9901 57.3233 83.9685 57.3233Z" fill="#E53F2C"/>
<path d="M105.598 63.2269C102.894 61.6314 102.099 58.2807 103.53 55.5682L109.891 44.5588L119.592 50.1433L113.231 61.1527C111.641 63.8652 108.142 64.8225 105.598 63.2269Z" fill="#E53F2C"/>
<path d="M121.183 79.1826C119.593 76.4701 120.547 73.1194 123.25 71.5239L134.223 65.1416L139.79 74.8745L128.816 81.2568C126.113 82.6928 122.773 81.895 121.183 79.1826Z" fill="#E53F2C"/>
<path d="M126.907 100.723C126.907 97.6911 129.293 95.1382 132.473 95.1382H145.196V106.307H132.473C129.452 106.307 126.907 103.754 126.907 100.723Z" fill="#E53F2C"/>
<path d="M121.183 122.263C122.773 119.55 126.113 118.593 128.816 120.189L139.949 126.571L134.382 136.304L123.25 129.921C120.547 128.326 119.593 124.975 121.183 122.263Z" fill="#E53F2C"/>
<path d="M105.438 138.218C108.142 136.623 111.481 137.58 113.072 140.133L119.592 151.142L110.05 156.886L103.53 145.877C101.939 143.165 102.734 139.654 105.438 138.218Z" fill="#E53F2C"/>
<path d="M83.9688 144.122C86.9905 144.122 89.535 146.515 89.694 149.707L89.853 162.471L78.7208 162.631L78.5618 149.866C78.4027 146.675 80.9472 144.122 83.9688 144.122Z" fill="#E53F2C"/>
<path d="M62.5 138.537C65.2035 139.973 66.1577 143.484 64.7264 146.196L58.5242 157.365L48.8232 151.94L55.0255 140.771C56.4568 137.899 59.7964 136.942 62.5 138.537Z" fill="#E53F2C"/>
<path d="M46.596 122.901C48.1863 125.614 47.3912 128.964 44.6876 130.56L33.7144 137.102L27.9893 127.528L38.9625 120.986C41.507 119.391 45.0057 120.189 46.596 122.901Z" fill="#E53F2C"/>
<path d="M40.394 101.361C40.394 104.393 38.0085 106.945 34.9869 107.105L22.2644 107.424L21.9463 96.2551L34.6688 95.936C37.8495 95.936 40.394 98.3294 40.394 101.361Z" fill="#E53F2C"/>
<path d="M45.8009 79.6613C44.3696 82.3738 40.8709 83.3311 38.1674 81.8951L27.0352 75.832L32.2832 65.9395L43.4154 72.0026C46.278 73.5982 47.3912 76.9488 45.8009 79.6613Z" fill="#E53F2C"/>
<path d="M61.2269 63.7056C58.6824 65.3011 55.1837 64.5033 53.5934 61.9504L46.9141 51.1006L56.456 45.197L63.1353 56.0468C64.7256 58.5997 63.9305 61.9504 61.2269 63.7056Z" fill="#E53F2C"/>
<path d="M166.029 101.999C166.819 101.999 167.46 101.356 167.46 100.563C167.46 99.7701 166.819 99.1272 166.029 99.1272C165.238 99.1272 164.598 99.7701 164.598 100.563C164.598 101.356 165.238 101.999 166.029 101.999Z" fill="#E53F2C"/>
<path d="M163.167 123.858C164.309 123.858 165.234 122.93 165.234 121.784C165.234 120.638 164.309 119.71 163.167 119.71C162.025 119.71 161.1 120.638 161.1 121.784C161.1 122.93 162.025 123.858 163.167 123.858Z" fill="#E53F2C"/>
<path d="M155.056 144.282C156.549 144.282 157.76 143.067 157.76 141.569C157.76 140.071 156.549 138.857 155.056 138.857C153.563 138.857 152.353 140.071 152.353 141.569C152.353 143.067 153.563 144.282 155.056 144.282Z" fill="#E53F2C"/>
<path d="M142.015 162.312C143.948 162.312 145.514 160.74 145.514 158.801C145.514 156.863 143.948 155.291 142.015 155.291C140.083 155.291 138.517 156.863 138.517 158.801C138.517 160.74 140.083 162.312 142.015 162.312Z" fill="#E53F2C"/>
<path d="M125.158 176.033C127.617 176.033 129.611 174.033 129.611 171.565C129.611 169.098 127.617 167.098 125.158 167.098C122.699 167.098 120.705 169.098 120.705 171.565C120.705 174.033 122.699 176.033 125.158 176.033Z" fill="#E53F2C"/>
<path d="M105.12 184.33C107.579 184.33 109.573 182.33 109.573 179.863C109.573 177.395 107.579 175.395 105.12 175.395C102.661 175.395 100.667 177.395 100.667 179.863C100.667 182.33 102.661 184.33 105.12 184.33Z" fill="#182F3C"/>
<path d="M84.764 185.607C38.0086 185.607 0 147.473 0 100.563C0 53.6535 38.0086 15.5195 84.764 15.5195H180.342C181.456 15.5195 182.41 16.4769 182.41 17.7533C182.41 19.0298 181.456 19.9871 180.342 19.9871H84.764C40.3941 19.9871 4.29386 56.2064 4.29386 100.723C4.29386 145.239 40.3941 181.458 84.764 181.458C85.8773 181.458 86.8315 182.415 86.8315 183.532C86.8315 184.649 85.8773 185.607 84.764 185.607Z" fill="#172F3C"/>
<path d="M164.598 33.709C163.803 32.9112 163.803 31.4752 164.757 30.6774L178.752 17.7533L164.757 4.82929C163.803 3.87195 163.803 2.5955 164.598 1.63816C165.394 0.840378 166.825 0.680822 167.62 1.4786L183.364 16.1578C184.318 16.9556 184.318 18.3916 183.364 19.1894L167.62 33.8685C166.825 34.6663 165.394 34.6663 164.598 33.709Z" fill="#172F3C"/>
<path d="M83.6506 164.864C48.3455 164.864 19.7197 136.144 19.7197 100.722C19.7197 65.3009 48.3455 36.5808 83.6506 36.5808C118.956 36.5808 147.581 65.3009 147.581 100.722C147.581 136.144 118.956 164.864 83.6506 164.864ZM83.6506 40.8888C50.731 40.8888 24.0136 67.6943 24.0136 100.722C24.0136 133.751 50.731 160.556 83.6506 160.556C116.57 160.556 143.288 133.751 143.288 100.722C143.288 67.6943 116.57 40.8888 83.6506 40.8888Z" fill="#172F3C"/>
<path d="M32.1242 161.514L28.3074 170.13C27.3532 172.363 29.1026 175.395 31.329 176.352L56.6151 187.521C58.8415 188.479 61.5451 187.521 62.4993 185.128L66.316 176.512C67.2702 174.278 66.316 171.566 63.9306 170.608L38.6445 159.439C36.418 158.642 33.0784 159.28 32.1242 161.514ZM43.8925 162.79L52.3212 166.46L51.6851 168.534L48.1864 166.939L43.8925 162.79ZM41.03 162.631C43.5745 164.545 46.5961 166.939 46.5961 166.939L42.1432 176.991L35.3048 175.874C35.1458 176.033 35.7819 168.534 41.03 162.631ZM43.5745 178.586L46.9141 180.022L45.8009 181.937L37.5313 178.267L43.5745 178.586ZM54.5477 185.766L47.0732 182.416L48.1864 180.501L54.2296 183.054L54.5477 185.766ZM57.0922 185.607L55.3428 182.894L59.7957 172.842L62.9764 172.363L57.0922 185.607ZM58.8415 171.725L53.1164 169.172L53.7525 167.098L61.068 170.289L58.8415 171.725Z" fill="#E53F2C"/>
<path d="M43.8926 162.79L52.4803 166.46L51.8442 168.534L48.3455 167.098L43.8926 162.79Z" fill="white"/>
<path d="M41.0303 162.631C43.5748 164.545 46.5964 166.939 46.5964 166.939L42.1435 176.991L35.3052 175.874C35.1461 176.033 35.7823 168.534 41.0303 162.631Z" fill="white"/>
<path d="M43.5753 178.586L46.7559 180.022L45.6427 181.937L37.373 178.267L43.5753 178.586Z" fill="white"/>
<path d="M54.5486 185.766L46.915 182.416L48.0283 180.501L54.0715 183.213L54.5486 185.766Z" fill="white"/>
<path d="M57.0921 185.607L55.3428 182.894L59.7957 172.842L62.9763 172.204L57.0921 185.607Z" fill="white"/>
<path d="M58.8414 171.725L53.1162 169.172L53.5933 167.098L60.9088 170.289L58.8414 171.725Z" fill="white"/>
</svg>
