<?xml version="1.0" encoding="utf-8"?>
<!-- Generator: Adobe Illustrator 21.1.0, SVG Export Plug-In . SVG Version: 6.00 Build 0)  -->
<svg version="1.1" id="Layer_1" xmlns="http://www.w3.org/2000/svg" xmlns:xlink="http://www.w3.org/1999/xlink" x="0px" y="0px"
	 viewBox="0 0 120 120" style="enable-background:new 0 0 120 120;" xml:space="preserve">
<style type="text/css">
	.st0{fill:#E53F2C;}
	.st1{fill:#182F3C;}
	.st2{fill:#FFFFFF;}
	.st3{fill:#FFFFFF;stroke:#182F3C;stroke-width:3;stroke-linejoin:round;stroke-miterlimit:10;}
	.st4{fill:#FFFFFF;stroke:#182F3C;stroke-width:3;stroke-linecap:round;stroke-linejoin:round;stroke-miterlimit:10;}
	.st5{fill:none;stroke:#182F3C;stroke-width:2.7;stroke-linejoin:round;stroke-miterlimit:10;}
	.st6{fill:#E53F2C;stroke:#182F3C;stroke-width:2.7;stroke-linejoin:round;stroke-miterlimit:10;}
	.st7{fill:none;stroke:#182F3C;stroke-width:2.5;stroke-linejoin:round;stroke-miterlimit:10;}
	.st8{fill:none;}
	.st9{fill:none;stroke:#182F3C;stroke-width:2.5982;stroke-linejoin:round;stroke-miterlimit:10;}
	.st10{fill:#E53F2C;stroke:#182F3C;stroke-width:2.5982;stroke-linejoin:round;stroke-miterlimit:10;}
	.st11{fill:#FFFFFF;stroke:#182F3C;stroke-width:2.5982;stroke-linejoin:round;stroke-miterlimit:10;}
</style>
<g>
	<g>
		<path class="st1" d="M88.1,61.4c0.8,3.7,4.3,6.2,8,5.7c3.8-0.5,6.5-3.9,6.2-7.6c-0.3-3.8-3.4-6.7-7.2-6.7c-3.4,0-6.4,2.4-7.1,5.8
			l0,0.2H69.4l0-0.2c-0.3-1.6-1.2-3-2.4-4l-0.2-0.1l5.2-9.6h5.6l0,0.2c0.7,3.6,4.1,6.1,7.8,5.7c3.7-0.4,6.5-3.5,6.5-7.2
			c0-3.7-2.8-6.8-6.5-7.2c-3.7-0.4-7.1,2.1-7.8,5.7l0,0.2h-5.1V32.1l5.3-5.3h7.3l0,0.2c0.7,3.6,4.1,6.1,7.8,5.7
			c3.7-0.4,6.5-3.5,6.5-7.2c0-3.7-2.8-6.8-6.5-7.2c-3.7-0.4-7.1,2.1-7.8,5.7l0,0.2h-7.2c-0.7,0-1.4,0.3-1.9,0.8l-1.4,1.4l-0.2-0.1
			c-1-0.4-2.1-0.7-3.2-1L71,25.4v-7.4c0-1.5-1.2-2.7-2.7-2.7h-12c-1.5,0-2.7,1.2-2.7,2.7v7.4l-0.2,0.1c-3.2,0.8-6.3,2.1-9.2,3.8
			L44,29.4l-5.2-5.2c-0.5-0.5-1.2-0.8-1.9-0.8c0,0,0,0,0,0c-0.7,0-1.4,0.3-1.9,0.8l-8.5,8.4c-0.5,0.5-0.8,1.2-0.8,1.9
			c0,0.7,0.3,1.4,0.8,1.9l5.2,5.2l-0.1,0.2c-1.7,2.9-3,6-3.8,9.2l-0.1,0.2h-7.3c-1.5,0-2.7,1.2-2.7,2.7v12c0,1.5,1.2,2.7,2.7,2.7
			h7.3l0.1,0.2c0.8,3.2,2.1,6.3,3.8,9.2l0.1,0.2l-5.2,5.2c-0.5,0.5-0.8,1.2-0.8,1.9c0,0.7,0.3,1.4,0.8,1.9l8.4,8.4
			c0.5,0.5,1.2,0.8,1.9,0.8c0,0,0,0,0,0c0.7,0,1.4-0.3,1.9-0.8l5.2-5.2l0.2,0.1c2.9,1.7,6,3,9.2,3.8l0.2,0.1v7.4
			c0,1.5,1.2,2.7,2.7,2.7h12c1.5,0,2.7-1.2,2.7-2.7v-7.4l0.2-0.1c1.1-0.3,2.1-0.6,3.2-1l0.2-0.1l1.4,1.4c0.5,0.5,1.2,0.8,1.9,0.8
			h7.2l0,0.2c0.7,3.6,4.1,6.1,7.8,5.7c3.7-0.4,6.5-3.5,6.5-7.2c0-3.7-2.8-6.8-6.5-7.2c-3.7-0.4-7.1,2.1-7.8,5.7l0,0.2h-7.3l-5.3-5.3
			V77.7h5.1l0,0.2c0.7,3.6,4.1,6.1,7.8,5.7c3.7-0.4,6.5-3.5,6.5-7.2c0-3.7-2.8-6.8-6.5-7.2c-3.7-0.4-7.1,2.1-7.8,5.7l0,0.2H72
			l-0.1-0.1l-5.2-9.5l0.2-0.1c1.2-1,2.1-2.5,2.4-4l0-0.2h18.7L88.1,61.4z M95.2,55.2c2.6,0,4.8,2.1,4.8,4.8c0,2.6-2.1,4.8-4.8,4.8
			c-2.6,0-4.8-2.1-4.8-4.8C90.4,57.4,92.6,55.2,95.2,55.2z M84.7,38.8c2.6,0,4.8,2.1,4.8,4.8c0,2.6-2.1,4.8-4.8,4.8
			s-4.8-2.1-4.8-4.8C80,40.9,82.1,38.8,84.7,38.8z M92.2,20.8c2.6,0,4.8,2.1,4.8,4.8s-2.1,4.8-4.8,4.8c-2.6,0-4.8-2.1-4.8-4.8
			C87.4,22.9,89.6,20.8,92.2,20.8z M92.2,89.7c2.6,0,4.8,2.1,4.8,4.8c0,2.6-2.1,4.8-4.8,4.8c-2.6,0-4.8-2.1-4.8-4.8
			C87.4,91.8,89.6,89.7,92.2,89.7z M84.7,71.7c2.6,0,4.8,2.1,4.8,4.8s-2.1,4.8-4.8,4.8s-4.8-2.1-4.8-4.8
			C80,73.8,82.1,71.7,84.7,71.7z M72.6,91.5l-0.4,0.1c-0.9,0.3-1.8,0.5-2.7,0.7h0c-0.6,0.1-1,0.6-1,1.2v8.6H56v-8.6
			c0-0.6-0.4-1.1-1-1.2c-3.8-0.8-7.3-2.3-10.6-4.4c-0.5-0.3-1.1-0.2-1.5,0.2l-6.1,6.1L28,85.4l6.1-6.1c0.4-0.4,0.5-1,0.2-1.5
			c-2.1-3.3-3.5-6.8-4.4-10.6c-0.1-0.6-0.6-1-1.2-1H20V53.7h8.6c0.6,0,1.1-0.4,1.2-1c0.8-3.8,2.3-7.3,4.4-10.6
			c0.3-0.5,0.2-1.1-0.2-1.5L28,34.6l8.8-8.8l6.1,6.1c0.4,0.4,1,0.5,1.5,0.2c3.3-2.1,6.8-3.5,10.6-4.4c0.6-0.1,1-0.6,1-1.2v-8.6h12.5
			v8.6c0,0.6,0.4,1.1,1,1.2c0.9,0.2,1.8,0.4,2.7,0.7l0.4,0.1l-1.8,1.8c-0.5,0.5-0.8,1.2-0.8,1.9v2.3l-0.3-0.1
			C58.8,31.2,47,35.3,40.5,44.5c-6.6,9.2-6.6,21.7,0,30.9s18.3,13.3,29.2,10.2l0.3-0.1v2.3c0,0.7,0.3,1.4,0.8,1.9L72.6,91.5z
			 M70,76.9v6.1L69.8,83c-2.5,0.8-5.1,1.2-7.7,1.2c-7.6,0-14.9-3.6-19.5-10c-6.2-8.5-6.2-20,0-28.6c6.2-8.5,17.2-12,27.2-8.7
			l0.2,0.1l0,6.2l-5.4,9.9l-0.2-0.1c-0.7-0.2-1.4-0.3-2.1-0.4c-4,0-7.2,3.2-7.2,7.2c0,4,3.2,7.2,7.2,7.2c0.7,0,1.4-0.1,2.1-0.4
			l0.2-0.1L70,76.9z M62.2,64.8c-2.6,0-4.8-2.1-4.8-4.8c0-2.6,2.1-4.8,4.8-4.8c2.6,0,4.8,2.1,4.8,4.8C67,62.6,64.9,64.8,62.2,64.8z"
			/>
	</g>
	<circle class="st0" cx="95.2" cy="60" r="4.8"/>
	<circle class="st0" cx="84.7" cy="43.5" r="4.8"/>
	<circle class="st0" cx="92.2" cy="25.6" r="4.8"/>
	<circle class="st0" cx="92.2" cy="94.4" r="4.8"/>
	<circle class="st0" cx="84.7" cy="76.5" r="4.8"/>
	<circle class="st0" cx="62.2" cy="60" r="4.8"/>
</g>
</svg>
