<?xml version="1.0" encoding="utf-8"?>
<!-- Generator: Adobe Illustrator 21.1.0, SVG Export Plug-In . SVG Version: 6.00 Build 0)  -->
<svg version="1.1" id="Layer_1" xmlns="http://www.w3.org/2000/svg" xmlns:xlink="http://www.w3.org/1999/xlink" x="0px" y="0px"
	 viewBox="0 0 120 120" style="enable-background:new 0 0 120 120;" xml:space="preserve">
<style type="text/css">
	.st0{fill:#E53F2C;}
	.st1{fill:#182F3C;}
	.st2{fill:#FFFFFF;}
	.st3{fill:#FFFFFF;stroke:#182F3C;stroke-width:3;stroke-linejoin:round;stroke-miterlimit:10;}
	.st4{fill:#FFFFFF;stroke:#182F3C;stroke-width:3;stroke-linecap:round;stroke-linejoin:round;stroke-miterlimit:10;}
	.st5{fill:none;stroke:#182F3C;stroke-width:2.7;stroke-linejoin:round;stroke-miterlimit:10;}
	.st6{fill:#E53F2C;stroke:#182F3C;stroke-width:2.7;stroke-linejoin:round;stroke-miterlimit:10;}
	.st7{fill:none;stroke:#182F3C;stroke-width:2.5;stroke-linejoin:round;stroke-miterlimit:10;}
	.st8{fill:none;}
	.st9{fill:none;stroke:#182F3C;stroke-width:2.5982;stroke-linejoin:round;stroke-miterlimit:10;}
	.st10{fill:#E53F2C;stroke:#182F3C;stroke-width:2.5982;stroke-linejoin:round;stroke-miterlimit:10;}
	.st11{fill:#FFFFFF;stroke:#182F3C;stroke-width:2.5982;stroke-linejoin:round;stroke-miterlimit:10;}
</style>
<g>
	<g>
		<path class="st1" d="M102.7,63.9H82.1c-0.7,0-1.2,0.6-1.2,1.2v16.4H62.7V71c0-0.7-0.6-1.2-1.2-1.2H40.9c-0.7,0-1.2,0.6-1.2,1.2
			v16.4H20.3c-0.7,0-1.2,0.6-1.2,1.2v14.7c0,0.7,0.6,1.2,1.2,1.2h82.4c0.7,0,1.2-0.6,1.2-1.2V65.2C103.9,64.5,103.4,63.9,102.7,63.9
			z M39.6,102.2H21.5V89.9h18.1V102.2z M60.2,102.2H42.1V72.3h18.1V102.2z M80.8,102.2H62.7V84.1h18.1V102.2z M101.4,102.2H83.3
			V66.4h18.1V102.2z"/>
		<path class="st1" d="M102.7,37.4H92.6v2.5h7.1L71.8,67.8L52,48.1c-0.5-0.5-1.3-0.5-1.8,0L16.6,81.8l1.8,1.8l32.8-32.8l19.7,19.7
			c0.5,0.5,1.3,0.5,1.8,0l28.8-28.8v7.1h2.5V38.7C103.9,38,103.4,37.4,102.7,37.4z"/>
		<path class="st1" d="M53.2,57.5l-1.5-2c-1.4,1-3,1.9-4.6,2.6l0.9,2.3C49.8,59.6,51.6,58.6,53.2,57.5z"/>
		<path class="st1" d="M27,58.4c1.9,1.2,3.9,2.1,6,2.7l0.7-2.4c-5.3-1.5-9.6-5-12.4-9.7c-2.7-4.8-3.4-10.5-2-15.8
			C22.4,22,33.9,15.5,44.9,18.6c5.4,1.5,9.8,5,12.6,9.8c2.7,4.8,3.4,10.5,2,15.8c-0.5,1.9-1.3,3.7-2.3,5.4l2.1,1.3
			c3.2-5.2,4.3-11.4,2.9-17.4c-1.4-6.1-5-11.2-10.3-14.6c-3.8-2.4-8-3.6-12.4-3.6c-1.7,0-3.5,0.2-5.2,0.6c-6.1,1.4-11.2,5-14.6,10.3
			C12.8,37.1,16.1,51.5,27,58.4z"/>
		<path class="st1" d="M57.7,33.8c-1.3-4.9-4.4-9-8.8-11.5c-3-1.7-6.2-2.5-9.4-2.5c-6.5,0-12.9,3.4-16.4,9.4
			c-2.5,4.4-3.2,9.5-1.9,14.3c1.3,4.9,4.4,9,8.8,11.5c2.3,1.3,5,2.2,7.6,2.4l0.2-2.5c-1.8-0.2-3.6-0.7-5.3-1.4l-0.2-0.1l1.4-2.5
			l-2.1-1.2l-1.4,2.5l-0.2-0.1c-1.5-1.1-2.9-2.4-3.9-3.9l-0.1-0.2l2.5-1.4l-1.2-2.1l-2.5,1.4l-0.1-0.2c-0.8-1.7-1.3-3.5-1.4-5.4
			l0-0.3h2.9v-2.5H23l0-0.3c0.2-1.9,0.7-3.7,1.4-5.4l0.1-0.2l2.5,1.4l1.2-2.1l-2.5-1.4l0.1-0.2c1.1-1.5,2.4-2.9,3.9-3.9l0.2-0.1
			l1.4,2.5l2.1-1.2l-1.4-2.5l0.2-0.1c1.7-0.8,3.5-1.3,5.4-1.4l0.3,0v2.9h2.5v-2.9l0.3,0c1.9,0.2,3.7,0.7,5.4,1.4l0.2,0.1l-1.4,2.5
			l2.1,1.2l1.4-2.5l0.2,0.1c1.5,1.1,2.9,2.4,3.9,3.9l0.1,0.2l-2.5,1.4l1.2,2.1l2.5-1.4l0.1,0.2c0.8,1.7,1.3,3.5,1.4,5.4l0,0.3h-2.9
			v2.5h2.9l0,0.3c-0.2,2.3-0.9,4.5-2,6.5l2.1,1.2C58.3,43.6,58.9,38.6,57.7,33.8z"/>
		<path class="st1" d="M35.6,40.5l0.1,0.1l-2.9,2.9l1.8,1.8l2.9-2.9l0.1,0.1c2.1,1,4.6,0.1,5.6-2c1-2.1,0.1-4.6-2-5.6
			c-0.1-0.1-0.3-0.1-0.4-0.2l-0.2-0.1v-6.1h-2.5v6.1L38,34.7c-1.1,0.4-1.9,1.1-2.4,2.1c-0.5,1-0.5,2.1-0.2,3.2
			C35.5,40.2,35.6,40.3,35.6,40.5z M39.4,37c0.9,0,1.7,0.8,1.7,1.7s-0.8,1.7-1.7,1.7s-1.7-0.8-1.7-1.7C37.7,37.7,38.5,37,39.4,37z"
			/>
	</g>
	<rect x="42.1" y="72.3" class="st0" width="18.1" height="29.9"/>
	<rect x="83.3" y="66.4" class="st0" width="18.1" height="35.8"/>
	<circle class="st0" cx="39.4" cy="38.7" r="1.7"/>
</g>
</svg>
