<svg width="331" height="331" viewBox="0 0 331 331" fill="none" xmlns="http://www.w3.org/2000/svg">
<path opacity="0.2" d="M204.968 252.237C211.412 246.402 263.134 203.891 277.19 164.715C292.023 136.653 275.078 92.3082 232.468 76.3598C189.857 60.4113 43.7468 2.84144 48.58 122.316C48.58 165.826 74.5243 258.461 112.302 275.854C150.079 293.247 181.801 273.131 204.968 252.237Z" fill="#E73B2A"/>
<path opacity="0.2" d="M91.8704 226.08C99.1743 230.795 153.623 269.752 195.102 273.189C226.048 280.254 264.496 252.41 268.872 207.123C273.249 161.836 291.041 5.80463 176.889 41.3954C134.86 52.6568 52.0975 101.693 45.0744 142.685C38.0514 183.676 65.6924 209.111 91.8704 226.08Z" fill="#E73B2A"/>
<path opacity="0.2" d="M132.039 254.756C140.721 255.187 207.354 261.7 244.994 243.937C275.326 234.582 294.701 191.245 275.848 149.837C256.995 108.429 194.387 -35.594 113.324 52.3046C82.5572 83.0714 35.4003 166.919 49.8142 205.931C64.2281 244.942 100.883 253.149 132.039 254.756Z" fill="white"/>
</svg>
