<svg width="75" height="75" viewBox="0 0 75 75" fill="none" xmlns="http://www.w3.org/2000/svg">
<path d="M37.9589 25.4794C37.9589 30.7381 34.1059 35.0959 29.058 35.9102C28.5039 35.9969 27.2657 39.1504 27.2657 39.1504C27.2657 39.1504 26.218 35.9969 25.6725 35.9189C20.6073 35.1305 16.7283 30.7554 16.7283 25.4794C16.7283 19.6402 21.4818 14.9099 27.3436 14.9099C33.2054 14.9099 37.9589 19.6402 37.9589 25.4794Z" fill="#E63E2B"/>
<path d="M27.1964 54.4242C19.9319 54.4242 13.1003 51.5912 7.96583 46.4537C2.83133 41.3163 0 34.4808 0 27.2121C0 19.9434 2.83133 13.1079 7.96583 7.97043C13.1003 2.83297 19.9319 0 27.1964 0C34.4609 0 41.2924 2.83297 46.4269 7.97043C51.5614 13.1079 54.3928 19.9434 54.3928 27.2121C54.3928 34.4808 51.5614 41.3163 46.4269 46.4537C41.2924 51.5912 34.4609 54.4242 27.1964 54.4242ZM27.1964 2.16588C13.3947 2.16588 2.16463 13.4025 2.16463 27.2121C2.16463 41.0217 13.3947 52.2583 27.1964 52.2583C40.998 52.2583 52.2281 41.0217 52.2281 27.2121C52.2281 13.4025 40.998 2.16588 27.1964 2.16588Z" fill="#213744"/>
<path d="M27.2744 47.5107C21.8542 47.5107 16.763 45.3968 12.9273 41.5675C9.09157 37.7382 6.98755 32.6354 6.98755 27.2121C6.98755 21.7887 9.10023 16.6946 12.9273 12.8566C16.7544 9.0187 21.8542 6.91347 27.2744 6.91347C37.5867 6.91347 46.2452 14.6327 47.4228 24.8643C47.4921 25.462 47.0678 25.9992 46.4704 26.0685C45.8729 26.1378 45.3361 25.7133 45.2668 25.1155C44.2105 15.9755 36.4784 9.08801 27.2658 9.08801C17.2739 9.08801 9.14352 17.223 9.14352 27.2207C9.14352 37.2184 17.2825 45.3448 27.2744 45.3448C36.4265 45.3448 44.1585 38.5006 45.2582 29.4213C45.3274 28.8235 45.8729 28.4076 46.4617 28.4769C47.0591 28.5463 47.4748 29.0921 47.4055 29.6812C46.176 39.8435 37.5175 47.5107 27.2744 47.5107Z" fill="#213744"/>
<path d="M27.2742 40.7445C27.2656 40.7445 27.2569 40.7445 27.2482 40.7445C26.7634 40.7359 26.3478 40.398 26.2265 39.9301C25.9754 38.9512 25.6118 37.7816 25.378 37.2358C21.9666 36.69 19.0053 34.6887 17.1957 31.7085C16.884 31.1973 17.0485 30.5302 17.5594 30.2183C18.0702 29.9065 18.7369 30.0711 19.0486 30.5822C20.5899 33.1293 23.1614 34.7927 26.1053 35.1479C26.6681 35.2172 27.0145 35.5897 27.3435 36.3348C27.7158 35.5897 28.0881 35.1999 28.6423 35.1132C33.3352 34.4375 36.8765 30.3483 36.8765 25.6007C36.8765 20.2986 32.5646 15.9842 27.2656 15.9842C21.9666 15.9842 17.6546 20.2986 17.6546 25.6007C17.6546 26.1985 17.1697 26.6836 16.5723 26.6836C15.9749 26.6836 15.49 26.1985 15.49 25.6007C15.49 19.1031 20.7717 13.8183 27.2656 13.8183C33.7594 13.8183 39.0411 19.1031 39.0411 25.6007C39.0411 28.451 38.0108 31.206 36.1319 33.3459C34.3655 35.3731 31.9585 36.7246 29.3349 37.1925C29.0665 37.7123 28.6076 38.9598 28.3046 39.9648C28.166 40.4326 27.7504 40.7445 27.2742 40.7445Z" fill="#213744"/>
<path d="M49.1457 53.6011L42.7817 47.2335L47.2495 42.7631L53.6135 49.1308L49.1457 53.6011ZM45.8468 47.2335L49.1457 50.5343L50.5571 49.1221L47.2495 45.83L45.8468 47.2335Z" fill="#213744"/>
<path d="M69.9263 75C68.5755 75 67.2941 74.4715 66.3416 73.5099L47.7085 54.866C46.9119 54.069 46.9119 52.7781 47.7085 51.9811L51.9945 47.6926C52.7911 46.8956 54.0812 46.8956 54.8778 47.6926L63.9692 56.7893C64.3935 57.2138 64.3935 57.8982 63.9692 58.3228C63.5449 58.7473 62.8609 58.7473 62.4367 58.3228L53.4318 49.3127L49.319 53.4279L67.8655 71.9851C68.9998 73.12 70.8441 73.12 71.9783 71.9851C72.5238 71.4393 72.8269 70.7029 72.8269 69.9319C72.8269 69.1522 72.5238 68.4244 71.9783 67.8786L65.926 61.8228C65.5018 61.3983 65.5018 60.7139 65.926 60.2894C66.3503 59.8649 67.0343 59.8649 67.4586 60.2894L73.5109 66.3452C74.472 67.3068 75.0002 68.5804 75.0002 69.9319C75.0002 71.2834 74.472 72.5656 73.5109 73.5186C72.5585 74.4715 71.277 75 69.9263 75Z" fill="#213744"/>
<path d="M14.4251 62.7758H9.01351C8.6412 62.7758 8.29486 62.5852 8.09571 62.2647C7.89657 61.9441 7.87925 61.5543 8.04376 61.2164L21.0662 34.68C21.3259 34.1429 21.9753 33.9176 22.5121 34.1862C23.049 34.4461 23.2741 35.0959 23.0057 35.633L10.7539 60.6099H14.4251C15.0225 60.6099 15.5074 61.0951 15.5074 61.6929C15.5074 62.2907 15.0225 62.7758 14.4251 62.7758Z" fill="#213744"/>
<path d="M35.7943 20.238C35.4652 20.238 35.1449 20.0907 34.9371 19.8135C34.5734 19.337 34.6687 18.6612 35.1449 18.2973L53.3624 4.38374C53.5529 4.23646 53.778 4.15849 54.0204 4.15849H57.4925C58.0899 4.15849 58.5748 4.64365 58.5748 5.24143C58.5748 5.83921 58.0899 6.32437 57.4925 6.32437H54.3841L36.4523 20.0127C36.2532 20.1687 36.028 20.238 35.7943 20.238Z" fill="#213744"/>
<path d="M72.7143 6.32437H62.2288C61.6314 6.32437 61.1465 5.83921 61.1465 5.24143C61.1465 4.64365 61.6314 4.15849 62.2288 4.15849H72.7143C73.3117 4.15849 73.7966 4.64365 73.7966 5.24143C73.7966 5.83921 73.3117 6.32437 72.7143 6.32437Z" fill="#E63E2B"/>
<path d="M72.7143 9.92838H62.2288C61.6314 9.92838 61.1465 9.44322 61.1465 8.84544C61.1465 8.24766 61.6314 7.7625 62.2288 7.7625H72.7143C73.3117 7.7625 73.7966 8.24766 73.7966 8.84544C73.7966 9.44322 73.3117 9.92838 72.7143 9.92838Z" fill="#E63E2B"/>
<path d="M72.7143 13.5411H62.2288C61.6314 13.5411 61.1465 13.0559 61.1465 12.4581C61.1465 11.8603 61.6314 11.3752 62.2288 11.3752H72.7143C73.3117 11.3752 73.7966 11.8603 73.7966 12.4581C73.7966 13.0559 73.3117 13.5411 72.7143 13.5411Z" fill="#E63E2B"/>
<path d="M32.3568 62.7758H19.1353C18.5379 62.7758 18.053 62.2906 18.053 61.6928C18.053 61.0951 18.5379 60.6099 19.1353 60.6099H32.3568C32.9543 60.6099 33.4392 61.0951 33.4392 61.6928C33.4392 62.2906 32.9543 62.7758 32.3568 62.7758Z" fill="#E63E2B"/>
<path d="M32.3568 67.0469H19.1353C18.5379 67.0469 18.053 66.5617 18.053 65.964C18.053 65.3662 18.5379 64.881 19.1353 64.881H32.3568C32.9543 64.881 33.4392 65.3662 33.4392 65.964C33.4392 66.5617 32.9543 67.0469 32.3568 67.0469Z" fill="#E63E2B"/>
<path d="M32.3568 71.3267H19.1353C18.5379 71.3267 18.053 70.8415 18.053 70.2438C18.053 69.646 18.5379 69.1608 19.1353 69.1608H32.3568C32.9543 69.1608 33.4392 69.646 33.4392 70.2438C33.4392 70.8415 32.9543 71.3267 32.3568 71.3267Z" fill="#E63E2B"/>
<path d="M16.8754 29.6119C17.3536 29.6119 17.7412 29.224 17.7412 28.7455C17.7412 28.267 17.3536 27.8792 16.8754 27.8792C16.3972 27.8792 16.0095 28.267 16.0095 28.7455C16.0095 29.224 16.3972 29.6119 16.8754 29.6119Z" fill="#213744"/>
<path d="M46.4181 28.0438C46.8963 28.0438 47.2839 27.6559 47.2839 27.1774C47.2839 26.699 46.8963 26.3111 46.4181 26.3111C45.9399 26.3111 45.5522 26.699 45.5522 27.1774C45.5522 27.6559 45.9399 28.0438 46.4181 28.0438Z" fill="#E63E2B"/>
<path d="M65.0426 59.9688C65.5208 59.9688 65.9085 59.5809 65.9085 59.1025C65.9085 58.624 65.5208 58.2361 65.0426 58.2361C64.5644 58.2361 64.1768 58.624 64.1768 59.1025C64.1768 59.5809 64.5644 59.9688 65.0426 59.9688Z" fill="#E63E2B"/>
<path d="M27.4042 29.7592C27.3262 29.7418 27.2397 29.7418 27.1617 29.7505C26.3478 29.6552 25.7331 28.9621 25.7331 28.1478C25.7331 27.7579 25.4127 27.4373 25.0231 27.4373C24.6334 27.4373 24.3131 27.7579 24.3131 28.1478C24.3131 29.5166 25.2309 30.7208 26.547 31.076V31.7864C26.547 32.1763 26.8673 32.4968 27.257 32.4968C27.6466 32.4968 27.967 32.1763 27.967 31.7864V31.1193C29.4909 30.7988 30.5212 29.378 30.3654 27.8359C30.2009 26.2851 28.9021 25.1069 27.3436 25.1069C26.4517 25.1069 25.7331 24.3791 25.7331 23.4954C25.7331 22.6118 26.4604 21.884 27.3436 21.884C28.2267 21.884 28.954 22.6118 28.954 23.4954C28.954 23.8853 29.2744 24.2059 29.664 24.2059C30.0537 24.2059 30.374 23.8853 30.374 23.4954C30.374 22.0573 29.361 20.8184 27.9583 20.5239V19.8741C27.9583 19.4842 27.638 19.1637 27.2483 19.1637C26.8587 19.1637 26.5383 19.4842 26.5383 19.8741V20.5672C25.075 20.9657 24.1226 22.3952 24.3304 23.9026C24.5295 25.4101 25.8197 26.5363 27.3436 26.5363C28.2267 26.5363 28.9454 27.2381 28.954 28.1218C28.98 28.9968 28.2873 29.7245 27.4042 29.7592Z" fill="#213744"/>
</svg>
