<?xml version="1.0" encoding="utf-8"?>
<!-- Generator: Adobe Illustrator 21.1.0, SVG Export Plug-In . SVG Version: 6.00 Build 0)  -->
<svg version="1.1" id="Layer_1" xmlns="http://www.w3.org/2000/svg" xmlns:xlink="http://www.w3.org/1999/xlink" x="0px" y="0px"
	 viewBox="0 0 120 120" style="enable-background:new 0 0 120 120;" xml:space="preserve">
<style type="text/css">
	.st0{fill:#E53F2C;}
	.st1{fill:#182F3C;}
	.st2{fill:#FFFFFF;}
	.st3{fill:#FFFFFF;stroke:#182F3C;stroke-width:3;stroke-linejoin:round;stroke-miterlimit:10;}
	.st4{fill:#FFFFFF;stroke:#182F3C;stroke-width:3;stroke-linecap:round;stroke-linejoin:round;stroke-miterlimit:10;}
	.st5{fill:none;stroke:#182F3C;stroke-width:2.7;stroke-linejoin:round;stroke-miterlimit:10;}
	.st6{fill:#E53F2C;stroke:#182F3C;stroke-width:2.7;stroke-linejoin:round;stroke-miterlimit:10;}
	.st7{fill:none;stroke:#182F3C;stroke-width:2.5;stroke-linejoin:round;stroke-miterlimit:10;}
	.st8{fill:none;}
	.st9{fill:none;stroke:#182F3C;stroke-width:2.5982;stroke-linejoin:round;stroke-miterlimit:10;}
	.st10{fill:#E53F2C;stroke:#182F3C;stroke-width:2.5982;stroke-linejoin:round;stroke-miterlimit:10;}
	.st11{fill:#FFFFFF;stroke:#182F3C;stroke-width:2.5982;stroke-linejoin:round;stroke-miterlimit:10;}
</style>
<g>
	<g>
		<g>
			<path class="st1" d="M78.5,33.8h-4.2c-0.7-7.9-7.3-13.9-15.3-13.9s-14.5,6-15.3,13.9h-4.2c-6.1,0-11.1,5-11.1,11.1
				S33.3,56,39.5,56h15.1c0.1,0,0.2-0.1,0.2-0.2v-2.3c0-0.1-0.1-0.2-0.2-0.2H39.5c-4.6,0-8.4-3.7-8.4-8.4c0-4.6,3.7-8.4,8.4-8.4h6.7
				c0.1,0,0.2-0.1,0.2-0.2v-1.2c0-6.9,5.6-12.5,12.5-12.5s12.5,5.6,12.5,12.5v1.2c0,0.1,0.1,0.2,0.2,0.2h6.7c4.6,0,8.4,3.7,8.4,8.4
				c0,4.6-3.7,8.4-8.4,8.4H63.4c-0.1,0-0.2,0.1-0.2,0.2v2.3c0,0.1,0.1,0.2,0.2,0.2h15.1c6.1,0,11.1-5,11.1-11.1
				C89.6,38.8,84.6,33.8,78.5,33.8z"/>
			<path class="st1" d="M79.8,71.4h-2.8v-3c1.8-0.6,3-2.5,2.8-4.4c-0.2-1.9-1.7-3.5-3.7-3.7c-1.9-0.2-3.7,0.9-4.4,2.8H60.4V45.5l3,3
				c0.1,0.1,0.2,0.1,0.3,0l1.7-1.7c0,0,0.1-0.1,0.1-0.2s0-0.1-0.1-0.2l-6.2-6.2c-0.1-0.1-0.2-0.1-0.3,0l-6.2,6.2
				c0,0-0.1,0.1-0.1,0.2s0,0.1,0.1,0.2l1.7,1.7c0.1,0.1,0.2,0.1,0.3,0l3-3V63H46.2c-0.7-1.8-2.4-3-4.4-2.8c-1.9,0.2-3.5,1.7-3.7,3.7
				c-0.2,1.9,0.9,3.8,2.8,4.4v4.4h-8.4c-2.3,0-4.2,1.9-4.2,4.2v16.7c0,2.3,1.9,4.2,4.2,4.2h8.4v2.8h-4c-0.1,0-0.2,0.1-0.2,0.2v2.3
				c0,0.1,0.1,0.2,0.2,0.2h10.7c0.1,0,0.2-0.1,0.2-0.2v-2.3c0-0.1-0.1-0.2-0.2-0.2h-4v-2.8H52c2.3,0,4.2-1.9,4.2-4.2V76.9
				c0-2.3-1.9-4.2-4.2-4.2h-8.4v-4.4c1.2-0.4,2.1-1.3,2.5-2.5h25.6c0.4,1.2,1.3,2.1,2.5,2.5v3h-8.4c-2.3,0-4.2,1.9-4.2,4.2v23.7
				c0,2.3,1.9,4.2,4.2,4.2h13.9c2.3,0,4.2-1.9,4.2-4.2V75.5C84,73.2,82.1,71.4,79.8,71.4z M74.3,64.4c0-0.8,0.6-1.4,1.4-1.4
				c0.8,0,1.4,0.6,1.4,1.4c0,0.8-0.6,1.4-1.4,1.4C74.9,65.8,74.3,65.2,74.3,64.4z M64.5,96.4h16.7v2.8c0,0.8-0.6,1.4-1.4,1.4H65.9
				c-0.8,0-1.4-0.6-1.4-1.4V96.4z M81.2,93.6H64.5V75.5c0-0.8,0.6-1.4,1.4-1.4h13.9c0.8,0,1.4,0.6,1.4,1.4V93.6z M40.9,64.4
				c0-0.8,0.6-1.4,1.4-1.4c0.8,0,1.4,0.6,1.4,1.4c0,0.8-0.6,1.4-1.4,1.4C41.5,65.8,40.9,65.2,40.9,64.4z M31.1,90.9h22.3v2.8
				c0,0.8-0.6,1.4-1.4,1.4H32.5c-0.8,0-1.4-0.6-1.4-1.4V90.9z M53.4,88.1H31.1V76.9c0-0.8,0.6-1.4,1.4-1.4H52c0.8,0,1.4,0.6,1.4,1.4
				V88.1z"/>
		</g>
		<circle class="st0" cx="42.3" cy="64.4" r="1.6"/>
		<circle class="st0" cx="75.7" cy="64.4" r="1.6"/>
		<path class="st0" d="M53.6,93.6c0,0.9-0.7,1.6-1.6,1.6H32.5c-0.9,0-1.6-0.7-1.6-1.6v-3h22.7V93.6z"/>
		<path class="st0" d="M81.5,99.2c0,0.9-0.7,1.6-1.6,1.6H65.9c-0.9,0-1.6-0.7-1.6-1.6v-3h17.2V99.2z"/>
	</g>
	<circle class="st0" cx="97.8" cy="95.6" r="1.8"/>
	<path class="st1" d="M97.8,90.8c-2.6,0-4.8,2.1-4.8,4.8s2.1,4.8,4.8,4.8c2.6,0,4.8-2.1,4.8-4.8S100.5,90.8,97.8,90.8z M97.8,97.3
		c-1,0-1.8-0.8-1.8-1.8c0-1,0.8-1.8,1.8-1.8c1,0,1.8,0.8,1.8,1.8C99.6,96.5,98.8,97.3,97.8,97.3z"/>
	<path class="st1" d="M18.7,64.2c-2.6,0-4.8,2.1-4.8,4.8s2.1,4.8,4.8,4.8c2.6,0,4.8-2.1,4.8-4.8S21.4,64.2,18.7,64.2z M18.7,70.8
		c-1,0-1.8-0.8-1.8-1.8s0.8-1.8,1.8-1.8c1,0,1.8,0.8,1.8,1.8S19.7,70.8,18.7,70.8z"/>
	<circle class="st0" cx="28.7" cy="18.2" r="1.5"/>
	<circle class="st0" cx="104.5" cy="44.2" r="1.5"/>
	<circle class="st0" cx="83.9" cy="21.3" r="1.5"/>
	<circle class="st0" cx="18.3" cy="40" r="1.5"/>
</g>
</svg>
