<svg width="72" height="144" viewBox="0 0 72 144" fill="none" xmlns="http://www.w3.org/2000/svg">
<path d="M-4.57764e-05 0C-39.7703 0 -72 32.2297 -72 72C-72 111.77 -39.7703 144 -4.57764e-05 144C39.7702 144 71.9999 111.77 71.9999 72C72.0607 32.2297 39.7702 0 -4.57764e-05 0ZM-4.57764e-05 115.48C-24.0203 115.48 -43.4189 96.0203 -43.4189 72.0608C-43.4189 48.1013 -23.9595 28.5811 -4.57764e-05 28.5811C23.9594 28.5811 43.4189 48.0405 43.4189 72C43.4189 95.9595 24.0202 115.48 -4.57764e-05 115.48Z" fill="#213744"/>
</svg>
