<svg width="1440" height="1440" viewBox="0 0 1440 1440" fill="none" xmlns="http://www.w3.org/2000/svg">
<path opacity="0.2" d="M892.255 1096.88C920.279 1071.51 1145.2 886.648 1206.32 716.284C1270.82 594.251 1197.14 401.414 1011.84 332.06C826.543 262.706 191.164 12.3562 212.182 531.905C212.182 721.117 325.004 1123.95 489.285 1199.59C653.565 1275.22 791.512 1187.74 892.255 1096.88Z" fill="#E73B2A" fill-opacity="0.4"/>
<path opacity="0.2" d="M400.436 983.14C432.198 1003.64 668.975 1173.05 849.353 1188C983.924 1218.72 1151.12 1097.64 1170.15 900.7C1189.18 703.766 1266.55 25.242 770.148 180.013C587.383 228.985 227.479 442.223 196.938 620.482C166.398 798.741 286.598 909.346 400.436 983.14Z" fill="#E73B2A" fill-opacity="0.4"/>
<path opacity="0.2" d="M575.113 1107.84C612.871 1109.71 902.63 1138.04 1066.32 1060.79C1198.22 1020.11 1282.47 831.652 1200.49 651.586C1118.5 471.519 846.244 -154.785 493.73 227.453C359.937 361.247 154.869 725.869 217.55 895.516C280.23 1065.16 439.629 1100.85 575.113 1107.84Z" fill="white"/>
</svg>
