<svg width="69" height="75" viewBox="0 0 69 75" fill="none" xmlns="http://www.w3.org/2000/svg">
<path d="M63.428 36.9741C61.2998 36.9741 59.5939 38.3322 59.5773 38.3488L59.4449 38.4564V38.2825V19.841C59.4449 19.2696 58.9811 18.8059 58.4097 18.8059C57.8384 18.8059 57.3746 19.2696 57.3746 19.841V39.8642V39.9056L57.3415 39.9304C57.2918 39.9718 51.9589 44.1619 49.6734 45.1888L49.5575 45.2385V45.1142V11.9079C49.5575 10.318 50.8493 9.02613 52.4392 9.02613H54.4929C56.0828 9.02613 57.3746 10.318 57.3746 11.9079V15.2534C57.3746 15.8247 57.8384 16.2885 58.4097 16.2885C58.9811 16.2885 59.4449 15.8247 59.4449 15.2534V11.9079C59.4449 9.17519 57.2173 6.94763 54.4846 6.94763H52.4309C49.6982 6.94763 47.4707 9.17519 47.4707 11.9079V46.0086V46.0748L47.4127 46.0914C46.742 46.2818 46.0464 46.4061 45.3425 46.4723L45.2514 46.4806V46.3895V22.731C45.2514 19.9818 43.0156 17.7459 40.2663 17.7459H38.2623C35.5131 17.7459 33.2772 19.9818 33.2772 22.731V34.1586V34.2083L33.2358 34.2332L31.1822 35.3262L31.058 35.3925V35.2517V31.4508C31.058 28.9831 29.0457 26.9708 26.578 26.9708H23.5638C21.0961 26.9708 19.0838 28.9831 19.0838 31.4508V41.6942V41.7439L19.0424 41.7688L15.3822 43.7148H15.374H15.3657L5.08082 46.6545C3.30871 47.1596 1.83471 48.3189 0.923812 49.9172C0.0129142 51.5154 -0.235512 53.3786 0.228217 55.159L1.37926 59.5892C1.49519 60.0447 1.90924 60.3676 2.38125 60.3676C2.47234 60.3676 2.55515 60.3594 2.64624 60.3345C3.20106 60.1937 3.53229 59.6224 3.39152 59.0675L2.23219 54.6373C1.55316 52.0288 3.052 49.3955 5.6522 48.6585L15.0593 45.9672L15.1338 45.9423L15.1587 46.0169L22.2305 64.8807C22.5287 65.684 22.5701 67.1497 21.949 68.4829C21.361 69.7499 20.3094 70.6608 18.8437 71.1825H18.8354H18.8271L11.7221 72.7972C11.366 72.8801 11.0099 72.9215 10.6539 72.9215C8.50082 72.9215 6.61278 71.4557 6.06624 69.3607L4.62537 63.8125C4.50944 63.357 4.09539 63.0341 3.62338 63.0341C3.53229 63.0341 3.44948 63.0424 3.35839 63.0672C2.80357 63.208 2.47234 63.7794 2.61311 64.3342L4.05399 69.8824C4.44319 71.3812 5.28784 72.6648 6.50513 73.6005C7.68102 74.5031 9.15501 75 10.6373 75C12.8649 75 19.2163 73.2279 19.2825 73.2113C21.212 72.7724 22.8516 71.5303 23.7873 69.7913C24.5492 68.3753 24.7893 66.7191 24.4581 65.1374L24.4415 65.0629L24.5161 65.0463L49.102 59.0261C51.1226 58.5293 53.0437 57.5687 54.6502 56.252L66.6161 46.4226C67.9079 45.2799 68.5869 43.9715 68.6283 42.5472C68.678 40.7005 67.6595 39.1851 67.0467 38.5723C65.9867 37.5124 64.7695 36.9741 63.428 36.9741ZM35.3557 32.991V22.731C35.3557 21.1245 36.6558 19.8244 38.2623 19.8244H40.2663C41.8728 19.8244 43.1729 21.1245 43.1729 22.731V46.4392V46.522H43.0901H36.0099C35.9188 46.522 35.6539 46.522 35.5876 46.3398C35.5214 46.1411 35.7864 45.9092 35.7946 45.9092L37.8317 44.2613C39.7198 42.7294 40.9536 40.6094 41.4919 37.943C41.8314 36.2703 41.1938 34.5975 39.8274 33.579C39.0573 33.0076 38.163 32.7012 37.2189 32.7012C36.6144 32.7012 36.0265 32.8254 35.4717 33.0738L35.3557 33.1235V32.991ZM21.1706 40.5018V31.4508V31.368C21.212 30.0844 22.2719 29.0493 23.572 29.0493H26.578C27.9029 29.0493 28.9795 30.1258 28.9795 31.4508V36.4442V36.4938L28.9381 36.5187L21.2865 40.5763L21.1623 40.6426V40.5018H21.1706ZM65.3077 44.8078L53.3335 54.6455C51.9672 55.7717 50.3359 56.5916 48.6134 57.0056L23.8453 63.0755L23.7708 63.0921L23.7459 63.0258L17.0881 45.2467L17.0633 45.1805L17.1295 45.1474L36.1507 35.053C36.4985 34.8708 36.8546 34.7797 37.2355 34.7797C37.7241 34.7797 38.1878 34.937 38.5936 35.2434C39.3223 35.79 39.6452 36.6429 39.4631 37.529C39.0159 39.7068 38.0305 41.4293 36.5316 42.6465L34.4945 44.2944C33.683 44.9486 33.3849 46.0086 33.7327 46.9857C34.0805 47.9629 34.9748 48.6005 36.0182 48.6005H44.1915H44.1997C47.0898 48.6005 49.8721 47.7227 52.2405 46.0583L61.3577 39.6323C61.9126 39.2431 62.5585 39.0361 63.2292 39.0361C64.107 39.0361 64.9351 39.3839 65.5561 40.0215C65.7383 40.2037 66.3345 40.8827 66.4836 41.8516C66.6409 42.8784 66.2435 43.8721 65.3077 44.8078Z" fill="#213744"/>
<path d="M10.8276 65.6343C10.8276 64.2017 11.9952 63.0341 13.4278 63.0341C14.8604 63.0341 16.028 64.2017 16.028 65.6343C16.028 67.0669 14.8604 68.2345 13.4278 68.2345C11.9952 68.2345 10.8276 67.0669 10.8276 65.6343Z" fill="#E63E2B"/>
<path d="M43.5951 1.96257C43.5951 1.94601 43.5951 1.93773 43.5951 1.92117C43.5868 0.190461 42.2288 0 41.6491 0H32.6726C31.5961 0 30.7183 0.877774 30.7183 1.95429C30.7183 3.03909 31.1406 3.40344 31.4636 3.59391C31.977 3.89202 32.6478 3.91686 32.8382 3.91686C32.8962 3.91686 32.9376 3.91686 32.9542 3.91686C33.0038 3.90858 33.0535 3.90858 33.1032 3.90858C33.6829 3.90858 34.2046 4.23981 34.4447 4.77807C34.718 5.35773 34.5772 6.04505 34.1135 6.49222L27.3563 13.001C27.0665 13.2743 26.6938 13.4233 26.3129 13.4233C26.081 13.4233 25.8409 13.3654 25.6256 13.2577L21.9075 11.3365C21.6259 11.1875 21.3195 11.113 21.0048 11.113C20.4831 11.113 19.9946 11.32 19.6219 11.6926L1.5282 29.9188C0.766354 30.6807 0.774634 31.9228 1.53648 32.6764C1.73522 32.8751 2.35628 33.2809 3.00219 33.2809C3.45764 33.2809 3.87997 33.0739 4.30229 32.6598L20.6074 16.2305C20.8972 15.9407 21.2781 15.7834 21.6756 15.7834C21.9075 15.7834 22.1476 15.8413 22.3629 15.949L26.0313 17.8453C26.3046 17.9861 26.6193 18.0606 26.9257 18.0606C27.4308 18.0606 27.9111 17.8702 28.2837 17.5141L37.1609 8.9682C37.4507 8.69493 37.8233 8.54588 38.2125 8.54588C38.4196 8.54588 38.6349 8.58728 38.8336 8.68665C39.3967 8.94336 39.7362 9.51474 39.6948 10.1358C39.6782 10.5499 39.7693 11.8417 40.3904 12.4959C40.5726 12.6863 40.9038 12.943 41.6491 12.943C42.7256 12.943 43.6034 12.0653 43.6034 10.9887V1.96257H43.5951Z" fill="#E63E2B"/>
</svg>
