<svg width="1440" height="673" viewBox="0 0 1440 673" fill="none" xmlns="http://www.w3.org/2000/svg">
<path d="M0 461.333V-1H1440V213.871C1440 213.871 1246.85 207.681 1098.03 267.683C949.22 327.686 890.604 524.114 503.16 567.821C214.377 608.748 0 461.333 0 461.333Z" fill="#E63E2B"/>
<path opacity="0.2" d="M841.015 193.992L311.356 643.502C260.383 686.659 184.088 680.384 140.822 629.521L128.711 615.319C85.5548 564.345 91.72 488.051 142.693 444.894L672.462 -4.61658C723.435 -47.7731 799.73 -41.6079 842.886 9.36526L854.996 23.5673C898.263 74.5405 891.988 150.835 841.015 193.992Z" stroke="white" stroke-width="1.5201" stroke-miterlimit="10" stroke-dasharray="5.07 5.07"/>
<path opacity="0.2" d="M1218.19 14.4296L862.373 316.195C811.51 359.462 735.215 353.187 691.948 302.213L679.838 288.011C636.681 237.038 642.847 160.744 693.82 117.587L1049.64 -184.289C1100.61 -227.445 1176.91 -221.28 1220.07 -170.307L1232.18 -156.105C1275.33 -105.132 1269.06 -28.7269 1218.19 14.4296Z" stroke="white" stroke-width="1.5201" stroke-miterlimit="10" stroke-dasharray="5.07 5.07"/>
</svg>
