<svg width="670" height="477" viewBox="0 0 670 477" fill="none" xmlns="http://www.w3.org/2000/svg">
<path d="M66.8666 255.97H57.6333V452.79H66.8666V255.97Z" fill="#8B5E3C"/>
<path d="M300.826 255.97H291.592V452.79H300.826V255.97Z" fill="#8B5E3C"/>
<path opacity="0.95" d="M359.353 255.97H12.4351V272.285H359.353V255.97Z" fill="#A97C50"/>
<path opacity="0.95" d="M359.353 288.674H12.4351V304.989H359.353V288.674Z" fill="#A97C50"/>
<path opacity="0.95" d="M359.353 321.378H12.4351V337.693H359.353V321.378Z" fill="#A97C50"/>
<path opacity="0.95" d="M377 350.804H0V373.6H377V350.804Z" fill="#A97C50"/>
<path d="M109.98 472.605L114.522 446.681H132.691L125.468 475.138L109.98 472.605Z" fill="#EAA492"/>
<path d="M154.583 472.605L159.125 446.681H177.293L170.071 475.138L154.583 472.605Z" fill="#EAA492"/>
<path d="M104.097 468.732C104.097 468.732 91.6624 470.296 91.6624 476.479H130.234C130.234 476.479 135.148 475.362 131.276 468.732H104.097Z" fill="#213744"/>
<path d="M146.541 468.732C146.541 468.732 134.105 470.296 134.105 476.479H172.677C172.677 476.479 177.591 475.362 173.719 468.732H146.541Z" fill="#213744"/>
<path d="M305.07 185.72L308.421 146.237L273.796 146.386L272.232 186.838C281.466 188.7 297.326 187.508 305.07 185.72Z" fill="#EAA492"/>
<path d="M273.2 158.231C273.2 158.231 279.604 169.405 290.029 169.405C296.879 169.405 302.017 163.148 307.602 155.996C307.602 155.996 306.113 174.546 288.986 174.844C288.986 174.844 276.775 173.726 273.2 158.231Z" fill="#D89780"/>
<path d="M263.371 137.298C269.775 156.741 279.083 169.629 289.582 169.48C300.081 169.331 308.644 156.22 314.303 143.704C329.568 110.032 310.208 91.5568 297.475 88.7259C266.424 81.5742 256.968 117.779 263.371 137.298Z" fill="#EAA492"/>
<path d="M309.463 83.7347C291.369 75.0186 268.584 90.6628 268.584 90.6628C268.584 90.6628 257.266 88.0555 250.564 100.273C243.862 112.49 254.659 119.865 268.584 120.163C282.508 120.461 292.337 104.966 300.23 105.637C308.123 106.307 309.463 121.057 308.346 136.702C308.049 141.171 309.463 152.122 307.676 155.996L312.218 150.856C314.378 147.057 316.984 147.057 320.111 141.022C328.823 123.665 327.558 92.4508 309.463 83.7347Z" fill="black"/>
<path d="M308.495 121.132C308.495 121.132 314.154 112.639 318.473 120.983C321.377 126.495 317.654 140.65 307.527 137.819L308.495 121.132Z" fill="#EAA492"/>
<path d="M315.895 128.064C316.223 125.742 315.367 123.7 313.983 123.504C312.599 123.308 311.21 125.032 310.882 127.354C310.553 129.676 311.409 131.717 312.794 131.913C314.178 132.109 315.567 130.386 315.895 128.064Z" fill="#D89780"/>
<path d="M228.672 226.023C228.672 226.023 223.46 250.681 221.077 256.045C218.694 261.408 213.482 266.176 203.876 266.325C194.271 266.474 198.664 286.663 198.664 286.663L220.184 293.069L245.128 272.359L251.011 235.856L228.672 226.023Z" fill="#EAA492"/>
<path d="M112.139 456.216L130.829 458.898C130.829 458.898 161.284 377.548 163.295 366.448C165.305 355.348 165.975 340.151 161.135 333.297C161.135 333.297 187.569 350.655 225.917 351.176C264.265 351.698 278.785 314.673 278.785 314.673L175.432 295.826C175.432 295.826 137.382 287.035 132.17 301.04C126.957 314.971 113.554 374.568 112.139 456.216Z" fill="#DD3524"/>
<path d="M270.669 167.171C270.669 167.171 247.809 165.979 239.171 192.201C230.534 218.424 227.779 229.077 227.779 229.077C227.779 229.077 230.534 237.793 242.82 239.581L241.777 304.02L313.41 322.123L316.537 316.238L315.048 268.933L311.697 240.028C311.697 240.028 319.813 247.701 327.855 248.074C335.897 248.446 341.482 243.678 341.482 243.678C341.482 243.678 348.407 215.742 344.311 201.215C340.29 186.763 331.653 172.087 311.697 167.171C311.697 167.171 302.762 184.752 286.678 184.305C270.594 183.858 270.669 167.171 270.669 167.171Z" fill="#213744"/>
<path d="M156.072 458.973L174.24 462.325C174.24 462.325 209.386 386.562 215.492 366.374C221.524 346.185 216.162 333.521 216.162 333.521C216.162 333.521 264.116 359.297 299.783 350.059C311.92 346.558 320.111 339.257 316.462 315.344C316.462 315.344 258.903 295.677 215.492 291.431C196.653 289.419 187.048 290.611 184.367 301.86C181.687 313.109 165.901 359.297 156.072 458.973Z" fill="#E73B2A"/>
<path d="M246.617 294.708C246.617 294.708 269.477 295.453 297.251 291.952C325.026 288.451 328.898 287.631 335.004 272.657C341.109 257.684 343.269 239.059 342.748 238.389C342.226 237.719 323.015 231.833 314.08 235.782C314.08 235.782 310.655 235.26 310.655 243.082C310.655 250.904 309.761 259.025 302.687 263.941C295.613 268.858 280.87 272.136 274.392 272.806C267.913 273.477 248.405 275.861 248.405 275.861L246.617 294.708Z" fill="#EAA492"/>
<path d="M241.703 297.688H151.679C150.711 297.688 149.891 297.763 149.668 297.837L134.329 302.382C133.957 302.456 134.999 302.605 136.339 302.605H226.364C227.332 302.605 228.151 302.531 228.374 302.456L243.713 297.912C244.16 297.837 243.118 297.688 241.703 297.688Z" fill="#213744"/>
<path d="M248.404 275.786C248.404 275.786 235.001 264.686 224.949 275.786C214.822 286.886 223.46 299.625 227.853 299.625C232.246 299.625 246.692 294.708 246.692 294.708L248.404 275.786Z" fill="#D69083"/>
<path d="M227.183 302.605H135.297C134.329 302.605 133.435 301.935 133.212 301.041L117.575 244.349C117.203 242.933 118.245 241.593 119.66 241.593H211.546C212.514 241.593 213.407 242.263 213.631 243.157L229.268 299.849C229.715 301.264 228.672 302.605 227.183 302.605Z" fill="#213744"/>
<path d="M175.414 278.876C177.479 276.811 176.866 272.848 174.045 270.027C171.225 267.205 167.265 266.591 165.2 268.657C163.135 270.723 163.748 274.685 166.569 277.507C169.39 280.329 173.35 280.942 175.414 278.876Z" fill="#E73B2A"/>
<path d="M325.026 172.609C325.026 172.609 322.494 170.97 318.622 169.331C315.346 167.916 311.771 167.096 311.771 167.096C311.771 167.096 306.559 178.047 294.943 182.964L301.496 200.62L325.026 172.609Z" fill="#112433"/>
<path d="M270.669 167.171C270.669 167.171 270.52 174.918 275.881 180.059L263.297 196.895L262.552 168.288C262.552 168.288 264.786 167.692 266.797 167.394C268.584 167.096 270.669 167.171 270.669 167.171Z" fill="#112433"/>
<path d="M254.212 187.731C253.468 189.743 252.723 191.754 252.202 193.84C251.606 195.926 251.085 198.012 250.489 200.023C249.447 204.195 248.628 208.367 247.809 212.613L247.213 215.742L246.692 218.945C246.32 221.031 246.096 223.192 245.724 225.352L244.011 238.165C244.011 236.005 244.086 233.845 244.086 231.684C244.235 229.524 244.309 227.364 244.532 225.203C244.905 220.882 245.5 216.636 246.245 212.315C247.064 208.069 247.958 203.823 249.224 199.725C250.638 195.554 252.128 191.456 254.212 187.731Z" fill="#394D59"/>
<path d="M320.707 190.711C319.962 192.872 319.367 195.107 318.771 197.342C318.175 199.576 317.654 201.737 317.058 203.972C316.016 208.442 315.122 212.911 314.303 217.381C313.931 219.616 313.484 221.851 313.186 224.16C312.814 226.395 312.516 228.705 312.144 230.939C311.995 232.057 311.846 233.174 311.697 234.366L311.25 237.793C310.952 240.028 310.729 242.337 310.357 244.647C310.357 242.337 310.431 240.028 310.506 237.719C310.655 235.409 310.729 233.1 311.027 230.865C311.399 226.246 312.069 221.702 312.888 217.158C313.707 212.613 314.75 208.144 316.016 203.674C317.207 199.278 318.696 194.883 320.707 190.711Z" fill="#394D59"/>
<path d="M282.061 181.101L278.859 188.476L282.061 195.181C282.061 195.181 290.55 191.754 290.922 191.456C291.294 191.158 296.507 181.027 296.507 181.027H282.061V181.101Z" fill="#EAA492"/>
<path d="M282.732 183.783C282.732 183.783 277.52 181.697 275.956 180.356C275.956 180.356 276.701 183.709 276.775 184.603C276.924 185.571 276.477 190.041 276.403 191.158C276.328 192.276 276.775 193.915 276.254 194.734C275.807 195.554 272.754 201.364 272.605 201.513C272.456 201.662 272.903 204.642 272.903 204.642L284.37 195.256C284.37 195.256 281.243 189.445 281.243 187.657C281.243 185.869 282.732 183.783 282.732 183.783Z" fill="#9A271D"/>
<path d="M295.613 182.666C295.613 182.666 294.124 184.379 290.922 184.975C287.72 185.571 282.136 188.253 280.572 190.562C279.008 192.872 275.508 195.628 273.945 197.342C272.381 199.055 272.232 205.611 272.232 205.611L282.136 206.654C282.136 206.654 286.976 201.215 288.167 199.576C289.358 197.938 291.071 195.554 293.826 194.138C296.581 192.723 301.198 191.829 302.091 190.935L295.613 182.666Z" fill="#112433"/>
<path d="M287.18 191.895C287.436 190.604 286.794 189.388 285.745 189.18C284.696 188.972 283.638 189.85 283.382 191.142C283.126 192.433 283.769 193.649 284.817 193.857C285.866 194.065 286.924 193.187 287.18 191.895Z" fill="#E43D2B"/>
<path d="M296.283 185.795L297.847 189.296L297.028 189.967L295.241 185.646L296.283 185.795Z" fill="#9E291F"/>
<path d="M278.464 187.984C279.11 187.863 279.45 186.781 279.222 185.568C278.994 184.355 278.285 183.47 277.638 183.591C276.991 183.713 276.652 184.795 276.88 186.008C277.108 187.221 277.817 188.106 278.464 187.984Z" fill="#E43D2B"/>
<path d="M174.335 110.476C188.194 110.476 199.428 99.2359 199.428 85.3707C199.428 71.5054 188.194 60.2654 174.335 60.2654C160.476 60.2654 149.241 71.5054 149.241 85.3707C149.241 99.2359 160.476 110.476 174.335 110.476Z" fill="white"/>
<path d="M174.335 115.765C191.113 115.765 204.715 102.157 204.715 85.3706C204.715 68.5842 191.113 54.9761 174.335 54.9761C157.556 54.9761 143.954 68.5842 143.954 85.3706C143.954 102.157 157.556 115.765 174.335 115.765Z" stroke="#213744" stroke-width="2" stroke-miterlimit="10" stroke-linecap="round" stroke-dasharray="14 7"/>
<path d="M160.783 82.2417C160.634 83.9551 159.442 84.998 157.73 84.849L156.464 84.7745L156.315 86.9349L154.826 86.7859L155.496 79.0383L158.251 79.2618C159.964 79.2618 160.932 80.4538 160.783 82.2417ZM159.293 82.0927C159.368 81.2732 158.921 80.6773 158.028 80.6028L156.836 80.5283L156.613 83.2101L157.804 83.2846C158.698 83.3591 159.219 82.9121 159.293 82.0927Z" fill="#E73B2A"/>
<path d="M164.729 84.7746L164.506 87.531L163.017 87.382L163.24 84.6256L161.155 79.4109L162.719 79.5599L164.133 83.1357L166.144 79.8579L167.633 80.0069L164.729 84.7746Z" fill="#E73B2A"/>
<path d="M169.346 81.5713L167.261 81.4223L167.41 79.9324L172.994 80.3794L172.845 81.8693L170.76 81.7203L170.239 88.0525L168.75 87.9035L169.346 81.5713Z" fill="#E73B2A"/>
<path d="M179.696 80.9753L179.026 88.7229L177.537 88.574L177.834 85.3706L174.93 85.1471L174.633 88.3505L173.143 88.2015L173.813 80.4539L175.303 80.6029L175.079 83.6572L177.983 83.8807L178.207 80.8263L179.696 80.9753Z" fill="#E73B2A"/>
<path d="M180.515 84.9236C180.739 82.6142 182.377 81.0498 184.387 81.1988C186.398 81.3478 187.738 83.2102 187.589 85.5196C187.366 87.8289 185.727 89.3934 183.717 89.2444C181.707 89.0954 180.292 87.233 180.515 84.9236ZM186.025 85.4451C186.174 83.9551 185.355 82.9122 184.238 82.7632C183.121 82.6887 182.153 83.5826 182.004 85.0726C181.855 86.5625 182.675 87.6054 183.791 87.7544C184.983 87.8289 185.951 86.8605 186.025 85.4451Z" fill="#E73B2A"/>
<path d="M194.886 82.2417L194.216 89.9893L193.025 89.9148L190.195 84.9236L189.823 89.6168L188.333 89.4678L189.004 81.7202L190.27 81.7947L193.099 86.786L193.471 82.0927L194.886 82.2417Z" fill="#E73B2A"/>
<path d="M86.2467 56.9876C100.106 56.9876 111.34 45.7476 111.34 31.8824C111.34 18.0171 100.106 6.7771 86.2467 6.7771C72.3879 6.7771 61.1531 18.0171 61.1531 31.8824C61.1531 45.7476 72.3879 56.9876 86.2467 56.9876Z" fill="white"/>
<path d="M86.2466 62.2768C103.025 62.2768 116.627 48.6687 116.627 31.8823C116.627 15.0959 103.025 1.48779 86.2466 1.48779C69.468 1.48779 55.8662 15.0959 55.8662 31.8823C55.8662 48.6687 69.468 62.2768 86.2466 62.2768Z" stroke="#213744" stroke-width="2" stroke-miterlimit="10" stroke-linecap="round" stroke-dasharray="14 7"/>
<path d="M70.1628 29.5729L71.5031 29.7219L71.2053 32.8507C70.4607 33.4467 69.4182 33.6702 68.5247 33.5957C66.5142 33.4467 65.1739 31.6588 65.3228 29.2749C65.5462 26.9655 67.1843 25.4011 69.1948 25.5501C70.3117 25.6246 71.2053 26.2205 71.801 27.1145L70.7585 28.083C70.3117 27.4125 69.7905 27.1145 69.1948 27.04C67.929 26.9655 67.0354 27.8595 66.8865 29.3494C66.7376 30.8393 67.5567 31.8823 68.748 32.0313C69.1204 32.0313 69.5671 32.0313 69.9394 31.8078L70.1628 29.5729Z" fill="#E73B2A"/>
<path d="M72.471 29.8708C72.6944 27.5615 74.3326 25.997 76.343 26.146C78.3535 26.295 79.6938 28.1574 79.5449 30.4668C79.3215 32.7762 77.6833 34.3406 75.6729 34.1916C73.5879 34.0426 72.2476 32.1802 72.471 29.8708ZM77.9812 30.3178C78.1301 28.8279 77.311 27.7849 76.1941 27.636C75.0772 27.5615 74.1092 28.4554 73.9603 29.9453C73.8113 31.4353 74.6304 32.4782 75.7473 32.6272C76.9387 32.7762 77.8323 31.8077 77.9812 30.3178Z" fill="#E73B2A"/>
<path d="M80.9597 26.6675L82.4489 26.8165L81.9277 33.1487L85.1296 33.4466L84.9806 34.9366L80.2896 34.5641L80.9597 26.6675Z" fill="#E73B2A"/>
<path d="M90.2675 33.5956L87.289 33.3721L86.5444 35.011L85.0552 34.862L88.5549 27.3379L90.0441 27.4869L92.278 35.5325L90.7143 35.3835L90.2675 33.5956ZM89.8952 32.1802L89.1506 29.1258L87.8847 32.0312L89.8952 32.1802Z" fill="#E73B2A"/>
<path d="M99.5009 28.2319L98.8307 35.9795L97.6393 35.905L94.8098 30.9138L94.4375 35.6071L92.9482 35.4581L93.6184 27.7104L94.8842 27.7849L97.7138 32.7762L98.0861 28.0829L99.5009 28.2319Z" fill="#E73B2A"/>
<path d="M105.011 32.4782L106.351 32.6272L106.053 35.756C105.309 36.352 104.266 36.5755 103.373 36.501C101.362 36.352 100.022 34.5641 100.171 32.1802C100.394 29.8708 102.032 28.3064 104.043 28.4554C105.16 28.5299 106.053 29.1258 106.649 30.0198L105.607 30.9882C105.16 30.3178 104.639 30.0198 104.043 29.9453C102.777 29.8708 101.884 30.7647 101.735 32.2547C101.586 33.7446 102.405 34.7875 103.596 34.9365C103.968 34.9365 104.415 34.9365 104.788 34.713L105.011 32.4782Z" fill="#E73B2A"/>
<path d="M111.936 156.515C123.656 156.515 133.158 147.009 133.158 135.283C133.158 123.557 123.656 114.052 111.936 114.052C100.216 114.052 90.7144 123.557 90.7144 135.283C90.7144 147.009 100.216 156.515 111.936 156.515Z" fill="white"/>
<path d="M111.936 160.985C126.124 160.985 137.625 149.478 137.625 135.283C137.625 121.089 126.124 109.582 111.936 109.582C97.7481 109.582 86.2466 121.089 86.2466 135.283C86.2466 149.478 97.7481 160.985 111.936 160.985Z" stroke="#213744" stroke-width="2" stroke-miterlimit="10" stroke-linecap="round" stroke-dasharray="13.68 7"/>
<path d="M95.1074 136.997L97.4157 136.326C99.0539 135.805 100.543 136.699 101.139 138.561C101.735 140.424 100.915 141.988 99.2773 142.509L96.969 143.18L95.1074 136.997ZM98.905 141.243C99.9475 140.945 100.32 139.977 100.022 138.859C99.6496 137.667 98.7561 137.146 97.7881 137.444L96.7456 137.742L97.937 141.541L98.905 141.243Z" fill="#E73B2A"/>
<path d="M101.884 140.722L102.256 139.604C102.703 139.977 103.075 140.126 103.373 139.977C103.82 139.828 103.968 139.381 103.745 138.71L102.852 135.805L101.064 136.326L100.692 135.209L103.671 134.315L104.862 138.263C105.309 139.753 104.936 140.722 103.745 141.094C103.149 141.318 102.479 141.169 101.884 140.722Z" fill="#E73B2A"/>
<path d="M109.627 137.816L107.245 138.561L107.17 139.977L105.979 140.349L106.351 133.57L107.542 133.198L111.712 138.636L110.446 139.008L109.627 137.816ZM108.883 136.848L107.394 134.762L107.319 137.369L108.883 136.848Z" fill="#E73B2A"/>
<path d="M114.989 130.888L116.85 136.997L115.882 137.295L112.234 134.315L113.351 138.04L112.159 138.412L110.298 132.303L111.266 132.005L114.914 134.985L113.797 131.26L114.989 130.888Z" fill="#E73B2A"/>
<path d="M120.499 132.452L121.541 132.154L122.286 134.613C121.914 135.283 121.169 135.805 120.499 136.028C118.935 136.55 117.297 135.581 116.776 133.719C116.18 131.856 116.999 130.218 118.563 129.696C119.456 129.398 120.275 129.547 121.02 130.069L120.499 131.112C119.978 130.739 119.456 130.665 119.01 130.814C118.042 131.111 117.595 132.154 117.967 133.272C118.339 134.389 119.233 135.06 120.201 134.762C120.499 134.687 120.797 134.538 121.02 134.24L120.499 132.452Z" fill="#E73B2A"/>
<path d="M122.36 131.931C121.839 130.143 122.584 128.43 124.147 127.908C125.711 127.387 127.349 128.43 127.871 130.217C128.392 132.005 127.647 133.719 126.083 134.24C124.52 134.762 122.956 133.793 122.36 131.931ZM126.754 130.59C126.381 129.398 125.488 128.802 124.594 129.1C123.701 129.398 123.254 130.366 123.626 131.558C123.999 132.75 124.892 133.346 125.786 133.048C126.679 132.825 127.051 131.782 126.754 130.59Z" fill="#E73B2A"/>
<path d="M174.335 201.585C183.917 201.585 191.685 193.814 191.685 184.227C191.685 174.641 183.917 166.87 174.335 166.87C164.753 166.87 156.985 174.641 156.985 184.227C156.985 193.814 164.753 201.585 174.335 201.585Z" fill="white"/>
<path d="M174.335 205.235C185.932 205.235 195.333 195.83 195.333 184.227C195.333 172.625 185.932 163.219 174.335 163.219C162.738 163.219 153.337 172.625 153.337 184.227C153.337 195.83 162.738 205.235 174.335 205.235Z" stroke="#213744" stroke-width="2" stroke-miterlimit="10" stroke-linecap="round" stroke-dasharray="12 6"/>
<path d="M166.665 185.27L163.091 184.674L162.049 186.536L160.262 186.239L165.251 177.522L167.038 177.82L168.899 187.654L167.038 187.356L166.665 185.27ZM166.368 183.557L165.772 179.832L163.985 183.184L166.368 183.557Z" fill="#E73B2A"/>
<path d="M182.377 180.353L178.281 189.218L176.345 188.92L175.75 182.365L172.92 188.324L171.059 188.026L170.091 178.342L171.952 178.64L172.622 185.419L175.526 179.161L177.164 179.459L177.835 186.313L180.739 180.055L182.377 180.353Z" fill="#E73B2A"/>
<path d="M181.334 188.846L182.228 187.356C182.749 188.026 183.643 188.622 184.611 188.771C185.653 188.92 186.174 188.622 186.249 188.026C186.547 186.313 181.856 186.76 182.451 183.259C182.749 181.694 184.015 180.577 186.174 180.875C187.142 181.024 188.11 181.471 188.706 182.141L187.887 183.706C187.291 183.11 186.547 182.737 185.877 182.588C184.834 182.439 184.313 182.812 184.238 183.408C183.941 185.121 188.632 184.674 188.036 188.101C187.813 189.665 186.472 190.783 184.313 190.41C183.122 190.187 181.93 189.591 181.334 188.846Z" fill="#E73B2A"/>
<g opacity="0.5">
<path opacity="0.5" d="M598 271.36V266.094H603.374V271.36H598Z" fill="#828F96"/>
<path opacity="0.5" d="M598 260.72V255.454H603.374V260.72H598Z" fill="#828F96"/>
<path opacity="0.5" d="M598 249.972V244.706H603.374V249.972H598Z" fill="#828F96"/>
<path opacity="0.5" d="M598 239.332V234.066H603.374V239.332H598Z" fill="#828F96"/>
<path opacity="0.5" d="M598 228.692V223.426H603.374V228.692H598Z" fill="#828F96"/>
<path opacity="0.5" d="M598 218.053V212.786H603.374V218.053H598Z" fill="#828F96"/>
<path opacity="0.5" d="M598 207.413V202.146H603.374V207.413H598Z" fill="#828F96"/>
<path opacity="0.5" d="M598 196.773V191.507H603.374V196.773H598Z" fill="#828F96"/>
<path opacity="0.5" d="M598 186.133V180.867H603.374V186.133H598Z" fill="#828F96"/>
<path opacity="0.5" d="M598 175.493V170.227H603.374V175.493H598Z" fill="#828F96"/>
<path opacity="0.5" d="M598 164.853V159.587H603.374V164.853H598Z" fill="#828F96"/>
<path opacity="0.5" d="M598 154.213V148.947H603.374V154.213H598Z" fill="#828F96"/>
<path opacity="0.5" d="M598 143.466V138.199H603.374V143.466H598Z" fill="#828F96"/>
<path opacity="0.5" d="M598 132.826V127.56H603.374V132.826H598Z" fill="#828F96"/>
<path opacity="0.5" d="M598 122.186V116.92H603.374V122.186H598Z" fill="#828F96"/>
<path opacity="0.5" d="M598 111.546V106.28H603.374V111.546H598Z" fill="#828F96"/>
<path opacity="0.5" d="M598 100.906V95.6399H603.374V100.906H598Z" fill="#828F96"/>
<path opacity="0.5" d="M598 90.2662V85H603.374V90.2662H598Z" fill="#828F96"/>
</g>
<g opacity="0.5">
<path opacity="0.5" d="M614.551 207.413V202.146H619.925V207.413H614.551Z" fill="#828F96"/>
<path opacity="0.5" d="M614.551 196.773V191.507H619.925V196.773H614.551Z" fill="#828F96"/>
<path opacity="0.5" d="M614.551 186.133V180.867H619.925V186.133H614.551Z" fill="#828F96"/>
<path opacity="0.5" d="M614.551 175.493V170.227H619.925V175.493H614.551Z" fill="#828F96"/>
<path opacity="0.5" d="M614.551 164.853V159.587H619.925V164.853H614.551Z" fill="#828F96"/>
<path opacity="0.5" d="M614.551 154.213V148.947H619.925V154.213H614.551Z" fill="#828F96"/>
<path opacity="0.5" d="M614.551 143.466V138.199H619.925V143.466H614.551Z" fill="#828F96"/>
<path opacity="0.5" d="M614.551 132.826V127.56H619.925V132.826H614.551Z" fill="#828F96"/>
<path opacity="0.5" d="M614.551 122.186V116.92H619.925V122.186H614.551Z" fill="#828F96"/>
<path opacity="0.5" d="M614.551 111.546V106.28H619.925V111.546H614.551Z" fill="#828F96"/>
<path opacity="0.5" d="M614.551 100.906V95.6399H619.925V100.906H614.551Z" fill="#828F96"/>
<path opacity="0.5" d="M614.551 90.2662V85H619.925V90.2662H614.551Z" fill="#828F96"/>
</g>
<g opacity="0.5">
<path opacity="0.5" d="M631.532 271.36V266.094H636.905V271.36H631.532Z" fill="#828F96"/>
<path opacity="0.5" d="M631.532 260.72V255.454H636.905V260.72H631.532Z" fill="#828F96"/>
<path opacity="0.5" d="M631.532 249.972V244.706H636.905V249.972H631.532Z" fill="#828F96"/>
<path opacity="0.5" d="M631.532 239.332V234.066H636.905V239.332H631.532Z" fill="#828F96"/>
<path opacity="0.5" d="M631.532 228.692V223.426H636.905V228.692H631.532Z" fill="#828F96"/>
<path opacity="0.5" d="M631.532 218.053V212.786H636.905V218.053H631.532Z" fill="#828F96"/>
<path opacity="0.5" d="M631.532 207.413V202.146H636.905V207.413H631.532Z" fill="#828F96"/>
<path opacity="0.5" d="M631.532 196.773V191.507H636.905V196.773H631.532Z" fill="#828F96"/>
<path opacity="0.5" d="M631.532 186.133V180.867H636.905V186.133H631.532Z" fill="#828F96"/>
<path opacity="0.5" d="M631.532 175.493V170.227H636.905V175.493H631.532Z" fill="#828F96"/>
<path opacity="0.5" d="M631.532 164.853V159.587H636.905V164.853H631.532Z" fill="#828F96"/>
<path opacity="0.5" d="M631.532 154.213V148.947H636.905V154.213H631.532Z" fill="#828F96"/>
<path opacity="0.5" d="M631.532 143.466V138.199H636.905V143.466H631.532Z" fill="#828F96"/>
<path opacity="0.5" d="M631.532 132.826V127.56H636.905V132.826H631.532Z" fill="#828F96"/>
<path opacity="0.5" d="M631.532 122.186V116.92H636.905V122.186H631.532Z" fill="#828F96"/>
<path opacity="0.5" d="M631.532 111.546V106.28H636.905V111.546H631.532Z" fill="#828F96"/>
<path opacity="0.5" d="M631.532 100.906V95.6399H636.905V100.906H631.532Z" fill="#828F96"/>
<path opacity="0.5" d="M631.532 90.2662V85H636.905V90.2662H631.532Z" fill="#828F96"/>
</g>
<g opacity="0.5">
<path opacity="0.5" d="M645.718 292.64V287.373H651.092V292.64H645.718Z" fill="#828F96"/>
<path opacity="0.5" d="M645.718 282V276.733H651.092V282H645.718Z" fill="#828F96"/>
<path opacity="0.5" d="M645.718 271.36V266.094H651.092V271.36H645.718Z" fill="#828F96"/>
<path opacity="0.5" d="M645.718 260.72V255.454H651.092V260.72H645.718Z" fill="#828F96"/>
<path opacity="0.5" d="M645.718 249.972V244.706H651.092V249.972H645.718Z" fill="#828F96"/>
<path opacity="0.5" d="M645.718 239.332V234.066H651.092V239.332H645.718Z" fill="#828F96"/>
<path opacity="0.5" d="M645.718 228.692V223.426H651.092V228.692H645.718Z" fill="#828F96"/>
<path opacity="0.5" d="M645.718 218.053V212.786H651.092V218.053H645.718Z" fill="#828F96"/>
<path opacity="0.5" d="M645.718 207.413V202.146H651.092V207.413H645.718Z" fill="#828F96"/>
<path opacity="0.5" d="M645.718 196.773V191.507H651.092V196.773H645.718Z" fill="#828F96"/>
<path opacity="0.5" d="M645.718 186.133V180.867H651.092V186.133H645.718Z" fill="#828F96"/>
<path opacity="0.5" d="M645.718 175.493V170.227H651.092V175.493H645.718Z" fill="#828F96"/>
<path opacity="0.5" d="M645.718 164.853V159.587H651.092V164.853H645.718Z" fill="#828F96"/>
<path opacity="0.5" d="M645.718 154.213V148.947H651.092V154.213H645.718Z" fill="#828F96"/>
<path opacity="0.5" d="M645.718 143.466V138.199H651.092V143.466H645.718Z" fill="#828F96"/>
<path opacity="0.5" d="M645.718 132.826V127.56H651.092V132.826H645.718Z" fill="#828F96"/>
<path opacity="0.5" d="M645.718 122.186V116.92H651.092V122.186H645.718Z" fill="#828F96"/>
<path opacity="0.5" d="M645.718 111.546V106.28H651.092V111.546H645.718Z" fill="#828F96"/>
<path opacity="0.5" d="M645.718 100.906V95.6399H651.092V100.906H645.718Z" fill="#828F96"/>
<path opacity="0.5" d="M645.718 90.2662V85H651.092V90.2662H645.718Z" fill="#828F96"/>
</g>
<g opacity="0.5">
<path opacity="0.5" d="M664.526 196.773V191.507H669.9V196.773H664.526Z" fill="#828F96"/>
<path opacity="0.5" d="M664.526 186.133V180.867H669.9V186.133H664.526Z" fill="#828F96"/>
<path opacity="0.5" d="M664.526 175.493V170.227H669.9V175.493H664.526Z" fill="#828F96"/>
<path opacity="0.5" d="M664.526 164.853V159.587H669.9V164.853H664.526Z" fill="#828F96"/>
<path opacity="0.5" d="M664.526 154.213V148.947H669.9V154.213H664.526Z" fill="#828F96"/>
<path opacity="0.5" d="M664.526 143.466V138.199H669.9V143.466H664.526Z" fill="#828F96"/>
<path opacity="0.5" d="M664.526 132.826V127.56H669.9V132.826H664.526Z" fill="#828F96"/>
<path opacity="0.5" d="M664.526 122.186V116.92H669.9V122.186H664.526Z" fill="#828F96"/>
<path opacity="0.5" d="M664.526 111.546V106.28H669.9V111.546H664.526Z" fill="#828F96"/>
<path opacity="0.5" d="M664.526 100.906V95.6399H669.9V100.906H664.526Z" fill="#828F96"/>
<path opacity="0.5" d="M664.526 90.2662V85H669.9V90.2662H664.526Z" fill="#828F96"/>
</g>
<g opacity="0.5">
<path opacity="0.5" d="M404 442.36V437.094H409.374V442.36H404Z" fill="#828F96"/>
<path opacity="0.5" d="M404 431.72V426.454H409.374V431.72H404Z" fill="#828F96"/>
<path opacity="0.5" d="M404 420.972V415.706H409.374V420.972H404Z" fill="#828F96"/>
<path opacity="0.5" d="M404 410.332V405.066H409.374V410.332H404Z" fill="#828F96"/>
<path opacity="0.5" d="M404 399.692V394.426H409.374V399.692H404Z" fill="#828F96"/>
<path opacity="0.5" d="M404 389.053V383.786H409.374V389.053H404Z" fill="#828F96"/>
<path opacity="0.5" d="M404 378.413V373.146H409.374V378.413H404Z" fill="#828F96"/>
<path opacity="0.5" d="M404 367.773V362.507H409.374V367.773H404Z" fill="#828F96"/>
<path opacity="0.5" d="M404 357.133V351.867H409.374V357.133H404Z" fill="#828F96"/>
<path opacity="0.5" d="M404 346.493V341.227H409.374V346.493H404Z" fill="#828F96"/>
<path opacity="0.5" d="M404 335.853V330.587H409.374V335.853H404Z" fill="#828F96"/>
<path opacity="0.5" d="M404 325.213V319.947H409.374V325.213H404Z" fill="#828F96"/>
<path opacity="0.5" d="M404 314.466V309.199H409.374V314.466H404Z" fill="#828F96"/>
<path opacity="0.5" d="M404 303.826V298.56H409.374V303.826H404Z" fill="#828F96"/>
<path opacity="0.5" d="M404 293.186V287.92H409.374V293.186H404Z" fill="#828F96"/>
<path opacity="0.5" d="M404 282.546V277.28H409.374V282.546H404Z" fill="#828F96"/>
<path opacity="0.5" d="M404 271.906V266.64H409.374V271.906H404Z" fill="#828F96"/>
<path opacity="0.5" d="M404 261.266V256H409.374V261.266H404Z" fill="#828F96"/>
</g>
<g opacity="0.5">
<path opacity="0.5" d="M420.551 378.413V373.146H425.925V378.413H420.551Z" fill="#828F96"/>
<path opacity="0.5" d="M420.551 367.773V362.507H425.925V367.773H420.551Z" fill="#828F96"/>
<path opacity="0.5" d="M420.551 357.133V351.867H425.925V357.133H420.551Z" fill="#828F96"/>
<path opacity="0.5" d="M420.551 346.493V341.227H425.925V346.493H420.551Z" fill="#828F96"/>
<path opacity="0.5" d="M420.551 335.853V330.587H425.925V335.853H420.551Z" fill="#828F96"/>
<path opacity="0.5" d="M420.551 325.213V319.947H425.925V325.213H420.551Z" fill="#828F96"/>
<path opacity="0.5" d="M420.551 314.466V309.199H425.925V314.466H420.551Z" fill="#828F96"/>
<path opacity="0.5" d="M420.551 303.826V298.56H425.925V303.826H420.551Z" fill="#828F96"/>
<path opacity="0.5" d="M420.551 293.186V287.92H425.925V293.186H420.551Z" fill="#828F96"/>
<path opacity="0.5" d="M420.551 282.546V277.28H425.925V282.546H420.551Z" fill="#828F96"/>
<path opacity="0.5" d="M420.551 271.906V266.64H425.925V271.906H420.551Z" fill="#828F96"/>
<path opacity="0.5" d="M420.551 261.266V256H425.925V261.266H420.551Z" fill="#828F96"/>
</g>
<g opacity="0.5">
<path opacity="0.5" d="M437.532 442.36V437.094H442.905V442.36H437.532Z" fill="#828F96"/>
<path opacity="0.5" d="M437.532 431.72V426.454H442.905V431.72H437.532Z" fill="#828F96"/>
<path opacity="0.5" d="M437.532 420.972V415.706H442.905V420.972H437.532Z" fill="#828F96"/>
<path opacity="0.5" d="M437.532 410.332V405.066H442.905V410.332H437.532Z" fill="#828F96"/>
<path opacity="0.5" d="M437.532 399.692V394.426H442.905V399.692H437.532Z" fill="#828F96"/>
<path opacity="0.5" d="M437.532 389.053V383.786H442.905V389.053H437.532Z" fill="#828F96"/>
<path opacity="0.5" d="M437.532 378.413V373.146H442.905V378.413H437.532Z" fill="#828F96"/>
<path opacity="0.5" d="M437.532 367.773V362.507H442.905V367.773H437.532Z" fill="#828F96"/>
<path opacity="0.5" d="M437.532 357.133V351.867H442.905V357.133H437.532Z" fill="#828F96"/>
<path opacity="0.5" d="M437.532 346.493V341.227H442.905V346.493H437.532Z" fill="#828F96"/>
<path opacity="0.5" d="M437.532 335.853V330.587H442.905V335.853H437.532Z" fill="#828F96"/>
<path opacity="0.5" d="M437.532 325.213V319.947H442.905V325.213H437.532Z" fill="#828F96"/>
<path opacity="0.5" d="M437.532 314.466V309.199H442.905V314.466H437.532Z" fill="#828F96"/>
<path opacity="0.5" d="M437.532 303.826V298.56H442.905V303.826H437.532Z" fill="#828F96"/>
<path opacity="0.5" d="M437.532 293.186V287.92H442.905V293.186H437.532Z" fill="#828F96"/>
<path opacity="0.5" d="M437.532 282.546V277.28H442.905V282.546H437.532Z" fill="#828F96"/>
<path opacity="0.5" d="M437.532 271.906V266.64H442.905V271.906H437.532Z" fill="#828F96"/>
<path opacity="0.5" d="M437.532 261.266V256H442.905V261.266H437.532Z" fill="#828F96"/>
</g>
<g opacity="0.5">
<path opacity="0.5" d="M451.718 463.64V458.373H457.092V463.64H451.718Z" fill="#828F96"/>
<path opacity="0.5" d="M451.718 453V447.733H457.092V453H451.718Z" fill="#828F96"/>
<path opacity="0.5" d="M451.718 442.36V437.094H457.092V442.36H451.718Z" fill="#828F96"/>
<path opacity="0.5" d="M451.718 431.72V426.454H457.092V431.72H451.718Z" fill="#828F96"/>
<path opacity="0.5" d="M451.718 420.972V415.706H457.092V420.972H451.718Z" fill="#828F96"/>
<path opacity="0.5" d="M451.718 410.332V405.066H457.092V410.332H451.718Z" fill="#828F96"/>
<path opacity="0.5" d="M451.718 399.692V394.426H457.092V399.692H451.718Z" fill="#828F96"/>
<path opacity="0.5" d="M451.718 389.053V383.786H457.092V389.053H451.718Z" fill="#828F96"/>
<path opacity="0.5" d="M451.718 378.413V373.146H457.092V378.413H451.718Z" fill="#828F96"/>
<path opacity="0.5" d="M451.718 367.773V362.507H457.092V367.773H451.718Z" fill="#828F96"/>
<path opacity="0.5" d="M451.718 357.133V351.867H457.092V357.133H451.718Z" fill="#828F96"/>
<path opacity="0.5" d="M451.718 346.493V341.227H457.092V346.493H451.718Z" fill="#828F96"/>
<path opacity="0.5" d="M451.718 335.853V330.587H457.092V335.853H451.718Z" fill="#828F96"/>
<path opacity="0.5" d="M451.718 325.213V319.947H457.092V325.213H451.718Z" fill="#828F96"/>
<path opacity="0.5" d="M451.718 314.466V309.199H457.092V314.466H451.718Z" fill="#828F96"/>
<path opacity="0.5" d="M451.718 303.826V298.56H457.092V303.826H451.718Z" fill="#828F96"/>
<path opacity="0.5" d="M451.718 293.186V287.92H457.092V293.186H451.718Z" fill="#828F96"/>
<path opacity="0.5" d="M451.718 282.546V277.28H457.092V282.546H451.718Z" fill="#828F96"/>
<path opacity="0.5" d="M451.718 271.906V266.64H457.092V271.906H451.718Z" fill="#828F96"/>
<path opacity="0.5" d="M451.718 261.266V256H457.092V261.266H451.718Z" fill="#828F96"/>
</g>
<g opacity="0.5">
<path opacity="0.5" d="M470.526 367.773V362.507H475.9V367.773H470.526Z" fill="#828F96"/>
<path opacity="0.5" d="M470.526 357.133V351.867H475.9V357.133H470.526Z" fill="#828F96"/>
<path opacity="0.5" d="M470.526 346.493V341.227H475.9V346.493H470.526Z" fill="#828F96"/>
<path opacity="0.5" d="M470.526 335.853V330.587H475.9V335.853H470.526Z" fill="#828F96"/>
<path opacity="0.5" d="M470.526 325.213V319.947H475.9V325.213H470.526Z" fill="#828F96"/>
<path opacity="0.5" d="M470.526 314.466V309.199H475.9V314.466H470.526Z" fill="#828F96"/>
<path opacity="0.5" d="M470.526 303.826V298.56H475.9V303.826H470.526Z" fill="#828F96"/>
<path opacity="0.5" d="M470.526 293.186V287.92H475.9V293.186H470.526Z" fill="#828F96"/>
<path opacity="0.5" d="M470.526 282.546V277.28H475.9V282.546H470.526Z" fill="#828F96"/>
<path opacity="0.5" d="M470.526 271.906V266.64H475.9V271.906H470.526Z" fill="#828F96"/>
<path opacity="0.5" d="M470.526 261.266V256H475.9V261.266H470.526Z" fill="#828F96"/>
</g>
</svg>
