<?xml version="1.0" encoding="utf-8"?>
<!-- Generator: Adobe Illustrator 21.1.0, SVG Export Plug-In . SVG Version: 6.00 Build 0)  -->
<svg version="1.1" id="Layer_1" xmlns="http://www.w3.org/2000/svg" xmlns:xlink="http://www.w3.org/1999/xlink" x="0px" y="0px"
	 viewBox="0 0 120 120" style="enable-background:new 0 0 120 120;" xml:space="preserve">
<style type="text/css">
	.st0{fill:#E53F2C;}
	.st1{fill:#182F3C;}
	.st2{fill:#FFFFFF;}
	.st3{fill:#FFFFFF;stroke:#182F3C;stroke-width:3;stroke-linejoin:round;stroke-miterlimit:10;}
	.st4{fill:#FFFFFF;stroke:#182F3C;stroke-width:3;stroke-linecap:round;stroke-linejoin:round;stroke-miterlimit:10;}
	.st5{fill:none;stroke:#182F3C;stroke-width:2.7;stroke-linejoin:round;stroke-miterlimit:10;}
	.st6{fill:#E53F2C;stroke:#182F3C;stroke-width:2.7;stroke-linejoin:round;stroke-miterlimit:10;}
	.st7{fill:none;stroke:#182F3C;stroke-width:2.5;stroke-linejoin:round;stroke-miterlimit:10;}
	.st8{fill:none;}
	.st9{fill:none;stroke:#182F3C;stroke-width:2.5982;stroke-linejoin:round;stroke-miterlimit:10;}
	.st10{fill:#E53F2C;stroke:#182F3C;stroke-width:2.5982;stroke-linejoin:round;stroke-miterlimit:10;}
	.st11{fill:#FFFFFF;stroke:#182F3C;stroke-width:2.5982;stroke-linejoin:round;stroke-miterlimit:10;}
</style>
<g>
	<g>
		<g>
			<rect x="55.5" y="28.5" class="st0" width="40.5" height="3"/>
		</g>
	</g>
	<g>
		<g>
			<rect x="55.5" y="34.5" class="st1" width="25.5" height="3"/>
		</g>
	</g>
	<g>
		<g>
			<rect x="55.5" y="40.5" class="st0" width="25.5" height="3"/>
		</g>
	</g>
	<g>
		<g>
			<rect x="67.5" y="22.5" class="st1" width="28.5" height="3"/>
		</g>
	</g>
	<g>
		<g>
			<rect x="61.5" y="22.5" class="st0" width="3" height="3"/>
		</g>
	</g>
	<g>
		<g>
			<rect x="58.5" y="75" class="st0" width="3" height="3"/>
		</g>
	</g>
	<g>
		<g>
			<path class="st1" d="M40.1,25.1l-2.1-2.1l-3,3c-0.6,0.6-0.6,1.5,0,2.1l3,3l2.1-2.1L38.1,27L40.1,25.1z"/>
		</g>
	</g>
	<g>
		<g>
			<path class="st1" d="M52.1,25.9l-3-3l-2.1,2.1l1.9,1.9l-1.9,1.9l2.1,2.1l3-3C52.6,27.5,52.6,26.5,52.1,25.9z"/>
		</g>
	</g>
	<g>
		<g>
			<rect x="38.8" y="25.5" transform="matrix(0.3165 -0.9486 0.9486 0.3165 4.117 59.7239)" class="st1" width="9.5" height="3"/>
		</g>
	</g>
	<g>
		<rect x="75" y="61.5" class="st8" width="3" height="0"/>
		<rect x="81" y="61.5" class="st8" width="3" height="0"/>
		<rect x="87" y="61.5" class="st8" width="3" height="0"/>
		<rect x="69" y="61.5" class="st8" width="3" height="0"/>
		<rect x="78" y="54" class="st0" width="3" height="7.5"/>
		<polygon class="st1" points="93,61.5 93,61.5 90,61.5 90,61.5 87,61.5 87,61.5 84,61.5 84,61.5 81,61.5 81,61.5 78,61.5 78,61.5 
			75,61.5 75,61.5 72,61.5 72,61.5 69,61.5 69,61.5 66,61.5 66,61.5 63,61.5 63,64.5 96,64.5 96,61.5 		"/>
		<rect x="66" y="55.5" class="st0" width="3" height="6"/>
		<rect x="72" y="52.5" class="st1" width="3" height="9"/>
		<rect x="90" y="49.5" class="st0" width="3" height="12"/>
		<rect x="84" y="46.5" class="st1" width="3" height="15"/>
	</g>
	<g>
		<g>
			<path class="st1" d="M94.5,15h-69c-5,0-9,4-9,9v29.4v0v17V75c0,5,4,9,9,9h18.6l-6,12H30c-2.5,0-4.5,2-4.5,4.5
				c0,2.5,2,4.5,4.5,4.5h60c2.5,0,4.5-2,4.5-4.5c0-2.5-2-4.5-4.5-4.5h-8.1l-6-12h18.6c5,0,9-4,9-9V24C103.5,19,99.5,15,94.5,15z
				 M19.5,36.1l3.4,4.1c0.3,0.3,0.7,0.5,1.1,0.5h4.6c0.4,0,0.9-0.2,1.1-0.5l3.4-4.1l3.4,1.1l0.4,5.3c0,0.4,0.3,0.8,0.6,1.1l3.7,2.7
				c0.4,0.3,0.8,0.3,1.2,0.2l5.1-1.3l2.1,2.9l-2.8,4.5c-0.2,0.4-0.3,0.8-0.1,1.3l1.4,4.4c0.1,0.4,0.5,0.8,0.9,0.9l4.9,2v3.5l-4.9,2
				c-0.4,0.2-0.7,0.5-0.9,0.9L47.8,69h-8.6c3.4-7,0.4-15.5-6.7-18.8c-4.1-2-9-1.8-13,0.4V36.1z M19.5,54.2
				c4.9-3.8,11.9-2.9,15.6,1.9c2.9,3.7,3.1,8.9,0.6,12.9H19.5V54.2z M90,99c0.8,0,1.5,0.7,1.5,1.5c0,0.8-0.7,1.5-1.5,1.5H30
				c-0.8,0-1.5-0.7-1.5-1.5c0-0.8,0.7-1.5,1.5-1.5H90z M78.6,96H41.4l6-12h25.1L78.6,96z M100.5,75c0,3.3-2.7,6-6,6h-69
				c-3.3,0-6-2.7-6-6v-3h17h0h64V75z M100.5,69H51.4l4.7-1.9c0.6-0.2,0.9-0.8,0.9-1.4v-5.6c0-0.6-0.4-1.2-0.9-1.4l-5.2-2.1l-1-3
				l3-4.8c0.3-0.5,0.3-1.2-0.1-1.7l-3.3-4.5c-0.4-0.5-1-0.7-1.6-0.6l-5.5,1.3l-2.6-1.9L39.5,36c0-0.6-0.5-1.1-1-1.3l-5.3-1.7
				c-0.6-0.2-1.2,0-1.6,0.5L28,37.7h-3.2l-3.6-4.3c-0.4-0.5-1-0.6-1.6-0.5l0,0V24c0-3.3,2.7-6,6-6h69c3.3,0,6,2.7,6,6V69z"/>
		</g>
	</g>
	<path class="st0" d="M19.5,36.1l3.4,4.1c0.3,0.3,0.7,0.5,1.1,0.5h4.6c0.4,0,0.9-0.2,1.1-0.5l3.4-4.1l3.4,1.1l0.4,5.3
		c0,0.4,0.3,0.8,0.6,1.1l3.7,2.7c0.4,0.3,0.8,0.3,1.2,0.2l5.1-1.3l2.1,2.9l-2.8,4.5c-0.2,0.4-0.3,0.8-0.1,1.3l1.4,4.4
		c0.1,0.4,0.5,0.8,0.9,0.9l4.9,2v3.5l-4.9,2c-0.4,0.2-0.7,0.5-0.9,0.9L47.8,69h-8.6c3.4-7,0.4-15.5-6.7-18.8c-4.1-2-9-1.8-13,0.4
		V36.1z"/>
</g>
</svg>
