<svg xmlns="http://www.w3.org/2000/svg" width="20.509" height="13.335" viewBox="0 0 20.509 13.335">
  <g id="View_Icon" data-name="View Icon" transform="translate(-355.229 -441.572)">
    <path id="Path_7106" data-name="Path 7106" d="M375.514,447.775a19.351,19.351,0,0,0-4.411-4.252,11.906,11.906,0,0,0-2.769-1.44,8.532,8.532,0,0,0-2.867-.511,7.933,7.933,0,0,0-1.628.169,11.009,11.009,0,0,0-3.98,1.785,19.318,19.318,0,0,0-4.437,4.284.575.575,0,0,0,0,.857,19.432,19.432,0,0,0,4.437,4.285,11.908,11.908,0,0,0,2.769,1.441,8.221,8.221,0,0,0,4.5.344,11.152,11.152,0,0,0,4.065-1.842,19.007,19.007,0,0,0,4.19-4.013,3.527,3.527,0,0,0,.265-.416c.031-.053.062-.108.1-.163v-.137c-.019-.036-.038-.072-.057-.108A1.936,1.936,0,0,0,375.514,447.775Zm-.991.607-.148.179c-.107.13-.217.264-.331.394a18.454,18.454,0,0,1-3.358,3.076,10.234,10.234,0,0,1-3.9,1.749,6.744,6.744,0,0,1-1.292.125,7.232,7.232,0,0,1-2.133-.329,10.918,10.918,0,0,1-3.035-1.517,18.813,18.813,0,0,1-3.8-3.579c-.022-.027-.041-.053-.06-.082l-.029-.041a.216.216,0,0,1,.009-.264l.156-.19c.11-.135.224-.273.341-.407a18.545,18.545,0,0,1,3.313-3.034,10.283,10.283,0,0,1,3.917-1.765,6.989,6.989,0,0,1,3.445.206,10.959,10.959,0,0,1,3.034,1.52,18.846,18.846,0,0,1,3.8,3.581c.017.02.032.041.052.068l.031.042A.216.216,0,0,1,374.523,448.382Z" transform="translate(0 0)" fill="rgba(255,255,255,0.6)"/>
    <path id="Path_7107" data-name="Path 7107" d="M483.023,491.071h-.043a3.77,3.77,0,0,0-2.728,1.18,4.25,4.25,0,0,0-1.182,2.944,4.053,4.053,0,0,0,3.9,4.155h.044a3.769,3.769,0,0,0,2.727-1.18,4.249,4.249,0,0,0,1.183-2.943h0A4.052,4.052,0,0,0,483.023,491.071ZM483,498.331H483a3.055,3.055,0,0,1-2.958-3.117,3.182,3.182,0,0,1,.883-2.22,2.828,2.828,0,0,1,2.094-.9,3.125,3.125,0,0,1-.01,6.24Z" transform="translate(-117.516 -46.971)" fill="rgba(255,255,255,0.6)"/>
  </g>
</svg>
