<svg xmlns="http://www.w3.org/2000/svg" width="113.207" height="89.488" viewBox="0 0 113.207 89.488">
  <g id="Inverted_Coma_Left_Icon_" data-name="Inverted Coma Left Icon " transform="translate(-325.852 -369.163)">
    <path id="Path_1314" data-name="Path 1314" d="M604.173,383.758c2.9-1.888,5.808-3.766,8.626-5.769a6.378,6.378,0,0,0,2.872-3.5,1.934,1.934,0,0,0-1.922-2.6,15.052,15.052,0,0,0-5.834,1.287,77.4,77.4,0,0,0-13.738,6.863c-7.764,4.823-14.81,10.377-19.516,18.473a60.552,60.552,0,0,0-8.686,29.754,34.028,34.028,0,0,0,.507,5.986c1.1,7.16,3.732,13.572,9.293,18.454a24.316,24.316,0,0,0,16.018,6.218,23.261,23.261,0,0,0,14.621-4.652c6.429-4.8,9.115-11.406,9.078-19.248a49.586,49.586,0,0,0-.477-5.6,17.432,17.432,0,0,0-4.909-10.725c-3.53-3.516-7.885-5.67-12.318-7.709a29.731,29.731,0,0,1-5.332-3.041c-3.715-2.754-4.492-5.677-2.121-9.675A43.7,43.7,0,0,1,604.173,383.758Z" transform="translate(-177.709 -1.282)" fill="none" stroke="#fff" stroke-miterlimit="10" stroke-width="2"/>
    <path id="Path_1315" data-name="Path 1315" d="M373.748,370.215a24.841,24.841,0,0,0-4.329,1.1,72.721,72.721,0,0,0-14.68,7.251c-5.628,3.519-11.192,7.218-15.252,12.563-9.6,12.637-14.39,26.742-12.052,42.75a28.072,28.072,0,0,0,7.4,15.633,24.057,24.057,0,0,0,18.08,7.721,34.944,34.944,0,0,0,4.092-.275,22.541,22.541,0,0,0,19.189-21.89,55,55,0,0,0-.5-7.654,17.047,17.047,0,0,0-4.848-10.347,33.463,33.463,0,0,0-9.2-6.206,85.484,85.484,0,0,1-7.633-3.921c-4.312-2.713-5.479-6.313-2.928-10.383a46.129,46.129,0,0,1,11.308-12.606c3.181-2.389,6.642-4.362,9.9-6.633a10.728,10.728,0,0,0,3.937-3.944,2.16,2.16,0,0,0-2.485-3.163Z" fill="none" stroke="#fff" stroke-miterlimit="10" stroke-width="2"/>
  </g>
</svg>
