<svg xmlns="http://www.w3.org/2000/svg" width="59.006" height="60" viewBox="0 0 59.006 60">
  <g id="Forcasting_solutions" data-name="Forcasting solutions" transform="translate(144.503 -30)">
    <g id="Group_127" data-name="Group 127">
      <path id="Path_960" data-name="Path 960" d="M-86.33,62.629h-13.842a.833.833,0,0,0-.832.832V74.493h-12.177V67.416a.833.833,0,0,0-.832-.832h-13.842a.833.833,0,0,0-.833.832V78.448H-141.7a.833.833,0,0,0-.833.832v9.888A.833.833,0,0,0-141.7,90H-86.33a.833.833,0,0,0,.833-.832V63.461A.833.833,0,0,0-86.33,62.629Zm-42.358,25.706h-12.176V80.113h12.176Zm13.842,0h-12.176V68.249h12.176Zm13.842,0h-12.177V76.159H-101Zm13.842,0H-99.339V64.294h12.177Z" fill="#fff"/>
      <path id="Path_961" data-name="Path 961" d="M-86.33,44.832h-6.764V46.5h4.754L-107.093,65.25-120.345,52a.853.853,0,0,0-1.178,0l-22.63,22.63,1.177,1.177,22.042-22.041,13.253,13.253a.834.834,0,0,0,1.178,0l19.341-19.341V52.43H-85.5V45.665A.834.834,0,0,0-86.33,44.832Z" fill="#fff"/>
      <path id="Path_962" data-name="Path 962" d="M-119.569,58.288l-1-1.332a13.881,13.881,0,0,1-3.093,1.716l.6,1.555A15.652,15.652,0,0,0-119.569,58.288Z" fill="#fff"/>
      <path id="Path_963" data-name="Path 963" d="M-137.2,58.92a15.687,15.687,0,0,0,4.025,1.8l.443-1.606a13.907,13.907,0,0,1-8.3-6.549,13.907,13.907,0,0,1-1.312-10.633,14.015,14.015,0,0,1,17.225-9.758,13.91,13.91,0,0,1,8.447,6.591A13.908,13.908,0,0,1-115.353,49.4a14.011,14.011,0,0,1-1.564,3.6l1.407.889A15.55,15.55,0,0,0-113.57,42.2a15.558,15.558,0,0,0-6.924-9.786A15.562,15.562,0,0,0-128.814,30a15.769,15.769,0,0,0-3.5.394,15.56,15.56,0,0,0-9.785,6.924A15.681,15.681,0,0,0-137.2,58.92Z" fill="#fff"/>
      <path id="Path_964" data-name="Path 964" d="M-116.577,42.378a12.616,12.616,0,0,0-5.916-7.71,12.618,12.618,0,0,0-6.328-1.7,12.7,12.7,0,0,0-11.018,6.346,12.613,12.613,0,0,0-1.269,9.635,12.611,12.611,0,0,0,5.916,7.711,12.805,12.805,0,0,0,5.135,1.644l.137-1.66a10.965,10.965,0,0,1-3.549-.964l-.155-.072.973-1.687-1.441-.832-.973,1.686-.139-.1a10.929,10.929,0,0,1-2.652-2.651l-.1-.14,1.686-.973-.833-1.442-1.686.974-.072-.156a10.97,10.97,0,0,1-.97-3.622l-.015-.17h1.946V44.832h-1.946l.015-.17a10.913,10.913,0,0,1,.971-3.622l.072-.155,1.685.973.833-1.441-1.683-.973.1-.139a11.092,11.092,0,0,1,2.649-2.65l.14-.1.972,1.683,1.441-.832-.972-1.685.155-.072a10.9,10.9,0,0,1,3.621-.971l.171-.016v1.948h1.664V34.663l.171.016a10.9,10.9,0,0,1,3.621.971l.155.072-.972,1.685,1.441.832.972-1.683.14.1a11.092,11.092,0,0,1,2.649,2.65l.1.139-1.683.973.833,1.441,1.685-.973.072.155a10.912,10.912,0,0,1,.971,3.622l.015.17h-1.947V46.5h1.947l-.015.17a11.1,11.1,0,0,1-1.352,4.378l1.441.833A12.61,12.61,0,0,0-116.577,42.378Z" fill="#fff"/>
      <path id="Path_965" data-name="Path 965" d="M-131.38,46.876l.048.1-1.945,1.946L-132.1,50.1l1.946-1.945.1.047a2.813,2.813,0,0,0,3.747-1.324,2.813,2.813,0,0,0-1.324-3.746,2.847,2.847,0,0,0-.275-.114l-.1-.037V38.9h-1.664v4.079l-.105.037a2.789,2.789,0,0,0-1.6,1.437,2.793,2.793,0,0,0-.115,2.147Q-131.443,46.741-131.38,46.876Zm2.536-2.356a1.147,1.147,0,0,1,1.145,1.145,1.146,1.146,0,0,1-1.145,1.144,1.146,1.146,0,0,1-1.145-1.144A1.148,1.148,0,0,1-128.844,44.52Z" fill="#fff"/>
    </g>
  </g>
</svg>
