<svg id="Search_Icon" data-name="Search Icon" xmlns="http://www.w3.org/2000/svg" width="13.132" height="13.131" viewBox="0 0 13.132 13.131">
  <path id="Path_204" data-name="Path 204" d="M23.078,23.076a.821.821,0,0,1,1.161,0l3.16,3.16a.821.821,0,0,1-1.16,1.161l-3.16-3.16a.821.821,0,0,1,0-1.161Z" transform="translate(-14.508 -14.506)" fill="#fff" fill-rule="evenodd"/>
  <path id="Path_205" data-name="Path 205" d="M5.335,9.848A4.514,4.514,0,1,0,.821,5.335,4.514,4.514,0,0,0,5.335,9.848Zm5.335-4.514A5.335,5.335,0,1,1,5.335,0,5.335,5.335,0,0,1,10.669,5.335Z" fill="#fff" fill-rule="evenodd"/>
</svg>
