<svg xmlns="http://www.w3.org/2000/svg" width="18.456" height="12" viewBox="0 0 18.456 12">
  <g id="Views_Icon" data-name="Views Icon" transform="translate(-355.229 -441.572)">
    <path id="Path_7106" data-name="Path 7106" d="M373.484,447.154a17.414,17.414,0,0,0-3.97-3.827,10.713,10.713,0,0,0-2.492-1.3,7.678,7.678,0,0,0-2.58-.46,7.139,7.139,0,0,0-1.465.152,9.907,9.907,0,0,0-3.582,1.607,17.385,17.385,0,0,0-3.993,3.855.517.517,0,0,0,0,.772,17.487,17.487,0,0,0,3.993,3.856,10.716,10.716,0,0,0,2.491,1.3,7.4,7.4,0,0,0,4.045.31,10.035,10.035,0,0,0,3.658-1.658,17.1,17.1,0,0,0,3.771-3.611,3.176,3.176,0,0,0,.239-.374c.028-.048.056-.1.086-.146v-.123l-.051-.1A1.743,1.743,0,0,0,373.484,447.154Zm-.892.546-.133.161c-.1.117-.2.238-.3.355a16.608,16.608,0,0,1-3.022,2.768,9.21,9.21,0,0,1-3.511,1.574,6.07,6.07,0,0,1-1.163.112,6.508,6.508,0,0,1-1.919-.3,9.825,9.825,0,0,1-2.732-1.365,16.93,16.93,0,0,1-3.42-3.221c-.02-.024-.037-.048-.054-.073l-.026-.036a.2.2,0,0,1,.008-.237l.141-.171c.1-.121.2-.246.307-.366a16.689,16.689,0,0,1,2.981-2.73,9.254,9.254,0,0,1,3.525-1.588,6.29,6.29,0,0,1,3.1.185,9.863,9.863,0,0,1,2.73,1.368,16.96,16.96,0,0,1,3.419,3.222c.015.018.029.037.047.062l.028.038A.2.2,0,0,1,372.592,447.7Z" transform="translate(0 0)" fill="rgba(255,255,255,0.6)"/>
    <path id="Path_7107" data-name="Path 7107" d="M482.628,491.071h-.039a3.393,3.393,0,0,0-2.455,1.062,3.825,3.825,0,0,0-1.064,2.649,3.647,3.647,0,0,0,3.513,3.739h.039a3.392,3.392,0,0,0,2.454-1.062,3.824,3.824,0,0,0,1.064-2.649h0A3.647,3.647,0,0,0,482.628,491.071Zm-.017,6.533H482.6a2.749,2.749,0,0,1-2.662-2.805,2.864,2.864,0,0,1,.794-2,2.545,2.545,0,0,1,1.884-.812,2.812,2.812,0,0,1-.009,5.616Z" transform="translate(-118.149 -47.224)" fill="rgba(255,255,255,0.6)"/>
  </g>
</svg>
