<svg xmlns="http://www.w3.org/2000/svg" width="56.982" height="60" viewBox="0 0 56.982 60">
  <g id="ETL_Icon" data-name="ETL Icon" transform="translate(314.824 -30)">
    <g id="Group_125" data-name="Group 125">
      <path id="Path_959" data-name="Path 959" d="M-267.444,60.97a4.867,4.867,0,0,0,5.4,3.836,4.862,4.862,0,0,0,4.19-5.131,4.864,4.864,0,0,0-4.839-4.525,4.876,4.876,0,0,0-4.752,3.88l-.029.144h-12.569l-.03-.143a4.855,4.855,0,0,0-1.633-2.713l-.113-.1,3.521-6.463h3.781l.03.144a4.832,4.832,0,0,0,5.239,3.855,4.835,4.835,0,0,0,4.363-4.825,4.835,4.835,0,0,0-4.363-4.825,4.829,4.829,0,0,0-5.239,3.855l-.03.144h-3.446v-6.88l3.54-3.54h4.937l.029.144a4.839,4.839,0,0,0,5.239,3.855,4.835,4.835,0,0,0,4.363-4.825,4.836,4.836,0,0,0-4.363-4.825,4.835,4.835,0,0,0-5.239,3.855l-.029.144h-4.862a1.833,1.833,0,0,0-1.3.537l-.944.945-.108-.04a22.178,22.178,0,0,0-2.138-.672l-.135-.035V31.832A1.839,1.839,0,0,0-280.8,30h-8.048a1.838,1.838,0,0,0-1.832,1.832v4.939l-.135.034a23.643,23.643,0,0,0-6.18,2.552l-.12.071-3.473-3.474a1.826,1.826,0,0,0-1.3-.551h-.013a1.807,1.807,0,0,0-1.29.542l-5.676,5.676a1.836,1.836,0,0,0-.553,1.3,1.837,1.837,0,0,0,.543,1.3l3.482,3.482-.071.12a23.677,23.677,0,0,0-2.552,6.181l-.035.135h-4.937a1.837,1.837,0,0,0-1.832,1.832v8.048a1.837,1.837,0,0,0,1.832,1.832h4.937l.035.136a23.67,23.67,0,0,0,2.552,6.18l.071.12-3.472,3.472a1.838,1.838,0,0,0-.553,1.3,1.835,1.835,0,0,0,.543,1.3l5.676,5.676a1.814,1.814,0,0,0,1.3.553h.012a1.812,1.812,0,0,0,1.291-.543l3.484-3.483.12.071a23.563,23.563,0,0,0,6.18,2.552l.135.035v4.938A1.837,1.837,0,0,0-288.848,90h8.048a1.838,1.838,0,0,0,1.832-1.832V83.229l.135-.034c.717-.187,1.437-.413,2.138-.672l.108-.04.944.944a1.833,1.833,0,0,0,1.3.537h4.862l.029.145a4.835,4.835,0,0,0,5.239,3.855,4.836,4.836,0,0,0,4.363-4.826,4.835,4.835,0,0,0-4.363-4.825,4.833,4.833,0,0,0-5.239,3.855l-.029.144h-4.937l-3.54-3.54v-6.88h3.446l.03.144a4.83,4.83,0,0,0,5.239,3.855,4.835,4.835,0,0,0,4.363-4.825,4.835,4.835,0,0,0-4.363-4.825,4.828,4.828,0,0,0-5.239,3.855l-.03.144H-278.3l-.052-.094-3.469-6.369.113-.1a4.857,4.857,0,0,0,1.633-2.713l.03-.143h12.569Zm4.752-4.168a3.2,3.2,0,0,1,3.2,3.2,3.205,3.205,0,0,1-3.2,3.2,3.2,3.2,0,0,1-3.2-3.2A3.2,3.2,0,0,1-262.692,56.8Zm-7.042-11.065a3.2,3.2,0,0,1,3.2,3.2,3.2,3.2,0,0,1-3.2,3.2,3.2,3.2,0,0,1-3.2-3.2A3.2,3.2,0,0,1-269.734,45.737Zm5.03-12.073a3.2,3.2,0,0,1,3.2,3.2,3.2,3.2,0,0,1-3.2,3.2,3.2,3.2,0,0,1-3.2-3.2A3.206,3.206,0,0,1-264.7,33.664Zm0,46.276a3.2,3.2,0,0,1,3.2,3.2,3.2,3.2,0,0,1-3.2,3.2,3.2,3.2,0,0,1-3.2-3.2A3.206,3.206,0,0,1-264.7,79.94Zm-5.03-12.072a3.2,3.2,0,0,1,3.2,3.2,3.2,3.2,0,0,1-3.2,3.2,3.2,3.2,0,0,1-3.2-3.2A3.205,3.205,0,0,1-269.734,67.868Zm-8.141,13.326-.285.089c-.619.193-1.212.352-1.813.486h0a.831.831,0,0,0-.646.806v5.773h-8.408V82.575a.83.83,0,0,0-.65-.807,21.943,21.943,0,0,1-7.118-2.939.823.823,0,0,0-1.026.114l-4.076,4.071-5.939-5.945,4.071-4.07a.824.824,0,0,0,.113-1.027,21.974,21.974,0,0,1-2.939-7.118.832.832,0,0,0-.807-.65h-5.773V55.8h5.773a.831.831,0,0,0,.807-.649,21.947,21.947,0,0,1,2.939-7.118A.821.821,0,0,0-303.766,47l-4.071-4.078,5.945-5.938,4.07,4.07a.821.821,0,0,0,1.027.114,21.932,21.932,0,0,1,7.117-2.938.832.832,0,0,0,.65-.808V31.652h8.408v5.773a.829.829,0,0,0,.646.806c.593.133,1.187.292,1.814.486l.285.088-1.2,1.2a1.831,1.831,0,0,0-.536,1.295v1.544l-.23-.067a17.947,17.947,0,0,0-19.6,6.841,17.943,17.943,0,0,0,0,20.761,17.947,17.947,0,0,0,19.6,6.84l.23-.067V78.7a1.833,1.833,0,0,0,.536,1.295Zm-1.739-9.872v4.086l-.123.041a16.354,16.354,0,0,1-5.15.835,16.221,16.221,0,0,1-13.122-6.691,16.223,16.223,0,0,1,0-19.186,16.224,16.224,0,0,1,18.272-5.856l.123.041-.022,4.172-3.632,6.668-.142-.046a4.782,4.782,0,0,0-1.417-.236A4.855,4.855,0,0,0-289.675,60a4.855,4.855,0,0,0,4.851,4.85,4.793,4.793,0,0,0,1.414-.235l.142-.047Zm-5.21-8.124a3.2,3.2,0,0,1-3.2-3.2,3.2,3.2,0,0,1,3.2-3.2,3.2,3.2,0,0,1,3.2,3.2A3.206,3.206,0,0,1-284.824,63.2Z" fill="#fff"/>
    </g>
  </g>
</svg>
