<svg xmlns="http://www.w3.org/2000/svg" xmlns:xlink="http://www.w3.org/1999/xlink" width="899.254" height="534.098" viewBox="0 0 899.254 534.098">
  <defs>
    <radialGradient id="radial-gradient" cx="0.5" cy="0.5" r="0.698" gradientTransform="translate(0.206) scale(0.587 1)" gradientUnits="objectBoundingBox">
      <stop offset="0" stop-color="#e84f3f"/>
      <stop offset="0.035" stop-color="#e74d3d"/>
      <stop offset="0.541" stop-color="#e64230"/>
      <stop offset="1" stop-color="#e63e2c"/>
    </radialGradient>
    <linearGradient id="linear-gradient" x1="-30.41" y1="0.5" x2="-29.41" y2="0.5" gradientUnits="objectBoundingBox">
      <stop offset="0" stop-color="#f9cdc8"/>
      <stop offset="0.321" stop-color="#f9d1cc"/>
      <stop offset="0.698" stop-color="#fbdedb"/>
      <stop offset="1" stop-color="#fdeeec"/>
    </linearGradient>
    <linearGradient id="linear-gradient-2" x1="-181.923" y1="0.5" x2="-180.923" y2="0.5" gradientUnits="objectBoundingBox">
      <stop offset="0" stop-color="#ee7e72"/>
      <stop offset="0.195" stop-color="#ee8276"/>
      <stop offset="0.425" stop-color="#f08f85"/>
      <stop offset="0.672" stop-color="#f3a59c"/>
      <stop offset="0.931" stop-color="#f7c3bd"/>
      <stop offset="1" stop-color="#f9cdc8"/>
    </linearGradient>
    <linearGradient id="linear-gradient-3" x1="-21.05" y1="0.5" x2="-20.05" y2="0.5" xlink:href="#linear-gradient-2"/>
    <linearGradient id="linear-gradient-4" x1="-21.483" y1="0.5" x2="-20.01" y2="0.5" xlink:href="#linear-gradient"/>
    <clipPath id="clip-path">
      <path id="Path_7285" data-name="Path 7285" d="M906.421,549.442l-228.736-132-28.739,170.87L877.534,720.227Z" fill="none"/>
    </clipPath>
    <linearGradient id="linear-gradient-5" x1="-21.819" y1="0.5" x2="-20.819" y2="0.5" xlink:href="#linear-gradient-2"/>
    <linearGradient id="linear-gradient-6" x1="-21.471" y1="0.5" x2="-20.471" y2="0.5" xlink:href="#linear-gradient"/>
    <linearGradient id="linear-gradient-7" x1="3.563" y1="0.267" x2="4.307" y2="0.739" gradientUnits="objectBoundingBox">
      <stop offset="0" stop-color="#b4bcc0"/>
      <stop offset="0.152" stop-color="#808d94"/>
      <stop offset="0.503" stop-color="#0e2634"/>
      <stop offset="0.507" stop-color="#0f2735"/>
      <stop offset="0.682" stop-color="#556670"/>
      <stop offset="0.829" stop-color="#88949b"/>
      <stop offset="0.939" stop-color="#a8b1b6"/>
      <stop offset="1" stop-color="#b4bcc0"/>
    </linearGradient>
  </defs>
  <g id="Custom_Sofware_Development_Services_Image" data-name="Custom Sofware Development Services Image" transform="translate(-129.503 -411.736)">
    <path id="Path_7196" data-name="Path 7196" d="M1028.757,484.756l-24.924,14.39,0,46.365-221.4,127.823-16.824-9.712,114.206-65.938V585.9l20.247-11.691V547.094l39.266-22.67a6.658,6.658,0,0,0,5.436-.245c1.645-.95,1.645-2.489,0-3.438a6.577,6.577,0,0,0-5.955,0c-1.483.856-1.615,2.188-.424,3.138L899.119,546.55v27.112l-19.3,11.145V541.392l-.236-.136-11.159-6.442,66.949-38.654V452.692l47.561-27.459a6.655,6.655,0,0,0,5.436-.244c1.644-.95,1.644-2.489,0-3.439a6.581,6.581,0,0,0-5.955,0c-1.483.856-1.616,2.188-.424,3.138l-47.561,27.459v43.468l-66.949,38.653L758.634,471.428V422.8a5.828,5.828,0,0,0,2.507-.686c1.644-.949,1.644-2.488,0-3.438a6.584,6.584,0,0,0-5.955,0c-1.645.95-1.645,2.489,0,3.438a5.819,5.819,0,0,0,2.505.686v49.168l.235.137,65.469,37.8H775.684L737.1,487.633c1.191-.95,1.058-2.282-.424-3.138a6.578,6.578,0,0,0-5.955,0c-1.645.949-1.645,2.489,0,3.438a6.661,6.661,0,0,0,5.437.245l39.269,22.672h49.575v-.012l53.866,31.1v55.2L764.664,663.076l-15.314-8.841,80.82-46.662a6.658,6.658,0,0,0,5.436-.245c1.645-.949,1.645-2.489,0-3.438a6.578,6.578,0,0,0-5.955,0c-1.483.856-1.615,2.188-.424,3.138L748.406,653.69l-14.786-8.536L830.3,589.337h26.275a2.422,2.422,0,0,0,1.152,1.248,6.584,6.584,0,0,0,5.955,0c1.645-.95,1.645-2.49,0-3.439a6.584,6.584,0,0,0-5.955,0,2.419,2.419,0,0,0-1.152,1.248H830.045l-.109.063-97.26,56.152-5.968-3.446-.236.135-4.357,2.516-23.164-13.373v-18.61l19.138-11.049v.05h30.029l33.06-19.088a6.658,6.658,0,0,0,5.436-.244c1.645-.95,1.645-2.489,0-3.438a6.578,6.578,0,0,0-5.955,0c-1.483.856-1.615,2.188-.424,3.138l-32.37,18.689H719.637l56.257-32.48a6.639,6.639,0,0,0,5.553-.19c1.645-.95,1.645-2.489,0-3.438a6.578,6.578,0,0,0-5.955,0c-1.446.835-1.617,2.126-.519,3.071L704.8,607.365v-8.956l41.75-24.1V557.287l33.992-19.625a6.658,6.658,0,0,0,5.436-.245c1.645-.949,1.645-2.489,0-3.438a6.578,6.578,0,0,0-5.955,0c-1.483.856-1.615,2.188-.424,3.138l-33.992,19.626v17.018l-41.75,24.1v10.044l-5.848,3.377v19.7L721.17,644.36l-15.219,8.786-47.663-27.519V594.345l32.364-18.685a6.638,6.638,0,0,0,5.553-.19c1.645-.949,1.645-2.488,0-3.438a6.584,6.584,0,0,0-5.955,0c-1.447.836-1.618,2.126-.52,3.071l-31.443,18.153V567.985l24.841-14.342V506.105a5.852,5.852,0,0,0,2.506-.686c1.645-.95,1.645-2.489,0-3.438a6.578,6.578,0,0,0-5.955,0c-1.644.949-1.644,2.488,0,3.438a5.851,5.851,0,0,0,2.506.686V553.1l-23.9,13.8,0-83.825h-.943l0,143.1,47.661,27.519-17.091,9.867L625.62,627.592l0-85.656-29.944-17.29V492.427l-26.44-15.266c1.191-.951,1.059-2.282-.424-3.139a6.584,6.584,0,0,0-5.955,0c-1.645.95-1.645,2.489,0,3.439a6.658,6.658,0,0,0,5.436.244l26.44,15.265v32.22l29.945,17.289,0,85.659L686.971,664.1,674.3,671.418,590.23,622.877l0-73.083-.236-.137-74.419-42.964c1.192-.95,1.06-2.283-.423-3.139a6.584,6.584,0,0,0-5.955,0c-1.644.949-1.644,2.488,0,3.438a6.662,6.662,0,0,0,5.436.245l74.654,43.1,0,73.085.236.136,83.836,48.4-20.53,11.853L512.95,603.057V566.69l-.237-.136-117.1-67.611c1.192-.95,1.06-2.282-.424-3.138a6.576,6.576,0,0,0-5.954,0c-1.645.949-1.645,2.489,0,3.438a6.658,6.658,0,0,0,5.436.245l117.341,67.746V603.6l.237.136,78.439,45.288-62.22,0L456.432,607.44c1.192-.95,1.06-2.282-.423-3.138a6.578,6.578,0,0,0-5.955,0c-1.645.949-1.645,2.488,0,3.438a6.654,6.654,0,0,0,5.436.244l72.72,41.986,64.107,0,59.568,34.393-23.862,13.776-51.2-29.562H494.6l-93.51-53.988H349.218l-21.149-12.211c1.191-.95,1.059-2.282-.424-3.138a6.578,6.578,0,0,0-5.955,0c-1.645.949-1.645,2.488,0,3.438a6.662,6.662,0,0,0,5.436.245l21.839,12.609h51.876L471.5,656.325H410.469l-29.392-16.969c1.191-.951,1.059-2.282-.424-3.139a6.584,6.584,0,0,0-5.955,0c-1.645.95-1.645,2.489,0,3.439a6.656,6.656,0,0,0,5.435.244l30.083,17.368h62.918l21.217,12.25h82.216l14.328,8.273H555.943l-.11.062L538.3,687.975l-73.048,0-20.606-11.9H403.327a2.425,2.425,0,0,0-1.152-1.247,6.584,6.584,0,0,0-5.955,0c-1.645.949-1.645,2.489,0,3.438a6.584,6.584,0,0,0,5.955,0,2.418,2.418,0,0,0,1.152-1.248h41.068L465,688.92l71.667,0-19.738,11.4a6.661,6.661,0,0,0-5.437.244c-1.644.95-1.644,2.489,0,3.438a6.578,6.578,0,0,0,5.955,0c1.483-.856,1.616-2.187.425-3.137L556.2,678.734h36.332l34.551,19.948-12.767,7.371.708.409,7.507,4.335H598.646l-31.22-18.025c1.191-.951,1.058-2.283-.425-3.139a6.584,6.584,0,0,0-5.955,0c-1.644.95-1.644,2.489,0,3.438a6.66,6.66,0,0,0,5.435.246l31.912,18.423H624.16l17.475,10.089-10.747,6.2H611.829l-.109.062-16.649,9.612h-12.5l-28.241-16.3c1.266-.953,1.162-2.319-.35-3.191a6.578,6.578,0,0,0-5.955,0c-1.644.949-1.644,2.488,0,3.438a6.678,6.678,0,0,0,5.344.288l28.949,16.713h13.01l.109-.062,16.649-9.612h17.173L594.9,748.809H576.356l-38.665-22.322h-116.6l-72.321-41.754c1.252-.953,1.143-2.312-.363-3.181a6.578,6.578,0,0,0-5.955,0c-1.645.949-1.645,2.488,0,3.438a6.67,6.67,0,0,0,5.361.28l73.025,42.16h116.6L576.1,749.752h19.054l.109-.063,47.313-27.315,12.412,7.165L601.53,760.406H563.824l-31.11-17.961-79.84,0a2.418,2.418,0,0,0-1.152-1.248,6.584,6.584,0,0,0-5.955,0c-1.645.949-1.645,2.489,0,3.438a6.578,6.578,0,0,0,5.955,0,2.421,2.421,0,0,0,1.152-1.247l79.587,0,29.474,17.018h-112.5l-.109.063-107.215,61.9a6.654,6.654,0,0,0-5.436.245c-1.645.949-1.645,2.488,0,3.438a6.584,6.584,0,0,0,5.955,0c1.482-.856,1.615-2.188.425-3.138l106.633-61.567h152.1l.109-.062,54.043-31.2,14.1,8.141-74.55,43.043H464.218l-.109.062L349.159,847.7l-133.934,0-78.108-45.1c1.19-.95,1.057-2.281-.425-3.137a6.584,6.584,0,0,0-5.955,0c-1.645.949-1.645,2.489,0,3.438a6.659,6.659,0,0,0,5.436.245l78.8,45.495,134.44,0,.11-.062,114.949-66.367H560.09l-140.4,81.062,0,21.339-56.007,32.335a6.656,6.656,0,0,0-5.435.245c-1.644.95-1.644,2.489,0,3.438a6.578,6.578,0,0,0,5.955,0c1.483-.856,1.616-2.188.424-3.139l56.006-32.334,0-21.339,141.35-81.607H594.8L524.117,823.02v8.994L490.3,851.542a6.654,6.654,0,0,0-5.436.245c-1.645.949-1.645,2.488,0,3.438a6.584,6.584,0,0,0,5.955,0c1.483-.856,1.615-2.188.424-3.138l18.415-10.632V866.1L403.265,927.525a6.656,6.656,0,0,0-5.435.245c-1.645.949-1.645,2.488,0,3.438a6.584,6.584,0,0,0,5.955,0c1.483-.856,1.615-2.188.424-3.138L510.6,866.647V840.91l14.463-8.35v-8.994l71.262-41.144-.236-.409,74.9-43.242,13.614,7.86-76.937,44.42v73.085l-141.506,81.7h1.888L585.2,878.193l0,66.1-2.669,1.541h1.888l1.724-1,0-67.189,22.46-12.967V791.6l76.938-44.421,11.987,6.921L638.2,788.349v40.065l.236.137,67.454,38.943V881.08L667.739,903.1a6.658,6.658,0,0,0-5.434.246c-1.645.949-1.645,2.488,0,3.438a6.584,6.584,0,0,0,5.955,0c1.483-.857,1.616-2.188.425-3.139l38.146-22.023V866.949l-.236-.136-67.454-38.944V788.894l44.826-25.879v16.69l-20.55,11.864a6.66,6.66,0,0,0-5.435.246c-1.645.949-1.645,2.488,0,3.438a6.581,6.581,0,0,0,5.955,0c1.482-.856,1.615-2.187.424-3.137L684.91,780.25V762.47l13.559-7.828L714.5,763.9v29.068l-30.24,17.459v20.1l.235.136,63.658,36.753c-1.191.95-1.058,2.282.425,3.138a6.584,6.584,0,0,0,5.955,0c1.644-.95,1.644-2.489,0-3.438a6.656,6.656,0,0,0-5.435-.245l-63.9-36.89V810.969l29.3-16.913v20.035l39.182,22.622c-1.19.951-1.057,2.283.426,3.138a6.579,6.579,0,0,0,5.954,0c1.645-.949,1.645-2.488,0-3.438a6.656,6.656,0,0,0-5.437-.244l-39.183-22.624,0-49.1,11.26,6.5.236-.135,18.318-10.576,16.8,9.7v23.577L806.725,819.3V841.52a5.852,5.852,0,0,0-2.506.686c-1.644.95-1.644,2.489,0,3.438a6.577,6.577,0,0,0,5.955,0c1.645-.949,1.645-2.488,0-3.438a5.852,5.852,0,0,0-2.506-.686V818.75l-44.662-25.785V770.479l72.3,41.744v44.249l-39.214,22.64H760.109l-.109.062-61.749,35.652a6.658,6.658,0,0,0-5.436.245c-1.644.949-1.644,2.488,0,3.438a6.584,6.584,0,0,0,5.955,0c1.483-.856,1.616-2.187.425-3.138l61.167-35.316h34.1L681.024,945.548a6.658,6.658,0,0,0-5.436.245c-.022.013-.037.028-.058.041h6.888l153.833-88.817v-45.34l-.235-.136L746.2,759.687l18.075-10.436,153.343,88.533v52.827L970,920.856c-1.191.95-1.058,2.281.425,3.137a6.578,6.578,0,0,0,5.955,0c1.644-.949,1.644-2.488,0-3.438a6.662,6.662,0,0,0-5.436-.245l-52.384-30.244V837.239l-.236-.137-153.106-88.4,17.208-9.935,151.647,87.552h90.435l4.245,2.45v-1.089l-3.992-2.3H934.33L806.318,751.472h25.746L875.755,776.7h33.654l.11-.062,46.675-26.948a6.656,6.656,0,0,0,5.435-.245c1.645-.949,1.645-2.488,0-3.438a6.584,6.584,0,0,0-5.955,0c-1.483.856-1.616,2.187-.425,3.138l-46.094,26.612H876.008l-43.691-25.224H804.685l-21.31-12.3,45.935-26.521,13.062,7.541v19.8L875.553,758.2c-1.19.95-1.057,2.281.425,3.137a6.577,6.577,0,0,0,5.955,0c1.644-.949,1.644-2.488,0-3.438a6.658,6.658,0,0,0-5.436-.245L843.315,738.5v-18.7l35.386,20.43h16.757l.109-.063,19.979-11.534a6.656,6.656,0,0,0,5.435-.245c1.644-.949,1.644-2.489,0-3.438a6.578,6.578,0,0,0-5.955,0c-1.483.856-1.616,2.188-.424,3.138l-19.4,11.2H878.955l-48.7-28.119,8.846-5.107-.707-.41L810.866,689.75l13.221-7.634H844.08l14.306,8.261c-1.14.948-.986,2.257.476,3.1a6.58,6.58,0,0,0,5.956,0c1.644-.949,1.644-2.488,0-3.438a6.65,6.65,0,0,0-5.5-.215l-14.986-8.652H825.721l33.713-19.464,79.329,45.8h57.081l.109-.063,32.139-18.555a5.89,5.89,0,0,0,.665.185v-4.339a4.964,4.964,0,0,0-1.184.471c-1.483.856-1.616,2.187-.425,3.137l-31.557,18.221H939.016l-61.18-35.323h26.185l25.6,14.78c-1.192.95-1.059,2.282.424,3.138a6.584,6.584,0,0,0,5.955,0c1.644-.95,1.644-2.489,0-3.438a6.66,6.66,0,0,0-5.435-.246L904.274,670.3l-28.071,0-15.824-9.136,40.273-23.252,128.1,0v-.943l-126.472,0,15.976-9.224h95.28l.109-.063,15.107-8.722V617.87l-15.469,8.93-95.28,0-.109.063-107.977,62.34-11.987-6.92,113.521-65.541,83.021,0,.11-.062,34.17-19.728v-1.09L994.224,615.8l-83.021,0-.109.062-114.1,65.876-13.615-7.86,221.4-127.825,0-46.364,23.981-13.845Zm-191.542,221.3-110.51,63.8L616.2,706.053l110.51-63.8Z" opacity="0.8" fill="url(#radial-gradient)"/>
    <g id="Group_1799" data-name="Group 1799">
      <g id="Group_1796" data-name="Group 1796" opacity="0.67">
        <path id="Path_7197" data-name="Path 7197" d="M698.421,890.173,414.443,726.217l283.97-163.95L982.392,726.222Z" fill="#132a38"/>
      </g>
      <g id="Group_1797" data-name="Group 1797" opacity="0.67">
        <path id="Path_7198" data-name="Path 7198" d="M698.421,864.746,458.483,726.218l239.93-138.524L938.351,726.222Z" fill="#132a38"/>
      </g>
      <g id="Group_1798" data-name="Group 1798" opacity="0.9">
        <path id="Path_7199" data-name="Path 7199" d="M698.42,835.2,509.655,726.218l188.759-108.98L887.179,726.221Z" fill="#0e2634"/>
      </g>
    </g>
    <g id="Group_1817" data-name="Group 1817">
      <g id="Group_1816" data-name="Group 1816">
        <path id="Path_7200" data-name="Path 7200" d="M737.263,838.728a10.448,10.448,0,0,1-5.106-1.29L506.806,707.331a4.2,4.2,0,0,1-2.443-3.419,3.256,3.256,0,0,1,1.844-2.786l134.475-77.639c2.392-1.382,6.406-1.229,9.138.345L875.172,753.94a4.2,4.2,0,0,1,2.443,3.417,3.254,3.254,0,0,1-1.845,2.787L741.295,837.783A8.2,8.2,0,0,1,737.263,838.728ZM507.61,705.938,732.962,836.045c2.2,1.274,5.65,1.429,7.528.345l134.477-77.64a1.765,1.765,0,0,0,1.04-1.393c0-.675-.613-1.433-1.638-2.024L649.017,625.225c-2.205-1.272-5.655-1.429-7.53-.345L507.011,702.519a1.773,1.773,0,0,0-1.04,1.393c0,.677.612,1.435,1.639,2.026Z" fill="#b4bcc0"/>
        <g id="Group_1813" data-name="Group 1813">
          <g id="Group_1811" data-name="Group 1811">
            <g id="Group_1809" data-name="Group 1809">
              <g id="Group_1803" data-name="Group 1803">
                <g id="Group_1801" data-name="Group 1801">
                  <path id="Path_7201" data-name="Path 7201" d="M649.737,583.966l28.487-169.008-2.291-.964,3.442-1.973-.006.02a2.476,2.476,0,0,1,2.653.183L909.689,543.667a6.431,6.431,0,0,1,2.956,5.783L883.931,719.8a2.133,2.133,0,0,1-1.2,1.733l0,0-3.368,1.945-.578-3.144.192.059L652.693,589.749A6.428,6.428,0,0,1,649.737,583.966Z" fill="url(#linear-gradient)"/>
                  <path id="Path_7202" data-name="Path 7202" d="M908.42,548.289l3.743-1.656a5.151,5.151,0,0,1,.482,2.817L883.931,719.8a2.136,2.136,0,0,1-1.2,1.734h0l-3.368,1.945-.578-3.144.192.059-11.451-6.611Z" fill="url(#linear-gradient-2)"/>
                  <path id="Path_7203" data-name="Path 7203" d="M649.121,591.8,876.788,723.242c1.758,1.014,3.263.428,3.572-1.391L909.073,551.5a6.431,6.431,0,0,0-2.956-5.783L678.45,414.273c-1.758-1.015-3.263-.429-3.572,1.391L646.165,586.015A6.43,6.43,0,0,0,649.121,591.8Z" fill="#e63e2c"/>
                  <g id="Group_1800" data-name="Group 1800" opacity="0.51">
                    <path id="Path_7204" data-name="Path 7204" d="M677.685,417.442l228.736,132L877.534,720.227,648.946,588.312Z" fill="#eb6152"/>
                  </g>
                </g>
                <g id="Group_1802" data-name="Group 1802">
                  <path id="Path_7205" data-name="Path 7205" d="M506.01,672.449l12.424,6.489,124.585-71.929c2.084-1.2,5.725-1.053,8.132.337L866.024,731.4c2.057-1.15,11.432-5.658,11.432-5.658l-4.548,7.392-.018-.015a2.709,2.709,0,0,1-1.272,1.411L740.405,810.288c-2.084,1.2-5.725,1.053-8.132-.337L512.39,683a3.936,3.936,0,0,1-1.845-1.962l-.017.011Z" fill="url(#linear-gradient-3)"/>
                  <path id="Path_7206" data-name="Path 7206" d="M507.931,674.492,733.282,804.6c2.467,1.424,6.2,1.579,8.334.346L876.092,727.3c2.136-1.233,1.868-3.387-.6-4.812L650.142,592.386c-2.466-1.424-6.2-1.579-8.334-.346L507.332,669.68C505.2,670.913,505.464,673.067,507.931,674.492Z" fill="url(#linear-gradient-4)"/>
                  <path id="Path_7207" data-name="Path 7207" d="M507.931,673.482,733.282,803.589c2.467,1.424,6.2,1.579,8.334.345l134.476-77.639a2.714,2.714,0,0,0,1.355-1.576,2.3,2.3,0,0,1-1.355,2.585l-134.476,77.64c-2.136,1.233-5.867,1.078-8.334-.346L507.931,674.492c-1.6-.923-2.257-2.15-1.953-3.237A3.812,3.812,0,0,0,507.931,673.482Z" fill="#fff"/>
                </g>
              </g>
              <g id="Group_1808" data-name="Group 1808" opacity="0.15">
                <g id="Group_1807" data-name="Group 1807" clip-path="url(#clip-path)">
                  <g id="Group_1806" data-name="Group 1806">
                    <g id="Group_1804" data-name="Group 1804">
                      <path id="Path_7208" data-name="Path 7208" d="M648.843,590.7l12.424,6.489,124.585-71.929c2.084-1.2,5.725-1.052,8.131.337l214.874,124.058c2.056-1.151,11.431-5.659,11.431-5.659l-4.548,7.392-.018-.014a2.708,2.708,0,0,1-1.271,1.41L883.238,728.541c-2.084,1.2-5.725,1.052-8.132-.337L655.223,601.254a3.935,3.935,0,0,1-1.845-1.961l-.017.011Z" fill="url(#linear-gradient-5)"/>
                      <path id="Path_7209" data-name="Path 7209" d="M650.763,592.744,876.115,722.851c2.466,1.424,6.2,1.578,8.334.345l134.476-77.639c2.136-1.234,1.868-3.388-.6-4.812L792.975,510.638c-2.467-1.424-6.2-1.579-8.334-.345L650.165,587.932C648.029,589.166,648.3,591.32,650.763,592.744Z" fill="url(#linear-gradient-6)"/>
                      <path id="Path_7210" data-name="Path 7210" d="M1018.326,640.745,792.975,510.638a9.829,9.829,0,0,0-5.569-1.132,9.411,9.411,0,0,1,3.909,1.132l225.351,130.107c2.467,1.424,2.735,3.578.6,4.812L882.789,723.2a6.8,6.8,0,0,1-2.766.787,7.882,7.882,0,0,0,4.426-.787l134.476-77.639C1021.061,644.323,1020.793,642.169,1018.326,640.745Z" fill="#fff"/>
                    </g>
                    <g id="Group_1805" data-name="Group 1805" opacity="0.5">
                      <path id="Path_7211" data-name="Path 7211" d="M768.8,570.346l-7.223-4.17a2.415,2.415,0,0,0-2.192.06l-8.029,4.691c-.63.368-.671.938-.091,1.273l7.223,4.171a2.416,2.416,0,0,0,2.192-.061l8.028-4.691C769.342,571.251,769.383,570.681,768.8,570.346Z" fill="#e63e2c"/>
                      <path id="Path_7212" data-name="Path 7212" d="M779.958,576.787l-7.223-4.171a2.413,2.413,0,0,0-2.192.061l-8.028,4.69c-.631.369-.672.939-.092,1.274l7.223,4.17a2.413,2.413,0,0,0,2.192-.061l8.029-4.69C780.5,577.692,780.538,577.121,779.958,576.787Z" fill="#e63e2c"/>
                      <path id="Path_7213" data-name="Path 7213" d="M791.114,583.227l-7.224-4.17a2.416,2.416,0,0,0-2.192.06l-8.028,4.691c-.631.368-.672.938-.092,1.273l7.224,4.171a2.419,2.419,0,0,0,2.192-.061l8.028-4.691C791.653,584.132,791.694,583.562,791.114,583.227Z" fill="#e63e2c"/>
                      <path id="Path_7214" data-name="Path 7214" d="M782.621,591.8l-7.224-4.17a2.415,2.415,0,0,0-2.192.06l-6.739,3.938c-.631.368-.672.938-.092,1.273l7.224,4.171a2.419,2.419,0,0,0,2.192-.061l6.739-3.938C783.16,592.7,783.2,592.134,782.621,591.8Z" fill="#e63e2c"/>
                      <path id="Path_7215" data-name="Path 7215" d="M793.776,598.24l-7.223-4.171a2.416,2.416,0,0,0-2.192.061l-6.74,3.937c-.63.369-.671.939-.091,1.274l7.223,4.17a2.413,2.413,0,0,0,2.192-.061l6.739-3.937C794.315,599.145,794.356,598.574,793.776,598.24Z" fill="#e63e2c"/>
                      <path id="Path_7216" data-name="Path 7216" d="M804.931,604.68l-7.223-4.17a2.416,2.416,0,0,0-2.192.06l-6.739,3.938c-.631.368-.672.938-.092,1.273l7.223,4.171a2.421,2.421,0,0,0,2.193-.061l6.739-3.938C805.47,605.585,805.511,605.015,804.931,604.68Z" fill="#e63e2c"/>
                      <path id="Path_7217" data-name="Path 7217" d="M816.087,611.121l-7.224-4.171a2.413,2.413,0,0,0-2.192.061l-6.739,3.937c-.631.369-.672.939-.092,1.274l7.224,4.17a2.413,2.413,0,0,0,2.192-.061l6.739-3.937C816.626,612.026,816.667,611.455,816.087,611.121Z" fill="#e63e2c"/>
                      <path id="Path_7218" data-name="Path 7218" d="M827.242,617.561l-7.223-4.17a2.415,2.415,0,0,0-2.193.061l-6.739,3.937c-.63.368-.671.938-.091,1.273l7.223,4.171a2.419,2.419,0,0,0,2.192-.061l6.739-3.937C827.781,618.466,827.822,617.9,827.242,617.561Z" fill="#e63e2c"/>
                      <path id="Path_7219" data-name="Path 7219" d="M838.4,624l-7.223-4.171a2.416,2.416,0,0,0-2.192.061l-6.739,3.937c-.631.369-.672.939-.092,1.274l7.223,4.17a2.413,2.413,0,0,0,2.192-.061l6.74-3.937C838.936,624.907,838.977,624.337,838.4,624Z" fill="#e63e2c"/>
                      <path id="Path_7220" data-name="Path 7220" d="M849.553,630.442l-7.224-4.17a2.416,2.416,0,0,0-2.192.06L833.4,630.27c-.631.368-.672.938-.092,1.273l7.224,4.171a2.416,2.416,0,0,0,2.192-.061l6.739-3.937C850.092,631.347,850.133,630.777,849.553,630.442Z" fill="#e63e2c"/>
                      <path id="Path_7221" data-name="Path 7221" d="M860.708,636.883l-7.224-4.171a2.416,2.416,0,0,0-2.192.061l-6.739,3.937c-.63.369-.671.939-.092,1.274l7.224,4.17a2.413,2.413,0,0,0,2.192-.061l6.739-3.937C861.247,637.788,861.288,637.218,860.708,636.883Z" fill="#e63e2c"/>
                      <path id="Path_7222" data-name="Path 7222" d="M871.863,643.323l-7.223-4.17a2.413,2.413,0,0,0-2.192.061l-6.74,3.937c-.63.368-.671.938-.091,1.273l7.223,4.171a2.416,2.416,0,0,0,2.192-.061l6.74-3.937C872.4,644.228,872.443,643.658,871.863,643.323Z" fill="#e63e2c"/>
                      <path id="Path_7223" data-name="Path 7223" d="M883.019,649.764l-7.224-4.171a2.416,2.416,0,0,0-2.192.061l-6.739,3.937c-.631.369-.672.939-.092,1.274l7.224,4.17a2.416,2.416,0,0,0,2.192-.06l6.739-3.938C883.557,650.669,883.6,650.1,883.019,649.764Z" fill="#e63e2c"/>
                      <path id="Path_7224" data-name="Path 7224" d="M777.974,600.993l-7.224-4.17a2.416,2.416,0,0,0-2.192.06l-6.739,3.938c-.631.368-.672.938-.092,1.273l7.224,4.17a2.416,2.416,0,0,0,2.192-.06l6.739-3.938C778.513,601.9,778.554,601.328,777.974,600.993Z" fill="#e63e2c"/>
                      <path id="Path_7225" data-name="Path 7225" d="M766.652,594.456l-7.224-4.17a2.413,2.413,0,0,0-2.192.061l-6.739,3.937c-.631.368-.672.938-.092,1.273l7.224,4.171a2.416,2.416,0,0,0,2.192-.061l6.739-3.937C767.191,595.361,767.232,594.791,766.652,594.456Z" fill="#e63e2c"/>
                      <path id="Path_7226" data-name="Path 7226" d="M755.312,587.909l-15.558-8.982a2.413,2.413,0,0,0-2.192.061l-6.739,3.937c-.631.368-.672.938-.092,1.273l15.558,8.982a2.416,2.416,0,0,0,2.192-.06l6.739-3.938C755.85,588.814,755.892,588.244,755.312,587.909Z" fill="#e63e2c"/>
                      <path id="Path_7227" data-name="Path 7227" d="M742.155,592.19l-12.626-7.29a2.419,2.419,0,0,0-2.192.061L720.6,588.9c-.631.368-.672.938-.092,1.273l12.626,7.289a2.413,2.413,0,0,0,2.192-.061l6.739-3.937C742.694,593.095,742.735,592.525,742.155,592.19Z" fill="#e63e2c"/>
                      <path id="Path_7228" data-name="Path 7228" d="M789.129,607.434l-7.224-4.171a2.411,2.411,0,0,0-2.191.061l-6.74,3.937c-.63.369-.671.939-.091,1.273l7.223,4.171a2.413,2.413,0,0,0,2.192-.061l6.739-3.937C789.668,608.338,789.709,607.768,789.129,607.434Z" fill="#e63e2c"/>
                      <path id="Path_7229" data-name="Path 7229" d="M800.284,613.874l-7.223-4.17a2.416,2.416,0,0,0-2.192.06L784.13,613.7c-.631.368-.672.938-.092,1.273l7.223,4.17a2.416,2.416,0,0,0,2.192-.06l6.74-3.938C800.823,614.779,800.864,614.209,800.284,613.874Z" fill="#e63e2c"/>
                      <path id="Path_7230" data-name="Path 7230" d="M811.44,620.315l-7.224-4.171a2.413,2.413,0,0,0-2.192.061l-6.739,3.937c-.631.369-.672.939-.092,1.274l7.224,4.17a2.413,2.413,0,0,0,2.192-.061l6.739-3.937C811.979,621.22,812.02,620.649,811.44,620.315Z" fill="#e63e2c"/>
                      <path id="Path_7231" data-name="Path 7231" d="M822.595,626.755l-7.224-4.17a2.415,2.415,0,0,0-2.192.06l-6.739,3.938c-.63.368-.672.938-.091,1.273l7.223,4.171a2.419,2.419,0,0,0,2.192-.061l6.739-3.938C823.134,627.66,823.175,627.09,822.595,626.755Z" fill="#e63e2c"/>
                      <path id="Path_7232" data-name="Path 7232" d="M833.75,633.2l-7.223-4.171a2.413,2.413,0,0,0-2.192.061l-6.74,3.937c-.63.369-.671.939-.091,1.273l7.223,4.171a2.413,2.413,0,0,0,2.192-.061l6.74-3.937C834.289,634.1,834.33,633.53,833.75,633.2Z" fill="#e63e2c"/>
                      <path id="Path_7233" data-name="Path 7233" d="M844.905,639.636l-7.223-4.17a2.416,2.416,0,0,0-2.192.06l-6.739,3.938c-.631.368-.672.938-.092,1.273l7.224,4.171a2.419,2.419,0,0,0,2.192-.061l6.739-3.937C845.445,640.541,845.486,639.971,844.905,639.636Z" fill="#e63e2c"/>
                      <path id="Path_7234" data-name="Path 7234" d="M856.061,646.077l-7.224-4.171a2.413,2.413,0,0,0-2.192.061l-6.739,3.937c-.631.369-.672.939-.092,1.274l7.224,4.17a2.413,2.413,0,0,0,2.192-.061l6.739-3.937C856.6,646.982,856.641,646.412,856.061,646.077Z" fill="#e63e2c"/>
                      <path id="Path_7235" data-name="Path 7235" d="M867.216,652.517l-7.223-4.17a2.416,2.416,0,0,0-2.192.06l-6.74,3.938c-.63.368-.671.938-.091,1.273l7.223,4.171a2.416,2.416,0,0,0,2.192-.061l6.739-3.937C867.755,653.422,867.8,652.852,867.216,652.517Z" fill="#e63e2c"/>
                      <path id="Path_7236" data-name="Path 7236" d="M878.371,658.958l-7.223-4.171a2.416,2.416,0,0,0-2.192.061l-6.739,3.937c-.631.369-.672.939-.092,1.274l7.224,4.17a2.411,2.411,0,0,0,2.191-.061l6.74-3.937C878.91,659.863,878.951,659.292,878.371,658.958Z" fill="#e63e2c"/>
                      <path id="Path_7237" data-name="Path 7237" d="M898.2,670.408l-15.761-9.1a2.413,2.413,0,0,0-2.192.061l-6.739,3.937c-.631.368-.672.938-.092,1.273l15.761,9.1a2.413,2.413,0,0,0,2.192-.061l6.739-3.937C898.742,671.312,898.783,670.742,898.2,670.408Z" fill="#e63e2c"/>
                      <path id="Path_7238" data-name="Path 7238" d="M877.753,682.355l-13.3-7.681a2.416,2.416,0,0,0-2.192.061l-6.74,3.937c-.63.369-.671.939-.091,1.274l13.3,7.68a2.413,2.413,0,0,0,2.192-.061l6.739-3.937C878.293,683.26,878.334,682.69,877.753,682.355Z" fill="#e63e2c"/>
                      <path id="Path_7239" data-name="Path 7239" d="M787.581,618.416l-7.224-4.17a2.413,2.413,0,0,0-2.192.061l-6.739,3.937c-.631.368-.672.938-.092,1.273l7.224,4.171a2.413,2.413,0,0,0,2.192-.061l6.739-3.937C788.12,619.321,788.16,618.751,787.581,618.416Z" fill="#e63e2c"/>
                      <path id="Path_7240" data-name="Path 7240" d="M776.148,611.816l-7.224-4.171a2.416,2.416,0,0,0-2.192.061l-6.739,3.937c-.631.369-.672.939-.092,1.274l7.224,4.17a2.413,2.413,0,0,0,2.192-.061l6.739-3.937C776.687,612.721,776.728,612.15,776.148,611.816Z" fill="#e63e2c"/>
                      <path id="Path_7241" data-name="Path 7241" d="M764.715,605.215l-7.224-4.17a2.414,2.414,0,0,0-2.191.06l-6.74,3.937c-.63.369-.672.939-.091,1.274l7.223,4.17a2.416,2.416,0,0,0,2.192-.06l6.739-3.938C765.254,606.12,765.295,605.55,764.715,605.215Z" fill="#e63e2c"/>
                      <path id="Path_7242" data-name="Path 7242" d="M753.282,598.614l-7.223-4.17a2.416,2.416,0,0,0-2.192.06l-6.74,3.938c-.63.368-.671.938-.091,1.273l7.223,4.171a2.416,2.416,0,0,0,2.192-.061l6.739-3.937C753.821,599.519,753.862,598.949,753.282,598.614Z" fill="#e63e2c"/>
                      <path id="Path_7243" data-name="Path 7243" d="M798.736,624.857l-7.224-4.171a2.419,2.419,0,0,0-2.192.061l-6.739,3.937c-.631.369-.672.939-.092,1.274l7.224,4.17a2.416,2.416,0,0,0,2.192-.06l6.739-3.938C799.275,625.762,799.316,625.192,798.736,624.857Z" fill="#e63e2c"/>
                      <path id="Path_7244" data-name="Path 7244" d="M809.891,631.3l-7.223-4.17a2.413,2.413,0,0,0-2.192.061l-6.74,3.937c-.63.368-.671.939-.091,1.273l7.223,4.171a2.413,2.413,0,0,0,2.192-.061l6.74-3.937C810.43,632.2,810.471,631.632,809.891,631.3Z" fill="#e63e2c"/>
                      <path id="Path_7245" data-name="Path 7245" d="M821.046,637.738l-7.223-4.171a2.419,2.419,0,0,0-2.192.061l-6.739,3.938c-.631.368-.672.938-.092,1.273l7.224,4.171a2.419,2.419,0,0,0,2.192-.061l6.739-3.938C821.585,638.643,821.626,638.073,821.046,637.738Z" fill="#e63e2c"/>
                      <path id="Path_7246" data-name="Path 7246" d="M832.2,644.178l-7.224-4.17a2.413,2.413,0,0,0-2.192.061l-6.739,3.937c-.631.368-.672.939-.092,1.273l7.224,4.171a2.413,2.413,0,0,0,2.192-.061l6.739-3.937C832.741,645.083,832.782,644.513,832.2,644.178Z" fill="#e63e2c"/>
                      <path id="Path_7247" data-name="Path 7247" d="M843.357,650.619l-7.223-4.17a2.416,2.416,0,0,0-2.192.06l-6.74,3.938c-.63.368-.671.938-.091,1.273l7.223,4.17a2.416,2.416,0,0,0,2.192-.06l6.739-3.938C843.9,651.524,843.937,650.954,843.357,650.619Z" fill="#e63e2c"/>
                      <path id="Path_7248" data-name="Path 7248" d="M854.512,657.06l-7.223-4.171a2.413,2.413,0,0,0-2.192.061l-6.739,3.937c-.631.369-.672.939-.092,1.274l7.223,4.17a2.413,2.413,0,0,0,2.192-.061l6.74-3.937C855.051,657.965,855.092,657.394,854.512,657.06Z" fill="#e63e2c"/>
                      <path id="Path_7249" data-name="Path 7249" d="M865.668,663.5l-7.224-4.17a2.415,2.415,0,0,0-2.192.06l-6.739,3.938c-.631.368-.672.938-.092,1.273l7.224,4.171a2.419,2.419,0,0,0,2.192-.061l6.739-3.938C866.207,664.405,866.248,663.835,865.668,663.5Z" fill="#e63e2c"/>
                      <path id="Path_7250" data-name="Path 7250" d="M876.823,669.941,869.6,665.77a2.413,2.413,0,0,0-2.192.061l-6.739,3.937c-.63.369-.671.939-.091,1.274l7.223,4.17a2.413,2.413,0,0,0,2.192-.061l6.739-3.937C877.362,670.846,877.4,670.275,876.823,669.941Z" fill="#e63e2c"/>
                      <path id="Path_7251" data-name="Path 7251" d="M887.978,676.381l-7.223-4.17a2.416,2.416,0,0,0-2.192.06l-6.74,3.938c-.63.368-.671.938-.091,1.273l7.223,4.171a2.419,2.419,0,0,0,2.192-.061l6.74-3.937C888.517,677.286,888.558,676.716,887.978,676.381Z" fill="#e63e2c"/>
                      <path id="Path_7252" data-name="Path 7252" d="M760.623,614.729l-7.224-4.17a2.413,2.413,0,0,0-2.192.061l-6.739,3.937c-.631.368-.672.938-.092,1.273L751.6,620a2.416,2.416,0,0,0,2.192-.061L760.531,616C761.162,615.634,761.2,615.064,760.623,614.729Z" fill="#e63e2c"/>
                      <path id="Path_7253" data-name="Path 7253" d="M749.523,608.321,742.3,604.15a2.416,2.416,0,0,0-2.192.061l-6.739,3.937c-.63.369-.671.939-.091,1.274l7.223,4.17a2.413,2.413,0,0,0,2.192-.061l6.739-3.937C750.062,609.226,750.1,608.656,749.523,608.321Z" fill="#e63e2c"/>
                      <path id="Path_7254" data-name="Path 7254" d="M738.423,601.912l-7.223-4.17a2.413,2.413,0,0,0-2.192.061l-6.74,3.937c-.63.368-.671.938-.091,1.273l7.223,4.171a2.416,2.416,0,0,0,2.192-.061l6.74-3.937C738.962,602.817,739,602.247,738.423,601.912Z" fill="#e63e2c"/>
                      <path id="Path_7255" data-name="Path 7255" d="M727.323,595.5l-7.223-4.171a2.416,2.416,0,0,0-2.192.061l-6.739,3.937c-.631.369-.672.939-.092,1.274l7.223,4.17a2.416,2.416,0,0,0,2.192-.06l6.74-3.938C727.862,596.409,727.9,595.839,727.323,595.5Z" fill="#e63e2c"/>
                      <path id="Path_7256" data-name="Path 7256" d="M716.576,601.783l-7.223-4.171a2.416,2.416,0,0,0-2.192.061l-2.228,1.3c-.631.368-.672.938-.092,1.273l7.224,4.17a2.414,2.414,0,0,0,2.191-.06l2.228-1.3C717.115,602.688,717.156,602.118,716.576,601.783Z" fill="#e63e2c"/>
                      <path id="Path_7257" data-name="Path 7257" d="M731.061,610.146l-7.223-4.171a2.419,2.419,0,0,0-2.192.061l-2.228,1.3c-.631.368-.672.938-.092,1.273l7.224,4.171a2.419,2.419,0,0,0,2.192-.061l2.228-1.3C731.6,611.051,731.641,610.481,731.061,610.146Z" fill="#e63e2c"/>
                      <path id="Path_7258" data-name="Path 7258" d="M742.115,616.528l-7.224-4.171a2.413,2.413,0,0,0-2.192.061l-2.228,1.3c-.63.368-.671.938-.091,1.273l7.223,4.17a2.416,2.416,0,0,0,2.192-.06l2.228-1.3C742.654,617.433,742.7,616.862,742.115,616.528Z" fill="#e63e2c"/>
                      <path id="Path_7259" data-name="Path 7259" d="M753.168,622.909l-7.223-4.17a2.413,2.413,0,0,0-2.192.061l-2.228,1.3c-.631.369-.672.939-.092,1.274l7.224,4.17a2.413,2.413,0,0,0,2.192-.061l2.228-1.3C753.707,623.814,753.748,623.244,753.168,622.909Z" fill="#e63e2c"/>
                      <path id="Path_7260" data-name="Path 7260" d="M764.222,629.291,757,625.121a2.416,2.416,0,0,0-2.192.06l-2.227,1.3c-.631.368-.672.939-.092,1.273l7.223,4.171a2.413,2.413,0,0,0,2.192-.061l2.228-1.3C764.761,630.2,764.8,629.626,764.222,629.291Z" fill="#e63e2c"/>
                      <path id="Path_7261" data-name="Path 7261" d="M825.932,664.92l-7.223-4.171a2.416,2.416,0,0,0-2.192.061l-2.228,1.3c-.631.368-.672.938-.092,1.273l7.224,4.17a2.416,2.416,0,0,0,2.192-.06l2.228-1.3C826.471,665.825,826.512,665.254,825.932,664.92Z" fill="#e63e2c"/>
                      <path id="Path_7262" data-name="Path 7262" d="M836.986,671.3l-7.224-4.17a2.413,2.413,0,0,0-2.192.061l-2.227,1.3c-.631.369-.672.939-.092,1.274l7.223,4.17a2.413,2.413,0,0,0,2.192-.061l2.228-1.3C837.525,672.206,837.566,671.636,836.986,671.3Z" fill="#e63e2c"/>
                      <path id="Path_7263" data-name="Path 7263" d="M848.039,677.683l-7.223-4.17a2.416,2.416,0,0,0-2.192.06l-2.228,1.3c-.631.368-.672.939-.092,1.273l7.224,4.171a2.413,2.413,0,0,0,2.192-.061l2.228-1.3C848.578,678.588,848.619,678.018,848.039,677.683Z" fill="#e63e2c"/>
                      <path id="Path_7264" data-name="Path 7264" d="M859.093,684.065l-7.224-4.171a2.419,2.419,0,0,0-2.192.061l-2.227,1.3c-.631.368-.672.938-.092,1.273l7.224,4.171a2.414,2.414,0,0,0,2.191-.061l2.228-1.3C859.632,684.97,859.673,684.4,859.093,684.065Z" fill="#e63e2c"/>
                      <path id="Path_7265" data-name="Path 7265" d="M771.778,621.17,764.555,617a2.416,2.416,0,0,0-2.192.061L755.623,621c-.63.369-.671.939-.091,1.274l7.223,4.17a2.415,2.415,0,0,0,2.192-.06l6.739-3.938C772.317,622.075,772.358,621.505,771.778,621.17Z" fill="#e63e2c"/>
                      <path id="Path_7266" data-name="Path 7266" d="M782.933,627.61l-7.223-4.17a2.413,2.413,0,0,0-2.192.061l-6.739,3.937c-.631.368-.672.938-.092,1.273l7.224,4.171a2.414,2.414,0,0,0,2.191-.061l6.74-3.937C783.472,628.515,783.513,627.945,782.933,627.61Z" fill="#e63e2c"/>
                      <path id="Path_7267" data-name="Path 7267" d="M794.089,634.051l-7.224-4.171a2.419,2.419,0,0,0-2.192.061l-6.739,3.937c-.631.369-.672.939-.092,1.274l7.224,4.17a2.416,2.416,0,0,0,2.192-.06L794,635.324C794.628,634.956,794.669,634.386,794.089,634.051Z" fill="#e63e2c"/>
                      <path id="Path_7268" data-name="Path 7268" d="M805.244,640.491l-7.224-4.17a2.411,2.411,0,0,0-2.191.061l-6.74,3.937c-.63.368-.671.938-.091,1.273l7.223,4.171a2.413,2.413,0,0,0,2.192-.061l6.739-3.937C805.783,641.4,805.824,640.826,805.244,640.491Z" fill="#e63e2c"/>
                      <path id="Path_7269" data-name="Path 7269" d="M816.4,646.932l-7.223-4.171a2.419,2.419,0,0,0-2.192.061l-6.739,3.937c-.631.369-.672.939-.092,1.274l7.224,4.17a2.414,2.414,0,0,0,2.191-.06l6.74-3.938C816.938,647.837,816.979,647.267,816.4,646.932Z" fill="#e63e2c"/>
                      <path id="Path_7270" data-name="Path 7270" d="M827.555,653.372l-7.224-4.17a2.413,2.413,0,0,0-2.192.061L811.4,653.2c-.631.368-.672.939-.092,1.273l7.224,4.171a2.413,2.413,0,0,0,2.192-.061l6.739-3.937C828.094,654.277,828.135,653.707,827.555,653.372Z" fill="#e63e2c"/>
                      <path id="Path_7271" data-name="Path 7271" d="M838.71,659.813l-7.224-4.171a2.417,2.417,0,0,0-2.191.061l-6.74,3.938c-.63.368-.672.938-.091,1.273l7.223,4.17a2.416,2.416,0,0,0,2.192-.06l6.739-3.938C839.249,660.718,839.29,660.148,838.71,659.813Z" fill="#e63e2c"/>
                      <path id="Path_7272" data-name="Path 7272" d="M849.865,666.253l-7.223-4.17a2.413,2.413,0,0,0-2.192.061l-6.739,3.937c-.631.368-.672.939-.092,1.273l7.223,4.171a2.413,2.413,0,0,0,2.192-.061l6.74-3.937C850.4,667.158,850.445,666.588,849.865,666.253Z" fill="#e63e2c"/>
                      <path id="Path_7273" data-name="Path 7273" d="M861.021,672.694l-7.224-4.17a2.416,2.416,0,0,0-2.192.06l-6.739,3.938c-.631.368-.672.938-.092,1.273l7.224,4.17a2.416,2.416,0,0,0,2.192-.06l6.739-3.938C861.56,673.6,861.6,673.029,861.021,672.694Z" fill="#e63e2c"/>
                      <path id="Path_7274" data-name="Path 7274" d="M771.253,585.236l-21.274-12.283a2.416,2.416,0,0,0-2.192.061l-6.74,3.937c-.63.369-.671.939-.091,1.274l21.274,12.282a2.413,2.413,0,0,0,2.192-.061l6.739-3.937C771.792,586.141,771.833,585.571,771.253,585.236Z" fill="#e63e2c"/>
                      <path id="Path_7275" data-name="Path 7275" d="M908.3,664.359l-21.274-12.282a2.416,2.416,0,0,0-2.192.06l-6.739,3.938c-.631.368-.671.938-.092,1.273l21.274,12.283a2.419,2.419,0,0,0,2.192-.061l6.74-3.938C908.837,665.264,908.878,664.694,908.3,664.359Z" fill="#e63e2c"/>
                      <path id="Path_7276" data-name="Path 7276" d="M887.608,638.938l-7.223-4.17a2.416,2.416,0,0,0-2.192.06l-8.029,4.691c-.63.368-.671.938-.091,1.273l7.223,4.171a2.416,2.416,0,0,0,2.192-.061l8.028-4.69C888.147,639.843,888.188,639.273,887.608,638.938Z" fill="#e63e2c"/>
                      <path id="Path_7277" data-name="Path 7277" d="M806.6,592.167l-11.552-6.67a2.413,2.413,0,0,0-2.192.061l-8.029,4.69c-.63.369-.671.939-.091,1.274l11.552,6.669a2.416,2.416,0,0,0,2.192-.06l8.028-4.691C807.137,593.072,807.178,592.5,806.6,592.167Z" fill="#e63e2c"/>
                      <path id="Path_7278" data-name="Path 7278" d="M876.86,632.733l-11.553-6.67a2.413,2.413,0,0,0-2.192.061l-8.028,4.69c-.631.368-.671.938-.092,1.273l11.553,6.67a2.413,2.413,0,0,0,2.192-.061l8.028-4.69C877.4,633.638,877.44,633.067,876.86,632.733Z" fill="#e63e2c"/>
                      <path id="Path_7279" data-name="Path 7279" d="M822.693,601.459l-11.553-6.67a2.419,2.419,0,0,0-2.192.061l-8.028,4.691c-.631.368-.672.938-.092,1.273l11.553,6.67a2.416,2.416,0,0,0,2.192-.061l8.028-4.69C823.232,602.364,823.273,601.794,822.693,601.459Z" fill="#e63e2c"/>
                      <path id="Path_7280" data-name="Path 7280" d="M800.907,600.859l50.226,29a2.413,2.413,0,0,0,2.191.03l8.187-4.783c.587-.342.557-.912-.066-1.272l-50.227-29Z" fill="#e63e2c"/>
                      <path id="Path_7281" data-name="Path 7281" d="M908.154,656.789l8.046,4.646a1.982,1.982,0,0,0,1.8-.05l3.284-1.919c.517-.3.55-.769.075-1.044l-8.046-4.645a1.978,1.978,0,0,0-1.8.05l-3.284,1.918C907.712,656.047,907.678,656.515,908.154,656.789Z" fill="#e63e2c"/>
                      <path id="Path_7282" data-name="Path 7282" d="M896.906,650.295l8.046,4.646a1.981,1.981,0,0,0,1.8-.05l3.284-1.919c.517-.3.55-.769.075-1.043l-8.046-4.646a1.981,1.981,0,0,0-1.8.05l-3.284,1.919C896.464,649.553,896.43,650.021,896.906,650.295Z" fill="#e63e2c"/>
                      <path id="Path_7283" data-name="Path 7283" d="M885.751,643.855,893.8,648.5a1.976,1.976,0,0,0,1.8-.05l3.285-1.918c.517-.3.55-.77.075-1.044l-8.047-4.645a1.976,1.976,0,0,0-1.8.049l-3.284,1.919C885.309,643.113,885.275,643.58,885.751,643.855Z" fill="#e63e2c"/>
                      <path id="Path_7284" data-name="Path 7284" d="M891.1,653.684l8.047,4.646a1.98,1.98,0,0,0,1.8-.05l3.285-1.919c.516-.3.55-.769.075-1.044l-8.047-4.645a1.976,1.976,0,0,0-1.8.05l-3.284,1.918C890.664,652.942,890.63,653.41,891.1,653.684Z" fill="#e63e2c"/>
                    </g>
                  </g>
                </g>
              </g>
            </g>
            <g id="Group_1810" data-name="Group 1810" opacity="0.8">
              <path id="Path_7286" data-name="Path 7286" d="M611.59,660.083l-7.154-4.13c-.574-.332-.5-.911.161-1.294l8.444-4.875a2.493,2.493,0,0,1,2.241-.093l7.154,4.131c.574.331.5.91-.161,1.293l-8.444,4.875A2.49,2.49,0,0,1,611.59,660.083Z" fill="#e63e2c"/>
              <path id="Path_7287" data-name="Path 7287" d="M622.638,666.462l-7.154-4.13c-.575-.332-.5-.911.161-1.294l8.444-4.876a2.492,2.492,0,0,1,2.241-.092l7.154,4.13c.574.332.5.911-.161,1.294l-8.444,4.875A2.49,2.49,0,0,1,622.638,666.462Z" fill="#e63e2c"/>
              <path id="Path_7288" data-name="Path 7288" d="M633.686,672.84l-7.154-4.13c-.575-.332-.5-.911.16-1.294l8.444-4.875a2.49,2.49,0,0,1,2.241-.093l7.154,4.13c.575.332.5.911-.16,1.294l-8.445,4.875A2.488,2.488,0,0,1,633.686,672.84Z" fill="#e63e2c"/>
              <path id="Path_7289" data-name="Path 7289" d="M648.965,667.573l-7.154-4.131c-.574-.331-.5-.911.161-1.293l7.088-4.093a2.493,2.493,0,0,1,2.241-.093l7.154,4.131c.575.331.5.91-.161,1.293l-7.088,4.093A2.493,2.493,0,0,1,648.965,667.573Z" fill="#e63e2c"/>
              <path id="Path_7290" data-name="Path 7290" d="M660.013,673.951l-7.154-4.13c-.574-.332-.5-.911.161-1.294l7.088-4.092a2.49,2.49,0,0,1,2.241-.093l7.154,4.13c.575.332.5.911-.161,1.294l-7.088,4.092A2.489,2.489,0,0,1,660.013,673.951Z" fill="#e63e2c"/>
              <path id="Path_7291" data-name="Path 7291" d="M671.061,680.33l-7.154-4.131c-.575-.331-.5-.911.161-1.294l7.088-4.092a2.493,2.493,0,0,1,2.241-.093l7.154,4.13c.574.332.5.911-.161,1.294l-7.088,4.093A2.493,2.493,0,0,1,671.061,680.33Z" fill="#e63e2c"/>
              <path id="Path_7292" data-name="Path 7292" d="M682.109,686.708l-7.154-4.13c-.575-.332-.5-.911.16-1.294l7.089-4.092a2.493,2.493,0,0,1,2.241-.094l7.154,4.131c.574.331.5.911-.161,1.294l-7.088,4.092A2.49,2.49,0,0,1,682.109,686.708Z" fill="#e63e2c"/>
              <path id="Path_7293" data-name="Path 7293" d="M693.156,693.086,686,688.956c-.574-.331-.5-.911.161-1.294l7.089-4.092a2.487,2.487,0,0,1,2.24-.093l7.154,4.13c.575.332.5.911-.16,1.294l-7.089,4.093A2.489,2.489,0,0,1,693.156,693.086Z" fill="#e63e2c"/>
              <path id="Path_7294" data-name="Path 7294" d="M704.2,699.465l-7.154-4.13c-.574-.332-.5-.911.161-1.294l7.088-4.093a2.493,2.493,0,0,1,2.241-.093l7.154,4.131c.575.331.5.911-.161,1.294l-7.088,4.092A2.493,2.493,0,0,1,704.2,699.465Z" fill="#e63e2c"/>
              <path id="Path_7295" data-name="Path 7295" d="M715.252,705.843l-7.154-4.13c-.575-.332-.5-.911.161-1.294l7.088-4.092a2.489,2.489,0,0,1,2.241-.093l7.154,4.13c.574.332.5.911-.161,1.294l-7.088,4.093A2.492,2.492,0,0,1,715.252,705.843Z" fill="#e63e2c"/>
              <path id="Path_7296" data-name="Path 7296" d="M726.3,712.222l-7.154-4.131c-.575-.331-.5-.91.161-1.293l7.088-4.093a2.493,2.493,0,0,1,2.241-.093l7.154,4.131c.574.331.5.911-.161,1.293l-7.088,4.093A2.493,2.493,0,0,1,726.3,712.222Z" fill="#e63e2c"/>
              <path id="Path_7297" data-name="Path 7297" d="M737.347,718.6l-7.154-4.13c-.574-.332-.5-.911.161-1.294l7.089-4.092a2.489,2.489,0,0,1,2.241-.093l7.153,4.13c.575.332.5.911-.16,1.294l-7.089,4.092A2.489,2.489,0,0,1,737.347,718.6Z" fill="#e63e2c"/>
              <path id="Path_7298" data-name="Path 7298" d="M748.4,724.979l-7.154-4.131c-.574-.331-.5-.91.161-1.293l7.088-4.093a2.493,2.493,0,0,1,2.241-.093l7.154,4.131c.575.331.5.91-.161,1.293l-7.088,4.093A2.493,2.493,0,0,1,748.4,724.979Z" fill="#e63e2c"/>
              <path id="Path_7299" data-name="Path 7299" d="M665.243,664.553l-7.153-4.13c-.575-.332-.5-.911.16-1.294l7.089-4.093a2.493,2.493,0,0,1,2.241-.093l7.153,4.131c.575.331.5.911-.16,1.294l-7.089,4.092A2.493,2.493,0,0,1,665.243,664.553Z" fill="#e63e2c"/>
              <path id="Path_7300" data-name="Path 7300" d="M654.031,658.079l-7.154-4.13c-.575-.332-.5-.911.161-1.294l7.088-4.092a2.49,2.49,0,0,1,2.241-.093l7.154,4.13c.574.332.5.911-.161,1.294l-7.088,4.092A2.489,2.489,0,0,1,654.031,658.079Z" fill="#e63e2c"/>
              <path id="Path_7301" data-name="Path 7301" d="M642.8,651.595l-15.408-8.9c-.574-.331-.5-.91.161-1.293l7.088-4.093a2.493,2.493,0,0,1,2.241-.093l15.408,8.9c.574.332.5.911-.161,1.294l-7.088,4.092A2.49,2.49,0,0,1,642.8,651.595Z" fill="#e63e2c"/>
              <path id="Path_7302" data-name="Path 7302" d="M650.65,643.709l-12.5-7.218c-.574-.332-.5-.912.161-1.294L645.4,631.1a2.493,2.493,0,0,1,2.241-.093l12.5,7.219c.575.332.5.911-.161,1.294l-7.088,4.093A2.492,2.492,0,0,1,650.65,643.709Z" fill="#e63e2c"/>
              <path id="Path_7303" data-name="Path 7303" d="M676.291,670.931l-7.154-4.13c-.574-.332-.5-.911.161-1.294l7.088-4.092a2.49,2.49,0,0,1,2.241-.093l7.154,4.13c.575.332.5.911-.161,1.294l-7.088,4.093A2.492,2.492,0,0,1,676.291,670.931Z" fill="#e63e2c"/>
              <path id="Path_7304" data-name="Path 7304" d="M687.339,677.31l-7.154-4.131c-.574-.331-.5-.91.161-1.293l7.088-4.093a2.492,2.492,0,0,1,2.241-.093l7.154,4.131c.575.331.5.911-.161,1.293l-7.088,4.093A2.493,2.493,0,0,1,687.339,677.31Z" fill="#e63e2c"/>
              <path id="Path_7305" data-name="Path 7305" d="M698.387,683.688l-7.154-4.13c-.575-.332-.5-.911.161-1.294l7.088-4.092a2.49,2.49,0,0,1,2.241-.093l7.154,4.13c.574.332.5.911-.161,1.294l-7.088,4.092A2.489,2.489,0,0,1,698.387,683.688Z" fill="#e63e2c"/>
              <path id="Path_7306" data-name="Path 7306" d="M709.434,690.067l-7.153-4.131c-.575-.331-.5-.91.161-1.293l7.088-4.093a2.493,2.493,0,0,1,2.241-.093l7.154,4.131c.574.331.5.91-.161,1.293l-7.089,4.093A2.493,2.493,0,0,1,709.434,690.067Z" fill="#e63e2c"/>
              <path id="Path_7307" data-name="Path 7307" d="M720.482,696.445l-7.154-4.13c-.574-.332-.5-.911.161-1.294l7.089-4.092a2.487,2.487,0,0,1,2.24-.093l7.154,4.13c.575.332.5.911-.16,1.294l-7.089,4.092A2.49,2.49,0,0,1,720.482,696.445Z" fill="#e63e2c"/>
              <path id="Path_7308" data-name="Path 7308" d="M731.53,702.824l-7.154-4.131c-.574-.331-.5-.911.161-1.294l7.088-4.092a2.49,2.49,0,0,1,2.241-.093l7.154,4.13c.575.332.5.911-.161,1.294l-7.088,4.093A2.492,2.492,0,0,1,731.53,702.824Z" fill="#e63e2c"/>
              <path id="Path_7309" data-name="Path 7309" d="M742.578,709.2l-7.154-4.13c-.574-.332-.5-.911.161-1.294l7.088-4.093a2.492,2.492,0,0,1,2.241-.092l7.154,4.13c.574.331.5.911-.161,1.294l-7.088,4.092A2.49,2.49,0,0,1,742.578,709.2Z" fill="#e63e2c"/>
              <path id="Path_7310" data-name="Path 7310" d="M753.626,715.58l-7.154-4.13c-.575-.332-.5-.911.161-1.294l7.088-4.092a2.489,2.489,0,0,1,2.241-.093l7.154,4.13c.574.332.5.911-.161,1.294l-7.089,4.093A2.49,2.49,0,0,1,753.626,715.58Z" fill="#e63e2c"/>
              <path id="Path_7311" data-name="Path 7311" d="M764.673,721.959l-7.154-4.13c-.574-.332-.5-.911.161-1.294l7.089-4.093a2.493,2.493,0,0,1,2.241-.093l7.154,4.131c.574.331.5.911-.161,1.294l-7.089,4.092A2.489,2.489,0,0,1,764.673,721.959Z" fill="#e63e2c"/>
              <path id="Path_7312" data-name="Path 7312" d="M784.314,733.3l-15.609-9.012c-.575-.331-.5-.91.161-1.294l7.088-4.092a2.489,2.489,0,0,1,2.241-.093l15.609,9.012c.574.332.5.911-.161,1.294l-7.088,4.092A2.489,2.489,0,0,1,784.314,733.3Z" fill="#e63e2c"/>
              <path id="Path_7313" data-name="Path 7313" d="M805.822,720.88l-13.174-7.606c-.575-.332-.5-.911.161-1.294l7.088-4.092a2.49,2.49,0,0,1,2.241-.093l13.175,7.606c.574.332.5.911-.161,1.294l-7.089,4.092A2.489,2.489,0,0,1,805.822,720.88Z" fill="#e63e2c"/>
              <path id="Path_7314" data-name="Path 7314" d="M695.638,669.683l-7.154-4.13c-.574-.332-.5-.911.161-1.294l7.089-4.092a2.487,2.487,0,0,1,2.24-.093l7.154,4.13c.575.332.5.911-.16,1.294l-7.089,4.093A2.492,2.492,0,0,1,695.638,669.683Z" fill="#e63e2c"/>
              <path id="Path_7315" data-name="Path 7315" d="M684.316,663.146l-7.154-4.13c-.575-.332-.5-.911.161-1.294l7.088-4.092a2.49,2.49,0,0,1,2.241-.093l7.154,4.13c.574.332.5.911-.161,1.294l-7.088,4.092A2.49,2.49,0,0,1,684.316,663.146Z" fill="#e63e2c"/>
              <path id="Path_7316" data-name="Path 7316" d="M672.993,656.609l-7.154-4.13c-.574-.332-.5-.911.161-1.294l7.088-4.092a2.49,2.49,0,0,1,2.241-.093l7.154,4.13c.575.332.5.911-.161,1.294l-7.088,4.092A2.49,2.49,0,0,1,672.993,656.609Z" fill="#e63e2c"/>
              <path id="Path_7317" data-name="Path 7317" d="M661.67,650.072l-7.154-4.13c-.574-.332-.5-.911.161-1.294l7.089-4.093a2.489,2.489,0,0,1,2.241-.092l7.154,4.13c.574.331.5.911-.161,1.294l-7.089,4.092A2.49,2.49,0,0,1,661.67,650.072Z" fill="#e63e2c"/>
              <path id="Path_7318" data-name="Path 7318" d="M706.686,676.062l-7.154-4.131c-.574-.331-.5-.91.161-1.293l7.088-4.093a2.492,2.492,0,0,1,2.241-.093l7.154,4.131c.574.331.5.911-.161,1.293l-7.088,4.093A2.493,2.493,0,0,1,706.686,676.062Z" fill="#e63e2c"/>
              <path id="Path_7319" data-name="Path 7319" d="M717.734,682.44l-7.154-4.13c-.574-.332-.5-.911.161-1.294l7.088-4.092a2.49,2.49,0,0,1,2.241-.093l7.154,4.13c.574.332.5.911-.161,1.294l-7.088,4.092A2.49,2.49,0,0,1,717.734,682.44Z" fill="#e63e2c"/>
              <path id="Path_7320" data-name="Path 7320" d="M728.781,688.819l-7.153-4.131c-.575-.331-.5-.91.16-1.293l7.089-4.093a2.493,2.493,0,0,1,2.241-.093l7.154,4.131c.574.331.5.91-.161,1.293l-7.089,4.093A2.492,2.492,0,0,1,728.781,688.819Z" fill="#e63e2c"/>
              <path id="Path_7321" data-name="Path 7321" d="M739.829,695.2l-7.154-4.13c-.574-.332-.5-.911.161-1.294l7.089-4.093a2.492,2.492,0,0,1,2.241-.092l7.154,4.13c.574.332.5.911-.161,1.294L742.07,695.1A2.49,2.49,0,0,1,739.829,695.2Z" fill="#e63e2c"/>
              <path id="Path_7322" data-name="Path 7322" d="M750.877,701.576l-7.154-4.131c-.574-.331-.5-.911.161-1.293l7.088-4.093a2.49,2.49,0,0,1,2.241-.093l7.154,4.13c.575.332.5.911-.161,1.294l-7.088,4.093A2.492,2.492,0,0,1,750.877,701.576Z" fill="#e63e2c"/>
              <path id="Path_7323" data-name="Path 7323" d="M761.925,707.954l-7.154-4.13c-.574-.332-.5-.911.161-1.294l7.088-4.093a2.489,2.489,0,0,1,2.241-.092l7.154,4.13c.574.331.5.911-.161,1.294l-7.088,4.092A2.49,2.49,0,0,1,761.925,707.954Z" fill="#e63e2c"/>
              <path id="Path_7324" data-name="Path 7324" d="M772.973,714.332l-7.154-4.13c-.575-.332-.5-.911.161-1.294l7.088-4.092a2.489,2.489,0,0,1,2.241-.093l7.154,4.13c.574.332.5.911-.161,1.294l-7.088,4.092A2.489,2.489,0,0,1,772.973,714.332Z" fill="#e63e2c"/>
              <path id="Path_7325" data-name="Path 7325" d="M784.02,720.711l-7.154-4.13c-.574-.332-.5-.911.161-1.294l7.089-4.093a2.492,2.492,0,0,1,2.241-.093l7.154,4.131c.574.331.5.911-.161,1.294l-7.089,4.092A2.489,2.489,0,0,1,784.02,720.711Z" fill="#e63e2c"/>
              <path id="Path_7326" data-name="Path 7326" d="M795.068,727.089l-7.154-4.13c-.574-.332-.5-.911.161-1.294l7.089-4.092a2.487,2.487,0,0,1,2.24-.093l7.154,4.13c.575.332.5.911-.161,1.294L797.309,727A2.489,2.489,0,0,1,795.068,727.089Z" fill="#e63e2c"/>
              <path id="Path_7327" data-name="Path 7327" d="M689.821,653.907l-7.154-4.131c-.574-.331-.5-.91.161-1.293l7.088-4.093a2.493,2.493,0,0,1,2.241-.093l7.154,4.131c.574.331.5.91-.161,1.293l-7.088,4.093A2.493,2.493,0,0,1,689.821,653.907Z" fill="#e63e2c"/>
              <path id="Path_7328" data-name="Path 7328" d="M678.828,647.56l-7.154-4.13c-.574-.332-.5-.911.161-1.294l7.088-4.093a2.489,2.489,0,0,1,2.241-.092l7.154,4.13c.575.331.5.911-.161,1.294l-7.088,4.092A2.489,2.489,0,0,1,678.828,647.56Z" fill="#e63e2c"/>
              <path id="Path_7329" data-name="Path 7329" d="M667.835,641.213l-7.154-4.13c-.574-.332-.5-.911.161-1.294l7.088-4.092a2.49,2.49,0,0,1,2.241-.093l7.154,4.13c.575.332.5.911-.161,1.294l-7.088,4.092A2.489,2.489,0,0,1,667.835,641.213Z" fill="#e63e2c"/>
              <path id="Path_7330" data-name="Path 7330" d="M656.842,634.867l-7.153-4.131c-.575-.331-.5-.911.16-1.293l7.089-4.093a2.489,2.489,0,0,1,2.241-.093l7.154,4.13c.574.332.5.911-.161,1.294l-7.089,4.093A2.493,2.493,0,0,1,656.842,634.867Z" fill="#e63e2c"/>
              <path id="Path_7331" data-name="Path 7331" d="M668.146,628.34l-7.154-4.13c-.574-.332-.5-.911.161-1.294l2.344-1.353a2.491,2.491,0,0,1,2.24-.093l7.154,4.131c.575.331.5.911-.16,1.294l-2.344,1.352A2.49,2.49,0,0,1,668.146,628.34Z" fill="#e63e2c"/>
              <path id="Path_7332" data-name="Path 7332" d="M682.492,636.623l-7.154-4.131c-.574-.331-.5-.91.161-1.293l2.343-1.353a2.49,2.49,0,0,1,2.241-.093l7.154,4.13c.574.332.5.911-.161,1.294l-2.343,1.353A2.493,2.493,0,0,1,682.492,636.623Z" fill="#e63e2c"/>
              <path id="Path_7333" data-name="Path 7333" d="M693.439,642.943l-7.154-4.13c-.574-.332-.5-.911.161-1.294l2.343-1.353a2.493,2.493,0,0,1,2.241-.093l7.154,4.13c.574.332.5.911-.161,1.294l-2.343,1.353A2.489,2.489,0,0,1,693.439,642.943Z" fill="#e63e2c"/>
              <path id="Path_7334" data-name="Path 7334" d="M704.386,649.263l-7.154-4.13c-.574-.332-.5-.911.161-1.294l2.343-1.353a2.493,2.493,0,0,1,2.241-.093l7.154,4.131c.575.331.5.91-.161,1.293l-2.343,1.353A2.49,2.49,0,0,1,704.386,649.263Z" fill="#e63e2c"/>
              <path id="Path_7335" data-name="Path 7335" d="M715.333,655.583l-7.154-4.13c-.574-.332-.5-.911.161-1.294l2.343-1.353a2.492,2.492,0,0,1,2.241-.092l7.154,4.13c.575.332.5.911-.161,1.294l-2.343,1.353A2.493,2.493,0,0,1,715.333,655.583Z" fill="#e63e2c"/>
              <path id="Path_7336" data-name="Path 7336" d="M776.448,690.869l-7.153-4.131c-.575-.331-.5-.911.16-1.294l2.344-1.353A2.492,2.492,0,0,1,774.04,684l7.154,4.13c.574.332.5.911-.161,1.294l-2.344,1.353A2.493,2.493,0,0,1,776.448,690.869Z" fill="#e63e2c"/>
              <path id="Path_7337" data-name="Path 7337" d="M787.4,697.189l-7.154-4.131c-.574-.331-.5-.91.161-1.293l2.344-1.353a2.49,2.49,0,0,1,2.241-.093l7.154,4.13c.574.332.5.911-.161,1.294l-2.344,1.353A2.493,2.493,0,0,1,787.4,697.189Z" fill="#e63e2c"/>
              <path id="Path_7338" data-name="Path 7338" d="M798.342,703.509l-7.153-4.13c-.575-.332-.5-.911.16-1.294l2.344-1.353a2.49,2.49,0,0,1,2.241-.093l7.154,4.13c.574.332.5.911-.161,1.294l-2.344,1.353A2.489,2.489,0,0,1,798.342,703.509Z" fill="#e63e2c"/>
              <path id="Path_7339" data-name="Path 7339" d="M809.289,709.829l-7.153-4.13c-.575-.332-.5-.911.16-1.294l2.344-1.353a2.493,2.493,0,0,1,2.241-.093l7.153,4.131c.575.331.5.911-.16,1.294l-2.344,1.352A2.489,2.489,0,0,1,809.289,709.829Z" fill="#e63e2c"/>
              <path id="Path_7340" data-name="Path 7340" d="M700.869,660.285l-7.154-4.13c-.575-.332-.5-.911.161-1.294l7.088-4.092a2.489,2.489,0,0,1,2.241-.093l7.154,4.13c.574.332.5.911-.161,1.294l-7.088,4.092A2.489,2.489,0,0,1,700.869,660.285Z" fill="#e63e2c"/>
              <path id="Path_7341" data-name="Path 7341" d="M711.916,666.664l-7.154-4.131c-.574-.331-.5-.911.161-1.293l7.089-4.093a2.489,2.489,0,0,1,2.241-.093l7.154,4.13c.574.332.5.911-.161,1.294l-7.089,4.093A2.493,2.493,0,0,1,711.916,666.664Z" fill="#e63e2c"/>
              <path id="Path_7342" data-name="Path 7342" d="M722.964,673.042l-7.154-4.13c-.574-.332-.5-.911.161-1.294l7.089-4.093a2.492,2.492,0,0,1,2.241-.092l7.153,4.13c.575.331.5.911-.161,1.294l-7.088,4.092A2.489,2.489,0,0,1,722.964,673.042Z" fill="#e63e2c"/>
              <path id="Path_7343" data-name="Path 7343" d="M734.012,679.42l-7.154-4.13c-.574-.332-.5-.911.161-1.294l7.088-4.092a2.49,2.49,0,0,1,2.241-.093l7.154,4.13c.574.332.5.911-.161,1.294l-7.088,4.093A2.492,2.492,0,0,1,734.012,679.42Z" fill="#e63e2c"/>
              <path id="Path_7344" data-name="Path 7344" d="M745.06,685.8l-7.154-4.13c-.575-.332-.5-.911.161-1.294l7.088-4.093a2.492,2.492,0,0,1,2.241-.093l7.154,4.131c.574.331.5.911-.161,1.294l-7.088,4.092A2.49,2.49,0,0,1,745.06,685.8Z" fill="#e63e2c"/>
              <path id="Path_7345" data-name="Path 7345" d="M756.107,692.177l-7.153-4.13c-.575-.332-.5-.911.16-1.294l7.089-4.092a2.489,2.489,0,0,1,2.241-.093l7.154,4.13c.574.332.5.911-.161,1.294l-7.089,4.092A2.49,2.49,0,0,1,756.107,692.177Z" fill="#e63e2c"/>
              <path id="Path_7346" data-name="Path 7346" d="M767.155,698.556,760,694.426c-.574-.332-.5-.912.161-1.294l7.089-4.093a2.493,2.493,0,0,1,2.241-.093l7.153,4.131c.575.331.5.91-.161,1.293l-7.088,4.093A2.493,2.493,0,0,1,767.155,698.556Z" fill="#e63e2c"/>
              <path id="Path_7347" data-name="Path 7347" d="M778.2,704.934l-7.154-4.13c-.574-.332-.5-.911.161-1.294l7.088-4.092a2.489,2.489,0,0,1,2.241-.093l7.154,4.13c.575.332.5.911-.161,1.294l-7.088,4.092A2.49,2.49,0,0,1,778.2,704.934Z" fill="#e63e2c"/>
              <path id="Path_7348" data-name="Path 7348" d="M789.251,711.313l-7.154-4.131c-.575-.331-.5-.911.161-1.294l7.088-4.092a2.493,2.493,0,0,1,2.241-.093l7.154,4.13c.574.332.5.911-.161,1.294l-7.088,4.093A2.493,2.493,0,0,1,789.251,711.313Z" fill="#e63e2c"/>
              <path id="Path_7349" data-name="Path 7349" d="M637.707,661.073l-21.069-12.165c-.575-.331-.5-.91.161-1.293l7.088-4.093a2.492,2.492,0,0,1,2.241-.093L647.2,655.594c.574.331.5.91-.161,1.293l-7.088,4.093A2.493,2.493,0,0,1,637.707,661.073Z" fill="#e63e2c"/>
              <path id="Path_7350" data-name="Path 7350" d="M773.431,739.433l-21.069-12.164c-.574-.331-.5-.911.161-1.294l7.089-4.092a2.49,2.49,0,0,1,2.241-.093l21.068,12.164c.575.332.5.911-.16,1.294l-7.089,4.092A2.489,2.489,0,0,1,773.431,739.433Z" fill="#e63e2c"/>
              <path id="Path_7351" data-name="Path 7351" d="M729.25,728.014l-7.154-4.13c-.575-.332-.5-.911.161-1.294l8.444-4.875a2.489,2.489,0,0,1,2.241-.093l7.154,4.13c.574.332.5.911-.161,1.294l-8.444,4.875A2.49,2.49,0,0,1,729.25,728.014Z" fill="#e63e2c"/>
              <path id="Path_7352" data-name="Path 7352" d="M649.02,681.694l-11.441-6.606c-.574-.331-.5-.911.161-1.293l8.444-4.876a2.489,2.489,0,0,1,2.241-.092l11.441,6.6c.575.332.5.911-.161,1.294l-8.444,4.875A2.489,2.489,0,0,1,649.02,681.694Z" fill="#e63e2c"/>
              <path id="Path_7353" data-name="Path 7353" d="M718.6,721.869l-11.441-6.606c-.574-.332-.5-.911.161-1.294l8.444-4.875A2.493,2.493,0,0,1,718.01,709l11.441,6.606c.574.331.5.91-.161,1.293l-8.444,4.876A2.493,2.493,0,0,1,718.6,721.869Z" fill="#e63e2c"/>
              <path id="Path_7354" data-name="Path 7354" d="M664.96,690.9l-11.441-6.606c-.574-.331-.5-.911.161-1.294l8.444-4.875a2.493,2.493,0,0,1,2.241-.093l11.441,6.606c.574.331.5.911-.161,1.294L667.2,690.8A2.492,2.492,0,0,1,664.96,690.9Z" fill="#e63e2c"/>
              <path id="Path_7355" data-name="Path 7355" d="M664.442,678.074l49.743,28.719a.681.681,0,0,1,0,1.29l-8.611,4.972a2.472,2.472,0,0,1-2.235,0L653.6,684.336Z" fill="#e63e2c"/>
              <path id="Path_7356" data-name="Path 7356" d="M760.126,739.579l7.969,4.6c.471.272.412.746-.132,1.06l-3.454,1.995a2.044,2.044,0,0,1-1.837.076l-7.969-4.6c-.47-.272-.411-.747.132-1.06l3.454-1.995A2.041,2.041,0,0,1,760.126,739.579Z" fill="#e63e2c"/>
              <path id="Path_7357" data-name="Path 7357" d="M748.987,733.148l7.969,4.6c.471.271.412.746-.132,1.06L753.37,740.8a2.041,2.041,0,0,1-1.837.076l-7.969-4.6c-.471-.272-.412-.747.132-1.061l3.454-1.994A2.041,2.041,0,0,1,748.987,733.148Z" fill="#e63e2c"/>
              <path id="Path_7358" data-name="Path 7358" d="M737.939,726.769l7.969,4.6c.471.272.412.747-.132,1.061l-3.454,1.994a2.041,2.041,0,0,1-1.837.076l-7.969-4.6c-.471-.272-.411-.746.132-1.06l3.454-1.994A2.041,2.041,0,0,1,737.939,726.769Z" fill="#e63e2c"/>
              <path id="Path_7359" data-name="Path 7359" d="M755.088,729.625l7.969,4.6c.47.272.411.747-.132,1.061l-3.455,1.994a2.039,2.039,0,0,1-1.836.076l-7.969-4.6c-.471-.271-.412-.746.132-1.06l3.454-1.994A2.044,2.044,0,0,1,755.088,729.625Z" fill="#e63e2c"/>
            </g>
          </g>
          <g id="Group_1812" data-name="Group 1812">
            <path id="Path_7360" data-name="Path 7360" d="M867.8,557.735a3.357,3.357,0,0,1-1.668-.479,4.879,4.879,0,0,1-2.335-4.929,2.47,2.47,0,0,1,1.4-1.779,2.956,2.956,0,0,1,2.652.279,4.889,4.889,0,0,1,2.335,4.931,2.392,2.392,0,0,1-2.384,1.977Zm-1.615-6.62a1.682,1.682,0,0,0-.682.136,1.723,1.723,0,0,0-.96,1.251,4.067,4.067,0,0,0,1.974,4.091,2.2,2.2,0,0,0,1.961.241,1.715,1.715,0,0,0,.96-1.25,4.073,4.073,0,0,0-1.973-4.093A2.6,2.6,0,0,0,866.182,551.115Z" fill="#f7bfb9"/>
            <path id="Path_7361" data-name="Path 7361" d="M876.906,562.994a3.363,3.363,0,0,1-1.668-.478,4.88,4.88,0,0,1-2.335-4.929,2.469,2.469,0,0,1,1.4-1.78,2.956,2.956,0,0,1,2.652.28,4.887,4.887,0,0,1,2.335,4.93,2.392,2.392,0,0,1-2.384,1.977Zm-1.616-6.62a1.674,1.674,0,0,0-.681.136,1.723,1.723,0,0,0-.96,1.251,4.067,4.067,0,0,0,1.973,4.091,2.2,2.2,0,0,0,1.962.241,1.717,1.717,0,0,0,.96-1.25,4.074,4.074,0,0,0-1.974-4.093A2.6,2.6,0,0,0,875.29,556.374Z" fill="#f7bfb9"/>
            <path id="Path_7362" data-name="Path 7362" d="M888.026,566.189c-.368,1.592-1.929,2.153-3.486,1.254a4.469,4.469,0,0,1-2.154-4.511c.368-1.592,1.929-2.153,3.486-1.254A4.469,4.469,0,0,1,888.026,566.189Z" fill="#f7bfb9"/>
          </g>
          <path id="Path_7363" data-name="Path 7363" d="M713.366,465.676l-4.872-2.813.378-2.252,4.872,2.813Z" fill="#f7bfb9"/>
          <path id="Path_7364" data-name="Path 7364" d="M720.448,469.765l-4.872-2.813.378-2.252,4.872,2.813Z" fill="#f7bfb9"/>
          <path id="Path_7365" data-name="Path 7365" d="M706.357,461.629l-10.684-6.169.378-2.252,10.684,6.169Z" fill="#f7bfb9"/>
        </g>
        <g id="Group_1815" data-name="Group 1815">
          <g id="Group_1814" data-name="Group 1814">
            <path id="Path_7366" data-name="Path 7366" d="M707.7,504.134l-8.154-4.708.316-1.885,8.154,4.708Z" fill="#b4bcc0"/>
            <path id="Path_7367" data-name="Path 7367" d="M714.66,508.152l-4.077-2.354.316-1.885,4.077,2.354Z" fill="#b4bcc0"/>
            <path id="Path_7368" data-name="Path 7368" d="M709.367,509.943l-3.474-2.006.316-1.885,3.474,2.006Z" fill="#b4bcc0"/>
            <path id="Path_7369" data-name="Path 7369" d="M715.186,513.3l-4.077-2.354.316-1.885,4.077,2.354Z" fill="#b4bcc0"/>
            <path id="Path_7370" data-name="Path 7370" d="M721.174,521.607l-16.022-9.25.316-1.885,16.022,9.25Z" fill="#b4bcc0"/>
            <path id="Path_7371" data-name="Path 7371" d="M707.285,558.6l-16.022-9.25.316-1.885,16.022,9.25Z" fill="#b4bcc0"/>
            <path id="Path_7372" data-name="Path 7372" d="M713.447,562.162l-4.077-2.354.316-1.885,4.077,2.354Z" fill="#b4bcc0"/>
            <path id="Path_7373" data-name="Path 7373" d="M707.885,518.782l-3.474-2.006.316-1.885L708.2,516.9Z" fill="#b4bcc0"/>
            <path id="Path_7374" data-name="Path 7374" d="M713.7,522.142l-4.077-2.354.316-1.885,4.077,2.354Z" fill="#b4bcc0"/>
            <path id="Path_7375" data-name="Path 7375" d="M712.478,526.281,703.67,521.2l.316-1.885,8.808,5.085Z" fill="#b4bcc0"/>
            <path id="Path_7376" data-name="Path 7376" d="M718.374,529.685l-4.077-2.354.316-1.885,4.077,2.354Z" fill="#b4bcc0"/>
            <path id="Path_7377" data-name="Path 7377" d="M724.3,533.107l-4.077-2.354.316-1.885,4.077,2.354Z" fill="#b4bcc0"/>
            <path id="Path_7378" data-name="Path 7378" d="M733.865,538.629l-7.715-4.454.316-1.885,7.715,4.454Z" fill="#b4bcc0"/>
            <path id="Path_7379" data-name="Path 7379" d="M727.759,544.8l-4.077-2.354L724,540.56l4.077,2.354Z" fill="#b4bcc0"/>
            <path id="Path_7380" data-name="Path 7380" d="M737.323,550.32l-7.715-4.454.316-1.885,7.715,4.454Z" fill="#b4bcc0"/>
            <path id="Path_7381" data-name="Path 7381" d="M706.265,532.388l-4.077-2.354.316-1.885,4.077,2.354Z" fill="#b4bcc0"/>
            <path id="Path_7382" data-name="Path 7382" d="M712.191,535.81l-4.077-2.354.316-1.885,4.077,2.354Z" fill="#b4bcc0"/>
            <path id="Path_7383" data-name="Path 7383" d="M721.755,541.332l-7.715-4.454.316-1.885,7.715,4.454Z" fill="#b4bcc0"/>
            <path id="Path_7384" data-name="Path 7384" d="M734.288,543.721l-4.077-2.354.316-1.885,4.077,2.354Z" fill="#b4bcc0"/>
            <path id="Path_7385" data-name="Path 7385" d="M740.215,547.142l-4.077-2.354.316-1.885,4.077,2.354Z" fill="#b4bcc0"/>
            <path id="Path_7386" data-name="Path 7386" d="M749.779,552.664l-7.715-4.454.316-1.885,7.715,4.454Z" fill="#b4bcc0"/>
            <path id="Path_7387" data-name="Path 7387" d="M719.825,565.844l-4.077-2.354.316-1.885,4.077,2.354Z" fill="#b4bcc0"/>
            <path id="Path_7388" data-name="Path 7388" d="M729.389,571.366l-7.715-4.454.316-1.885,7.715,4.454Z" fill="#b4bcc0"/>
            <path id="Path_7389" data-name="Path 7389" d="M704.783,541.228l-4.077-2.354.316-1.885,4.077,2.354Z" fill="#b4bcc0"/>
            <path id="Path_7390" data-name="Path 7390" d="M714.347,546.749l-7.715-4.454.316-1.885,7.715,4.454Z" fill="#b4bcc0"/>
            <path id="Path_7391" data-name="Path 7391" d="M724.266,573.256l-4.077-2.354.316-1.885,4.077,2.354Z" fill="#b4bcc0"/>
            <path id="Path_7392" data-name="Path 7392" d="M733.83,578.777l-7.715-4.454.316-1.885,7.715,4.454Z" fill="#b4bcc0"/>
            <path id="Path_7393" data-name="Path 7393" d="M733.362,528.644l-4.077-2.354.316-1.885,4.077,2.354Z" fill="#b4bcc0"/>
            <path id="Path_7394" data-name="Path 7394" d="M727.2,525.085l-4.077-2.354.316-1.885,4.077,2.354Z" fill="#b4bcc0"/>
            <path id="Path_7395" data-name="Path 7395" d="M742.926,534.166l-7.715-4.454.316-1.885,7.715,4.454Z" fill="#b4bcc0"/>
            <path id="Path_7396" data-name="Path 7396" d="M706.607,527.739l-3.679-2.124.316-1.885,3.678,2.124Z" fill="#b4bcc0"/>
            <path id="Path_7397" data-name="Path 7397" d="M717.515,534.037l-8.941-5.162.316-1.885,8.941,5.162Z" fill="#b4bcc0"/>
            <path id="Path_7398" data-name="Path 7398" d="M728.423,540.334l-8.941-5.162.316-1.885,8.941,5.162Z" fill="#b4bcc0"/>
            <path id="Path_7399" data-name="Path 7399" d="M748.592,537.437l-3.679-2.124.316-1.885,3.679,2.124Z" fill="#b4bcc0"/>
            <path id="Path_7400" data-name="Path 7400" d="M759.5,543.735l-8.941-5.162.316-1.885,8.941,5.162Z" fill="#b4bcc0"/>
            <path id="Path_7401" data-name="Path 7401" d="M770.408,550.032l-8.941-5.162.316-1.885,8.941,5.162Z" fill="#b4bcc0"/>
            <path id="Path_7402" data-name="Path 7402" d="M710.467,539.662l-8.941-5.162.316-1.885,8.941,5.162Z" fill="#b4bcc0"/>
            <path id="Path_7403" data-name="Path 7403" d="M715.18,542.383l-2.746-1.586.316-1.885L715.5,540.5Z" fill="#b4bcc0"/>
            <path id="Path_7404" data-name="Path 7404" d="M719.9,545.11l-2.746-1.586.316-1.885,2.746,1.586Z" fill="#b4bcc0"/>
            <path id="Path_7405" data-name="Path 7405" d="M728.636,550.152l-6.755-3.9.316-1.885,6.755,3.9Z" fill="#b4bcc0"/>
            <path id="Path_7406" data-name="Path 7406" d="M738.424,541.261l-2.746-1.586.316-1.885,2.746,1.585Z" fill="#b4bcc0"/>
            <path id="Path_7407" data-name="Path 7407" d="M747.157,546.3l-6.755-3.9.316-1.885,6.755,3.9Z" fill="#b4bcc0"/>
            <path id="Path_7408" data-name="Path 7408" d="M748.992,547.363l-6.755-3.9.316-1.885,6.755,3.9Z" fill="#b4bcc0"/>
            <path id="Path_7409" data-name="Path 7409" d="M713.027,571.614l-8.808-5.085.316-1.885,8.808,5.085Z" fill="#b4bcc0"/>
            <path id="Path_7410" data-name="Path 7410" d="M718.923,575.018l-4.077-2.354.316-1.885,4.077,2.354Z" fill="#b4bcc0"/>
            <path id="Path_7411" data-name="Path 7411" d="M724.85,578.44l-4.077-2.354.316-1.885,4.077,2.354Z" fill="#b4bcc0"/>
            <path id="Path_7412" data-name="Path 7412" d="M734.414,583.962l-7.715-4.454.316-1.885,7.715,4.454Z" fill="#b4bcc0"/>
            <path id="Path_7413" data-name="Path 7413" d="M740.532,587.494l-4.077-2.354.316-1.885,4.077,2.354Z" fill="#b4bcc0"/>
            <path id="Path_7414" data-name="Path 7414" d="M750.1,593.016l-7.715-4.454.316-1.885,7.715,4.454Z" fill="#b4bcc0"/>
            <path id="Path_7415" data-name="Path 7415" d="M720.757,585.771l-4.077-2.354.316-1.885,4.077,2.354Z" fill="#b4bcc0"/>
            <path id="Path_7416" data-name="Path 7416" d="M730.321,591.293l-7.715-4.454.316-1.885,7.715,4.454Z" fill="#b4bcc0"/>
            <path id="Path_7417" data-name="Path 7417" d="M699.462,573.477l-4.077-2.354.316-1.885,4.077,2.354Z" fill="#b4bcc0"/>
            <path id="Path_7418" data-name="Path 7418" d="M705.389,576.9l-4.077-2.354.316-1.885,4.077,2.354Z" fill="#b4bcc0"/>
            <path id="Path_7419" data-name="Path 7419" d="M714.953,582.421l-7.715-4.454.316-1.885,7.715,4.454Z" fill="#b4bcc0"/>
            <path id="Path_7420" data-name="Path 7420" d="M707.157,573.072l-3.679-2.124.316-1.885,3.678,2.124Z" fill="#b4bcc0"/>
            <path id="Path_7421" data-name="Path 7421" d="M718.065,579.37l-8.941-5.162.316-1.885,8.941,5.162Z" fill="#b4bcc0"/>
            <path id="Path_7422" data-name="Path 7422" d="M728.973,585.668l-8.941-5.162.316-1.885,8.941,5.162Z" fill="#b4bcc0"/>
            <path id="Path_7423" data-name="Path 7423" d="M696.453,576.587l-8.941-5.162.316-1.885,8.941,5.162Z" fill="#b4bcc0"/>
            <path id="Path_7424" data-name="Path 7424" d="M701.166,579.308l-2.746-1.585.316-1.885,2.746,1.586Z" fill="#b4bcc0"/>
            <path id="Path_7425" data-name="Path 7425" d="M705.889,582.035l-2.746-1.586.316-1.885,2.746,1.586Z" fill="#b4bcc0"/>
            <path id="Path_7426" data-name="Path 7426" d="M714.622,587.077l-6.756-3.9.316-1.885,6.755,3.9Z" fill="#b4bcc0"/>
            <path id="Path_7427" data-name="Path 7427" d="M716.457,588.136l-6.755-3.9.316-1.885,6.755,3.9Z" fill="#b4bcc0"/>
            <path id="Path_7428" data-name="Path 7428" d="M700.479,559.522l-2.746-1.586.316-1.885,2.746,1.585Z" fill="#b4bcc0"/>
            <path id="Path_7429" data-name="Path 7429" d="M709.212,564.564l-6.756-3.9.316-1.885,6.755,3.9Z" fill="#b4bcc0"/>
            <path id="Path_7430" data-name="Path 7430" d="M718.134,569.715l-6.755-3.9.316-1.885,6.756,3.9Z" fill="#b4bcc0"/>
            <path id="Path_7431" data-name="Path 7431" d="M752.515,599.26l-4.077-2.354.316-1.885,4.077,2.354Z" fill="#b4bcc0"/>
            <path id="Path_7432" data-name="Path 7432" d="M762.079,604.781l-7.715-4.454.316-1.885,7.715,4.454Z" fill="#b4bcc0"/>
            <path id="Path_7433" data-name="Path 7433" d="M737.461,590.568l-6.755-3.9.316-1.885,6.755,3.9Z" fill="#b4bcc0"/>
            <path id="Path_7434" data-name="Path 7434" d="M746.383,595.719l-6.755-3.9.316-1.885,6.755,3.9Z" fill="#b4bcc0"/>
            <path id="Path_7435" data-name="Path 7435" d="M695.7,540.833l-2.746-1.586.316-1.885,2.746,1.586Z" fill="#b4bcc0"/>
            <path id="Path_7436" data-name="Path 7436" d="M704.436,545.875l-6.755-3.9L698,540.09l6.755,3.9Z" fill="#b4bcc0"/>
            <path id="Path_7437" data-name="Path 7437" d="M713.358,551.026l-6.755-3.9.316-1.885,6.756,3.9Z" fill="#b4bcc0"/>
          </g>
          <path id="Path_7438" data-name="Path 7438" d="M848.147,619.729a3.8,3.8,0,0,1-1.89-.547l-54.6-31.524a7.492,7.492,0,0,1-3.213-7.259l3.493-20.833a3.879,3.879,0,0,1,2-2.995,3.356,3.356,0,0,1,3.157.265l54.6,31.525a7.5,7.5,0,0,1,3.212,7.257l-3.493,20.833a3.877,3.877,0,0,1-2,3A2.939,2.939,0,0,1,848.147,619.729ZM795.2,557.058a2.19,2.19,0,0,0-.94.207,3.134,3.134,0,0,0-1.574,2.43L789.2,580.528a6.67,6.67,0,0,0,2.843,6.467l54.6,31.523a2.6,2.6,0,0,0,2.446.237,3.134,3.134,0,0,0,1.574-2.432l3.493-20.833a6.664,6.664,0,0,0-2.841-6.465L796.71,557.5A3.014,3.014,0,0,0,795.2,557.058Z" fill="#b4bcc0"/>
          <path id="Path_7439" data-name="Path 7439" d="M842.143,655.53a3.779,3.779,0,0,1-1.889-.546l-54.6-31.525a7.5,7.5,0,0,1-3.214-7.257l3.495-20.835a3.872,3.872,0,0,1,2-2.993,3.351,3.351,0,0,1,3.161.262l54.6,31.526a7.49,7.49,0,0,1,3.212,7.257l-3.493,20.833a3.877,3.877,0,0,1-2,2.995A2.95,2.95,0,0,1,842.143,655.53Zm-1.505-1.209a2.607,2.607,0,0,0,2.447.235,3.138,3.138,0,0,0,1.574-2.432l3.493-20.833a6.667,6.667,0,0,0-2.841-6.465l-54.6-31.526a2.619,2.619,0,0,0-2.45-.235,3.13,3.13,0,0,0-1.57,2.429l-3.495,20.834a6.672,6.672,0,0,0,2.842,6.467Z" fill="#b4bcc0"/>
          <path id="Path_7440" data-name="Path 7440" d="M796.56,585.413c.967.558,1.829.349,2.147-.521l6.367-17.4c.727-1.987,3.7-.191,4.327,2.616l3.921,17.509a5.09,5.09,0,0,0,2.18,3.137l.936.541c.91.525,1.732.374,2.091-.385l1.3-2.749c.8-1.7,3.483-.1,4.214,2.528h0a5.071,5.071,0,0,0,2.123,2.912l.818.472c.992.573,1.87.337,2.169-.582l1.181-3.632c.667-2.051,3.648-.343,4.331,2.481l3.924,16.209a5.062,5.062,0,0,0,2.2,3.082Z" opacity="0.5" fill="url(#linear-gradient-7)" style="mix-blend-mode: lighten;isolation: isolate"/>
          <path id="Path_7441" data-name="Path 7441" d="M833.873,647.292a5.446,5.446,0,0,1-2.384-3.327l-3.924-16.21c-.416-1.723-1.817-3.053-2.79-3.09a.776.776,0,0,0-.8.637l-1.182,3.633a1.6,1.6,0,0,1-.941,1.053,2.079,2.079,0,0,1-1.784-.258l-.817-.471a5.443,5.443,0,0,1-2.3-3.143c-.463-1.663-1.767-2.866-2.694-2.945a.739.739,0,0,0-.8.48l-1.3,2.747a1.524,1.524,0,0,1-.933.843,2.121,2.121,0,0,1-1.7-.289l-.937-.541a5.466,5.466,0,0,1-2.361-3.384l-3.921-17.51c-.387-1.728-1.783-3.092-2.775-3.157a.782.782,0,0,0-.817.588l-6.368,17.4a1.574,1.574,0,0,1-.94.989,2.1,2.1,0,0,1-1.758-.268l.384-.663a1.355,1.355,0,0,0,1.113.21.819.819,0,0,0,.481-.531l6.368-17.4a1.513,1.513,0,0,1,1.586-1.089c1.291.083,2.995,1.613,3.475,3.754l3.922,17.509a4.713,4.713,0,0,0,2,2.888l.936.541a1.43,1.43,0,0,0,1.083.222.775.775,0,0,0,.47-.439l1.3-2.747a1.5,1.5,0,0,1,1.561-.917c1.375.117,2.854,1.657,3.37,3.5a4.7,4.7,0,0,0,1.945,2.685l.818.471a1.369,1.369,0,0,0,1.126.207.846.846,0,0,0,.486-.575l1.181-3.632a1.531,1.531,0,0,1,1.492-1.167h.071c1.275.049,2.988,1.538,3.506,3.676l3.923,16.209a4.705,4.705,0,0,0,2.013,2.838Z" fill="#b4bcc0"/>
        </g>
        <path id="Path_7442" data-name="Path 7442" d="M811.963,539.318a4.781,4.781,0,0,1-2.39-.68l-42.692-24.646a7.6,7.6,0,0,1-3.282-8.182,4.549,4.549,0,0,1,2.592-3.139,4.38,4.38,0,0,1,3.909.383L812.791,527.7a7.6,7.6,0,0,1,3.283,8.182,4.55,4.55,0,0,1-2.593,3.138A3.986,3.986,0,0,1,811.963,539.318Zm-44.255-36.177a3.2,3.2,0,0,0-1.226.24,3.8,3.8,0,0,0-2.144,2.632,6.791,6.791,0,0,0,2.928,7.315l42.691,24.646a3.609,3.609,0,0,0,3.234.337,3.8,3.8,0,0,0,2.144-2.632,6.786,6.786,0,0,0-2.928-7.314l-42.691-24.647A4.025,4.025,0,0,0,767.708,503.141Z" fill="#b4bcc0"/>
      </g>
    </g>
  </g>
</svg>
